<?xml version="1.0" encoding="utf-8"?>
<!-- Generator: Adobe Illustrator 21.0.0, SVG Export Plug-In . SVG Version: 6.00 Build 0)  -->
<svg version="1.1" id="Layer_1" xmlns="http://www.w3.org/2000/svg" xmlns:xlink="http://www.w3.org/1999/xlink" x="0px" y="0px"
	 viewBox="0 0 178.6 249.4" style="enable-background:new 0 0 178.6 249.4;" xml:space="preserve">
<style type="text/css">
	.st0{fill:#FFFFFF;}
	.st1{fill:#D40000;}
</style>
<g>
	<path class="st0" d="M8.8,0.8h161.5c4.7,0,8.5,3.8,8.5,8.5v232.4c0,4.7-3.8,8.5-8.5,8.5H8.8c-4.7,0-8.5-3.8-8.5-8.5V9.4
		C0.3,4.7,4.1,0.8,8.8,0.8z"/>
	<path class="st1" d="M14.1,56.8c-1.7-2.9-3.5-5.6-5.8-8c2.3-2.4,4.1-5.1,5.8-8c1.7,2.9,3.5,5.6,5.8,8C17.6,51.2,15.8,54,14.1,56.8z
		"/>
	<path class="st1" d="M131,65.4c-4.1-6.9-8.5-13.5-14-19.2c5.5-5.7,9.8-12.3,14-19.2c4.1,6.9,8.5,13.5,14,19.2
		C139.5,51.9,135.1,58.5,131,65.4z"/>
	<path class="st1" d="M165.1,210.3c-1.7-2.9-3.5-5.6-5.8-8c2.3-2.4,4.1-5.1,5.8-8c1.7,2.9,3.5,5.6,5.8,8
		C168.6,204.7,166.8,207.5,165.1,210.3z"/>
	<path class="st1" d="M48.2,65.4c-4.1-6.9-8.5-13.5-14-19.2c5.5-5.7,9.8-12.3,14-19.2c4.1,6.9,8.5,13.5,14,19.2
		C56.7,51.9,52.3,58.5,48.2,65.4z"/>
	<path class="st1" d="M131,118.3c-4.1-6.9-8.5-13.5-14-19.2c5.5-5.7,9.8-12.3,14-19.2c4.1,6.9,8.5,13.5,14,19.2
		C139.5,104.8,135.1,111.5,131,118.3z"/>
	<path class="st1" d="M48.2,118.3c-4.1-6.9-8.5-13.5-14-19.2c5.5-5.7,9.8-12.3,14-19.2c4.1,6.9,8.5,13.5,14,19.2
		C56.7,104.8,52.3,111.5,48.2,118.3z"/>
	<path class="st1" d="M89.6,91.9c-4.1-6.9-8.5-13.5-14-19.2c5.5-5.7,9.8-12.3,14-19.2c4.1,6.9,8.5,13.5,14,19.2
		C98.1,78.3,93.7,85,89.6,91.9z"/>
	<path class="st1" d="M48.2,224.1c-4.1-6.9-8.5-13.5-14-19.2c5.5-5.7,9.8-12.3,14-19.2c4.1,6.9,8.5,13.5,14,19.2
		C56.7,210.6,52.3,217.3,48.2,224.1z"/>
	<path class="st1" d="M131,224.1c-4.1-6.9-8.5-13.5-14-19.2c5.5-5.7,9.8-12.3,14-19.2c4.1,6.9,8.5,13.5,14,19.2
		C139.5,210.6,135.1,217.3,131,224.1z"/>
	<path class="st1" d="M131,171.2c-4.1-6.9-8.5-13.5-14-19.2c5.5-5.7,9.8-12.3,14-19.2c4.1,6.9,8.5,13.5,14,19.2
		C139.5,157.7,135.1,164.4,131,171.2z"/>
	<path class="st1" d="M48.2,171.2c-4.1-6.9-8.5-13.5-14-19.2c5.5-5.7,9.8-12.3,14-19.2c4.1,6.9,8.5,13.5,14,19.2
		C56.7,157.7,52.3,164.3,48.2,171.2z"/>
	<path class="st1" d="M89.6,197.7c-4.1-6.9-8.5-13.5-14-19.2c5.5-5.7,9.8-12.3,14-19.2c4.1,6.9,8.5,13.5,14,19.2
		C98.1,184.2,93.7,190.8,89.6,197.7z"/>
	<rect x="6" y="11.9" class="st1" width="2.6" height="26.4"/>
	<path class="st1" d="M16.2,11.9c-2.5,0-4.4,2.2-4.4,5v16.3c0,2.8,2,5,4.4,5h1.4c2.5,0,4.4-2.2,4.4-5V17c0-2.8-2-5-4.4-5H16.2z
		 M16.9,14.4c1.5,0,2.6,1.1,2.6,2.5v16.5c0,1.4-1.2,2.5-2.6,2.5c-1.5,0-2.6-1.1-2.6-2.5V16.9C14.3,15.5,15.5,14.4,16.9,14.4z"/>
	<rect x="170.6" y="212.8" class="st1" width="2.6" height="26.4"/>
	<path class="st1" d="M163,239.2c2.5,0,4.4-2.2,4.4-5v-16.3c0-2.8-2-5-4.4-5h-1.4c-2.5,0-4.4,2.2-4.4,5v16.3c0,2.8,2,5,4.4,5H163z
		 M162.2,236.7c-1.5,0-2.6-1.1-2.6-2.5v-16.5c0-1.4,1.2-2.5,2.6-2.5s2.6,1.1,2.6,2.5v16.5C164.9,235.6,163.7,236.7,162.2,236.7z"/>
</g>
</svg>
