<?xml version="1.0" encoding="utf-8"?>
<!-- Generator: Adobe Illustrator 21.0.0, SVG Export Plug-In . SVG Version: 6.00 Build 0)  -->
<svg version="1.1" id="Layer_1" xmlns="http://www.w3.org/2000/svg" xmlns:xlink="http://www.w3.org/1999/xlink" x="0px" y="0px"
	 viewBox="0 0 178.6 249.4" style="enable-background:new 0 0 178.6 249.4;" xml:space="preserve">
<style type="text/css">
	.st0{fill:#FFFFFF;}
</style>
<g>
	<path class="st0" d="M8.8,0.6h161.5c4.7,0,8.5,3.8,8.5,8.5v232.4c0,4.7-3.8,8.5-8.5,8.5H8.8c-4.7,0-8.5-3.8-8.5-8.5V9.2
		C0.3,4.5,4.1,0.6,8.8,0.6z"/>
	<path d="M48.2,26.8c-7.4,10.5-15.3,16.6-15.4,24.8c0,2.7,1.4,7.2,5.9,8c2.9,0.6,6.9-1.8,7-6.6c0-1,1-0.9,1,0.4
		c-0.1,3.8-1.3,8.2-3.4,11.8c3.2,0,6.4,0,9.7,0c-2-3.6-3.2-8-3.4-11.8c0-1.3,1-1.3,1-0.4c0.1,4.8,4.1,7.2,7,6.6
		c4.5-0.9,5.9-5.4,5.9-8C63.4,43.4,55.5,37.3,48.2,26.8z"/>
	<path d="M14.1,40.6c-3.4,4.4-7.1,6.9-7.2,10.3c0,1.1,0.7,3,2.8,3.4c1.4,0.2,3.2-0.8,3.3-2.8c0-0.4,0.5-0.4,0.5,0.2
		c-0.1,1.6-0.6,3.4-1.6,4.9c1.5,0,3,0,4.5,0c-0.9-1.5-1.5-3.3-1.6-4.9c0-0.5,0.5-0.6,0.5-0.2c0,2,1.9,3,3.3,2.8
		c2.1-0.4,2.8-2.2,2.8-3.4C21.2,47.5,17.5,45,14.1,40.6L14.1,40.6z"/>
	<path d="M48.2,171c-7.4-10.5-15.3-16.6-15.4-24.8c0-2.7,1.4-7.2,5.9-8c2.9-0.6,6.9,1.8,7,6.6c0,1,1,0.9,1-0.4
		c-0.1-3.8-1.3-8.2-3.4-11.8c3.2,0,6.4,0,9.7,0c-2,3.6-3.2,8-3.4,11.8c0,1.3,1,1.3,1,0.4c0.1-4.8,4.1-7.2,7-6.6
		c4.5,0.9,5.9,5.4,5.9,8C63.4,154.4,55.5,160.5,48.2,171z"/>
	<path d="M165.1,210.1c-3.4-4.4-7.1-6.9-7.2-10.3c0-1.1,0.7-3,2.8-3.4c1.4-0.2,3.2,0.8,3.3,2.8c0,0.4,0.5,0.4,0.5-0.2
		c-0.1-1.6-0.6-3.4-1.6-4.9c1.5,0,3,0,4.5,0c-0.9,1.5-1.5,3.3-1.6,4.9c0,0.5,0.5,0.6,0.5,0.2c0-2,1.9-3,3.3-2.8
		c2.1,0.4,2.8,2.2,2.8,3.4C172.2,203.2,168.5,205.7,165.1,210.1z"/>
	<path d="M131,26.8c-7.4,10.5-15.3,16.6-15.4,24.8c0,2.7,1.4,7.2,5.9,8c2.9,0.6,6.9-1.8,7-6.6c0-1,1-0.9,1,0.4
		c-0.1,3.8-1.3,8.2-3.4,11.8c3.2,0,6.4,0,9.7,0c-2-3.6-3.2-8-3.4-11.8c0-1.3,1-1.3,1-0.4c0.1,4.8,4.1,7.2,7,6.6
		c4.5-0.9,5.9-5.4,5.9-8C146.3,43.4,138.4,37.3,131,26.8z"/>
	<path d="M48.2,79.7c-7.4,10.5-15.3,16.6-15.4,24.8c0,2.7,1.4,7.2,5.9,8c2.9,0.6,6.9-1.8,7-6.6c0-1,1-0.9,1,0.4
		c-0.1,3.8-1.3,8.2-3.4,11.8c3.2,0,6.4,0,9.7,0c-2-3.6-3.2-8-3.4-11.8c0-1.3,1-1.3,1-0.4c0.1,4.8,4.1,7.2,7,6.6
		c4.5-0.9,5.9-5.4,5.9-8C63.4,96.3,55.5,90.2,48.2,79.7z"/>
	<path d="M89.6,60.9c-7.4,10.5-15.3,16.6-15.4,24.8c0,2.7,1.4,7.2,5.9,8c2.9,0.6,6.9-1.8,7-6.6c0-1,1-0.9,1,0.4
		c-0.1,3.8-1.3,8.2-3.4,11.8c3.2,0,6.4,0,9.7,0c-2-3.6-3.2-8-3.4-11.8c0-1.3,1-1.3,1-0.4c0.1,4.8,4.1,7.2,7,6.6
		c4.5-0.9,5.9-5.4,5.9-8C104.9,77.5,97,71.4,89.6,60.9z"/>
	<path d="M131,79.7c-7.4,10.5-15.3,16.6-15.4,24.8c0,2.7,1.4,7.2,5.9,8c2.9,0.6,6.9-1.8,7-6.6c0-1,1-0.9,1,0.4
		c-0.1,3.8-1.3,8.2-3.4,11.8c3.2,0,6.4,0,9.7,0c-2-3.6-3.2-8-3.4-11.8c0-1.3,1-1.3,1-0.4c0.1,4.8,4.1,7.2,7,6.6
		c4.5-0.9,5.9-5.4,5.9-8C146.3,96.3,138.4,90.2,131,79.7z"/>
	<path d="M48.2,223.9c-7.4-10.5-15.3-16.6-15.4-24.8c0-2.7,1.4-7.2,5.9-8c2.9-0.6,6.9,1.8,7,6.6c0,1,1,0.9,1-0.4
		c-0.1-3.8-1.3-8.2-3.4-11.8c3.2,0,6.4,0,9.7,0c-2,3.6-3.2,8-3.4,11.8c0,1.3,1,1.3,1,0.4c0.1-4.8,4.1-7.2,7-6.6
		c4.5,0.9,5.9,5.4,5.9,8C63.4,207.4,55.5,213.4,48.2,223.9z"/>
	<path d="M131,223.9c-7.4-10.5-15.3-16.6-15.4-24.8c0-2.7,1.4-7.2,5.9-8c2.9-0.6,6.9,1.8,7,6.6c0,1,1,0.9,1-0.4
		c-0.1-3.8-1.3-8.2-3.4-11.8c3.2,0,6.4,0,9.7,0c-2,3.6-3.2,8-3.4,11.8c0,1.3,1,1.3,1,0.4c0.1-4.8,4.1-7.2,7-6.6
		c4.5,0.9,5.9,5.4,5.9,8C146.3,207.4,138.4,213.4,131,223.9z"/>
	<path d="M89.6,189.8c-7.4-10.5-15.3-16.6-15.4-24.8c0-2.7,1.4-7.2,5.9-8c2.9-0.6,6.9,1.8,7,6.6c0,1,1,0.9,1-0.4
		c-0.1-3.8-1.3-8.2-3.4-11.8c3.2,0,6.4,0,9.7,0c-2,3.6-3.2,8-3.4,11.8c0,1.3,1,1.3,1,0.4c0.1-4.8,4.1-7.2,7-6.6
		c4.5,0.9,5.9,5.4,5.9,8C104.9,173.2,97,179.3,89.6,189.8z"/>
	<path d="M131,171c-7.4-10.5-15.3-16.6-15.4-24.8c0-2.7,1.4-7.2,5.9-8c2.9-0.6,6.9,1.8,7,6.6c0,1,1,0.9,1-0.4
		c-0.1-3.8-1.3-8.2-3.4-11.8c3.2,0,6.4,0,9.7,0c-2,3.6-3.2,8-3.4,11.8c0,1.3,1,1.3,1,0.4c0.1-4.8,4.1-7.2,7-6.6
		c4.5,0.9,5.9,5.4,5.9,8C146.3,154.4,138.4,160.5,131,171z"/>
	<rect x="6" y="11.7" width="2.6" height="26.4"/>
	<path d="M16.2,11.7c-2.5,0-4.4,2.2-4.4,5v16.3c0,2.8,2,5,4.4,5h1.4c2.5,0,4.4-2.2,4.4-5V16.8c0-2.8-2-5-4.4-5H16.2z M16.9,14.2
		c1.5,0,2.6,1.1,2.6,2.5v16.5c0,1.4-1.2,2.5-2.6,2.5c-1.5,0-2.6-1.1-2.6-2.5V16.7C14.3,15.3,15.5,14.2,16.9,14.2z"/>
	<rect x="170.6" y="212.6" width="2.6" height="26.4"/>
	<path d="M163,239c2.5,0,4.4-2.2,4.4-5v-16.3c0-2.8-2-5-4.4-5h-1.4c-2.5,0-4.4,2.2-4.4,5V234c0,2.8,2,5,4.4,5H163z M162.2,236.5
		c-1.5,0-2.6-1.1-2.6-2.5v-16.5c0-1.4,1.2-2.5,2.6-2.5s2.6,1.1,2.6,2.5V234C164.9,235.4,163.7,236.5,162.2,236.5z"/>
</g>
</svg>
