<?xml version="1.0" encoding="utf-8"?>
<!-- Generator: Adobe Illustrator 21.0.0, SVG Export Plug-In . SVG Version: 6.00 Build 0)  -->
<svg version="1.1" id="Layer_1" xmlns="http://www.w3.org/2000/svg" xmlns:xlink="http://www.w3.org/1999/xlink" x="0px" y="0px"
	 viewBox="0 0 178.6 249.4" style="enable-background:new 0 0 178.6 249.4;" xml:space="preserve">
<style type="text/css">
	.st0{fill:#FFFFFF;}
	.st1{fill:#D40000;}
</style>
<g>
	<path class="st0" d="M9.1,0.8h161.5c4.7,0,8.5,3.8,8.5,8.5v232.4c0,4.7-3.8,8.5-8.5,8.5H9.1c-4.7,0-8.5-3.8-8.5-8.5V9.4
		C0.5,4.7,4.4,0.8,9.1,0.8z"/>
	<path class="st1" d="M14.3,56.8c-1.7-2.9-3.5-5.6-5.8-8c2.3-2.4,4.1-5.1,5.8-8c1.7,2.9,3.5,5.6,5.8,8C17.9,51.2,16,54,14.3,56.8z"
		/>
	<path class="st1" d="M165.4,210.3c-1.7-2.9-3.5-5.6-5.8-8c2.3-2.4,4.1-5.1,5.8-8c1.7,2.9,3.5,5.6,5.8,8
		C168.9,204.7,167.1,207.5,165.4,210.3z"/>
	<path class="st1" d="M89.8,144.8c-4.1-6.9-8.5-13.5-14-19.2c5.5-5.7,9.8-12.3,14-19.2c4.1,6.9,8.5,13.5,14,19.2
		C98.4,131.3,94,137.9,89.8,144.8z"/>
	<path class="st1" d="M6.2,38.3v-2.3h2.2L13,11.9h2.6l5.1,24.1h1.7v2.3h-5.9v-2.3h1.6l-0.6-3.7h-6L11,36.1h1.6v2.3H6.2z M16.9,29.7
		l-2.6-12.9l-2.4,12.9H16.9z"/>
	<path class="st1" d="M157.3,212.8v2.3h2.2l4.6,24.1h2.6l5.1-24.1h1.7v-2.3h-5.9v2.3h1.6l-0.6,3.7h-6l-0.5-3.7h1.6v-2.3H157.3z
		 M168,221.4l-2.6,12.9l-2.4-12.9H168z"/>
</g>
</svg>
