<?xml version="1.0" encoding="utf-8"?>
<!-- Generator: Adobe Illustrator 21.0.0, SVG Export Plug-In . SVG Version: 6.00 Build 0)  -->
<svg version="1.1" id="Layer_1" xmlns="http://www.w3.org/2000/svg" xmlns:xlink="http://www.w3.org/1999/xlink" x="0px" y="0px"
	 viewBox="0 0 178.6 249.4" style="enable-background:new 0 0 178.6 249.4;" xml:space="preserve">
<style type="text/css">
	.st0{fill:#FFFFFF;}
	.st1{fill:#D40000;}
</style>
<g>
	<path class="st0" d="M9.1,0.4h161.5c4.7,0,8.5,3.8,8.5,8.5v232.4c0,4.7-3.8,8.5-8.5,8.5H9.1c-4.7,0-8.5-3.8-8.5-8.5V9
		C0.5,4.3,4.4,0.4,9.1,0.4z"/>
	<path class="st1" d="M14.3,56.4c0,0-1.8-2.6-4.2-5.6c-1.6-2-2.9-4.2-3-6.1c-0.1-2.1,1.2-4.3,3.5-4.4c2.3-0.1,3.3,1.6,3.7,3.1
		c0.4-1.4,1.3-3.2,3.7-3.1c2.3,0.1,3.6,2.3,3.5,4.4c-0.1,1.9-1.4,4-3,6.1C16.1,53.9,14.3,56.4,14.3,56.4z"/>
	<path class="st1" d="M165.4,193.9c0,0-1.8,2.6-4.2,5.6c-1.6,2-2.9,4.2-3,6.1c-0.1,2.1,1.2,4.3,3.5,4.4c2.3,0.1,3.3-1.6,3.7-3.1
		c0.4,1.4,1.3,3.2,3.7,3.1c2.3-0.1,3.6-2.2,3.5-4.4c-0.1-1.9-1.4-4-3-6.1C167.1,196.5,165.4,193.9,165.4,193.9z"/>
	<path class="st1" d="M89.8,144.4c0,0-3.7-6.1-8.8-13.3c-3.4-4.8-6.1-10-6.3-14.5c-0.3-5.1,2.4-10.3,7.4-10.5c4.9-0.2,6.9,4,7.7,7.4
		c0.8-3.5,2.8-7.7,7.7-7.4c4.9,0.2,7.6,5.4,7.4,10.5c-0.3,4.5-2.9,9.7-6.3,14.5C93.6,138.2,89.8,144.4,89.8,144.4z"/>
	<path class="st1" d="M6.2,37.9v-2.3h2.2L13,11.5h2.6l5.1,24.1h1.7v2.3h-5.9v-2.3h1.6L17.4,32h-6L11,35.7h1.6v2.3H6.2z M16.9,29.3
		l-2.6-12.9l-2.4,12.9H16.9z"/>
	<path class="st1" d="M157.3,212.4v2.3h2.2l4.6,24.1h2.6l5.1-24.1h1.7v-2.3h-5.9v2.3h1.6l-0.6,3.7h-6l-0.5-3.7h1.6v-2.3H157.3z
		 M168,221l-2.6,12.9l-2.4-12.9H168z"/>
</g>
</svg>
