<?xml version="1.0" encoding="utf-8"?>
<!-- Generator: Adobe Illustrator 21.0.0, SVG Export Plug-In . SVG Version: 6.00 Build 0)  -->
<svg version="1.1" id="Layer_1" xmlns="http://www.w3.org/2000/svg" xmlns:xlink="http://www.w3.org/1999/xlink" x="0px" y="0px"
	 viewBox="0 0 178.6 249.4" style="enable-background:new 0 0 178.6 249.4;" xml:space="preserve">
<style type="text/css">
	.st0{fill:#FFFFFF;}
</style>
<g>
	<path class="st0" d="M9.1,0.6h161.5c4.7,0,8.5,3.8,8.5,8.5v232.4c0,4.7-3.8,8.5-8.5,8.5H9.1c-4.7,0-8.5-3.8-8.5-8.5V9.2
		C0.5,4.5,4.4,0.6,9.1,0.6z"/>
	<path d="M14.3,40.6C10.9,45,7.2,47.5,7.1,51c0,1.1,0.7,3,2.8,3.4c1.4,0.2,3.2-0.8,3.3-2.8c0-0.4,0.5-0.4,0.5,0.2
		c-0.1,1.6-0.6,3.4-1.6,4.9c1.5,0,3,0,4.5,0c-0.9-1.5-1.5-3.3-1.6-4.9c0-0.5,0.5-0.6,0.5-0.2c0,2,1.9,3,3.3,2.8
		c2.1-0.4,2.8-2.2,2.8-3.4C21.5,47.5,17.8,45,14.3,40.6z"/>
	<path d="M165.4,210.1c-3.4-4.4-7.1-6.9-7.2-10.3c0-1.1,0.7-3,2.8-3.4c1.4-0.2,3.2,0.8,3.3,2.8c0,0.4,0.5,0.4,0.5-0.2
		c-0.1-1.6-0.6-3.4-1.6-4.9c1.5,0,3,0,4.5,0c-0.9,1.5-1.5,3.3-1.6,4.9c0,0.5,0.5,0.6,0.5,0.2c0-2,1.9-3,3.3-2.8
		c2.1,0.4,2.8,2.2,2.8,3.4C172.5,203.2,168.8,205.7,165.4,210.1z"/>
	<path d="M89.8,106.2c-7.4,10.5-15.3,16.6-15.4,24.8c0,2.7,1.4,7.2,5.9,8c2.9,0.6,6.9-1.8,7-6.6c0-1,1-0.9,1,0.4
		c-0.1,3.8-1.3,8.2-3.4,11.8c3.2,0,6.4,0,9.7,0c-2-3.6-3.2-8-3.4-11.8c0-1.3,1-1.3,1-0.4c0.1,4.8,4.1,7.2,7,6.6
		c4.5-0.9,5.9-5.4,5.9-8C105.1,122.7,97.2,116.7,89.8,106.2z"/>
	<path d="M6.2,38.1v-2.3h2.2L13,11.7h2.6l5.1,24.1h1.7v2.3h-5.9v-2.3h1.6l-0.6-3.7h-6L11,35.9h1.6v2.3H6.2z M16.9,29.5l-2.6-12.9
		l-2.4,12.9H16.9z"/>
	<path d="M157.3,212.6v2.3h2.2L164,239h2.6l5.1-24.1h1.7v-2.3h-5.9v2.3h1.6l-0.6,3.7h-6l-0.5-3.7h1.6v-2.3H157.3z M168,221.2
		l-2.6,12.9l-2.4-12.9H168z"/>
</g>
</svg>
