<?xml version="1.0" encoding="utf-8"?>
<!-- Generator: Adobe Illustrator 21.0.0, SVG Export Plug-In . SVG Version: 6.00 Build 0)  -->
<svg version="1.1" id="Layer_1" xmlns="http://www.w3.org/2000/svg" xmlns:xlink="http://www.w3.org/1999/xlink" x="0px" y="0px"
	 viewBox="0 0 178.6 249.4" style="enable-background:new 0 0 178.6 249.4;" xml:space="preserve">
<style type="text/css">
	.st0{fill:#FFFFFF;}
</style>
<g>
	<path class="st0" d="M9.2,0.2h161.5c4.7,0,8.5,3.8,8.5,8.5v232.4c0,4.7-3.8,8.5-8.5,8.5H9.2c-4.7,0-8.5-3.8-8.5-8.5V8.8
		C0.6,4.1,4.5,0.2,9.2,0.2z"/>
	<path d="M89.9,26.7c-7.9,0.2-11.4,9-5.6,15.9c0.8,1,0.9,1.6-0.6,0.6c-3.9-2.6-11.4-0.9-11.8,7.1c-0.5,9.9,13.3,12.7,15.9,2.2
		c0.1-1.1,1-1.1,0.8,0.5c-0.2,4.3-1.6,8.2-3.4,12.1c3.1,0,6.5,0,9.3,0c-1.8-3.9-3.2-7.9-3.4-12.1c-0.2-1.6,0.7-1.6,0.8-0.5
		c2.6,10.5,16.4,7.6,15.9-2.2c-0.4-8-7.9-9.7-11.8-7.1c-1.5,1-1.5,0.4-0.6-0.6C101.3,35.7,97.8,26.9,89.9,26.7L89.9,26.7L89.9,26.7z
		"/>
	<path d="M89.9,223.9c-7.9-0.2-11.4-9-5.6-15.9c0.8-1,0.9-1.6-0.6-0.6c-3.9,2.6-11.4,0.9-11.8-7.1c-0.5-9.9,13.3-12.7,15.9-2.2
		c0.1,1.1,1,1.1,0.8-0.5c-0.2-4.3-1.6-8.2-3.4-12.1c3.1,0,6.5,0,9.3,0c-1.8,3.9-3.2,7.9-3.4,12.1c-0.2,1.6,0.7,1.6,0.8,0.5
		c2.6-10.5,16.4-7.6,15.9,2.2c-0.4,8-7.9,9.7-11.8,7.1c-1.5-1-1.5-0.4-0.6,0.6C101.3,214.9,97.8,223.7,89.9,223.9L89.9,223.9
		L89.9,223.9z"/>
	<path d="M165.4,209.7c3.1-0.1,4.6-3.8,2.2-6.6c-0.3-0.4-0.4-0.7,0.2-0.3c1.6,1.1,4.6,0.4,4.7-3c0.2-4.1-5.3-5.3-6.4-0.9
		c-0.1,0.5-0.4,0.5-0.3-0.2c0.1-1.8,0.6-3.4,1.4-5.1c-1.2,0-2.5,0-3.7,0c0.7,1.6,1.3,3.3,1.4,5.1c0.1,0.7-0.3,0.7-0.3,0.2
		c-1-4.4-6.5-3.2-6.4,0.9c0.2,3.3,3.2,4,4.7,3c0.6-0.4,0.6-0.2,0.2,0.3C160.9,206,162.3,209.6,165.4,209.7L165.4,209.7z"/>
	<path d="M14.4,40.2c-3.1,0.1-4.6,3.8-2.2,6.6c0.3,0.4,0.4,0.7-0.2,0.3c-1.6-1.1-4.6-0.4-4.7,3c-0.2,4.1,5.3,5.3,6.4,0.9
		c0.1-0.5,0.4-0.5,0.3,0.2c-0.1,1.8-0.6,3.4-1.4,5.1c1.2,0,2.5,0,3.7,0c-0.7-1.6-1.3-3.3-1.4-5.1c-0.1-0.7,0.3-0.7,0.3-0.2
		c1,4.4,6.5,3.2,6.4-0.9c-0.2-3.3-3.2-4-4.7-3c-0.6,0.4-0.6,0.2-0.2-0.3C19,44,17.5,40.3,14.4,40.2L14.4,40.2z"/>
	<path d="M6.5,37.7L6.6,36c0.4-5,1.5-6.7,7.6-12c3-2.5,4-3.8,4.1-5.3c0.4-3.4-2.7-4.5-4.6-4.5c-2.6,0-5.5,1.5-4.1,5.2l-2.9,0.9
		c-0.6-3.4,0-6.6,2.7-8c3.6-1.8,8.2-1.1,10.5,1.8c1.6,1.9,1.9,4.6,1.1,6.7c-2.5,5.4-10.8,7.7-11.5,14h9.2v-3.5h2.7v6.4L6.5,37.7
		L6.5,37.7z"/>
	<path d="M172.9,212.3l-0.1,1.6c-0.4,5-1.5,6.7-7.6,12c-3,2.5-4,3.8-4.1,5.3c-0.4,3.4,2.7,4.5,4.6,4.5c2.6,0,5.5-1.5,4.1-5.2
		l2.9-0.9c0.6,3.4,0,6.6-2.7,8c-3.6,1.8-8.2,1.1-10.5-1.8c-1.6-1.9-1.9-4.6-1.1-6.7c2.5-5.4,10.8-7.7,11.5-14h-9.2v3.5h-2.7v-6.4
		L172.9,212.3L172.9,212.3z"/>
</g>
</svg>
