<?xml version="1.0" encoding="utf-8"?>
<!-- Generator: Adobe Illustrator 21.0.0, SVG Export Plug-In . SVG Version: 6.00 Build 0)  -->
<svg version="1.1" id="Layer_1" xmlns="http://www.w3.org/2000/svg" xmlns:xlink="http://www.w3.org/1999/xlink" x="0px" y="0px"
	 viewBox="0 0 178.6 249.4" style="enable-background:new 0 0 178.6 249.4;" xml:space="preserve">
<style type="text/css">
	.st0{fill:#FFFFFF;}
</style>
<g>
	<path class="st0" d="M9.3,0.2h161.5c4.7,0,8.5,3.8,8.5,8.5v232.4c0,4.7-3.8,8.5-8.5,8.5H9.3c-4.7,0-8.5-3.8-8.5-8.5V8.8
		C0.7,4.1,4.5,0.2,9.3,0.2z"/>
	<path d="M90,26.7c-7.9,0.2-11.4,9-5.6,15.9c0.8,1,0.9,1.6-0.6,0.6c-3.9-2.6-11.4-0.9-11.8,7.1c-0.5,9.9,13.3,12.7,15.9,2.2
		c0.1-1.1,1-1.1,0.8,0.5c-0.2,4.3-1.6,8.2-3.4,12.1c3.1,0,6.5,0,9.3,0c-1.8-3.9-3.2-7.9-3.4-12.1c-0.2-1.6,0.7-1.6,0.8-0.5
		c2.6,10.5,16.4,7.6,15.9-2.2c-0.4-8-7.9-9.7-11.8-7.1c-1.5,1-1.5,0.4-0.6-0.6C101.4,35.7,97.9,26.9,90,26.7L90,26.7L90,26.7z"/>
	<path d="M90,223.9c-7.9-0.2-11.4-9-5.6-15.9c0.8-1,0.9-1.6-0.6-0.6c-3.9,2.6-11.4,0.9-11.8-7.1c-0.5-9.9,13.3-12.7,15.9-2.2
		c0.1,1.1,1,1.1,0.8-0.5c-0.2-4.3-1.6-8.2-3.4-12.1c3.1,0,6.5,0,9.3,0c-1.8,3.9-3.2,7.9-3.4,12.1c-0.2,1.6,0.7,1.6,0.8,0.5
		c2.6-10.5,16.4-7.6,15.9,2.2c-0.4,8-7.9,9.7-11.8,7.1c-1.5-1-1.5-0.4-0.6,0.6C101.4,214.9,97.9,223.7,90,223.9L90,223.9L90,223.9z"
		/>
	<path d="M90,106.1c-7.9,0.2-11.4,9-5.6,15.9c0.8,1,0.9,1.6-0.6,0.6c-3.9-2.6-11.4-0.9-11.8,7.1c-0.5,9.9,13.3,12.7,15.9,2.2
		c0.1-1.1,1-1.1,0.8,0.5c-0.2,4.3-1.6,8.2-3.4,12.1c3.1,0,6.5,0,9.3,0c-1.8-3.9-3.2-7.9-3.4-12.1c-0.2-1.6,0.7-1.6,0.8-0.5
		c2.6,10.5,16.4,7.6,15.9-2.2c-0.4-8-7.9-9.7-11.8-7.1c-1.5,1-1.5,0.4-0.6-0.6C101.4,115.1,97.9,106.3,90,106.1L90,106.1L90,106.1z"
		/>
	<path d="M165.5,209.7c3.1-0.1,4.6-3.8,2.2-6.6c-0.3-0.4-0.4-0.7,0.2-0.3c1.6,1.1,4.6,0.4,4.7-3c0.2-4.1-5.3-5.3-6.4-0.9
		c-0.1,0.5-0.4,0.5-0.3-0.2c0.1-1.8,0.6-3.4,1.4-5.1c-1.2,0-2.5,0-3.7,0c0.7,1.6,1.3,3.3,1.4,5.1c0.1,0.7-0.3,0.7-0.3,0.2
		c-1-4.4-6.5-3.2-6.4,0.9c0.2,3.3,3.2,4,4.7,3c0.6-0.4,0.6-0.2,0.2,0.3C161,206,162.4,209.6,165.5,209.7L165.5,209.7z"/>
	<path d="M14.5,40.2c-3.1,0.1-4.6,3.8-2.2,6.6c0.3,0.4,0.4,0.7-0.2,0.3c-1.6-1.1-4.6-0.4-4.7,3c-0.2,4.1,5.3,5.3,6.4,0.9
		c0.1-0.5,0.4-0.5,0.3,0.2c-0.1,1.8-0.6,3.4-1.4,5.1c1.2,0,2.5,0,3.7,0c-0.7-1.6-1.3-3.3-1.4-5.1c-0.1-0.7,0.3-0.7,0.3-0.2
		c1,4.4,6.5,3.2,6.4-0.9c-0.2-3.3-3.2-4-4.7-3c-0.6,0.4-0.6,0.2-0.2-0.3C19,44,17.6,40.3,14.5,40.2L14.5,40.2z"/>
	<path d="M5.9,31.9l2-1.5c1.8,2.9,3.7,4.8,6.8,4.4c4.5-0.3,6.4-5.1,5.5-8.6c-0.9-3.2-4.7-4.8-7.6-3.1c-0.7,0.4-1.4,0.7-1.5,0.7
		c-0.3,0-1-1.4-0.9-1.8c2-2.9,6.9-8,6.9-8H9.3v3.4H6.4v-6.1h14.8v2.1c0,0-4,4.1-5.3,6.4c3.2,0.1,5.8,2.2,6.8,5.4
		c0.5,1.7,0.3,5.6-0.4,7.3c-1.2,2.8-4.5,5.1-7.4,5.2C9.9,38,7.2,34.5,5.9,31.9L5.9,31.9z"/>
	<path d="M174.1,218l-2,1.5c-1.8-2.9-3.7-4.8-6.8-4.4c-4.5,0.3-6.4,5.1-5.5,8.6c0.9,3.2,4.7,4.8,7.6,3.1c0.7-0.4,1.4-0.7,1.5-0.7
		c0.3,0,1,1.4,0.9,1.8c-2,2.9-6.9,8-6.9,8h7.6v-3.4h2.9v6.1h-14.8v-2.1c0,0,4-4.1,5.3-6.4c-3.2-0.1-5.8-2.2-6.8-5.4
		c-0.5-1.7-0.3-5.6,0.4-7.3c1.2-2.8,4.5-5.1,7.4-5.2C170.1,211.9,172.8,215.4,174.1,218z"/>
</g>
</svg>
