<?xml version="1.0" encoding="utf-8"?>
<!-- Generator: Adobe Illustrator 21.0.0, SVG Export Plug-In . SVG Version: 6.00 Build 0)  -->
<svg version="1.1" id="Layer_1" xmlns="http://www.w3.org/2000/svg" xmlns:xlink="http://www.w3.org/1999/xlink" x="0px" y="0px"
	 viewBox="0 0 178.6 249.4" style="enable-background:new 0 0 178.6 249.4;" xml:space="preserve">
<style type="text/css">
	.st0{fill:#FFFFFF;}
</style>
<g>
	<path class="st0" d="M9.3,0.6h161.5c4.7,0,8.5,3.8,8.5,8.5v232.4c0,4.7-3.8,8.5-8.5,8.5H9.3c-4.7,0-8.5-3.8-8.5-8.5V9.2
		C0.7,4.5,4.5,0.6,9.3,0.6z"/>
	<path d="M14.5,40.6C11,45,7.3,47.5,7.3,51c0,1.1,0.7,3,2.8,3.4c1.4,0.2,3.2-0.8,3.3-2.8c0-0.4,0.5-0.4,0.5,0.2
		c-0.1,1.6-0.6,3.4-1.6,4.9c1.5,0,3,0,4.5,0c-0.9-1.5-1.5-3.3-1.6-4.9c0-0.5,0.5-0.6,0.5-0.2c0,2,1.9,3,3.3,2.8
		c2.1-0.4,2.8-2.2,2.8-3.4C21.6,47.5,17.9,45,14.5,40.6z"/>
	<path d="M165.5,210.1c-3.4-4.4-7.1-6.9-7.2-10.3c0-1.1,0.7-3,2.8-3.4c1.4-0.2,3.2,0.8,3.3,2.8c0,0.4,0.5,0.4,0.5-0.2
		c-0.1-1.6-0.6-3.4-1.6-4.9c1.5,0,3,0,4.5,0c-0.9,1.5-1.5,3.3-1.6,4.9c0,0.5,0.5,0.6,0.5,0.2c0-2,1.9-3,3.3-2.8
		c2.1,0.4,2.8,2.2,2.8,3.4C172.7,203.2,169,205.7,165.5,210.1z"/>
	<path d="M90,26.8c-7.4,10.5-15.3,16.6-15.4,24.8c0,2.7,1.4,7.2,5.9,8c2.9,0.6,6.9-1.8,7-6.6c0-1,1-0.9,1,0.4
		c-0.1,3.8-1.3,8.2-3.4,11.8c3.2,0,6.4,0,9.7,0c-2-3.6-3.2-8-3.4-11.8c0-1.3,1-1.3,1-0.4c0.1,4.8,4.1,7.2,7,6.6
		c4.5-0.9,5.9-5.4,5.9-8C105.3,43.4,97.4,37.3,90,26.8z"/>
	<path d="M90,223.9c-7.4-10.5-15.3-16.6-15.4-24.8c0-2.7,1.4-7.2,5.9-8c2.9-0.6,6.9,1.8,7,6.6c0,1,1,0.9,1-0.4
		c-0.1-3.8-1.3-8.2-3.4-11.8c3.2,0,6.4,0,9.7,0c-2,3.6-3.2,8-3.4,11.8c0,1.3,1,1.3,1,0.4c0.1-4.8,4.1-7.2,7-6.6
		c4.5,0.9,5.9,5.4,5.9,8C105.3,207.4,97.4,213.4,90,223.9z"/>
	<path d="M90,106.2c-7.4,10.5-15.3,16.6-15.4,24.8c0,2.7,1.4,7.2,5.9,8c2.9,0.6,6.9-1.8,7-6.6c0-1,1-0.9,1,0.4
		c-0.1,3.8-1.3,8.2-3.4,11.8c3.2,0,6.4,0,9.7,0c-2-3.6-3.2-8-3.4-11.8c0-1.3,1-1.3,1-0.4c0.1,4.8,4.1,7.2,7,6.6
		c4.5-0.9,5.9-5.4,5.9-8C105.3,122.7,97.4,116.7,90,106.2z"/>
	<path d="M5.9,32.3l2-1.5c1.8,2.9,3.7,4.8,6.8,4.4c4.5-0.3,6.4-5.1,5.5-8.6c-0.9-3.2-4.7-4.8-7.6-3.1c-0.7,0.4-1.4,0.7-1.5,0.7
		c-0.3,0-1-1.4-0.9-1.8c2-2.9,6.9-8,6.9-8H9.3v3.4H6.4v-6.1h14.8v2.1c0,0-4,4.1-5.3,6.4c3.2,0.1,5.8,2.2,6.8,5.4
		c0.5,1.7,0.3,5.6-0.4,7.3c-1.2,2.8-4.5,5.1-7.4,5.2C9.9,38.4,7.2,34.9,5.9,32.3L5.9,32.3z"/>
	<path d="M174.1,218.4l-2,1.5c-1.8-2.9-3.7-4.8-6.8-4.4c-4.5,0.3-6.4,5.1-5.5,8.6c0.9,3.2,4.7,4.8,7.6,3.1c0.7-0.4,1.4-0.7,1.5-0.7
		c0.3,0,1,1.4,0.9,1.8c-2,2.9-6.9,8-6.9,8h7.6v-3.4h2.9v6.1h-14.8v-2.1c0,0,4-4.1,5.3-6.4c-3.2-0.1-5.8-2.2-6.8-5.4
		c-0.5-1.7-0.3-5.6,0.4-7.3c1.2-2.8,4.5-5.1,7.4-5.2C170.1,212.3,172.8,215.8,174.1,218.4z"/>
</g>
</svg>
