<?xml version="1.0" encoding="utf-8"?>
<!-- Generator: Adobe Illustrator 21.0.0, SVG Export Plug-In . SVG Version: 6.00 Build 0)  -->
<svg version="1.1" id="Layer_1" xmlns="http://www.w3.org/2000/svg" xmlns:xlink="http://www.w3.org/1999/xlink" x="0px" y="0px"
	 viewBox="0 0 178.6 249.4" style="enable-background:new 0 0 178.6 249.4;" xml:space="preserve">
<style type="text/css">
	.st0{fill:#FFFFFF;}
	.st1{fill:#D40000;}
</style>
<g>
	<path class="st0" d="M9.3,0.4h161.5c4.7,0,8.5,3.8,8.5,8.5v232.4c0,4.7-3.8,8.5-8.5,8.5H9.3c-4.7,0-8.5-3.8-8.5-8.5V9
		C0.8,4.3,4.6,0.4,9.3,0.4z"/>
	<path class="st1" d="M14.6,56.4c0,0-1.8-2.6-4.2-5.6c-1.6-2-2.9-4.2-3-6.1c-0.1-2.1,1.2-4.3,3.5-4.4c2.3-0.1,3.3,1.6,3.7,3.1
		c0.4-1.4,1.3-3.2,3.7-3.1c2.3,0.1,3.6,2.3,3.5,4.4c-0.1,1.9-1.4,4-3,6.1C16.3,53.9,14.6,56.4,14.6,56.4z"/>
	<path class="st1" d="M165.6,193.9c0,0-1.8,2.6-4.2,5.6c-1.6,2-2.9,4.2-3,6.1c-0.1,2.1,1.2,4.3,3.5,4.4c2.3,0.1,3.3-1.6,3.7-3.1
		c0.4,1.4,1.3,3.2,3.7,3.1c2.3-0.1,3.6-2.2,3.5-4.4c-0.1-1.9-1.4-4-3-6.1C167.4,196.5,165.6,193.9,165.6,193.9z"/>
	<path class="st1" d="M48.7,65c0,0-3.7-6.1-8.8-13.3c-3.4-4.8-6.1-10-6.3-14.5C33.3,32,36,26.9,40.9,26.6c4.9-0.2,6.9,4,7.7,7.4
		c0.8-3.5,2.8-7.7,7.7-7.4c4.9,0.2,7.6,5.4,7.4,10.5c-0.3,4.5-2.9,9.7-6.3,14.5C52.4,58.9,48.7,65,48.7,65z"/>
	<path class="st1" d="M131.5,65c0,0-3.7-6.1-8.8-13.3c-3.4-4.8-6.1-10-6.3-14.5c-0.3-5.1,2.4-10.3,7.4-10.5c4.9-0.2,6.9,4,7.7,7.4
		c0.8-3.5,2.8-7.7,7.7-7.4c4.9,0.2,7.6,5.4,7.4,10.5c-0.3,4.5-2.9,9.7-6.3,14.5C135.2,58.9,131.5,65,131.5,65z"/>
	<path class="st1" d="M131.5,185.3c0,0-3.7,6.1-8.8,13.3c-3.4,4.8-6.1,10-6.3,14.5c-0.3,5.1,2.4,10.3,7.4,10.5
		c4.9,0.2,6.9-4,7.7-7.4c0.8,3.5,2.8,7.7,7.7,7.4c4.9-0.2,7.6-5.4,7.4-10.5c-0.3-4.5-2.9-9.7-6.3-14.5
		C135.2,191.5,131.5,185.3,131.5,185.3z"/>
	<path class="st1" d="M48.7,185.3c0,0-3.7,6.1-8.8,13.3c-3.4,4.8-6.1,10-6.3,14.5c-0.3,5.1,2.4,10.3,7.4,10.5c4.9,0.2,6.9-4,7.7-7.4
		c0.8,3.5,2.8,7.7,7.7,7.4c4.9-0.2,7.6-5.4,7.4-10.5c-0.3-4.5-2.9-9.7-6.3-14.5C52.4,191.5,48.7,185.3,48.7,185.3z"/>
	<path class="st1" d="M14.8,37.9v-2.3h2.1v-3.8H6.3V29l11.4-17.5l1.9,0V29h3.2v2.7h-3.2l-0.1,3.8h1.8v2.3L14.8,37.9L14.8,37.9z
		 M16.9,17.9L9.6,29h7.2V17.9z"/>
	<path class="st1" d="M165.4,212.4v2.3h-2.1v3.8h10.5v2.7l-11.4,17.5l-1.9,0v-17.5h-3.2v-2.7h3.2l0.1-3.8h-1.8v-2.3L165.4,212.4
		L165.4,212.4z M163.3,232.4l7.2-11.1h-7.2V232.4z"/>
</g>
</svg>
