<?xml version="1.0" encoding="utf-8"?>
<!-- Generator: Adobe Illustrator 21.0.0, SVG Export Plug-In . SVG Version: 6.00 Build 0)  -->
<svg version="1.1" id="Layer_1" xmlns="http://www.w3.org/2000/svg" xmlns:xlink="http://www.w3.org/1999/xlink" x="0px" y="0px"
	 viewBox="0 0 178.6 249.4" style="enable-background:new 0 0 178.6 249.4;" xml:space="preserve">
<style type="text/css">
	.st0{fill:#FFFFFF;}
	.st1{fill:#D40000;}
</style>
<g>
	<path class="st0" d="M9.4,0.8h161.5c4.7,0,8.5,3.8,8.5,8.5v232.4c0,4.7-3.8,8.5-8.5,8.5H9.4c-4.7,0-8.5-3.8-8.5-8.5V9.4
		C0.9,4.7,4.7,0.8,9.4,0.8z"/>
	<path class="st1" d="M14.6,56.8c-1.7-2.9-3.5-5.6-5.8-8c2.3-2.4,4.1-5.1,5.8-8c1.7,2.9,3.5,5.6,5.8,8C18.2,51.2,16.4,54,14.6,56.8z
		"/>
	<path class="st1" d="M131.6,65.4c-4.1-6.9-8.5-13.5-14-19.2c5.5-5.7,9.8-12.3,14-19.2c4.1,6.9,8.5,13.5,14,19.2
		C140.1,51.9,135.7,58.5,131.6,65.4z"/>
	<path class="st1" d="M165.7,210.3c-1.7-2.9-3.5-5.6-5.8-8c2.3-2.4,4.1-5.1,5.8-8c1.7,2.9,3.5,5.6,5.8,8
		C169.2,204.7,167.4,207.5,165.7,210.3z"/>
	<path class="st1" d="M48.8,65.4c-4.1-6.9-8.5-13.5-14-19.2c5.5-5.7,9.8-12.3,14-19.2c4.1,6.9,8.5,13.5,14,19.2
		C57.3,51.9,52.9,58.5,48.8,65.4z"/>
	<path class="st1" d="M90.2,144.8c-4.1-6.9-8.5-13.5-14-19.2c5.5-5.7,9.8-12.3,14-19.2c4.1,6.9,8.5,13.5,14,19.2
		C98.7,131.3,94.3,137.9,90.2,144.8z"/>
	<path class="st1" d="M48.8,224.1c-4.1-6.9-8.5-13.5-14-19.2c5.5-5.7,9.8-12.3,14-19.2c4.1,6.9,8.5,13.5,14,19.2
		C57.3,210.6,52.9,217.3,48.8,224.1z"/>
	<path class="st1" d="M131.6,224.1c-4.1-6.9-8.5-13.5-14-19.2c5.5-5.7,9.8-12.3,14-19.2c4.1,6.9,8.5,13.5,14,19.2
		C140.1,210.6,135.7,217.3,131.6,224.1z"/>
	<path class="st1" d="M6.3,31.5l2.6,0c0.5,1.6,1.6,3.2,3.1,3.7c4.2,1,6.9-1.4,7.8-4.1c1.1-3.3,0-8-2.9-9.7c-2.4-1.4-5.9-0.2-7.6,2.7
		l-1.8-1.1l1-11h11.8v2.6h-9.6l-0.2,4.6c2.1-1.5,5.2-1.5,7.3-0.4c3.9,1.9,5.7,6.2,5,11.3c-1.1,5.1-3.4,7.9-8.6,8.3
		C8.4,38.4,6.3,34.3,6.3,31.5L6.3,31.5z"/>
	<path class="st1" d="M174,219.7l-2.6,0c-0.5-1.6-1.6-3.2-3.1-3.7c-4.2-1-6.9,1.4-7.8,4.1c-1.1,3.3,0,8,2.9,9.7
		c2.4,1.4,5.9,0.2,7.6-2.7l1.8,1.1l-1,11h-11.8v-2.6h9.6l0.2-4.6c-2.1,1.5-5.2,1.5-7.3,0.4c-3.9-1.9-5.7-6.2-5-11.3
		c1.1-5.1,3.4-7.9,8.6-8.3C172,212.8,174,216.8,174,219.7L174,219.7z"/>
</g>
</svg>
