<?xml version="1.0" encoding="utf-8"?>
<!-- Generator: Adobe Illustrator 21.0.0, SVG Export Plug-In . SVG Version: 6.00 Build 0)  -->
<svg version="1.1" id="Layer_1" xmlns="http://www.w3.org/2000/svg" xmlns:xlink="http://www.w3.org/1999/xlink" x="0px" y="0px"
	 viewBox="0 0 178.6 249.4" style="enable-background:new 0 0 178.6 249.4;" xml:space="preserve">
<style type="text/css">
	.st0{fill:#FFFFFF;}
	.st1{fill:#D40000;}
</style>
<g>
	<path class="st0" d="M9.4,0.4h161.5c4.7,0,8.5,3.8,8.5,8.5v232.4c0,4.7-3.8,8.5-8.5,8.5H9.4c-4.7,0-8.5-3.8-8.5-8.5V9
		C0.9,4.3,4.7,0.4,9.4,0.4z"/>
	<path class="st1" d="M14.6,56.4c0,0-1.8-2.6-4.2-5.6c-1.6-2-2.9-4.2-3-6.1c-0.1-2.1,1.2-4.3,3.5-4.4c2.3-0.1,3.3,1.6,3.7,3.1
		c0.4-1.4,1.3-3.2,3.7-3.1c2.3,0.1,3.6,2.3,3.5,4.4c-0.1,1.9-1.4,4-3,6.1C16.4,53.9,14.6,56.4,14.6,56.4z"/>
	<path class="st1" d="M165.7,193.9c0,0-1.8,2.6-4.2,5.6c-1.6,2-2.9,4.2-3,6.1c-0.1,2.1,1.2,4.3,3.5,4.4c2.3,0.1,3.3-1.6,3.7-3.1
		c0.4,1.4,1.3,3.2,3.7,3.1c2.3-0.1,3.6-2.2,3.5-4.4c-0.1-1.9-1.4-4-3-6.1C167.5,196.5,165.7,193.9,165.7,193.9z"/>
	<path class="st1" d="M48.8,65c0,0-3.7-6.1-8.8-13.3c-3.4-4.8-6.1-10-6.3-14.5C33.4,32,36.1,26.9,41,26.6c4.9-0.2,6.9,4,7.7,7.4
		c0.8-3.5,2.8-7.7,7.7-7.4c4.9,0.2,7.6,5.4,7.4,10.5c-0.3,4.5-2.9,9.7-6.3,14.5C52.5,58.9,48.8,65,48.8,65z"/>
	<path class="st1" d="M131.6,65c0,0-3.7-6.1-8.8-13.3c-3.4-4.8-6.1-10-6.3-14.5c-0.3-5.1,2.4-10.3,7.4-10.5c4.9-0.2,6.9,4,7.7,7.4
		c0.8-3.5,2.8-7.7,7.7-7.4c4.9,0.2,7.6,5.4,7.4,10.5c-0.3,4.5-2.9,9.7-6.3,14.5C135.3,58.9,131.6,65,131.6,65z"/>
	<path class="st1" d="M90.2,144.4c0,0-3.7-6.1-8.8-13.3c-3.4-4.8-6.1-10-6.3-14.5c-0.3-5.1,2.4-10.3,7.4-10.5c4.9-0.2,6.9,4,7.7,7.4
		c0.8-3.5,2.8-7.7,7.7-7.4c4.9,0.2,7.6,5.4,7.4,10.5c-0.3,4.5-2.9,9.7-6.3,14.5C93.9,138.2,90.2,144.4,90.2,144.4z"/>
	<path class="st1" d="M131.6,185.3c0,0-3.7,6.1-8.8,13.3c-3.4,4.8-6.1,10-6.3,14.5c-0.3,5.1,2.4,10.3,7.4,10.5
		c4.9,0.2,6.9-4,7.7-7.4c0.8,3.5,2.8,7.7,7.7,7.4c4.9-0.2,7.6-5.4,7.4-10.5c-0.3-4.5-2.9-9.7-6.3-14.5
		C135.3,191.5,131.6,185.3,131.6,185.3z"/>
	<path class="st1" d="M48.8,185.3c0,0-3.7,6.1-8.8,13.3c-3.4,4.8-6.1,10-6.3,14.5c-0.3,5.1,2.4,10.3,7.4,10.5c4.9,0.2,6.9-4,7.7-7.4
		c0.8,3.5,2.8,7.7,7.7,7.4c4.9-0.2,7.6-5.4,7.4-10.5c-0.3-4.5-2.9-9.7-6.3-14.5C52.5,191.5,48.8,185.3,48.8,185.3z"/>
	<path class="st1" d="M6.3,31.1l2.6,0c0.5,1.6,1.6,3.2,3.1,3.7c4.2,1,6.9-1.4,7.8-4.1c1.1-3.3,0-8-2.9-9.7c-2.4-1.4-5.9-0.2-7.6,2.7
		l-1.8-1.1l1-11h11.8v2.6h-9.6l-0.2,4.6c2.1-1.5,5.2-1.5,7.3-0.4c3.9,1.9,5.7,6.2,5,11.3c-1.1,5.1-3.4,7.9-8.6,8.3
		C8.4,38,6.3,33.9,6.3,31.1L6.3,31.1z"/>
	<path class="st1" d="M174,219.3l-2.6,0c-0.5-1.6-1.6-3.2-3.1-3.7c-4.2-1-6.9,1.4-7.8,4.1c-1.1,3.3,0,8,2.9,9.7
		c2.4,1.4,5.9,0.2,7.6-2.7l1.8,1.1l-1,11h-11.8v-2.6h9.6l0.2-4.6c-2.1,1.5-5.2,1.5-7.3,0.4c-3.9-1.9-5.7-6.2-5-11.3
		c1.1-5.1,3.4-7.9,8.6-8.3C172,212.4,174,216.4,174,219.3L174,219.3z"/>
</g>
</svg>
