<?xml version="1.0" encoding="utf-8"?>
<!-- Generator: Adobe Illustrator 21.0.0, SVG Export Plug-In . SVG Version: 6.00 Build 0)  -->
<svg version="1.1" id="Layer_1" xmlns="http://www.w3.org/2000/svg" xmlns:xlink="http://www.w3.org/1999/xlink" x="0px" y="0px"
	 viewBox="0 0 178.6 249.4" style="enable-background:new 0 0 178.6 249.4;" xml:space="preserve">
<style type="text/css">
	.st0{fill:#FFFFFF;}
</style>
<g>
	<path class="st0" d="M170.9,250.1H9.4c-4.7,0-8.5-3.8-8.5-8.5V9.2c0-4.7,3.8-8.5,8.5-8.5h161.5c4.7,0,8.5,3.8,8.5,8.5v232.4
		C179.5,246.3,175.6,250.1,170.9,250.1z"/>
	<path d="M131.6,223.9c7.4-10.5,15.3-16.6,15.4-24.8c0-2.7-1.4-7.2-5.9-8c-2.9-0.6-6.9,1.8-7,6.6c0,1-1,0.9-1-0.4
		c0.1-3.8,1.3-8.2,3.4-11.8c-3.2,0-6.4,0-9.7,0c2,3.6,3.2,8,3.4,11.8c0,1.3-1,1.3-1,0.4c-0.1-4.8-4.1-7.2-7-6.6
		c-4.5,0.9-5.9,5.4-5.9,8C116.3,207.4,124.2,213.4,131.6,223.9L131.6,223.9z"/>
	<path d="M165.7,210.1c3.4-4.4,7.1-6.9,7.2-10.3c0-1.1-0.7-3-2.8-3.4c-1.4-0.2-3.2,0.8-3.3,2.8c0,0.4-0.5,0.4-0.5-0.2
		c0.1-1.6,0.6-3.4,1.6-4.9c-1.5,0-3,0-4.5,0c0.9,1.5,1.5,3.3,1.6,4.9c0,0.5-0.5,0.6-0.5,0.2c0-2-1.9-3-3.3-2.8
		c-2.1,0.4-2.8,2.2-2.8,3.4C158.5,203.2,162.2,205.7,165.7,210.1z"/>
	<path d="M14.6,40.6c3.4,4.4,7.1,6.9,7.2,10.3c0,1.1-0.7,3-2.8,3.4c-1.4,0.2-3.2-0.8-3.3-2.8c0-0.4-0.5-0.4-0.5,0.2
		c0.1,1.6,0.6,3.4,1.6,4.9c-1.5,0-3,0-4.5,0c0.9-1.5,1.5-3.3,1.6-4.9c0-0.5-0.5-0.6-0.5-0.2c0,2-1.9,3-3.3,2.8
		c-2.1-0.4-2.8-2.2-2.8-3.4C7.5,47.5,11.2,45,14.6,40.6z"/>
	<path d="M48.8,223.9c7.4-10.5,15.3-16.6,15.4-24.8c0-2.7-1.4-7.2-5.9-8c-2.9-0.6-6.9,1.8-7,6.6c0,1-1,0.9-1-0.4
		c0.1-3.8,1.3-8.2,3.4-11.8c-3.2,0-6.4,0-9.7,0c2,3.6,3.2,8,3.4,11.8c0,1.3-1,1.3-1,0.4c-0.1-4.8-4.1-7.2-7-6.6
		c-4.5,0.9-5.9,5.4-5.9,8C33.5,207.4,41.4,213.4,48.8,223.9z"/>
	<path d="M131.6,26.8c7.4,10.5,15.3,16.6,15.4,24.8c0,2.7-1.4,7.2-5.9,8c-2.9,0.6-6.9-1.8-7-6.6c0-1-1-0.9-1,0.4
		c0.1,3.8,1.3,8.2,3.4,11.8c-3.2,0-6.4,0-9.7,0c2-3.6,3.2-8,3.4-11.8c0-1.3-1-1.3-1-0.4c-0.1,4.8-4.1,7.2-7,6.6
		c-4.5-0.9-5.9-5.4-5.9-8C116.3,43.4,124.2,37.3,131.6,26.8L131.6,26.8z"/>
	<path d="M48.8,26.8C56.1,37.3,64,43.4,64.2,51.6c0,2.7-1.4,7.2-5.9,8c-2.9,0.6-6.9-1.8-7-6.6c0-1-1-0.9-1,0.4
		c0.1,3.8,1.3,8.2,3.4,11.8c-3.2,0-6.4,0-9.7,0c2-3.6,3.2-8,3.4-11.8c0-1.3-1-1.3-1-0.4c-0.1,4.8-4.1,7.2-7,6.6
		c-4.5-0.9-5.9-5.4-5.9-8C33.5,43.4,41.4,37.3,48.8,26.8L48.8,26.8z"/>
	<path d="M90.2,144.6c7.4-10.5,15.3-16.6,15.4-24.8c0-2.7-1.4-7.2-5.9-8c-2.9-0.6-6.9,1.8-7,6.6c0,1-1,0.9-1-0.4
		c0.1-3.8,1.3-8.2,3.4-11.8c-3.2,0-6.4,0-9.7,0c2,3.6,3.2,8,3.4,11.8c0,1.3-1,1.3-1,0.4c-0.1-4.8-4.1-7.2-7-6.6
		c-4.5,0.9-5.9,5.4-5.9,8C74.9,128,82.8,134,90.2,144.6z"/>
	<path d="M174,219.5l-2.6,0c-0.5-1.6-1.6-3.2-3.1-3.7c-4.2-1-6.9,1.4-7.8,4.1c-1.1,3.3,0,8,2.9,9.7c2.4,1.4,5.9,0.2,7.6-2.7l1.8,1.1
		l-1,11h-11.8v-2.6h9.6l0.2-4.6c-2.1,1.5-5.2,1.5-7.3,0.4c-3.9-1.9-5.7-6.2-5-11.3c1.1-5.1,3.4-7.9,8.6-8.3
		C172,212.6,174,216.6,174,219.5z"/>
	<path d="M6.3,31.3l2.6,0c0.5,1.6,1.6,3.2,3.1,3.7c4.2,1,6.9-1.4,7.8-4.1c1.1-3.3,0-8-2.9-9.7c-2.4-1.4-5.9-0.2-7.6,2.7l-1.8-1.1
		l1-11h11.8v2.6h-9.6l-0.2,4.6c2.1-1.5,5.2-1.5,7.3-0.4c3.9,1.9,5.7,6.2,5,11.3c-1.1,5.1-3.4,7.9-8.6,8.3
		C8.4,38.2,6.3,34.1,6.3,31.3L6.3,31.3z"/>
</g>
</svg>
