<?xml version="1.0" encoding="utf-8"?>
<!-- Generator: Adobe Illustrator 21.0.0, SVG Export Plug-In . SVG Version: 6.00 Build 0)  -->
<svg version="1.1" id="Layer_1" xmlns="http://www.w3.org/2000/svg" xmlns:xlink="http://www.w3.org/1999/xlink" x="0px" y="0px"
	 viewBox="0 0 178.6 249.4" style="enable-background:new 0 0 178.6 249.4;" xml:space="preserve">
<style type="text/css">
	.st0{fill:#FFFFFF;}
	.st1{fill:#D40000;}
</style>
<g>
	<path class="st0" d="M9.5,0.4H171c4.7,0,8.5,3.8,8.5,8.5v232.4c0,4.7-3.8,8.5-8.5,8.5H9.5c-4.7,0-8.5-3.8-8.5-8.5V9
		C1,4.3,4.8,0.4,9.5,0.4z"/>
	<path class="st1" d="M14.7,56.4c0,0-1.8-2.6-4.2-5.6c-1.6-2-2.9-4.2-3-6.1c-0.1-2.1,1.2-4.3,3.5-4.4c2.3-0.1,3.3,1.6,3.7,3.1
		c0.4-1.4,1.3-3.2,3.7-3.1c2.3,0.1,3.6,2.3,3.5,4.4c-0.1,1.9-1.4,4-3,6.1C16.5,53.9,14.7,56.4,14.7,56.4z"/>
	<path class="st1" d="M165.8,193.9c0,0-1.8,2.6-4.2,5.6c-1.6,2-2.9,4.2-3,6.1c-0.1,2.1,1.2,4.3,3.5,4.4c2.3,0.1,3.3-1.6,3.7-3.1
		c0.4,1.4,1.3,3.2,3.7,3.1c2.3-0.1,3.6-2.2,3.5-4.4c-0.1-1.9-1.4-4-3-6.1C167.5,196.5,165.8,193.9,165.8,193.9z"/>
	<path class="st1" d="M48.8,65c0,0-3.7-6.1-8.8-13.3c-3.4-4.8-6.1-10-6.3-14.5c-0.3-5.1,2.4-10.3,7.4-10.5c4.9-0.2,6.9,4,7.7,7.4
		c0.8-3.5,2.8-7.7,7.7-7.4c4.9,0.2,7.6,5.4,7.4,10.5c-0.3,4.5-2.9,9.7-6.3,14.5C52.6,58.9,48.8,65,48.8,65z"/>
	<path class="st1" d="M131.7,144.4c0,0-3.7-6.1-8.8-13.3c-3.4-4.8-6.1-10-6.3-14.5c-0.3-5.1,2.4-10.3,7.4-10.5
		c4.9-0.2,6.9,4,7.7,7.4c0.8-3.5,2.8-7.7,7.7-7.4c4.9,0.2,7.6,5.4,7.4,10.5c-0.2,4.5-2.9,9.7-6.3,14.5
		C135.4,138.2,131.7,144.4,131.7,144.4z"/>
	<path class="st1" d="M131.7,65c0,0-3.7-6.1-8.8-13.3c-3.4-4.8-6.1-10-6.3-14.5c-0.3-5.1,2.4-10.3,7.4-10.5c4.9-0.2,6.9,4,7.7,7.4
		c0.8-3.5,2.8-7.7,7.7-7.4c4.9,0.2,7.6,5.4,7.4,10.5c-0.2,4.5-2.9,9.7-6.3,14.5C135.4,58.9,131.7,65,131.7,65z"/>
	<path class="st1" d="M48.8,144.4c0,0-3.7-6.1-8.8-13.3c-3.4-4.8-6.1-10-6.3-14.5c-0.3-5.1,2.4-10.3,7.4-10.5c4.9-0.2,6.9,4,7.7,7.4
		c0.8-3.5,2.8-7.7,7.7-7.4c4.9,0.2,7.6,5.4,7.4,10.5c-0.3,4.5-2.9,9.7-6.3,14.5C52.6,138.2,48.8,144.4,48.8,144.4z"/>
	<path class="st1" d="M131.7,185.3c0,0-3.7,6.1-8.8,13.3c-3.4,4.8-6.1,10-6.3,14.5c-0.3,5.1,2.4,10.3,7.4,10.5
		c4.9,0.2,6.9-4,7.7-7.4c0.8,3.5,2.8,7.7,7.7,7.4c4.9-0.2,7.6-5.4,7.4-10.5c-0.2-4.5-2.9-9.7-6.3-14.5
		C135.4,191.5,131.7,185.3,131.7,185.3z"/>
	<path class="st1" d="M48.8,185.3c0,0-3.7,6.1-8.8,13.3c-3.4,4.8-6.1,10-6.3,14.5c-0.3,5.1,2.4,10.3,7.4,10.5c4.9,0.2,6.9-4,7.7-7.4
		c0.8,3.5,2.8,7.7,7.7,7.4c4.9-0.2,7.6-5.4,7.4-10.5c-0.3-4.5-2.9-9.7-6.3-14.5C52.6,191.5,48.8,185.3,48.8,185.3z"/>
	<path class="st1" d="M7,29.8c-0.3-2.2-0.3-8-0.1-9.7c0.8-5.2,2.8-7.6,6.1-8.4c3.2-0.8,7.8,0.1,8.8,4.4l-2.7,0.1
		c-1.5-2.9-5.2-2.2-7.2-0.9c-1.7,1-2.4,5.3-2.1,5.5c0,0,3.1-2.3,5.6-2.2c5.3,0.6,7.5,5.1,7.3,9.5c-0.2,5.2-1.8,9.4-7.4,9.7
		C9.9,37.7,7.5,34.8,7,29.8L7,29.8z M20.1,28.4c0-3.6-1.6-6.3-4.7-6.6c-3.1-0.3-6.2,2.7-6,6.4C9.6,31.9,11,35,14.8,35
		C18.9,35,20.1,31,20.1,28.4L20.1,28.4z"/>
	<path class="st1" d="M173.5,220.5c0.3,2.2,0.3,8,0.1,9.7c-0.8,5.2-2.8,7.6-6.1,8.4c-3.2,0.8-7.8-0.1-8.8-4.4l2.7-0.1
		c1.5,2.9,5.2,2.2,7.2,0.9c1.7-1,2.4-5.3,2.1-5.5c0,0-3.1,2.3-5.6,2.2c-5.3-0.6-7.5-5.1-7.3-9.5c0.2-5.2,1.8-9.4,7.4-9.7
		C170.6,212.6,173,215.5,173.5,220.5z M160.3,221.9c0,3.6,1.6,6.3,4.7,6.6c3.1,0.3,6.2-2.7,6-6.4c-0.2-3.7-1.7-6.8-5.4-6.8
		C161.6,215.3,160.4,219.3,160.3,221.9z"/>
</g>
</svg>
