<?xml version="1.0" encoding="utf-8"?>
<!-- Generator: Adobe Illustrator 21.0.0, SVG Export Plug-In . SVG Version: 6.00 Build 0)  -->
<svg version="1.1" id="Layer_1" xmlns="http://www.w3.org/2000/svg" xmlns:xlink="http://www.w3.org/1999/xlink" x="0px" y="0px"
	 viewBox="0 0 178.6 249.4" style="enable-background:new 0 0 178.6 249.4;" xml:space="preserve">
<style type="text/css">
	.st0{fill:#FFFFFF;}
	.st1{fill:#D40000;}
</style>
<g>
	<path class="st0" d="M9.6,0.8h161.5c4.7,0,8.5,3.8,8.5,8.5v232.4c0,4.7-3.8,8.5-8.5,8.5H9.6c-4.7,0-8.5-3.8-8.5-8.5V9.4
		C1,4.7,4.9,0.8,9.6,0.8z"/>
	<path class="st1" d="M14.8,56.8c-1.7-2.9-3.5-5.6-5.8-8c2.3-2.4,4.1-5.1,5.8-8c1.7,2.9,3.5,5.6,5.8,8C18.4,51.2,16.5,54,14.8,56.8z
		"/>
	<path class="st1" d="M131.7,65.4c-4.1-6.9-8.5-13.5-14-19.2c5.5-5.7,9.8-12.3,14-19.2c4.1,6.9,8.5,13.5,14,19.2
		C140.3,51.9,135.9,58.5,131.7,65.4z"/>
	<path class="st1" d="M165.9,210.3c-1.7-2.9-3.5-5.6-5.8-8c2.3-2.4,4.1-5.1,5.8-8c1.7,2.9,3.5,5.6,5.8,8
		C169.4,204.7,167.6,207.5,165.9,210.3z"/>
	<path class="st1" d="M48.9,65.4c-4.1-6.9-8.5-13.5-14-19.2c5.5-5.7,9.8-12.3,14-19.2c4.1,6.9,8.5,13.5,14,19.2
		C57.4,51.9,53.1,58.5,48.9,65.4z"/>
	<path class="st1" d="M90.3,105.1c-4.1-6.9-8.5-13.5-14-19.2c5.5-5.7,9.8-12.3,14-19.2c4.1,6.9,8.5,13.5,14,19.2
		C98.8,91.6,94.5,98.2,90.3,105.1z"/>
	<path class="st1" d="M48.9,144.7c-4.1-6.9-8.5-13.5-14-19.2c5.5-5.7,9.8-12.3,14-19.2c4.1,6.9,8.5,13.5,14,19.2
		C57.4,131.2,53.1,137.9,48.9,144.7z"/>
	<path class="st1" d="M131.7,144.7c-4.1-6.9-8.5-13.5-14-19.2c5.5-5.7,9.8-12.3,14-19.2c4.1,6.9,8.5,13.5,14,19.2
		C140.3,131.2,135.9,137.9,131.7,144.7z"/>
	<path class="st1" d="M48.9,224.1c-4.1-6.9-8.5-13.5-14-19.2c5.5-5.7,9.8-12.3,14-19.2c4.1,6.9,8.5,13.5,14,19.2
		C57.4,210.6,53.1,217.3,48.9,224.1z"/>
	<path class="st1" d="M131.7,224.1c-4.1-6.9-8.5-13.5-14-19.2c5.5-5.7,9.8-12.3,14-19.2c4.1,6.9,8.5,13.5,14,19.2
		C140.3,210.6,135.9,217.3,131.7,224.1z"/>
	<path class="st1" d="M10.8,38.3c1.7-9.2,3.6-16.1,8.4-23.5H9.3V18H6.7v-6.1h14.4l1.8,2.8c-5.2,5.6-9.9,23.8-9,23.5H10.8z"/>
	<path class="st1" d="M169.9,212.8c-1.7,9.2-3.6,16.1-8.4,23.5h9.9v-3.2h2.6v6.1h-14.4l-1.8-2.8c5.2-5.6,9.9-23.8,9-23.5H169.9z"/>
</g>
</svg>
