<?xml version="1.0" encoding="utf-8"?>
<!-- Generator: Adobe Illustrator 21.0.0, SVG Export Plug-In . SVG Version: 6.00 Build 0)  -->
<svg version="1.1" id="Layer_1" xmlns="http://www.w3.org/2000/svg" xmlns:xlink="http://www.w3.org/1999/xlink" x="0px" y="0px"
	 viewBox="0 0 178.6 249.4" style="enable-background:new 0 0 178.6 249.4;" xml:space="preserve">
<style type="text/css">
	.st0{fill:#FFFFFF;}
	.st1{fill:#D40000;}
</style>
<g>
	<path class="st0" d="M9.7,0.8h161.5c4.7,0,8.5,3.8,8.5,8.5v232.4c0,4.7-3.8,8.5-8.5,8.5H9.7c-4.7,0-8.5-3.8-8.5-8.5V9.4
		C1.1,4.7,4.9,0.8,9.7,0.8z"/>
	<path class="st1" d="M14.9,56.8c-1.7-2.9-3.5-5.6-5.8-8c2.3-2.4,4.1-5.1,5.8-8c1.7,2.9,3.5,5.6,5.8,8C18.4,51.2,16.6,54,14.9,56.8z
		"/>
	<path class="st1" d="M131.8,65.4c-4.1-6.9-8.5-13.5-14-19.2c5.5-5.7,9.8-12.3,14-19.2c4.1,6.9,8.5,13.5,14,19.2
		C140.3,51.9,136,58.5,131.8,65.4z"/>
	<path class="st1" d="M165.9,210.3c-1.7-2.9-3.5-5.6-5.8-8c2.3-2.4,4.1-5.1,5.8-8c1.7,2.9,3.5,5.6,5.8,8
		C169.5,204.7,167.7,207.5,165.9,210.3z"/>
	<path class="st1" d="M49,65.4c-4.1-6.9-8.5-13.5-14-19.2c5.5-5.7,9.8-12.3,14-19.2c4.1,6.9,8.5,13.5,14,19.2
		C57.5,51.9,53.2,58.5,49,65.4z"/>
	<path class="st1" d="M90.4,105.1c-4.1-6.9-8.5-13.5-14-19.2c5.5-5.7,9.8-12.3,14-19.2c4.1,6.9,8.5,13.5,14,19.2
		C98.9,91.6,94.6,98.2,90.4,105.1z"/>
	<path class="st1" d="M49,144.7c-4.1-6.9-8.5-13.5-14-19.2c5.5-5.7,9.8-12.3,14-19.2c4.1,6.9,8.5,13.5,14,19.2
		C57.5,131.2,53.2,137.9,49,144.7z"/>
	<path class="st1" d="M131.8,144.7c-4.1-6.9-8.5-13.5-14-19.2c5.5-5.7,9.8-12.3,14-19.2c4.1,6.9,8.5,13.5,14,19.2
		C140.3,131.2,136,137.9,131.8,144.7z"/>
	<path class="st1" d="M49,224.1c-4.1-6.9-8.5-13.5-14-19.2c5.5-5.7,9.8-12.3,14-19.2c4.1,6.9,8.5,13.5,14,19.2
		C57.5,210.6,53.2,217.3,49,224.1z"/>
	<path class="st1" d="M131.8,224.1c-4.1-6.9-8.5-13.5-14-19.2c5.5-5.7,9.8-12.3,14-19.2c4.1,6.9,8.5,13.5,14,19.2
		C140.3,210.6,136,217.3,131.8,224.1z"/>
	<path class="st1" d="M90.4,184.4c-4.1-6.9-8.5-13.5-14-19.2c5.5-5.7,9.8-12.3,14-19.2c4.1,6.9,8.5,13.5,14,19.2
		C98.9,170.9,94.6,177.6,90.4,184.4z"/>
	<path class="st1" d="M6.3,30.6c0.1-3.5,1.4-4.9,3.9-6.7c-2-1.5-2.9-3.6-2.7-5.4c0.4-4.4,3.8-6.6,7.5-6.5c3.7,0.1,6.9,3,7.2,6.3
		c0.2,2.8-0.6,4.1-2.6,5.6c2.3,2,3.8,3.3,3.8,6.8c-0.1,3.5-3,7.6-8.2,7.8C10.1,38.4,6.2,34.1,6.3,30.6z M20.8,30.6
		c0.2-3.2-2.6-5.4-5.8-5.4c-3.1,0-5.9,2.6-5.9,5.5c0,3.1,3.6,4.8,6,4.8C17.9,35.5,20.6,33.4,20.8,30.6z M19.7,19.1
		c0.1-2.7-2.4-4.6-5-4.6c-2.3,0.1-4.7,1.8-4.7,4.1c0,2.8,2.8,4.2,5.1,4.3C17.3,23,19.7,21.2,19.7,19.1L19.7,19.1z"/>
	<path class="st1" d="M157.4,220.6c0.1,3.5,1.4,4.9,3.9,6.7c-2,1.5-2.9,3.6-2.7,5.4c0.4,4.4,3.8,6.6,7.5,6.5c3.7-0.1,6.9-3,7.2-6.3
		c0.2-2.8-0.6-4.1-2.6-5.6c2.3-2,3.8-3.3,3.8-6.8c-0.1-3.5-3-7.6-8.2-7.8S157.2,217,157.4,220.6L157.4,220.6z M171.8,220.5
		c0.2,3.2-2.6,5.4-5.8,5.4c-3.1,0-5.9-2.6-5.9-5.5c0-3.1,3.6-4.8,6-4.8C168.9,215.6,171.6,217.8,171.8,220.5z M170.8,232
		c0.1,2.7-2.4,4.6-5,4.6c-2.3-0.1-4.7-1.8-4.7-4.1c0-2.8,2.8-4.2,5.1-4.3C168.3,228.2,170.7,230,170.8,232z"/>
</g>
</svg>
