<?xml version="1.0" encoding="utf-8"?>
<!-- Generator: Adobe Illustrator 21.0.0, SVG Export Plug-In . SVG Version: 6.00 Build 0)  -->
<svg version="1.1" id="Layer_1" xmlns="http://www.w3.org/2000/svg" xmlns:xlink="http://www.w3.org/1999/xlink" x="0px" y="0px"
	 viewBox="0 0 178.6 249.4" style="enable-background:new 0 0 178.6 249.4;" xml:space="preserve">
<style type="text/css">
	.st0{fill:#FFFFFF;}
</style>
<g>
	<path class="st0" d="M9.7,0.6h161.5c4.7,0,8.5,3.8,8.5,8.5v232.4c0,4.7-3.8,8.5-8.5,8.5H9.7c-4.7,0-8.5-3.8-8.5-8.5V9.2
		C1.1,4.5,4.9,0.6,9.7,0.6z"/>
	<path d="M49,26.8c-7.4,10.5-15.3,16.6-15.4,24.8c0,2.7,1.4,7.2,5.9,8c2.9,0.6,6.9-1.8,7-6.6c0-1,1-0.9,1,0.4
		c-0.1,3.8-1.3,8.2-3.4,11.8c3.2,0,6.4,0,9.7,0c-2-3.6-3.2-8-3.4-11.8c0-1.3,1-1.3,1-0.4c0.1,4.8,4.1,7.2,7,6.6
		c4.5-0.9,5.9-5.4,5.9-8C64.3,43.4,56.4,37.3,49,26.8z"/>
	<path d="M14.9,40.6C11.4,45,7.8,47.5,7.7,51c0,1.1,0.7,3,2.8,3.4c1.4,0.2,3.2-0.8,3.3-2.8c0-0.4,0.5-0.4,0.5,0.2
		c-0.1,1.6-0.6,3.4-1.6,4.9c1.5,0,3,0,4.5,0c-0.9-1.5-1.5-3.3-1.6-4.9c0-0.5,0.5-0.6,0.5-0.2c0,2,1.9,3,3.3,2.8
		c2.1-0.4,2.8-2.2,2.8-3.4C22,47.5,18.3,45,14.9,40.6L14.9,40.6z"/>
	<path d="M165.9,210.1c-3.4-4.4-7.1-6.9-7.2-10.3c0-1.1,0.7-3,2.8-3.4c1.4-0.2,3.2,0.8,3.3,2.8c0,0.4,0.5,0.4,0.5-0.2
		c-0.1-1.6-0.6-3.4-1.6-4.9c1.5,0,3,0,4.5,0c-0.9,1.5-1.5,3.3-1.6,4.9c0,0.5,0.5,0.6,0.5,0.2c0-2,1.9-3,3.3-2.8
		c2.1,0.4,2.8,2.2,2.8,3.4C173.1,203.2,169.4,205.7,165.9,210.1L165.9,210.1z"/>
	<path d="M131.8,26.8c-7.4,10.5-15.3,16.6-15.4,24.8c0,2.7,1.4,7.2,5.9,8c2.9,0.6,6.9-1.8,7-6.6c0-1,1-0.9,1,0.4
		c-0.1,3.8-1.3,8.2-3.4,11.8c3.2,0,6.4,0,9.7,0c-2-3.6-3.2-8-3.4-11.8c0-1.3,1-1.3,1-0.4c0.1,4.8,4.1,7.2,7,6.6
		c4.5-0.9,5.9-5.4,5.9-8C147.1,43.4,139.2,37.3,131.8,26.8z"/>
	<path d="M90.4,66.5C83,77,75.1,83.1,75,91.3c0,2.7,1.4,7.2,5.9,8c2.9,0.6,6.9-1.8,7-6.6c0-1,1-0.9,1,0.4c-0.1,3.8-1.3,8.2-3.4,11.8
		c3.2,0,6.4,0,9.7,0c-2-3.6-3.2-8-3.4-11.8c0-1.3,1-1.3,1-0.4c0.1,4.8,4.1,7.2,7,6.6c4.5-0.9,5.9-5.4,5.9-8
		C105.7,83.1,97.8,77,90.4,66.5z"/>
	<path d="M49,106.2c-7.4,10.5-15.3,16.6-15.4,24.8c0,2.7,1.4,7.2,5.9,8c2.9,0.6,6.9-1.8,7-6.6c0-1,1-0.9,1,0.4
		c-0.1,3.8-1.3,8.2-3.4,11.8c3.2,0,6.4,0,9.7,0c-2-3.6-3.2-8-3.4-11.8c0-1.3,1-1.3,1-0.4c0.1,4.8,4.1,7.2,7,6.6
		c4.5-0.9,5.9-5.4,5.9-8C64.3,122.7,56.4,116.7,49,106.2z"/>
	<path d="M49,223.9c-7.4-10.5-15.3-16.6-15.4-24.8c0-2.7,1.4-7.2,5.9-8c2.9-0.6,6.9,1.8,7,6.6c0,1,1,0.9,1-0.4
		c-0.1-3.8-1.3-8.2-3.4-11.8c3.2,0,6.4,0,9.7,0c-2,3.6-3.2,8-3.4,11.8c0,1.3,1,1.3,1,0.4c0.1-4.8,4.1-7.2,7-6.6
		c4.5,0.9,5.9,5.4,5.9,8C64.3,207.4,56.4,213.4,49,223.9z"/>
	<path d="M131.8,223.9c-7.4-10.5-15.3-16.6-15.4-24.8c0-2.7,1.4-7.2,5.9-8c2.9-0.6,6.9,1.8,7,6.6c0,1,1,0.9,1-0.4
		c-0.1-3.8-1.3-8.2-3.4-11.8c3.2,0,6.4,0,9.7,0c-2,3.6-3.2,8-3.4,11.8c0,1.3,1,1.3,1,0.4c0.1-4.8,4.1-7.2,7-6.6
		c4.5,0.9,5.9,5.4,5.9,8C147.1,207.4,139.2,213.4,131.8,223.9z"/>
	<path d="M90.4,184.2C83,173.7,75.1,167.7,75,159.5c0-2.7,1.4-7.2,5.9-8c2.9-0.6,6.9,1.8,7,6.6c0,1,1,0.9,1-0.4
		c-0.1-3.8-1.3-8.2-3.4-11.8c3.2,0,6.4,0,9.7,0c-2,3.6-3.2,8-3.4,11.8c0,1.3,1,1.3,1,0.4c0.1-4.8,4.1-7.2,7-6.6
		c4.5,0.9,5.9,5.4,5.9,8C105.7,167.7,97.8,173.7,90.4,184.2z"/>
	<path d="M131.8,106.2c-7.4,10.5-15.3,16.6-15.4,24.8c0,2.7,1.4,7.2,5.9,8c2.9,0.6,6.9-1.8,7-6.6c0-1,1-0.9,1,0.4
		c-0.1,3.8-1.3,8.2-3.4,11.8c3.2,0,6.4,0,9.7,0c-2-3.6-3.2-8-3.4-11.8c0-1.3,1-1.3,1-0.4c0.1,4.8,4.1,7.2,7,6.6
		c4.5-0.9,5.9-5.4,5.9-8C147.1,122.7,139.2,116.7,131.8,106.2z"/>
	<path d="M6.3,30.4c0.1-3.5,1.4-4.9,3.9-6.7c-2-1.5-2.9-3.6-2.7-5.4c0.4-4.4,3.8-6.6,7.5-6.5c3.7,0.1,6.9,3,7.2,6.3
		c0.2,2.8-0.6,4.1-2.6,5.6c2.3,2,3.8,3.3,3.8,6.8c-0.1,3.5-3,7.6-8.2,7.8C10.1,38.2,6.2,33.9,6.3,30.4z M20.8,30.4
		C21,27.2,18.2,25,15,25C11.8,25,9,27.6,9,30.5c0,3.1,3.6,4.8,6,4.8C17.9,35.3,20.6,33.2,20.8,30.4z M19.7,18.9
		c0.1-2.7-2.4-4.6-5-4.6c-2.3,0.1-4.7,1.8-4.7,4.1c0,2.8,2.8,4.2,5.1,4.3C17.3,22.8,19.7,21,19.7,18.9L19.7,18.9z"/>
	<path d="M157.4,220.4c0.1,3.5,1.4,4.9,3.9,6.7c-2,1.5-2.9,3.6-2.7,5.4c0.4,4.4,3.8,6.6,7.5,6.5c3.7-0.1,6.9-3,7.2-6.3
		c0.2-2.8-0.6-4.1-2.6-5.6c2.3-2,3.8-3.3,3.8-6.8c-0.1-3.5-3-7.6-8.2-7.8C161.1,212.5,157.2,216.8,157.4,220.4z M171.8,220.3
		c0.2,3.2-2.6,5.4-5.8,5.4c-3.1,0-5.9-2.6-5.9-5.5c0-3.1,3.6-4.8,6-4.8C168.9,215.4,171.6,217.6,171.8,220.3z M170.8,231.8
		c0.1,2.7-2.4,4.6-5,4.6c-2.3-0.1-4.7-1.8-4.7-4.1c0-2.8,2.8-4.2,5.1-4.3C168.3,228,170.7,229.8,170.8,231.8z"/>
</g>
</svg>
