<?xml version="1.0" encoding="utf-8"?>
<!-- Generator: Adobe Illustrator 21.0.0, SVG Export Plug-In . SVG Version: 6.00 Build 0)  -->
<svg version="1.1" id="Layer_1" xmlns="http://www.w3.org/2000/svg" xmlns:xlink="http://www.w3.org/1999/xlink" x="0px" y="0px"
	 viewBox="0 0 178.6 249.4" style="enable-background:new 0 0 178.6 249.4;" xml:space="preserve">
<style type="text/css">
	.st0{fill:#FFFFFF;}
	.st1{fill:#D40000;}
</style>
<g>
	<path class="st0" d="M8.7,0.8h161.5c4.7,0,8.5,3.8,8.5,8.5v232.4c0,4.7-3.8,8.5-8.5,8.5H8.7c-4.7,0-8.5-3.8-8.5-8.5V9.4
		C0.2,4.7,4,0.8,8.7,0.8z"/>
	<path class="st1" d="M14,56.8c-1.7-2.9-3.5-5.6-5.8-8c2.3-2.4,4.1-5.1,5.8-8c1.7,2.9,3.5,5.6,5.8,8C17.5,51.2,15.7,54,14,56.8z"/>
	<path class="st1" d="M130.9,65.4c-4.1-6.9-8.5-13.5-14-19.2c5.5-5.7,9.8-12.3,14-19.2c4.1,6.9,8.5,13.5,14,19.2
		C139.4,51.9,135.1,58.5,130.9,65.4z"/>
	<path class="st1" d="M165,210.3c-1.7-2.9-3.5-5.6-5.8-8c2.3-2.4,4.1-5.1,5.8-8c1.7,2.9,3.5,5.6,5.8,8
		C168.6,204.7,166.7,207.5,165,210.3z"/>
	<path class="st1" d="M48.1,65.4c-4.1-6.9-8.5-13.5-14-19.2c5.5-5.7,9.8-12.3,14-19.2c4.1,6.9,8.5,13.5,14,19.2
		C56.6,51.9,52.2,58.5,48.1,65.4z"/>
	<path class="st1" d="M130.9,118.3c-4.1-6.9-8.5-13.5-14-19.2c5.5-5.7,9.8-12.3,14-19.2c4.1,6.9,8.5,13.5,14,19.2
		C139.4,104.8,135.1,111.5,130.9,118.3z"/>
	<path class="st1" d="M48.1,118.3c-4.1-6.9-8.5-13.5-14-19.2c5.5-5.7,9.8-12.3,14-19.2c4.1,6.9,8.5,13.5,14,19.2
		C56.6,104.8,52.2,111.5,48.1,118.3z"/>
	<path class="st1" d="M89.5,144.8c-4.1-6.9-8.5-13.5-14-19.2c5.5-5.7,9.8-12.3,14-19.2c4.1,6.9,8.5,13.5,14,19.2
		C98,131.3,93.6,137.9,89.5,144.8z"/>
	<path class="st1" d="M48.1,224.1c-4.1-6.9-8.5-13.5-14-19.2c5.5-5.7,9.8-12.3,14-19.2c4.1,6.9,8.5,13.5,14,19.2
		C56.6,210.6,52.2,217.3,48.1,224.1z"/>
	<path class="st1" d="M130.9,224.1c-4.1-6.9-8.5-13.5-14-19.2c5.5-5.7,9.8-12.3,14-19.2c4.1,6.9,8.5,13.5,14,19.2
		C139.4,210.6,135.1,217.3,130.9,224.1z"/>
	<path class="st1" d="M130.9,171.2c-4.1-6.9-8.5-13.5-14-19.2c5.5-5.7,9.8-12.3,14-19.2c4.1,6.9,8.5,13.5,14,19.2
		C139.4,157.7,135.1,164.4,130.9,171.2z"/>
	<path class="st1" d="M48.1,171.2c-4.1-6.9-8.5-13.5-14-19.2c5.5-5.7,9.8-12.3,14-19.2c4.1,6.9,8.5,13.5,14,19.2
		C56.6,157.7,52.2,164.3,48.1,171.2z"/>
	<path class="st1" d="M6.6,33.2L9,32.5c0.9,2.4,2.8,3.2,4.7,3c3.5-0.3,4.7-4.2,4.9-7.6c-1.4,1.4-3.4,2.2-5.2,2.1
		c-5.6-0.3-7-4.8-7.1-9.4c-0.2-3.9,1.5-6.8,4.3-8.1c1.5-0.7,4.9-0.7,6.4,0.1c3.4,1.8,4.7,4.9,4.5,12.3c0,6.1-1.3,13.2-7.9,13.4
		C9.9,38.8,7,35.8,6.6,33.2L6.6,33.2z M16.1,26.5c1.1-0.7,1.8-1.4,2.3-2.4c0.4-0.8,0.6-1.3,0.4-3c-0.3-4.4-2.6-6.9-6-6.4
		C10.9,15,9.9,16,9.3,18c-1.1,3.6,0.3,7.8,2.9,8.8C13.4,27.2,15.2,27.1,16.1,26.5z"/>
	<path class="st1" d="M172.4,217.9l-2.4,0.8c-0.9-2.4-2.8-3.2-4.7-3c-3.5,0.3-4.7,4.2-4.9,7.6c1.4-1.4,3.4-2.2,5.2-2.1
		c5.6,0.3,7,4.8,7.1,9.4c0.2,3.9-1.5,6.8-4.3,8.1c-1.5,0.7-4.9,0.7-6.4-0.1c-3.4-1.8-4.7-4.9-4.5-12.3c0-6.1,1.3-13.2,7.9-13.4
		C169.1,212.4,172,215.3,172.4,217.9z M162.9,224.6c-1.1,0.7-1.8,1.4-2.3,2.4c-0.4,0.8-0.6,1.3-0.4,3c0.3,4.4,2.6,6.9,6,6.4
		c1.9-0.3,2.9-1.3,3.5-3.3c1.1-3.6-0.3-7.8-2.9-8.8C165.6,223.9,163.8,224,162.9,224.6z"/>
</g>
</svg>
