<?xml version="1.0" encoding="utf-8"?>
<!-- Generator: Adobe Illustrator 21.0.0, SVG Export Plug-In . SVG Version: 6.00 Build 0)  -->
<svg version="1.1" id="Layer_1" xmlns="http://www.w3.org/2000/svg" xmlns:xlink="http://www.w3.org/1999/xlink" x="0px" y="0px"
	 viewBox="0 0 178.6 249.4" style="enable-background:new 0 0 178.6 249.4;" xml:space="preserve">
<style type="text/css">
	.st0{fill:#FFFFFF;}
	.st1{fill:#E2CF00;}
	.st2{fill:#131F67;}
	.st3{fill:#D40000;}
</style>
<g>
	<path class="st0" d="M8.9,0.2h161.5c4.7,0,8.5,3.8,8.5,8.5v232.4c0,4.7-3.8,8.5-8.5,8.5H8.9c-4.7,0-8.5-3.8-8.5-8.5V8.8
		C0.4,4.1,4.2,0.2,8.9,0.2z"/>
	<path d="M165.2,209.7c3.1-0.1,4.6-3.8,2.2-6.6c-0.3-0.4-0.4-0.7,0.2-0.3c1.6,1.1,4.6,0.4,4.7-3c0.2-4.1-5.3-5.3-6.4-0.9
		c-0.1,0.5-0.4,0.5-0.3-0.2c0.1-1.8,0.6-3.4,1.4-5.1c-1.2,0-2.5,0-3.7,0c0.7,1.6,1.3,3.3,1.4,5.1c0.1,0.7-0.3,0.7-0.3,0.2
		c-1-4.4-6.5-3.2-6.4,0.9c0.2,3.3,3.2,4,4.7,3c0.6-0.4,0.6-0.2,0.2,0.3C160.6,206,162,209.6,165.2,209.7L165.2,209.7z"/>
	<path d="M14.1,40.2c-3.1,0.1-4.6,3.8-2.2,6.6c0.3,0.4,0.4,0.7-0.2,0.3C10.1,46,7.1,46.7,7,50c-0.2,4.1,5.3,5.3,6.4,0.9
		c0.1-0.5,0.4-0.5,0.3,0.2c-0.1,1.8-0.6,3.4-1.4,5.1c1.2,0,2.5,0,3.7,0c-0.7-1.6-1.3-3.3-1.4-5.1c-0.1-0.7,0.3-0.7,0.3-0.2
		c1,4.4,6.5,3.2,6.4-0.9c-0.2-3.3-3.2-4-4.7-3c-0.6,0.4-0.6,0.2-0.2-0.3C18.7,44,17.3,40.3,14.1,40.2L14.1,40.2z"/>
	<path d="M14.1,11.3v2.8h2.7c0,0,0.1,2.7,0.1,8.3c0,5.5,0.1,8.2-0.2,9.8c-0.9,3.6-6.2,3.6-7.2,1C8.8,31.7,9,30.5,8.9,29H6.1
		c0,0,0,0.8,0,1.7c0,4,1.4,6,4.5,6.8c3.2,0.9,7-0.5,8.3-3.2c0.8-1.6,0.7-1.7,0.7-11.2c0-6.3,0.1-9,0.1-9h2.5v-2.8H14.1L14.1,11.3z"
		/>
	<path d="M165.3,238.6v-2.8h-2.7c0,0-0.1-2.7-0.1-8.3c0-5.5-0.1-8.2,0.2-9.8c0.9-3.6,6.2-3.6,7.2-1c0.6,1.5,0.4,2.7,0.5,4.2h2.9
		c0,0,0-0.8,0-1.7c0-4-1.4-6-4.5-6.8c-3.2-0.9-7,0.5-8.3,3.2c-0.8,1.6-0.7,1.7-0.7,11.2c0,6.3-0.1,9-0.1,9h-2.5v2.8H165.3
		L165.3,238.6z"/>
	<path class="st1" d="M129.7,24.2c0.7-1,3.6,5.9,5.5,11c0.9,2.5,2.2,4.6,1.7,5.3c-1.4,1.4-4.9,0.1-7.4-1.8c-2.7-2.1-4.6-5.2-4.6-5.2
		L129.7,24.2z M153.5,29.3l0.1,4c-2.3,2.1-5.3,4.7-8.7,8.7l8.7,0c0.6,49.7,0.5,148.5,0.5,148.4c0,0-10.1-10.3-9.9-10.3
		c0,0-0.3-59.8-0.3-100c-0.1-0.2,5.3-0.2,5.6-2.8c0.2-1.7-5.6-1.5-5.7-1.6c0-18.1-0.1-30.8-0.1-30.8l-5.4-0.2L153.5,29.3z
		 M121.9,47.9c0.8,1.6,2,7.6,3,7.4c4.4-1.5,5.8,5,1.3,5.4c-1.7,0.1-3.6-2.1-4.7-4.9C121,54.3,121.5,47.3,121.9,47.9z M121,56.9
		c1.3,2.1,2.5,9.8,4.9,9.4c2.1-0.5,3.5,1.4,3.3,3c-1.1,4.6-9,0.2-11-0.8C119.1,66.1,120.6,60.3,121,56.9z M137.5,78.6
		c-1.8,4.1-1.3,7.4,0.2,11.5c-4.7,2-8.8,4.2-13.4,6.6c-0.1,0.5-0.9-15.7,0.9-23.2c0.5-1.1,2.4-0.2,3.5,0.3
		C131.6,75.3,134.8,76.8,137.5,78.6z M54.7,152.5c1,7.6-1.2,24.8-1.2,24.8s-11.3-6.3-12.1-6.7c2.1-4-0.8-13.2-0.5-11.5
		C41.8,158.5,54.5,151.7,54.7,152.5z M59.3,184c-0.2,0.5-1,6.2-1.3,6.2c-0.8,0.1-2-5.6-4.1-7.4c-4,0.5-4.4-2.2-3.6-3.5
		c-0.2-0.6,1.3-1.8,2.6-1.7C56.4,178.9,61,180.1,59.3,184z M104.7,193.8l-3,16.7c-7.3,1.1-14.4,2.3-21,1.5c1.3-17.4,3.3-32.4,8.9-35
		l-11.6-9.3c0,0-12.8,8-12.1,7.9c0.3-0.1,0.6-6.8,0.8-17.7c-0.3-28.4-16.6-57.2-17.3-56.9c-0.3-0.2,13.9-1.3,24.1,3.1l0.5-37.6
		c0,0-5.1-2.5-6-3.7c-1.9-6.5,3.2-8.2,6.2-6.6c1.4-5,3.6-17.3,3.6-17.3c6.8-1.1,13.9-2,20.9-1.6c-1.2,5.8-1.9,10.2-2.3,16
		c-0.9,8.7-2.7,16.9-7.2,18.9c0.8-0.3,11.3,9,11.3,9l12.9-8c-4.2,27.1,2.9,53.4,15.2,74.7c-6.2,0.7-13.2,0.4-24.1-2.9
		c0,0,0.6,37.7,0.6,37.5C117.4,187.1,110.8,196.4,104.7,193.8z M57.7,197.1c0,0.4-0.2,4.6-0.2,4.6c-1.7-2-3.1-7.9-3.4-7.8
		c0,0-2.2,0.3-2.9-0.4c-2.2-2.4,0-5.2,2.2-4.7C55.6,189.5,58,193.3,57.7,197.1z M35,69.3c0,0,0.5,66.9,0.5,100.4
		c-8.4-0.1-6.8,4.6,0.1,4.1l0,30.9l4.6,0.2c0,0-8.6,9-14.1,14.8l-0.1-2.9l8.3-9l-8.6,0l0-148.3L35,69.3z M49.4,224.6
		c-2.1,0.5-4.3-9.2-7.9-15c4.1-2.5,10.6,2.2,12,6C52.6,218.8,49.3,224.6,49.4,224.6z"/>
	<path class="st2" d="M24.1,19.4v211.2h131.2V19.4H24.1z M67.2,20.2l63.2,0c-0.9,1.8-1.7,4.1-1.7,4.1c1.9,0.8,3.4,3.7,4.4,6.1
		c0.8,2.1,2.2,7.4,4.1,9.9c-3.2,1.8-11.4-2.3-12.6-7.9l-2.7,4.7c-18.5-3.6-38.5-1-44.6-0.1C74.2,31.3,69.9,26.1,67.2,20.2L67.2,20.2
		z M147.2,20.9c2.3,0,4.5,0,6.1,0v7.4l-16.5,17l6.5,0.3l-0.2,29.3c-2.4,0.5-5.2,3-5.2,3l-11.1-6c0,0,2.9-1.2,2.8-3.1
		c-0.1-2.2-1.4-3.9-4-3.3c-0.6,0.1-0.9-0.2-1.4-1.5c-1.1-2.5-2.2-5.3-1.7-5.2c1.4,1.1,1.2,1.2,2.8,1.9c3,0.8,4.8-2,3.9-4.2
		c-0.9-2.1-2.3-2.2-3.8-2c-0.2,0-0.4-0.3-0.5-0.6c-0.5-0.9-1.2-2.6-1.7-5.2c-0.9-4-1-9-0.4-10.3c0.9-1.7,2-4.1,2-4.1
		c2.3,4.4,7.4,8.3,13,6.9c0.2-0.1,0.2-0.7,0-1.1c-2.1-3.3-2.4-6.2-3.8-9.6c-1.4-3.5-2.4-5.1-4.1-6.4l1.8-3.2
		C131.5,20.9,140.2,20.8,147.2,20.9z M26.1,21H66l10.3,17.4c0.2,0.3,0.5,0.2,0.7,0.6l-3,16.4c-4.8-2.2-8.8,3.5-6.2,8.2
		C53,68.9,36,82.5,36,82.5L35.8,69l-9.7-10.1L26.1,21z M153.8,29.1c-0.6,16.6,0.2-2-0.2,52.9l0.3,104.6c0.6,1.8,0.8,2.4,0.6,4.2
		L144.2,180l0-30.4c0,0-9.7-14.4-11.9-21c-5.9-14.7-7.5-23.3-8.2-35.3l1.1-1.7L124,90l0-4.1l1.6-1.6l-1.5-1.9l0.4-3.8l1.1-1
		c-1-1.1-0.7-2.7-0.5-3.8c0.3-0.9,0.8-0.8,1.5-0.6c3.6,1,7.3,3.6,10.7,5.7c-0.1,2-2.6,6.6,0.8,11.6c1.3,1,4.9,0.6,5.3,0.7l0,15.5
		l-2.6,0.1l1.9-2.2l-2.6,0.2l1.8-1.9l-2.8-0.1l2-2.1l-2.7,0.1l2-2l-2.5-0.1l1.7-1.9l-2.8,0.2l2-2.2l-3,0.1l2.3-2.1l-3,0l0.9-1
		l-0.8-0.4c-0.8,0.4-5.7,3-5.7,3c0,0.4,4.1-1.1,4.3-1c1.2,5.4,6.5,17.4,10,20.9l0.2-33.9c0.5-0.5,1.4-0.3,1.9-0.5
		c1.8,0.1,4.7-2.9,3.2-3.5c-0.8-0.2-5.3-0.9-5.3-1.2c0.2-9.7,0.3-19.7-0.1-30.2c-1.2-0.2-5.3-0.4-5.3-0.4S153.5,28.8,153.8,29.1
		L153.8,29.1z M95.9,37L95.9,37c2.1,0,3.3,0.2,3,0.7c-0.1,0.3,0.5-0.6,0.5-0.6c0-0.4,14.7,0.4,22,1.8c0.1,1-0.1,1.5-0.1,3.3
		c-4.4-0.7-7.7,0.7-8.7,3.8c-0.6,1.7-0.3,3.2,0.6,7.8c0.9,4.4,0.9,3.9,0.8,4.5c-0.1,0.7-0.9,1.5-2,2.4c-0.5,0.4-0.7,1.3-0.7,1.3
		s0.4-0.2,0.6-0.4c0.5-0.6,1.1-0.6,1.8-0.9c1.7-0.9,1.6-1.7,0.6-5.3c-0.4-1.5-0.9-2.9-1-4.4c0,0,0.6,0.4,1.3,0.9
		c1.1,0.7,1.9,1.4,3.2,1.6c-1.2-1.3-2.4-1.8-3.3-3.1c2.3,0.8,5,0.5,6.4-0.2c0,0-0.3,1.8-0.4,4.3c-0.3,6.2-1.7,12.8-5.9,16.7
		c-5.9,5.5-15.6,1.8-20.9-3.3l-0.6,0.9c3.6,3,9.9,6.8,15.9,6.1c-2.5,2.1-8.2,5.7-8.2,5.7c-3.9-2.8-6.7-5.6-10.9-8.6l-0.7,0.5
		l11.6,9.3l12.5-8.3c0,0-0.5,8-0.7,10.9l5.4-4.8l-4.2-6.2l4.4-4.6c0,0-0.8,0.1,0.1-1.3c2.5-6.7,2.8-13.2,3.5-20.1
		c0.4,2.6,0.9,3.9,1.8,6.2c0.9,2.2,1.2,2.2,2.2,1.9c5.3-0.4,2.9,9.8-3.4,3.1c-0.3-0.3-0.7-0.6-0.8-0.6c-0.1,0.4,1.7,5.8,2.4,7.1
		c0.7,1.3,0.7,1.5,1.8,1.4c2-0.2,2.7,0.5,2.9,2.7c-0.3,4.1-4.7,2.4-7.5,1.1c-0.3-0.2,1.3,1.4,1.9,2c0.8,0.8,0.9,1.3,0.9,1.3
		l-0.2,2.2l-4.3,4l3.5,5.3l-0.1,1.9l-3.8,4.6l4,4.4l0,1.6l-3.3,4.4l4.4,3.5l0.2,1.4c0,0-2.8,5.2-2.7,5.4c0.1,0.2,4.8,3.4,4.8,3.4
		l0.5,2.2l-2,5.6l4.9,2.8l0.9,2.5l-1.4,5.2l5.1,2.3l1.4,2.9l-0.9,5.5l5.7,1.7l1.5,2.4l-0.2,4.8l1.4,0.1v1.4l-1.6-0.2l-0.2,6.6
		l1.9,0.2v1.2h-2.4l-1-1l0.5-7.4l-7.3-1.2l-0.7-0.9l1.2-6.9l-6.8-2l-0.9-1.7l1.9-7.2l-6.9-3l-0.5-1.3l2.9-6.4l-6.3-3.1l-0.4-1.5
		l3.5-6.6l-6.3-4.6l0.2,1.2l5,3.6l-2.9,5.6c0,2.4,2,7.8,2.8,10.3l-9.6,6.5c4.1,2.5,9.3,2.4,14.1,3.4c0,0,0.2,0.7,0.6,1.3
		c1.4,2.2,2.6,5.1,4.2,8c-1.1,0.5-2.9,0.7-2.9,0.7c-3.4,10.3-0.6,24.5-6.4,32.4l-0.2,0.1c-0.5,0.2-0.9-0.7-0.9-1.3
		c0-0.7,0.5-1.3,1.1-1.4v-0.7c-1,0.1-1.9,1-1.9,2.1c0,0.6,0.3,1.2,0.7,1.6c-0.3,0.1-1,0.4-1,0.4l-1.8-2l3.9-3.9l0-1.3
		c-1.7,1.8-5,5.2-5,5.2l2.1,2.3l-1.1,0.5l-1.7-1.9l-3.9,4l-1-0.7c1.3-1.7,2.2-2.3,4.1-4.3c-1-1.2-4.8-4.9-4.9-5l0,1.3l3.9,3.8
		l-3.9,3.9c0,0-2.4-0.8-3.3-1.1c1.3,1.1,3.6,2,4.9,2.9c5.7,3.4,0.3,10.3-5,8.6c-0.1-0.6-2.9,16.5-2.9,16.5S84.5,212,80.7,212
		c0.5-2.5,1.4-11.4,1.4-11.4c1-8.7,1.8-19.6,7.5-23.2c0,0-0.9-0.9-1.6-1.4l0.7,0.8c0,0.3-0.1,0.4-0.3,0.5c-1.2,1-2.7,3-2.6,3.1
		c-4.7-4.1-12.1-7.6-16.5-6.2c-1.8,0.4-2.5,2.1-3.5,0.7c3.1-19.3-1.3-40.1-6.4-54.9c1.6-0.6,9.9-6.1,9.9-6.1
		c-4.3-2.6-13.1-2.1-14.6-3.1c-0.6,0.3-1,1-1,1.7c0,1.1,0.8,1.9,1.9,1.9c0.2,0,0.4,0,0.6-0.1c0.5,1.2,0.9,2.3,0.9,2.3l-5.6-2.4
		l1.8-6.1l-0.6-1.4l-2.2,8l7.1,3.1l0.5,1.4l-2.9,6l6.3,3.8l0.3,1.2l-3.4,6.5l6.1,4.7l-4.5,5.8l5.5,4.7l-0.1,0.8l-4.6,5.3l4.7,4.9
		l0.1,2l-5.2,4.6l4.5,6.5c-1.9,1.3-2.9,2.7-4.1,4.1l-1.1-0.5l4-3l-4.2-6.1l-4.5,4l2.4,4l-1.5-0.7l-1.4-2.1l0.2-2.2l4.4-4l-3.8-5.5
		l0-1c0,0,2.4-2.7,4.1-4.7l-4.8-5.3l3.9-5l-4.9-4.2l0.1,1.3l3.6,3.1l-2.8,3.4c-0.2,2.1,0.2,5.6-0.8,7.1c1.7,1.7,0.8,5.7,0,7
		c1.6,1.9,0.7,6.1-0.3,6.3c1.2,1.5,0.7,4.7-0.3,5.7c-0.3,0.2,4.4,1.9,7.4,3.9c-2.5,4.6-1.9,9-2.7,10.6c-1.1-3.1-2.4-6.4-3.6-8.8
		c-0.1-0.2-0.4-0.2-0.8-0.2c-4.9-0.4-4.5-4.5-0.8-5.6c-3.7-1.8-8.5-5.7-11.2-6.7c0.5-1.1,0.9-3.1,0.9-4.8c0.3-2.5-0.9-6.4-0.9-6.4
		l1.6-1c0.3-1.3,2.1-1.4,2.2-2.3c-0.4-4.1-8.4-19.8-10-21.6c-0.6,11.2,0.6,23.4,0,34.6c-7.5,0-9.1,4,0,4.7c-0.2,10.2,0,30.6,0,30.6
		l5.4,0c0,0-13.3,13.9-14.5,15.1C25,171.1,25,59.2,25,59.2l10.2,10.2l0.1,31.8c3.4,3.5,5.3,8.5,7.4,11.8l5.6,2.7l-1.3,4.5l0.6,1.3
		l1.7-6.3l-6.1-2.9l-0.6-1.3l1-6l-5.7-2l-1-1.4l0.4-5.8l-1.2-0.4v-1.2l1.2,0.1l0.4-6.5l-1.6-0.5V85c1.2,0.7,2.2,1.4,3.1,2.5
		l-0.6,7.3l7.3,1.5l0.5,0.8l-1.3,7.3l7.6,2.3c-0.8-1.9-1.8-3.8-2.7-5.7c1.1-0.3,2.1-0.4,3.2-0.6c0.3-9.8,0-20,0.3-29.3
		c2.7-0.8,4.1-2.6,5.9-3.1c0.7,0,1.3,0.6,1.3,1.3c0,0.6-0.5,1.2-1.1,1.2v0.6c1-0.1,1.7-0.9,1.7-1.9c0-0.7-0.3-1.3-0.9-1.6l1.1-0.4
		l1.9,2.1l-3.8,3.6v1.1l4.7-4.7L62.2,67l1.2-0.6l1.9,2c0,0,4.1-4.2,3.8-4.3c-3.6-4.6-0.1-10.2,5.4-8.1c1.2-5.8,2.4-11.1,3.3-17.1
		C76.6,38.8,89.7,37,95.9,37L95.9,37z M106,41.5c-2.4,0-5.5,1.2-7.5,2.1c-1.8,0.8-1.4,1.3-0.3,0.9c1.6-0.4,3.3-0.9,4.9-1.2
		c1.7-0.3,4.1,0,5.4,0.6c0.9,0.5,1.3,0.2,0.9-0.7C108.7,42,107.4,41.5,106,41.5z M118.4,43.4c1.1,0,2.2,0.5,3,1.6l0,1
		c-1.9-1.7-5.2-1.1-7.1-0.1C114.7,44.5,116.6,43.4,118.4,43.4z M103,44.5c-1.6,0-3.2,0.3-4.4,1.5c2.4-1,5.8-1.1,8.3-0.1
		c0.5,0.2,1.4,0.8,1.4,0.8L108,47c0,0-0.7,0-1.4-0.2c-2.3-0.8-5.1-1-7.7,0.2c-0.7,0.3-1.2,0.7-1.9,0.9l0,0.8c1,0,1.9,0.5,2.6,0.9
		c2.2,1.2,3.3,1.1,5.5,1.1c0.5,0,1.1-0.2,1.1-0.2s-0.8,0.7-1.5,0.9c-1.6,0.7-2.7,0.8-4.2,1.6c2.3-0.2,5.5-1.1,7.5-2.5
		c1.3-1,1.7-1.3,1.1-1.7c-0.5-0.4-0.9-0.4-0.2-1.1c0.2-0.3,0.7-0.8,0.7-0.9c0-0.5-3.1-2.2-4.9-2.3C104.1,44.5,103.6,44.5,103,44.5z
		 M117.8,45.6c1.2,0,2.4,0.3,3.4,1.5l-0.1,0.6c-2.4-1.8-5.2-1.1-7.3-0.4c0.6-0.8,1.8-1.3,2.7-1.5C116.9,45.6,117.4,45.6,117.8,45.6
		L117.8,45.6z M101.8,47.7l0.5,0c0.5,2.6,2.4,2,2.9,0.2l0.6,0.2c-0.5,1.3-1.2,1.9-2,1.9C102.8,50,101.8,48.9,101.8,47.7z
		 M101.1,47.7c0.1,0.7,0.7,1.8,0.9,1.9c-0.1,0-1.1-0.3-1.5-0.4c-1.3-0.6-1.5-0.8-0.8-1.2C100.2,47.8,100.6,47.7,101.1,47.7z
		 M116.5,48.2c0.2,0,0.3,0,0.3,0.1c0.3,2.1,1.9,1.6,2.3,0.3c0.2,0,0.4,0,0.7,0.1c-0.6,1.1-1.3,1.6-2.1,1.6c-0.8,0-1.5-0.7-1.8-2
		C116.2,48.2,116.3,48.2,116.5,48.2z M106.3,48.2c0,0,0.9,0.4,1,0.7c0.1,0.3-0.2,0.5-0.8,0.7c-0.3,0.1-1.2,0.1-1.2,0.1
		C105.8,49.2,105.9,48.9,106.3,48.2z M115.2,48.2L115.2,48.2l0.2,0c0.2,1.3,0.6,1.5,0.9,1.9c-0.9,0.1-2.5-0.7-2.6-1l0-0.2
		C113.9,48.6,114.7,48.3,115.2,48.2L115.2,48.2z M120.3,48.8l0.7,0.4l-0.1,0.5c-0.5,0.3-1.1,0.4-1.7,0.5
		C119.6,49.9,119.9,49.3,120.3,48.8z M108,55.6c-0.4,0-1.2,0.5-1.7,1.2c-1.9,2.6,0.2,5.3,2.9,3.8c0.6-0.3,1.5-0.4,2.1-0.9
		c1.3-0.9,0.1-1.6-0.8-1.5c-0.4,0.1-0.8,0.3-1.3,0.6c-1.6,1.1-2.5,0.9-2.7-0.4c-0.2-1.4,2-2.1,1.8-2.7
		C108.3,55.6,108.1,55.5,108,55.6z M104.9,63.2c-0.2,0.1-0.4,0.8-0.9,2.1c-0.3,0.8-0.4,1.4-0.1,1.4c0.1,0,0.3-0.1,0.5-0.2
		c0.6-0.4,1.5-0.9,3.8-0.3c1.2,0.4,2.6,0.1,3.5-0.2c0.6-0.2,1.5-0.4,2.3,0c0.7,0.3,1.5,0.9,1.3,0.3c0-0.1-0.1-0.9-0.1-1.4
		c0-1.1-0.1-2-0.9-1.2c-0.3,0.4-0.8,0.4-1.5,0.1c-0.6-0.2-0.9-0.4-1.4-0.1c-0.6,0.4-1.1,0.5-2.2,0.1c-0.5-0.2-1.1-0.2-1.8,0.2
		c-1.1,0.7-1.8,0-2.2-0.7C105.1,63.2,105,63.2,104.9,63.2z M70.5,64.6l-4.4,4.5l4.2,4.4v-1.1l-3.1-3.3l3-3.1
		c0.4-0.6,1.6-0.5,1.9-0.5C71.8,64.8,71.2,64.9,70.5,64.6z M70.3,67.3c-1,0.1-1.7,0.9-1.7,1.9c0,1,0.8,1.8,1.7,1.9v-0.6
		c-0.6-0.1-1.1-0.6-1.1-1.3s0.5-1.2,1.1-1.3V67.3z M106.1,67.4l-0.2,0c-0.3,0.3,0.8,1.3,1.8,1.5c0.8,0.1,1.8,0,1.8,0.1
		c-0.4,0.1-0.9,0.3-1.1,0.5c0,0.3,0.2,0.6,0.5,0.7c0.3,0,0.5-0.3,0.8-0.4c0.2-0.1,0.4,0,0.7,0c0.7,0,1.5,0.5,1.7,0.4
		c0.2-0.1,0.2-0.6,0.1-0.7c-0.4-0.3-0.9-0.4-1.4-0.6c0,0,0.6-0.1,0.8-0.2c0.3-0.1,0.6-0.1,0.8-0.4c0.1-0.2,0.1-0.5-0.1-0.5
		c-1.3,0-3,0.6-4.6,0C106.9,67.6,106.4,67.4,106.1,67.4z M119.5,69.1l-4.3,3.7l3.7,5.4l4.7-3.8l-3-4.7L119.5,69.1z M65.1,70
		l-4.5,4.7l4.6,4.7l4.5-4.5L65.1,70z M119.4,72.5c0.7,0,1.2,0.5,1.2,1.2s-0.5,1.2-1.2,1.2s-1.2-0.5-1.2-1.2S118.8,72.5,119.4,72.5z
		 M65.2,73.7c0.7,0,1.2,0.5,1.2,1.2s-0.5,1.2-1.2,1.2S64,75.5,64,74.9S64.6,73.7,65.2,73.7z M113.9,74.5l3.3,4.8l-3.9,3.4
		c0.1-0.8,0.1-1.4,0.1-2c0.9-0.3,1.5-1.1,1.5-2.1c0-0.9-0.5-1.6-1.2-1.9C113.7,76,113.8,75.4,113.9,74.5z M59.5,75.4v1.3l3.6,3.8
		l-3.6,3.8l0.1,1.2l4.8-4.9L59.5,75.4z M70.3,75.7l-4.5,4.8l4.5,4.7v-1.5l-3.1-3.3l3.1-3.2V75.7z M143.9,76L143.9,76
		c0.7,0,1.4,0,2.3,0.2c-0.4,1.6,1.3,2.4,1.5,2c0,0,0.2-0.3,0-0.3c-1.2-0.1-1.1-1.6-0.9-1.6c1.3,0,2.1,0,2.3,0.6
		c0.1,0.4-0.1,0.9-0.9,1.5c-0.9,0.7-5,0.7-5,0.7c0,0,0,1.2-0.4,1.8c-0.4,0.6-0.9,1.3-0.5,1.5c0.6,0.3,1,0.9,1.1,1.7
		c0.2,1.6-0.1,5.5,0,5.5c-0.7,0.1-1.5,0.1-2.2,0.1c-1.3,0-2.5-0.2-2.9-1.1c-1.9-2.6-1.4-8,0-9.9C140.3,77,141.8,76.1,143.9,76
		L143.9,76z M123.9,76.7l-0.1,1.1c-0.9,0.2-1.6,1.1-1.6,2.1c0,0.9,0.6,1.7,1.3,2l-0.1,1.5l-2.7-3.8L123.9,76.7z M113.5,77.4
		c0.4,0.3,0.6,0.7,0.6,1.2c0,0.5-0.3,1-0.8,1.3C113.4,79,113.5,78.2,113.5,77.4z M70.3,78.5c-0.9,0.2-1.6,0.9-1.6,1.9
		s0.7,1.7,1.6,1.9v-0.6c-0.5-0.1-0.9-0.6-0.9-1.2c0-0.6,0.4-1.1,0.9-1.2V78.5z M59.6,78.6c0,0.3,0,0.5,0,0.6c0.7,0,1.3,0.6,1.3,1.3
		s-0.6,1.3-1.3,1.3c0,0.3,0,0.5,0,0.6c1,0,1.9-0.9,1.9-1.9S60.6,78.6,59.6,78.6z M123.8,78.6l-0.2,2.5c-0.4-0.3-0.7-0.7-0.7-1.2
		C122.9,79.3,123.3,78.8,123.8,78.6z M118.7,80.5l-4.7,4.7l4.5,5l4.1-4.5L118.7,80.5z M65.2,80.9l-4.5,4.8l4.6,4.7l4.6-4.6
		L65.2,80.9z M118.5,84.2c0.7,0,1.2,0.5,1.2,1.2c0,0.7-0.5,1.2-1.2,1.2s-1.2-0.5-1.2-1.2C117.3,84.7,117.9,84.2,118.5,84.2z
		 M65.3,84.6c0.7,0,1.2,0.5,1.2,1.2c0,0.7-0.5,1.2-1.2,1.2c-0.7,0-1.2-0.5-1.2-1.2C64.1,85.2,64.6,84.6,65.3,84.6z M112.7,85.7
		l0,1.2l4,4.2l-3.7,4.4l0.1,1.3l4.8-5.7L112.7,85.7z M59.6,86.2c-0.1,0.4-0.1,0.8-0.1,1.2l3.8,3.8l-3.5,3.7l-0.1,1.4l4.9-5
		L59.6,86.2z M70.3,86.8L66,91.3l4.3,4.4v-1.4l-3-3l3-3.1V86.8z M123.2,88.1l0,1.1c-0.8,0.3-1.3,1.1-1.3,2c0,0.9,0.6,1.7,1.4,2
		l0,1.1l-2.9-3L123.2,88.1z M39.8,88.5l1.4,1.7c-0.2,0.3-0.4,0.7-0.4,1.1c0,1.1,0.8,1.9,1.9,1.9c0.3,0,0.6-0.1,0.8-0.2l1.7,2.1
		l-5.8-1.1L39.8,88.5z M59.5,89.1v0.6c0.7,0,1.2,0.6,1.2,1.3c0,0.7-0.6,1.3-1.2,1.3v0.6c1,0,1.9-0.9,1.9-1.9
		C61.4,89.9,60.6,89.1,59.5,89.1z M112.8,89.2V90c0.5,0.2,0.9,0.7,0.9,1.3c0,0.6-0.4,1.1-0.9,1.3v0.8c1-0.2,1.7-1.1,1.7-2.1
		S113.7,89.4,112.8,89.2z M70.3,89.4c-0.8,0.2-1.5,0.9-1.5,1.9c0,0.9,0.6,1.7,1.5,1.9v-0.7c-0.5-0.2-0.8-0.6-0.8-1.2
		c0-0.5,0.3-1,0.8-1.2V89.4z M123.3,89.9l0,2.4c-0.4-0.3-0.6-0.7-0.6-1.2C122.7,90.6,122.9,90.2,123.3,89.9z M41.6,90.8l1.5,1.8
		c-0.1,0-0.3,0.1-0.4,0.1c-0.7,0-1.3-0.6-1.3-1.3C41.4,91.2,41.5,90.9,41.6,90.8z M118.9,92l-4.3,5.1l4.8,3.7l3.7-4.7L118.9,92z
		 M65.3,92.1l-4.6,4.7l3.3,3.6l-1.6-0.2c-0.7-0.8-1.4-2-2.7-2.7l0.1,0.9c0.1,0,1.5,1.4,1.3,1.6l-1.3-0.1c-0.1,0,0,0.5,0,0.5
		c3.4,0.3,6.9,1,10.6,2.3l-0.1-0.7l-0.6-0.3c0,0,0.4-0.4,0.7-0.8v-1.2l-1.5,1.7l-0.7-0.3l2.3-2.3v-0.9l-3,2.9l-1.5-0.4l4-3.9
		L65.3,92.1z M118.8,95.3c0.7,0,1.2,0.5,1.2,1.2c0,0.7-0.5,1.2-1.2,1.2s-1.2-0.5-1.2-1.2C117.6,95.9,118.2,95.3,118.8,95.3z
		 M65.1,95.7c0.7,0,1.2,0.5,1.2,1.2s-0.5,1.2-1.2,1.2c-0.7,0-1.2-0.5-1.2-1.2S64.5,95.7,65.1,95.7z M38.3,95.9l-0.5,5.9l5.9,2l1-6.6
		L38.3,95.9z M35.9,96.3l0.5,0.1l-0.2,3.2l-0.3-0.1V96.3z M113,97.4l0.1,1.3l4.2,3l-3.2,4.2l0.3,1.5l4.4-5.8L113,97.4z M47,98
		l1.3,2.2c-0.4,0.3-0.6,0.8-0.6,1.4c0,1.1,0.8,1.9,1.9,1.9c0.2,0,0.4,0,0.6-0.1l1.2,2l-5.7-1.8L47,98z M123.6,98.2l0.1,0.9
		c-0.5,0.4-0.9,1-0.9,1.8c0,0.9,0.6,1.7,1.4,2l0.1,0.8l-3-2.3L123.6,98.2z M41.4,98.5c0.7,0,1.2,0.5,1.2,1.2c0,0.7-0.5,1.2-1.2,1.2
		s-1.2-0.5-1.2-1.2C40.2,99,40.8,98.5,41.4,98.5z M123.8,100l0.3,2C123.3,101.3,123.4,100.8,123.8,100z M113.4,100.2l0.1,0.7
		c0.7,0.1,1.2,0.7,1.2,1.4c0,0.6-0.4,1.1-0.9,1.3l0.1,0.7c0.9-0.3,1.5-1.1,1.5-2C115.4,101.2,114.5,100.2,113.4,100.2z M48.7,100.8
		l1.2,2.1c-0.1,0-0.2,0-0.3,0c-0.7,0-1.3-0.6-1.3-1.3C48.4,101.3,48.5,101,48.7,100.8z M119.6,102.4l-3.5,5.3l4.9,3.4l3-5.3
		L119.6,102.4z M38.6,104.1l4,1.4l-0.6,3.8l-0.8-1.2c0.2-0.3,0.4-0.7,0.4-1.1c0-1.1-0.9-1.9-1.9-1.9c-0.1,0-0.3,0-0.4,0L38.6,104.1z
		 M44.9,105.3l-1.2,6.2l5.9,2.7l1.6-6.6L44.9,105.3z M120.1,105.5c0.7,0,1.2,0.5,1.2,1.2c0,0.7-0.5,1.2-1.2,1.2s-1.2-0.5-1.2-1.2
		C118.9,106,119.5,105.5,120.1,105.5z M39.6,105.6L39.6,105.6c1.1,0,1.6,0.9,1.2,1.8L39.6,105.6z M143.4,107l0,1.4l-1.7,0.3
		L143.4,107z M125.1,107.8l0.3,1.2c-0.6,0.4-0.9,1-0.9,1.8c0,1.1,0.8,1.9,1.7,2.1l0.3,1.3l-3.4-2.3
		C123.1,111.8,124.2,109.2,125.1,107.8z M47.4,108.5c0.7,0,1.2,0.5,1.2,1.2c0,0.7-0.5,1.2-1.2,1.2c-0.7,0-1.2-0.5-1.2-1.2
		C46.2,109.1,46.7,108.5,47.4,108.5z M143.4,109.2c0,0,0,1,0,1.4l-0.9-0.3L143.4,109.2z M125.6,109.8l0.5,2.3
		c-0.5-0.2-0.9-0.7-0.9-1.3C125.2,110.4,125.3,110,125.6,109.8z M115.3,111.4l-0.2,0c0.1,0.3,0.2,0.5,0.2,0.7c0.8,0,1.4,0.6,1.4,1.4
		c0,0.6-0.4,1.1-0.9,1.3l0.2,0.7c0.8-0.3,1.4-1.1,1.4-2C117.4,112.3,116.4,111.4,115.3,111.4z M54.9,111.7c0.3,0.6,0.7,1.2,1,2.1
		c-0.1,0-0.1,0-0.2,0c-0.7,0-1.3-0.6-1.3-1.3C54.4,112.1,54.5,111.9,54.9,111.7z M121.5,112.9l-2.8,6.2l5.5,3.3l2.6-6L121.5,112.9z
		 M45.3,115.2c-0.2,0-0.4,0-0.6,0.1c-0.5,0.7,0.2,3.6,1.7,3.5c0.5-0.3,0.8-1,0.8-1.7C47.2,116.1,46.3,115.2,45.3,115.2z M50.4,115.6
		l-1.6,6l5.7,3.2l2.2-5.9L50.4,115.6z M45.3,115.9c0.7,0,1.3,0.6,1.3,1.3c0,0.4-0.2,0.8-0.5,1c-1.1,0.8-1.3-2.4-1.1-2.2
		C45.1,115.9,45.2,115.9,45.3,115.9z M122.7,116.6c0.7,0,1.2,0.5,1.2,1.2s-0.5,1.2-1.2,1.2s-1.2-0.5-1.2-1.2S122,116.6,122.7,116.6z
		 M127.7,118.6l0.5,1.5c-0.3,0.4-0.5,0.9-0.5,1.4c0,1,0.7,1.8,1.6,2.1l0.4,1.3l-3.6-2.1L127.7,118.6z M52.6,119.1
		c0.7,0,1.2,0.5,1.2,1.2c0,0.7-0.5,1.2-1.2,1.2c-0.7,0-1.2-0.5-1.2-1.2C51.4,119.6,51.9,119.1,52.6,119.1z M58.7,120l0.7,2.3
		c-0.5,0.3-0.8,0.9-0.8,1.6c0,1,0.8,1.9,1.9,1.9l0.6,1.9l-4.7-2.7L58.7,120z M128.5,121l0.5,1.7c-0.4-0.3-0.6-0.7-0.6-1.2
		C128.4,121.4,128.4,121.2,128.5,121z M117.9,121.6l4.7,2.5c-0.7,1.8-1.2,3-2.2,4.8c-0.4-0.7-0.6-1.3-0.9-2c0.6-0.4,0.9-1,0.9-1.8
		c0-1.1-0.9-2.1-2-2.1l-0.2,0L117.9,121.6z M47.8,122.4l0.5,1.2l4.5,2.6l-1.9,4.7l0.4,1.4l2.6-6.4L47.8,122.4z M59.6,122.9l0.6,2.2
		c-0.6-0.1-1-0.6-1-1.2C59.2,123.5,59.4,123.2,59.6,122.9z M118.6,123.6c0.8,0,1.2,0.6,1.2,1.4c0,0.4-0.2,0.8-0.5,1.1L118.6,123.6z
		 M124.8,124.2l-2.5,6.2l6.3,2.8l1.7-6.2L124.8,124.2z M49.4,125.3c-1.9,0-0.9,3.8,0,3.8c1,0,1.9-0.9,1.9-1.9S50.4,125.2,49.4,125.3
		z M49.4,125.9c0.7,0,1.3,0.6,1.3,1.3s-0.6,1.3-1.3,1.3C48.8,128.2,48.6,126,49.4,125.9z M54.9,126.5l-2.6,5.9l5.3,3.7l3.1-6.1
		L54.9,126.5z M126.4,127.6c0.7,0,1.2,0.5,1.2,1.2c0,0.7-0.5,1.2-1.2,1.2s-1.2-0.5-1.2-1.2C125.2,128.2,125.7,127.6,126.4,127.6z
		 M131.6,129.7l0.4,0.9c-0.2,0.3-0.3,0.7-0.3,1.1c0,1.1,0.8,2,1.9,2.1l0.5,1.1l-3.5-1.6L131.6,129.7z M56.5,130.1
		c0.7,0,1.2,0.5,1.2,1.2c0,0.7-0.5,1.2-1.2,1.2s-1.2-0.5-1.2-1.2C55.3,130.7,55.8,130.1,56.5,130.1z M62.2,131.4c0,0,0.3,1,0.6,2.4
		c-0.6,0.3-1.1,1-1.1,1.7c0,1.1,0.8,1.9,1.9,1.9h0c0.2,0.8,0.3,1.6,0.4,2.3l-4.5-3.2L62.2,131.4z M132.5,131.5l0.7,1.6
		c-0.5-0.2-0.8-0.7-0.8-1.3C132.4,131.6,132.5,131.6,132.5,131.5z M121.8,132.3l5.6,2.4l-1.6,5.6l-1.3-2.2c0.5-0.4,0.9-1,0.9-1.7
		c0-1.2-1-2.2-2.1-2.2c-0.2,0-0.3,0-0.5,0.1L121.8,132.3z M51.5,133.2l0.4,1.3l3.9,2.9l-2.3,4.2l0.2,1.6L57,137L51.5,133.2z
		 M62.9,134.5c0.2,0.7,0.4,1.5,0.5,2.3c-0.6-0.1-1.1-0.6-1.1-1.3C62.3,135.1,62.6,134.7,62.9,134.5z M123.2,134.9
		c0.8,0,1.4,0.6,1.4,1.4c0,0.4-0.2,0.8-0.5,1.1l-1.2-2.5L123.2,134.9z M129.4,135l-1.5,6.9l6.2,2.1l1.3-6.5L129.4,135z M52.5,136.5
		c-1.4,0.3-0.7,3.7,0,3.8c0.5,0.1,1-0.2,1.3-0.5c0.4-0.3,0.6-0.8,0.6-1.4C54.4,137.3,53.6,136.5,52.5,136.5z M52.8,137.1
		c0.6,0.1,1,0.7,1,1.3c0,0.7-0.6,1.3-1.3,1.3c-0.8-0.2-0.5-2.5,0-2.5L52.8,137.1z M57.7,137.9l-3,5.2l4.9,3.7l3.5-4.7L57.7,137.9z
		 M35.9,137.9l0.7,0.5l-0.7,0.7L35.9,137.9z M131.4,138.5c0.7,0,1.2,0.5,1.2,1.2s-0.5,1.2-1.2,1.2s-1.2-0.5-1.2-1.2
		S130.8,138.5,131.4,138.5z M136.8,139.7c0.1,0.2,0.3,0.7,0.6,1.2c-0.2,0.3-0.3,0.7-0.3,1c0,1.2,1,2.1,2.1,2.1l0.2,0
		c0.4,0.5,0.6,0.9,0.6,0.9l-4-1.2L136.8,139.7z M35.9,139.9l1.3,0.6l-1.3,1.1L35.9,139.9z M58.9,141.5c0.7,0,1.2,0.5,1.2,1.2
		c0,0.7-0.5,1.2-1.2,1.2c-0.7,0-1.2-0.5-1.2-1.2C57.7,142,58.2,141.5,58.9,141.5z M137.8,141.6c0.3,0.6,0.7,1.1,1.1,1.6
		c-0.6-0.2-1.1-0.7-1.1-1.4L137.8,141.6z M35.9,142.4l1.8,0.3l-1.5,1.9l2.6-0.1l-1.8,2l2.9,0.1l-2.3,1.9l3.1,0l-2.3,1.9l3.4-0.2
		l-2.4,2.1l3.3,0l-2.5,2.1l3.3,0l-2.1,1.9l2.8,0l-3.2,2.3c-1.4-0.6-3.2-0.9-5.1-1L35.9,142.4z M64.6,143.2l0.2,1.7
		c-0.7,0.3-1.3,1-1.3,1.8c0,1,0.8,1.8,1.7,1.9l0.3,2l-4.2-3.4L64.6,143.2z M127.8,144l5.3,1.6l-1,5.5c0,0-0.6-1-1.3-2.1
		c0.4-0.4,0.6-0.9,0.6-1.5c0-1.2-1-2.2-2.1-2.2c-0.2,0-0.4,0-0.6,0.1C128.3,144.8,127.8,144,127.8,144z M135.1,145.5l-0.8,6.3
		l6.5,1.2c0,0,0.3-3.9,0.5-5.8L135.1,145.5z M64.9,145.6l0.3,2.4c-0.6-0.1-1-0.6-1-1.2C64.2,146.3,64.5,145.8,64.9,145.6z
		 M129.2,146c0.8,0,1.4,0.6,1.4,1.4c0,0.3-0.1,0.6-0.3,0.9c-0.5-0.8-1-1.6-1.4-2.3L129.2,146z M108.4,146.2v0.4l1.1,0.3l-1.1,1.3
		l0,1.3l2.1-2.3l0.8,0.2l-2.9,3l0,1.3l3.9-4l1.2,0.3l-4,4.1l4.5,4.7l4.8-4.9l-3.4-3.5l1.9,0.2l2.5,2.6v-1l-1.2-1.4l1.2,0v-0.3l0,0
		C115.7,147.4,111.2,146.6,108.4,146.2L108.4,146.2z M54.2,146.4c-0.4,0.1-0.4,3.3,0.1,3.8c1,0,1.9-0.8,1.9-1.9
		S55.4,146.4,54.2,146.4L54.2,146.4z M54.3,147L54.3,147c0.7,0,1.3,0.6,1.3,1.3s-0.6,1.3-1.3,1.3C54.2,149.1,54.1,147.2,54.3,147z
		 M137.7,148.2c0.7,0,1.2,0.5,1.2,1.2c0,0.7-0.5,1.2-1.2,1.2s-1.2-0.5-1.2-1.2C136.5,148.7,137.1,148.2,137.7,148.2z M59.4,148.3
		l-3.4,4.2l4.3,4.8l3.9-4.7L59.4,148.3z M143.1,149.2l0.6,0.9v2.6l-0.7-0.1L143.1,149.2z M114,150.9c0.7,0,1.2,0.5,1.2,1.2
		c0,0.7-0.5,1.2-1.2,1.2s-1.2-0.5-1.2-1.2C112.8,151.4,113.3,150.9,114,150.9z M60.1,151.5c0.7,0,1.2,0.5,1.2,1.2s-0.5,1.2-1.2,1.2
		s-1.2-0.5-1.2-1.2S59.5,151.5,60.1,151.5z M119.6,152.4l-5.1,5.2l5,5.1v-1.3l-3.9-3.9l3.9-3.9L119.6,152.4z M108.3,152.8l0,1.3
		l3.6,3.7l-3.7,3.8l0,1.1l4.7-4.9L108.3,152.8z M134.1,153.9l5.7,0.9l-0.3,5.9c0,0-1.2-1.3-1.6-1.8c0.3-0.4,0.5-0.9,0.5-1.4
		c0-1.2-1-2.2-2.1-2.2c-0.3,0-0.7,0.1-0.9,0.2C135.1,155.2,134.1,153.9,134.1,153.9z M65.7,153.9v2.1c-0.7,0.3-1.3,1-1.3,1.8
		c0,0.8,0.5,1.5,1.3,1.8v2l-3.6-3.6L65.7,153.9z M55.6,155l2.9,3.2l-2.7,3.2l0-1.5c0.8-0.2,1.4-1,1.4-1.8c0-0.9-0.7-1.7-1.5-1.9
		L55.6,155z M119.6,155.5c-1,0.1-1.8,1-1.8,2.1c0,1.1,0.8,1.9,1.8,2.1v-0.7c-0.6-0.2-1.1-0.7-1.1-1.4c0-0.7,0.5-1.2,1.1-1.4
		L119.6,155.5z M108.3,155.5l0,0.7c0.6,0.1,1.1,0.7,1.1,1.4c0,0.7-0.5,1.3-1.1,1.4l0,0.7c1.1-0.1,1.9-1,1.9-2.1
		C110.2,156.6,109.4,155.7,108.3,155.5z M136.2,156c0.8,0,1.4,0.6,1.4,1.4c0,0.3-0.1,0.6-0.3,0.8l-1.7-2.2
		C135.9,156,136.1,156,136.2,156L136.2,156z M65.7,156.7l0,2.2c-0.4-0.2-0.6-0.6-0.6-1.1C65.1,157.3,65.3,156.9,65.7,156.7z
		 M55.6,156.8c0.5,0.2,0.9,0.6,0.9,1.2c0,0.5-0.3,1-0.8,1.2L55.6,156.8z M114.1,158.6l-4.5,4.8l4.3,4.3l4.5-4.7L114.1,158.6z
		 M60.2,158.7l-3.9,4.7l3.8,5.2l4.7-4.7L60.2,158.7z M36,158.8c0,0,3.5,0,4.8,0.9c1.3,2.4,2.2,7.4,0.3,10.2
		c-0.7,0.8-1.6,1.2-2.7,2.1c-0.9,0.7-2,1-3.1,1c-1,0-1.9-0.3-2.2-1c-0.2-0.4-0.3-0.7-0.6-0.8c-0.6-0.3-1.4-0.1-1.5,0.1
		c-0.1,0,1,0.1,1.1,0.3c0.8,0.7,0.7,1.2-0.5,1.1c-0.4,0-1.4,0-1.4-0.4c-0.2-1.4,1.6-2.4,4-2.2c1.7,0.3,1.7-0.4,1.8-1.3
		c0.1-0.3,0.3-0.8,0.5-1.2c0.6-1.1,0.8-0.9,0.4-1.3c-0.4-0.5-0.9-1.2-0.9-1.8L36,158.8z M113.8,162c0.7,0,1.2,0.5,1.2,1.2
		s-0.5,1.2-1.2,1.2s-1.2-0.5-1.2-1.2S113.2,162,113.8,162z M60.5,162.6c0.7,0,1.2,0.5,1.2,1.2s-0.5,1.2-1.2,1.2s-1.2-0.5-1.2-1.2
		S59.8,162.6,60.5,162.6z M119.6,163.3l-5,5.3l5,5.2l0-1.2l-4-3.9l4-4.1L119.6,163.3z M143.7,163.4v1.8l-1.7-1.8L143.7,163.4z
		 M108.3,163.4l0,1.4l3.7,3.9l-3.8,3.8l0,1.3l4.9-5L108.3,163.4z M55.6,165.7l2.6,3.8l-3.1,3l0.1-1.6c0.9-0.2,1.6-0.9,1.6-1.9
		c0-0.8-0.5-1.5-1.3-1.8L55.6,165.7z M65.9,166.1l-0.2,2.2c-0.9,0.2-1.6,0.9-1.6,1.9c0,0.8,0.5,1.5,1.2,1.8l-0.2,2.1l-3.3-4.4
		L65.9,166.1z M108.2,166.4l0,0.7c0.7,0.1,1.3,0.7,1.3,1.4c0,0.8-0.6,1.4-1.3,1.4l0,0.7c1.1-0.1,2-1,2-2.1
		C110.2,167.4,109.4,166.5,108.2,166.4z M143.6,166.4v13.9l10.1,10.6v37.7h-39.6l-11.6-19.5c0.7-5.1,2.5-15,2.5-15
		c1.1,0.3,4.7,0.6,6.6-2.2c0.9-1.3,1.4-3.1,0.2-6c-0.2-0.3-0.5-0.8-0.5-0.8s0.3-0.1,0.5-0.2C127.1,179.4,143.3,166.8,143.6,166.4z
		 M119.6,166.5c-1,0.2-1.8,1.1-1.8,2.1c0,1.1,0.8,1.9,1.8,2.1V170c-0.6-0.2-1.1-0.7-1.1-1.4c0-0.7,0.4-1.2,1.1-1.4L119.6,166.5z
		 M55.5,167.8c0.4,0.2,0.7,0.6,0.7,1.1c0,0.6-0.4,1-0.9,1.2L55.5,167.8z M65.6,169l-0.2,2.3c-0.4-0.2-0.6-0.6-0.6-1.1
		C64.7,169.7,65.1,169.2,65.6,169z M113.8,169.5l-4.5,4.7l4.4,4.5l4.6-4.6L113.8,169.5z M41,171.4l9.8,5.4l0.7,0.4
		c0,0-0.3,0.1-0.8,0.5c-1.1,0.7-1.5,2.5-1,3.9c0.8,2.2,2.5,1.8,3.9,1.8c1.2,0.9,2.2,4,3,6c0.4,0.9,0.7,1.6,0.8,2.1
		c0.1,0.5,0.1,0.9,0.1,0.9s-0.2-0.1-0.5-0.6c-1.6-3.3-5.2-4.9-7.1-1.8c-1,1.9-0.3,4.1,1.3,4.7c0.5,0.2,2.2,0,2.2,0
		c0.1-0.1,1.2,1.6,2.9,7.1c0.7,2.3,0.8,7.2,0.2,7.9c-1.1,1.3-1.3,3.1-2.2,4.5c-0.1,0.2-0.3,0.6-0.3,0.6c-1.8-3.7-6.9-6.9-10.3-6.6
		c-2.5,0.2-3.3,1-2.7,1.7c1.4,1.4,2.3,3.4,2.7,5.1c1.1,4,2.2,7.7,5,10.8l-1.6,3.2l-20.9-0.1V221l16.1-17.2l-6.2-0.1l0.1-29.5
		C37.8,173.5,39.4,172.4,41,171.4z M113.7,172.9c0.7,0,1.2,0.5,1.2,1.2c0,0.7-0.5,1.2-1.2,1.2s-1.2-0.5-1.2-1.2
		C112.6,173.5,113.1,172.9,113.7,172.9z M59.5,174.5c0.7,0,1.2,0.5,1.2,1.2s-0.5,1.2-1.2,1.2c-0.7,0-1.2-0.5-1.2-1.2
		S58.9,174.5,59.5,174.5z M71.4,175c4.3-0.1,9,2.4,13.9,6.2c-3.3,9.1-3.6,18.7-3.7,19.1c0,0-1.8-0.2-2.3-0.5
		c-1.2-0.7-2.6-1.1-3.9-1.2c-1.2-0.1-1.4-0.1-1.4-0.1c1.7-1.1,3.6-1.3,5.1-2c0,0-0.5-0.3-1.5-0.2c-2,0.2-3.9,1-5.9,2.3
		c-1.4,0.9-1.5,0.9-1.1,2.1c0.1,0.3,0.3,0.7-0.4,1c-0.7,0.3-0.6,0.5-0.2,0.9c0.1,0.1,0.3,0.1,0.4,0.2c0.1,0.1,0,0.5,0,0.6
		c2.4,2,6.5,2.2,10.1,0.4c0.2-0.1,0.8-0.4,0.8-0.4l-0.1,0.9c-2.1,1.4-4.9,1.8-7.1,1.8c-1.3,0-1.5-0.1-3.5-0.7
		c-0.8-0.2-1.2-0.3-1.3-0.2c-0.2,0.3,0.1,1.1,0.7,1.5c2.1,1.5,5.1,1.4,9.2-0.3c0.5-0.2,1.8-0.9,1.8-0.9c-0.1,1.4-0.4,2.9-0.6,4.1
		c-0.2,1.2-0.5,2.4-0.5,2.4c-0.4,0.3-19.8-0.7-22.4-2.3c-0.3-0.3-0.1-0.6,0-1.3c0.1-1.1,0.2-1.8,0.2-1.8s0.6,0.3,1,0.5
		c1.9,0.9,4.7,0.1,6.4-1.7c2.1-2.3,2.2-4.6,0.9-9.3c-1.5-5.2-1.5-5.9,0.3-7c1.2-0.8,1.9-2.8,1.8-2.8c-0.7,0.8-1.5,1.3-2.2,1.7
		c-2.1,1.4-2.7,2.2-1.8,4.8c0.9,2.6,1.7,5.1,1.3,5.3c-0.2,0.1-0.9-0.8-1.3-1c-0.9-0.5-3.2-1.5-3.2-1.5s0.1,0.2,1.1,0.8
		c2.5,1.6,3.5,3.1,1.1,2.2c-1.9-0.7-3.5,0-4.9,0.6c0,0-0.1-1.1-0.1-1.5c0-2.2,0.2-4.2,0.4-6.1c0.5-4.7,1.3-8.6,3.3-11.2
		C64.9,176.7,68.1,175,71.4,175L71.4,175z M108.1,177.3l0,0.7c0.7,0.1,1.2,0.7,1.2,1.4c0,0.7-0.5,1.3-1.2,1.4l0,0.7
		c1.1-0.1,1.9-1,1.9-2.1C110.1,178.4,109.2,177.5,108.1,177.3z M71.1,178.8c-0.2,0-0.6,0.1-0.9,0.3c-0.6,0.5-2.4,0.4-3.3,0
		c-0.4-0.2-0.5,0.6,0,0.8c0.5,0.2,1.2,0.4,1.2,0.4s-0.8,0.3-1.6,0.6c-0.5,0.2-0.5,1,0,0.8c1.3-0.4,3.1-1,5.1-0.4
		c1.6,0.5,1.2-0.7-0.5-0.9c-0.5,0-1.5-0.2-1.5-0.2s0.8-0.3,1.3-0.8C71.4,179,71.3,178.8,71.1,178.8z M69.8,182.4
		c-0.7,0-1.4,0.2-2.2,0.5c-1.1,0.5-2.3,0.7-3.4-0.3c-0.6-0.5-0.6-0.1-0.4,1c0.2,1.3,0.3,1.9,0.7,1.9c0.1,0,0.3-0.1,0.5-0.4
		c0.2-0.3,0.6-0.2,1.5-0.1c1,0.1,1.3,0,1.9-0.2c0.7-0.3,0.8-0.3,1.3,0c0.8,0.3,1.3,0.4,2.1,0.2c0.9-0.3,1.5-0.2,2.1,0.1
		c0.6,0.3,0.8,0.2,1-0.3c0.1-0.2,0.5-1.1,0.7-1.4c0.6-0.9,0.5-1.1-0.8-0.7c-0.9,0.3-2.5,0.4-3.7-0.1
		C70.6,182.5,70.2,182.4,69.8,182.4z M71.5,188c-1.4,0-2.4,0.9-3.9,1.3c-0.7,0.2-0.6,1.1-0.1,1.6c0.6,0.5,1.5,0.2,2.8-0.8
		c2.4-1.9,3,1.7,0.8,2.4c-0.3,0.1-0.2,0.9,0.5,0.7c1.4-0.4,2-1.6,1.9-2.9c-0.1-1.1-0.6-2-1.5-2.2C71.9,188.1,71.7,188,71.5,188z
		 M52.7,189c1.2-0.1,2.4,0.7,3.4,2.3c1.2,2,1.6,3.3,1.6,4.5c-0.1,2.7,0,4.1-0.1,6.9c-1.7-2.7-2-6.5-3.8-8.7c-3.4,0.6-5-2.6-2.1-4.7
		C52,189.1,52.3,189,52.7,189z M61,199c0.8-0.1,1.6,0.6,2,2l-0.6,0c-0.6-1.7-2.1-1.6-2.6-0.2l-0.5,0C59.7,199.6,60.3,199.1,61,199z
		 M62.7,199.3c0,0,1.3,0.1,1.7,0.3c0.3,0.1,0.6,0.3,0.6,0.5c0,0.2-0.2,0.5-0.5,0.6c-0.3,0.1-0.6,0.1-0.9,0.2
		C63.5,200.3,63.1,199.7,62.7,199.3z M75.5,199.4c0.7,0,1.5,0.7,1.9,2l-0.7,0.1c-0.5-1.8-1.8-2.1-2.5-0.2l-0.6-0.1
		C74,200,74.7,199.4,75.5,199.4z M59.4,199.5c-0.3,0.3-0.6,0.8-0.7,1.2l-0.5-0.1l0.1-0.7C58.6,199.6,59.1,199.5,59.4,199.5
		L59.4,199.5z M73.2,199.6c0.1,0,0.3,0,0.4,0c-0.1,0-0.8,0.9-0.8,1.5c0,0-0.6-0.2-0.8-0.3c-0.3-0.3-0.3-0.6,0-0.8
		C72.5,199.7,72.8,199.6,73.2,199.6L73.2,199.6z M77.3,199.8c1,0.2,1.6,0.6,2.3,1.4l-1.3,0.2C77.8,200.8,77.8,200.3,77.3,199.8z
		 M81.4,201.7l-0.1,0.9c-2.1,1.1-7,2.2-10.1,0.3c-0.3-0.3-0.1-0.7-0.1-0.7C75.6,203.9,78.4,203,81.4,201.7z M58.2,201.9
		c2,1.3,4.6,0.7,7.1,0c-2.3,2.2-5.6,1.6-7.2,0.9L58.2,201.9z M65,203.2c-1.7,2.7-4.2,3-7,1.6l0-1.2C60.4,204.9,63,204.4,65,203.2
		L65,203.2z M43.6,209c0.2,0,0.5,0,0.7,0c4.2,0.3,8.3,3.9,9.7,7.9l3.1-5.3c13.7,1.8,25.6,2.7,45-0.3l10,17.7l-64.2,0.4
		c0.7-1.3,1.3-2.4,1.8-3.9c0,0-3.6-3.8-4.9-8.7c-0.7-2.8-1.8-5.4-3.6-7.2c0-0.1,0.1-0.1,0.2-0.2C42.1,209.2,42.8,209,43.6,209z"/>
	<path class="st3" d="M67.8,20.7l62.6,0l-8.2,16.4c-15.2-2.3-30.2-2-45,0.3L67.8,20.7z M153.3,34l0.1,7.8l-8.1-0.2L153.3,34z
		 M84.9,86.7l-0.1,23.8c-3.2-2.3-6.5-4.6-9.8-6.4l0.1-24.6L84.9,86.7z M112.2,91.9c0.6,13.5,2.5,18.7,3.8,25.5l-11.6,7.5l0-27.6
		L112.2,91.9z M143.9,115.5l-0.1,33.2c-10.7-15.4-17.4-31-19.3-52.2c2.9-1.2,5.7-2.5,8.7-3.5C136.3,101.3,139.9,108.8,143.9,115.5z
		 M35.5,101.7c9.9,12.6,16.2,29.5,19.3,50.2l-9,4.4c-3-7.3-6.5-16-10.3-22L35.5,101.7z M74.4,124.1l0,27.7l-7.7,5
		c-0.5-9.7-2-18.9-3.8-25.6L74.4,124.1z M94.7,138.7c2.8,2.2,5.8,4.1,9.1,5.6l-0.5,24.6l-8.7-6.7L94.7,138.7z M33.6,208
		c0,0-5.4,5.5-7.4,7.3l0-7.5L33.6,208z M101.9,211.6l10.1,17.3l-63.4,0.5l8.8-17.9C74.1,214.6,87.9,213.7,101.9,211.6z"/>
	<path d="M66.6,20.1L77,38.3c13.8-3.1,30.2-2.5,45-0.1c0.8-1.1,1.7-3.3,2.5-4.8c2.1,5.6,8.7,9.2,13,7.7c0,0,0-0.3-0.7-1.5
		c-2.1-3.6-2.6-7.5-4.4-11.4c-0.9-2.1-3-3.8-3.4-3.9l2.3-4.1H66.6z M68.5,21.1h2.1l7.9,13.1L89.1,33l-3.5-11.9h3.2l3.1,11.6
		c5.9-0.2,11.6-0.3,16.5,0.1l1.7-11.7h3l-1.9,11.7l10,1.3l5.4-13h3.1c-2,3.4-7,14.3-8,15.4C98,33.4,88.3,35,77.4,36.4L68.5,21.1z
		 M72.7,21.1h10.9l3.6,10.9l-7.7,0.9L72.7,21.1z M90.5,21.1h18.1l-1.5,10.1c-4.8-0.3-9.4,0-14.1,0.1L90.5,21.1z M115.3,21.1h9.6
		l-4.8,11.4c-2.7-0.4-4.4-0.8-6.8-0.8L115.3,21.1z M129.4,25.2c0,0,0.4,0,0.7,0.3c1.2,1.3,2.4,3.6,3.4,6.8c0.8,2.4,1.7,4.9,2.7,7
		c0.5,1.1,0.5,1.2-1.1,1.2c-3.4,0-6.3-1.6-8.8-5c-0.8-1.1-1.1-1.6-1.1-2.1c0.1-0.5,1.1-2.2,1.1-2.2s0.6,1.7,0.8,2.5
		c0.9-3.4,1.3,0.5,1.6,1.6c1.1-3.3,1.7,1.2,1.7,2.4c1.5-2.1,1.4,1.4,2.2,2c0-1.8,1.1-0.6,2.5-0.2c-0.7-1-2.1-1.7-0.3-1.9
		c-1.8-1.2-2.7-1.1-1-1.7c-1.3-0.7-3.5-1.6-1.1-2.1c-1.5-0.9-3.9-1.3-1.3-2.2c-1.9-1.2-4.5-1.1-0.9-2.1c-1.3-0.8-3.7-1.1-1-1.7
		c-0.4-0.2-1.1-0.7-1.1-0.7L129.4,25.2z M154.2,28.3l-16.6,16.9l6.3,0.2v30.5c0,0,0.7,0.2,1.3,0.2c3.1,0.2,4,0.4,4,1.2
		c0,0.9-1.4,2.1-2.6,2.1c-0.3,0-0.7,0.3-0.7,0.3l0.4,99.7l7.4,7.8l0,2.5l-9.2-9.7l-0.3-99.7l-0.3,0.2l0,33.5c-4.7-7-7.3-14-9.9-21
		l-1,0.3l0.3,0.1c2.7,8.9,6,15.4,10.4,22.1l-0.1,32.4c-11.2-15.9-16.6-30.1-18.8-50.7l5.7-2.8l0.5-0.7l4.3-2.1l0.4,0.7l2.6-1.8
		c-2-3.5-1.9-8.5-0.3-11.2l-0.7-0.4c0-0.2-2.7,5.5,0.3,11.2l-1.9,1.2c-2.8-5.8-1.5-12-0.2-13.6c-2.7-1.7-5.7-3.5-8.3-4.3
		c-1.2-0.5-1.9,0.1-1.9,0.1l-0.6,3.2l0.9,1.2l-1,0.8l-0.5,4.9l1.1,1.1l-1.2,1.3l-0.2,4.7l1.3,1l-1,1.6l0.1,4.2l0.3,0.2
		c2.4,29.9,17,47.5,19.3,51.5l0.3,0.5c0.2,10.1,0.1,20.3,0,30.6l10.7,11.5l-0.1-4.2l-0.5-0.4V168l0.4,0c0,0,0.1-5.1,0.1-8.7l-0.6,0
		l0-13.1l0.5-0.1l0-8.5l-0.6,0c0,0-0.1-8.9,0.1-13.2l0.4,0l0-8.4l-0.5,0l0-12.1l0.6-0.1l-0.2-8l-0.5,0c-0.2-4.9-0.1-13.4-0.1-13.4
		l0.6,0l-0.1-7.9l-0.4,0l0.1-13.9l0.4,0l-0.1-8.2l-0.4,0l0.1-6.8l0.3,0l0.1-2.6l-0.3-0.7l0-9.1l0.2-0.1L154.2,28.3z M153.3,29.8
		l0,2.9l-9.8,9.6l9.8,0.1l0,2l-14.3-0.1L153.3,29.8z M153.2,34.2l0.1,7.4l-7.7-0.1L153.2,34.2z M96.3,36.9c-6.7,0-13.4,0.8-18.7,1.9
		c0,0-2.5,12-3.4,17.1c-0.8-0.5-1.6-0.7-2.4-0.7c-5.9,0.6-5.4,8.8-2.4,9c0.4,0,0.6,0.1,0.9,0.3c0.4,0.4,0.8,0.6,1.1,0.6
		c0.3,0,0.5,0,0.5,0.2c0,0.1-0.1,0.2-0.7,0.1c-0.3,0-1,0.5-1,0.5l0,36.6c-2.9-1.2-7.1-1.9-10.4-2.3l-0.2-32.6c0,0-4.8,2.5-6.6,3.6
		l-0.1,29.2l-3.4,0.4l5.4,11c0.8-0.6,11.4,0.4,14,2.1l-9.7,6.1c1,3,1.9,5.9,2.7,9c0,0.1,0.2,0.1,0.2,0.2c0.2,0.7,0.3,1.1,0.5,1.8
		c0,0.1,0,0.4,0,0.5c2.1,7.2,3.5,16.8,3.8,25.4l-0.3,0l0.1,5.2l0.3-0.2l0,2.4l-0.4,0.3c0,0.5,0,1.3,0,1.3l0.4,0.3l-0.2,4l-0.5,0.1
		l-0.3,6.3l12.3-8c0,0,8,5.8,11.5,8.8c-3.9,2.6-4.9,7.8-5.8,12c-1,4.2-1.3,7.7-1.6,11.2c-0.3,3.9-1,9-1.6,11.5
		c4.2,0.2,13.8-0.2,21.5-1.9c0.7-5.7,1.6-10.8,2.8-16.3c0,0,0.1,0.5,2.1,0.4c5.6-0.1,7.6-6.4,2.9-9.1c-0.4-0.3-1.2-0.8-1.9-1.2
		c-0.2-0.1-2.9-1.7-2.9-1.7l3.2,1.5l0.2-37.7c0,0,6.7,2,11.2,2.2l0,32.6l6.2-3.4l0.3-29.2l3.4-0.2c0,0-1.3-2.8-1.6-3.3
		c-0.6-1.2-2-3.7-3-5.4c-0.3-0.6-1.2-1.9-1.2-1.9c-4.5-0.1-9.2-0.8-13.4-2.7l9.7-6.4c-4.1-11.5-9.1-28.4-6.3-55.6l-0.7,0.4l-0.2,2.9
		l-12.1,8.4l-15-12.1c0,0,1.1,0,1.3,0c3.8,0.1,6.5-3.8,7.4-7.1c1.6-5.8,1.8-7.2,2.6-16.3c0.3-3.6,1-7.1,1.7-10.6
		c0.4-1.7,0.3-1.9,0.3-1.9C98.2,36.9,97.3,36.9,96.3,36.9z M96.8,37.2l1.5,0c-2.1,10.6-2.1,19.6-4.4,28c-1.1,4.1-4,7.1-6.8,7.1
		c-6.2-0.8-4.5-7.3-1.9-8.6c3.5-1.7,6.4,1.7,4.1,5.1c-1.7,2.5-4.8,0.8-3.6-1.9c0.7-1.5,2.1-1.4,2.1,0.2c-0.5,1.5,0,0.9,0.4,0.4
		c1.2-1.6-1.3-3.4-2.6-1.8c-0.8,1-1,2.2-0.7,3.1c0.5,1.6,2.3,2.5,4.4,1.1c2.5-3,3.8-6.9,4.6-11.2C95.4,49.4,95.5,39.6,96.8,37.2z
		 M95.9,37.2c-0.6,0.4-1.5,13.3-2.8,21.5c-0.1,0.7-1.5,7.2-2.3,6.8c-0.1-0.1-0.9-1.9-1-2.3c1.5-2.2,2-5.9,2.2-8.7
		c0.9-7.9,1.8-17.3,2.2-17.4L95.9,37.2z M93.4,37.3c-0.8,2.8-1.2,10.6-2,17.1c-0.5,3.3-1,7.8-2.2,8.5l-1-0.7c1.1-3.3,1.5-7.2,2-11
		c0.5-4.6,1-9.3,1.7-13.8L93.4,37.3z M91,37.4c-0.4,2.6-1,8.4-1.6,13.7c-0.7,6.2-1.7,10.8-2,10.7L86.1,61c0.5-1.9,1-3.9,1.3-5.8
		c0.6-4.3,0.8-9.6,2.2-17.6L91,37.4z M88.9,37.5c-0.8,3.5-1.6,11.8-2.3,17.6c-0.4,3.4-1.2,5.8-1.4,5.7c0,0-1.1-0.6-1.3-0.7
		c0.9-3.4,1.3-6.6,1.7-9.7c0.6-4.2,1-8.2,1.8-12.8L88.9,37.5z M86.6,37.7c-0.5,3.2-1.1,8.3-1.8,12.7c-0.7,5.1-1.4,9.4-1.7,9.4
		L81.4,59c0.2,0,0.7-1.2,1.1-3.2c1.3-6.1,2.6-18,2.8-18L86.6,37.7z M84.2,38c0.1-0.2-1.3,11.5-2.5,17.4c-0.4,2-1,3.3-1.1,3.3
		l-1.4-0.8c0.1,0.1,0.6-1.4,0.9-2.5c1.3-6,1.8-11.3,2.6-17.2L84.2,38z M81.9,38.3c-0.6,6-1.5,12.3-2.8,18.2
		c-0.2,0.8-0.6,1.2-0.6,1.2L77,56.9c1.6-4.6,1.8-9.1,3.3-18.4L81.9,38.3z M79.6,38.6c-0.9,4.9-1.3,10.6-2.5,15.1
		c-0.3,1-0.4,2-0.7,2.8l-1.7-0.7l3.5-17L79.6,38.6z M121.8,44.8c0,0-0.8,8.2-1.1,11.5c-0.5,5-1.2,8.3-3.1,12.2
		c1.6,0.9,3.3,1.7,5.1,2.3c0.7,0.3,1.4,0.3,2.1,0.7c0.5,0.3,1,0.5,1.6,0.4c1.6,0,3.3-1.4,3.2-3.1c-0.2-2.1-1.4-3-3.4-2.8
		c-1.1,0.1-1.1,0.1-1.8-1.2c-0.7-1.2-2.4-6.3-2.4-7c0.8,1.1,2.8,3.2,4.6,3.1c1.9-0.1,3.6-2,2.1-4.6c-0.8-1.3-2.2-1.5-3.6-1.1
		C122.9,51.9,122.5,48.6,121.8,44.8z M145.9,45.6l-0.1,29.7l-1.7-0.4l0-29.4L145.9,45.6z M149.8,45.9c0.7,0,1.2,0.5,1.2,1.2
		c0,0.7-0.5,1.2-1.2,1.2s-1.2-0.5-1.2-1.2C148.6,46.4,149.1,45.9,149.8,45.9z M121.9,47.9c0.2-0.1,0.8,5.3,3,7.7
		c2.6-1.3,4.9,1.7,3.1,3.7c-3.5,3-6.6-3.5-6.6-5.5C121.4,51.5,121.9,47.9,121.9,47.9z M151.3,48.6c0.7,0,1.2,0.5,1.2,1.2
		s-0.5,1.2-1.2,1.2s-1.2-0.5-1.2-1.2S150.6,48.6,151.3,48.6z M148.2,48.7c0.7,0,1.2,0.5,1.2,1.2s-0.5,1.2-1.2,1.2s-1.2-0.5-1.2-1.2
		S147.5,48.7,148.2,48.7z M149.7,51.5c0.7,0,1.2,0.5,1.2,1.2s-0.5,1.2-1.2,1.2s-1.2-0.5-1.2-1.2S149.1,51.5,149.7,51.5z M153.4,52.8
		v2.8l-6.6,6.3v-3.1L153.4,52.8z M71.6,55.6c0.2,0,0.4,0,0.5,0c0.2,0,0.4,0.1,0.6,0.1c-0.1,0-2.1,1.3-3.1,3.2
		c-1.1,2.2-0.1,4.3-0.4,4.3c-2-0.6-1.6-4.6-0.7-5.7C69.3,56.5,70.4,55.7,71.6,55.6z M74.3,56.3c0.3,0,0.5,0.1,0.8,0.4
		c0.3,0.3,0.6,0.4-0.2,0.7c-2.3,0.6-4,2.8-3.6,5.3c0,0.6,0.6,2.2-0.4,1.5c-2.3-1.5-1.1-6.3,2.1-7.5C73.6,56.5,73.9,56.3,74.3,56.3z
		 M153.4,56.6v3.1l-6.6,6.3v-3.1L153.4,56.6z M76.2,57.5c0.4,0,0.7,0,1,0.2c0.7,0.3,0.4,0.3-0.8,1c-2,1.1-3.2,3.3-2.9,5.7
		c0.1,0.9,0.5,1.2,0.2,1.2c-0.7,0-1.2-0.5-1.4-1.1C71.4,61.2,72.4,58.5,76.2,57.5z M121,57.7c0.1,0,0.4,0.6,0.7,1.7
		c1.9,6.1,2.4,7.3,3.8,7c0.8-0.2,1.6-0.2,2.1,0.1c1.7,0.9,1.8,4.1-0.6,4.7c-2,0.4-3.2-1.3-3.9-2.5c-1.2-2-2.4-4.9-2.5-6.7
		c0-1.2,0.2-2.7,0.4-4C120.9,57.8,121,57.7,121,57.7z M24.7,58.6v162.7c0,0,11.1-11.4,16.3-17l-5.4-0.1v-30.8
		c-1.8-0.2-4.7,0-5.9-1.2c-0.7-1.1,2.1-3.2,3.6-2.7c1,0.3,2.2,0.1,2.2,0.1v-34.3c0.1-0.2,6.1,9.3,9.6,21.1c-1.1,0.8-2.2,1.3-2.4,1.5
		c1.4,3.5,2.4,8.9,0.4,13.6l-1.4-0.8c1.1-3,1.4-7.2-0.3-11.1l-0.4,0.4c1.4,3.1,1.8,6.7,0,11.1c4,1.6,7.1,4.2,10.6,5.9
		c0.2,0.1,0.6,0.4,0.6,0.4c-1.4,0.8-2.7,1.7-2.6,3.1c0,2,1.1,2.8,3.5,2.7c0.5,0,0.8,0,0.8,0c1.5,3,2.8,6.2,4,9.3
		c0.8-4,1.4-8,3.1-11.3c-0.1-0.1-2-1-2.9-1.3c-3.4-1.4-5-2.3-4.4-2.5c0.4-0.1,0.5-0.4,0.6-1.1c0.2-1.3,0.1-2.8,0.1-2.8L54,172
		l0.9-0.7c0,0,0.1-0.5,0.2-1.7c0.2-1.9,0-3.1,0-3.1l-0.9-1.1l0.9-1.1l0.2-5l-1.2-0.9l1.1-1.1l-0.4-4.5c0,0,0.1-0.4,0.3-0.6
		c-1.9-19.2-8.9-38.5-19.6-51.6V69.2L24.7,58.6z M78.6,58.6c0.9,0,1,0.4-0.1,1.1c-2.2,1.3-3.4,3.9-2.7,5.9c0.3,1,0.6,1.4,0.3,1.4
		c-0.6,0-1-0.6-1.3-1c-1.4-2-0.2-6.3,2.6-7.2C77.9,58.7,78.3,58.7,78.6,58.6z M80.7,59.5c0.3,0,0.6,0.1,1.1,0.3
		c0.3,0-0.1,0.3-0.7,0.7c-2.1,1.2-3.6,3.5-3.2,5.5c0.2,1.3,0.6,2,0.3,2c-0.1,0-0.5,0.1-0.8-0.2c-1.2-1.2-1.4-4.4-0.2-6
		c0.5-0.8,2.2-2.1,2.7-2.3C80.1,59.6,80.4,59.5,80.7,59.5z M26.1,60.3l8.9,9.2v99.6l-1.9,0.1v-99l-7-7.4L26.1,60.3z M83,60.6
		c0.5,0,0.8,0.3,0.7,0.7c-2,0.8-3.8,2.9-3.6,5.8c0.1,1,0.4,1.6,0.2,1.6c-0.1,0-0.6-0.2-0.9-0.6c-1.8-2.2-0.3-6,2.5-7.3
		C82.3,60.7,82.7,60.6,83,60.6z M85.3,61.8c0.6,0,1.1,0.2,1.1,0.6c0,0.3-0.1,0.4-0.3,0.4c-2.2,0-4.5,3-3.8,6.3
		c0.1,0.5,0.2,1.1,0.1,1.2c-0.1,0-0.3-0.1-0.6-0.4c-1.9-1.9-0.9-6.2,1.7-7.5C83.9,61.9,84.7,61.8,85.3,61.8z M120,63.9
		c0.3,0.1,0.7,1.2,1.4,3c0.2,0.6,1.9,3.3,1.6,3.3c-2.5-1-4-2.4-3.6-4.8C119.7,64.5,119.8,63.8,120,63.9L120,63.9z M150,66.7
		c0.7,0,1.2,0.5,1.2,1.2c0,0.7-0.5,1.2-1.2,1.2s-1.2-0.5-1.2-1.2C148.8,67.2,149.3,66.7,150,66.7z M118.6,67.4
		c0.1,0.3,0.1,0.5,0.4,0.9l-0.7-0.3L118.6,67.4z M76.8,68.6c1.6,0,2.1,0.5,2.4,2.3c0.2,1.3,0.3,1.4,2.5,1.3c2.7-0.1,2.9,0.1,3.2,2.5
		c0.3,2.1,0.6,2.3,2.9,1.8c1.7-0.3,2.6,0.4,2.8,2.4c0.2,2.2,0.3,2.2,2.8,2.3c2.4,0.1,3.1,0.5,3.1,2c0,2.3,0.3,2.5,3.3,2.4
		c1.4,0,2.9,0,3.8,0.1c1.8,0.2,1.8,0.2,2-1.5c0.3-2.6,0.7-2.8,4.1-2.6c1.4,0.1,1.5,0,1.6-1.1c0.1-1.4,0.6-2.2,1-1.7
		c0.2,0.3,0.2,0.3,0,2.3c-0.2,2.2-0.3,2.3-3.2,2c-2-0.2-1.9-0.2-2.1,1.6c-0.3,2.2-0.2,2.7-2.8,2.7c-2.4,0-4.3-0.1-6.8-0.2
		c-1.8,0-2.4-0.6-2.5-2.6c0-1.8,0-1.8-2.3-1.9c-2.8-0.1-3.5-0.8-3.6-3.5c0-1-0.8-1.4-2.5-1.2c-2.6,0.4-3.1,0-3.4-2.4
		c-0.2-2-0.1-1.9-2.5-1.9c-2.5,0-3.1-0.4-3.1-2.4c0-1.1-0.3-1.5-1.3-1.6c-1-0.1-1.5-0.6-1-1.2C75.5,68.7,76,68.6,76.8,68.6
		L76.8,68.6z M28.4,68.9c0.1,0,0.3,0.9,0.4,0.9c0.1,0.1,1,0.3,1,0.4c0,0.1-0.9,0.3-0.9,0.4c-0.1,0.1-0.3,1-0.4,1
		c-0.1,0-0.3-0.9-0.4-0.9c-0.1-0.1-1-0.3-1-0.4c0-0.1,0.9-0.3,0.9-0.4C28,69.8,28.2,68.9,28.4,68.9z M151.4,69.8
		c0.7,0,1.2,0.5,1.2,1.2c0,0.7-0.5,1.2-1.2,1.2s-1.2-0.5-1.2-1.2C150.3,70.3,150.8,69.8,151.4,69.8z M148.2,69.9
		c0.7,0,1.2,0.5,1.2,1.2c0,0.7-0.5,1.2-1.2,1.2c-0.7,0-1.2-0.5-1.2-1.2C147,70.4,147.5,69.9,148.2,69.9z M26.9,71.4
		c0.1,0,0.3,0.8,0.4,0.9c0.1,0.1,1,0.3,1,0.4c0,0.1-0.9,0.3-0.9,0.4c-0.1,0.1-0.3,1-0.4,1c-0.1,0-0.3-0.9-0.4-0.9
		c-0.1-0.1-1-0.3-1-0.4c0-0.1,0.9-0.3,0.9-0.4C26.6,72.3,26.8,71.4,26.9,71.4z M30.1,71.4c0.1,0,0.3,0.8,0.4,0.9
		c0.1,0.1,1,0.3,1,0.4c0,0.1-0.9,0.3-0.9,0.4c-0.1,0.1-0.3,1-0.4,1c-0.1,0-0.3-0.9-0.4-0.9c-0.1-0.1-1-0.3-1-0.4
		c0-0.1,0.9-0.3,0.9-0.4C29.8,72.3,30,71.4,30.1,71.4z M75.3,72.3l25.8,19.9l11-7.8l-0.1,2.8l-11,7.7L75.2,75L75.3,72.3z M150,72.9
		c0.7,0,1.2,0.5,1.2,1.2c0,0.7-0.5,1.2-1.2,1.2s-1.2-0.5-1.2-1.2C148.9,73.4,149.4,72.9,150,72.9z M126.4,73.1
		c1.2,0.2,2.4,1,3.5,1.6l2.2,4.3l-2.6,2.2l2.6,3l-2.7,3.3l2.7,1.9l-3,4.6l-3.4,1.6l3.7-5.6l-2.9-2l2.8-3.8l-2.9-3.5l2.9-2.5
		L126.4,73.1z M125.8,73.3l2.5,4.8l-2.9,2.6l3,3.6l-2.8,3.8l2.9,2.1l-4.1,6l-0.1-3l1.5-2.2l-1.6-1.4h0l0-3.5l1.7-1.8l-1.5-2l0.5-3.8
		l1.2-0.9l-0.9-1.8l0.3-2.2L125.8,73.3z M28.4,74.4c0.1,0,0.3,0.9,0.4,0.9c0.1,0.1,1,0.3,1,0.4c0,0.1-0.9,0.3-0.9,0.4
		c-0.1,0.1-0.3,1-0.4,1c-0.1,0-0.3-0.9-0.4-0.9c-0.1-0.1-1-0.3-1-0.4c0-0.1,0.9-0.3,0.9-0.4C28,75.3,28.2,74.4,28.4,74.4z
		 M153.5,74.9v2.6l-6.8,6.4v-2.7L153.5,74.9z M32.1,75.9V79l-5.8,5.6v-3.2L32.1,75.9z M153.5,78.4v2.8l-6.8,6.4v-2.9L153.5,78.4z
		 M32.1,79.9v2.5l-5.8,5.7v-2.6L32.1,79.9z M75.5,80.1l9.2,6.9l0,23.1c-2.9-2-5.7-4-9.1-5.9L75.5,80.1z M85.4,87.6l1.8,1.4l0,23.5
		l-1.7-1.5L85.4,87.6z M150.1,88c0.7,0,1.2,0.5,1.2,1.2c0,0.7-0.5,1.2-1.2,1.2s-1.2-0.5-1.2-1.2C148.9,88.5,149.4,88,150.1,88z
		 M28.9,89.3c0.7,0,1.2,0.5,1.2,1.2c0,0.7-0.5,1.2-1.2,1.2s-1.2-0.5-1.2-1.2C27.7,89.8,28.2,89.3,28.9,89.3z M88,90.3l4.8,5
		l-4.8,4.9l-0.1-2.4l2.8-2.4L88,92.8L88,90.3z M151.5,90.9c0.7,0,1.2,0.5,1.2,1.2c0,0.7-0.5,1.2-1.2,1.2s-1.2-0.5-1.2-1.2
		C150.3,91.4,150.8,90.9,151.5,90.9z M148.3,90.9c0.7,0,1.2,0.5,1.2,1.2c0,0.7-0.5,1.2-1.2,1.2s-1.2-0.5-1.2-1.2
		C147.1,91.4,147.6,90.9,148.3,90.9z M91,92.1l2.8,2.1l-0.6,0.7c0,0-1.8-2-2.5-2.7L91,92.1z M30.6,92.3c0.7,0,1.2,0.5,1.2,1.2
		c0,0.7-0.5,1.2-1.2,1.2c-0.7,0-1.2-0.5-1.2-1.2C29.4,92.8,29.9,92.3,30.6,92.3z M111.9,92.4c-0.1-0.1,0.9,16.2,3.7,24.9l-11,7.3
		l0-26.9L111.9,92.4z M27.4,92.5c0.7,0,1.2,0.5,1.2,1.2c0,0.7-0.5,1.2-1.2,1.2c-0.7,0-1.2-0.5-1.2-1.2C26.3,93,26.8,92.5,27.4,92.5z
		 M150,93.9c0.7,0,1.2,0.5,1.2,1.2s-0.5,1.2-1.2,1.2s-1.2-0.5-1.2-1.2S149.4,93.9,150,93.9z M94.3,94.7l4.5,3.5l0,2.4l-5.1-5.2
		L94.3,94.7z M28.9,95.4c0.7,0,1.2,0.5,1.2,1.2c0,0.7-0.5,1.2-1.2,1.2s-1.2-0.5-1.2-1.2C27.7,95.9,28.2,95.4,28.9,95.4z M93.3,95.8
		l5.1,5.4l-5.2,5.3l-5.1-5.3L93.3,95.8z M131.9,96.3l-5.2,2.6c2.5,20.3,8.3,31.6,14.3,41.4l0-24.9
		C137.4,109.4,133.8,103.2,131.9,96.3z M153.5,96.4V99l-6.7,6.5v-2.8L153.5,96.4z M32.1,97.5v2.8l-5.8,5.8v-2.9L32.1,97.5z
		 M93.2,97.9l-3.3,3.2l3.3,3.4l3.3-3.3L93.2,97.9z M99.5,98.8l1.4,0.9l-0.1,27.4l-1.1,0.5L99.5,98.8z M92,100.1h2.2v2.2H92V100.1z
		 M153.5,100.1v2.5l-6.7,6.5v-2.8L153.5,100.1z M55.1,100.8c11.4-0.2,22.1,4.4,28.9,10c3.5,2.9,6.4,6.5,9.9,11.7
		c6.7,10.5,18.6,15.6,29.6,15.7l0.9,1.4l-1.8-0.1c0,0-0.2,1.3-0.2,3.6c0,2.5,0,3,0.2,3.1c1.3,0.2,5.4,0.1,5.2-0.1l0.8,1.5
		c-13.2,1.4-26.1-3.2-34.3-10.6c-6.4-5.5-11.3-13.9-16.6-18.6c-2.2-1.9-7.5-4.8-10.4-5.8c-3.3-1-5.8-1.5-9.1-1.5
		c-2.6,0-2.6-0.1-2.6-0.1l-1.1-2l1.8,0l0.1-6.9c-1.9-0.1-3.8,0-5.6,0.2l-0.7-1.3C51.8,101,53.4,100.9,55.1,100.8z M32.1,101.1v2.8
		l-5.8,6v-3L32.1,101.1z M98.8,101.9l0,2.6L96,107l2.9,3l-0.1,2c-1.8-1.5-3.4-3.4-5.1-5.1L98.8,101.9z M59.1,102.3
		c-0.5,0-0.9,0.1-0.9,0.3c-0.1,1.4-0.2,4.7-0.2,5.8c0,0.4,0,0.7,0.4,0.8c2.3,0.3,4.9,0.9,6.2,0.9c0.5,0,0.5-0.5,0.8-2.1
		c0.1-0.3,0.3-1.3,0.5-2c0.7-2.4,0.7-2.4-1.3-2.8C63.8,103,60.7,102.3,59.1,102.3z M88,102.3l4.6,4.7l-4.6,4.4l0-2.1l2.2-2.2
		l-2.2-2.4L88,102.3z M35.6,102.4c10.6,15.1,16.8,32.8,18.6,49.5c0,0-5.6,2.5-8.3,4.1c-3-6.9-1.9-7.9-10.2-22V102.4z M62.9,103.7
		l0.9,0.9l1.1,0l-0.4,1.5l0.7,0.7l-1,0.5l-0.1,1.3l-1.1-0.7l-1,1l-0.5-1.1l-1.1,0.4l0-1.4l-1-0.6l1.2-0.6l0.1-1.7l1.2,0.4
		L62.9,103.7z M52.7,103.8l1,0.5l1.1-0.4l-0.2,1.4l0.9,0.7l-0.9,0.8l0,1l-1-0.3l-1.5-2.5L52.7,103.8z M68.9,104.4
		c-0.3,0-0.4,0.3-0.5,0.6c-0.1,0.2-0.3,1.2-0.6,2.2c-1.1,3.5-1.4,3.3,0.2,3.9c0.5,0.2,2.3,0.8,3.4,1.3c1.1,0.5,1.6,0.9,1.9,0.9
		c0.8-0.5,2.8-4.5,3.2-5.4c0-0.2-1-0.8-2.2-1.4c-1.1-0.5-4.5-1.9-4.8-2C69.1,104.5,69,104.4,68.9,104.4z M70.2,106.1l1.2,0.7
		l0.9-0.4l0.6,1.2l1.4,0.1l-0.8,1.3l0.7,1l-1,0.1l-0.8,1.4l-1-0.9l-0.9,0.5l-0.5-0.9l-1.2-0.2l0.5-1.3l-0.7-1l1.2-0.2L70.2,106.1z
		 M93.2,107.5l5.3,5.6l-4.9,4.7l-5.5-5.3L93.2,107.5z M78.5,108.9c-0.2,0-0.3,0.1-0.4,0.3c-3.5,5.2-3.6,5.1-2.3,6.1
		c1.4,1.1,3,2.7,4.2,3.2c0.5,0.2,0.6,0.1,1-0.3c1.1-1,3.6-3.8,3.6-4.3c0-0.5-3.4-3.4-5.4-4.7C78.9,109,78.7,108.9,78.5,108.9z
		 M150.2,109.1c0.7,0,1.2,0.5,1.2,1.2c0,0.7-0.5,1.2-1.2,1.2s-1.2-0.5-1.2-1.2C149,109.6,149.5,109.1,150.2,109.1z M93.3,109.7
		l-3,2.9l3.2,3.4l3.1-2.9L93.3,109.7z M38.2,109.8v24.2c3.4,5.4,6,12,8.6,18.5l5-2C49.9,133.3,44.8,120.3,38.2,109.8z M28.9,110.2
		c0.7,0,1.2,0.5,1.2,1.2c0,0.7-0.5,1.2-1.2,1.2s-1.2-0.5-1.2-1.2C27.8,110.8,28.3,110.2,28.9,110.2z M79.2,110.8l1.1,1.1l1.3-0.1
		l-0.1,1.2l1.1,0.5l-0.7,0.8l0.4,1.1l-1.3-0.2l-0.8,1l-0.9-0.8l-1.1,0.3l-0.3-1.1l-1.1-0.4l0.6-1.1l-0.1-1.4l1.1,0.2L79.2,110.8z
		 M92.3,111.7h2.2v2.2h-2.2V111.7z M148.3,112.2c0.7,0,1.2,0.5,1.2,1.2c0,0.7-0.5,1.2-1.2,1.2s-1.2-0.5-1.2-1.2
		C147.1,112.7,147.7,112.2,148.3,112.2z M151.8,112.2c0.7,0,1.2,0.5,1.2,1.2c0,0.7-0.5,1.2-1.2,1.2s-1.2-0.5-1.2-1.2
		C150.6,112.7,151.1,112.2,151.8,112.2z M30.5,113.5c0.7,0,1.2,0.5,1.2,1.2c0,0.7-0.5,1.2-1.2,1.2s-1.2-0.5-1.2-1.2
		C29.4,114,29.9,113.5,30.5,113.5z M27.3,113.5c0.7,0,1.2,0.5,1.2,1.2c0,0.7-0.5,1.2-1.2,1.2s-1.2-0.5-1.2-1.2
		C26.1,114,26.6,113.5,27.3,113.5z M98.9,114l0,2.1l-2.7,2.6l2.6,2.7l0,1.6l-4.7-4.5L98.9,114z M69.2,114.3l1.9,1l-10.8,6.9l-0.7-2
		L69.2,114.3z M150.2,115.1c0.7,0,1.2,0.5,1.2,1.2c0,0.7-0.5,1.2-1.2,1.2c-0.7,0-1.2-0.5-1.2-1.2C149,115.6,149.5,115.1,150.2,115.1
		z M89.7,115.1l3.4,3.4l-0.4,0.5L89.7,115.1z M86.2,115.4l-0.1,0c-0.2,0-0.4,0.2-0.8,0.6c-0.8,0.9-3.6,3.3-3.5,4
		c0.2,0.7,1.1,1.6,3.6,4.9c0.3,0.4,0.5,0.6,0.7,0.6c0.2,0,0.4-0.1,0.6-0.3c0.2-0.2,0.8-0.6,1.3-0.9c1.8-1.2,3.3-2.3,3.4-2.4
		c0.1-0.3-1.6-2.7-4.1-5.5C86.7,115.7,86.5,115.4,86.2,115.4z M28.9,116.6c0.7,0,1.2,0.5,1.2,1.2c0,0.7-0.5,1.2-1.2,1.2
		c-0.7,0-1.2-0.5-1.2-1.2C27.7,117.1,28.2,116.6,28.9,116.6z M153.5,116.8v2.8l-6.5,6.2v-2.8L153.5,116.8z M86.7,117.5l0.7,1.3
		l1.4,0l-0.2,1.2l1,0.8l-1.1,0.6l-0.1,1.1l-0.9-0.1l-1,1l-0.7-1.3l-1.1,0.2l0.1-1.2l-0.9-0.7l0.9-1.3l-0.1-0.9l1.1,0.2L86.7,117.5z
		 M116,118.5l0.5,1.3l-14.8,9.6l-1.2-0.9L116,118.5z M32.1,118.7v3.1l-5.8,5.5v-2.9L32.1,118.7z M93.7,119.1l4.8,4.7l-1.4,1.4
		l-3.9-5.6L93.7,119.1z M77.2,119.2l1.3,1.5l-15.5,10l-0.6-1.8L77.2,119.2z M153.5,120.5v3.1l-6.5,6.2v-3L153.5,120.5z M79.6,121.2
		l-0.1,28.9l-1.2-0.6l0-27.6L79.6,121.2z M80,122.3l0.7,0.6l-0.5,0.5L80,122.3z M32.1,122.7v3.3l-5.8,5.8v-3.6L32.1,122.7z
		 M81.3,123.4l4.3,5.8l-0.2,0.2l-5.1-4.9L81.3,123.4z M92.5,123.4c-0.4,0.1-1.1,0.5-2.6,1.6c-2.9,2.1-2.9,1.8-0.2,5.2
		c1.5,2,2.3,3.2,2.9,3.2c0.5,0,1-0.6,1.9-1.6c0.9-1,2-2.2,2.3-2.3c0.7-0.5,0.7-0.6-0.6-2.1c-0.4-0.4-1.1-1.3-1.6-2
		c-0.5-0.7-1.3-1.5-1.5-1.7C92.9,123.5,92.7,123.4,92.5,123.4z M74.3,124.4l-0.1,27.4l-7.3,4.7c-0.8-9.5-1.4-16-3.8-25L74.3,124.4z
		 M98.7,125l0,2l-1.1-1L98.7,125z M80.1,125.1l4.9,5l-5,5l0-2.1l2.8-2.7l-2.8-2.9L80.1,125.1z M92.3,125.4l0.8,1l1-0.1l0,1.2l1,0.6
		l-0.7,0.8l0,1.3l-1.4,0.1l-0.7,0.6l-0.7-1l-1.2,0.1l0.2-1.2l-0.6-0.5l0.6-0.9l0.1-1.1l1,0.2L92.3,125.4z M118.5,126.5l0.6,1.8
		l-9.5,6.2l-1.8-0.9L118.5,126.5z M86.3,130l1.7,2.3l-1.9-2.1L86.3,130z M150.3,130.3c0.7,0,1.2,0.5,1.2,1.2c0,0.7-0.5,1.2-1.2,1.2
		s-1.2-0.5-1.2-1.2C149.1,130.8,149.6,130.3,150.3,130.3z M98.7,130.4c-0.4,0-0.9,0.7-2.4,2.2c-1.5,1.5-2.5,2-1.9,2.8
		c1.5,1.3,2.6,2.2,4.2,3.4c1,0.8,1.6,1.1,1.9,1.1c0.3,0,0.5-0.3,0.8-0.9c0.1-0.2,0.8-1.5,1.4-2.5c1.4-2.2,1.4-2.1,0-3
		c-0.6-0.4-2-1.5-3.1-2.6C99.2,130.6,98.9,130.4,98.7,130.4L98.7,130.4z M85.4,130.7l5.5,5.4l-5,5l-5.5-5.4L85.4,130.7z M28.9,131.7
		c0.7,0,1.2,0.5,1.2,1.2s-0.5,1.2-1.2,1.2c-0.7,0-1.2-0.5-1.2-1.2S28.3,131.7,28.9,131.7z M98.9,132.1l0.7,0.7l1.4-0.1l0.2,1.2
		l0.6,0.5l-0.5,0.8l0.3,1.1l-1.2,0.1l-0.7,0.8l-0.9-0.7l-1.1,0.5l-0.1-1.3l-1-0.5l0.6-0.9l-0.4-1.2l1,0L98.9,132.1z M85.3,132.8
		l-3,3.1l3.4,3.4l3.2-3.2L85.3,132.8z M148.6,133.4c0.7,0,1.2,0.5,1.2,1.2s-0.5,1.2-1.2,1.2s-1.2-0.5-1.2-1.2
		S147.9,133.4,148.6,133.4z M152,133.5c0.7,0,1.2,0.5,1.2,1.2s-0.5,1.2-1.2,1.2s-1.2-0.5-1.2-1.2S151.4,133.5,152,133.5z
		 M30.5,134.7c0.7,0,1.2,0.5,1.2,1.2s-0.5,1.2-1.2,1.2s-1.2-0.5-1.2-1.2S29.9,134.7,30.5,134.7z M27.3,134.8c0.7,0,1.2,0.5,1.2,1.2
		c0,0.7-0.5,1.2-1.2,1.2s-1.2-0.5-1.2-1.2C26.2,135.4,26.7,134.8,27.3,134.8z M84.4,134.9h2.2v2.2h-2.2V134.9z M105.5,135.5
		c-0.3,0-0.5,0.4-0.9,1c-0.3,0.6-1,2-1.4,2.7c-1.1,1.8-1.1,1.7,0.9,2.7c1.2,0.6,1.9,0.8,4.4,1.8c0.7,0.3,1.1,0.5,1.5,0.5
		c0.6,0,0.7-1.2,1.4-3.4c1-3.1,1-2.8-0.8-3.4c-0.8-0.3-2.4-0.8-3.2-1.2C106.3,135.7,105.8,135.5,105.5,135.5z M150.3,136.4
		c0.7,0,1.2,0.5,1.2,1.2c0,0.7-0.5,1.2-1.2,1.2s-1.2-0.5-1.2-1.2C149.1,136.9,149.6,136.4,150.3,136.4z M92.1,136.5l1.7,1.5
		l0.1,23.5l-1.7-1.3L92.1,136.5z M91.3,136.6l0.1,2.4c-0.9,0.8-2.1,1.8-2.9,2.8l2.9,3l0,1.8l-5-5L91.3,136.6z M79.9,136.6l5.5,5.1
		l-5.5,5.5l0.2-2.5l2.9-2.9l-3.1-3L79.9,136.6z M106.2,137.1l1,0.7l1.1-0.4l0.3,0.8l1.1,0.5l-0.4,0.9l0.5,1.2l-1.2,0.1l-0.6,1.3
		l-0.9-0.6l-1,0.4l-0.2-1.1l-1.1-0.4l0.3-1l-0.5-0.8l0.9-0.2L106.2,137.1z M28.8,137.7c0.7,0,1.2,0.5,1.2,1.2s-0.5,1.2-1.2,1.2
		c-0.7,0-1.2-0.5-1.2-1.2S28.1,137.7,28.8,137.7z M114.5,138.6c-0.8,0-0.6,0.4-1,1.3c-0.4,1.1-0.6,2.1-1.1,3.7
		c-0.4,1.5-0.2,1.5,2.6,2c2,0.4,4,0.6,4.9,0.6c0.3,0,0.5,0,0.5-0.1c0.1-0.1,0-1.2,0.3-5.1c0.1-1.4,0.2-1.4-1-1.6
		c-1,0-3.3-0.6-4.8-0.8C114.7,138.6,114.6,138.6,114.5,138.6z M153.4,138.8v2.8l-6.1,5.8v-2.8L153.4,138.8z M94.8,138.9
		c3.4,2.6,6.2,4.2,8.8,5.5l-0.4,24.4l-8.5-6.7L94.8,138.9z M116.7,139.7l0.7,0.9l1,0l-0.1,1.2l0.7,0.6l-0.8,0.7l0.1,1.1l-1.2-0.2
		l-0.8,0.9l-0.5-0.9l-1.3-0.2l0.2-0.9l-0.7-0.9l0.8-0.6l0-1.1l1,0L116.7,139.7z M32.1,139.8v3l-5.8,5.9v-3.1L32.1,139.8z
		 M124.9,141.1l1.8,3.5l-1.2-0.5l-0.9,0.6l-0.3-1.3l-0.8-0.5l0.8-0.6l0-0.9L124.9,141.1z M85.8,142.2l5.3,5.1l-5.6,5.4l-5.1-5.1
		L85.8,142.2z M153.4,142.3v3.1l-6.1,5.8v-2.9L153.4,142.3z M32.1,143.8v2.7l-5.8,5.7v-2.7L32.1,143.8z M85.6,144.3l-3.2,3.2
		l3.2,3.2l3.3-3.2L85.6,144.3z M84.5,146.4h2.2v2.2h-2.2V146.4z M91.4,148.2l0,2.4l-3,2.9l3,3.1l-0.2,1.6l-5.2-4.9L91.4,148.2z
		 M80,148.5l4.9,4.8l-0.8,0.8l-4.1-3.2L80,148.5z M150.3,151.5c0.7,0,1.2,0.5,1.2,1.2c0,0.7-0.5,1.2-1.2,1.2s-1.2-0.5-1.2-1.2
		C149.1,152.1,149.6,151.5,150.3,151.5z M28.8,152.8c0.7,0,1.2,0.5,1.2,1.2s-0.5,1.2-1.2,1.2s-1.2-0.5-1.2-1.2
		S28.1,152.8,28.8,152.8z M53.2,153.5l-4.1,5.4l3.4,2.3l-3.2,3.5l2.9,3.8l-3,2.3l3.2,5.3l-0.2,0.3l-3.1-1.6l-2.9-4.8l2.9-2.1
		l-2.7-3.4l2.9-2.9l-3.2-2l2.9-4.1L53.2,153.5z M85.6,153.7l3.7,4l-4.3-3.2L85.6,153.7z M54.3,153.9l0,2.6l-1.4,1.7l1.6,1.1l0,3.6
		l-1.7,1.8l1.5,1.6l-0.3,4l-1.5,1.2l1.2,1.7l-0.4,2.4c-0.1-0.2-0.4-0.2-0.5-0.4c-1-1.5-2.7-4.1-2.7-4.1l3-2.4l-2.8-3.7l3.5-3.6
		l-3.6-2.4C50.4,158.8,52.6,155.4,54.3,153.9L54.3,153.9z M152,154.6c0.7,0,1.2,0.5,1.2,1.2c0,0.7-0.5,1.2-1.2,1.2s-1.2-0.5-1.2-1.2
		C150.8,155.1,151.4,154.6,152,154.6z M77.7,154.6c0.4,0,0.8,0.2,1.1,0.4c8,6.4,16.3,12.6,24.4,18.9l0,1.9l-21.7-16.3
		c0,0-2-1.5-2.6-1.9c-1.2-0.8-1.5-0.5-2.7,0.4c-2.7,1.6-9.4,6.2-9.4,6.2l0.1-2.3c0,0,6.7-5,10.4-7.1
		C77.5,154.7,77.6,154.6,77.7,154.6z M148.5,154.7c0.7,0,1.2,0.5,1.2,1.2c0,0.7-0.5,1.2-1.2,1.2s-1.2-0.5-1.2-1.2
		C147.4,155.2,147.9,154.7,148.5,154.7z M30.7,155.7c0.7,0,1.2,0.5,1.2,1.2s-0.5,1.2-1.2,1.2s-1.2-0.5-1.2-1.2
		S30.1,155.7,30.7,155.7z M27.4,155.9c0.7,0,1.2,0.5,1.2,1.2s-0.5,1.2-1.2,1.2s-1.2-0.5-1.2-1.2S26.7,155.9,27.4,155.9z
		 M150.3,157.5c0.7,0,1.2,0.5,1.2,1.2s-0.5,1.2-1.2,1.2s-1.2-0.5-1.2-1.2S149.6,157.5,150.3,157.5z M153.7,160.1v3.2l-6.4,6.1V166
		L153.7,160.1z M32.1,160.9v3l-5.8,5.7v-3L32.1,160.9z M73.5,161.1c0.7,0,1.7,0.1,2.2,0.2c0.2,0.1,1.8,0.1,3.7,0.1
		c4.4,0,4.5-0.1,4.5,3.1c0,1.3,0.3,1.6,2.6,1.5c2.9-0.1,2.8-0.2,3.3,3.4c0.2,1.2,0.3,1.3,2.7,1.2c2.6,0,3.2-0.1,3.1,2.2
		c-0.1,2,0.4,2.6,2.5,2c2.3-0.5,2.8,0.5,3,2.3c0.2,1.7,0.4,1.3,1.5,1.3c1.2,0.1,1.1,1.5-0.2,1.6c-0.2,0-0.4,0.1-0.6,0.1
		c-1.3,0-1.7-0.6-1.9-2.5c-0.1-1.4-0.4-1.5-2.6-1.1c-2.2,0.4-3-0.2-3.2-2.6c-0.1-1.8-0.1-1.8-2.7-1.9c-2.5,0-2.8-0.3-3.1-2.9
		c-0.2-1.9-0.1-1.9-2.6-1.8c-2.7,0-3-0.2-3.2-2.6c-0.1-2-0.3-2.1-2-2c-1.7,0.1-4.8,0.2-5.4,0c-1.5-0.3-1.5-0.3-1.8,1.7
		c-0.4,2.6-0.9,2.9-4.1,2.6c-1.6-0.2-1.7-0.1-2,1.3c-0.3,1.8-0.7,2.4-0.7,0.8c0-4,0.3-4.2,3-3.5c2,0.5,2,0.1,2.3-1.8
		c0.2-1.7,0.5-2.4,1.1-2.7C73.1,161.2,73.3,161.1,73.5,161.1z M153.7,164.1v3l-6.4,6.1v-3.1L153.7,164.1z M78,164.5
		c0,0,9.9,7.7,14.6,11.4l-2.3,0.6L78,167.2l-11.7,7.8l0.1-2.9L78,164.5z M32.1,164.8v2.5l-5.8,5.9v-2.9L32.1,164.8z M150.5,172.3
		c0.1,0,0.3,0.8,0.4,0.9c0.1,0.1,1,0.3,1,0.4c0,0.1-0.9,0.3-0.9,0.4c-0.1,0.1-0.3,1-0.4,1c-0.1,0-0.3-0.9-0.4-0.9
		c-0.1-0.1-1-0.3-1-0.4c0-0.1,0.9-0.3,0.9-0.4C150.1,173.2,150.4,172.3,150.5,172.3z M33.1,173.9L35,174v29.9h-1.9V173.9z
		 M28.9,173.9c0.7,0,1.2,0.5,1.2,1.2s-0.5,1.2-1.2,1.2c-0.7,0-1.2-0.5-1.2-1.2S28.3,173.9,28.9,173.9z M149,174.8
		c0.1,0,0.3,0.8,0.4,0.9c0.1,0.1,1,0.3,1,0.4c0,0.1-0.9,0.3-0.9,0.4c-0.1,0.1-0.3,1-0.4,1c-0.1,0-0.3-0.9-0.4-0.9
		c-0.1-0.1-1-0.3-1-0.4c0-0.1,0.9-0.3,0.9-0.4C148.7,175.7,148.9,174.9,149,174.8z M152.2,174.8c0.1,0,0.3,0.8,0.4,0.9
		c0.1,0.1,1,0.3,1,0.4c0,0.1-0.9,0.3-0.9,0.4c-0.1,0.1-0.3,1-0.4,1c-0.1,0-0.3-0.9-0.4-0.9c-0.1-0.1-1-0.3-1-0.4
		c0-0.1,0.9-0.3,0.9-0.4C151.9,175.7,152.1,174.9,152.2,174.8z M92.3,176.7c3.2-0.1,5.5,4.1,3.2,7.2c-2.1,2.8-5.4,2.8-6.4-0.1
		c-0.8-2.4,1.8-5.3,3.9-4.4c1.5,0.6,1.1,3.3-0.6,3.9c-0.7,0.3-1.3-0.6-0.9-1.4c0.3-0.6,0.3-1-0.1-0.7c-1.5,1.1-0.4,3.6,1.5,2.6
		c2.5-1.3,2-4.9-0.4-5.1c-3.1-0.3-5.6,3.6-7.1,10.9c-1.7,8.3-1.3,15.6-2.9,22.1l-1.4,0c0.2-4,1-6.7,1.3-11.4
		c0.3-5.7,1.3-12.8,3.8-18.7c0.9-2,2.5-3.8,4.7-4.7C91.4,176.8,91.9,176.7,92.3,176.7L92.3,176.7z M30.6,177.1
		c0.7,0,1.2,0.5,1.2,1.2s-0.5,1.2-1.2,1.2s-1.2-0.5-1.2-1.2S29.9,177.1,30.6,177.1z M27.3,177.2c0.7,0,1.2,0.5,1.2,1.2
		c0,0.7-0.5,1.2-1.2,1.2s-1.2-0.5-1.2-1.2C26.1,177.7,26.6,177.2,27.3,177.2z M52.9,177.8c1.3,0,2.6,1.3,3.8,3.7
		c1.9,3.8,2.4,6.6,1.5,8.1l-0.1,0.1c-0.3,0-0.8-1-1.6-3.1c-0.8-2-2-4.6-2.3-4.7c-0.1,0-0.4,0.1-0.8,0.3c-2.6,1.4-4.4-2.5-1.9-4
		C52,177.9,52.4,177.8,52.9,177.8z M150.5,177.8c0.1,0,0.3,0.9,0.4,0.9c0.1,0.1,1,0.3,1,0.4c0,0.1-0.9,0.3-0.9,0.4
		c-0.1,0.1-0.3,1-0.4,1c-0.1,0-0.3-0.9-0.4-0.9c-0.1-0.1-1-0.3-1-0.4c0-0.1,0.9-0.3,0.9-0.4C150.1,178.7,150.4,177.8,150.5,177.8z
		 M97.3,179.1c0.3,0.1,0.9,0.7,1.3,1.5c0.9,1.8-0.8,5.3-3.1,6.4c-0.5,0.2-1,0.3-1.5,0.3c-1,0-1.7-0.4-0.7-0.9c3.1-1.6,4.4-4,3.8-6.9
		c0-0.2,0-0.4,0.1-0.4L97.3,179.1z M57.1,179.7c0.5,0,1.4,0.4,1.8,0.8c0.7,0.8,1,2.6,0.5,3.6c-0.1,0.3-0.3,0.5-0.4,0.5
		c-0.7-1.7-1.4-3.3-2.2-4.8C56.8,179.7,56.9,179.7,57.1,179.7z M29.1,180.1c0.7,0,1.2,0.5,1.2,1.2s-0.5,1.2-1.2,1.2
		c-0.7,0-1.2-0.5-1.2-1.2S28.4,180.1,29.1,180.1z M99.7,180.2c0.2,0,0.6,0.3,1,1c1.6,2.3-1.6,7.4-4.1,7.5c-0.3,0-0.6,0-0.9-0.2
		c-0.7-0.3-0.6-0.6,0.5-1.2c1.1-0.6,1.5-1,2.1-2c1-1.4,1.1-2,1.1-3.9C99.4,180.7,99.5,180.3,99.7,180.2z M101.9,181.6
		c0.1,0,0.2,0,0.4,0.2c2.3,1.7-0.2,7.8-3.2,8.1l-0.2,0c-1.2,0-1.3-0.6-0.3-1.3c2-1.4,3.3-3.8,3.3-6
		C101.7,181.9,101.7,181.7,101.9,181.6z M103.8,182.2c0.1,0,0.3,0.2,0.7,0.6c1.6,1.6,0.5,6-2.6,7.7c-0.4,0.2-0.8,0.3-1.1,0.3
		c-0.7,0-1-0.5-0.2-1c2-1.3,3.2-3.7,3.1-6.2C103.6,182.6,103.6,182.1,103.8,182.2z M105.8,183.2c0.2,0,0.4,0.2,0.9,0.5
		c1.3,1.1,1,3.9-0.3,5.8c-0.8,1.2-2.6,2.2-3.6,2.2c-0.2,0-0.4,0-0.5-0.1c-0.5-0.3-0.3-0.3,0.7-1c1.8-1.3,2.7-3.2,2.9-5.2
		C105.9,184.3,105.4,183.1,105.8,183.2z M88.1,183.4L88.1,183.4c0.2,0.9,0.7,1.6,1.2,2.2c-1.7,4.6-2.4,8.9-2.8,12.9
		c-0.5,4.7-0.7,9-1.3,13.2l-1.6,0.1c0.1-0.6,0.2-1.3,0.3-2c0.7-4.3,1-10.6,1.7-15.6C86.3,187.6,87.9,183.4,88.1,183.4L88.1,183.4z
		 M32.1,183.4v3l-5.8,5.8v-2.9L32.1,183.4z M108.2,184.5l0.2,0c0.4,0.1,0.7,0.5,0.8,0.9c1.4,2.8-1.2,7.2-4,7.3c-0.3,0-0.6,0-0.9-0.1
		c-0.7-0.2-0.4-0.2,0.7-1c2.2-1.5,2.9-3,3-5.9c0-0.5-0.1-0.8,0-1L108.2,184.5z M110.4,186.1c0.1,0,0.3,0.2,0.6,0.5
		c2.3,3.2-1,7.1-3.7,7.1c-1.2,0-1.8-0.4-1-0.7c2.6-1,3.8-2.7,3.9-5.6C110.3,186.5,110.3,186.1,110.4,186.1z M89.9,186.3l1.3,0.8
		c-2.2,7.3-2.8,16.8-3.8,24.5l-1.4,0.1c0.1-1.4,0.6-7.9,1.3-13.5C88,191.8,89.6,186.3,89.9,186.3z M32.1,187.1v2.5l-5.8,6.1v-2.5
		L32.1,187.1z M92,187.5l1.3,0.5c-0.9-0.3-3,16.8-3.4,23.5l-1.6,0.2c0.2-3.3,0.8-8.6,1.4-13.4C90.5,192.5,91.5,187.4,92,187.5z
		 M94.1,188.4c0.2,0,0.6,0.3,1.4,0.8c-1.4-0.2-2.5,15.8-3.3,22.1l-1.4,0.1c0.6-9.3,1.9-17.7,2.7-21.3
		C93.7,189,93.8,188.5,94.1,188.4L94.1,188.4z M52.7,188.9c-1.7,0.1-3.4,1.8-2.6,4c0.5,1.4,1.8,1.6,3.5,1.3c0,0,0.7,0.5,1.6,3.1
		c1,3,2.6,6.1,2.6,6.1c0.1-3.8,1-7.8-0.7-10.9c-1.2-2.3-2.2-3.1-3.3-3.5c-0.2-0.1-0.5-0.2-0.8-0.2C52.9,188.9,52.8,188.9,52.7,188.9
		z M53,189.2c2.5,0.1,4.8,4.5,4.6,9.2c-0.1,1.5-0.3,2.6-0.3,2.6c-1.1-2.3-1.3-4-2.4-6.1c-0.5-0.9-0.9-1.7-0.9-1.7
		c-3.5,1.6-4.8-2.5-2-3.8C52.2,189.2,52.6,189.2,53,189.2z M96.2,189.5l1.5,0.7c-0.4-0.1-1.5,4.3-1.8,9.2c-0.3,4.3-1.1,9-1.3,11.6
		l-1.6,0.2C93.9,204.2,94,196,96.2,189.5z M98.3,190.6l1.5,0.8c-0.8-0.2-2.2,14.3-3,19.4l-1.5,0.2c0.6-2.5,0.6-6.1,1-9.2
		C96.9,198.1,97.5,190.4,98.3,190.6z M100.6,191.6l1.4,0.8c-0.6,2.3-2,10.2-2.8,18l-1.5,0.2C98.5,204.9,99.8,191.7,100.6,191.6z
		 M102.8,192.8l1.6,0.7c0,0-1.1,5.3-1.6,9.1c-0.5,3.7-0.6,4.2-0.7,5.2c-0.4,2.1-0.5,2.2-0.5,2.2l-1.3,0.2
		C100.9,203.9,101.5,197.6,102.8,192.8z M29,195.5c0.7,0,1.2,0.5,1.2,1.2c0,0.7-0.5,1.2-1.2,1.2c-0.7,0-1.2-0.5-1.2-1.2
		C27.9,196.1,28.4,195.5,29,195.5z M30.6,198.3c0.7,0,1.2,0.5,1.2,1.2s-0.5,1.2-1.2,1.2s-1.2-0.5-1.2-1.2S29.9,198.3,30.6,198.3z
		 M27.3,198.4c0.7,0,1.2,0.5,1.2,1.2c0,0.7-0.5,1.2-1.2,1.2c-0.7,0-1.2-0.5-1.2-1.2C26.2,198.9,26.7,198.4,27.3,198.4z M29.1,201.2
		c0.7,0,1.2,0.5,1.2,1.2s-0.5,1.2-1.2,1.2c-0.7,0-1.2-0.5-1.2-1.2S28.4,201.2,29.1,201.2z M26.2,205h13.6l-13.6,14.4v-2.5l8.8-9.8
		h-8.8V205z M26.2,208.2h6.7l-6.7,7V208.2z M44.1,208.7c-0.8,0-1.6,0.2-2.3,0.5c-0.3,0.1-0.6,0.3-0.6,0.5c1.7,1.6,2.6,4.3,3.2,6.5
		c1.3,3.5,2.3,7.7,5.3,9.5l-2.1,4.2H113l-10.9-19.1c-12.4,2.4-29.9,3.7-44.8-0.2c0,0-2.6,4.8-3.2,6.1c0,0-0.4-1.2-0.8-2
		C51.5,211.3,47.6,208.6,44.1,208.7L44.1,208.7z M43.9,209.1c0.2,0,0.4,0,0.6,0c3.4,0.2,7.7,3.5,9,6.6c-0.2,0.4-1,1.9-1,1.9
		c-0.4-0.8-0.1-1.7-0.4-2.5c-0.1-0.3-0.8,2.2-0.8,2.2s-0.7-1.1-0.8-3.3c0-0.3-0.9,1.4-0.9,1.4c-1.1-1.5-1-4.1-1-4.1
		c-1.2,1.5-0.5,2.4-2.4-1.5c-0.2,0.4-0.1,0.8-0.4,0.7c-0.8-0.3-2-0.9-2.5-0.8c0.6,0.7,1.7,1.1,2,2l-0.9,0c1,0.5,1.9,1,2.7,2
		c-0.2,0.1-1.1-0.1-1.1,0c1.3,1.2,3.3,2.2,0.4,1.9c1.9,1.3,4,2.2,0.7,2.1c2.3,1.1,3,1.8,2.5,2c-0.2,0.1-0.9-0.3-2,0
		c1.9,0.8,2.6,1.1,2.7,1.4c0.1,0.3-0.8,0.5-1.4,1.1c0,0,0.8-0.2,1.1,0.2c0,0-0.4,1.1-0.6,1.7c-2.4-2.2-3.3-5.2-3.9-7.2
		c-0.3-1-0.6-2-0.7-2.2c-1.1-3.1-1.6-4.1-2.4-5.2c-0.1-0.2-0.2-0.2,0-0.3C42.8,209.2,43.4,209.1,43.9,209.1z M101.5,212.1l9.4,16.6
		h-2l-7.4-13.3l-11,1.1l3.1,12.2h-2.9l-3-11.9l-17.1,0.1c-0.6,4-1.6,11.8-1.6,11.8h-3.2l2.1-12.1l-10.1-1.3l-5.8,13.3h-2.7l8.4-16.5
		C73.8,214.8,82.4,215.1,101.5,212.1z M58.8,216.9l7,0.9l-1.9,10.9H54L58.8,216.9z M100.3,217.1l6.3,11.6H95.8l-3.1-10.9
		L100.3,217.1z M86.2,218.5l2.3,10.2H71.1l1-10.1L86.2,218.5z"/>
	<path d="M131.1,223.5c7.9-0.2,11.4-9,5.6-15.9c-0.8-1-0.9-1.6,0.6-0.6c3.9,2.6,11.4,0.9,11.8-7.1c0.5-9.9-13.3-12.7-15.9-2.2
		c-0.1,1.1-1,1.1-0.8-0.5c0.2-4.3,1.6-8.2,3.4-12.1c-3.1,0-6.5,0-9.3,0c1.8,3.9,3.2,7.9,3.4,12.1c0.2,1.6-0.7,1.6-0.8,0.5
		c-2.6-10.5-16.4-7.6-15.9,2.2c0.4,8,7.9,9.7,11.8,7.1c1.5-1,1.5-0.4,0.6,0.6C119.7,214.5,123.2,223.4,131.1,223.5L131.1,223.5
		L131.1,223.5z"/>
	<path d="M48.3,26.4c7.9,0.2,11.4,9,5.6,15.9c-0.8,1-0.9,1.6,0.6,0.6c3.9-2.6,11.4-0.9,11.8,7.1c0.5,9.9-13.3,12.7-15.9,2.2
		c-0.1-1.1-1-1.1-0.8,0.5c0.2,4.3,1.6,8.2,3.4,12.1c-3.1,0-6.5,0-9.3,0c1.8-3.9,3.2-7.9,3.4-12.1c0.2-1.6-0.7-1.6-0.8-0.5
		c-2.6,10.5-16.4,7.6-15.9-2.2c0.4-8,7.9-9.7,11.8-7.1c1.5,1,1.5,0.4,0.6-0.6C36.9,35.4,40.4,26.6,48.3,26.4L48.3,26.4L48.3,26.4z"
		/>
	<path d="M165.2,209.7c3.1-0.1,4.6-3.8,2.2-6.6c-0.3-0.4-0.4-0.7,0.2-0.3c1.6,1.1,4.6,0.4,4.7-3c0.2-4.1-5.3-5.3-6.4-0.9
		c-0.1,0.5-0.4,0.5-0.3-0.2c0.1-1.8,0.6-3.4,1.4-5c-1.2,0-2.5,0-3.7,0c0.7,1.6,1.3,3.3,1.4,5c0.1,0.7-0.3,0.7-0.3,0.2
		c-1-4.4-6.5-3.2-6.4,0.9c0.2,3.3,3.2,4,4.7,3c0.6-0.4,0.6-0.2,0.2,0.3C160.6,206,162,209.6,165.2,209.7L165.2,209.7z"/>
	<path d="M14.1,40.2c-3.1,0.1-4.6,3.8-2.2,6.6c0.3,0.4,0.4,0.7-0.2,0.3C10.1,46,7.1,46.7,7,50c-0.2,4.1,5.3,5.3,6.4,0.9
		c0.1-0.5,0.4-0.5,0.3,0.2c-0.1,1.8-0.6,3.4-1.4,5.1c1.2,0,2.5,0,3.7,0c-0.7-1.6-1.3-3.3-1.4-5.1c-0.1-0.7,0.3-0.7,0.3-0.2
		c1,4.4,6.5,3.2,6.4-0.9c-0.2-3.3-3.2-4-4.7-3c-0.6,0.4-0.6,0.2-0.2-0.3C18.7,44,17.3,40.3,14.1,40.2L14.1,40.2z"/>
	<path d="M14.1,11.3v2.8h2.7c0,0,0.1,2.7,0.1,8.3c0,5.5,0.1,8.2-0.2,9.8c-0.9,3.6-6.2,3.6-7.2,1C8.8,31.7,9,30.5,8.9,29H6.1
		c0,0,0,0.8,0,1.7c0,4,1.4,6,4.5,6.8c3.2,0.9,7-0.5,8.3-3.2c0.8-1.6,0.7-1.7,0.7-11.2c0-6.3,0.1-9,0.1-9h2.5v-2.8L14.1,11.3
		L14.1,11.3z"/>
	<path d="M165.3,238.6v-2.8h-2.7c0,0-0.1-2.7-0.1-8.3c0-5.5-0.1-8.2,0.2-9.8c0.9-3.6,6.2-3.6,7.2-1c0.6,1.5,0.4,2.7,0.5,4.2h2.9
		c0,0,0-0.8,0-1.7c0-4-1.4-6-4.5-6.8c-3.2-0.9-7,0.5-8.3,3.2c-0.8,1.6-0.7,1.7-0.7,11.2c0,6.3-0.1,9-0.1,9h-2.5v2.8H165.3z"/>
</g>
</svg>
