<?xml version="1.0" encoding="utf-8"?>
<!-- Generator: Adobe Illustrator 21.0.0, SVG Export Plug-In . SVG Version: 6.00 Build 0)  -->
<svg version="1.1" id="Layer_1" xmlns="http://www.w3.org/2000/svg" xmlns:xlink="http://www.w3.org/1999/xlink" x="0px" y="0px"
	 viewBox="0 0 178.6 249.4" style="enable-background:new 0 0 178.6 249.4;" xml:space="preserve">
<style type="text/css">
	.st0{fill:#FFFFFF;}
	.st1{fill:#D40000;}
	.st2{fill:#131F67;}
	.st3{fill:#E2CF00;}
</style>
<g>
	<path class="st0" d="M8.9,0.8h161.5c4.7,0,8.5,3.8,8.5,8.5v232.4c0,4.7-3.8,8.5-8.5,8.5H8.9c-4.7,0-8.5-3.8-8.5-8.5V9.4
		C0.4,4.7,4.2,0.8,8.9,0.8z"/>
	<path class="st1" d="M14.5,56.8c-1.7-2.9-3.5-5.6-5.8-8c2.3-2.4,4.1-5.1,5.8-8c1.7,2.9,3.5,5.6,5.8,8C18,51.2,16.2,54,14.5,56.8z"
		/>
	<path class="st1" d="M164.8,210.3c-1.7-2.9-3.5-5.6-5.8-8c2.3-2.4,4.1-5.1,5.8-8c1.7,2.9,3.5,5.6,5.8,8
		C168.4,204.7,166.6,207.5,164.8,210.3z"/>
	<path class="st1" d="M48.4,65.4c-4.1-6.9-8.5-13.5-14-19.2c5.5-5.7,9.8-12.3,14-19.2c4.1,6.9,8.5,13.5,14,19.2
		C56.9,51.9,52.6,58.5,48.4,65.4z"/>
	<path class="st1" d="M130.9,224.1c-4.1-6.9-8.5-13.5-14-19.2c5.5-5.7,9.8-12.3,14-19.2c4.1,6.9,8.5,13.5,14,19.2
		C139.4,210.6,135,217.3,130.9,224.1z"/>
	<path class="st2" d="M24.4,230.8V20.3H155v210.5H24.4z M71.4,55.3c-4.7-1.3-4.6,3.4-1.1,3.5c3.8,0.3,5.5-6.2,3.6-8.8
		C73.9,50.1,72.3,55,71.4,55.3z M41.1,81.6l-5.6,2.5l0,4.2C37.8,86.4,39.6,84.1,41.1,81.6z M79.4,207.4c-1.1-0.6-2.4-1.8-2.2-2
		c0.1-0.1,0.7,0.1,1.2,0.3c4.4,1.8,7.8,1.7,13-0.2c0.4-0.1,1,0.6,0.8,1C89.8,210.1,82.3,208.9,79.4,207.4z M77.8,202.4
		c3.2,3,7.6,4,11.4,1.2c0.2-0.2,0.2-0.4,0.1-0.5c-0.1-0.3-0.1,0-1.7,0.6c-3.6,1.4-6.7,0.2-9.6-2c-1.2-0.9-1.8-1.4-1.8-1.7
		c0-0.2,0.2-0.4,0.6-0.3c0.3,0,1,0.2,1.5,0.2c0.9,0.1,0.8,0,1.8-0.4c2-0.9,3.8-1.3,5.9-0.9c0.5,0.1,1.1,0.2,1.2,0.2
		c0.5-0.2-0.2-0.8-2-2.2c-0.3-0.3-0.8-0.5-0.9-0.7c-0.2-0.4,0-0.5,0.3-0.5c0.7,0,4,2.7,5.1,4.3c0.3,0.5,0.6,0.5,0.6,1.1
		c-0.1,0.5-0.1,1,0.4,1.8c0.4,0.5,0.8,1.4,0.8,1.4c0,0-0.1,0.3-0.5,0.1c-0.2,0-0.3-0.2-0.6-0.2c-0.3,0-0.7,0.3-1.2,0.5
		c-4.2,2.8-7.7,1.6-11.1-1C74.7,200.8,77.5,202,77.8,202.4z M87,202.1c0.1,0-0.3-1.7-0.8-2.2c-0.9-1-2.3-1.2-3.1-0.2
		c-0.5,0.6-1,2.1-1,2.1s0.7,0.2,0.9,0.2c0-0.4,0-1.3,0.8-1.9c0.4-0.3,1.1-0.3,1.4,0c0.6,0.3,0.8,1.5,0.9,1.9
		C86.4,202.2,87.2,202.1,87,202.1z M81.5,199.7c-0.6,0.3-1.5,0.5-1.7,0.9c-0.3,0.6,0.6,0.7,1.1,0.9c0.6,0.3,0.7,0.2,0.9-0.3
		c0.1-0.3,0.3-0.7,0.5-1.1C82.7,199.2,82.3,199.3,81.5,199.7z M88.6,201.2c0.3-0.3,0.3-0.5,0-0.9c-0.1-0.2-0.6-0.4-1-0.5
		c-0.6-0.2-0.9-0.4-0.5,0.4l0.5,1.2c0.2,0.5,0.4,0.4,0.8,0.2C88.4,201.3,88.5,201.3,88.6,201.2L88.6,201.2z M27.8,162
		c0.2,0,2.5-0.7,3.3-1.1c0.8-0.3,0.9-0.3,0.6-0.7c-0.2-0.7-0.2-1.1-0.1-1.8c-1.4-0.3-3.3,0.4-3.9,1.4C27.1,160.6,27,161.7,27.8,162z
		 M27.6,165.5c0.3,0.3,0.5,0.3,1.7-0.1c0.4-0.3,1.4-0.7,2-0.7c1.5-0.4,1.5-0.2,1.1-1.2c-0.2-0.4-0.3-0.8-0.2-1.2
		c0.1-0.5,0.1-0.6-0.1-0.6c-0.7-0.2-4.1,1-4.7,2C26.9,164.3,27,165,27.6,165.5z M105.9,198.7c0.1,0.8,0.1,2,0.1,2.6
		c0,1.3,0.5,1.6,1,0.9c0.5-1.6,0.7-4.2,2-5.6c0.9-0.3,2.1,0.2,2.8-0.4c1.5-1.5,0.3-3.2-1.1-3.3C107.8,192.8,105.7,196.3,105.9,198.7
		z M113,194.7c0.1,1.6-1.5,2.7-3.1,2.3c-0.7-0.2-0.9,0-1.3,0.9c-1,2.6-1.3,5.1-1.6,6.8c-0.1,1.5-0.7,5.5-0.3,6.7
		c4.6,5.7,9.5,11.6,14.8,17.5h31.7v-37.3l-9.1-8.7l0-13.8c-9.8,4.6-19.6,9.3-29.5,14c2.1,6.9-5.1,8.3-6.7,3.7
		c-1.4,1.3-2.5,8.1-2,8.4c0,0,0.2,0.2,0.5-0.3c0.5-0.9,1.2-1.5,1.9-2C110.4,191.8,112.8,192.4,113,194.7z M87.8,194
		c-1.6-1.2-0.7-3.1,0.6-3.7c0.7-0.3,1.8-0.3,3,0.2c1.1,0.5,1.7,0.4,2.8,0.3c0.7-0.1,0.6,1.4-0.2,1.8c-0.5,0.3-1.7,0.1-3.2-0.7
		c-2.6-1.5-3.7,0.4-2.1,2.1C89.5,194.9,88,194.2,87.8,194z M35.2,171.4c1.4-0.9,0.8-2.4-0.5-2.7c-1.7,0-2.1,2-0.9,2.7
		c0,0.2-0.6,0-0.9-0.2c-0.5-0.4,0-1.9-0.5-1.9c-0.4,0-3.9,1.3-4.3,1.5c-1.6,0.9-0.1,2.9,0.8,2.7C30.8,173,33.4,172.6,35.2,171.4z
		 M27.3,168.5c0,0.9,0.3,1.3,0.9,1.3c1.2-0.2,2.4-0.8,3.6-1.2c0.9-0.3,1.3-0.6,0.6-1.2c-0.2-0.2-0.4-0.6-0.3-1.2
		c0.2-0.7,0.1-0.8-0.3-0.8c-0.3,0-1,0.3-2.9,1c-1,0.4-1.2,0.5-1.4,1.1C27.4,167.8,27.3,168.1,27.3,168.5L27.3,168.5z M37.6,180.2
		c0.2-0.3,0.7-1.8,0.7-2.2c-0.1-0.7-0.6-0.8-1-0.4c-0.5,0.5-0.4,1.2-0.7,1.7c-0.1,0.2-0.2,0.4-0.2,0.6
		C36.6,180.4,37.3,180.5,37.6,180.2L37.6,180.2z M50.2,99.1c-1.1-1-2.7,2.4-2.7,2.4l-2.2,1.9c11.6,20.1,9.6,43.1-4.6,59.6l0,1
		c0,2.3,0.7,2.2,1.7,1.1c1-1.1,0.3-0.2-0.1,0.2c-0.4,0.4-0.9,1.1-1.1,1.3c0.2,1.3,0.9,3.5,0.6,4.6C66.1,147.8,61.6,118.9,50.2,99.1
		L50.2,99.1z M40.6,166.5c-0.2-0.5-0.3-1.5-0.4-2.3c-0.1-0.5-0.1-1-0.1-1.5c-0.2-1-0.6-3.3-0.9-3.9c-0.4-0.6-1.2-1-2.2-1
		c-0.8-0.1-0.9,0-1.1,0.2c-0.3,0.5-0.1,2.9,0.2,3.7c0.4,1,0.1,1.6-0.1,2.6c-0.1,0.4-0.1,0.4,0,0.4c0.8-0.1,1.1-1,1.4-0.7
		c0.1,0.1-0.2,0.9-0.5,1.7c-0.4,0.8-0.5,2,0,3.5c0.3,0.8,0.1,1.1,0,1.5c-0.1,0.3-0.3,1.3-0.3,2.3c0.4,1.2,0.2,1.8,0,2.2
		c-0.5,1.1-0.8,2.5-0.6,3.3c0.1,0.4,0.4,0.1,0.6-0.6c0.3-1.2,0.7-1.5,1.7-1.5c0.7,0,0.8,0.2,1-0.1c0.5-0.7,1.8-3.3,1.9-4
		C41.6,170,41.3,168.1,40.6,166.5L40.6,166.5z M48.2,178.5c0.4-0.2,1.1-1.1,1.1-1.4c0-0.3-2.7-2.9-3.8-3.6c-0.5-0.3-0.7-0.1-1.6,1.1
		c-0.8,1.1-0.9,1.1-0.7,1.3c0.2,0.2,2.9,2,3.8,2.5C47.3,178.5,47.8,178.6,48.2,178.5z M53.2,173.9c-0.4-0.3-3.6-3.8-4.5-4
		c-0.4-0.1-1.5,1.2-1.5,1.5c1.4,1.5,2.8,2.9,4.4,4.1C52,175.3,53.1,174.3,53.2,173.9z M56.6,170.5c0-0.2-0.4-0.6-1.2-1.5
		c-2.2-2.1-3.4-3.1-3.8-3.1c-0.4,0.1-1.2,1.4-1.2,1.9c0.1,0.3,3.8,3.6,4.3,3.9C55.2,172.3,56.5,170.9,56.6,170.5L56.6,170.5z
		 M60,167.1c0.1-0.3-0.1-0.6-0.6-1c-1.7-1.5-2.9-3.2-4.8-4.4c-0.8,0.2-1.1,0.9-1.3,1.6c-0.1,0.4,0.6,1,1.9,2.3
		c2.4,2.3,2.9,2.8,3.3,2.8C59.2,168.2,59.8,167.7,60,167.1z M34.4,165.1c-0.4-0.1-0.8,0-1.1,0.2c-1.7,1.4,0.7,3.3,1.7,2.1
		C35.7,166.8,35.7,165.4,34.4,165.1z M63.5,163.6c0-0.2-0.5-0.8-2.2-2.4c-4.2-4-4-3.9-4.5-3.6c-0.3,0.2-0.9,1.2-0.9,1.6
		c2.3,2.2,3.3,3.9,6.2,5.8C62.7,164.7,63.5,164.2,63.5,163.6z M34.5,163.7c0.8-0.4,1-1.3,0.5-2c-0.9-0.8-2.2-0.1-2.2,0.9
		C33,163.6,33.8,164,34.5,163.7z M67,160.2c0-0.5-7.2-7.2-7.7-7.2c-0.3,0-0.6,0.3-0.9,1c-0.3,0.7-0.3,1.1,0.1,1.4
		c0.5,0.5,1.9,1.8,3.2,3c0.8,0.7,1.7,1.6,2,1.9c0.7,0.8,1.6,1.4,1.9,1.4C66,161.4,66.6,161,67,160.2z M34.2,159.3
		c0-0.3-0.1-0.5-0.3-0.8c-0.5-0.5-1.4-0.2-1.6,0.5C32,160.7,34.1,160.7,34.2,159.3z M39.5,106.7l1.4-4.3l4.3-0.1l0.6-4.3l4.4-0.6
		l0.1-4.4l4.3-0.6l-0.3-4.8l3.9-0.9l-0.2-4.4l3.6-1.1l-0.1-3.8l0.6-0.5l-1.5-1.6l-1.3,0.4l0,3.9l-3.6,1.2l0.4,4.4l-3.6,0.8l0,4.7
		l-4.2,0.5l-0.3,4.2l-4.1,0.8l-0.6,4.1l-3.9,0.3l-1.2,3.6l-2.6,0v2.4L39.5,106.7z M86.5,184c-0.1-0.3,0.2-0.3,0.8,0.1
		c0.6,0.4,1.6,0.7,2.3,0.8c0.3,0,1.3-0.2,2.2-0.4c1.1-0.4,2.1-0.4,3.3-0.2c0.9,0.1,1.7,0.2,1.9,0.2c0.6,0.1,1.6-0.6,1.8-1.1
		c0.7-1.2,0.5,1,0.5,1.2c0,1.1,0.2,2.4-0.7,1.8c-0.5-0.2-1.3-0.5-2,0c-0.7,0.5-1.2,0.5-2,0.1c-0.6-0.3-1-0.3-1.5,0.1
		c-0.5,0.5-1.9,0.3-2.6,0.1c-1.2-0.2-1.9-0.4-2.7,0.3c-0.4,0.2-0.5,0.1-0.9-0.9C86.8,185.2,86.5,184.2,86.5,184z M89.5,183.2
		c-0.1-0.1,0.6-0.8,1-1c1.3-0.7,3.8-0.6,5.7,0c1,0.4,1.1,1,0.2,0.8c-1.9-0.4-4.3-0.7-6.2,0.2C90,183.4,89.6,183.3,89.5,183.2z
		 M91.2,180.2c-1.3-0.5-2-1-2-1.2c0-0.2,0.3-0.1,1.3,0.1c1.4,0.5,3.1,0.8,4.5,0.3c1-0.4,1.5-0.6,1.5-0.4c0,0.2-0.4,0.8-1.1,1.2
		C94,180.9,92.2,180.6,91.2,180.2z M119.8,176.6l1-0.1l-0.3-4.1l3.6-1.1l-0.3-4.1l3.8-1.3l-0.2-4.6l4-0.8l0.5-4l3.8-0.3l0.8-4.3
		l4-0.1l0.8-3.6l2.7,0l0-2l-4.2,0l-0.9,3.9l-4,0.1l-0.8,4.3l-4.1,0l-0.5,4.6l-3.9,0.6v5l-3.8,1l0.3,4.3l-3.8,1.4l0.4,4.1
		L119.8,176.6z M144.3,82.6c0.4,1.5,2.4,1,2.6-0.1c0.1-0.4-0.2-1.1-0.7-1.3c-0.1,0-0.4,0-0.6-0.2c-0.1-0.1,0.6-0.5,1.1-0.4
		c0.5,0.2,1,0.9,1,1.5c0,0.2,0,0.6,0.1,0.7c0.9,0,1.8-0.5,2.8-0.8c1.6-0.5,2.2-1.4,1.9-2.5c-0.3-0.9-1.2-1.3-2.5-0.8
		c-1.6,0.6-3.5,0.9-4.9,1.8C144.4,81.1,144.2,82,144.3,82.6z M75.1,181c5.5-3.9,8.8-6.1,15.9-6.5c-2.5-1-2.9-2.4-3.7-3.7
		c-8.8,0.8-13.5,3.6-17.6,6.3C71.5,177.9,73.3,178.8,75.1,181z M106,175.6c-2.7-1.9-5.9-3-9.2-3.9l-2.5,2.6
		C94.1,174.2,101.6,174.4,106,175.6L106,175.6z M131.7,150.6c-17.3-26.6-5.7-50,6.4-64.9c0.4-0.5,0.5-0.5,0.4-0.9
		c-0.1-0.5-0.3-3.1-0.2-4.6c-22.2,22.1-22.8,50.8-8.9,73.6C130.5,152.9,132.5,151.7,131.7,150.6z M134.3,148.4
		c-2.8-4.7-18-30.4,5.1-59c0,0-0.1-1.5-0.3-2c-0.3-1-0.8-1.4-0.8-1.4c-9.7,14.6-23.8,32.8-6.2,64.5L134.3,148.4z M121.1,100.1
		c0.3-0.3,0.8-1.3,0.8-1.7c0-0.4-0.3-0.7-2.9-3.3c-3.5-3.5-4.1-4.1-4.5-4.1c-0.4,0-1.5,1-1.5,1.4c0,0.2,1,1.3,3.4,3.7
		C121,100.6,120.7,100.4,121.1,100.1z M124.3,93.6c0-0.2-0.3-0.6-1.1-1.4c-2-2.1-4.9-4.7-5.1-4.7c-0.3,0-1.2,0.7-1.4,1.2
		c-0.2,0.3-0.2,0.4,0,0.7c0.4,0.6,4.8,4.8,6.1,5.9C123.6,95.9,124.3,94.2,124.3,93.6z M126,91c0.4-0.2,1-1.4,0.9-1.8
		c0-0.2-1.2-1.4-2.5-2.7c-2.7-2.7-2.8-2.8-3.5-2.2c-0.6,0.5-1,1.1-0.9,1.3c0.1,0.3,4.1,4.3,4.9,5C125.6,91.2,125.7,91.2,126,91z
		 M146.4,90.8c1.3-1.2-0.2-2.5-1.2-1.9c-0.4,0.3-0.7,0.9-0.6,1.3C144.9,90.8,145.8,91.2,146.4,90.8z M148.9,90.5
		c2.1-0.6,3.1-0.9,3.6-1.6c0.3-0.5,0.3-0.7,0-1.5c-0.3-0.7-0.7-0.9-2-0.2c-0.9,0.5-3,0.7-3.7,1.2c-0.3,0.2-0.1,0.2,0.1,0.4
		c0.5,0.3,0.8,0.5,0.7,1C147.5,90.7,147.6,90.8,148.9,90.5L148.9,90.5z M146.7,87.2c1-0.5,0.8-1.8-0.3-2.3c-1.5-0.4-2.5,1.4-1.3,2.3
		C145.4,87.4,146.3,87.4,146.7,87.2z M150.1,86.6c1.5-0.5,2.1-0.9,2.5-1.7c0.3-0.7,0.2-0.9,0.2-1.6c-0.1-1-0.6-0.8-1.9-0.3
		c-0.7,0.3-3.9,1.2-4,1.5c1.6,0.9,1.2,1.4,1.2,2.5C148.1,87.3,148.8,87.1,150.1,86.6z M129.8,85.1c0-0.4-4.2-4.5-4.6-4.5
		c-0.7,0-1.7,1.1-1.5,1.7c0.1,0.3,4,4.2,4.5,4.5C128.8,87.1,129.7,85.8,129.8,85.1z M132.9,81.7c0.5-0.7,0.4-1-0.1-1.4
		c-0.2-0.1-1.1-0.9-1.9-1.8s-1.7-1.6-1.8-1.6c-0.7-0.1-2,1.1-1.9,1.6c0.1,0.3,3.3,3.5,4,3.9C132,83,132.4,82.4,132.9,81.7z
		 M137.8,76.5c-1.8-0.9-5.3-2.9-5.3-2.9c-0.9,0.3-1.5,0.7-2,1.4c1.3,1.6,2.9,3.1,4.6,4.2C135.7,78.8,137.7,77,137.8,76.5z
		 M142.8,74.7c0.4-0.5,0.9-2.3,0.7-2.7c-0.2-0.2-0.8-0.2-1,0.1c-0.3,0.2-1,2.5-0.8,2.8C141.7,75.1,142.4,75,142.8,74.7z M104,152.2
		c0.3,0,1-0.5,2-1.3c1-0.9,4.3-2.8,4.6-3.6c0.2-0.4,0-1.1-0.3-1.1c-0.3,0-0.3,0.2-2.5,1.7c-1.5,1-4,2.9-4.4,3.3
		C103.2,151.6,103.6,152.2,104,152.2z M103.7,164.7c2.2-1.5,4-3.1,6.9-4.9c0.2-0.3,0.3-0.7,0.1-1.1c-0.2-0.4-0.4-0.3-1.3,0.3
		c-2.1,1.4-4.3,3.1-6.2,4.4c-0.6,0.4-1.1,0.6-1,0.8C102.5,164.6,103.4,164.7,103.7,164.7z M105.8,165.7c1.5-1.2,3.2-2.3,4.8-3.5
		c0.2-0.2,0.3-1,0.1-1.3c-0.2-0.2,0-0.2-0.5,0.1c-0.6,0.4-4.4,2.9-5.1,3.5c-0.4,0.3-0.8,0.5-0.6,0.6
		C104.9,165.4,105.4,165.6,105.8,165.7z M107.6,166.6c0.3-0.2,2.9-1.9,3.1-2.1c0.2-0.3,0.2-1.4-0.1-1.5c-0.7,0.5-4.1,2.6-4.1,3
		C106.9,166.3,107.4,166.6,107.6,166.6L107.6,166.6z M110.4,166.8c0.4-0.4,0.5-0.4,0.5-0.8c0-0.7-0.2-0.7-1.2,0
		c-0.7,0.5-1.2,0.8-1.1,1.1C109.2,168,109.9,167.3,110.4,166.8z M110.7,168.3c0.2-0.1,0.2-0.2,0.2-0.4c0-0.3-0.1-0.3-0.4-0.3
		C109.7,167.7,110.4,168.4,110.7,168.3z M100.6,164.2c0.4-1.3,0.9-2.3,1.8-3.2c3.5-3.1,2.4-6.9,0.2-10c2.9-4,5.7-8.2,8.1-12.1l0-6.3
		l0.3,0c-0.1,13.8,0.5,36.3,0.5,36.3l2.8,2.2l-0.4,0.2C114.5,171.2,105.8,165.7,100.6,164.2z M103.2,162.6c2.4-1.8,4.8-3.3,7.2-5.2
		c0.3-0.2,0.4-0.2,0.4-0.7c0-0.9-0.2-0.9-1.1-0.3c-0.4,0.3-1.8,1.3-3.2,2.2c-1.4,1-2.8,1.8-3,2.1c-1.3,1.6-1.8,2.3-1.7,2.5
		C101.9,163.6,102.1,163.3,103.2,162.6z M105.8,158.2c1.2-0.8,4.2-2.9,4.5-3.1c0.5-0.4,0.6-1.1,0.1-1.2c-0.2,0-2.5,1.5-4.4,3
		c-0.9,0.7-1.2,0.9-1.2,1.6C104.8,158.8,105.1,158.7,105.8,158.2z M107,155c3.8-2.7,3.7-2.5,3.6-3.5c0-0.3-0.1-0.5-0.3-0.5
		c-0.1,0-0.8,0.5-1.5,1c-0.8,0.5-1.7,1.2-2.1,1.6c-1.3,0.9-1.8,1.2-1.8,1.7c0,0.5,0.1,0.8,0.4,0.8C105.4,156.1,106.2,155.6,107,155z
		 M106.5,152.9c1.8-1.2,3.7-2.6,3.9-3c0.3-0.4,0.3-1.3-0.1-1.3c-1.8,1.2-3.9,2.7-5.4,3.9c-0.2,0.2-0.4,0.3-0.5,0.6
		c0,0.3,0.3,0.7,0.5,0.7C105.2,153.8,105.6,153.5,106.5,152.9L106.5,152.9z M105.4,148.7c1.3-0.9,2.6-2,3.9-2.9
		c1-0.7,1.3-0.9,1.2-1.8c0-0.5-0.5-0.2-2.2,0.9c-1.2,0.8-1.8,1.2-2.2,1.7c-0.3,0.7-1.3,1.4-1.4,2.2
		C104.7,149.2,104.9,149,105.4,148.7L105.4,148.7z M109.5,143.3c1-0.7,1.1-0.7,1-1.6c-0.1-1.1-0.3-1.1-1.2,0.4
		c-0.6,1-0.9,1.3-0.8,1.5C108.6,143.9,108.8,143.7,109.5,143.3z M105.7,134.9c-0.1-0.5-0.3-0.4-0.8,0.1c-1,0.8-1.1,1.4-0.5,1.8
		c0.3,0.2,0.6,0.1,0.7-0.3C105.6,135.6,105.7,135.3,105.7,134.9z M100.4,142.8c-0.1-0.5-0.7-1.1-1.1-1.3c-0.4-0.2-0.7-0.2-1.1,0.3
		c-0.4,0.5-0.2,0.8,0.4,1.5c0.4,0.5,0.6,0.7,0.9,0.7C99.8,143.9,100.5,143.3,100.4,142.8z M79.8,162.7c-0.3-0.5-0.8-1.1-1.1-1
		c-0.3,0.1-0.6,0.5-0.6,0.8c0.1,0.5,0.6,0.9,0.9,0.9C79.6,163.2,80,163.1,79.8,162.7z M82.3,161.9c-0.5-0.6-1.6-1.8-1.8-1.8
		c-0.3,0-0.9,0.7-0.9,1c0,0.3,1,1.7,1.3,1.8C81.7,162.8,83.2,162.9,82.3,161.9z M85.4,162.1c-0.1-0.3-3.1-3.5-3.3-3.5
		c-0.3,0-0.9,0.6-0.9,0.9c0,0.2,1,1.5,1.9,2.5c0.5,0.5,0.5,0.5,1.1,0.5C84.7,162.3,85.5,162.4,85.4,162.1L85.4,162.1z M90.8,161.3
		c0-0.7-0.3-1-1.7-2.5c-0.5-0.5-1.3-1.5-1.9-2.1c-1-1.2-1.5-1.5-1.9-1.5c-0.3,0-0.8,0.5-0.8,0.9c0,0.2,2.5,3.1,4.8,5.6
		c0.5,0.5,0.7,0.7,1.2,0.4C90.8,161.9,90.8,161.6,90.8,161.3L90.8,161.3z M86.8,153.5c-0.5,0.4-0.7,0.6-0.7,0.9
		c0,0.4,4.4,5.3,4.8,5.3c0.2,0,0.2,0,0.3-0.5c0.3-1.6-0.2-2-1.3-3.1C89.1,155.3,87.6,152.9,86.8,153.5z M94.5,150.3
		c-1.2-1.5-1.9-2.1-2.2-2.1c-0.2,0-0.4,0.2-0.7,0.5c-0.5,0.4-0.4,0.4-0.1,0.9c0.2,0.3,0.6,0.8,0.9,1.2c0.7,0.7,1,0.9,1.3,0.6
		C94.1,151,94.8,150.7,94.5,150.3z M93.9,146.6c-0.3,0-0.8,0.5-0.8,0.8c0,0.2,1,1.5,1.7,2.1c0.6,0.5,0.9,0.7,1.2,0.3
		c0.3-0.4,0.2-0.8,0-1.1C95.6,148.2,94.5,146.7,93.9,146.6z M97.3,147c0-0.4-1.3-2.1-1.7-2.2c-0.3,0-1,0.8-1,1.1
		c0,0.2,0.3,0.6,0.7,1.1c0.9,1,1.1,1.3,1.3,1.1C97,147.9,97.4,147.4,97.3,147z M98.8,145.2c0.1-0.4-0.1-0.7-0.6-1.4
		c-0.6-0.8-0.9-0.8-1.5-0.2c-0.2,0.2-0.3,0.4-0.3,0.5c0,0.3,1.3,2,1.6,2C98.4,146,98.6,145.6,98.8,145.2z M96.4,149.3
		c-0.1,0.5-0.3,0.9-0.9,1.1c-4,2.9-3.9,7.6-4.7,11.9c-6.5-0.1-16.8,2.6-16.7,2.7l34.5-34.8c0,0,0.4,0.1,0.2,0.4
		c-2.8,2-2.6,5.9-4.5,7.9C101.3,142.3,98.4,145.5,96.4,149.3z M77.7,163.5c0.1-0.4-0.3-0.5-0.6-0.2c-0.3,0.3-0.2,0.6,0.3,0.5
		C77.6,163.8,77.7,163.7,77.7,163.5z M88.4,162c0.1-0.3-0.2-0.6-2-2.7c-1.9-2.1-2.3-2.6-2.6-2.6c-0.3,0-0.9,0.7-0.9,1
		c0,0.1,0.3,0.5,0.7,0.9s1,1.1,1.5,1.7c0.8,0.9,1.2,1.4,1.5,1.6c0.3,0.2,0.5,0.2,1,0.2C88.2,162.2,88.3,162.2,88.4,162z M91.6,155.5
		c0.1-0.4,0.3-0.8,0.3-0.9c0-0.3-2.4-2.7-2.8-3c-0.5-0.3-1.4,0.7-1.2,1.3c0.1,0.2,0.8,1,1.6,1.8c1,1.1,1.5,1.6,1.7,1.6
		C91.4,156.3,91.4,156,91.6,155.5z M92.5,153c0.2-0.3,0.3-0.6,0.3-0.7c0-0.2-0.4-0.7-1-1.3c-1.1-1.2-1.3-1.3-1.9-0.8
		c-0.6,0.6-0.4,0.8,0.6,2C91.9,153.6,92,153.7,92.5,153z M101.6,141.7c0.4-0.5,0.4-0.7,0-1.1c-0.2-0.2-0.4-0.4-0.5-0.6
		c-0.3-0.4-0.8-0.3-1.2,0.2c-0.2,0.2-0.4,0.5-0.4,0.6s0.2,0.4,0.5,0.7C100.7,142.2,101.1,142.2,101.6,141.7L101.6,141.7z M103,139.9
		c0.3-0.4,0.1-0.9-0.4-1.3c-0.5-0.4-0.7-0.5-1-0.1c-0.4,0.5-0.4,0.7,0.1,1.2C102.2,140.3,102.6,140.4,103,139.9z M104.1,138.4
		c0.4-0.4,0.4-0.7,0-1.1c-0.3-0.4-0.6-0.5-1-0.3c-0.6,0.3-0.5,0.8,0.1,1.4C103.5,138.7,103.7,138.8,104.1,138.4z M77.7,212.7
		c7.1,0.8,14.7,1.3,28-0.7l0.1-4.5c-4.2,3.3-9.6,1-10-2.7c0-3.3,0.9-7.2,1.6-9.9c0.6-2,0.7-2.8,0.2-3.2c-1.2-0.7-3.2-0.7-3.7-2.1
		c-0.3-0.7-0.3-1.5,0.1-0.9c0.2,0.3,1.5,0.9,2.5,1.1c1.8,0.4,2.1,0.5,2.3,1.3c0.1,0.5-0.2,2.1-0.6,3.6c-0.3,1-0.7,2.7-0.7,3.1
		c0,0.4,0.3,0.4,0.6,0.3c0.1,0,0.8-0.7,1.2-1c1.7-1.6,2.2-1.5,0.8,0c-0.6,0.6-1.4,1.4-1.4,1.5c0,0.3,0.3,0.3,1,0
		c1-0.4,3.4-0.3,4.5,0.2c1.3,0.7,1.4,0.6,1.4-1.4c-0.2-3.8-0.9-8.3-2.1-11.8c-1.9-5.4-5.8-10.3-11.6-10.1
		c-7.1,0.4-11.3,3.2-16.1,6.6c2.9,6.4-1.3,11.4-2.8,12c-0.1,0.1,1.9,6.5,2.8,9.8C76.3,206.6,77.7,212.7,77.7,212.7z M107.7,57.4
		c-0.2-0.4-4.1-13.2-5.2-18.6c-10.6-0.6-18.5-1.5-27.8,1.2c0,0-0.2,3.6-0.1,3.8c0.1,0.4,0.4,0.4,0.7,0.3c4.3-2.4,9-1.3,9.3,4.5
		c0.1,2.2-0.6,3.8-0.8,5.9c-0.1,1.9-1.6,4.3-0.7,5.7c0.1,0.2,0.7,0.5,1.6,0.9c1.6,0.7,2.2,1.3,2.3,2.3c0.2,0.7-0.3,1.2-0.4,0.5
		c-0.1-0.5-0.2-0.9-2.1-1.5c-1.9-0.7-2.4-1.4-2.6-1.8c-0.3-0.6-0.2-0.9,0-1.8c0.5-1.9,1-3.8,1-4.7c0-0.3-0.4-0.2-0.8,0.2
		c-0.6,0.5-3.1,2.1-3.1,2.1c0,0,0.4-0.7,1.1-1.4c0.8-0.8,1.9-1.8,1.9-2c0-0.3-0.1-0.1-0.9,0.1c-1.4,0.4-3.1,0.3-4.2-0.2
		c-0.9-0.4-1.6-0.7-1.7-0.4c-0.3,5.7,0.5,11.6,2.9,16.2c2.1,4.2,6.6,9.4,13.3,8.2c6.9-1.2,13.6-6.8,13.4-6.8
		C102.1,64.3,105.1,60,107.7,57.4L107.7,57.4z M52.9,213c-5-4.3-12.7-7.3-17-8.3l0,10.9l-9.5,9.1v4.2h20.4l13.4-19.6
		c0,0,0.6-0.1,0.7-0.2c-2.5-10.4-6.1-18.7-8.5-22.9c0,0.1-3.4,2.8-6.4-0.6c-1.7-1.9-0.7-5.2,0.9-6.4c-1.3-1-4.1-2.8-6-3.3
		c-0.4-0.1-0.9,0.7-1.1,1.4c-0.3,1.1-0.9,2.1-1.3,3.3c-0.4,1-0.8,1.1-1.4,0.8c-1-0.3-1.2-0.4-1.2-0.4l0,12.4
		C43.2,196,50.7,202.5,52.9,213z M83.3,80.6l2.2-2.4c-3.4-0.4-7-1-11.2-2.4C77.2,78.1,80.3,79.4,83.3,80.6z M71.4,74
		c0,0,8.7,4.3,14.7,3.1c-5.5-2.2-9.7-7.3-11.5-17.7c-0.4,2-1.2,6.2-2.5,6.7c-1.8-6.9-9-2.9-6.1,2.7c-7.3,5-16,7.8-23.9,11.7
		c0,0-1.2,3.7-7.1,8.7c-0.6-5.8,0.2-14.6-0.5-20.5l-9.3-8.8c0.1,1.7,0.1,2.7,0,4.7c0.3,0.3,0.6,0.5,1,0.7
		c0.6,33.9-0.2,98.2-0.2,98.2c0.1,19,0.4,37.9,0.1,56.7l-0.3,4.5l9.5-9.1c0,0-0.4-6.4,0.1-11.3c6,1.2,11.6,4,16.6,7.1
		c0.6,0.2-3.1-12.3-16.6-17.9c0,0,0-3.9,0-12.4c0-8.2-0.1-9.1-0.3-9.2c-0.5,0.6-7.4,2.9-7.8,2.5c0.2,0.1-1.9-14.5-0.1-16.7l6.6,0.1
		c1.9,1.5,1.1-0.3,2.2-0.6c0.7-0.2,3.7,1,3.7,1c12.6-14.9,11.3-39.3,2.3-53.1c-2.3,1.9-4.8,4.4-7.1,5.5l0-7.6
		C46.9,95.4,60,73,59.2,73c0,0,3.7,3.6,5.2,5.7L52.5,95.8c2.7,5.5,5.5,10.4,7.3,15.3c0.2,0.7,1,0.6,1.2,1.3c0.2,0.6-0.6,1.4-0.5,2
		c2.5,9.6,3.1,19.8,0.6,29c-0.5,2.1,0.4,3.8,1.7,5.3c0.1,0.1-1.2-1.1-1.3-1.2c-0.4-0.3-1.2,0.7-1.3,1.8c0.1,0.7,0.5,0.9,1,1.4
		c0.9,0.8,4.6,4.3,6.2,6c1.4,1.5,1.8,1.5,2.8,0.5c0.3-0.3,0.6-0.6,0.8-0.8c0,0.1,0.4-0.3,0.5-0.4l21.4-20.9c2.5-2.4-21.4,22-21.4,22
		S59.8,168.5,57,171.3c-2.9,2.9-3.3,3.5-3.4,3.7c-0.2,0.4,0.9,0.4,1.5,0.3c0,0-0.4,0.1-0.9,0.1c-3-0.4-4,2.7-5.9,3.3
		c-5,3.6-1.6,9.3,3.2,7.4l1.2-0.6c2.9,5.4,7.1,15.3,9.1,23.9l-0.8,0.4l-12.7,19H120c-5.2-5.1-9.6-11.5-14-16.2
		c-7.2,2.1-28.9,1.7-28.5,0.8c0,0-3.3-13.3-5.1-19.8c5.9-5.1,5.3-13-3.3-16.6c6.2-4.9,12.5-6.6,18.6-7c2,5,6.6,5.4,8.8,0.7
		c0-0.1,8.3,2.5,11.3,5.3c-4.5-0.5-9-1.4-13.5-1.6c4,1.6,8,5.7,9.3,10.4c0.6,1.7,1.6,7.2,1.9,7.2c0,0,1.5-6.4,2.7-6
		c3,6.2,8.1,1.5,5.9-3.4c7.6-3.6,16.1-7.7,23.1-11c2-3.1,7-8.7,7.3-8.7l0.3,19.8l9.1,8.4c0,0,0.3-85.4,0.3-98.2
		c-0.3-21.2-0.1-45.5-1-65.4V22h-19.4l-13.9,20.4c0,0-0.1,0.3-0.1,0.5c1.9,8.2,4.3,15.3,8.1,22.9c5.3-4,9.7,2.6,5.8,6.4
		c-0.4,0.4-0.8,0.9-0.8,0.9c2.6,1.2,4.7,2.6,7,3.5c0.9-1.3,1.2-3.3,1.8-4.8c0.2-0.6,0.6-0.6,1.5-0.5c1.1,0.1,1.1,0.6,1.1-6.5l0-6.1
		c-6.8-3.1-15.7-11-16.1-19.2c3.9,2.8,13.6,7.7,16,8.1c1.1,0.3,0.2-2.3,0.2-3c0.3,0.2,0.4,3,0.4,3c-4-1.2-6-1-15.9-6.7
		c1.7,8.1,9.8,14.5,15.7,17.4c0,0,0.2,3.8,0.2,8.1c0,13.1,0.1,13.8,0.1,13.8c1.9-0.2,2.4-1.5,8.5-2.3c0.5,5,0.4,10.9,0.1,15.7
		c-4.9,1.1-7.3,2.2-8.4-1c-0.3,0.1-0.4,1.3-0.5,2.6c-0.1,0.6-3.4-0.5-3.7-0.7c-14.1,16.3-12.9,35-3.3,52.4c1.6-1.1,4.3-3.1,7-4.5
		c0.1,2.2,0.1,6.8,0.1,6.8c-11.1,8.1-24.3,29.6-23.9,29.7l-4.5-5.4c0,0,2.8-4.5,3.8-5.7c0.1-0.1,0.2-1.5,0.2-1.5l6.9-9.9
		c-2.9-6.6-6.9-11.7-8-18.2c-4.6-20.7,0.4-31,0-31.8c0,0-0.1-0.4-0.2-0.5c-0.2-0.1,0-0.2,0.2-0.5c0.3-0.6,0.8-1.8,0.7-2.1
		c-0.1-0.3-3.8-4-7-7c-1.7-1.6-1.6-1.8-2.5-0.9c-0.3,0.3-1.1,1.3-1.1,1.3c-11.5,10.7-20.6,20.4-32.2,31.7l-0.6-0.5
		c16.8-16.7,33.8-33.3,50.4-50.1l-2.9,0c0.1-0.2,0.2-0.4,0.4-0.5c1.6,0,3.2-0.5,4.3-1.1c2.4-1.8,5.8-4.1,6-6.5
		c-0.2-4.5-3.9-5.1-6.7-2.9c-3.8-6.8-6.8-15-8.4-22.7c-0.1-0.4-0.6-1-0.7-1.5c0.8-2.5,13.7-20.1,13.7-20.1H60.4l13.8,16.4
		c0-0.7,19.6-3,28.6-0.2l5.5,19.4c-5,4.8-6.4,12.7,2.7,16.8c0.2,0.4-0.9,1-0.9,1c0.1-0.2,0.4-0.5,0.3-0.7c-2.5-1.1-5.1-3.8-5.1-3.8
		c-5.5,4.3-10.6,6.7-15.7,6.9c0,0,2.7,1.8,3.2,3.8c-3.2-5-6.3-3.8-9.3-0.9C79.5,79,77.1,79.5,71.4,74L71.4,74z M70.7,121.5l2-2
		c0.2-1.5,0.6-3.3,2.3-5.4c1.9-2.3,4-4.4,5.5-6.4c1.8-2.4,2.8-4.6,2.4-5.6c2.7-0.5,5.2-2.9,5.3-7.3c0-2.3,1.1-5.7,1.2-5.6
		c0,0,19.1-0.7,32.2-13.2c0,0,0.9,0.2,0.7,0.4c-5,5-10.3,8.7-16.5,11L71.3,122L70.7,121.5z M74.5,117.6c0.5-0.5,0.6-0.7,0.3-0.9
		c-0.4-0.4-1.3,0.4-1.3,1.2C73.5,118.3,73.9,118.1,74.5,117.6L74.5,117.6z M76.3,115.8c0.4-0.4,0.4-0.7,0.1-1
		c-0.5-0.5-1.1-0.2-1.4,0.6C74.7,116.1,75.6,116.4,76.3,115.8L76.3,115.8z M77.9,114.2c0.2-0.2,0.4-0.5,0.4-0.5
		c0-0.3-0.7-0.9-0.9-0.9c-0.4,0-1,0.6-1,1c0,0.3,0.7,0.9,1,0.9C77.4,114.7,77.6,114.5,77.9,114.2z M79.3,111.3
		c-0.5-0.4-0.8-0.4-1.2,0c-0.5,0.5-0.4,0.9,0.1,1.4c0.4,0.4,0.6,0.4,1.1,0C79.9,112.2,80,111.8,79.3,111.3z M81.1,111
		c0.5-0.4,0.4-0.8-0.1-1.3c-0.6-0.6-1-0.6-1.4,0c-0.2,0.2-0.2,0.5-0.2,0.5c0,0.2,1,1.1,1.2,1.1C80.7,111.3,80.9,111.2,81.1,111z
		 M82.8,109.3c0.4-0.5,0.4-0.8-0.2-1.4c-0.5-0.5-0.9-0.6-1.3-0.2c-0.5,0.4-0.4,0.9,0.2,1.4C81.9,109.8,82.3,109.8,82.8,109.3z
		 M84.7,107.4c0.3-0.3,0.2-0.3,0-0.7c-0.3-0.6-1.4-1.5-1.6-1.5c-0.4,0-0.7,0.6-0.7,1.2c0,0.6,0.3,0.8,1,1.4c0.5,0.4,0.3,0.4,0.7,0.2
		C84.2,107.8,84.5,107.6,84.7,107.4L84.7,107.4z M86.2,106c0.7-0.8,0.5-0.9-1.1-2.7c-0.6-0.6-0.7-0.7-1.1-0.6
		c-0.4,0-0.4,0.1-0.6,0.5c-0.4,0.7-0.1,1.1,0.9,2.2C85.4,106.6,85.6,106.7,86.2,106z M87.8,104.2c0.3-0.2,0.4-0.5,0.4-0.7
		c0-0.3-1.3-1.8-1.8-2c-0.3-0.2-0.7-0.1-1.1,0.3c-0.3,0.2-0.3,0.3-0.2,0.5c0.1,0.4,1.8,2.2,2.1,2.2
		C87.4,104.5,87.6,104.5,87.8,104.2z M89.5,102.6c0.3-0.3,0.5-0.6,0.5-0.8c0-0.3-1.4-2-1.9-2.2c-0.4-0.2-0.6-0.1-1,0.4
		c-0.4,0.6-0.3,0.9,0.6,1.9c0.8,0.9,1.1,1.2,1.2,1.2C89,103.1,89.2,102.9,89.5,102.6z M91.1,100.9c0.4-0.2,0.8-0.7,0.6-1.1
		c-0.2-0.4-2.7-3-3-3.2c-0.5-0.3-0.5,0.1-0.5,1.4v0.7l1.2,1.1C91.1,101.6,90.7,101.2,91.1,100.9z M93.1,99.1
		c0.2-0.2,0.4-0.5,0.4-0.7c-1-1.3-4.1-5.3-4.6-5.1c-0.1,0-0.1,0-0.1,0.1c-0.1,0.4-0.2,1.2-0.1,1.9c1,0.9,3.2,3.9,3.7,4.1
		C92.7,99.5,92.8,99.3,93.1,99.1z M94.7,97.4c0.2-0.2,0.3-0.4,0.3-0.6s-0.3-0.5-0.7-1c-0.4-0.4-1.1-1.3-1.6-1.9
		c-2.8-3.6-3.1-3.8-3.5-3.5c-0.3,0.2-0.4,1.1-0.2,1.4c0.2,0.5,3.4,4.3,4.4,5.3C94.1,97.8,94.3,97.8,94.7,97.4z M96.4,95.8
		c0.2-0.2,0.4-0.5,0.4-0.7s-0.5-0.7-0.9-1.3c-0.5-0.6-1.3-1.5-1.8-2.1c-1.3-1.6-1.3-1.6-2.2-1.7c-1.4-0.1-1.3,0.2,0.4,2.1
		c0.4,0.5,1.1,1.4,1.7,2c1.2,1.5,1.7,2.1,2,2.1C96,96.2,96.1,96,96.4,95.8z M98,94.1c0.7-0.6,0.6-0.8-1.8-3.3
		c-0.8-0.8-0.8-0.9-1.5-0.9c-0.6,0-0.8,0.1-0.8,0.4c0,0.2,3.1,3.9,3.4,4C97.6,94.4,97.7,94.5,98,94.1z M99.8,92.3
		c0.2-0.2,0.4-0.5,0.4-0.6c0-0.3-0.7-1.1-1.3-1.7c-0.3-0.3-0.7-0.5-0.9-0.5c-0.4,0-1.1,0.2-1.2,0.4c-0.1,0.1,0.9,1.3,1.8,2.2
		C99.1,92.8,99.3,92.9,99.8,92.3L99.8,92.3z M101.3,90.8c0.4-0.4,0.4-0.7,0-1.3c-0.3-0.4-0.4-0.4-1-0.4c-1.1,0-1.2,0.3-0.3,1.2
		C100.7,91,100.9,91.3,101.3,90.8z M103,89.2c0.4-0.6,0.1-0.9-0.7-0.5c-0.2,0.1-0.3,0.3-0.3,0.4C101.8,89.6,102.6,89.7,103,89.2z
		 M75.4,93.9c-1.6,1-4.3,2.9-6.1,4.2c0,0.3-0.1,1,0,1.5c1-0.7,4.3-2.8,5.9-4C75.3,95.1,75.4,94.3,75.4,93.9L75.4,93.9z M78.4,89.3
		c-0.1-0.3-0.2-0.1-0.7,0.3c-0.6,0.5-5.9,4.4-7.2,5.4c-0.5,0.4-1,0.7-1.1,0.8c-0.1,0.1-0.1,1.2,0.1,1.4c1.1-0.9,6.5-4.5,6.6-4.6
		C76.6,91.7,77.8,90.1,78.4,89.3L78.4,89.3z M77.8,101c0,0-6.4,7.7-8.5,11.6c0,0,0,4.4-0.1,6.9l-0.4,0.1c0,0,0-6.8-0.1-14.2
		c-0.2-18.4-0.4-22.9-0.4-22.9L66.2,81l-0.1-0.7c0,0,9.3,6.5,13.8,7.5C76.6,92.9,73.6,94.9,77.8,101L77.8,101z M70.1,110.2
		c0.1-0.3,0-0.3-0.2-0.3c-0.2,0-0.3,0.2-0.3,0.4c0,0.2,0,0.3,0.2,0.2C69.9,110.5,70.1,110.4,70.1,110.2z M71.7,107.9
		c0.9-1.1,1.7-1.9,1.8-2.7c-0.6,0.1-4,2.5-4.1,2.7c0,1.3-0.3,1.4,0.8,0.9C70.7,108.6,71.1,108.2,71.7,107.9z M72,105.1
		c1-0.8,4.6-2.8,5-3.7c0.2-0.4-0.4-0.9-0.4-0.8c0.1,0.1-5.2,3.2-7.1,4.9c-0.2,0.2-0.1,0.6,0,0.9C69.7,106.8,70.1,106.4,72,105.1z
		 M70.8,103.6c1.1-0.7,3.6-2.5,4.3-2.9c1.1-0.8,1.3-1,0.9-1.6c-0.2-0.2-0.4-0.4-0.7-0.2c-3.1,2.2-3.4,2.5-5.8,4.1
		c-0.2,0.4-0.1,1.1,0.1,1.3C69.8,104.3,70.1,104,70.8,103.6z M70.8,101.2c2.9-2.1,4.4-3.1,4.5-3.3c0.1-0.3,0.1-1.2,0-1.3
		c-1.1,0.8-3.9,2.5-5.8,4.1c-0.1,0.3-0.1,1,0,1.2C69.8,102,69.9,101.8,70.8,101.2L70.8,101.2z M70.4,93.8c2.1-1.5,4-2.9,6.2-4.3
		c1.8-1.2,2.1-1.5,1.4-1.9c-0.2-0.1-0.7-0.3-1-0.2c-2.4,2-5.1,3.8-7.7,5.8c-0.1,0.3,0,0.8,0,1.1C69.2,94.6,69.7,94.3,70.4,93.8
		L70.4,93.8z M70.1,91.6c0.2-0.1,1.3-0.9,2.4-1.7c3.1-2.2,3.5-2.5,3.5-2.7c0-0.7-0.9-0.8-1.7-0.1c-1.5,1.2-5.1,3.4-5.1,3.8
		c0,0.5-0.1,0.9,0,1.1C69.4,92.2,69.7,92,70.1,91.6L70.1,91.6z M71,88.5c3.2-2.2,3-2.1,3-2.5c0-0.3-0.3-0.2-0.8-0.2
		c-0.5,0-0.5,0.1-1.3,0.8c-1.8,1.4-2.5,1.8-2.7,2.2c-0.1,0.1-0.1,0.6,0,0.8C69.5,89.7,69.7,89.4,71,88.5z M71.2,86.3
		c0.6-0.5,1.1-0.9,1.2-1c0.1-0.2-0.4-0.7-0.7-0.7c-0.4,0-0.7,0.2-1.6,1c-0.8,0.7-1,0.6-0.9,1c0,0.2,0,0.8,0.1,0.8
		C69.4,87.8,69.9,87.5,71.2,86.3z M70.3,83.7c-0.4-0.4-1-0.6-1.2-0.3c-0.2,0.2,0,1.4,0,1.6c0,0.4,0.5,0.2,1-0.2
		C70.6,84.3,70.8,84.2,70.3,83.7z M84.3,72.8c0-0.2,1.2-1.1,2-1.3c1.1-0.2,2.5-0.1,3.5,0.4c0.8,0.4,1.8,1.4,0.4,0.8
		c-1.2-0.6-3.9-0.6-4.9-0.1C84.6,72.9,84.3,73,84.3,72.8z M83.4,68.5c0.1-0.1,1.3,0.2,1.9,0.4c1.7,0.5,3.1,0.2,4.9-0.3
		c0.4-0.1,0.6,0.2,0.4,0.4c-0.9,0.6-2.1,1-3.1,1.1C85.2,70.2,82.8,69.1,83.4,68.5L83.4,68.5z M72.3,65.3c1-0.5,2.2-7.1,1.8-8.3
		c-1.2,1.8-2.5,2.6-4.4,2.3c-3.1-0.5-3.2-4.3-0.8-4.7c0.9-0.2,2.1,0.5,2.3,0.3c1-0.5,1.8-3.9,2-5c0.2-1.1,0.4-4.1,0.5-5
		c0.1-2,0-5,0-5L58.9,22H26.3c0,0-0.1,25,0,37.8l9,8.9l0.1,14.4c10.4-4.5,20.4-9.3,30.2-14.4c-1.1-1.4-1.1-4.8,1-6.1
		C69,61.1,71.9,62.5,72.3,65.3z M80.6,68.2c0.1-0.8,0.7-1.5,0.7-2.3c0-0.2,0.1-0.4,0.6-0.1c0.6,0.3,0.8,0.1,1.5-0.2
		c1.3-0.6,1.6-0.6,2.6-0.2c0.6,0.3,0.8,0.3,1.4,0c0.8-0.5,1.7-0.7,2.4-0.5c1.1,0.4,1.4,0.6,2,0.3c0.3-0.1,0.7-0.7,0.8-0.7
		c0.4,0.7,0.3,1.7,0.6,2.3c0.5,1,0.3,1.7-0.3,1.2c-1.2-1-2.2-1-3.9-0.6c-1,0.3-1.5,0.5-2.7,0.3c-3.5-0.4-3.8-0.3-4.5,0.2
		C81.2,68.4,80.7,68.4,80.6,68.2L80.6,68.2z M90.1,61.8c-1-0.3-2.2-1.2-3-0.9c-1,0.1-1.6-1.2-1.1-1.8c0.9-0.9,2.3,0,2.9,0.4
		c1.2,0.9,1.4,1,1.9,1c2,0,1.6-1.9,0.6-2.6c-0.6-0.6-0.6-1-0.5-1.1c0.2-0.2,0.8,0,1.4,0.6c1.2,1.1,1.2,3.4-0.2,4
		C91.3,61.8,90.8,62,90.1,61.8z M94.2,55.4c-0.9-0.7-2.6-2.2-3-2.7c-0.7-0.9-1-1.5-0.9-2.2c0.1-0.6,0.2-0.9-0.2-1.1
		c-0.4-0.2-0.8-1.1-0.7-1.5c0-0.1,0.5-0.1,0.7,0.3c0.3,0.1,0.3-0.1,0.6-0.4c3.8-2.5,6.8-2.1,10.4-0.3c1,0.5,3.8,2.6,2.3,1.9
		c-0.1,0-1-0.5-2-0.9c-3.1-1.5-6.6-2.4-9.4-0.5c-0.5,0.3-0.8,0.6-0.4,0.6c1.6-0.3,3.2-1,4.8-0.9c2.4,0,3.9,1.2,5.7,2.1
		c2,0.9,2.4,1.2,1.6,1.9c-0.2,0.2-0.4,0.2-1.3,0.1c-1-0.1-1.1,0-1.7,0.3c-1.5,1-3.5,1.5-5.2,1.4c-2.1-0.2-2.3-0.3-2.3,0
		c0,0.2,0.4,0.5,1,1.1c0.5,0.4,1.1,1,1.1,1.1C95.6,55.9,94.8,55.8,94.2,55.4z M92.9,50.5c-0.3-0.3-0.5-0.2-1,0.2
		c-0.4,0.3-0.5,0.5-0.1,0.9c0.8,0.7,1.8,0.8,1.8,0.5C93.7,51.8,93.2,50.8,92.9,50.5z M96.8,52.2c0.8-0.4,1.7-1.8,1.3-2.3
		c-0.2-0.3-0.4,0-0.9,0.8c-0.2,0.4-0.6,0.8-0.7,0.9c-0.7,0.5-1.6,0-2-1c-0.2-0.6-0.5-1-0.7-0.8c-0.5,0.4,0.1,2,1,2.4
		C95.4,52.5,96.2,52.5,96.8,52.2z M99.4,52c0.8-0.3,1.2-0.6,1.2-1c-0.1-0.3-0.7-0.7-1.1-0.7c-0.2,0-0.5,0-0.7,0.2
		C98.5,50.9,98,52,98,52.1C98.1,52.4,98.4,52.3,99.4,52z M102.3,45.7c-4.2-1.6-7.5-2.3-11.5-0.5c-1.3,0.6-2,0.6-2.1,0.2
		c-0.1-0.4,0.9-1.5,1.9-2c2.8-1.3,6.1-1.4,9,0c1.1,0.5,4,2.6,4,2.8C103.5,46.2,103.2,46.1,102.3,45.7z M151.5,92.9
		c1-0.5,1.5-1.6,0.8-2.2c-0.2-0.2-0.4-0.2-0.6-0.2c-0.4,0-3,0.7-3.5,1c-0.3,0.2-0.2,0.5,0.1,0.8c0.1,0.1,0.3,0.4,0.3,0.7
		c0,0.4-0.1,0.8,0.2,0.7C149.4,93.6,150.2,93.4,151.5,92.9z M147.8,93.8c0.3-0.5,0.2-1.2-0.6-1.7c-0.4-0.2-0.7-0.1-1,0.4
		C145.4,93.9,147.3,94.5,147.8,93.8z M144,94.5c0.2-1.7,0.1-6.9,0.1-6.9s-0.9,0.8-1.5,0.8c0.2-0.8,0.5-1,0.8-1.8
		c0.2-0.8,0.3-2.2,0.2-2.9c-0.1-0.9-0.7-0.9,0-2.4c0.3-0.8,0.4-1.6,0-2.6c-0.2-0.5-0.2-0.8,0.2-1.4c0.4-0.6,0.3-0.9,0.3-2
		c0-1.6,0-1.9-0.5-0.6c-0.7,1.1-1.1,0.9-2.2,0.8c-1.1,2.5-2.4,5-2.4,7.2c0,1.3,0,1.5,0.8,4.3c0.3,1,0.4,1.4,0.4,2.6
		c0,1.2,0.1,1.6,0.3,2.3C140.7,93,142,95,144,94.5L144,94.5z M105.8,205.2l0-2.5c0,0-4,1.2-6,0.5c-2.1-0.6-2.1-0.7-2-0.4
		c0.1,0.4,1.6,1.2,3,1.5c1,0.2,3,0,4-0.3c0.6-0.2,0.6,0,0.4,0.2c-2.4,1.9-5.5,1-7.4-0.6c-1-1-1.7-1-1.2,0.3
		C99.3,209.4,105.9,206.2,105.8,205.2L105.8,205.2z M103.1,201.5l0.9,0c0,0-0.3-1.6-0.7-2c-1-0.9-2.3-0.8-3.2,0.1
		c-0.4,0.4-0.7,1.9-0.7,1.9l0.7,0C100.4,200.9,101.6,197.6,103.1,201.5z M99.5,199.2c-0.5-0.1-1.6,0.4-2.2,0.7
		c-0.2,0.2-0.2,0.3,0,0.6c0.5,0.7,1.3,1,1.4,0.8C99,200.9,99.6,199.3,99.5,199.2z M105.5,200.9c0.1-0.5-0.3-1.3-1-1.6
		c-0.3-0.1-0.6-0.1-0.5,0.2c0.1,0.4,0.3,1,0.5,1.4c0.1,0.3,0.2,0.5,0.5,0.3C105.2,201.2,105.4,201.1,105.5,200.9z M144.1,168.1
		l0-4.2c-2.1,2.1-4.9,5.7-5.7,7.1L144.1,168.1z M79.5,52.5c0.9-0.4,1.6-1.6,1.3-2.1c-0.1-0.4-0.5-0.1-0.9,0.5c-0.6,0.9-0.8,1-1.3,1
		c-0.6,0-0.8-0.1-1.2-0.9c-0.3-0.7-0.5-0.8-0.7-0.5c-0.1,0.1-0.1,0.3,0,0.9C77.2,52.6,78.2,53.1,79.5,52.5z M81.9,52.1
		c1-0.3,1.2-0.5,1.2-0.8c0-0.3-0.8-0.8-1.3-0.7c-0.3,0.2-1.2,1.5-1.1,1.8C80.8,52.5,81.1,52.4,81.9,52.1z M76.2,51.5
		c0-0.3-0.1-0.6-0.2-0.7c-0.3-0.4-1-0.1-1,0.4c0,0.4,0.5,0.8,1,0.8C76.3,52,76.2,52,76.2,51.5z M81.8,49c1.4,0.5,2.1,0.6,1.4-0.1
		c-1.1-1.2-5.9-2.5-8.5-0.6c-0.2,0.3-0.1,1.3,0.1,1.2C76.8,48.1,79.5,48.1,81.8,49L81.8,49z M77,44.9c-1.2,0.4-2.3,1-2.4,1.6
		c-0.2,0.9,0.2,0.9,1.7,0.5c2-0.7,4.2-0.4,5.9,0.6c1.3,0.9,1.7,0.6,1.5-0.2C82.9,44.8,78.9,44.4,77,44.9L77,44.9z"/>
	<path class="st3" d="M153.3,28.1l-8.7,8.7l0.1,10.3c0.9,1.6-13.5-4.6-15.8-6.5c0.3,6.9,9.6,14.7,15.7,17.5l0.2,21.9
		c2.5-1.3,5.6-2.1,7.8-2.3C153.7,62.8,154.8,43.4,153.3,28.1z M104.6,38.8c-0.9,0-1.4,0.2-1.4,0.8c-0.3,0,3.2,12.8,4.8,18.2
		c-6.9,6.7-3.8,14,2.8,16.6c0.8,0.7-9.4,7.3-18.4,7.3c-2.9-6.4-6.9-2.8-9.2-0.6c-1.7-0.2-8.2-4-11.6-6.2c-0.1,0,0-1,0-1.1
		c0.2,1.5,13,4.8,13.6,3.3c-0.4,0-5.7-3.6-7.3-7.2c-2-4-3.5-9.6-3.5-9.6C73.8,62.2,74,65,72.1,66c-0.6-6.7-10.1-3.3-5.4,3.3
		c-2.7,0.8-5,2.2-7.5,3.3C64.6,80,72,84.9,79.9,87.8c-1,2.2-7.2,7.2-2.1,13.1c0.2,0.2-4.8,5.7-7.3,10c-1.9,3.2-1.3,5.7-1.1,5.8
		c6.8-7.8,10.7-14.5,10.7-14.5c-0.1,0.9,8.1,0.4,8-6.9c0.2-2,0.5-4.1,1.3-6c12.5,0.6,23.2-3.9,32.3-13.2c3.3,1.7,7.1,0.3,9.5-2.5
		c1.4-1.1,2.7-2.2,3.2-3.3c1.8-7.7-6.1-4.7-6.4-4.3c-4.5-6.1-8.3-23.4-8.9-23.5C116.5,42.1,108,38.8,104.6,38.8z M73.9,50.6
		c-0.3,0-1.5,5.4-2.6,5.3c-4.5-2.9-4.6,3.1-0.7,2.8C73.9,58.5,75.7,53.2,73.9,50.6L73.9,50.6L73.9,50.6z M25.9,60.8
		c0.1,32.6,0.6,65.1,1.3,97.7c2.9-0.7,5.1-1.3,8,0c0.3-9.3-0.5-32.6-0.3-55.2c11-8.6,18.7-18,24.1-30.3l-16.8,7.9
		c0,0-5.5,7.9-7.2,8.4C34.8,88,34.5,74.7,34.7,69L25.9,60.8z M63.1,80.9l-3.3,4.8c0,0,0.1,16.4,0.3,24.3c0.1,1.6,1.6,3,0.4,4.4
		c0.7,0,3.7,21.3,0.8,29.9c-0.5,1.5,0,2.6,0.8,3c4.1,4.6,6.4,9,11.9,6.4c5.9-5.4,14.4-15,14.4-15L66,117.6
		C64.1,112.4,63.1,80.9,63.1,80.9z M144.5,149.3c-9.7,8.1-19.4,18.4-23.2,29.7c5.4-2.2,10.6-4.8,15.9-7.3c2.6-3.1,4.5-6,7.4-9
		c0,0,0.3,13.3,0.1,20c2.6,2,8.9,8.1,8.9,8.1c0,0,1.7-94.8-2-97.2c-3.6,0.7-5.4,2-6.8-2.2C143.8,110.8,144.5,149.3,144.5,149.3
		L144.5,149.3z M109.4,96c-3.9,3.2-17.3,16.4-17.3,16.5c3.6,6,17.6,17.9,24.3,24.6l1,34.1c1-1.3,1.7-2.6,2.8-3.9
		c0,0-0.2-17.2-0.6-25.3c-0.1-2.4-0.7-4.3-0.5-4.5c-1.9-9.8-2.7-20.7,0-31.2C112.7,100.7,110.7,97.1,109.4,96L109.4,96z
		 M110.4,134.8L110.4,134.8c-3.3,4.7-9.6,14.9-10.1,14.9c-0.1-0.3-6.5,0-7.7,4c-1,3-1.1,5.7-1.8,8.8c-12.8-0.4-22.1,3.6-32,12.7
		c-4.8,0-8.4,1.1-10.1,3.1c-2.5,1.8-3.2,3.4-3.1,5.3c0.2,3.4,6.3,3.9,6.6,1.5c5.5,9.1,8.5,21.6,9.4,25.2c2.3,0.1,15.9,3.3,15.9,3.3
		c-1.6-7.9-3.5-13.4-5.3-19.8c9.8-8.2-1-17.1-3.6-16.7c5.6-4,12-6.7,19.1-7c1.1,3.9,6.2,6,8.7,0.7c0,0,11,3.9,11,5.2
		c-4.5-0.7-8.3-1-12.8-1.5c8.7,4.7,9,10.9,10.7,17.1c0.2-1.1,2.5-5.9,2.5-5.9c2.9,6.5,8.6,2,6.2-3.3l7-3.2
		c0.8-0.4-10.4-13-20.6-14.8c0.5-0.9,0.7-1.8,1.2-2.6c2.6-2.5,4.5-6.2,0.6-10.6c2.6-3.6,8.6-12.3,8.2-12.5
		C110.6,138.8,110.7,134.7,110.4,134.8z M26.4,175.1c0,0-0.3,30.3-0.1,45.3c-0.3,0.6-0.4,3.9-0.4,3.9l9.3-8.7l0.3-11.3
		c2.4-0.6,17.6,7.1,16.4,7.1c1.2-0.5-7-15.9-16.5-17.6c-0.2-8.7-0.3-18.6-0.5-21.2C31.6,173.1,26.4,175.1,26.4,175.1z M109,193.3
		c-2.6,0.8-3.7,6.3-2.8,8.9c0.2,0.5,0.1,0.6,0.5,0.1c1-1.5,0.7-4.5,2.5-6C113.9,197.7,113.4,191.5,109,193.3z"/>
	<path class="st1" d="M48.7,228.9l12.3-18.6c14.7,4.9,29.7,5,44.9,2.6l13.6,16H114l-8.5-12.2c-3.1,0.7-6.3,1-9.5,1.5l4,10.7h-4.3
		l-3.1-10.6c-7.4,0.3-12.4-0.4-17.5-1l-1.8,11.6h-4.4l3-12c-3.5-0.7-7-1.2-9.9-2.1l-9,14.1H48.7z M62.8,218l5.1,1.4l-2.5,9.6h-9.4
		L62.8,218z M76.1,228.9l1.4-8.5c3.4,0.7,7.9,0.8,12.6,0.8l2.2,7.7H76.1z M100.2,221.1l4-1.1l6,8.9H103L100.2,221.1z M41.4,167.3
		c19.7-22.9,17.1-46.9,6.2-66.3l2.3-2.4c12.6,20.7,15.2,50-7.9,72.8C41.8,170.1,41.4,167.3,41.4,167.3z M119.9,141.6
		c2.8,4.8,4.6,9.7,7.5,14.5l-7.1,9.6L119.9,141.6z M35.2,156.8c-0.2-15.1,0-45.7,0-45.7l6.6-5.1c7.9,9.6,12.3,35.1-2,52
		C38.9,157.2,36.1,157.6,35.2,156.8z M129.5,153.8c-18.2-30.7-8.9-53.2,8.7-73.1c0.1,1.5,0.1,3.1,0.2,4.6
		c-15.1,17.3-21.1,42.8-6.3,65.9L129.5,153.8z M96.6,149.2c2.1-3,11.2-14.7,9.9-15.8l2.7-2.6c0.5,0.5,1.5,1.5,1.5,1.5
		c-1.6,6.7-6.7,12.1-10.5,17.6L96.6,149.2z M140.6,94.4c0.3-0.3,3.6,1.1,3.6,1.1l0.2,46.4l-6.6,4.2
		C135.9,147.2,120.9,116.7,140.6,94.4z M71.2,114c3-4.1,6.2-7.6,9.1-11.4c0.8,0.3,2.7,0.3,2.7,0.3c0.2,0.1-0.7,3.1-2.8,5.2
		c-5.9,7.1-7.2,8.4-7.5,11.3c-0.1,0.9-2.2,2-2.2,2l-1.5-1.6C69.5,117.5,70.2,115.7,71.2,114z M52.5,96.2l6.8-8.9l0.5,23.1L52.5,96.2
		z M74.1,38.4L61,22.1h6.3l7.8,11.6l9.3-1.1l-3.3-10.5H85l2.7,10.3c5.7,0.1,11.3,0.6,16.7,1.1l2.8-11.5h3.9l-3.6,12l10.5,2.8
		l9.4-14.8h4.7l-13.3,19.1C101.5,35.9,87.6,36.5,74.1,38.4z M111.8,31.6l3-9.5l8.9,0l-6.8,10.9L111.8,31.6z M90.2,29.3l-1.9-7.2H104
		l-2,8C97.9,29.4,94.1,29.3,90.2,29.3z M71.4,22.1h6.3l2.4,7.4l-3.6,0.4L71.4,22.1z"/>
	<path d="M59,21l15.1,18.1c3.2-1.1,19-2.9,28.6-0.8c1.7,6.5,3.4,13.1,5.3,19c0,0-0.6,0.7-1,1.1c-6.1,7-1.8,13.8,3.8,16
		c-1,2.1-11.7,7.3-18.2,6.7c0-0.1-2-4.8-6.1-3.2c-1.4,0.5-2,1.6-3,2.6c-3.9-1.2-9-3.7-11.7-6.5c5,2.5,9.9,3.8,14.8,3.2
		c-8.2-3.5-10.5-11.8-12-18.5c-0.5,1.6-0.8,5.7-2.1,6.6c-0.4,0.2-0.4,0.2-0.7-0.7c-1.9-5.1-8.9-1-5.9,4.1L63.6,70v0.4l-1.4,0.7
		l-0.3-0.2c-6.6,3.2-13.1,6.5-19.9,9.6c0,0-3.6,6-6.9,8.3l-0.1-20.3l-9.7-8.8l0,4.8c0,0,0.5,0.5,0.7,0.7c0.1,33.9,0,67.3,0,98.2
		l0,28.4l-0.6,0l0,3.3l0.7,0.2l-0.1,4.7l-0.3,0l-0.1,3l0.5,0.1l0,16.7l-0.5,0.7l0,4.8l10.2-9.7v-11c8,1.5,16.6,7.3,16.6,7.3
		c-1.4-9.2-11.2-16.8-16.8-18.3l0-21.8c0,0-4.2,1.7-6.2,2c-1,0.1-1.4,0-1.9-0.7c-0.4-0.5-0.4-1,0-2.1c0.1-0.5,0.1-0.7,0-1.2
		c-0.3-0.7-0.3-1.1,0-2.4c0.3-0.8,0.2-1.2-0.1-1.9c-0.3-0.8-0.3-0.9-0.2-1.3c0.3-1.1,0.4-1.3,0.2-1.8c-0.4-1-0.4-1.7,0-2.4
		c1.5-2.5,4.9-1.9,6.7-1.8c0.9,1,1.5,1.6,1.6,0.1c0.6-1.8,3.2,0,4.3,0.8c10-13.4,14.9-31.5,2.4-54.2l-7,5.6l0-7
		c9.2-5.9,19.6-19.5,24.1-30.1c1.5,1.8,3.2,3.5,4.8,5.3l-1.1,1.8l-0.3-0.2C59.9,85.5,52.1,95.9,52,95.8c2.9,5.3,5.4,10.7,7.6,16.2
		l0.6-0.3l0.5,1.6l-1,0.3c3.4,11.2,3.5,21.6,1,31.1l0.6,2.5c0,0,3.6,3.5,4.6,4.5c2.5,2.5,5.4,5.2,5.4,5.2l3.3-3.2l-0.2-0.3
		l28.9-28.7l1.8,1.7c-17.7,17.8-48.4,48.6-48.4,48.6l-1.1,0.2c-0.6,0.1-1.5,0.1-2.1,0.1c-0.9-0.1-1.1,0-1.8,0.3
		c-0.8,0.4-1.5,1-2.5,2.1c-0.4,0.5-0.7,0.7-1.2,0.9c-6,3.6-0.6,10.8,4.5,7c3.8,7.2,6.9,15.5,8.7,23.8l-0.7,0.3l-13.5,20h5.2l0.5-0.9
		h-3.9L61.2,211c15.8,4.3,30.3,4.9,45,2.4l12.8,15.6H114l0.7,0.9l6.6,0.1l-15-17.8c-5.4,1.4-19.6,2.6-28.5,1.1
		c-1.4-6.6-3.6-13.8-5.3-19.6c8.5-6.7,2.1-15.5-3.1-16.7c-0.3-0.5,10.6-7.1,18.4-6.7c2.2,5.3,7.1,4.6,8.8,0.6
		c3.2,1.2,7.4,2.4,10.7,5c-4.4-1-9.6-1.5-13.8-1.6c8,3.1,10.3,9.7,11.3,15.9c0.2,1,0.7,2.4,0.7,2.4c0.7-2.2,1.2-4.5,2.6-6.5
		c0.6,2.2,2.6,4.3,5.2,2.6c2.3-1.5,1.6-3.6,1.2-5.9l1.8-1l0.2,0.2c0,0,2-0.8,2.9-1.3c0.2-0.1-0.2-0.4-0.2-0.4l18-8.5
		c-0.1,0,4.5-6.3,7.2-8.8c0.1,7.6,0.1,10.7,0.1,19.6c3.7,3.2,7.1,7,10,9.2l-0.1-132.1h-0.1v-2.5l0.2,0v-6.6l-0.2-0.1v-2.1l0.2-0.2
		l0-17.8l-0.3,0l0-4.3l-10,10.6v10c-3.3-0.6-9.5-3.5-13.9-5.8c-1.2-0.8-1.9-1-1.9-0.5c0.5,6,9.2,15.1,15.8,17.5l0,22.5
		c0,0,1.6-0.8,2.5-1.2l0.1,0.4l2.1-0.9l0.2-0.5l1.9-0.2c0,0.4,0.1,0.3,0.1,0.3c1.7,0.5,2.4,1.6,1.7,2.9c-0.2,0.4-0.3,1-0.1,1.2
		c0.7,1.1,0.9,2.1,0,3.2c-0.3,0.5-0.3,0.9,0,1.4c0.9,1.8,0.4,1.7-0.3,2.8c-0.2,0.8,0.7,1.3,0.4,2.1c-0.1,0.5-0.7,1.1-1,1.4
		c-0.4,0.3-0.8-0.3-0.8-0.3s-1.3,0.6-2.3,0.8c-0.9,0.3-2.6,0.9-3.1-0.4c-0.3-0.7-0.1-1.4-0.1-2.2l-1.4-0.2l-0.1,3.7
		c-0.8,0.4-4-1.2-4-1.2c-13.6,17.6-13.2,37.1-3.1,53.4c0.1,0.3,7.1-4.8,7.1-4.8s0,4.1,0,6.4c-8.9,7.4-17.5,17.2-23.6,29.4l-3.8-4.5
		c0.7-0.6,0.7-1.5,0.7-2.2l2.8-4.1l0-1.1l7.2-10c0.1,0.6-7.4-13.5-8.4-18l0.5-0.1c-3.4-12.8-2.7-21.7-0.2-32.1l-0.7-0.7l-9.5-9.5
		c-0.8,0.7-1.5,1.4-2.3,2.1c-0.1,0.1-0.7,0-0.8,0.2c-5,4.7-9.8,9.4-14.5,14.2c-0.1,0.1,0.1,0.6,0,0.8c-4.7,4.9-9.7,9.5-14.5,14.4
		l-1.8-1.7c17-17,49.1-48.6,49.1-48.6s0.1-0.3,0.4-0.3c0.9,0,1.7-0.2,2.6-0.5c1.1-0.2,1.2-0.3,1.7-0.8c0.3-0.3,0.7-0.7,1-0.9
		c0.5-0.3,1.5-1.2,3.2-2.7c3.9-3.9,0.6-9.2-5.4-6.2c-3.5-7-6.9-15.9-8.3-23.2c-0.1-0.5,0-0.6,0.3-1.2c0.2-0.4,0.7-1.2,1.1-1.8
		c4.3-6.7,8.8-12.4,12.6-18.6h-5.4l-0.7,1.1h4.4L118.9,41c-24.2-7.9-43.9-2.9-44.4-2.8L61.4,22.1h6L66.6,21H59z M70.7,21l0.7,1.1
		h6.3L77.3,21H70.7z M81.2,22.1H85L84.8,21h-4L81.2,22.1z M88.1,21l0.2,1.1H104l0.3-1.1H88.1z M107.3,22.1h3.9l0.3-1.1h-4
		L107.3,22.1z M115.1,21l-0.3,1.1h8.9l0.7-1.1H115.1z M153.2,28.3v2.9l-6.3,6.8v9.5l-1.9-0.4v-9.8L153.2,28.3z M151.4,34.5
		c0.1,2.9-0.4,5.7,0.4,8.6c0.4,1.5,1.1,3.2,1.2,4.9l-2.1-0.1c-0.3-0.9-0.4-1.8-0.7-2.9c-0.8-2.6-1.4-5.4-0.8-8.2L151.4,34.5z
		 M105.1,39.3c0.1,0.1,0.3,1.4,0.6,2.5c1.1,6.2,2.6,10.9,4.1,15.6c1.9,5.9,4.8,13.4,7.6,16.9c0.4,0.4,0.5,0.9,0.4,1.1
		c-0.2,0.4-1.4-0.1-2.1-0.9c-0.3-0.3-0.9-1.3-1.4-2.1c-1-1.8-2.3-4.5-2.4-4.9c-0.1-0.2-0.6-1.5-1.1-2.9c-1-2.5-1.6-4.2-2.4-7
		c-0.7-2.2-1.3-4.5-2-6.8c-1.2-3.8-1.9-6.8-2.6-10.3c-0.1-0.5-0.3-1.1-0.2-1.2C103.9,38.8,104.9,39,105.1,39.3z M105.8,39.5
		c-0.1-0.1,1.1-0.1,1.5,0.2c0.1,0.1,0.3,0.8,0.5,1.8c1.1,5.7,2.8,11.7,4.7,17.3c1.5,4.5,3.2,8.8,5.4,12.3c0.7,1.2,1.6,2.4,2.7,3.8
		c0.6,0.8,0.7,0.9,0.5,1.1c-0.2,0.3-0.6,0.2-1.3-0.1c-1.4-0.9-1.9-1.8-2.8-3.1c-3.1-5.4-5-10.5-6.7-15.7c-1.8-5.3-3.3-10.7-4.4-16.9
		C105.8,39.9,105.8,39.7,105.8,39.5z M109.7,40.3c0.3,0.3,0.4,0.8,0.7,1.9c1.3,5.3,2.4,10.1,3.9,14.4c0.8,2.3,1.5,4.7,2.4,6.9
		c1.4,3.5,3.1,6.8,5.3,9.4c0.7,0.9,2,2,3,2.6c0.7,0.4,0.8,0.6,0.8,0.8c-0.1,0.2-0.8,0.3-1,0.3c-1.2-0.2-2.9-1.1-3.4-1.8
		c-3.6-3.9-6.1-10.2-8-15.3c-3.2-8.9-5.8-20-5.3-19.7C108.1,39.7,109.4,40,109.7,40.3L109.7,40.3z M111.6,40.7
		c0.7,0.2,0.8,0.3,0.9,1c1.1,5.1,2.3,9.6,3.7,13.8c1.4,4.3,2.8,8.4,5,12.7c1.6,3.1,3.7,5.3,5.8,6.4c0.6,0.3,1.2,0.6,1.3,0.7
		c0.1,0.6-0.4,0.6-0.8,0.6c-1,0-1.7-0.3-2.8-1c-2.8-1.9-5.3-6.3-6.3-8.8c-1.3-3-2.5-6.2-3.6-9.6c-2-6.2-3.2-10.2-4.1-15.4
		C110.6,40.5,111,40.6,111.6,40.7z M153.2,50.8c-7.1,0.5-14.3-2.5-20.1-5.2c4.4,5.8,9.1,11,20.1,12v1.9c-14.4-0.2-24.5-14.8-24-18.4
		c5.9,3.8,16.6,8.3,23.9,7.9C153.2,49.6,153.2,50.2,153.2,50.8z M114.5,41.7c1.2,4.4,2,9.3,4,14.2c2.4,6,3.7,11.3,8.1,16.3
		c1.4,1.4,4.1,1.4,4.1,1.4s-0.3,0.8-0.8,0.9c-0.9,0.1-1.6,0.2-2.3,0c-2.6-1.1-4.5-3.8-5.5-5.7c-0.9-1.4-3.3-7.1-5.2-13
		c-2.1-6.4-3.8-13-3.6-14.3C113.9,41.2,114.3,41.5,114.5,41.7z M116.6,42.3c0.7,0.4,0.5,1.5,0.8,2.6c1.1,4.6,2.5,8.3,3.8,11.9
		c1.3,3.4,2.7,6.8,4.4,9.9c0.9,1.5,1.7,3,2.3,3.5c2.6,2.8,5.6,0.5,4.8-1.9c-0.4-1.1-2.5-1.3-2.6-0.4c2.2-0.7,2.9,2.2,0.9,2.9
		c-2.3,0.5-4-2.6-1.9-4.6c3.5-2.4,6.2,0.9,5.4,4c-0.8,1.8-2.1,2.8-3.9,2.9c-2.3,0.1-3.2-0.6-5.6-4c-2.7-4.3-3.9-8.5-5.7-13.2
		c-1.8-4.5-3-9.2-3.5-13.4C115.7,41.9,116.2,42.1,116.6,42.3z M118.1,42.8c0.5,0,0.8,0.1,1.1,0.5c3.2,11.5,5.8,18.4,8.5,23.3
		c0,0,0,0.9-0.2,1.1c-0.3,0.5-0.5,0.3-0.9-0.4c-1.7-3.3-3.3-6.9-4.8-10.6c-1.8-4.4-3.3-8.9-4-13.2C117.7,42.9,117.6,42.8,118.1,42.8
		z M139.4,49.4c0.4,0,0.8,0.4,0.8,0.8c0,0.4-0.4,0.8-0.8,0.8c-0.4,0-0.8-0.4-0.8-0.8C138.6,49.7,138.9,49.4,139.4,49.4z M73.9,49.2
		c-0.9,1.3-1.7,5.8-2.7,5.9c-1.1,0-2.4-0.6-3.2,0.3c-1,1.2-0.4,2.5,0.9,3.2c0.6,0.3,1.8,0.4,2.6,0.1C74.5,57.8,75.6,52.8,73.9,49.2
		L73.9,49.2z M142.4,50.4c0.6,0,1.2,0.5,1.2,1.2s-0.5,1.2-1.2,1.2c-0.6,0-1.2-0.5-1.2-1.2S141.8,50.4,142.4,50.4z M73.9,51
		c1.7,3.5-2.1,9.8-5.4,7c-0.9-0.8-0.5-2.8,1.1-2.7c0.5,0,1.2,0.5,1.6,1C72.3,56.5,73.5,51.1,73.9,51L73.9,51z M146.5,51.6
		c0.7,0,1.3,0.6,1.3,1.3c0,0.7-0.6,1.3-1.3,1.3s-1.3-0.6-1.3-1.3C145.2,52.2,145.8,51.6,146.5,51.6z M151.1,52.5
		c0.7,0,1.3,0.6,1.3,1.3s-0.6,1.3-1.3,1.3s-1.3-0.6-1.3-1.3S150.4,52.5,151.1,52.5z M107.8,58.7c0.2,0,0.3,0.2,0.5,0.6
		c0.3,0.8,0.3,0.9-0.2,1.4c-4.1,5.9-0.4,11.8,5.6,12.2c0.5,0,0.8,0.6,1,1.3c0,0.3,0,0.3-1.4,0.3c-8.8-0.7-11.2-10.5-6.4-15.2
		C107.3,58.9,107.6,58.7,107.8,58.7z M147,59.3v19.6l-2.1,0.8V58.8L147,59.3z M150.9,60.1c2.6,6.5,2.7,12.4,0.4,17.8l-2.4,0.3
		c3.3-7.6,1.9-13,0-18.3L150.9,60.1z M26,61.1l8.5,8l0.3,88.9l-1.3-0.5l-0.5-87.4l-6.9-6.4L26,61.1z M109.2,62.2
		c0.2,0.6,0.2,0.7,0,1.3c-1.2,2.8-0.2,5.6,2.7,6.4c0.7,0.2,0.8,0.3,1.2,1.2c0.3,0.5,0.4,0.7,0.3,0.9c-2,0.3-4.8-1.6-5.6-3.4
		c-1-2.5-1-5,0.8-7.2C108.8,61.4,109.1,61.7,109.2,62.2z M75.5,64.9c-0.2,1.4-2.2,3.6-3.9,4.4c-1.6,0.6-4,0.3-5-0.8
		c-3.6-4.3,3.2-8.6,4.9-4.1c1,2.9-3.2,3.6-3.3,1.4c0-0.6,0.2-0.8,0.7-1.1c0.5-0.3,0.4-0.6,0-0.6c-1.6,0.6-1.6,2-0.9,3
		c1.4,1.5,3.2,0.6,4.4-0.5c1.6-1.5,1.9-3.7,2.3-5.6C74.9,62.1,75.3,63.5,75.5,64.9z M109.9,64.3c0.1,0,1.8,4,2,4.6
		c-0.1,0.4-0.5,0.4-1.2-0.1c-0.8-0.5-1-0.9-1.3-2.1C109.3,66.1,109.1,64.5,109.9,64.3z M76,66c0.4,0,0.8,1.4,0.6,2
		c-0.3,1.2-3.4,3.2-5.6,3.6c-0.4,0.1-0.9,0.2-1.1,0.2c-0.5,0.1-1-0.2-1.5-0.7c-0.4-0.4-0.6-0.8-0.5-0.9c0.1-0.1,1.1,0.1,1.9,0.1
		c2.4,0,4.3-1.7,5.7-3.8C75.7,66.2,75.9,66,76,66L76,66z M28.2,67c0,0,1.6,1.5,2.5,2.3c-0.1,3.9-1.5,8.2-1.5,11.7c0,3,2,5.6,2.2,8.2
		c0.1,1.7-0.4,4.3-1.2,6.2c-0.8,1.8-1.2,3.7-1.2,5.6c0.1,4.3,3.2,9.1,2.1,13.4c-1,4-2.2,6.3-1.9,8.5c0.6,4.1,2.8,7.8,2.2,11.2
		c-0.5,3.2-2,6.4-1.8,9.3c0.2,3.3,1.4,6.1,1.8,9.1c0.2,2-0.3,5.1-0.3,5.1l-2.3,0.2c1.3-4.7-0.6-8.9-1.3-13.4
		c-0.6-3.8,1.1-6.9,1.6-10.1c0.3-2,0-4-1-6.5c-2-4.8-1.3-7.9,0.2-12c1.8-4.4-0.7-7.9-1.3-12.2c-0.3-3.6-0.1-6.2,1.3-9.5
		c1-3.1,1.3-4.9-0.2-7.9c-1-1.9-1.2-3-1.2-5.5C27.2,75.6,28.6,72.8,28.2,67z M77.1,68.9c0.4,0,0.5,0.2,0.5,0.8
		c0,0.9-1.4,2.1-3.8,3.2c-1.3,0.6-2,0.7-2.7,0.3c-0.7-0.3-0.7-0.6,0.1-0.8c1.9-0.6,3.3-1.3,4.8-2.7C76.5,69.3,77,68.9,77.1,68.9
		L77.1,68.9z M66.1,69.6c6.3,6.7,12.4,10.2,17.1,11.8l-0.7,1.8c-6.2-2.4-12.5-5.7-17.8-12.9L66.1,69.6z M78.2,70.7
		c0.2,0,0.8,0.8,0.8,1c0,0.1-0.2,0.5-0.5,0.9c-0.4,0.5-0.8,0.8-1.8,1.4c-1.4,0.8-2.3,1-2.9,0.6c-0.6-0.3-0.4-0.6,1.1-1.5
		c0.8-0.5,1.8-1.2,2.3-1.6C77.7,71,78.1,70.7,78.2,70.7z M61.6,71.7c5.1,7,11.8,11.7,19.5,14.2l-1.2,1.7
		c-7.1-2.5-14.1-6.9-20.4-14.7L61.6,71.7z M79.5,72.5c0.3,0,0.8,0.7,0.8,0.9c0,0.1-0.1,0.4-0.3,0.6c-0.3,0.3-1.7,1.4-2.3,1.7
		c-0.5,0.2-0.8,0.2-1.4,0c-0.6-0.3-0.5-0.6,0.5-1.2c0.5-0.3,1.2-0.9,1.7-1.3C79,72.9,79.4,72.5,79.5,72.5z M58.8,73
		c-0.1,0.2-7.6,17.2-23.3,29.3l-0.1-2.8c8.7-6.9,15-16.4,19.8-24.6L58.8,73z M81,74.3c0.2,0,0.4,0.2,0.6,0.5c0.2,0.4,0,0.7-0.9,1.4
		c-0.5,0.4-0.8,0.5-1.2,0.5c-1.2,0-1.1-0.3,0.1-1.5C80.3,74.6,80.7,74.3,81,74.3z M111.4,75.1l3.3,0.3c0.9,0.6-12.8,9.6-22.3,8.8
		l0.3-2.1C100.9,82.2,111.6,75.5,111.4,75.1z M83.3,75.9c0.8,0.4,1.7,0.9,1.5,1.1c-0.3,0.2-2.6,0.1-3.1-0.2
		c-0.4-0.2-0.4-0.3,0.2-0.9C82.4,75.2,82.6,75.6,83.3,75.9z M54,75.4c-5.2,9.2-11.4,17.5-18.5,23l-0.1-4.8c6.8-5.2,12-14.8,12-14.9
		L54,75.4z M119.1,76l1.6,0.9c-9.9,9.2-20.6,13.1-30.9,12.1l0.8-1.9C107.3,88.5,118.4,76.2,119.1,76z M121.5,76.3c0,0,0.5-0.1,0.5,0
		c-3.3,3.2-7.8,6.7-10.8,8.6c-14,14.4-26,25.7-38.2,38.6l-2-2l1.8-1.9c0-3.8,4.8-8,7.2-11.1c1.5-1.9,3.8-5.1,2.9-6.2
		c4.2-0.8,5.3-4.3,5.3-7.3c0.2-2,0.5-3.9,1.2-5.5C108.6,90.9,121,76.8,121.5,76.3z M88.1,78.4c2.2,0,3.8,1.7,3.8,4.2
		c0,1-0.4,1.8-1.8,4.5c-1.3,2.3-1.5,3.7-2,6.4l-1.4-1.2l-2.5,2.2l0-3.3c0,0,0.9-1.1,2.2-2.6c1.8-1.9,3.3-4.5,3.3-5.9
		c0-1.4-1.5-2.6-3.1-1.6c-1.3,0.9-1.9,2.6-2.7,7.6c-0.1,0.9-0.3,1.9-0.3,2.2c-0.2,0.6-2.1,2.4-2.1,2.4c-0.2,0-0.9-3.7-0.9-3.7
		l-1.9,0.3c2.2-2.4,4-5.4,5.1-8.4C84.9,79.6,86.2,78.5,88.1,78.4z M46,79.2c0,0-3.8,8-10.6,13.2l0-3.1c3.9-3,6.9-8.3,6.9-8.3
		L46,79.2z M138.6,79.4c-13.3,13.8-30.8,39.3-9.1,75.1l2.9-3.3c-17.4-32.4-5.1-49.1,6.4-66L138.6,79.4z M66.4,80.6
		c3.9,2.8,8,5.5,13.3,7.3c-0.3,0.9-7.5,7-2.3,12.7c0.2,0.3-0.3,1-1.2,2c-2.5,3.4-5,5.8-7,9.6l-0.1,7.2l-2.1-1.8L66.4,80.6z
		 M138.1,81.2l0.1,4.1c-19.8,24.1-17.6,45.8-6.4,65.8l-2.1,2.2C111.3,121.7,122.7,97.8,138.1,81.2z M89.2,83.7
		c-0.9,2.3-4.7,6.3-4.7,6.3s0.5-3.9,0.8-5.1c0.2-0.9,0.8-2.2,1.3-2.8C88.2,80.4,89.7,82.3,89.2,83.7z M62.8,81.5l0.4,32.3l-2.8-2.8
		L60,86.3L62.8,81.5z M59.1,87.8l0.6,21.9c-2.8-6.6-6.7-13.8-6.8-13.7C52.9,96.1,56.1,91.8,59.1,87.8z M81.1,94.7
		c0.9-0.9,1.5-1.6,2.5-2.5c0.1,1.3,0,2.3,0,3.6c0.8-0.5,3.2-2.7,3.2-2.7s1,1.5,1,2.9c0,2.6-1.5,5-3.8,5.8c-6.4,2-10.7-5.4-6.3-10.1
		c0.4-0.5,2.4-1.2,2.4-1.2S80.7,93.3,81.1,94.7L81.1,94.7z M147,94.8c-0.2,31.4,0,87.1,0,87.1l6.3,5.9v2.6l-8.4-7.7
		c0,0-0.4-65.6,0-90.4C145.5,94.4,146,94.6,147,94.8z M151.1,93.8c0.2,3-0.3,6.2,0.2,9.4c1.8,4.7,1.9,9,0.5,12
		c-1.3,3.8-0.8,7.4,0.4,11.2c1.6,5.5-1.5,9.7-1.3,14.3c1.8,7.1,2.2,13,0.8,16.7c-1,2.7-1.2,5.7-0.2,8.5c1.7,4.3,2.1,7.8,0.5,11.8
		c-1,2.4-0.4,4.9,0,7.7l-2.5-2.2c-0.7-2.3-0.5-4.5,0.2-6.3c1.9-3.9,0.9-6.6-0.5-10.6c-0.9-2.6-1.1-5.3,0-7.9c1.9-4.4,1.1-9.6,0.2-13
		c-0.5-2-0.6-2.8-0.7-4.8c0-1.9,0.2-3.8,0.8-6.1c0.9-3.6,0.9-5.7-0.3-9.1c-1.1-3.7-1.4-7.2,0.1-10.4c1.1-2.7,1.2-5.3,0.4-7.8
		c-1.4-5.3-1.4-7.9-1.2-12.7L151.1,93.8z M144.1,95.5c-0.2,21.5,0,46.2,0,46.2s-6.4,4.5-6.3,4.2c-8.2-13.6-11.3-33.5,3-51.5
		C140.7,94.4,143,95.4,144.1,95.5L144.1,95.5z M47.1,100.7c11.6,21.7,13.1,43.7-6.1,66.2c0.6,2,0.5,3.8,0.2,5.7
		c3.7-2.9,33.8-33,8.5-74.8L47.1,100.7z M106.3,98.9l5.7,0.3l0.4,4.9l-1.8,1.8c0-1.4,0-2.7-0.3-4c-0.3,1.7-0.3,3-0.4,4.9
		c-0.4,0.5-0.9,1-1.4,1.3c-0.3-0.5-0.2-2.9-0.6-3.8c-0.3,1.6-0.1,3-0.4,4.8c-0.1,0.4-1.2,1.3-1.5,1.3c-0.4-0.8,0-1.6-0.6-3.6
		c-0.4,1.6-0.2,3.1-0.3,4.8c-0.2,0.4-1.4,1.4-1.6,1.3c-0.5-1.3-0.3-2.5-0.5-3.7c-0.5,1.6-0.2,2.7-0.3,4.7c-0.5,0.6-1.2,1.4-1.7,1.7
		c-0.3-1.3-0.2-3.3-0.5-4.2c-0.4,1.7-0.1,3.1-0.3,5c-0.5,0.7-1.7,1.8-1.7,1.8l-0.2-5.3l-6-0.3c0,0,1.2-1.4,1.7-1.7
		c1.7-0.3,2.9,0.1,4.8-0.2c-1.4-0.5-2.9-0.4-4-0.6c0.5-0.5,1-1,1.5-1.5c1.5,0,3.4,0.3,4.6-0.2c-1.1-0.5-3.7-0.6-3.7-0.6l1.6-1.7
		c0,0,3.3,0,5.1-0.3c-1.3-0.2-4.2-0.6-4.2-0.6s1-1.1,1.7-1.7c1.5,0.1,3.6,0.2,4.4-0.2c-1.3-0.4-2.5-0.4-3.8-0.3
		c0.5-0.7,1.2-1.2,1.8-1.8c1.4,0,2.9,0,4.3-0.1c-1.1-0.5-3.6-0.6-3.6-0.6C105.5,99.7,106.3,98.9,106.3,98.9z M49.8,99
		c16,26.1,10.2,54.3-7.6,71.9l-0.5-3.4c16.8-20.5,19.8-41.6,6.1-66.4L49.8,99z M79.5,102.5c-2.9,4.3-7.3,8.6-8.9,12.1
		c-0.3,0.4-0.4,1.3-1,1.5c-0.3,0-0.3-0.5-0.3-1.6c0-0.9,0.1-1.2,0.5-2c2.3-4.1,4.9-7.1,7.8-11L79.5,102.5z M80.2,102.9l2.7,0.2
		c-1,3.5-4.3,6.8-6.7,9.5c-2.4,2.8-3.7,5.6-3.6,6.9c-0.6,0.6-1,1.1-1.8,1.7l-1.5-1.4C70.4,113.8,76,108.4,80.2,102.9z M112.6,105.3
		c1.9,0.2,3.7,0.3,5.7,0.5l0.3,1.1l-1.1,5c-0.6-0.6-0.8-2.3-0.9-3.2c-0.3,1.4-0.2,4-0.2,4s-0.8,1.2-1.5,1.7
		c-0.2,0.1-0.4-2.3-0.6-3.7c-0.8,1.3-0.3,2.8-0.3,4.6c-0.5,0.6-1.3,1.3-1.6,1.4c-0.1-1.3-0.2-3.3-0.6-3.7c-0.1,1.6-0.1,2.9-0.1,4.6
		c0,0.3-1.3,1.5-1.5,1.5c-0.5-1.1-0.4-2.3-0.6-3.3c-0.4,1.2-0.3,3.1-0.3,4.2c-0.5,0.5-1,1.1-1.6,1.4c-0.4-0.8,0-2-0.5-2.9
		c-0.3,1.3-0.2,2.3-0.3,3.9c-0.4,0.7-1.4,1.5-1.4,1.5c-0.2,0.1-0.5-3.4-0.4-4.8c-2.1-0.2-3.8-0.2-6-0.3c0.5-0.7,1.1-1.2,1.8-1.9
		c0,0,4.1,0.4,4.5-0.2c-1.2-0.2-3.7-0.6-3.7-0.6c0.4-0.5,0.7-0.9,1.2-1.4c1.6,0,3.4,0,5-0.2c-0.6-0.5-3.8-0.7-3.8-0.7
		c0.3-0.6,0.9-1,1.4-1.5c1.6,0.1,3.7,0.1,4.7-0.4c-1.1-0.5-2.4-0.2-3.7-0.6c0.3-0.6,0.8-1,1.3-1.5c1.5,0.1,3.7,0.2,4.8-0.3
		c-1.3-0.4-2.6-0.1-3.7-0.7c0.4-0.6,0.8-1,1.3-1.5c1.5,0.1,3.2,0.3,4.5,0c-0.9-0.7-2.5-0.4-3.5-0.8
		C111.7,106.1,112.1,105.8,112.6,105.3z M42.1,106.4c10.5,18.8,8.9,36.5-2.3,51.5c-1.3-0.7-2.6-1.2-4.1-1.3l-0.3-45.4L42.1,106.4z
		 M117.2,113.6c0,0.9-0.1,1.7-0.3,2.8c-0.8,0-1.2-0.1-2.1-0.3C115.5,115,116.1,114.4,117.2,113.6z M60.8,114.5c0,0,1.4,0,2.1,0
		c0,0,0.1,3.5,0.4,5.5l4.5,0.2l-1.7,1.8l-3.4-0.1C62,119.5,61.5,117,60.8,114.5L60.8,114.5z M114.3,116.7c0.6,0,2.5,0.5,2.5,0.5
		c0,2.5-0.3,5.2-0.1,8.9c-0.1,0.1-0.6,0.6-0.6,0.6c-0.2-1.2-0.3-2.8-0.5-3.8c-0.2,1.6-0.1,2.6-0.1,4.5c-0.4,0.3-0.7,0.7-1.1,0.9
		c-0.5-0.8-0.2-2.3-0.9-3.1c0,1.4,0.1,2.6,0.2,4c-0.5,0.6-1,1.1-1.8,1.6c0.1-2.2-0.3-3.8-0.7-5.1c0,0-1.1-0.1-2.2-0.1
		c-1.9-0.1-3.2-0.3-3.2-0.3l1.5-1.6c0,0,4,0.6,4.4,0c-1.2-0.2-2.7-0.4-3.7-0.8c0.3-0.6,0.8-1,1.3-1.5c1.3,0.4,4.4,0.5,4.1,0.1
		c-1.1-0.3-2.3-0.4-3.1-1c0.3-0.6,0.7-0.9,1.2-1.4c1.5,0.1,3.7,0.6,4.3,0.1c-1-0.4-2.5-0.5-3.3-0.9
		C112.9,117.7,114.3,116.7,114.3,116.7L114.3,116.7z M68.3,120.9c0-0.3,0.3,1,0.3,2.7c0,2.1,0.1,2.8,0.1,2.8
		c1.8,0.2,3.1,0.1,5.1,0.6c-0.6,0.7-1.2,1-1.6,1.4c-1.4-0.1-2.7-0.1-4.1-0.1c0.8,0.6,2.5,0.4,3.6,0.9c-0.3,0.6-0.8,0.9-1.3,1.4
		c-1.5-0.1-3.4-0.1-4.6,0.1c1.4,0.4,2.3,0.4,3.7,0.6c0.1,0.2-1.1,1.4-1.6,1.8c-1.5,0.3-3.2-0.1-3.8,0.3c1,0.1,2.1,0.3,2.8,0.7
		c0,0.3-1.1,1.4-1.5,1.6c-1,0.2-1.5,0.3-2.4-0.3c0.2-3.1,0.2-6.1,0.2-9.6l0.6-0.4c0,0,0.2,2.8,0.7,4c0.2-1.5,0-4.5,0-4.5
		c0.4-0.2,0.9-0.8,1.4-1.5c0,0,0.1,2.8,0.5,3.8c0.4-1.4,0.4-3.4,0.4-4.7C67.3,121.9,67.7,121.4,68.3,120.9z M62.7,122.7
		c0.3-0.1,2.3,0,2.5,0c-0.5,0.8-1.5,1.8-2.2,2.2C62.8,124.9,62.7,123,62.7,122.7z M116.9,126.9l0.4,2.9l-3.1-0.2L116.9,126.9z
		 M74.8,127.2c0.5,2.2,0.3,3.2,0.7,5.7c1,0.2,3.7-0.2,5,0.5c0,0-0.8,1-1.3,1.5c-1.5-0.1-3.5-0.2-4.6,0.2c1,0.6,2.5,0.1,3.7,0.5
		c-0.5,0.7-0.9,1.1-1.5,1.8c-1.5-0.2-3.4-0.2-4.9,0c0.7,0.8,2.7,0.5,3.9,0.8c-0.3,0.6-0.7,0.9-1.2,1.4c-1.6-0.1-3.3-0.2-4.8,0
		c1.2,0.6,3.8,0.8,3.8,0.8s-1,1.3-1.6,1.7c-1.4,0-3.1-0.1-4.6,0c0.5,0.7,2.7,0.5,3.8,0.9c-0.3,0.8-0.8,1.2-1.5,1.7
		c-1.3-0.3-3.9-0.3-4.5-0.1c1.2,0.3,2.8,0.3,3.7,0.8c-0.5,0.7-1,1.1-1.7,1.6l-5.6-0.5c0,0-0.3-1,0.3-3.7c0.5-2.5,0.9-3.1,1-2.6
		c0,1,0.3,2,0.7,2.7c0.2-1.3-0.2-3.9-0.2-3.9c0.4-0.6,0.8-1.2,1.5-1.8c0,0,0.6,3.1,0.8,3.6c0.2-1.6,0.1-2.3-0.1-4.2l0.8-0.8
		c0.8-0.8,0.9-0.7,0.9-0.7s0.5,3.1,0.7,3.7c0.1-1.7,0-3-0.1-4.5c0,0,1.1-1.4,1.9-2c0.6,1.2,0.3,2.3,0.6,3.6c0.5-1.3,0.2-2.9,0.2-4.5
		c0.5-0.6,1.1-1.1,1.7-1.6c0,0,0.6,4.8,0.8,3.3c0-1-0.1-2-0.1-2.9c0-0.9,0-1.2,0.3-1.6C73.7,128,74.8,127.2,74.8,127.2z
		 M107.3,129.1c0,0,1.3,1.1,1.3,1.4c-2,2.6-2.6,2.8-2.7,4.1c-0.4,1.7-1,2.7-2,4.2c-2,2.4-3.9,4.5-7.3,9.6c-0.2,0.9-0.3,1.5-1.1,1.9
		c-0.2,0.1-0.7,0.4-1,0.6c-1.3,1-2.1,2.3-2.5,3.9c-0.2,0.9-0.3,1.7-0.7,4.4c-0.1,1.1-0.6,3.1-0.6,3.1c-7.5-0.1-14.5,1.2-20.7,4.7
		L107.3,129.1z M117.3,130.2l1.7,7.6l-1.7,0l-0.2-5.5l-5.3-0.5l2-1.8L117.3,130.2z M109.2,130.9c0.5,0.5,1,1,1.4,1.5
		c-1.4,4.8-6,11-10.5,17.1l-3.3-0.4c-0.1-0.1,4.6-6.6,6.8-9c1.7-2.2,2.7-4.4,3.3-6.9C107.7,132.3,109.2,131,109.2,130.9z M111,132.6
		l2.5,2.5l0.6,35.8c-3.8-3-8.4-5.3-13.2-7l0.8-1.9l0.9-1c3.3-3.6,2.6-7.4,0.1-10.1c3-4.4,5.8-7.8,8.1-12.1
		C110.9,136.8,110.6,134.7,111,132.6L111,132.6z M81.6,139.6c0,0,0.4,0.1,2.5,0.1c2.2,0.1,2.6,0.1,2.6,0.4c-0.4,0.5-0.8,0.9-1.2,1.4
		c-1.4,0-2.8,0-4.2,0c0.5,0.6,3.5,0.7,3.5,0.7c-0.7,0.7-1.1,1.1-1.9,1.8c-1.6-0.1-3.1,0-4.3,0.2c1,0.4,3.8,0.5,3.8,0.5
		s-1.1,1.1-1.6,1.6c-1.7-0.2-3.3-0.2-4.7,0c1.2,0.2,3.6,0.7,3.6,0.7l-1.6,1.7c-1.3-0.2-2.6-0.2-4,0c0.9,0.3,3.4,0.7,3.4,0.7
		s-0.8,0.9-1.3,1.4c-1.7,0.1-2.8-0.1-4.4,0.3c1,0.4,2.3,0.1,3.4,0.6c0.2,0.2-1.5,1.7-1.5,1.7l-5.4-0.1l-0.5-5.7
		c0.4-0.5,1.1-0.9,1.4-1.4c0.7,1.1,0.7,3.1,1,3.8c0.1-1.6-0.1-2.8-0.2-4.5c0-0.3,1.2-1.6,1.5-1.5c0.5,1,0.1,2,0.9,3.3
		c0.2-1.6,0-2.5-0.1-4.3c0.4-0.6,1-1.2,1.5-1.5c0.4,1.9,0.2,3.3,0.9,3.9c0.1-1.7,0-3,0-4.9c0.4-0.5,1-1,1.5-1.4
		c0.6,1.1,0.3,2.7,0.9,3.6c0.1-1.6-0.1-2.8-0.2-4.5c0.5-0.6,1.2-1.3,1.8-1.7c0.5,1.3,0.2,2.9,0.8,3.8c0.1-1.6-0.1-3.2,0.1-4.6
		c0.5-0.8,1.6-2,1.6-2C81.4,134.3,81.9,137.5,81.6,139.6z M110.4,135.1l0,3.5c-1.4,3-4.6,7.4-7.9,12.1l-1.7-0.9
		C104.8,144.4,108.3,139.4,110.4,135.1z M64.3,136.5c0,0-0.9,1.2-1.6,1.7c-0.1-0.7,0.1-1.9,0.1-1.9L64.3,136.5z M117,138.8l2.4,2.4
		l0.6,25.6l-2.5,4.2L117,138.8z M120,142.1c2.2,5.1,4.5,10,7,13.9l-6.5,9.1L120,142.1z M104.3,154.8c0.7,2.8-0.8,5.7-3.1,6.6
		c-0.8,0.3-1.3,0.3-1.3,0.3c-0.3-1.7-0.2-3.3-0.5-4.9c-0.8,1-2.6,2.8-2.6,2.8s0-2.4,0-3.5l-3.4,3.6c0,0-0.3-0.4-0.6-1.3
		c-1.1-2.9,0.4-5.9,2.5-7.3C98.6,148.8,103.7,151.4,104.3,154.8z M144.1,153c-5.4,4.2-13.1,13-19.7,24.5l-2.9,1.2
		c4.6-10.4,13.3-21.4,22.5-28.9C144,150.9,144,152,144.1,153z M144.1,154l0.1,4.7c-4.8,4.6-8.9,9.3-12.5,15.4c-2.1,1-6,2.9-6,2.9
		C125.1,176.9,136.2,159.6,144.1,154z M96.1,157.9c0.2,1.2-0.2,2.9-0.7,3.7c-1.7,2.1-4.5,4.9-4.9,7.5c-0.2,1.4,0.9,2.7,2,2.6
		c3.3-0.4,3.7-6.3,4-9.2c0.1-0.7,0.2-1.3,0.3-1.6c0.7-0.9,1.5-1.8,2.4-2.5l0.4,4.5l1.9-0.6c-5.3,7.2-3.8,7.6-6.5,10.6
		c-2.6,2.7-7.6-0.4-6.3-4.5c1.1-2.8,2.8-5.6,3.3-8.6c0.1-0.9,0.2-1.5,0.2-1.5l1.2,2.5C94.1,159.8,95,158.7,96.1,157.9z M144.3,159.6
		l0,3.2c-2.5,2.8-4.6,4.9-7.1,8.7l-4,1.8C135.8,168.4,140,163.7,144.3,159.6z M95.5,162.4c0,0,0.3,1.5-0.3,4.2
		c-0.3,1.3-1.5,5.1-3.5,4.2c-1.7-1.5,0.4-4.2,1.4-5.5C93.9,164.4,94.8,163.4,95.5,162.4z M90.3,162.8l-1.1,2.3
		c-9.8,0-19.3,3.5-27.7,10.7l-2.1-0.7C68.3,166.6,79.4,162.5,90.3,162.8z M100.6,164.6c11,3.7,16.1,9.1,20.3,14.7l-1.7,0.9
		c-4.4-5.7-9.7-10.8-19.8-13.8L100.6,164.6z M87.9,168.1l-0.5,2c-6.2,0.2-12.7,2.4-19,6.8l-2.3-0.4
		C72.6,171.5,79.8,168.6,87.9,168.1z M116.1,181.5l-2,0.9c-5.8-7.6-11.1-9.7-17.1-11.7l0.6-1.7C105.8,171.3,111.7,175.4,116.1,181.5
		z M34.8,172.6v20.2l-1.4-0.3V173L34.8,172.6z M31.5,173.7c-2.7,10.1-0.6,12.7,0.4,18.5l-2.2-0.4c-2.2-5.9-2.4-11.4-0.6-17.7
		L31.5,173.7z M99,175.3c0.2,0.2-0.1,0.7-0.5,0.9c-0.4,0.2-0.3,0.2-1,0c-0.6-0.2-1.4-0.8-1.4-1C96.5,175.1,98.6,175.1,99,175.3z
		 M100.9,175.4c0.4,0,1.4,0,1.5,0.4c0,0.2-0.4,0.5-1.2,1.1c-1.3,0.9-1.7,1.1-2.1,0.6c-0.4-0.4-0.3-0.8,0.4-1.4
		C99.9,175.6,100.3,175.4,100.9,175.4z M56.6,175.6c0.7,0,2.1,0.9,2.9,2c0.8,1.3,1.7,2.6,2.5,3.9c1.7,2.9,3,5.9,4.1,8.9
		c2.9,7.2,4.6,14.2,6,21.2c0,0.6-0.5,0.6-1,0.4c-0.2-0.1-0.4-0.2-0.5-0.3c-0.6-1.7-0.8-3.4-1.3-5.2c-1.1-4.3-1.6-6.7-3.8-12.8
		c-1.1-3.1-2.8-7.5-4.6-10.8c-1.2-2.1-2.5-4.1-4.2-5.9c-0.5-0.5-1-0.9-1-1C55.8,175.8,56.1,175.6,56.6,175.6L56.6,175.6z
		 M103.7,175.9c0.7,0.2,2.3,0.4,1.7,0.9c-2.3,0.9-3.1,1.9-4.3,2.9c-0.2,0-0.9-0.9-0.9-1.1C101.2,177.3,102.4,176.7,103.7,175.9z
		 M62.4,177.9c3,4.4,5.6,10.7,7.7,16.9c2.3,6.6,3.7,13,4.3,17.6c-0.1,0.1-0.3,0.2-0.7,0.2c-0.6,0-0.7-0.1-0.9-0.6
		c-1.6-7.5-3.7-15.2-6.2-21.8c-1.4-3.5-2.9-7-5.1-10.5c-1.5-2.2-2.3-3.3-2.3-3.5C60.3,175.4,61.9,177,62.4,177.9L62.4,177.9z
		 M53.3,176c1.3,0,3.5,1.6,5,3.6c3.1,4.3,4.9,9.3,6.8,14.2c2.1,5.6,3.7,11.8,4.6,16.7c0.2,0.7,0.4,1-0.2,1.2
		c-0.5-0.1-0.7-0.2-0.9-0.4c-2.5-9.7-5.3-20.3-9.7-28c-4.7-7.6-6.1-5.5-6.9-6.8C52.1,176.2,52.6,176,53.3,176z M64.7,177.8
		c4.1,7.1,5.8,11.4,7.1,15.7c1.9,6.5,4.1,11.6,5.1,19.2c0,0-1.1,0-1.5-0.2c-0.2-0.2-0.4-0.9-0.5-1.5c-1-5.3-2.6-11.6-4.2-16.6
		c-1.8-5.5-4-10.8-7.2-15.9c-0.8-1.4-1-1.9-0.5-1.9C63.9,176.6,64.3,177.3,64.7,177.8L64.7,177.8z M107,177.1c0.6,0,1.1,0.2,1.3,0.6
		c0.2,0.3-0.3,0.4-1.3,0.7c-1.9,0.7-3.2,1.7-4.6,2.8c-0.3,0-0.9-0.7-0.9-0.9C102.4,179,105.1,177.2,107,177.1z M51,177.3
		c3.4,0.1,6.1,4.1,7.5,6.8c0.5,1.1,1.3,2.2,1.8,3.4c2.8,6.2,5.2,14.1,6.3,19.1c0.6,2.4,1.2,4.2,1,4.6c-0.3,0.2-0.9,0-1.2-0.2
		c-0.2-0.1-0.3-0.7-0.6-1.7c-0.8-2.6-2.1-9.9-5.6-17.7c-0.1-0.2-1.8-5.1-4.6-9.7c-1.2-1.9-3.1-3.1-4.8-3.5c-0.9-0.1-1.1,0-1.1-0.5
		c0-0.3,0.1-0.4,0.6-0.5C50.6,177.3,50.8,177.3,51,177.3z M72.5,193.2c-0.2,0-0.4-0.4-0.6-1.2c-0.1-0.4-0.2-0.6,0.5-1
		c4.3-4.5,0.6-11.2-4.8-11.8c-0.5-0.1-1.1-0.1-1.3-0.1c-0.3-0.2-0.8-1.1-1-1.5C72.7,175.8,80.6,186.4,72.5,193.2L72.5,193.2z
		 M109.4,178.4c0.4,0.1,1.4,1,1.3,1.2c-0.1,0.2-1,0.2-2.2,0.5c-2.5,0.5-3.6,2.1-4.8,3.3c-0.3,0.1-0.5-0.1-0.7-0.5
		c-0.2-0.3-0.3-0.7-0.3-0.8C104,180.2,107.5,178.2,109.4,178.4L109.4,178.4z M49.3,179c2.2,0,4.3,1,5.5,2.8
		c4.4,6.7,9.4,21.4,10.6,28.7c-0.1,0.2-1.3-0.1-1.3-0.1c0.2-0.1-5.2-20.1-10.5-27.4c-1.2-2.2-3.5-2.8-5-2.1
		c-1.5,0.8-1.7,2.8-0.6,3.7c1,0.7,2.5,0.6,3.1-0.5c0.2-0.4,0.1-0.8,0-1c-0.1-0.1-0.3-0.1-0.4,0c0.1,1.3-1.6,1.4-2.3,0.9
		c-1.1-0.9-0.4-3.6,2.7-2.5c1.2,0.6,1.6,1.8,1,3.1c-0.6,1.3-1.5,1.9-2.9,1.9c-1.7,0-3.6-1.2-3.6-3.4c0-1.6,0.7-2.9,2.1-3.8
		C48.4,179,48.6,179,49.3,179L49.3,179z M67.6,180c5.3,0.2,7.7,6.4,4.9,10.2c-0.7,0.9-1.2,0.7-1.5-0.4c-0.1-0.5-0.3-0.5,0.1-0.9
		c2.5-2.4,0.4-6.9-3.6-7.1c0,0-0.8-1.1-0.8-1.7C67,179.9,67.4,180,67.6,180L67.6,180z M111.4,180.4c0.4,0.1,1.2,0.9,1.2,1.2
		c0,0.3-0.2,0.3-1.1,0.1c-2.2-0.4-4.4,0.9-6.3,3.7c-0.9,1.7-1,1.5-1.5,0.1c-0.2-0.7-0.2-0.7,0.7-2.1
		C106.3,181.1,108.9,180.1,111.4,180.4L111.4,180.4z M113.5,183.2c1.8,1.7,1,5.4-1.5,5.8c-2.2,0.3-4.2-2.1-2.8-3.7
		c2.4-2.5,4.2,1.6,2.1,1.9c-0.1,0-0.2,0.1-0.2,0.2c1.6,0.5,2-1.7,1.3-2.6c-0.5-0.8-1.5-1.2-2.4-0.8c-1.5,0.5-3,2.5-3.9,5.1
		c-0.2,0.7-0.4,1.4-0.5,1.5c-0.2,0.3-0.2,0.3-0.4,0.2c-0.2-0.1-0.5-1.7-0.5-2.2c0-0.4,0.4-1.6,0.9-2.6
		C107.3,182.9,110.9,180.9,113.5,183.2z M68.4,182.5c2.2,0.1,3.9,3.2,2.9,5.3c-0.3,0.4-0.7,0.7-0.9,0.4c-0.6-1.6-1.2-2.9-1.9-4.5
		C68.2,183,68,182.5,68.4,182.5z M53.8,184.2c2.5,4.3,4.5,9.3,6.2,14.2c1.3,3.8,2.4,7.5,3,10.8c0.1,0.3,0.1,0.5,0,0.7
		c-0.2,0.2-1.4-0.4-1.4-0.4c-2.5-9.5-4.7-16.6-8.9-23.7c-0.1-0.6,0.1-1.3,0.4-1.7C53.4,184,53.6,183.9,53.8,184.2L53.8,184.2z
		 M26.3,192.5c11.6,0.8,20.5,5.7,25.3,18.6c-1.7-1-10.4-7.6-25.3-8.5v-1.8c10.7-0.1,21.2,5.5,20.9,5.4c-4-8.2-13.9-11.5-20.9-11.7
		V192.5z M105.7,197.1c0.2,1.9,0.2,4.1,0.4,5.8c0.2,0.2,0.6,0.3,0.8,0.1c0.7-2,0.9-4.4,2.1-6.1c0.3-0.3,0.6-0.2,1.7-0.1
		c2.4,0.2,2.9-3,1.2-3.8C109,191.6,106.4,195.2,105.7,197.1z M109.2,195.8c-1.7,1.4-1.7,3.4-2.2,5.2c-0.3,1.2-0.7,1.9-0.8,0
		c-0.3-2.8,0.2-7.4,4-8.1c1.9-0.4,2.5,1.6,2,2.5C111.7,196.2,110.4,196.6,109.2,195.8z M29.4,196.7c0.8,0,1.5,0.7,1.5,1.5
		s-0.7,1.5-1.5,1.5c-0.8,0-1.5-0.7-1.5-1.5S28.6,196.7,29.4,196.7z M34.2,197.7c0.7,0,1.4,0.6,1.4,1.3s-0.6,1.4-1.4,1.4
		s-1.3-0.6-1.3-1.4S33.5,197.7,34.2,197.7z M38.6,199.2c0.6,0,1.1,0.5,1.1,1.1c0,0.6-0.5,1.1-1.1,1.1c-0.6,0-1.1-0.5-1.1-1.1
		C37.5,199.7,38,199.2,38.6,199.2z M41.7,201.1c0.5,0,0.8,0.4,0.8,0.9c0,0.5-0.4,0.8-0.8,0.8c-0.5,0-0.9-0.4-0.9-0.8
		C40.9,201.5,41.2,201.1,41.7,201.1z M30.8,203.9c-0.3,1.6-0.1,3.3,0.3,4.5c0.9,2.5,0.5,6.9,0.5,6.9l-2.5,2.6
		c0.2-2.3,0.5-4.8,0.3-6.8c-0.1-1.3-0.7-2.5-0.8-3.8c-0.1-1.2,0.1-3.7,0.1-3.7L30.8,203.9z M34.8,204.6v10.7l-8.4,8.3v-2.2l7.2-7.3
		v-9.9L34.8,204.6z M56.1,228.9l-0.6,0.9h9.7l0.2-0.9H56.1z M68.7,228.9l-0.2,0.9H73l0.1-0.9C73.1,228.9,70.7,228.9,68.7,228.9z
		 M76,228.9l-0.1,0.9h16.7l-0.2-0.9H76z M95.6,228.9l0.3,0.9h4.4l-0.4-0.9H95.6z M103,228.9l0.3,0.9h7.6l-0.6-0.9H103z"/>
	<path class="st1" d="M14.4,11.9v2.8h2.7c0,0,0.1,2.7,0.1,8.3c0,5.5,0.1,8.2-0.2,9.8c-0.9,3.6-6.2,3.6-7.2,1
		c-0.6-1.5-0.4-2.7-0.5-4.2H6.4c0,0,0,0.8,0,1.7c0,4,1.4,6,4.5,6.7c3.2,0.9,7-0.5,8.3-3.2c0.8-1.6,0.7-1.7,0.7-11.2
		c0-6.3,0.1-9,0.1-9h2.5v-2.8H14.4L14.4,11.9z"/>
	<path class="st1" d="M164.9,239.2v-2.8h-2.7c0,0-0.1-2.7-0.1-8.3c0-5.5-0.1-8.2,0.2-9.8c0.9-3.6,6.2-3.6,7.2-1
		c0.6,1.5,0.4,2.7,0.5,4.2h2.9c0,0,0-0.8,0-1.7c0-4-1.4-6-4.5-6.8c-3.2-0.9-7,0.5-8.3,3.2c-0.8,1.6-0.7,1.7-0.7,11.2
		c0,6.3-0.1,9-0.1,9h-2.5v2.8H164.9L164.9,239.2z"/>
	<path d="M59,21l15.1,18.1c3.2-1.1,19-2.9,28.6-0.8c1.7,6.5,3.4,13.1,5.3,19c0,0-0.6,0.7-1,1.1c-6.1,7-1.8,13.8,3.8,16
		c-1,2.1-11.7,7.3-18.2,6.7c0-0.1-2-4.8-6.1-3.2c-1.4,0.5-2,1.6-3,2.6c-3.9-1.2-9-3.7-11.7-6.5c5,2.5,9.9,3.8,14.8,3.2
		c-8.2-3.5-10.5-11.8-12-18.5c-0.5,1.6-0.8,5.7-2.1,6.6c-0.4,0.2-0.4,0.2-0.7-0.7c-1.9-5.1-8.9-1-5.9,4.1L63.6,70v0.4l-1.4,0.7
		l-0.3-0.2c-6.6,3.2-13.1,6.5-19.9,9.6c0,0-3.6,6-6.9,8.3l-0.1-20.3l-9.7-8.8l0,4.8c0,0,0.5,0.5,0.7,0.7c0.1,33.9,0,67.3,0,98.2
		l0,28.4l-0.6,0l0,3.3l0.7,0.2l-0.1,4.7l-0.3,0l-0.1,3l0.5,0.1l0,16.7l-0.5,0.7l0,4.8l10.2-9.7v-11c8,1.5,16.6,7.3,16.6,7.3
		c-1.4-9.2-11.2-16.8-16.8-18.3l0-21.8c0,0-4.2,1.7-6.2,2c-1,0.1-1.4,0-1.9-0.7c-0.4-0.5-0.4-1,0-2.1c0.1-0.5,0.1-0.7,0-1.2
		c-0.3-0.7-0.3-1.1,0-2.4c0.3-0.8,0.2-1.2-0.1-1.9c-0.3-0.8-0.3-0.9-0.2-1.3c0.3-1.1,0.4-1.3,0.2-1.8c-0.4-1-0.4-1.7,0-2.4
		c1.5-2.5,4.9-1.9,6.7-1.8c0.9,1,1.5,1.6,1.6,0.1c0.6-1.8,3.2,0,4.3,0.8c10-13.4,14.9-31.5,2.4-54.2l-7,5.6l0-7
		c9.2-5.9,19.6-19.5,24.1-30.1c1.5,1.8,3.2,3.5,4.8,5.3l-1.1,1.8l-0.3-0.2C59.9,85.5,52.1,95.9,52,95.8c2.9,5.3,5.4,10.7,7.6,16.2
		l0.6-0.3l0.5,1.6l-1,0.3c3.4,11.2,3.5,21.6,1,31.1l0.6,2.5c0,0,3.6,3.5,4.6,4.5c2.5,2.5,5.4,5.2,5.4,5.2l3.3-3.2l-0.2-0.3
		l28.9-28.7l1.8,1.7c-17.7,17.8-48.4,48.6-48.4,48.6l-1.1,0.2c-0.6,0.1-1.5,0.1-2.1,0.1c-0.9-0.1-1.1,0-1.8,0.3
		c-0.8,0.4-1.5,1-2.5,2.1c-0.4,0.5-0.7,0.7-1.2,0.9c-6,3.6-0.6,10.8,4.5,7c3.8,7.2,6.9,15.5,8.7,23.8l-0.7,0.3l-13.5,20h5.2l0.5-0.9
		h-3.9L61.2,211c15.8,4.3,30.3,4.9,45,2.4l12.8,15.6H114l0.7,0.9l6.6,0.1l-15-17.8c-5.4,1.4-19.6,2.6-28.5,1.1
		c-1.4-6.6-3.6-13.8-5.3-19.6c8.5-6.7,2.1-15.5-3.1-16.7c-0.3-0.5,10.6-7.1,18.4-6.7c2.2,5.3,7.1,4.6,8.8,0.6
		c3.2,1.2,7.4,2.4,10.7,5c-4.4-1-9.6-1.5-13.8-1.6c8,3.1,10.3,9.7,11.3,15.9c0.2,1,0.7,2.4,0.7,2.4c0.7-2.2,1.2-4.5,2.6-6.5
		c0.6,2.2,2.6,4.3,5.2,2.6c2.3-1.5,1.6-3.6,1.2-5.9l1.8-1l0.2,0.2c0,0,2-0.8,2.9-1.3c0.2-0.1-0.2-0.4-0.2-0.4l18-8.5
		c-0.1,0,4.5-6.3,7.2-8.8c0.1,7.6,0.1,10.7,0.1,19.6c3.7,3.2,7.1,7,10,9.2l-0.1-132.1h-0.1v-2.5l0.2,0v-6.6l-0.2-0.1v-2.1l0.2-0.2
		l0-17.8l-0.3,0l0-4.3l-10,10.6v10c-3.3-0.6-9.5-3.5-13.9-5.8c-1.2-0.8-1.9-1-1.9-0.5c0.5,6,9.2,15.1,15.8,17.5l0,22.5
		c0,0,1.6-0.8,2.5-1.2l0.1,0.4l2.1-0.9l0.2-0.5l1.9-0.2c0,0.4,0.1,0.3,0.1,0.3c1.7,0.5,2.4,1.6,1.7,2.9c-0.2,0.4-0.3,1-0.1,1.2
		c0.7,1.1,0.9,2.1,0,3.2c-0.3,0.5-0.3,0.9,0,1.4c0.9,1.8,0.4,1.7-0.3,2.8c-0.2,0.8,0.7,1.3,0.4,2.1c-0.1,0.5-0.7,1.1-1,1.4
		c-0.4,0.3-0.8-0.3-0.8-0.3s-1.3,0.6-2.3,0.8c-0.9,0.3-2.6,0.9-3.1-0.4c-0.3-0.7-0.1-1.4-0.1-2.2l-1.4-0.2l-0.1,3.7
		c-0.8,0.4-4-1.2-4-1.2c-13.6,17.6-13.2,37.1-3.1,53.4c0.1,0.3,7.1-4.8,7.1-4.8s0,4.1,0,6.4c-8.9,7.4-17.5,17.2-23.6,29.4l-3.8-4.5
		c0.7-0.6,0.7-1.5,0.7-2.2l2.8-4.1l0-1.1l7.2-10c0.1,0.6-7.4-13.5-8.4-18l0.5-0.1c-3.4-12.8-2.7-21.7-0.2-32.1l-0.7-0.7l-9.5-9.5
		c-0.8,0.7-1.5,1.4-2.3,2.1c-0.1,0.1-0.7,0-0.8,0.2c-5,4.7-9.8,9.4-14.5,14.2c-0.1,0.1,0.1,0.6,0,0.8c-4.7,4.9-9.7,9.5-14.5,14.4
		l-1.8-1.7c17-17,49.1-48.6,49.1-48.6s0.1-0.3,0.4-0.3c0.9,0,1.7-0.2,2.6-0.5c1.1-0.2,1.2-0.3,1.7-0.8c0.3-0.3,0.7-0.7,1-0.9
		c0.5-0.3,1.5-1.2,3.2-2.7c3.9-3.9,0.6-9.2-5.4-6.2c-3.5-7-6.9-15.9-8.3-23.2c-0.1-0.5,0-0.6,0.3-1.2c0.2-0.4,0.7-1.2,1.1-1.8
		c4.3-6.7,8.8-12.4,12.6-18.6h-5.4l-0.7,1.1h4.4L118.9,41c-24.2-7.9-43.9-2.9-44.4-2.8L61.4,22.1h6L66.6,21H59z M70.7,21l0.7,1.1
		h6.3L77.3,21H70.7z M81.2,22.1H85L84.8,21h-4L81.2,22.1z M88.1,21l0.2,1.1H104l0.3-1.1H88.1z M107.3,22.1h3.9l0.3-1.1h-4
		L107.3,22.1z M115.1,21l-0.3,1.1h8.9l0.7-1.1H115.1z M153.2,28.3v2.9l-6.3,6.8v9.5l-1.9-0.4v-9.8L153.2,28.3z M151.4,34.5
		c0.1,2.9-0.4,5.7,0.4,8.6c0.4,1.5,1.1,3.2,1.2,4.9l-2.1-0.1c-0.3-0.9-0.4-1.8-0.7-2.9c-0.8-2.6-1.4-5.4-0.8-8.2L151.4,34.5z
		 M105.1,39.3c0.1,0.1,0.3,1.4,0.6,2.5c1.1,6.2,2.6,10.9,4.1,15.6c1.9,5.9,4.8,13.4,7.6,16.9c0.4,0.4,0.5,0.9,0.4,1.1
		c-0.2,0.4-1.4-0.1-2.1-0.9c-0.3-0.3-0.9-1.3-1.4-2.1c-1-1.8-2.3-4.5-2.4-4.9c-0.1-0.2-0.6-1.5-1.1-2.9c-1-2.5-1.6-4.2-2.4-7
		c-0.7-2.2-1.3-4.5-2-6.8c-1.2-3.8-1.9-6.8-2.6-10.3c-0.1-0.5-0.3-1.1-0.2-1.2C103.9,38.8,104.9,39,105.1,39.3z M105.8,39.5
		c-0.1-0.1,1.1-0.1,1.5,0.2c0.1,0.1,0.3,0.8,0.5,1.8c1.1,5.7,2.8,11.7,4.7,17.3c1.5,4.5,3.2,8.8,5.4,12.3c0.7,1.2,1.6,2.4,2.7,3.8
		c0.6,0.8,0.7,0.9,0.5,1.1c-0.2,0.3-0.6,0.2-1.3-0.1c-1.4-0.9-1.9-1.8-2.8-3.1c-3.1-5.4-5-10.5-6.7-15.7c-1.8-5.3-3.3-10.7-4.4-16.9
		C105.8,39.9,105.8,39.7,105.8,39.5z M109.7,40.3c0.3,0.3,0.4,0.8,0.7,1.9c1.3,5.3,2.4,10.1,3.9,14.4c0.8,2.3,1.5,4.7,2.4,6.9
		c1.4,3.5,3.1,6.8,5.3,9.4c0.7,0.9,2,2,3,2.6c0.7,0.4,0.8,0.6,0.8,0.8c-0.1,0.2-0.8,0.3-1,0.3c-1.2-0.2-2.9-1.1-3.4-1.8
		c-3.6-3.9-6.1-10.2-8-15.3c-3.2-8.9-5.8-20-5.3-19.7C108.1,39.7,109.4,40,109.7,40.3L109.7,40.3z M111.6,40.7
		c0.7,0.2,0.8,0.3,0.9,1c1.1,5.1,2.3,9.6,3.7,13.8c1.4,4.3,2.8,8.4,5,12.7c1.6,3.1,3.7,5.3,5.8,6.4c0.6,0.3,1.2,0.6,1.3,0.7
		c0.1,0.6-0.4,0.6-0.8,0.6c-1,0-1.7-0.3-2.8-1c-2.8-1.9-5.3-6.3-6.3-8.8c-1.3-3-2.5-6.2-3.6-9.6c-2-6.2-3.2-10.2-4.1-15.4
		C110.6,40.5,111,40.6,111.6,40.7z M153.2,50.8c-7.1,0.5-14.3-2.5-20.1-5.2c4.4,5.8,9.1,11,20.1,12v1.9c-14.4-0.2-24.5-14.8-24-18.4
		c5.9,3.8,16.6,8.3,23.9,7.9C153.2,49.6,153.2,50.2,153.2,50.8z M114.5,41.7c1.2,4.4,2,9.3,4,14.2c2.4,6,3.7,11.3,8.1,16.3
		c1.4,1.4,4.1,1.4,4.1,1.4s-0.3,0.8-0.8,0.9c-0.9,0.1-1.6,0.2-2.3,0c-2.6-1.1-4.5-3.8-5.5-5.7c-0.9-1.4-3.3-7.1-5.2-13
		c-2.1-6.4-3.8-13-3.6-14.3C113.9,41.2,114.3,41.5,114.5,41.7z M116.6,42.3c0.7,0.4,0.5,1.5,0.8,2.6c1.1,4.6,2.5,8.3,3.8,11.9
		c1.3,3.4,2.7,6.8,4.4,9.9c0.9,1.5,1.7,3,2.3,3.5c2.6,2.8,5.6,0.5,4.8-1.9c-0.4-1.1-2.5-1.3-2.6-0.4c2.2-0.7,2.9,2.2,0.9,2.9
		c-2.3,0.5-4-2.6-1.9-4.6c3.5-2.4,6.2,0.9,5.4,4c-0.8,1.8-2.1,2.8-3.9,2.9c-2.3,0.1-3.2-0.6-5.6-4c-2.7-4.3-3.9-8.5-5.7-13.2
		c-1.8-4.5-3-9.2-3.5-13.4C115.7,41.9,116.2,42.1,116.6,42.3z M118.1,42.8c0.5,0,0.8,0.1,1.1,0.5c3.2,11.5,5.8,18.4,8.5,23.3
		c0,0,0,0.9-0.2,1.1c-0.3,0.5-0.5,0.3-0.9-0.4c-1.7-3.3-3.3-6.9-4.8-10.6c-1.8-4.4-3.3-8.9-4-13.2C117.7,42.9,117.6,42.8,118.1,42.8
		z M139.4,49.4c0.4,0,0.8,0.4,0.8,0.8c0,0.4-0.4,0.8-0.8,0.8c-0.4,0-0.8-0.4-0.8-0.8C138.6,49.7,138.9,49.4,139.4,49.4z M73.9,49.2
		c-0.9,1.3-1.7,5.8-2.7,5.9c-1.1,0-2.4-0.6-3.2,0.3c-1,1.2-0.4,2.5,0.9,3.2c0.6,0.3,1.8,0.4,2.6,0.1C74.5,57.8,75.6,52.8,73.9,49.2
		L73.9,49.2z M142.4,50.4c0.6,0,1.2,0.5,1.2,1.2s-0.5,1.2-1.2,1.2c-0.6,0-1.2-0.5-1.2-1.2S141.8,50.4,142.4,50.4z M73.9,51
		c1.7,3.5-2.1,9.8-5.4,7c-0.9-0.8-0.5-2.8,1.1-2.7c0.5,0,1.2,0.5,1.6,1C72.3,56.5,73.5,51.1,73.9,51L73.9,51z M146.5,51.6
		c0.7,0,1.3,0.6,1.3,1.3c0,0.7-0.6,1.3-1.3,1.3s-1.3-0.6-1.3-1.3C145.2,52.2,145.8,51.6,146.5,51.6z M151.1,52.5
		c0.7,0,1.3,0.6,1.3,1.3s-0.6,1.3-1.3,1.3s-1.3-0.6-1.3-1.3S150.4,52.5,151.1,52.5z M107.8,58.7c0.2,0,0.3,0.2,0.5,0.6
		c0.3,0.8,0.3,0.9-0.2,1.4c-4.1,5.9-0.4,11.8,5.6,12.2c0.5,0,0.8,0.6,1,1.3c0,0.3,0,0.3-1.4,0.3c-8.8-0.7-11.2-10.5-6.4-15.2
		C107.3,58.9,107.6,58.7,107.8,58.7z M147,59.3v19.6l-2.1,0.8V58.8L147,59.3z M150.9,60.1c2.6,6.5,2.7,12.4,0.4,17.8l-2.4,0.3
		c3.3-7.6,1.9-13,0-18.3L150.9,60.1z M26,61.1l8.5,8l0.3,88.9l-1.3-0.5l-0.5-87.4l-6.9-6.4L26,61.1z M109.2,62.2
		c0.2,0.6,0.2,0.7,0,1.3c-1.2,2.8-0.2,5.6,2.7,6.4c0.7,0.2,0.8,0.3,1.2,1.2c0.3,0.5,0.4,0.7,0.3,0.9c-2,0.3-4.8-1.6-5.6-3.4
		c-1-2.5-1-5,0.8-7.2C108.8,61.4,109.1,61.7,109.2,62.2z M75.5,64.9c-0.2,1.4-2.2,3.6-3.9,4.4c-1.6,0.6-4,0.3-5-0.8
		c-3.6-4.3,3.2-8.6,4.9-4.1c1,2.9-3.2,3.6-3.3,1.4c0-0.6,0.2-0.8,0.7-1.1c0.5-0.3,0.4-0.6,0-0.6c-1.6,0.6-1.6,2-0.9,3
		c1.4,1.5,3.2,0.6,4.4-0.5c1.6-1.5,1.9-3.7,2.3-5.6C74.9,62.1,75.3,63.5,75.5,64.9z M109.9,64.3c0.1,0,1.8,4,2,4.6
		c-0.1,0.4-0.5,0.4-1.2-0.1c-0.8-0.5-1-0.9-1.3-2.1C109.3,66.1,109.1,64.5,109.9,64.3z M76,66c0.4,0,0.8,1.4,0.6,2
		c-0.3,1.2-3.4,3.2-5.6,3.6c-0.4,0.1-0.9,0.2-1.1,0.2c-0.5,0.1-1-0.2-1.5-0.7c-0.4-0.4-0.6-0.8-0.5-0.9c0.1-0.1,1.1,0.1,1.9,0.1
		c2.4,0,4.3-1.7,5.7-3.8C75.7,66.2,75.9,66,76,66L76,66z M28.2,67c0,0,1.6,1.5,2.5,2.3c-0.1,3.9-1.5,8.2-1.5,11.7c0,3,2,5.6,2.2,8.2
		c0.1,1.7-0.4,4.3-1.2,6.2c-0.8,1.8-1.2,3.7-1.2,5.6c0.1,4.3,3.2,9.1,2.1,13.4c-1,4-2.2,6.3-1.9,8.5c0.6,4.1,2.8,7.8,2.2,11.2
		c-0.5,3.2-2,6.4-1.8,9.3c0.2,3.3,1.4,6.1,1.8,9.1c0.2,2-0.3,5.1-0.3,5.1l-2.3,0.2c1.3-4.7-0.6-8.9-1.3-13.4
		c-0.6-3.8,1.1-6.9,1.6-10.1c0.3-2,0-4-1-6.5c-2-4.8-1.3-7.9,0.2-12c1.8-4.4-0.7-7.9-1.3-12.2c-0.3-3.6-0.1-6.2,1.3-9.5
		c1-3.1,1.3-4.9-0.2-7.9c-1-1.9-1.2-3-1.2-5.5C27.2,75.6,28.6,72.8,28.2,67z M77.1,68.9c0.4,0,0.5,0.2,0.5,0.8
		c0,0.9-1.4,2.1-3.8,3.2c-1.3,0.6-2,0.7-2.7,0.3c-0.7-0.3-0.7-0.6,0.1-0.8c1.9-0.6,3.3-1.3,4.8-2.7C76.5,69.3,77,68.9,77.1,68.9
		L77.1,68.9z M66.1,69.6c6.3,6.7,12.4,10.2,17.1,11.8l-0.7,1.8c-6.2-2.4-12.5-5.7-17.8-12.9L66.1,69.6z M78.2,70.7
		c0.2,0,0.8,0.8,0.8,1c0,0.1-0.2,0.5-0.5,0.9c-0.4,0.5-0.8,0.8-1.8,1.4c-1.4,0.8-2.3,1-2.9,0.6c-0.6-0.3-0.4-0.6,1.1-1.5
		c0.8-0.5,1.8-1.2,2.3-1.6C77.7,71,78.1,70.7,78.2,70.7z M61.6,71.7c5.1,7,11.8,11.7,19.5,14.2l-1.2,1.7
		c-7.1-2.5-14.1-6.9-20.4-14.7L61.6,71.7z M79.5,72.5c0.3,0,0.8,0.7,0.8,0.9c0,0.1-0.1,0.4-0.3,0.6c-0.3,0.3-1.7,1.4-2.3,1.7
		c-0.5,0.2-0.8,0.2-1.4,0c-0.6-0.3-0.5-0.6,0.5-1.2c0.5-0.3,1.2-0.9,1.7-1.3C79,72.9,79.4,72.5,79.5,72.5z M58.8,73
		c-0.1,0.2-7.6,17.2-23.3,29.3l-0.1-2.8c8.7-6.9,15-16.4,19.8-24.6L58.8,73z M81,74.3c0.2,0,0.4,0.2,0.6,0.5c0.2,0.4,0,0.7-0.9,1.4
		c-0.5,0.4-0.8,0.5-1.2,0.5c-1.2,0-1.1-0.3,0.1-1.5C80.3,74.6,80.7,74.3,81,74.3z M111.4,75.1l3.3,0.3c0.9,0.6-12.8,9.6-22.3,8.8
		l0.3-2.1C100.9,82.2,111.6,75.5,111.4,75.1z M83.3,75.9c0.8,0.4,1.7,0.9,1.5,1.1c-0.3,0.2-2.6,0.1-3.1-0.2
		c-0.4-0.2-0.4-0.3,0.2-0.9C82.4,75.2,82.6,75.6,83.3,75.9z M54,75.4c-5.2,9.2-11.4,17.5-18.5,23l-0.1-4.8c6.8-5.2,12-14.8,12-14.9
		L54,75.4z M119.1,76l1.6,0.9c-9.9,9.2-20.6,13.1-30.9,12.1l0.8-1.9C107.3,88.5,118.4,76.2,119.1,76z M121.5,76.3c0,0,0.5-0.1,0.5,0
		c-3.3,3.2-7.8,6.7-10.8,8.6c-14,14.4-26,25.7-38.2,38.6l-2-2l1.8-1.9c0-3.8,4.8-8,7.2-11.1c1.5-1.9,3.8-5.1,2.9-6.2
		c4.2-0.8,5.3-4.3,5.3-7.3c0.2-2,0.5-3.9,1.2-5.5C108.6,90.9,121,76.8,121.5,76.3z M88.1,78.4c2.2,0,3.8,1.7,3.8,4.2
		c0,1-0.4,1.8-1.8,4.5c-1.3,2.3-1.5,3.7-2,6.4l-1.4-1.2l-2.5,2.2l0-3.3c0,0,0.9-1.1,2.2-2.6c1.8-1.9,3.3-4.5,3.3-5.9
		c0-1.4-1.5-2.6-3.1-1.6c-1.3,0.9-1.9,2.6-2.7,7.6c-0.1,0.9-0.3,1.9-0.3,2.2c-0.2,0.6-2.1,2.4-2.1,2.4c-0.2,0-0.9-3.7-0.9-3.7
		l-1.9,0.3c2.2-2.4,4-5.4,5.1-8.4C84.9,79.6,86.2,78.5,88.1,78.4z M46,79.2c0,0-3.8,8-10.6,13.2l0-3.1c3.9-3,6.9-8.3,6.9-8.3
		L46,79.2z M138.6,79.4c-13.3,13.8-30.8,39.3-9.1,75.1l2.9-3.3c-17.4-32.4-5.1-49.1,6.4-66L138.6,79.4z M66.4,80.6
		c3.9,2.8,8,5.5,13.3,7.3c-0.3,0.9-7.5,7-2.3,12.7c0.2,0.3-0.3,1-1.2,2c-2.5,3.4-5,5.8-7,9.6l-0.1,7.2l-2.1-1.8L66.4,80.6z
		 M138.1,81.2l0.1,4.1c-19.8,24.1-17.6,45.8-6.4,65.8l-2.1,2.2C111.3,121.7,122.7,97.8,138.1,81.2z M89.2,83.7
		c-0.9,2.3-4.7,6.3-4.7,6.3s0.5-3.9,0.8-5.1c0.2-0.9,0.8-2.2,1.3-2.8C88.2,80.4,89.7,82.3,89.2,83.7z M62.8,81.5l0.4,32.3l-2.8-2.8
		L60,86.3L62.8,81.5z M59.1,87.8l0.6,21.9c-2.8-6.6-6.7-13.8-6.8-13.7C52.9,96.1,56.1,91.8,59.1,87.8z M81.1,94.7
		c0.9-0.9,1.5-1.6,2.5-2.5c0.1,1.3,0,2.3,0,3.6c0.8-0.5,3.2-2.7,3.2-2.7s1,1.5,1,2.9c0,2.6-1.5,5-3.8,5.8c-6.4,2-10.7-5.4-6.3-10.1
		c0.4-0.5,2.4-1.2,2.4-1.2S80.7,93.3,81.1,94.7L81.1,94.7z M147,94.8c-0.2,31.4,0,87.1,0,87.1l6.3,5.9v2.6l-8.4-7.7
		c0,0-0.4-65.6,0-90.4C145.5,94.4,146,94.6,147,94.8z M151.1,93.8c0.2,3-0.3,6.2,0.2,9.4c1.8,4.7,1.9,9,0.5,12
		c-1.3,3.8-0.8,7.4,0.4,11.2c1.6,5.5-1.5,9.7-1.3,14.3c1.8,7.1,2.2,13,0.8,16.7c-1,2.7-1.2,5.7-0.2,8.5c1.7,4.3,2.1,7.8,0.5,11.8
		c-1,2.4-0.4,4.9,0,7.7l-2.5-2.2c-0.7-2.3-0.5-4.5,0.2-6.3c1.9-3.9,0.9-6.6-0.5-10.6c-0.9-2.6-1.1-5.3,0-7.9c1.9-4.4,1.1-9.6,0.2-13
		c-0.5-2-0.6-2.8-0.7-4.8c0-1.9,0.2-3.8,0.8-6.1c0.9-3.6,0.9-5.7-0.3-9.1c-1.1-3.7-1.4-7.2,0.1-10.4c1.1-2.7,1.2-5.3,0.4-7.8
		c-1.4-5.3-1.4-7.9-1.2-12.7L151.1,93.8z M144.1,95.5c-0.2,21.5,0,46.2,0,46.2s-6.4,4.5-6.3,4.2c-8.2-13.6-11.3-33.5,3-51.5
		C140.7,94.4,143,95.4,144.1,95.5L144.1,95.5z M47.1,100.7c11.6,21.7,13.1,43.7-6.1,66.2c0.6,2,0.5,3.8,0.2,5.7
		c3.7-2.9,33.8-33,8.5-74.8L47.1,100.7z M106.3,98.9l5.7,0.3l0.4,4.9l-1.8,1.8c0-1.4,0-2.7-0.3-4c-0.3,1.7-0.3,3-0.4,4.9
		c-0.4,0.5-0.9,1-1.4,1.3c-0.3-0.5-0.2-2.9-0.6-3.8c-0.3,1.6-0.1,3-0.4,4.8c-0.1,0.4-1.2,1.3-1.5,1.3c-0.4-0.8,0-1.6-0.6-3.6
		c-0.4,1.6-0.2,3.1-0.3,4.8c-0.2,0.4-1.4,1.4-1.6,1.3c-0.5-1.3-0.3-2.5-0.5-3.7c-0.5,1.6-0.2,2.7-0.3,4.7c-0.5,0.6-1.2,1.4-1.7,1.7
		c-0.3-1.3-0.2-3.3-0.5-4.2c-0.4,1.7-0.1,3.1-0.3,5c-0.5,0.7-1.7,1.8-1.7,1.8l-0.2-5.3l-6-0.3c0,0,1.2-1.4,1.7-1.7
		c1.7-0.3,2.9,0.1,4.8-0.2c-1.4-0.5-2.9-0.4-4-0.6c0.5-0.5,1-1,1.5-1.5c1.5,0,3.4,0.3,4.6-0.2c-1.1-0.5-3.7-0.6-3.7-0.6l1.6-1.7
		c0,0,3.3,0,5.1-0.3c-1.3-0.2-4.2-0.6-4.2-0.6s1-1.1,1.7-1.7c1.5,0.1,3.6,0.2,4.4-0.2c-1.3-0.4-2.5-0.4-3.8-0.3
		c0.5-0.7,1.2-1.2,1.8-1.8c1.4,0,2.9,0,4.3-0.1c-1.1-0.5-3.6-0.6-3.6-0.6C105.5,99.7,106.3,98.9,106.3,98.9z M49.8,99
		c16,26.1,10.2,54.3-7.6,71.9l-0.5-3.4c16.8-20.5,19.8-41.6,6.1-66.4L49.8,99z M79.5,102.5c-2.9,4.3-7.3,8.6-8.9,12.1
		c-0.3,0.4-0.4,1.3-1,1.5c-0.3,0-0.3-0.5-0.3-1.6c0-0.9,0.1-1.2,0.5-2c2.3-4.1,4.9-7.1,7.8-11L79.5,102.5z M80.2,102.9l2.7,0.2
		c-1,3.5-4.3,6.8-6.7,9.5c-2.4,2.8-3.7,5.6-3.6,6.9c-0.6,0.6-1,1.1-1.8,1.7l-1.5-1.4C70.4,113.8,76,108.4,80.2,102.9z M112.6,105.3
		c1.9,0.2,3.7,0.3,5.7,0.5l0.3,1.1l-1.1,5c-0.6-0.6-0.8-2.3-0.9-3.2c-0.3,1.4-0.2,4-0.2,4s-0.8,1.2-1.5,1.7
		c-0.2,0.1-0.4-2.3-0.6-3.7c-0.8,1.3-0.3,2.8-0.3,4.6c-0.5,0.6-1.3,1.3-1.6,1.4c-0.1-1.3-0.2-3.3-0.6-3.7c-0.1,1.6-0.1,2.9-0.1,4.6
		c0,0.3-1.3,1.5-1.5,1.5c-0.5-1.1-0.4-2.3-0.6-3.3c-0.4,1.2-0.3,3.1-0.3,4.2c-0.5,0.5-1,1.1-1.6,1.4c-0.4-0.8,0-2-0.5-2.9
		c-0.3,1.3-0.2,2.3-0.3,3.9c-0.4,0.7-1.4,1.5-1.4,1.5c-0.2,0.1-0.5-3.4-0.4-4.8c-2.1-0.2-3.8-0.2-6-0.3c0.5-0.7,1.1-1.2,1.8-1.9
		c0,0,4.1,0.4,4.5-0.2c-1.2-0.2-3.7-0.6-3.7-0.6c0.4-0.5,0.7-0.9,1.2-1.4c1.6,0,3.4,0,5-0.2c-0.6-0.5-3.8-0.7-3.8-0.7
		c0.3-0.6,0.9-1,1.4-1.5c1.6,0.1,3.7,0.1,4.7-0.4c-1.1-0.5-2.4-0.2-3.7-0.6c0.3-0.6,0.8-1,1.3-1.5c1.5,0.1,3.7,0.2,4.8-0.3
		c-1.3-0.4-2.6-0.1-3.7-0.7c0.4-0.6,0.8-1,1.3-1.5c1.5,0.1,3.2,0.3,4.5,0c-0.9-0.7-2.5-0.4-3.5-0.8
		C111.7,106.1,112.1,105.8,112.6,105.3z M42.1,106.4c10.5,18.8,8.9,36.5-2.3,51.5c-1.3-0.7-2.6-1.2-4.1-1.3l-0.3-45.4L42.1,106.4z
		 M117.2,113.6c0,0.9-0.1,1.7-0.3,2.8c-0.8,0-1.2-0.1-2.1-0.3C115.5,115,116.1,114.4,117.2,113.6z M60.8,114.5c0,0,1.4,0,2.1,0
		c0,0,0.1,3.5,0.4,5.5l4.5,0.2l-1.7,1.8l-3.4-0.1C62,119.5,61.5,117,60.8,114.5L60.8,114.5z M114.3,116.7c0.6,0,2.5,0.5,2.5,0.5
		c0,2.5-0.3,5.2-0.1,8.9c-0.1,0.1-0.6,0.6-0.6,0.6c-0.2-1.2-0.3-2.8-0.5-3.8c-0.2,1.6-0.1,2.6-0.1,4.5c-0.4,0.3-0.7,0.7-1.1,0.9
		c-0.5-0.8-0.2-2.3-0.9-3.1c0,1.4,0.1,2.6,0.2,4c-0.5,0.6-1,1.1-1.8,1.6c0.1-2.2-0.3-3.8-0.7-5.1c0,0-1.1-0.1-2.2-0.1
		c-1.9-0.1-3.2-0.3-3.2-0.3l1.5-1.6c0,0,4,0.6,4.4,0c-1.2-0.2-2.7-0.4-3.7-0.8c0.3-0.6,0.8-1,1.3-1.5c1.3,0.4,4.4,0.5,4.1,0.1
		c-1.1-0.3-2.3-0.4-3.1-1c0.3-0.6,0.7-0.9,1.2-1.4c1.5,0.1,3.7,0.6,4.3,0.1c-1-0.4-2.5-0.5-3.3-0.9
		C112.9,117.7,114.3,116.7,114.3,116.7L114.3,116.7z M68.3,120.9c0-0.3,0.3,1,0.3,2.7c0,2.1,0.1,2.8,0.1,2.8
		c1.8,0.2,3.1,0.1,5.1,0.6c-0.6,0.7-1.2,1-1.6,1.4c-1.4-0.1-2.7-0.1-4.1-0.1c0.8,0.6,2.5,0.4,3.6,0.9c-0.3,0.6-0.8,0.9-1.3,1.4
		c-1.5-0.1-3.4-0.1-4.6,0.1c1.4,0.4,2.3,0.4,3.7,0.6c0.1,0.2-1.1,1.4-1.6,1.8c-1.5,0.3-3.2-0.1-3.8,0.3c1,0.1,2.1,0.3,2.8,0.7
		c0,0.3-1.1,1.4-1.5,1.6c-1,0.2-1.5,0.3-2.4-0.3c0.2-3.1,0.2-6.1,0.2-9.6l0.6-0.4c0,0,0.2,2.8,0.7,4c0.2-1.5,0-4.5,0-4.5
		c0.4-0.2,0.9-0.8,1.4-1.5c0,0,0.1,2.8,0.5,3.8c0.4-1.4,0.4-3.4,0.4-4.7C67.3,121.9,67.7,121.4,68.3,120.9z M62.7,122.7
		c0.3-0.1,2.3,0,2.5,0c-0.5,0.8-1.5,1.8-2.2,2.2C62.8,124.9,62.7,123,62.7,122.7z M116.9,126.9l0.4,2.9l-3.1-0.2L116.9,126.9z
		 M74.8,127.2c0.5,2.2,0.3,3.2,0.7,5.7c1,0.2,3.7-0.2,5,0.5c0,0-0.8,1-1.3,1.5c-1.5-0.1-3.5-0.2-4.6,0.2c1,0.6,2.5,0.1,3.7,0.5
		c-0.5,0.7-0.9,1.1-1.5,1.8c-1.5-0.2-3.4-0.2-4.9,0c0.7,0.8,2.7,0.5,3.9,0.8c-0.3,0.6-0.7,0.9-1.2,1.4c-1.6-0.1-3.3-0.2-4.8,0
		c1.2,0.6,3.8,0.8,3.8,0.8s-1,1.3-1.6,1.7c-1.4,0-3.1-0.1-4.6,0c0.5,0.7,2.7,0.5,3.8,0.9c-0.3,0.8-0.8,1.2-1.5,1.7
		c-1.3-0.3-3.9-0.3-4.5-0.1c1.2,0.3,2.8,0.3,3.7,0.8c-0.5,0.7-1,1.1-1.7,1.6l-5.6-0.5c0,0-0.3-1,0.3-3.7c0.5-2.5,0.9-3.1,1-2.6
		c0,1,0.3,2,0.7,2.7c0.2-1.3-0.2-3.9-0.2-3.9c0.4-0.6,0.8-1.2,1.5-1.8c0,0,0.6,3.1,0.8,3.6c0.2-1.6,0.1-2.3-0.1-4.2
		c0.5-0.6,1.1-1.2,1.7-1.6c0,0,0.5,3.1,0.8,3.7c0.1-1.7,0-3-0.1-4.5c0,0,1.1-1.4,1.9-2c0.6,1.2,0.3,2.3,0.6,3.6
		c0.5-1.3,0.2-2.9,0.2-4.5c0.5-0.6,1.1-1.1,1.7-1.6c0,0,0.6,4.8,0.8,3.3c0-1-0.1-2-0.1-2.9c0-0.9,0-1.2,0.3-1.6
		C73.7,128,74.8,127.2,74.8,127.2z M107.3,129.1c0,0,1.3,1.1,1.3,1.4c-2,2.6-2.6,2.8-2.7,4.1c-0.4,1.7-1,2.7-2,4.2
		c-2,2.4-3.9,4.5-7.3,9.6c-0.2,0.9-0.3,1.5-1.1,1.9c-0.2,0.1-0.7,0.4-1,0.6c-1.3,1-2.1,2.3-2.5,3.9c-0.2,0.9-0.3,1.7-0.7,4.4
		c-0.1,1.1-0.6,3.1-0.6,3.1c-7.5-0.1-14.5,1.2-20.7,4.7L107.3,129.1z M117.3,130.2l1.7,7.6l-1.7,0l-0.2-5.5l-5.3-0.5l2-1.8
		L117.3,130.2z M109.2,130.9c0.5,0.5,1,1,1.4,1.5c-1.4,4.8-6,11-10.5,17.1l-3.3-0.4c-0.1-0.1,4.6-6.6,6.8-9c1.7-2.2,2.7-4.4,3.3-6.9
		C107.7,132.3,109.2,131,109.2,130.9z M111,132.6l2.5,2.5l0.6,35.8c-3.8-3-8.4-5.3-13.2-7l0.8-1.9l0.9-1c3.3-3.6,2.6-7.4,0.1-10.1
		c3-4.4,5.8-7.8,8.1-12.1C110.9,136.8,110.6,134.7,111,132.6L111,132.6z M81.6,139.6c0,0,0.4,0.1,2.5,0.1c2.2,0.1,2.6,0.1,2.6,0.4
		c-0.4,0.5-0.8,0.9-1.2,1.4c-1.4,0-2.8,0-4.2,0c0.5,0.6,3.5,0.7,3.5,0.7c-0.7,0.7-1.1,1.1-1.9,1.8c-1.6-0.1-3.1,0-4.3,0.2
		c1,0.4,3.8,0.5,3.8,0.5s-1.1,1.1-1.6,1.6c-1.7-0.2-3.3-0.2-4.7,0c1.2,0.2,3.6,0.7,3.6,0.7l-1.6,1.7c-1.3-0.2-2.6-0.2-4,0
		c0.9,0.3,3.4,0.7,3.4,0.7s-0.8,0.9-1.3,1.4c-1.7,0.1-2.8-0.1-4.4,0.3c1,0.4,2.3,0.1,3.4,0.6c0.2,0.2-1.5,1.7-1.5,1.7l-5.4-0.1
		l-0.5-5.7c0.4-0.5,1.1-0.9,1.4-1.4c0.7,1.1,0.7,3.1,1,3.8c0.1-1.6-0.1-2.8-0.2-4.5c0-0.3,1.2-1.6,1.5-1.5c0.5,1,0.1,2,0.9,3.3
		c0.2-1.6,0-2.5-0.1-4.3c0.4-0.6,1-1.2,1.5-1.5c0.4,1.9,0.2,3.3,0.9,3.9c0.1-1.7,0-3,0-4.9c0.4-0.5,1-1,1.5-1.4
		c0.6,1.1,0.3,2.7,0.9,3.6c0.1-1.6-0.1-2.8-0.2-4.5c0.5-0.6,1.2-1.3,1.8-1.7c0.5,1.3,0.2,2.9,0.8,3.8c0.1-1.6-0.1-3.2,0.1-4.6
		c0.5-0.8,1.6-2,1.6-2C81.4,134.3,81.9,137.5,81.6,139.6z M110.4,135.1l0,3.5c-1.4,3-4.6,7.4-7.9,12.1l-1.7-0.9
		C104.8,144.4,108.3,139.4,110.4,135.1z M64.3,136.5c0,0-0.9,1.2-1.6,1.7c0-0.7,0.2-1.9,0.1-1.9L64.3,136.5z M117,138.8l2.4,2.4
		l0.6,25.6l-2.5,4.2L117,138.8z M120,142.1c2.2,5.1,4.5,10,7,13.9l-6.5,9.1L120,142.1z M104.3,154.8c0.7,2.8-0.8,5.7-3.1,6.6
		c-0.8,0.3-1.3,0.3-1.3,0.3c-0.3-1.7-0.2-3.3-0.5-4.9c-0.8,1-2.6,2.8-2.6,2.8s0-2.4,0-3.5l-3.4,3.6c0,0-0.3-0.4-0.6-1.3
		c-1.1-2.9,0.4-5.9,2.5-7.3C98.6,148.8,103.7,151.4,104.3,154.8z M144.1,153c-5.4,4.2-13.1,13-19.7,24.5l-2.9,1.2
		c4.6-10.4,13.3-21.4,22.5-28.9C144,150.9,144,152,144.1,153z M144.1,154l0.1,4.7c-4.8,4.6-8.9,9.3-12.5,15.4c-2.1,1-6,2.9-6,2.9
		C125.1,176.9,136.2,159.6,144.1,154z M96.1,157.9c0.2,1.2-0.2,2.9-0.7,3.7c-1.7,2.1-4.5,4.9-4.9,7.5c-0.2,1.4,0.9,2.7,2,2.6
		c3.3-0.4,3.7-6.3,4-9.2c0.1-0.7,0.2-1.3,0.3-1.6c0.7-0.9,1.5-1.8,2.4-2.5l0.4,4.5l1.9-0.6c-5.3,7.2-3.8,7.6-6.5,10.6
		c-2.6,2.7-7.6-0.4-6.3-4.5c1.1-2.8,2.8-5.6,3.3-8.6c0.1-0.9,0.2-1.5,0.2-1.5l1.2,2.5C94.1,159.8,95,158.7,96.1,157.9z M144.3,159.6
		l0,3.2c-2.5,2.8-4.6,4.9-7.1,8.7l-4,1.8C135.8,168.4,140,163.7,144.3,159.6z M95.5,162.4c0,0,0.3,1.5-0.3,4.2
		c-0.3,1.3-1.5,5.1-3.5,4.2c-1.7-1.5,0.4-4.2,1.4-5.5C93.9,164.4,94.8,163.4,95.5,162.4z M90.3,162.8l-1.1,2.3
		c-9.8,0-19.3,3.5-27.7,10.7l-2.1-0.7C68.3,166.6,79.4,162.5,90.3,162.8z M100.6,164.6c11,3.7,16.1,9.1,20.3,14.7l-1.7,0.9
		c-4.4-5.7-9.7-10.8-19.8-13.8L100.6,164.6z M87.9,168.1l-0.5,2c-6.2,0.2-12.7,2.4-19,6.8l-2.3-0.4
		C72.6,171.5,79.8,168.6,87.9,168.1z M116.1,181.5l-2,0.9c-5.8-7.6-11.1-9.7-17.1-11.7l0.6-1.7C105.8,171.3,111.7,175.4,116.1,181.5
		z M34.8,172.6v20.2l-1.4-0.3V173L34.8,172.6z M31.5,173.7c-2.7,10.1-0.6,12.7,0.4,18.5l-2.2-0.4c-2.2-5.9-2.4-11.4-0.6-17.7
		L31.5,173.7z M99,175.3c0.2,0.2-0.1,0.7-0.5,0.9c-0.4,0.2-0.3,0.2-1,0c-0.6-0.2-1.4-0.8-1.4-1C96.5,175.1,98.6,175.1,99,175.3z
		 M100.9,175.4c0.4,0,1.4,0,1.5,0.4c0,0.2-0.4,0.5-1.2,1.1c-1.3,0.9-1.7,1.1-2.1,0.6c-0.4-0.4-0.3-0.8,0.4-1.4
		C99.9,175.6,100.3,175.4,100.9,175.4z M56.6,175.6c0.7,0,2.1,0.9,2.9,2c0.8,1.3,1.7,2.6,2.5,3.9c1.7,2.9,3,5.9,4.1,8.9
		c2.9,7.2,4.6,14.2,6,21.2c0,0.6-0.5,0.6-1,0.4c-0.2-0.1-0.4-0.2-0.5-0.3c-0.6-1.7-0.8-3.4-1.3-5.2c-1.1-4.3-1.6-6.7-3.8-12.8
		c-1.1-3.1-2.8-7.5-4.6-10.8c-1.2-2.1-2.5-4.1-4.2-5.9c-0.5-0.5-1-0.9-1-1C55.8,175.8,56.1,175.6,56.6,175.6L56.6,175.6z
		 M103.7,175.9c0.7,0.2,2.3,0.4,1.7,0.9c-2.3,0.9-3.1,1.9-4.3,2.9c-0.2,0-0.9-0.9-0.9-1.1C101.2,177.3,102.4,176.7,103.7,175.9z
		 M62.4,177.9c3,4.4,5.6,10.7,7.7,16.9c2.3,6.6,3.7,13,4.3,17.6c-0.1,0.1-0.3,0.2-0.7,0.2c-0.6,0-0.7-0.1-0.9-0.6
		c-1.6-7.5-3.7-15.2-6.2-21.8c-1.4-3.5-2.9-7-5.1-10.5c-1.5-2.2-2.3-3.3-2.3-3.5C60.3,175.4,61.9,177,62.4,177.9L62.4,177.9z
		 M53.3,176c1.3,0,3.5,1.6,5,3.6c3.1,4.3,4.9,9.3,6.8,14.2c2.1,5.6,3.7,11.8,4.6,16.7c0.2,0.7,0.4,1-0.2,1.2
		c-0.5-0.1-0.7-0.2-0.9-0.4c-2.5-9.7-5.3-20.3-9.7-28c-4.7-7.6-6.1-5.5-6.9-6.8C52.1,176.2,52.6,176,53.3,176z M64.7,177.8
		c4.1,7.1,5.8,11.4,7.1,15.7c1.9,6.5,4.1,11.6,5.1,19.2c0,0-1.1,0-1.5-0.2c-0.2-0.2-0.4-0.9-0.5-1.5c-1-5.3-2.6-11.6-4.2-16.6
		c-1.8-5.5-4-10.8-7.2-15.9c-0.8-1.4-1-1.9-0.5-1.9C63.9,176.6,64.3,177.3,64.7,177.8L64.7,177.8z M107,177.1c0.6,0,1.1,0.2,1.3,0.6
		c0.2,0.3-0.3,0.4-1.3,0.7c-1.9,0.7-3.2,1.7-4.6,2.8c-0.3,0-0.9-0.7-0.9-0.9C102.4,179,105.1,177.2,107,177.1z M51,177.3
		c3.4,0.1,6.1,4.1,7.5,6.8c0.5,1.1,1.3,2.2,1.8,3.4c2.8,6.2,5.2,14.1,6.3,19.1c0.6,2.4,1.2,4.2,1,4.6c-0.3,0.2-0.9,0-1.2-0.2
		c-0.2-0.1-0.3-0.7-0.6-1.7c-0.8-2.6-2.1-9.9-5.6-17.7c-0.1-0.2-1.8-5.1-4.6-9.7c-1.2-1.9-3.1-3.1-4.8-3.5c-0.9-0.1-1.1,0-1.1-0.5
		c0-0.3,0.1-0.4,0.6-0.5C50.6,177.3,50.8,177.3,51,177.3z M72.5,193.2c-0.2,0-0.4-0.4-0.6-1.2c-0.1-0.4-0.2-0.6,0.5-1
		c4.3-4.5,0.6-11.2-4.8-11.8c-0.5-0.1-1.1-0.1-1.3-0.1c-0.3-0.2-0.8-1.1-1-1.5C72.7,175.8,80.6,186.4,72.5,193.2L72.5,193.2z
		 M109.4,178.4c0.4,0.1,1.4,1,1.3,1.2c-0.1,0.2-1,0.2-2.2,0.5c-2.5,0.5-3.6,2.1-4.8,3.3c-0.3,0.1-0.5-0.1-0.7-0.5
		c-0.2-0.3-0.3-0.7-0.3-0.8C104,180.2,107.5,178.2,109.4,178.4L109.4,178.4z M49.3,179c2.2,0,4.3,1,5.5,2.8
		c4.4,6.7,9.4,21.4,10.6,28.7c-0.1,0.2-1.3-0.1-1.3-0.1c0.2-0.1-5.2-20.1-10.5-27.4c-1.2-2.2-3.5-2.8-5-2.1
		c-1.5,0.8-1.7,2.8-0.6,3.7c1,0.7,2.5,0.6,3.1-0.5c0.2-0.4,0.1-0.8,0-1c-0.1-0.1-0.3-0.1-0.4,0c0.1,1.3-1.6,1.4-2.3,0.9
		c-1.1-0.9-0.4-3.6,2.7-2.5c1.2,0.6,1.6,1.8,1,3.1c-0.6,1.3-1.5,1.9-2.9,1.9c-1.7,0-3.6-1.2-3.6-3.4c0-1.6,0.7-2.9,2.1-3.8
		C48.4,179,48.6,179,49.3,179L49.3,179z M67.6,180c5.3,0.2,7.7,6.4,4.9,10.2c-0.7,0.9-1.2,0.7-1.5-0.4c-0.1-0.5-0.3-0.5,0.1-0.9
		c2.5-2.4,0.4-6.9-3.6-7.1c0,0-0.8-1.1-0.8-1.7C67,179.9,67.4,180,67.6,180L67.6,180z M111.4,180.4c0.4,0.1,1.2,0.9,1.2,1.2
		c0,0.3-0.2,0.3-1.1,0.1c-2.2-0.4-4.4,0.9-6.3,3.7c-0.9,1.7-1,1.5-1.5,0.1c-0.2-0.7-0.2-0.7,0.7-2.1
		C106.3,181.1,108.9,180.1,111.4,180.4L111.4,180.4z M113.5,183.2c1.8,1.7,1,5.4-1.5,5.8c-2.2,0.3-4.2-2.1-2.8-3.7
		c2.4-2.5,4.2,1.6,2.1,1.9c-0.1,0-0.2,0.1-0.2,0.2c1.6,0.5,2-1.7,1.3-2.6c-0.5-0.8-1.5-1.2-2.4-0.8c-1.5,0.5-3,2.5-3.9,5.1
		c-0.2,0.7-0.4,1.4-0.5,1.5c-0.2,0.3-0.2,0.3-0.4,0.2c-0.2-0.1-0.5-1.7-0.5-2.2c0-0.4,0.4-1.6,0.9-2.6
		C107.3,182.9,110.9,180.9,113.5,183.2z M68.4,182.5c2.2,0.1,3.9,3.2,2.9,5.3c-0.3,0.4-0.7,0.7-0.9,0.4c-0.6-1.6-1.2-2.9-1.9-4.5
		C68.2,183,68,182.5,68.4,182.5z M53.8,184.2c2.5,4.3,4.5,9.3,6.2,14.2c1.3,3.8,2.4,7.5,3,10.8c0.1,0.3,0.1,0.5,0,0.7
		c-0.2,0.2-1.4-0.4-1.4-0.4c-2.5-9.5-4.7-16.6-8.9-23.7c-0.1-0.6,0.1-1.3,0.4-1.7C53.4,184,53.6,183.9,53.8,184.2L53.8,184.2z
		 M26.3,192.5c11.6,0.8,20.5,5.7,25.3,18.6c-1.7-1-10.4-7.6-25.3-8.5v-1.8c10.7-0.1,21.2,5.5,20.9,5.4c-4-8.2-13.9-11.5-20.9-11.7
		V192.5z M105.7,197.1c0.2,1.9,0.2,4.1,0.4,5.8c0.2,0.2,0.6,0.3,0.8,0.1c0.7-2,0.9-4.4,2.1-6.1c0.3-0.3,0.6-0.2,1.7-0.1
		c2.4,0.2,2.9-3,1.2-3.8C109,191.6,106.4,195.2,105.7,197.1z M109.2,195.8c-1.7,1.4-1.7,3.4-2.2,5.2c-0.3,1.2-0.7,1.9-0.8,0
		c-0.3-2.8,0.2-7.4,4-8.1c1.9-0.4,2.5,1.6,2,2.5C111.7,196.2,110.4,196.6,109.2,195.8z M29.4,196.7c0.8,0,1.5,0.7,1.5,1.5
		s-0.7,1.5-1.5,1.5c-0.8,0-1.5-0.7-1.5-1.5S28.6,196.7,29.4,196.7z M34.2,197.7c0.7,0,1.4,0.6,1.4,1.3s-0.6,1.4-1.4,1.4
		s-1.3-0.6-1.3-1.4S33.5,197.7,34.2,197.7z M38.6,199.2c0.6,0,1.1,0.5,1.1,1.1c0,0.6-0.5,1.1-1.1,1.1c-0.6,0-1.1-0.5-1.1-1.1
		C37.5,199.7,38,199.2,38.6,199.2z M41.7,201.1c0.5,0,0.8,0.4,0.8,0.9c0,0.5-0.4,0.8-0.8,0.8c-0.5,0-0.9-0.4-0.9-0.8
		C40.9,201.5,41.2,201.1,41.7,201.1z M30.8,203.9c-0.3,1.6-0.1,3.3,0.3,4.5c0.9,2.5,0.5,6.9,0.5,6.9l-2.5,2.6
		c0.2-2.3,0.5-4.8,0.3-6.8c-0.1-1.3-0.7-2.5-0.8-3.8c-0.1-1.2,0.1-3.7,0.1-3.7L30.8,203.9z M34.8,204.6v10.7l-8.4,8.3v-2.2l7.2-7.3
		v-9.9L34.8,204.6z M56.1,228.9l-0.6,0.9h9.7l0.2-0.9H56.1z M68.7,228.9l-0.2,0.9H73l0.1-0.9C73.1,228.9,70.7,228.9,68.7,228.9z
		 M76,228.9l-0.1,0.9h16.7l-0.2-0.9H76z M95.6,228.9l0.3,0.9h4.4l-0.4-0.9H95.6z M103,228.9l0.3,0.9h7.6l-0.6-0.9H103z"/>
</g>
</svg>
