<?xml version="1.0" encoding="utf-8"?>
<!-- Generator: Adobe Illustrator 21.0.0, SVG Export Plug-In . SVG Version: 6.00 Build 0)  -->
<svg version="1.1" id="Layer_1" xmlns="http://www.w3.org/2000/svg" xmlns:xlink="http://www.w3.org/1999/xlink" x="0px" y="0px"
	 viewBox="0 0 178.6 249.4" style="enable-background:new 0 0 178.6 249.4;" xml:space="preserve">
<style type="text/css">
	.st0{fill:#FFFFFF;}
	.st1{fill:#D40000;}
	.st2{fill:#E2CF00;}
	.st3{fill:#131F67;}
</style>
<g>
	<path class="st0" d="M9.1,0.4h161.5c4.7,0,8.5,3.8,8.5,8.5v232.4c0,4.7-3.8,8.5-8.5,8.5H9.1c-4.7,0-8.5-3.8-8.5-8.5V9
		C0.5,4.3,4.4,0.4,9.1,0.4z"/>
	<path class="st1" d="M14.3,56.4c0,0-1.8-2.6-4.2-5.6c-1.6-2-2.9-4.2-3-6.1c-0.1-2.1,1.2-4.3,3.5-4.4c2.3-0.1,3.3,1.6,3.7,3.1
		c0.4-1.4,1.3-3.2,3.7-3.1c2.3,0.1,3.6,2.2,3.5,4.4c-0.1,1.9-1.4,4-3,6.1C16.1,53.9,14.3,56.4,14.3,56.4z"/>
	<path class="st1" d="M165.3,193.9c0,0-1.8,2.6-4.2,5.6c-1.6,2-2.9,4.2-3,6.1c-0.1,2.1,1.2,4.3,3.5,4.4c2.3,0.1,3.3-1.6,3.7-3.1
		c0.4,1.4,1.3,3.2,3.7,3.1c2.3-0.1,3.6-2.2,3.5-4.4c-0.1-1.9-1.4-4-3-6.1C167.1,196.5,165.3,193.9,165.3,193.9z"/>
	<polygon class="st1" points="15,35 17.6,35 13.7,25.3 10.7,29.4 10.8,35 12.8,35 12.8,37.9 5.5,37.9 5.5,35 7.9,35 7.9,14 5.5,14 
		5.5,11.5 13,11.5 13,14.1 10.9,14.1 10.8,24.4 17.4,14 15.1,14 15.1,11.5 23,11.5 23,14 20.9,14 15.6,22.5 20.8,35 23.2,35 
		23.2,37.9 15,37.9 15,35 	"/>
	<polygon class="st1" points="164.7,215.3 162.1,215.3 166,225.1 168.9,221 168.9,215.3 166.8,215.3 166.8,212.4 174.2,212.4 
		174.2,215.3 171.8,215.3 171.8,236.3 174.2,236.3 174.2,238.8 166.7,238.8 166.7,236.2 168.8,236.2 168.8,226 162.3,236.3 
		164.6,236.3 164.6,238.8 156.6,238.8 156.6,236.3 158.7,236.3 164.1,227.9 158.8,215.3 156.5,215.3 156.5,212.4 164.7,212.4 	"/>
	<path class="st2" d="M65.4,212.1c14,1.6,28.4,2,43.2,0.9c3.8,5.3,11.5,16.2,11.5,16.2l-69.6,0.6L65.4,212.1z M47.3,215.8
		c1.9-3.8,2.2-7.4,1.9-12.7c-0.3-4,2.2-7.2,4.8-6c2,0.9,1.1,4.8-1,3.9c-0.8-0.3-1.5,0-1.4,1.8c0.2,4.5,1.4,9.5,0.4,13.8
		C51.3,220.8,45.6,218.9,47.3,215.8z M29.8,209.9c-2.2-3.3,1.7-6.4,4.2-4.9c1.2,0.6,1,1.8-0.5,1.1c-2.1-0.9-4.3,2.3-2.5,3.5
		c0.8,0.6,1.1,0.5,0.5-0.2c-1.7-2,2.6-2.8,2.5-1.5c-0.3,1.6-0.3,2.2-0.5,2.5C32.7,211.8,31.1,211.1,29.8,209.9z M36,195.9
		c-2.4-3,0.3-5.3,0.3-5.2c0.7-0.8-5.7-12.7-4.9-12.8c8-0.9,16.2-0.2,24.2,0c0,0-4.3,7.8-6,11.6c-0.7,1.6,0.9,3.4,0.3,4.5
		c-2.1,2.3-0.8,4.8-2.1,4.9c-3.3-0.6-6.8-1-11.1,0C36.3,199,36.4,197,36,195.9z M70.7,112.9c4.1,20.8-1.9,42.9-15.7,57.5
		c-1.9-1.9-3.4-5.4-5.4-7.8c-5.4-1.6-9.2,0.3-13,2.2c-3.3-1.9-7.1-3.1-10.8-3l-0.1-3.2c3.7-0.1,7.6,0.3,10.9,2.3l5.2-2.1l-16.1-16.9
		L26,139l19.6,19.9l2.5,0.1C42.6,144.2,47.4,120.6,70.7,112.9z M98,139.1l2.8,13.6c0,0-15.9,15.9-24.2,24l-7-0.6
		c3.5-5.2,5.5-10.5,7.8-15.8L98,139.1z M154.3,157.7c-6.6,7.5-14.6,12.3-23.4,17.5c-3.5-4-7.8-8.3-10.3-12.2
		c7.7-4.1,15-7.4,22.6-14.6c-0.4,0.5-9.6,3.6-9.6,3.3c-0.3,1.5-0.1,2.5-1.6,2.9c-1.8-2.5-3.5-4.5-6.3-5.6c-1.2,0.1-2.7-0.7-2.7-0.7
		c0.8-0.2,0.4-9.7,0-9.8c0.9-0.3,1.7-0.9,2.9,0.4c0.5,0.4,5.8-5,7.7-6.8c7.1-0.6,13.4,0.1,20.3-0.1
		C153.8,140.4,154.3,149.2,154.3,157.7L154.3,157.7z M109.3,136.2c-0.2-0.4-2-14.5-0.3-23.3c4.7-14.9,3.5-19,15.5-33.7
		c0.8-0.8,3.6,1.7,5.6,6.1c6,3.8,13.7-1.1,13.7-1.1s3,2.5,9.8,3.8l-0.1,2.7c0,0.8-7.6-0.8-9.2-2.4c0,0-5.7,1.9-5.7,2.3
		c0,1.5,15.1,15.6,15.1,15.6l-0.1,3.3c0.1,0-20.7-21.8-21-19.5C138.6,115.5,128.5,128.4,109.3,136.2L109.3,136.2z M84.2,131.7
		l-0.3-13.5l12.8,0.2l0.5,13.7L84.2,131.7z M25.8,117c0.3-0.5-0.5-25.2-0.4-25.2c8.1-8.1,16.1-12.7,24-17.7c3.6,3.6,6.7,6.6,9.3,11
		l-11,6.8c0.4,1.7-0.7,2.3,6.4,8.7c0.1-0.4,2.5-1.8,2.9,0.2c-1,4.2,0.4,7.7,0.6,9.9c-1,1.3-3.1-0.1-3.1-0.1
		c-1.4-1.5-6.9,5.8-8.4,6.6C39.2,117.1,25.5,117.6,25.8,117z M102.6,73c0,0.1,7,0,7,0.2c-1.3,3.1-4.2,9.4-7.1,16.3
		c-2.4,4-19.7,20.8-19.7,20.8c-0.8-4.9-2.1-9.6-3.3-14.3L102.6,73z M132.7,49.7c2.5,1.1,9.6,0.5,10.7,0c1.4,1,0.5,2.3,0.4,3
		c1.5,1.9,2.3,2.5,0.6,5.6c-0.4,0,5.1,12.6,5.3,12.6c0,0-5.8-2.8-7.9-4.7l-4,5.4l-4.7-6.1c0,0.6-9,6.6-9.1,6.3
		c-0.3-0.3,8.2-9.5,6.5-14.9c-0.4-1.3,0.5-2.6,1.2-3.8C132,52.3,131.5,50.8,132.7,49.7L132.7,49.7z M128,48.6
		c0.4-0.4-2.2-11.8,0.6-16.4c1.2-1.7,3.3-1.8,4.2-0.4c0.7,1.9-1.3,4.5-1.8,5.8c-1.3,3.6,0.6,8.3-0.3,11.7
		C127.9,56.8,122.8,48.7,128,48.6z M147.1,43.6c-1.5,0.1-0.5-4.5-0.2-5.8c0-0.3,2.8-0.9,3.8,0.9C152.2,41.3,150.3,44.7,147.1,43.6z
		 M129.1,20.6l-14.2,17.4c-14.4-1.7-28.8-2.7-43.4-0.5L59.7,21L129.1,20.6z"/>
	<path class="st3" d="M24.2,19.6v211.2h131.2V19.6H24.2z M129,20.7L129,20.7L129,20.7c-5.6,6.5-10.5,14-16.1,19.7c1,3.1,2.5,7,4,9.9
		c2.3,4.7,8,13.5,4.4,20.4c-0.3,0.6-0.7,0.9-1.1,0.9c-0.6,0-0.6-0.4-0.2-1.1c0.8-1.5,1.3-5.2,1-7.1c-0.2-1.2-0.9-3.1-2.2-6
		c-6-11.1-7.8-17.1-7.5-17.1c-0.3-0.2-0.6-0.2-1-0.4c2.1,7,5.4,13,8.1,18.4c2.2,5.1,2.4,7.1,1.3,10.8c-0.4,1.4-1.2,2.4-2,2.4
		c-0.6,0-0.6-0.1-0.2-0.9c2.1-3.8,1.6-7.9-1-12.8c-3.8-8-6-13-7.4-18.1c0,0-0.7-0.2-0.9-0.3c1.1,5.3,4.3,11.4,7.2,17.7
		c2.4,4.8,3.1,8.3,2.2,11.1c-0.3,1.2-1.2,3-2.3,3.1c-0.4,0-0.5-0.2-0.1-0.9c1.8-3.1,2.1-5.9-1.1-12.4c-2.9-6-5.9-12.6-6.9-18.5
		c0-0.3-1-0.2-1.1-0.3c1.6,6.9,4.7,14,8.1,20.8c1.9,4.3,2.1,7,0.7,9.4c-0.8,1.3-1,1.6-1.6,1.7c-0.7,0-0.7,0-0.3-0.8
		c1.7-3.6,1.4-6.8-0.9-11.9c-3.1-7.1-5.8-13-6.9-19.3c-0.2-0.1-1.3-0.5-1.1-0.2c1.6,6,3.6,11.5,6.1,17.1c0.9,1.9,2.4,5.7,2.8,7.6
		c0.9,3.6-1.1,8.6-3.7,8.8c-1,0.1-0.9-0.4,0.2-1.4c1.9-1.8,2.2-4.6,1.6-7.9c-0.5-2.5-1.3-5.2-2.4-8c-2.3-5.6-4.8-11.4-5.6-16.5
		c0.2,0-0.9-0.1-0.7,0c0.6,3.6,1.9,7.7,3.4,11.5c1.6,4.2,4,8.8,4.8,14c0.6,4.2-1.9,8.1-5.1,8.4c-3.8,0.3-4.5-3.5-3.6-5.3
		c1.5-2.6,5.8-1.1,4.5,1.6c-0.7,1.6-3,1.1-2.9-0.6c0-0.2,0.2-0.6,0.2-0.6c-0.1,0-0.4,0.3-0.5,0.5c-0.8,1.4,1.5,3.2,3.1,2.1
		c5.3-2.9,1.7-11.9-0.6-17.3c-2.3-5.1-3.9-9.7-4.6-14.4c-0.2-0.1-1.1-0.4-1-0.2c0.6,2.5,0.9,4.6,1.6,6.7c1,3.3,2.8,7,4.3,10.7
		c1.3,3.7,2.7,6.8,2.1,10.6c-0.1,0.4-0.2,0.8-0.4,1c-0.2,0.3-0.4,0.2-0.5-0.8c0-0.1-0.2-0.3-0.2-0.5c0.1-1.4,0-2.8-0.3-4.2
		c-0.3-1.1-0.9-2.3-2.2-4.5c-0.5-0.8-1.8-3.3-1.3-1.6c0.3,1,1.2,3.1,2.1,4.7c0.6,1,1.2,3.6,1,4.1c-0.2,0.5-0.6,0.5-0.8,0.4
		c-0.2-0.2-0.2-0.9-0.2-1.3c-0.2-1.8-2-5-3.3-6.2c-0.9-1,2.1,4.4,2.4,5.8c0.1,0.6,0.3,1.1,0.1,1.4c-0.1,0.2-0.4,0.2-0.7,0.1
		c-0.3-0.1-0.2-0.2-0.5-1.2c-0.5-1.6-1-2.4-2.3-3.8c-0.4-0.5-0.7,0.1,0,0.9c0.9,1.4,1.6,2.4,1.8,4.2c-0.6,0.8-0.9,0.7-2.1-1.5
		c-0.8-1.4-1.3-1.8-1.5-1.8c-0.5,0,0,0.7,1.5,3.1c0.8,1.3,0.8,2.1-0.1,2.1c-0.3,0-2-1.9-2.4-2.7c-0.4-0.7-0.8-1.2-0.8-0.4
		c0,0.3,1,2.1,1.8,2.9c1.1,1.3,1.5,1.6,1.6,2.2c0.1,0.3,0.2,0.8,0.3,1.1c0.3,1,0.1,1.2-0.4,0.7c-0.3-0.7-0.5-0.8-1.2-1.3
		c-0.6-0.5-1.5-1.6-2-2.5c-0.2-0.3-0.4-0.7-0.6-1c-0.5-1-1.3-1.1-0.8-0.1c0.2,0.5,0.7,1.3,1.1,1.9c0.7,1,0.6,1.6-0.3,1.6
		c-0.4,0-1.4-1.3-2-2.4c-0.4-0.7-1.1-1.2-1-0.5c0,0.2,0.5,1.4,1.3,2.3c0.8,1,0.9,1.6,0.1,1.6c-0.5,0-1-0.5-1.7-1.6
		c-0.7-1-1.1-1.4-1.2-1.2c-0.2,0.1,0.9,2.1,1.9,3.2c0.9,1,0.2,1.6-0.8,0.7c-0.6-0.5-1.7-2-2-2.7c-0.6-1.3-0.9-0.9-0.6,0.1
		c0.4,1.1,1,2.3,1.8,3.1c0.4,0.4,1.2,0.7,1.6,1.1c1.1,1,1.9,1.9,1.8,2.1c-3.2,0.2-5.9-3.3-6.6-5.4c-0.5-1.4-1.1-1.6-0.5,0.4
		c1.6,4.9,6.5,7.4,9.9,5.2c2.1-1.3,0.2-4.8-1.4-3.7c-0.5,0.3-0.5,1.2,0.1,0.7c1.1-0.9,2.2,1.3,1,1.9c-1.7,0.9-3.5-0.8-2.4-2.9
		c1.1-2.2,5.7-0.9,4.8,2.6c-0.5,1.6-2.9,3.5-4.9,3.5c-3.7,0.1-6.3-2.8-7.8-5.7c-0.2-0.4-0.5-1.1-0.8-1.7c-0.2-0.5-0.4-0.9-0.4-0.9
		c0.4,3.5,3.7,7.8,6.6,8.5c4.9,1.2,6.2-1.8,9.4-4.8l2.4,0.3c0.2-0.1,4.5-0.3,4.7-0.2c-17.5,32.1-16.2,70.2-1.1,99.1
		c1,2.1,1.2,1.7-0.5,1.3c-1.7-0.4-3.2,0.2-4.6-0.1c-2.9-0.6-3.5,1.4-5.7,2.4c-2.7,1-2.1,3-2.8,4.8c-0.2,0.3-0.4,0.5-0.2,0.5
		c0.2-0.1,0.8-0.6,0.8-1.1c0.1-1.2,0.5-2.2,1-2.7c0.5-0.5,0.8-0.7,0.9-0.5c0.1,0.2,0,0.7-0.2,1.2c-0.7,1.3,0.2,5.5,0.3,2.5
		c0-2.4,1.5-5.1,3.5-6.2c1.6-0.8,2.1-0.7,0.8,0.5c-1.5,1.6-2.5,3.5-2.6,5.8c0,1,0.4,1.8,0.5,0.9c-0.1-4.4,4.3-9.4,9-6.9
		c0.2,0.2,0.4,0.5,0.4,0.7c-4.6-0.8-8.5,1.7-7.9,7.7c0,0,0.4-1.2,0.6-2.3c0.7-3.6,4.8-5.2,7.7-4.2c0.5,0.2,1,1,0.9,1.1
		c-3.5-1.1-7.3,2.2-7.6,5.9c-0.1,1.2,0,2.2,0.6,0.1c2.3-8,9.2-4.4,8.4-3.7c-5.4-0.7-7.3,3-7.2,7.3c0.1,0.4,0.3,0.5,0.4,0.9
		c0.7,1.6,1,3,1.1,5.9c-0.1,0.7,0.6,5.5-0.1,5.3c-2-0.7-3.5-1.6-6.8-0.1c-0.3,0-0.4-0.2-0.3-0.4c0.1-0.4,0.7-1.1,1.6-2.1
		c1-1.1,1.2-1.5,1.2-1.5s-1.1,0.6-2,1.4c-0.4,0.3-0.6,0.5-0.7,0.4c-0.2-0.2,0.2-1.2,0.9-3.5c0.4-1.4,0.2-1.6-1.7-2.5
		c-1.1-0.6-2.5-0.8-2.5-0.8s0.3,0.3,0.9,0.7c0.6,0.4,1.3,0.8,2,1.1c0.8,0.5,0.7,0.6,0.1,2.7c-1.2,3.9-1.6,5.3-1.5,8
		c0.2,6.4,6.2,5.8,9.6,4.3l0.1,4.2l12.9,18.4l-69.3,0.4c-0.1,0.1,14.9-17,16.8-20c0.1,0-1.6-5.2-2.5-7.4
		c-4.2-10.7-9.8-15.1-6.6-22.2c0.7-1.4,0.8-1.9,1.3-1.9c0.7,0,0.9,0.5,0.1,1.8c-3.4,5.8,3.9,15.9,6.4,22.4c0.4,1,2,5.6,2.3,7.3
		l0.9,0.2c-0.9-3.3-2-6.8-2.6-8.1c-2-4.7-4-8-5.9-12.6c-1.1-2.9-1.6-6.3,0-9.4c0.6-1.1,0.8-1.7,1.2-1.8c0.3,0,0.5,0.1,0.6,0.4
		c0,0.3-0.2,0.8-0.6,1.6c-2.9,5,2.3,13,4.8,18.8c1.7,3.7,3.1,7.7,3.7,11.2l0,0l0.9,0.2c-1.1-6.5-4.3-12.9-7.1-19
		c-2.4-4.8-3.3-9.1-0.1-13.1c0.3-0.3,0.9-0.2,0.9,0.2c0,0.3-0.2,0.8-0.7,1.9c-2.9,6,1.6,11,3.6,16.7c2,4.7,3.8,8.6,4.6,13.5l1,0.2
		c-1.5-7.2-4.7-13.7-7.4-20c-1.3-2.7-1.7-4-1.8-5.9c-0.1-2.5,1.1-5.7,2.3-6.5c0.3-0.2,0.5-0.3,0.7-0.1c0.4,0.2,0.3,0.3-0.4,1.7
		c-1.4,2.6-1.5,5.6-0.2,8.7c2.2,4.8,4.1,8.7,5.4,12.3c1.4,3.8,2.2,7,2.5,10l0.9,0.2l0-0.1c-0.6-4.2-2-8.6-3.5-12.3
		c-1.4-3.5-3.2-6.9-4.6-10.4c-1.7-4.2-0.3-8.7,3.3-11l1.6,0c-0.1,0-3.7,1.4-3.9,6.7c-0.2,5,2.2,8.1,3.9,12.3c2.1,5.1,3.9,9.6,4.4,15
		l1,0.2c-0.4-3.7-1.5-7.2-3-11.4c-1.6-4.6-3.2-6.6-4.7-11.4c-1-3.2-0.9-7.6,1.4-9.7c3.4-3.4,8.1-1,6.9,3c-0.9,2.8-4.7,2.2-4.7-0.4
		c0-1.7,2-2.1,2.7-0.9c0.2,0.2,0.3,1.3,0.3,1.4c0.1,0,0.3-0.9,0.3-1.1c0-1.4-1.8-2.5-3.2-1.8c-1.9,1-3.1,3.2-3,6.1
		c0.1,3.1,0.7,5.2,3.2,10.1c3,5.7,3.9,12,4.6,16.1c0.3-0.1,0.6,0,0.7,0c-0.4-5.7-2.3-11.6-4.6-16.5c-2.8-5.9-3.6-9.5-2.7-12.2
		c0.1-0.4,0.3-0.7,0.4-0.7c0.3,0,0.4,0.5,0.7,1.5c0.1,0.3,0,0.8-0.1,1.2c-0.2,2.4,1.4,7.5,3,9.7c0.5,0.6,1,0.6,0.5-0.5
		c-1.6-2.9-2.6-5.6-2.7-9.1c0-1,1.2-0.6,1.2-0.1c0.1,1.7,0.3,3.7,1.1,5.1c1.6,2.8,2.5,2.9,0.9-0.2c-0.4-0.7-1.4-3.8-1-4.9
		c0.2-0.2,0.5-0.3,0.7,0c0.5,1.7,1.1,3.5,2.3,4.8c0.6,0.7,0.7,0.4,0.4-0.5c-0.5-1-2.2-4.4-1.4-5.2c0.2-0.2,0.1-0.1,0.8,1
		c0.9,1.5,1.4,2.1,1.9,2.6c0.6,0.6,0.8,0.2,0.1-0.9c-1.2-2.1-2-3.9-1.5-4.3c0.4-0.4,0.5-0.2,1.5,1.5c0.4,0.8,1.1,1.9,1.3,2.1
		c0.2,0.3,0.4,0.3,0.4,0.1c-0.2-2-2-4.4-2.7-4.8c-0.1-0.2-0.1-1.8-0.1-1.8c2.6,1.4,2.7,2.9,4.5,5.3c0.2,0.2,0.4,0,0.4-0.4
		c-0.1-0.4-1.1-2.4-1.7-3.3c-0.5-0.7-0.5-1.1-0.1-1.3c0.7-0.3,1.7,0.7,2.7,2.6c0.5,0.9,1.1,1.4,1.1,0.9c0-0.2-0.9-2.5-1.5-3.1
		c-1-1.1-0.5-1.8,0.7-0.8c0.5,0.4,1.3,0.8,2,2.4c0.4,1,0.8,1.1,0.8,0.3c0-0.9-1.4-2.9-2.4-3.5c-0.7-0.4-1.2-0.9-1-1.3
		c0.7-1,3.3,1.5,4.2,3.8c0.3,0.7,0.7,1,0.8,0.7c0.2-0.2-0.3-1.8-0.9-2.6c-0.9-1.7-3-3.4-4.3-3.2c-0.2,0-0.9-1.4-0.9-1.4
		c3.2-0.5,6.4,3.4,6.9,4.8c1.1,2.8,1.6,2.4,0.7,0c-1.8-4.7-7.4-7.4-10.5-5.1c-1.8,1.3-0.7,4.4,1.1,3.9c0.7-0.3,1.4-1,0.2-0.8
		c-1.4,0.1-1.9-2-0.4-2.5c2.3-0.7,2.9,3,1,3.9c-2,0.8-3.9-0.4-3.7-2.6c0.3-4.1,5.3-5.3,10.2-2c1.4,0.9,3.1,4,3.7,5.9
		c0.2,0.6,0.8,0.9,0.9,0.8c0.2-0.2-1.4-3.6-1.9-4.4c-2.1-4.9-9.9-5.2-9.9-4.9c0,0-3,1.9-5.7,5.1l-6.9-0.6
		c17.8-28.4,19.2-70.4,0.9-100.2c0.2,0.2,3.5,1,4.6,0.1c0.8-0.4,1.1-0.5,2-0.2c1,0.4,2.1,0,3.2-1c0.8-0.8,0.9-1,1.4-0.9
		c1.6,0.2,2.7-0.7,3-3.1c0.1-0.9,0.2-1.9,0.1-1.7c-0.1,0.1-0.3,0.9-0.4,1.4c-0.3,1.4-0.6,1.9-1.2,2.3c-0.9,0.7-1.4,0.3-1-0.8
		c0.3-0.7,0.6-2.6,0.2-3.4c-0.1-0.2-0.1,0.4-0.2,0.9c-1,3.7-1.9,5.5-3.7,5.9c-0.8,0.2-1.2,0.1-0.9-0.4c3-3.3,2.8-6.9,2.6-6.6
		c-0.6,2.1-1.8,5.2-3.8,6.5c-1.7,1.1-4.2,1.2-5.6,0.3c-0.8-0.5,0.4-0.7,2.2-0.7c3,0,5.8-4.1,5.4-7.5c-0.1-0.6-0.3,0-0.5,1.1
		c-1.1,3.7-3,6.3-7.4,5.5c-0.3-0.1-0.6-0.3-0.8-0.4c-0.7-0.5-0.4-0.8,1-0.6c3.1,0.4,5.9-2.6,5.9-6.2c0-1.7-0.3-1.7-0.5-0.4
		c-0.4,1.8-1.8,7.4-6.9,5.6c-0.9-0.5-1.4-1.1-1.1-1.2c3,0.6,5.7-0.1,6.7-4c0.5-1.7,0.3-3.4-0.1-4.7c-0.1-0.9-0.5-1.7-0.6-2.6
		c-0.3-2.6-0.7-5.4-0.6-8.2c0.2-0.2,0.3-0.2,1.1,0.4c1.7,1.1,2.9,0.9,4.6,0.2c2.2-0.8,2-0.7-0.3,2c-0.5,0.5-0.9,1.1-1.2,1.8
		c0,0,0.9-0.5,1.5-1.2c1.1-1.4,1.4-1.8,1.6-1.8c0.1,1.6-0.5,3.5-0.8,4.7c-0.4,1.4-0.4,1.7,0.5,2.1c0.4,0.2,1.1,0.5,1.6,0.7
		c0.8,0.4,1.6,0.4,1.6,0.4s-0.5-0.5-1.4-1.1c-2-1.2-2-1.1-1.5-3c0.7-2.2,1-4.2,1.4-6.4c0.9-5.5-3.2-8.5-8.6-6.6
		c-0.3,0.2-0.7-2.9-0.6-3.7c-4.5-4.7-9.7-12-13.4-18.1C83.8,21.1,107.3,20.6,129,20.7L129,20.7z M129.9,21.2h23.7v50.5l-2.3,0
		c-2.6-4.6-4.8-8.9-6.2-13.2c0-0.2,0.1-0.4,0.3-0.6c1-1.2,0.8-3.6-0.2-4.7c-0.3-0.4-0.5-0.2-0.5-1.2c0-0.8,0.1-1.3-0.1-1.7
		c-0.3-0.7-0.6-0.7-0.1-1.5c0.5-0.8,1.2-2,1.5-3c0.5-1.6,0.1-1.9,1.2-1.5c2.6,0.8,4.8-1,4.7-3.7c-0.1-2.2-2.1-4.2-4.5-3.6
		c-0.6,0.1-0.7,0.1-1.5-0.4c-0.2-0.2-0.6-0.5-0.9-0.6c-0.4-0.2-0.7-0.1-0.9-0.4c-0.3-0.6-1.3-1.4-2.5-1.4c-0.7,0-1.7-0.2-2-0.4
		c-0.4-0.2-1.6,0-3.1-0.3c-0.7-0.1-1.2,0.2-1.5,0.2c-0.9,0-0.6-0.1-0.7-0.8c-1.2-3.7-4.6-3.3-6.2-0.5c-0.6,1.1-1,2.6-1.2,4.3h-9.2
		L129.9,21.2z M58.5,21.3c3.4,4.4,6.7,9.4,10.2,13.9c4.3,5.5,4.4,6.1,3.3,11.6c-0.6,3.1-0.9,3.8-2.2,3.6c-1.2-0.2-2.3,0.8-2.4,2
		c-0.3,2.3,1.9,3.7,4.1,2.6c1.2-0.6,1.2-0.7,0.8,1.3c-0.6,2.9-1.7,5.4-2.4,5.3c-1.9-4-6.4-1.1-4.9,3c-0.5,0.7,0.1,1.6,0.4,2.4
		c0,0,0,0.1-2.6,1c-12.7,3.8-28.1,13.7-36.7,22.9V21.5L58.5,21.3z M131.3,30.8c2-0.1,2.3,3.1,0.6,5.5c-1.6,3.7-1.2,6.6-0.8,10.4
		c0,2.2-0.8,4.4-2,5.3c-1.9,1.5-4.3-0.5-3.3-2.5c0.5-1,1.6-0.4,1.9-1.4c0.4-5.5-1.7-10.5,0.6-15.4C129.5,31.3,130.5,30.8,131.3,30.8
		z M136.6,34.3L136.6,34.3l0.2,0.1c1.1,0.5,1.7,3.4,0.7,5.2c-0.2,0-1.8,0-1.8,0.1c0-0.4,0.1-1.1,0.2-1.7c0.1-0.6,0.2-1,0-1.6
		c-0.4-1.5-0.7-1.8,0.5-2C136.5,34.3,136.6,34.3,136.6,34.3L136.6,34.3z M139.1,34.3c0.2,0,0.3,0.1,0.5,0.1c1.1,0.5,1.6,2.8,1.2,5.3
		c-0.1,0.4-0.1,0.8-0.2,0.9c-0.6-0.2-2.1,0.4-2.1,0.4c-0.1-0.1-0.1-1,0.1-1.7c0.4-1.3,0.4-2.2,0-3.6c-0.3-1.2-0.3-1.4,0.3-1.4
		L139.1,34.3z M133.8,34.4c1.2-0.1,0.8,1.9,0.3,2.3c-0.4,0.4-1.2,0.4-1.3-0.1c0-0.5,0.4-2,0.6-2.2C133.6,34.4,133.7,34.4,133.8,34.4
		L133.8,34.4z M142,35.1c0.1,0,0.2,0,0.3,0c1.5,0.2,1.6,4.3,1,5.7c-0.1,0.2-0.7,0.1-0.9,0.2c-1.2,0.4-1,0.5-0.8-1.4
		c0.1-1.4,0.1-2.4-0.1-3.6c-0.1-0.5-0.1-0.8,0.2-0.9C141.8,35.1,141.9,35.1,142,35.1L142,35.1z M135,36.7c0.6,0.8,0.1,2.7-0.3,3.4
		c-0.5,0.8-0.7,0.8-0.4,1.2c0.1,0.1,0.4,0.9,0.2,1.2c-0.3,0.6,0.4,0.7,1.1,1c1.1,0.6,1.6,1.6,2.4,3.5c0.3,0.7,0.8,0.4,0.6-0.3
		c-0.2-0.6-0.3-1.5-0.5-2.1c-0.2-0.6,0-0.9,0.7-0.7c1,0.3,0.9,0,1.3-0.1c0.8-0.5,1.4,0.2,0.9,0.6c-0.3,0.2-0.9,0.3-1.6,0.5
		c-0.6,0.2-0.4,0.7,0.1,0.7c0.5,0,2.1-0.4,3.1-0.7c2.9-0.9,3-1.4,2.7,0.3c-0.4,2.2-1.5,3.8-3.5,4.4c-1.7,0.5-5.6,0.4-7.4-0.2
		c-1.7-0.8-1.8-1.3-2.3-2.8c-0.7-2-1.1-5.5-0.3-7.5c0.7-1.7,0.6-1.5,1.3-1.4c0.6,0.2,1.4,0,1.6-0.4C134.7,37,134.9,36.7,135,36.7z
		 M145.1,36.9c0.5,0,0.9,0.5,1,1.2c0.1,0.7,0.1,1.7-0.2,2.3c-0.2,0.3-1.4,0.3-1.8,0.3c0,0.1,0.4-1.7,0.2-3.4
		C144.6,37,144.9,36.9,145.1,36.9z M148.3,37.4c1.7,0.1,3.2,1.9,3,3.6c-0.2,3.5-5.7,3.2-5.1,0.9c0.6-1.2,0.2-2.8,0.3-3.9
		C147.1,37.5,147.7,37.4,148.3,37.4z M116.8,37.4h3v0.7h-3.5L116.8,37.4z M126.7,37.5v0.9l-4.2,0v5.7h4.7l0.1,1.2l-6.4,0l0-7.8
		C122.7,37.5,125.2,37.5,126.7,37.5L126.7,37.5z M115.4,39.1h4.4V40l-5,0L115.4,39.1z M125,39.8l1.5,1.5l-1.5,1.5l-1.5-1.5L125,39.8
		z M136.8,40.4c0.8,0.1,0.9,1.3,0.5,1.7c-0.4,0.4-1.2,0.2-1.4-0.4C135.7,41.1,136.2,40.4,136.8,40.4z M114.2,41h5.5v0.8h-5.6
		l-0.1-0.5L114.2,41z M144.8,41.3c0.8,0,1.2,0.6,0.7,1.2C144.8,43.3,143.4,42,144.8,41.3z M92,41.4c-1.9,0-3.7,0.5-5.1,1.6
		c-1.2,1-0.2,2.1,1.4,1.1c3.5-2.1,8.6-0.4,11.9,1.3c0.7,0.3,0.7-0.5,0.1-1C98.4,42.6,95.1,41.4,92,41.4z M139.6,41.5
		c0.8,0,0.8,1.1,0.3,1.5c-0.5,0.2-0.6,0.2-1,0C138.3,42.8,138.7,41.5,139.6,41.5z M142.6,41.5c1,0.1,0.9,2.1-0.6,1.4
		C141.4,42.3,141.7,41.5,142.6,41.5z M114.5,42.6h5.3v0.8h-4.9L114.5,42.6z M77.2,43.8c1.3,0,2.5,0.4,3.2,0.9c1.4,1.2,1,1.2-1.4,0.4
		c-1.6-0.4-3.1-0.1-4.1,0.3c-1.2,0.5-1.4,0.3-0.9-0.5C74.6,44.1,75.9,43.7,77.2,43.8z M92.8,44.1c-2-0.1-3.9,0.6-5.5,2.4
		c-0.1,0.4-0.6-0.3-1.3-0.2c-1,0.2-0.7,0.2,0.3,1.4c1,1.2,1.3,1.4,1.3,1.9c-0.1,0.7,0.1,1,0.7,0.9c0.3,0,0.7,0.3,1.2,0.8
		c1.7,1.5,2.5,2.3,3,2.5c0.8,0.4,1.4,0.3,1.4,0.3s-0.7-0.8-1.6-1.4c-1.6-1.1-2.5-2-2.3-2.2c0.1-0.1,0.3-0.1,0.9,0.1
		c1.8,0.6,4.6,0.3,5.9-0.6c0.7-0.4,1.1-1,2.1-0.7c1.3,0.4,1.9-0.4,1.5-0.8c-0.6-0.4-2-0.9-3.3-1.8c-2.8-1.5-5.8-1.4-7.8-0.2
		c-1.2,0.7-1.6,0.2-0.4-0.5c4.4-2.4,7.9-0.4,10.7,1.4c0.4,0.3,0.7,0.5,1.2,0.6c0,0-1.3-1.4-1.8-1.8C96.9,45,94.8,44.2,92.8,44.1z
		 M115.2,44.3h4.6v0.9h-4.2L115.2,44.3z M77.9,45.5c1.3,0,4,1.1,4,2.1c-0.1,0.4-0.7,0-1.3-0.3c-1.2-0.7-2.9-0.9-4.6-0.6
		c-1.3,0.2-1.7,0.5-1.9,0.3C73.6,46,76.7,45.5,77.9,45.5z M115.9,46.2h11.5c0.1,1.2,0,1.2,0,1.6c-2.5,0.2-3,3-1.4,4.5
		c1.3,1.3,3.5,0.8,4.6-1c0.6-0.9,0.9-2.1,1.1-3l0.4,0.7c-1,1.3-1.2,2.1-1,2.7c0.2,0.9-0.1,1.1-0.6,1.8c-0.9,1.2-1,2.7-0.5,3.8
		c0.2,0.3,0.5,0.7,0.4,1c0.3,0-2.8,8.9-7.4,13.4c-0.8,0.5-1.3-0.1-0.9-0.9C125.9,62.1,118.7,53.9,115.9,46.2L115.9,46.2z M94.2,47.7
		c0.2,0,0.4,0,0.7,0.1c-0.5,4-4.4,3.4-4.5,0.1l0.6,0C91.6,50.5,94,50,94.2,47.7z M72.6,47.8c0,0,0.3,0.4,0.3,0.7c0,0.9,0,2.3,0,2.7
		c-0.2,3.8-5,4.6-4.7,1.3c0.3-1.4,2-1.6,2.5-0.3c0.6,1.6,0.7-0.4,0.7-1C71.9,50.2,72.2,49,72.6,47.8L72.6,47.8z M95.8,48
		c0.2,0,0.6,0.2,0.8,0.5c0.3,0.3,0.2,0.5-0.5,0.9c-0.8,0.4-1.2,0.4-0.9-0.5C95.4,48.4,95.5,48,95.8,48z M89.6,48.4
		c0.5,0,0.5,1,0.4,1.2c-0.1,0.3-0.3,0.2-0.7-0.2c-0.5-0.4-0.4-0.7,0-0.9L89.6,48.4L89.6,48.4z M75.5,48.5c0.8,2.6,2.4,2.2,3.2,0.1
		l0.7,0C79.2,52,75,51.9,75,48.7L75.5,48.5z M74,48.8c0.2,0,0.1,0.4,0.1,0.4c0,0.2-0.1,0.4-0.1,0.4s-0.7-0.3-0.3-0.7
		C73.9,48.9,74,48.8,74,48.8z M80.1,49.1c0.1,0,0.2,0.1,0.4,0.2c0.4,0.3,0.3,0.4-0.1,0.8c-0.7,0.6-1,0.3-0.6-0.5
		C79.9,49.2,80,49.1,80.1,49.1z M143.2,49.8c0.8,0,1.3,1.4,0.9,2.5c-0.2,0.5-0.2,0.6,0.5,1.2c0.9,1,1.1,2.5,0.4,3.9
		c-0.5,1-0.5,0.9,0.1,2.7c1.3,3.8,3.2,7.3,5.1,10.8l-2.6-1c0,0-11.9,10.4-20.3,10.8l3,4.8c4.8,1.9,9.4,1.5,13.7-1.3
		c-0.1,0.4,5.3,3.1,9.8,3.4l0,3.2c-3.3-0.4-6.7-0.5-9.7-2.4c0,0-2.8,1.2-5.7,2.1l15.9,16.6l0,2.8c0,0-6.8-6.4-13.7-13.6l0.1,35.5
		l13.7,0.1c0,0-0.3,15.3-0.2,25.8c-6.5,6.7-15.4,13.5-23.6,17.5c-3.9-3.8-7.1-7.9-9.9-12.3c0.4-0.4,0.2-0.4-0.4-0.7
		c-1.7-2.6-5.7-9.8-5.1-9.9c1.2,0.1,6.9-0.6,8-4.1c-0.1-2.6,0.8-5.6,0-8c-1.2-3.2,2.4-2.2,2.6-2V126c-4.8,3.9-9.5,7.7-15.9,9.3
		c-4-20.2,2.1-45.4,20.2-62.5h-1c-18.4,19.3-23.2,40.5-20,62.8c0,0,0.1,0.7,0.1,0.9c0,0.6-0.1,0.8-0.6,1.2c-0.5,0.3-0.9,0.6-0.8,1
		c0,0.1,0.1,0.6,0.1,0.6l-0.3,0.2c-0.7-0.1-0.9,0-1.4,0.1l0.2-0.6l-1.4,0.7l-0.9-1l-0.8,1.2l-1.7-0.2c0,0,1.6,2.1,2,3.1
		c0,0.1-0.3,0.6-0.3,0.7c-0.2,0.8,0,1.6,1.2,2c-0.1,0-0.8,2.7,1.2,2.7c0.6,0,2.2,0.3,2.2,0.3c0.1,0.5-0.1,0.8-0.3,1.1l-1.4-0.7
		l-0.4,1.6l-1.8-0.1l4.4,5.5l0.5-4.3l5.1,0.7c0.8,2.2,6,14.1,15.9,23.1c-0.1,0.3-6.8,3.1-6.8,3.1l-1.1-3.3l-0.8,1.2l-1.5-0.4
		l-0.2,1.4l-1.3,0.4l2.4,1.6l-6.2,1.8c-17.2-28.2-25-67-3.5-108.4l5.4,0.1l-1.1,1.8l1.5-0.2l0.4,1.3l1.1-0.5l1.1,1.4l1.3-3.8
		c0,0,3.6,0.1,4.1,0c0.4,0,8.4-6.6,8.2-6.9c-0.1-0.2-8.4,6-8.7,5.7c0,0-0.8,0.2-0.2-0.6c1.2-1.4,2-2.5,3.2-4.5
		c1.4-2.6,4.3-7.9,3.2-9c-1.1-3.1,1-3.6,1.3-5.1c-0.3-0.9-0.2-1.9,0.5-2.4c3,0.1,7.1,1,10.7-0.1L143.2,49.8z M87.7,55.1
		c-0.4-0.1-0.9,0.3-0.5,0.5v0c3.4,1.4,0.7,4.6-1.9,1.8C84,56,83,56.1,82.3,57.2c-0.3,0.5,0.1,1.3,0.6,1c0.4-0.2,0.8-0.5,1.4,0
		c4.3,4,7.4-1.6,3.7-3L87.7,55.1z M73.2,55.5l0.1,0c0.2,0.1,0.2,1.5,0,2.1c-0.5,3-2.7,10.1-7,6.6c-1.7-1.4-0.2-4.8,1.9-3.6
		c1.6,0.9,0.5,3.1-1.2,1.8c-0.9-0.6-0.6,0.6,0.1,1c1.2,0.6,3.4-0.5,4.5-2.4c0.4-0.8,0.8-2.2,1.2-4.2C73,55.9,73,55.5,73.2,55.5z
		 M73.6,60.7c0.4,2.2-1.3,6-3.6,6.6c-1.8,0.4-4-0.7-3.8-1.8c0-0.3,0.2,0.1,1.8,0.4c2.3,0.4,3.7-0.9,5-3.7
		C73.3,61.2,73.5,60.8,73.6,60.7z M89.2,61.3c-0.1,0-0.3,0.2-0.5,0.4c-0.3,0.3-0.9,0.4-1.6,0c-0.8-0.4-1.9-0.2-2.3,0.1
		c-0.4,0.3-0.9,0.4-1.7-0.2c-0.5-0.3-0.8-0.2-1.4,0.1c-1,0.4-1.4,0.2-1.9-0.2c-0.5-0.4-0.7-0.2-0.7,0.3c0,0.2-0.1,0.9-0.2,1.3
		c-0.2,1-0.4,1.4,0.7,0.9c0.7-0.3,1.8-0.7,2.9-0.1c1.2,0.7,2.4,0.6,3.8-0.1c1.2-0.4,1.9-0.4,2.6,0c1.3,0.7,0.8,0.3,0.7-1.6
		C89.6,61.5,89.4,61.2,89.2,61.3z M74.3,63.4c0.1,0,0.1,0.5,0.1,1.5c-0.4,3.7-3.3,5.8-6.7,4c-1.5-0.9-1.3-1.5,0.2-0.9
		c2.3,0.9,4.7-0.3,5.9-3.4C74,63.7,74.2,63.4,74.3,63.4z M81.9,65.1c-0.6-0.1-0.4,0.4,0.5,0.8c1.1,0.4,3.1,0.7,4.4-0.1
		c0.4-0.6-0.4-0.5-0.8-0.4c-1.5,0.4-2.5,0.2-3.1,0C82.4,65.2,82.1,65.1,81.9,65.1L81.9,65.1z M65,68.1c2.2,2.7,2.5,3.2,4.4,6.3
		c13.8,23.7,18.2,53.6,9.1,80.8c-2.5,7.5-6,15.1-9.9,21.3l-4.7,0l1.6-1.9l-2.2,0.2l-0.1-1.2l-1.7,0.5l-0.8-1.9l-1.5,4.3l-8.7,0
		c20.5-20.2,24.5-44.6,20.7-64.2c0,0,1.7-1.1,1.9-1.7c0.1-0.2,0.2-0.8,0.3-0.9c0.5-0.3,0.8-0.6,1.1-0.8c0.2-0.1,0.5-0.1,0.5-0.1
		s0.8,0.6,1.3,1.1l0.7-1.7l2.1,0.5c0,0-0.8-1-1.2-1.5c-0.6-0.9-1.1-1.5-1.1-1.5c0.4-0.9-0.2-1.7-0.9-2.4c0.1-2.2-1-2.5-3.4-3
		c0.3-0.3,0.5-0.6,0.5-0.9l1.4,1.1l0.5-2.1l1.9,0.1l-5.5-5.4c0,1.5,0.1,3.1,0,4.5c-2.6-0.1-5.1-1-5.2-0.8c-3.8-9-9.5-16.7-15.6-22.6
		l6.1-3l1.7,3.3l0.4-1.9l1.5,0.3l0.3-1.2l1.7-0.2l-1.8-1.8L65,68.1z M101.2,72c0.2,0.3,0.4,0.3,0.7,0.6l-0.6,0.4
		C101.3,72.6,101.3,72.4,101.2,72z M60.8,73.1c-0.5,0-0.9,0.4-0.9,0.9c0,0.5,0.4,0.9,0.9,0.9s0.9-0.4,0.9-0.9
		C61.7,73.6,61.3,73.1,60.8,73.1z M65.8,73.3c-0.5,0-0.9,0.4-0.9,0.9s0.4,0.9,0.9,0.9c0.5,0,0.9-0.4,0.9-0.9S66.4,73.3,65.8,73.3z
		 M49.5,74c3,2.5,5.8,5.8,9.1,11l-0.1,0.7l1,0.4c0,0,5.6,7.4,5.3,10.8c-1.9,0.4-3.7-0.1-7.1,3.1c-1.6-0.9-2.6-0.6-4.2-0.1
		c0,0,0,0.7,0.6,1c1.1-1.3,2.3-0.7,3-0.4c-0.2,0.1-0.8,7.5,0.3,9.1c0.9,2.5-1.4,2-3.1,1.4l0.5,11.7c5.3-6.1,16.5-10.2,15.7-9.8
		c5.6,30.1-7.7,50.2-21.7,64.9l7.3,0c0,0-6.3,10.3-6.8,13.1c0.4,0.9,1.4,2.9-0.3,4.3c-0.6,0.6-0.6,3.5-0.6,3.5
		c-3.9,0.1-7.2-1.2-11.6,0.4c-0.5,0.2-0.6-2.5-0.6-2.9c-2.5-2.2-0.2-6.1,0.1-5.8c-2-6-6-13.1-6-13.1s-2.4-0.1-3.9-0.2
		c-0.3-0.3-0.5-7.2-0.2-7.4c11,0.9,28.2-0.1,28.2-0.1l-4.6-6.5c-5.7-2.2-13.5,1.6-13.1,1.8c0,0-6.2-3.5-10.6-3l0.1-3.4
		c3.9,0,7.4,0.7,10.5,2.6l5.3-2l-16.2-17.2L26,139c5.3,4.9,13.9,14.5,13.9,14.5l0-36.1l-13.9,0c-0.2-9-0.7-16.8-0.6-25.4
		C32.2,85.2,49.5,74,49.5,74L49.5,74z M61.4,75l1.6,7.2l1.1-1.4l1.7,0.5l0.1-1.7l1.5-0.5L61.4,75z M116.7,76.2
		c-0.5,0-0.9,0.4-0.9,0.9s0.4,0.9,0.9,0.9s0.9-0.4,0.9-0.9S117.2,76.2,116.7,76.2z M112.3,76.8c-0.5,0-0.9,0.4-0.9,0.9
		s0.4,0.9,0.9,0.9s0.9-0.4,0.9-0.9S112.9,76.8,112.3,76.8z M58.7,77.6c-0.5,0-0.9,0.4-0.9,0.9s0.4,0.9,0.9,0.9s0.9-0.4,0.9-0.9
		S59.2,77.6,58.7,77.6z M115.7,78.2l-6.5,6.2l1.8-0.1l0.3,1.8l1.6-0.8l1.3,1.2L115.7,78.2z M118.5,80.3c-0.5,0-0.9,0.4-0.9,0.9
		c0,0.5,0.4,0.9,0.9,0.9s0.9-0.4,0.9-0.9C119.4,80.7,119,80.3,118.5,80.3z M66.7,81.5c-0.5,0-0.9,0.4-0.9,0.9c0,0.5,0.4,0.9,0.9,0.9
		c0.5,0,0.9-0.4,0.9-0.9C67.6,81.9,67.2,81.5,66.7,81.5z M70.7,82.3c-0.5,0-0.9,0.4-0.9,0.9s0.4,0.9,0.9,0.9s0.9-0.4,0.9-0.9
		S71.3,82.3,70.7,82.3z M67.1,83.7c0.2,2.5,0.5,5.5,0.5,8.1l1.2-1.2l1.4,0.6l0.5-1.6l1.6-0.1L67.1,83.7z M107.2,85.8
		c-0.5,0-0.9,0.4-0.9,0.9s0.4,0.9,0.9,0.9s0.9-0.4,0.9-0.9S107.7,85.8,107.2,85.8z M64.4,86c-0.5,0-0.9,0.4-0.9,0.9s0.4,0.9,0.9,0.9
		c0.5,0,0.9-0.4,0.9-0.9S64.9,86,64.4,86z M110.9,86.2c-0.5,0-0.9,0.4-0.9,0.9c0,0.5,0.5,0.9,0.9,0.9s0.9-0.4,0.9-0.9
		C111.8,86.6,111.4,86.2,110.9,86.2z M110.3,88.3l-5.4,5.6l1.8,0.2l0.6,1.6l1.1-1l1.4,1L110.3,88.3z M113.3,89.5
		c-0.5,0-0.9,0.4-0.9,0.9s0.4,0.9,0.9,0.9s0.9-0.4,0.9-0.9S113.8,89.5,113.3,89.5z M70.7,91.2c-0.5,0-0.9,0.4-0.9,0.9
		s0.4,0.9,0.9,0.9s0.9-0.5,0.9-0.9S71.2,91.2,70.7,91.2z M47.7,92l-1.4,1.1c1.1,0.4,1.8,1.4,1.8,1.4C48.1,94.5,47.9,93.9,47.7,92z
		 M75.1,92.6c-0.5,0-0.9,0.4-0.9,0.9c0,0.5,0.4,0.9,0.9,0.9c0.5,0,0.9-0.4,0.9-0.9C76.1,93.1,75.7,92.6,75.1,92.6z M68.4,94
		c-0.5,0-0.9,0.4-0.9,0.9c0,0.5,0.4,0.9,0.9,0.9c0.5,0,0.9-0.4,0.9-0.9C69.4,94.4,69,94,68.4,94z M107.1,95.9
		c-0.5,0-0.9,0.4-0.9,0.9s0.4,0.9,0.9,0.9s0.9-0.4,0.9-0.9S107.6,95.9,107.1,95.9z M103.4,97.3c-0.5,0-0.9,0.4-0.9,0.9
		s0.4,0.9,0.9,0.9s0.9-0.4,0.9-0.9S103.9,97.3,103.4,97.3z M141.1,97.5l1.9,2.1V131l-1.9,0L141.1,97.5z M65.4,97.7L65.4,97.7
		c1.6,0,3.4,0.2,3.9,1.2c0.9,1.1-1,0.7-2.5,0.9c-1.4,0.2-0.6,0.5,1.4,0.6c2.8,0.2,3.9,0.2,4.3,0.9c0.2,0.6,0.1,1,0.1,1.7l-3.2-0.2
		c-1.7,0-2.6,0-3.1,0.1c-0.4,0.1-0.3,0.4-0.1,0.6c0.1,0.1,1.3,0.1,2.8,0.1c4,0.1,4.9,0.2,5.2,1.5c0.2,1.2-0.7,1-4.9,0.6
		c-1.8-0.2-2.8,0.3-3.1,0.4c-0.5,0.2,1.3,0.4,1.9,0.4c0.4-0.1,3,0.2,4,0.4c0.8,0.1,0.1,0.1-0.3,0.6c-0.3,0.4-0.2,0.9-0.6,1.1
		c-0.5,0.3-1.6,0.3-3.4,0.3c-2.1,0-3.1,0.5-0.2,0.7c1.9,0.1,2,0.1,2.2,0.6c0.4,1.4-0.5,1.6-2.4,1.9c-0.9,0.2-2.3,0.1-3.3,0
		c-4.1-0.3-5.5-1.3-6-3.1c-2.1-6.8,0.5-10.9,6.4-11.3C64.7,97.8,65,97.7,65.4,97.7z M106.6,98.1l-4.6,6.8l1.8-0.7l0.8,1.8l1.4-1
		l1.4,0.9L106.6,98.1z M71,98.3c0.5,0,0.9,0.3,1.2,0.6c0.2,0.3,0.1,0.5-0.3,0.7c-0.3,0.2-0.9,0-1.3-0.1c-0.5-0.2-0.5-1.1-0.1-1.2
		C70.6,98.3,70.8,98.3,71,98.3z M38.9,98.5l-2.1,2.3c0,0,1.9-0.7,3-1.1L38.9,98.5z M109.5,99.6c-0.5,0-0.9,0.4-0.9,0.9
		s0.4,0.9,0.9,0.9s0.9-0.4,0.9-0.9S110,99.6,109.5,99.6z M143.7,100.4c0,0,2.3,2.3,3.3,3.3l-0.9,0l0,1.9l2.8,0l1.5,1.5l-4.2,0v1.9
		l5.2,0l0-0.8l2.1,1.9l0.2,21l-2.3,0v-0.3l-5.3,0c0,0.7,0,0.3,0,0.3l-2.4,0C143.7,120.8,143.8,110.6,143.7,100.4z M74.6,101.5
		c0.2,0,0.3,0.1,0.5,0.1c0.3,0.2,0.3,0.6,0.1,1c-0.1,0.5-0.5,0.5-1,0.2c-0.8-0.3-0.7-1.2-0.1-1.3C74.3,101.5,74.4,101.5,74.6,101.5z
		 M78.3,103.1c-0.5,0-0.9,0.4-0.9,0.9s0.4,0.9,0.9,0.9c0.5,0,0.9-0.4,0.9-0.9S78.8,103.1,78.3,103.1z M75,103.8
		c0.4,0,0.7,0.2,0.9,0.4c0.5,0.5,0.3,1-0.2,1.3c-0.6,0.3-1.1-0.1-1.3-0.9C74.3,104.1,74.6,103.8,75,103.8z M104.4,106.3
		c-0.5,0-0.9,0.4-0.9,1s0.4,1,0.9,1c0.5,0,0.9-0.4,0.9-1S104.9,106.3,104.4,106.3z M73.5,107.4c0.8,0,1,0.9,0.6,1.3
		c-0.6,0.6-1.5,0.3-1.7-0.2C72.4,107.9,72.9,107.4,73.5,107.4z M101,107.8c-0.5,0-0.9,0.4-0.9,0.9s0.4,0.9,0.9,0.9s0.9-0.4,0.9-0.9
		S101.6,107.8,101,107.8z M104.4,108.5l-4.2,7.1l1.7-0.7l1,1.4l1.1-0.9l1.6,0.8L104.4,108.5z M71.5,109.6c0.7,0,1,0.6,0.4,1.1
		c-0.4,0.4-0.8,0.4-1.2,0C70.1,110.3,70.6,109.6,71.5,109.6z M107.3,109.7c-0.5,0-0.9,0.4-0.9,0.9c0,0.5,0.4,0.9,0.9,0.9
		s0.9-0.4,0.9-0.9C108.2,110.2,107.8,109.7,107.3,109.7z M76.8,110.5c-0.5,0-0.9,0.4-0.9,0.9s0.4,0.9,0.9,0.9s0.9-0.4,0.9-0.9
		S77.3,110.5,76.8,110.5z M146.2,110.7v2l5.3,0v-2L146.2,110.7z M76.9,112.5l-2,7.5l1.7-1l1.1,1.1l1-1.2l1.8,0.5L76.9,112.5z
		 M80.5,113.3c-0.5,0-0.9,0.4-0.9,0.9s0.4,0.9,0.9,0.9s0.9-0.4,0.9-0.9S81,113.3,80.5,113.3z M73.9,113.7c-0.5,0-0.9,0.4-0.9,0.9
		s0.4,0.9,0.9,0.9s0.9-0.4,0.9-0.9S74.4,113.7,73.9,113.7z M146.2,114.3v1.8h5.3v-1.8L146.2,114.3z M102.8,116.6
		c-0.5,0-0.9,0.4-0.9,0.9c0,0.5,0.4,0.9,0.9,0.9s0.9-0.4,0.9-0.9C103.7,117,103.3,116.6,102.8,116.6z M146.2,117.6v1.9h5.3v-1.9
		H146.2z M37.4,117.9l1.9,0l0,33.9l-1.8-1.9L37.4,117.9z M36.6,117.9l-0.1,31l-3.5-3.7l0.9,0v-2.1l-3,0l-1.3-1.3l4.3,0v-2.1l-5.1,0
		v1.3l-2.5-2.7l0-20.3l2.5,0v0.2l5.2,0v-0.3L36.6,117.9z M102.9,118.9l-2.8,7.4l1.8-1l0.9,0.9l0.9-0.9l1.6,0.8L102.9,118.9z
		 M28.8,119.2v2H34v-2H28.8z M106.1,119.6c-0.5,0-0.9,0.4-0.9,0.9s0.4,0.9,0.9,0.9s0.9-0.4,0.9-0.9S106.6,119.6,106.1,119.6z
		 M99.7,119.7c-0.5,0-0.9,0.4-0.9,0.9s0.4,0.9,0.9,0.9s0.9-0.4,0.9-0.9S100.2,119.7,99.7,119.7z M77.7,120.1c-0.5,0-0.9,0.4-0.9,0.9
		s0.4,0.9,0.9,0.9s0.9-0.4,0.9-0.9S78.2,120.1,77.7,120.1z M146.2,120.9v2.1h5.3v-2.1H146.2z M77.6,122l-0.8,1.2l-1.8-0.6l2.4,7.5
		l3.1-7.8l-1.8,1L77.6,122z M28.8,122.6v2H34v-2H28.8z M146.2,124.4v2.1h5.3v-2.1H146.2z M28.8,126.1v2H34v-2L28.8,126.1z
		 M102.8,126.5c-0.5,0-0.9,0.4-0.9,1s0.4,1,0.9,1c0.5,0,0.9-0.4,0.9-1C103.8,126.9,103.4,126.5,102.8,126.5z M74.7,127.5
		c-0.5,0-0.9,0.4-0.9,1c0,0.5,0.4,1,0.9,1s0.9-0.4,0.9-1C75.6,127.9,75.2,127.5,74.7,127.5z M80.7,127.6c-0.5,0-0.9,0.4-0.9,1
		c0,0.5,0.4,1,0.9,1c0.5,0,0.9-0.4,0.9-1C81.6,128.1,81.2,127.6,80.7,127.6z M146.2,127.8v1.9h5.3v-1.9H146.2z M102.8,128.6
		l-1.1,1.2l-1.6-0.5l3.6,6.9l1.8-7.4l-1.6,1L102.8,128.6z M28.8,129.3v2.3H34v-2.3H28.8z M77.6,130.4c-0.5,0-0.9,0.4-0.9,1
		c0,0.5,0.4,1,0.9,1s0.9-0.4,0.9-1C78.6,130.8,78.1,130.4,77.6,130.4z M77.6,132.3c-0.4,0.3-0.6,0.8-1,1.1l-1.7-0.7l1,9.4l4.7-8.9
		l-2.2,0.4L77.6,132.3z M28.8,132.6v2.3H34v-2.3H28.8z M106.5,133.7c-0.5,0-0.9,0.4-0.9,1c0,0.5,0.4,1,0.9,1s0.9-0.4,0.9-1
		C107.4,134.1,107,133.7,106.5,133.7z M100.4,133.8c-0.5,0-0.9,0.4-0.9,1c0,0.5,0.4,1,0.9,1s0.9-0.4,0.9-1
		C101.4,134.3,100.9,133.8,100.4,133.8z M28.8,136v2.3H34V136H28.8z M103.8,136.6c-0.5,0-0.9,0.4-0.9,1s0.4,1,0.9,1
		c0.5,0,0.9-0.4,0.9-1S104.3,136.6,103.8,136.6z M116.3,136.7c1.1,0,2.3,0.1,3.5,0.3c2.6,0.4,3,2.7,3,7.1c0,4.5-1.3,6.3-4.6,7.2
		c-1.2,0.3-5.6,0-6.9-0.4c0-0.4-0.6-1.3-0.8-2c0.3-0.1,1.3,0.1,3.2,0.2c1.6,0.1,2-0.1,1.5-0.4c-2.9-0.7-4.9-0.5-7.7-1.1
		c0-0.8-0.7-1.8-0.7-1.8c0.2-0.1,4.3,0.4,6.5,0.3c1,0,0.4-0.5,0-0.6c-2.6-0.4-4.2-0.3-6.9-0.7c0.1-0.7-0.3-1.3-0.7-1.9
		c0,0,1.4,0,4.2,0c1.5,0,2.8,0.1,3.4,0.1c1.1,0,1-0.5,0-0.6c-1.2-0.1-5.7-0.2-5.7-0.2c0.3-0.2,0.8-2.2,0.6-2.2c0,0,1.2,0,1.9,0
		c3.6-0.1,4.3-0.1,4.3-0.2c0.5-0.4-0.8-0.6-2.2-0.6c-0.6,0-1.4,0.1-1.4-0.2c0-0.3,0-0.9-0.3-1.5C112.6,137,114.4,136.7,116.3,136.7z
		 M73.7,137.8c-0.5,0-0.9,0.4-0.9,1s0.4,1,0.9,1s0.9-0.4,0.9-1S74.2,137.8,73.7,137.8z M109.6,138c0.6,0,0.8,1.1,0.2,1.3
		c-0.9,0.3-1.4,0.1-1.3-0.5C108.5,138.5,109.2,138,109.6,138z M79.8,139c-0.5,0-0.9,0.4-0.9,1c0,0.5,0.4,1,0.9,1
		c0.5,0,0.9-0.4,0.9-1C80.8,139.4,80.4,139,79.8,139z M106.6,140c2.1,0,1,2.9-0.6,1.9C105.2,141.4,105.7,140.1,106.6,140z M73,142.4
		c0,0-0.1,0-0.1,0.1l0.5,8.9l5.1-8.3l-2,0.8l-0.9-1.3l-1.1,0.9C74.1,143.8,73.2,142.4,73,142.4L73,142.4z M104.6,143.3
		c1,0.1,1.6,1.1,0.9,1.6C104.1,145.5,103.3,143.4,104.6,143.3z M102.3,145.3c-0.5,0-0.9,0.4-0.9,1s0.4,1,0.9,1c0.5,0,0.9-0.4,0.9-1
		S102.8,145.3,102.3,145.3z M105.9,146.1c0.8,0,1.2,1.2,0.4,1.6c-0.2,0.1-0.7,0.1-0.9,0C104.5,146.9,105,146.1,105.9,146.1z
		 M70.8,147.5c-0.5,0-0.9,0.4-0.9,1c0,0.5,0.4,1,0.9,1c0.5,0,0.9-0.4,0.9-1C71.7,148,71.3,147.5,70.8,147.5z M142.5,148.7l-3.5,1.2
		v1.7C140.6,151.1,141.4,149.8,142.5,148.7L142.5,148.7z M109.3,149.4c0.2,0,0.5,0,0.6,0.1c0.6,0.3,0.8,1.1,0.2,1.4
		c-0.4,0.2-1.5,0.2-1.8-0.2C107.8,149.9,108.6,149.5,109.3,149.4z M77.1,149.9c-0.5,0-0.9,0.4-0.9,1c0,0.5,0.4,1,0.9,1
		s0.9-0.4,0.9-1C78,150.3,77.6,149.9,77.1,149.9z M73.2,151.5c-0.5,0-0.8,0.4-0.8,0.8s0.4,0.8,0.8,0.8s0.8-0.4,0.8-0.8
		S73.7,151.5,73.2,151.5z M112.3,152.9c-0.5,0-0.9,0.4-0.9,1s0.4,1,0.9,1c0.5,0,0.9-0.4,0.9-1S112.8,152.9,112.3,152.9z M70.2,153
		l0,8.4l5.5-6.9l-1.9,0.4l-0.8-1.7l-1.2,0.8L70.2,153z M105.3,154.9c-0.5,0-0.9,0.4-0.9,1c0,0.5,0.4,1,0.9,1c0.5,0,0.9-0.4,0.9-1
		S105.9,154.9,105.3,154.9z M133.1,154.9c-0.1,0.6-0.5,1.1-0.9,1.6l2.6-1.5L133.1,154.9z M109.1,156.1c-0.5,0-0.9,0.4-0.9,1
		c0,0.5,0.4,1,0.9,1c0.5,0,0.9-0.4,0.9-1C110,156.5,109.6,156.1,109.1,156.1z M112.3,157.1l-1.1,1.6l-1.5-0.5l-0.4,1.5l-1.8-0.1
		l5.8,5.1L112.3,157.1z M67.3,157.7c-0.5,0-0.9,0.4-0.9,1s0.4,1,0.9,1c0.5,0,0.9-0.4,0.9-1S67.8,157.7,67.3,157.7z M153.7,160v69.2
		h-32.2l-13.5-19c-0.3-3-0.1-6.2,1.1-10.3c1.3,0.9,4.2,0.4,4.1-3.2c-0.1-2.4-3.6-3.6-5.4-1.8c0.1-2.3,1-5.7,2.3-6.7
		c0.9,0.8,1.1,2.1,3.1,1.7c1.4-0.2,2.6-1.9,2-3.8c-0.2-0.5-0.2-1.1-0.2-1.5c0-0.4,0-1.1,0-1.5c-0.1-0.5-0.1-1.1-0.1-1.1
		C129.8,178.7,143,169.5,153.7,160z M73.9,160.3c-0.5,0-0.9,0.4-0.9,1c0,0.5,0.4,1,0.9,1c0.5,0,0.9-0.4,0.9-1
		C74.8,160.7,74.4,160.3,73.9,160.3z M69.4,161.2c-0.5,0-0.9,0.4-0.9,1c0,0.5,0.4,1,0.9,1s0.9-0.4,0.9-1
		C70.4,161.7,69.9,161.2,69.4,161.2z M115.9,161.7c-0.5,0-0.9,0.4-0.9,1c0,0.5,0.4,1,0.9,1c0.5,0,0.9-0.4,0.9-1
		C116.9,162.1,116.4,161.7,115.9,161.7z M66.1,162.7l-1.5,8.9L71,165l-1.7,0l-0.3-1.5l-1.6,0.5L66.1,162.7z M109.5,164.6
		c-0.5,0-0.9,0.4-0.9,1c0,0.5,0.4,1,0.9,1c0.5,0,0.9-0.4,0.9-1C110.5,165,110.1,164.6,109.5,164.6z M113.7,165.6
		c-0.5,0-0.9,0.4-0.9,1c0,0.5,0.4,1,0.9,1c0.5,0,0.9-0.4,0.9-1C114.6,166.1,114.2,165.6,113.7,165.6z M62.1,166.8
		c-0.5,0-0.9,0.4-0.9,1c0,0.5,0.4,1,0.9,1s0.9-0.4,0.9-1C63,167.2,62.6,166.8,62.1,166.8z M117.4,167.5l-1.5,1.2l-1.4-0.9l-0.3,1.9
		l-1.2,0.6l5,3.6L117.4,167.5z M121.2,170.1c-0.5,0-0.9,0.4-0.9,1c0,0.5,0.4,1,0.9,1c0.5,0,0.9-0.4,0.9-1
		C122.1,170.5,121.7,170.1,121.2,170.1z M68,170.4c-0.5,0-0.9,0.4-0.9,1c0,0.5,0.4,1,0.9,1s0.9-0.4,0.9-1
		C69,170.8,68.5,170.4,68,170.4z M63.9,171.6c-0.5,0-0.9,0.4-0.9,1c0,0.5,0.4,1,0.9,1c0.5,0,0.9-0.4,0.9-1
		C64.8,172,64.4,171.6,63.9,171.6z M118.7,174.1c-0.5,0-0.9,0.4-0.9,1s0.4,1,0.9,1s0.9-0.4,0.9-1S119.3,174.1,118.7,174.1z
		 M114.8,175c-0.5,0-0.9,0.4-0.9,1c0,0.5,0.4,1,0.9,1c0.5,0,0.9-0.4,0.9-1C115.7,175.4,115.3,175,114.8,175z M78.4,176.3L78.4,176.3
		c0.1,0.1,0.4,1,0.2,1.4c-0.1-0.1-0.8-0.7-0.7-0.9C78,176.7,78.4,176.3,78.4,176.3z M57.1,177.8c0,0,0.9,0,1.1,0.1
		c0,0.2-0.2,0.8-0.5,1.3c-1.2,2.9-1.6,6.5-0.1,9.5c2.1,4.2,7.4,14.8,6.9,14.9H52.5l0-1.9c3.4-0.1,4-2.3,3.1-4
		c-0.6-1.2-2.3-1.9-3.8-1.3c-2.2,0.9-2.3,2-3.1,3.7l-0.3-0.4c0.7-0.9,0.9-1.7,0.8-2.7c-0.1-1-0.1-0.7,0.2-1.2
		c1.9-2.1,0.7-4.8,0.7-4.8C49.9,189.4,55.8,178.8,57.1,177.8L57.1,177.8z M26.9,178.1L26.9,178.1c0.8,0,1.6,0,2.4,0
		c3.5,2.8,6.5,12.2,6.3,12.4c-0.2-0.1-2.8,3,0,6c0,0-0.2,1.8,0.4,2.7c-1.3,2.6-1.5,2.8-1.6,5c0,0-0.2,0-1.4,0c-5.7,0-6,7.4-0.3,7.8
		c0.8,0.1,1.1-0.1,1.5,0.4c0.5,0.6,0.9,1.2,1.7,0.9c0.2,0,0.5,0.2,0.8,0.5c0.6,0.8,1.4,1.3,2.5,1.1c0.4,0,0.8,0.2,1.3,0.3
		c0.5,0.4,1.4,0.7,2.1,0.4c0.2-0.1,0.6-0.1,0.9,0c0.8,0.4,1.7,0.1,2-0.1c0.8-0.4,0.9,0.2,0.9,0.8c-0.4,1.4,0.5,2.7,1.8,3.2
		c2.8,0.9,4.1-0.9,4.7-4.3c0.1-0.7,0.3-1.4,0.3-1.4h9.2l-13.3,15.5H26.1v-51.2C26.3,178.1,26.6,178.1,26.9,178.1L26.9,178.1z
		 M110,180.5c0.8,0,1.6,0.2,2.3,0.4c1.7,0.7,1.8,1.9,0.1,1.3c-2.7-0.9-5.7,0.8-6.3,3.2c-0.1,0.4-0.2,0.8-0.3,0.9
		c-0.4,0.5-0.4,0-0.2-1.3C105.8,182.4,107.6,180.6,110,180.5z M111,182.8c0.8-0.1,1.6,0.1,2.5,0.7c0.6,0.7,0.4,1.2,0,1.1
		c-2.3-1-5.2,0.2-6.3,3.1c-0.7,1.8-0.8,0.8-0.5-0.6C106.6,185.3,108.6,182.9,111,182.8z M95.6,183.4c-1,0-1.9,0.2-2.4,0.7
		c-0.9,0.9-0.2,0.9,1.5,0.3c0.8-0.3,2.4-0.2,3.3,0.2c0.8,0.3,1.1,0.4,1.1,0.2C99,183.9,97.2,183.4,95.6,183.4z M111.8,185.2
		c1,0,2.1,0.5,2.4,1.2c0.4,1,0.1,2.7-1.3,2.9c-1.7,0.2-2.6-2.7,0.5-2.2c-0.4-1.2-1.8-0.9-2.5-0.6c-1.4,0.6-2.4,2.1-3.3,4.7
		c-0.3,0.8-0.4,1.2-0.5,1.1c-0.2-0.1-0.2-1.3,0.1-2.8c0.7-2.6,2.4-4.2,4.1-4.2C111.5,185.2,111.6,185.2,111.8,185.2z M89.4,185.2
		c-0.2,0,0.1,0.6,0.5,1.4c0.2,0.5,0.4,1.1,0.4,1.2c0,0.5,0.3,0.6,0.9,0.3c0.6-0.3,0.7-0.6,1.5-0.2c0.8,0.4,1.6,0.7,2.3,0.3
		c0.4-0.2,0.7-0.2,1.4,0c0.9,0.2,1,0.3,1.7,0c0.9-0.4,1.9-0.1,2.1,0.1c0.2,0.2,0.1-0.1,0.6-1.2c0.2-0.5,0.5-1.1,0.4-1.3
		c-0.1-0.2-0.9,0-1.8,0.3c-0.5,0.1-0.9,0.1-1.8-0.2c-1.9-0.5-3.1-0.4-4.2,0.2C92.8,186.4,91.2,185.9,89.4,185.2L89.4,185.2z
		 M93.1,190.3c-0.8,0-1.6,0.5-2,1.3c-0.4,1,0.3,2.9,1.3,3c0.9,0.1,0.9-0.4,0.4-0.6c-0.7-0.2-1.6-1.3-1-2.2c0.4-0.6,1.5-0.6,2.3,0.1
		c1.6,1.5,3.4,1.6,3.7,0.3c0.1-0.5-0.3-1.2-0.9-1.1c-0.5,0.2-1.6,0.2-2.5-0.4C94.1,190.5,93.6,190.3,93.1,190.3z M109.9,195.2
		c4-0.2,2.3,5.4,0,3.9c-0.8-0.5-0.5-2.4,1.8-2.4c-2.2-1.7-3.7,0.4-3.1,2.7c-0.5,0.8-0.6,2.2-0.9,3.1c-0.5,0.9-0.9-1.5-0.4-3.9
		C107.6,196.3,108.4,195.3,109.9,195.2z M86.2,195.3c0,0,0.8,1,1,1.1c2.5,2,3.8,3.2,1.7,2.6c-3.3-0.8-4.1,0.2-6.7,1.3
		c-0.5,0.2-0.6,0.1-1.1-0.1c-2.2-0.7-2,0.7,0.3,2c3.5,1.9,6.4,2.3,9.1,0.9c0.7-0.4,1.2-0.6,1.2-0.6s-0.1,0.7-1,1.3
		c-2.6,1.5-5.3,1.4-9.4-1c-0.7-0.4-1.3-0.8-2.1-1.1c0.5,0.8,1,1.2,1.8,1.6c3.3,1.9,7.5,3.4,11,0.5c0.7-0.7,0.9-1,1.4-0.7
		c1.5,0.8,1-0.6,0-1.8c-0.4-0.4-0.6-0.8-0.6-1.1c0.1-1.1-0.5-1.1-1-1c-0.6,0-0.6-0.2-1.3-1.1c-0.6-0.7-1.1-1.2-1.7-1.7
		C88,195.9,87.1,195.6,86.2,195.3z M53.3,196.9c2.4,0.3,3.1,3.9,0,4.2c-1.4,0.1-1.7,0.2-1.4,3.1c0.1,0.5,0.3,2.2,0.4,2.8
		c0.8,7.6,0.2,11-1.9,11.9c-0.8,0.3-1.5,0.2-2,0c-1.3-0.5-1.9-2.2-0.9-4.1c0.3-0.5,0.6-1.3,0.7-1.8c0.1-0.5,0.4-1.5,0.6-2.3
		c0.5-1.9,0.8-4.8,0.5-7.6c-0.2-1.9-0.2-2,0.3-3.3C50.5,197.9,51.2,196.9,53.3,196.9L53.3,196.9z M102.7,198.7
		c1.2-0.1,2.4,0.8,2.1,2.2v0l-0.7,0c-0.8-2.7-2.4-1.8-2.7,0.1l-0.6,0C100.9,199.5,101.8,198.8,102.7,198.7z M41.9,198.9
		c0.4,0,0.9,0,1.3,0.1v0c4.5,0.4,5.3,1.6,5.6,7.1c0,2.7-0.1,4.3-0.5,4.9c-0.7,0.3-1.3-0.3-2.3,0.3c-0.5,0.3-0.4,0.4-0.6,0
		c-0.2-0.3,0-1.7,0.4-2.8c0.3-1.1-0.2-1.7-1.7-3.1c-0.4-0.4-0.8-0.9-1.1-1.6c-0.8-2.1-1.2-1.2-0.5,0.6c0.3,0.8,0.4,1.2-0.6,0.8
		c-0.6-0.2-1.1,0-1.5,0.3c-1.2,0.3-2.3-0.4-1.2-0.8c0.6-0.2,1.8-0.6,2.2-0.6c0.3,0,0.4-0.1,0.4-0.2c0-0.5-2.4-0.5-4.2,0.2
		c-2.2,1-2.3,0.9-2.1-0.8C35.8,199.7,38.8,198.8,41.9,198.9L41.9,198.9z M87,199.3c1.1-0.1,2.2,1.3,2,2.4l-0.5,0
		c-0.3-2.1-2.2-2.2-2.8,0.2l-0.8,0C85.4,200,86.2,199.3,87,199.3z M100.3,199.3c0.5,0.3,0.1,1-0.3,1.2c-0.2,0-0.8-0.4-0.6-0.6
		C99.6,199.6,100,199.4,100.3,199.3z M105.4,199.7c0.3,0,0.7,0.2,0.8,0.6c0,0.6-0.5,0.5-0.6,0.4
		C105.3,200.4,105.2,199.7,105.4,199.7z M89.7,200.2c0.8,0.1,1.1,1.2,0.2,1.2C89.5,201.5,89.5,200.4,89.7,200.2z M84.6,200.3
		c0.1,0-0.1,0.9-0.3,1c-0.4,0.3-0.9,0-0.9-0.3C83.5,200.4,84.2,200.3,84.6,200.3z M99.3,202.4c1.6,0.6,3.7,1.2,5.6,0.5
		c0.7-0.3,1.3-0.6,1.3-0.3c0,0.3-0.6,0.8-1.6,1.1c-2.1,0.6-3.6,0.4-5.1-0.7C99.1,202.7,99,202.4,99.3,202.4z M98.6,203.4
		c2.6,1.5,4.9,1.7,7,0.6c0.9-0.3,0.9,0,0.9,0.5C102.7,207.8,98,204.3,98.6,203.4z M32.5,204.5c0.8,0,1.6,0.4,2.5,1.2
		c-0.6,1.3-1,4.6-2,5.5C27.1,210.9,29.1,204.5,32.5,204.5z M79.8,204.5c-0.2,0-0.4,0-0.5,0.1c-0.3,0.3,0,1.2,0.7,1.5
		c5.5,2.4,8.3,2.7,11.4,1.6c1.3-0.5,2-1.5,2.1-2c0.1-0.6-0.8-0.7-2.2,0c-4.4,1.8-7.2,0.4-10.8-1C80.2,204.6,80,204.5,79.8,204.5z
		 M52.6,204.7h5.8l0,8h-5.1l0-1.1h3.8v-5.8h-4.4L52.6,204.7z M59.6,204.7h5.5l0.3,0.8h-5.8V204.7z M38.3,205.8c0.9,0,1,0.9,0.3,1.5
		c-0.3,0.3-0.9,0.4-1.2,0.1C36.9,206.8,37.4,205.8,38.3,205.8z M41,206c0.8,0,1,0.7,0.4,1.3c-0.4,0.4-0.6,0.4-1,0.1
		C40,207,40.3,206,41,206z M35.9,206.2c0.2,0,0.4,0,0.5,0.2c0.5,1-1.1,1.7-1.4,0.9C34.7,206.7,35.3,206.2,35.9,206.2z M65.6,206.3
		l0.4,1l-6.4,0v-1L65.6,206.3z M43.8,206.6c0.9,0.1,0.8,1,0.3,1.4c-0.7,0.7-1.4,0.5-1.2-0.4C43.1,207,43.4,206.6,43.8,206.6z
		 M54.8,207.3l1.5,1.5l-1.5,1.5l-1.5-1.5L54.8,207.3z M39.1,207.9c0.2,0.1,0,0.6-0.1,1.7c-0.3,1.1,0.4,3.4,0.2,3.7
		c-0.4,0.5-1.1,0.3-1.5,0.1c-1.1-0.7-1.2-4.8-0.1-5.1C38.3,208.6,38.7,208,39.1,207.9L39.1,207.9z M59.6,208h6.6l0.3,0.8l-0.2,0.5
		l-6.7,0V208z M41.6,208.1c0.3,0,0.4,0.6,0.2,1.3c-0.3,1.3-0.3,3-0.1,3.7c0.2,0.5,0.3,0.9,0.2,1c-0.3,0.5-1.3,0.2-1.7-0.5
		c-1-1.9-0.8-5.4,0.4-5.2C41.1,208.7,41.3,208.3,41.6,208.1z M35.9,208.2c0.3,0,0.5,0.1,0.3,0.4c-0.3,0.5-0.1,3.2-0.1,3.4
		c0,0.3-0.8,0.1-1.2-0.1c-1-0.5-0.8-1.8-0.6-2.8c0.2-0.8,0.7-0.9,1.3-0.9L35.9,208.2L35.9,208.2z M44.5,208.8c0.3,0,0.4,0.2,0.3,1.2
		c-0.1,0.8-0.1,1.4,0,2.2c0.3,1.6,0.3,2-0.1,2.3c-0.5,0.4-1.1,0.3-1.6-0.2c-1-0.8-1-4.7-0.3-5C43.7,209.5,44.1,208.9,44.5,208.8
		L44.5,208.8z M65.9,209.9L65.9,209.9l-1.1,1.1h-5.2v-1.1L65.9,209.9z M47.1,211.6c0.8,0,0.7,1.5,0.2,2.4c-0.4,0.6-0.6,0.6-1.2,0.1
		C45.5,213.5,46.2,211.6,47.1,211.6L47.1,211.6z M64.2,211.8l-0.7,0.8l-3.8,0v-0.8L64.2,211.8z"/>
	<path class="st1" d="M38.5,182.8l-6.6-5.1c7.6-0.2,15.3,0,22.9,0.1l-7.6,5.5c-1.1-1.9-3.9-5.5-4.7-5.3
		C42.1,177.9,39.5,181.2,38.5,182.8z M94,180.9c-0.2-0.1-0.3-0.4-0.4-1.2c-1.9-8.9-11.2-8.3-11.1-8c-0.1-0.4,11.5-11,18.3-19.3
		c2.1,6.4,8.3,20.9,8,20.9c0,0-1.8,0-6.5-0.1c-4.3,2-7.2,3.9-7.1,6.6c0,1-0.3,1.4-0.6,1.3C94.4,181.1,94.2,181,94,180.9z
		 M115.1,152.3c6-0.1,7.2-3.1,7.9-3.4c4-0.7,6.4,2,8.1,4.8c2.2,1.4,1.9,0.1,2.4-2l5.5-1.6l0,1.8c-1.7,0.9-4.2,3.3-4.2,3.3l-1.7-0.1
		l-1,1.3c-3.8,2.1-7.6,4.6-11.6,6.2C120.5,162.5,115.7,156.2,115.1,152.3L115.1,152.3z M39.9,152.9l-0.1-35.3
		c2.5-0.2,7.1-0.2,7.1-0.2c1.9-3.4,4.5-5.1,7.2-7.1c0.4,4.3,0.5,8.5,0.4,12.9c-7.2,8.8-11.1,19.7-6.7,36l-2.6-0.3L39.9,152.9z
		 M79.4,154.8c2-7.4,3.6-14.8,4.3-22.5l13.6-0.2l0.3,4.7L79.4,154.8z M125.8,138.8l-0.3-13.2c9.9-12,10.5-22.5,6.8-35.8
		c3.3,0.8,5,3.4,8.1,6.9v34.4c-2.2,0.3-7.6,0.6-7.6,0.6C132.8,133.4,128.2,137.3,125.8,138.8L125.8,138.8z M83.7,118l-0.6-5.8
		L100.8,95c-1.5,7.4-3.2,15-3.7,22.9H83.7z M54.4,99.8c-1.3,0.8-5.9-4.1-6.7-7.4c1.2-1.6,11.4-6.7,11.4-6.7s6,7.8,5.7,11
		c-2.7,0.7-5,0.9-7,3.1C56.7,100,56.3,98.7,54.4,99.8z M46.3,93.2c1.4,0.2,0.5,2.2,0.3,3.6l-7.5,2.3C41.7,96.8,43.5,94.9,46.3,93.2z
		 M70.8,76c1.5,0,3.2,0.6,4.4,0.1c0.4-0.2,1.3-0.4,2.3-0.3c2.3,0.7,3-1.8,4.5-1.8c1.9,0,2.9-1.3,2.9-3.9c0-1.1,0.1-1.3,0.3-1.4
		c0.6-0.3,1.3,0.1,1.4,0.8c1.3,4.9,4.7,9.2,10,8.9c-4.2,4.4-17.1,17.8-17.1,17.8C77.2,89,74.1,82.3,70.8,76z M125.4,71.8l7.7-5.7
		l4.6,5.7l4-5.4c2.4,1.7,7.7,5.5,7.7,5.5S133.5,72.1,125.4,71.8z"/>
	<path d="M129.8,20.2l-71.1,0.5l13.8,18.7c14.7-3,27.5-1.1,40.7,1.3L129.8,20.2z M128,21.2l-4.7,6c-1.3-1.2-4.2-0.8-3.8,1.9
		c-3.6-1.9-4.4,3.3-1.3,3.1c-0.4,1-3.5,1.3-4.4-0.6c-3.2,1.8-4.2,0.1-5-1.1c4.1,2.8,6-2.9,1.6-3.3c1.8-3.6-4.5-5.2-4.1-0.5
		c-4.1-0.9-3.2,4.9-0.1,3.7c-2,3-5.2,1-5.9,0.4c-1.7,1.3-4.8,1.3-5.7-0.7c4.6,0.9,4.1-5.2,0-3.8c2.2-4.7-5.1-4.1-3.3-0.2
		c-4.1-0.2-3.2,5,0.4,4.1c-3.2,3.1-5.6,0.2-6.1,0.1c-1.9,2.1-5.2,1-5.7-0.3c3.3,1.3,4.3-4.3,0.2-3.9c1.1-3.6-4.9-4-3.6,0.1
		c-3.3-0.8-3.5,4.6,0.2,3.7c0.2,1.5-2.7,2.8-4.4,1.4c-1.3,0.7-2.7,1.8-4.4,0.2c2.6-0.4,3-4.8-1.2-3.9c0.2-2.7-1.3-2.9-3.2-2.2
		l-3-4.2L128,21.2z M77.8,26.2c0.8,0,1.6,0.5,1.1,1.6c-0.2,0.5-0.6,0.8-0.5,1.2c0.1,0.3,0.4,0.8,0.8,1.4c3.6,4.7,10.8,4.5,12.9-0.3
		c0.4-0.9,0.4-1.1-0.2-1.9c-0.6-0.9,0.1-1.9,0.9-1.8c1.2,0.1,1.4,1.2,0.8,1.9c-1.2,1.6,2.1,5.1,5.5,5.7c4.3,0.7,8.4-2.4,7.8-5.1
		c0-0.2-0.1-0.3-0.1-0.5c-0.5-2.3,3.2-1.2,1.9,0.3c-0.5,0.5-0.8,0.7-0.7,1.3c1,4.9,6.9,5.4,9.7,3.9c-3.6,6-9.3,1.4-10.3-2.8
		c-5.1,7.4-11.1,5.9-14.5-0.6c0.4,0.4-6.7,11.7-14.7,0.1c-3.4,9.3-9.6,3-9.2,2.6c2.8,1.6,8,1,8.5-3.9c0.1-0.6-0.4-0.7-0.7-1.1
		C76.3,26.8,77,26.2,77.8,26.2z M65.6,28.4c0.6,0.1,0.8,0.3,0.6,1L65.6,28.4z M120.8,30.2l-0.9,1.2
		C119.6,30.8,119.6,30.3,120.8,30.2z M130.8,30.6c-3.1,0.1-3.8,5.8-3.7,7.3c0,2,0.4,7,0.5,7.8c0.2,1,0,2.5-0.4,2.6
		c-1.9,0.5-2.2,2.9-0.8,3.9c1.1,0.8,2.9,0.4,3.7-1.1c1.1-2.1,1.4-4,1-6.4c-0.5-2.9-0.1-6.6,0.9-8.3c1.8-3.1,1.7-5.1-0.1-5.7
		C131.5,30.6,131.1,30.6,130.8,30.6z M130.8,31.1c2.6,0,2.5,2.6,1.1,3.4c-0.6,0.3-1.2,0.3-1.9-0.1c-0.8-0.4-0.7,0.1,0.1,0.6
		c0.9,0.7,1.3,0.6,0.8,2.2c-0.5,1.5-0.7,4.7-0.5,6.5c0.7,5,0.1,7.5-2,8.3c-1,0.4-2.1-0.2-2.4-1c-0.4-1.3,0.3-2.4,2.3-2.1
		c0,0,0.1-0.4-0.4-4.7c-0.7-6-0.4-10.2,0.7-11.7C129.2,31.7,130,31,130.8,31.1z M148.2,37.3c-0.6,0-1.2,0.2-1.9,0.5
		c0.1,1.8-0.2,3.7-0.3,5.5c3.2,1.9,5.8-0.5,5.5-3C151.3,38.8,150,37.2,148.2,37.3z M148.4,37.8c1.5,0.1,2.8,1.4,2.8,3
		c-0.1,1.9-1.8,2.9-3.4,2.6c-0.5-0.1-1.1-0.5-1.1-0.5l0.1-0.9c0,0,0.6,0.2,1.1,0.2c3.2,0.1,2.3-3.9,0.3-3.5c-0.4,0.1-0.5,0.3,0,0.4
		c1.5,0.7,1,1.7,0.4,2.1c-0.6,0.5-1.7-0.2-1.9-0.6l0.1-2.5C147.3,37.8,147.9,37.7,148.4,37.8z M132.8,49.3c0,0-0.6,0.3-0.9,0.5
		c-0.6,0.6-0.7,1.5-0.4,2.3c0.1,0.4,0.1,0.4-0.4,1.1c-1.3,1.8-1.5,2.6-0.8,4.2c0.3,0.7,0.3,0.7,0,1.7c-1.3,4.1-3.7,8.8-6.4,12
		c-0.4,0.5-0.6,1-0.6,1s0.6,0,1-0.2c2.7-1.4,5.6-4.1,8.3-5.8c-4.3,3.5-8.8,6.7-8.8,6.7h5.8c-1.1,1.7-26.7,23.6-20.1,62.7
		c7.9-2,11.6-5.3,15.9-9.2c0,3.2,0.1,11.7,0.1,11.7c0.1-0.1-3.7-1.4-2.8,1.7c0.5,1.7,0.8,6.1-0.1,8.5c0,0.1,0.4,0.3,0.4,0.4
		c-0.1,0.1-0.6,0.1-0.6,0.1c-2,3.2-5,3.1-7.6,3.2c1.2,4.2,3.5,7.7,5.2,10.5l0.8,0.1l-0.5,0.4c0.4,0.6,1.3,1.9,1.3,1.9l0,0.4
		c0,0,1.6,2.3,2.5,3.4l0.3,0c0.5,0.6,1.1,1.3,1.6,1.8l0,0.3c0.9,1,2.8,3.1,2.8,3.1l0.4-0.1l1.4,1.6c11.9-5.5,24.4-17.7,24.3-17.7
		l0.1-26.2l-14.1,0l-0.1-34.7l14.1,14.2l-0.1-4.1c-3.2-3.1-16.1-16.3-16.1-16.3c1.9-0.3,3.7-0.9,5.4-1.9c3.1,1.7,6.3,2.7,10.1,2.2
		v-3.9c-4.3,0-6.9-1.4-8.8-3.2l-2.6-0.1c-4.9,3.8-8.3,2-12,1.3l-2.6-3.9h26.1v-9h-4l-2.6-1.9l3,1.3c0,0,0-0.5-0.6-1.5
		c-1.6-2.7-3.7-6.6-4.9-10.1c-0.6-1.7-0.6-1.7-0.1-2.7c0.7-1.4,0.5-3.1-0.4-4.1c-0.6-0.7-0.6-0.8-0.4-1.3c0.9-2-1.2-2.7-1.2-2.6
		C138.6,51.2,132.7,49.4,132.8,49.3z M143.1,50.1c0.9,0,1,0.4,1,1c-0.1,1.2-1.6,1.7-2.3,1.8c-3.4,0.8-9.2,0.3-9.6-1.3
		c-0.3-1.2,0.4-1.8,2.8-1.2C138.7,51.2,141.1,50.3,143.1,50.1z M132.2,53.4c0.3,0,0.8,0.4,0.9,0.9c0.1,0.5-0.4,2-0.8,2.3
		c-1.1,0.8-2-0.5-1.3-1.9C131.3,54,131.7,53.4,132.2,53.4z M143.7,53.6c0.2,0,0.4,0,0.6,0.2c0.8,0.6,0.9,2.7,0.1,3
		c-0.8,0.3-1.6-0.5-1.6-1.9C142.9,54.1,143.2,53.6,143.7,53.6z M141,54c0.2,0,0.4,0,0.5,0.1c0.7,0.3,1,2.5,0.3,3.2
		c-0.5,0.5-1.7,0.5-2.1-0.6C139.4,55.4,140.1,54.1,141,54z M135,54.1c1,0,1.3,2.3,0.3,3.3c-0.8,0.8-2.1,0-1.7-1.6
		C133.7,55,134.2,54.2,135,54.1z M137.9,54.5c1.5,0.3,1.4,4-0.6,3.7C136.2,57.3,136.3,54.5,137.9,54.5z M131.3,58.5l2.1,0.2
		c-0.1,0-3.4,7.2-6.4,9.1C128.7,65,130.1,61.7,131.3,58.5z M144.2,58.5c1.3,3.4,2.5,6.8,4.2,10.3c-2.6-2.5-4.9-6.4-7-10.1
		L144.2,58.5z M134.1,58.9l1.4,0c0.5,2.2,1.3,3.6,2.3,4.8c0.8-1.4,1.4-3,1.9-4.7l1.1,0c0.4,0.3-1.3,6.9-3,7.7
		C135.9,65.2,134.3,61.1,134.1,58.9z M133.5,60.4c-0.1,0.2,2.2,5.8,4.2,7.6c1.9-1.8,3-4.2,3.8-7.1l6.1,8.7l-5.9-4.1
		c-1.2,2-2.4,3.9-4,5.5c-1.6-1.8-3-3.9-4.5-5.9c-2.3,1.7-3.9,3.6-6.9,5.2C126.3,70.3,132.1,63.9,133.5,60.4z M132.9,66.6l4.1,5.1
		l-11-0.2L132.9,66.6z M141.9,66.7l7,4.9l-10.4,0.1L141.9,66.7z M86.4,69.1c0,0,0.1,0.3,0.1,0.5c1.2,5.1,4.6,9.4,9.8,8.9L79.5,95.5
		c0,0-2.8-9.6-8.4-19.4c0,0,1,0.2,1.8,0.4c1.1,0.2,2.3-0.2,3-0.5c0.6-0.3,1.5,0.1,1.9,0.3c1.2,0.2,1.9-0.4,3.4-1.7
		c0.4-0.3,0.5-0.3,1-0.3c1.8,0,3-1.6,2.8-4l-0.1-1.1l-0.2,1.2c-0.4,2.3-0.7,3.3-3,3.4c-0.5,0-0.8,0.4-1.6,1.1
		c-1.2,1.1-2.1,1.1-2.9,0.7c-0.9-0.4-1-0.2-1.8,0.2c-0.9,0.5-2.3,0.4-3.6,0c-1.7-0.5-1.5-0.3-1.5-0.3c10,18.1,13.5,35.4,13.3,50.8
		c-0.3,21.9-7.9,39.7-14.5,50.3c0,0,1.1-0.1,2.2-0.3c0.5-0.1,0.9,0,1.3,0.2c0.5,0.2,0.8,0.2,1.2,0.1c0.3,0,1.2,0,1.7,0.1
		c1.2,0.2,1.3,0,2.7-1.3c3.8-3.8,3.6-3.6,6.3-3.5c4.1,0.1,7.5,2.9,8.8,7.4c0.2,0.6,0.4,1.4,0.4,1.4l-0.3-1.2
		c-1.2-6-6.3-8.2-10.5-8.1l17.9-18.2c-0.1,0,4.2,13.8,7.8,20c0,0-1.1-0.5-3.2-0.2c-1.1,0.1-2.4,0-3.1-0.1c-0.9,0-1.5,0.2-2.6,1.2
		c-0.5,0.4-0.9,0.9-1.8,1.2c-2.2,0.9-3,1.9-3.1,4.3c0,0.5-0.1,1,0,1.4c0.3-0.2,0.5-1.2,0.6-1.8c0.3-1.8,0.7-2.4,2.4-3.2
		c0.5-0.2,1.6-0.9,2-1.3c1.6-1.3,2.1-1.5,3.3-1.2c0.7,0.2,1.3,0.3,2.3,0.1c1.1-0.1,1.2-0.2,2.4,0.1c0.8,0.2,1.9,0.4,1.9,0.4
		c-17.3-35.3-16.8-68.1,0.3-101.3c0,0-5.1,0.1-5.3,0.2c-0.1,0.1-0.7,0-1.4-0.1c-1.4-0.3-1.1-0.1-4.3,3.2c-4,4.1-10.5,0.8-12.4-6.1
		c-0.1-0.4-0.2-0.6-0.3-0.8L86.4,69.1L86.4,69.1z M102.8,73.1c0.7,0.1,1.7,0,1.6,0.7l-24.3,24l-0.4-1.5L102.8,73.1z M107.9,73.3
		c-0.3,0.6-1.1,1.3-1.4,1.9l1.3,1.6l-0.7,1.3l-2-1.7l-3.8,3.8l3.2,3.6l-3,3.1l-1-1.1l1.6-1.7l-2.5-2.3L95.1,86l3.5,3.6l-2.6,2.5
		l-1-1l1.4-1.5l-2.3-2.4l-4,4.2l3.2,3.6l-2.5,2.5l-1.1-1.1l1.2-1.3l-2.3-2.4l-4.1,4.1l3.3,3.7l-2.5,2.2l-0.9-0.9l1.2-1.3l-2.2-2.4
		l-2.6,2.4l-0.4-1.6l25.3-25.5L107.9,73.3z M109.3,73.6l-1.1,2.2l-0.8-0.9l1.1-1.1L109.3,73.6z M49.6,73.8
		c-0.7,0.2-15.7,8.7-24.3,18l0,3.5L25,95.7l0.2,5.4l0.2,0.3l0.1,2.2l-0.3,0.6v6l0.5,0.1l0.1,7.4l14.1,0l0,35.3
		c0,0-8.3-9.2-14.2-14.7l0,4.1l15.8,16.5c-1.1,0.2-2.5,0.4-4.6,1.6c-5.1-3.2-11-2.2-11-2.2l0,4.2c3.8-0.4,7.2,0.2,11.1,2.8
		c3.3-2.2,7.2-3.6,13-1.8c1.3,2.1,2.6,4.4,3.9,5.8H25.7v8.9c1.2,0,4.3,0,4.3,0c1.6,3.1,4.7,7,5.9,12.4c-1.8,2.1-1.6,3.9,0.1,6
		c0,1-0.3,2,0.8,3.1c3.6-1.8,7.6-1,10.5-0.1c1,0.3,1.4-0.9,1.4-2.3c-0.1-0.8-0.1-1.2,0.6-1.8c1.5-1.3,0.6-4.1,0.3-4.1
		c-0.1-2.4,7.5-14.4,7.5-14.2l-1.5,0.6l-6.5,0c17.1-16.7,24.2-35.8,22.7-57.3c-0.3-5.4-1.2-7.9-1.2-7.9c-6,2.7-11,4.7-15.8,9.9
		l-0.3-11.2c0.3,0.5,2.1,1,2.9,0.3c0.5-0.4,0.6-0.7,0.1-2.1c-0.7-2-0.9-6.2-0.4-7.7c0.1-0.2,0.1-0.6,0.2-1.1
		c0.1-0.6-0.1-0.6-0.1-0.6c0.1,0,0.7,0.1,0.8,0c2.1-1.8,4.3-3,7-3.1l0.1-1.3c-2-5.1-3.7-7.1-5.5-10c0,0-0.5-0.2-0.8-0.1l0.4-0.4
		C56.6,81,53,77.3,49.6,73.8L49.6,73.8L49.6,73.8z M49.5,74.5l1.8,1.7c-8.6,4.2-17.1,10.4-25.5,18.7l0.1-3.1
		C35.4,82.8,42.6,78.4,49.5,74.5z M104.9,77.5l1.1,1.1l-1.5,1.8l1,1l-0.5,1.3l-2.5-2.6L104.9,77.5z M51.1,77.7c0,0,0.1,0,0.2,0
		c0.5,0.1-0.1,0.2,0.3,0.6s0.5-0.2,0.6,0.3c0.1,0.5-0.2,0-0.5,0.4c-0.3,0.5,0.4,0.4-0.1,0.7s0-0.2-0.6-0.3c-0.5-0.1-0.3,0.5-0.7,0.1
		c-0.4-0.4,0.2-0.1,0.2-0.7c-0.1-0.5-0.6-0.1-0.3-0.6c0.3-0.5,0.2,0.2,0.7-0.1C51.2,78,51,77.7,51.1,77.7L51.1,77.7z M124.8,79.1
		c17.6,19.8,8.5,48.6-14.9,55.6l-0.3-1.6c23.7-8.1,29.1-35.2,13.8-52.2L124.8,79.1z M54.1,79.2l1.1,1.3c-10,4.8-19.8,12.1-29.2,22.6
		l-0.1-2.6C34.8,91.1,44.3,84.2,54.1,79.2z M47.6,79.6c0,0,0.1,0,0.2,0c0.5,0.1-0.1,0.2,0.3,0.6s0.5-0.2,0.6,0.3
		c0.1,0.5-0.2,0-0.5,0.4c-0.3,0.5,0.4,0.4-0.1,0.7c-0.5,0.2,0-0.2-0.6-0.4c-0.5-0.1-0.3,0.5-0.7,0.1s0.2-0.1,0.2-0.7
		c-0.1-0.5-0.6-0.1-0.3-0.6c0.3-0.5,0.2,0.2,0.7-0.1C47.8,79.9,47.6,79.7,47.6,79.6z M44.5,81.6c0,0,0.1,0,0.2,0
		c0.5,0.1-0.1,0.2,0.3,0.6c0.4,0.4,0.5-0.2,0.6,0.3c0.1,0.5-0.2,0-0.5,0.4c-0.3,0.5,0.4,0.4-0.1,0.7s0-0.2-0.6-0.4
		c-0.5-0.1-0.3,0.5-0.7,0.1s0.2-0.1,0.2-0.7c-0.1-0.5-0.6-0.1-0.3-0.6c0.3-0.5,0.2,0.2,0.7-0.1C44.6,81.9,44.4,81.7,44.5,81.6z
		 M54.9,82.3c0.6,0,1,0.5,1,1c0,0.6-0.5,1-1,1c-0.6,0-1-0.5-1-1C53.9,82.8,54.4,82.3,54.9,82.3z M99.6,83l1,1.1L99,85.8l2.3,2.5
		l2.2-2.2l-1.1,3.2l-19.7,19.9l-0.4-2.1l1.5-1.6l-2.4-2.4l-0.4-1.6l2.3-2.2l1,1L83,102l2.2,2.2l4-3.7l-3.3-3.7l2.7-2.7l0.9,0.9
		l-1.3,1.4l2.3,2.5l4.1-4l-3.4-3.6l2.7-2.7l1,1l-1.4,1.7l2.3,2.3l4-4L96.7,86L99.6,83z M41.5,83.7c0,0,0.1,0,0.2,0
		c0.5,0.1-0.1,0.2,0.3,0.6c0.4,0.4,0.5-0.2,0.6,0.3c0.1,0.5-0.2,0-0.5,0.4c-0.3,0.5,0.4,0.4-0.1,0.7s0-0.2-0.6-0.3s-0.3,0.5-0.7,0.1
		s0.2-0.1,0.2-0.7c-0.1-0.5-0.6-0.1-0.3-0.6c0.3-0.5,0.2,0.2,0.7-0.1C41.6,84,41.4,83.8,41.5,83.7z M57.7,83.9l0.8,1.3
		c-11.9,6.1-20.2,12.2-32.4,26.3v-1.8C35.5,98,45.3,90.5,57.7,83.9z M51.7,84.1c0.6,0,1,0.5,1,1c0,0.6-0.5,1-1,1c-0.6,0-1-0.5-1-1
		C50.6,84.5,51.1,84.1,51.7,84.1z M143.9,84.5c2.1,1.9,6.5,3.8,9.4,3.6l0.1,2.3c-5,0.5-9.3-2.7-9.3-2.7c-3.8,2.4-7.7,2.7-11.8,1.6
		l-1.6-3.4C136.8,88.7,142.4,86,143.9,84.5z M120.1,85l1,1c4.6-1.2,6.1,3.6,4,6.4l0.6,2c4.1,0.8,5.3,5.1,1.5,7.4l0,2.2
		c0.6,0.5,1.4,1.1,1.9,1.9c1.1,1.9,0.7,3.8-1,5c-1,0.7-2.1,0.8-2.2,0.7l-1.1,2.5c0.9,0.5,1.2,1.5,1.4,2.1c0.3,1.4-0.7,3.3-1.9,4
		c-1.6,0.9-3.7,0.1-3.7,0.1l-1.5,1.5c0.4,1.3,0.5,2.1,0.3,2.9c-0.5,1.9-2.5,2.7-4.1,2.5c-1.3-0.1-2.2-1-2.2-1l-1.7,0.7
		c0,0,0,2.2-0.8,2.8c-0.3,0.3-1.2,0.9-1.2,0.9l-0.1-1.5c0.7-0.5,1-1.7,0.9-2.5l3.6-1.8c0,0.1,1,1.1,1.7,1.3c1.4,0.3,2.9-0.8,2.9-2.1
		c0-0.8-0.4-1.3-0.6-1.9l3.1-3.2c1.3,0.4,2.2,0.5,2.7,0.2c1.1-0.6,1.4-1.9,1.2-2.7c-0.2-0.9-1.1-1.5-1.1-1.6l1.7-4.4
		c0.8,0,1.3-0.1,1.9-0.5c1.3-0.9,1.1-2.5,0.6-3.3c-0.7-1-1.6-1.1-1.7-1.1l0.1-4.6c0,0,1.8-0.8,1.9-1.9c0.4-2.6-1.2-3-3.1-2.9
		l-1.4-4.1c2.3-1.4,1.6-3.7,0.4-4.4c-1.2-0.8-2.9-0.1-2.9-0.1s-0.8-0.8-1.4-1.4L120.1,85z M59,85.9c1.5,2,4,6.1,5.5,9.8
		c0.1,0.2,0,1,0,1c-4.1,0.4-5.4,2-6.9,3.1c-1.1-0.6-1.6-1.3-3.6,0c0,0.1-5.2-3.2-6.1-7.5C51.6,90,55.1,87.8,59,85.9z M38.4,85.9
		c0,0,0.1,0,0.2,0c0.5,0.1-0.1,0.2,0.3,0.6s0.5-0.2,0.6,0.3c0.1,0.5-0.2,0-0.5,0.4c-0.3,0.5,0.4,0.4-0.1,0.7c-0.5,0.2,0-0.2-0.6-0.3
		c-0.5-0.1-0.3,0.5-0.7,0.1s0.2-0.1,0.2-0.7c-0.1-0.5-0.6-0.1-0.3-0.6c0.3-0.5,0.2,0.2,0.7-0.1C38.6,86.2,38.4,86,38.4,85.9
		L38.4,85.9z M48.2,86.2c0.6,0,1,0.5,1,1c0,0.6-0.5,1-1,1s-1-0.5-1-1C47.2,86.6,47.6,86.2,48.2,86.2z M118.5,87.4
		c4.4,6.2,6.2,13,5,20c-1.6,9.2-7.7,14.2-14.6,17.2l0-1.8c6.5-2.4,11.5-7.3,13.1-15.9c1.2-6.1-0.3-12.4-4.3-18L118.5,87.4z
		 M35.2,88.3c0,0,0.1,0,0.2,0c0.5,0.1-0.1,0.2,0.3,0.6c0.4,0.4,0.5-0.2,0.6,0.3c0.1,0.5-0.2,0-0.5,0.4c-0.3,0.5,0.4,0.4-0.1,0.7
		s0-0.2-0.6-0.3c-0.5-0.1-0.3,0.5-0.7,0.1s0.2-0.1,0.2-0.7c-0.1-0.5-0.6-0.1-0.3-0.6c0.3-0.5,0.2,0.2,0.7-0.1
		C35.4,88.6,35.2,88.3,35.2,88.3z M45,88.3c0.6,0,1,0.5,1,1c0,0.6-0.5,1-1,1c-0.6,0-1-0.5-1-1C44,88.8,44.4,88.3,45,88.3z
		 M132.7,90.1c2.3,0.3,5.1,4.4,7.6,6.8l0,34.2l-7.6,0.2c-1,2.4-3.3,4.8-6.9,7.1v-12.8C138.3,112,134.9,97.2,132.7,90.1z M32.5,90.5
		c0,0,0.1,0,0.2,0c0.5,0.1-0.1,0.2,0.3,0.6s0.5-0.2,0.6,0.3c0.1,0.5-0.2,0-0.5,0.4s0.4,0.4-0.1,0.7s0-0.2-0.6-0.4
		c-0.5-0.1-0.3,0.5-0.7,0.1c-0.4-0.4,0.2-0.1,0.2-0.7c-0.1-0.5-0.6-0.1-0.3-0.6c0.3-0.5,0.2,0.2,0.7-0.1
		C32.6,90.8,32.4,90.5,32.5,90.5z M135.8,90.6l2.3,0.1l15.5,15.8l-0.1,2.3L135.8,90.6z M41.8,90.6c0.6,0,1,0.5,1,1c0,0.6-0.5,1-1,1
		c-0.6,0-1-0.5-1-1C40.8,91.1,41.3,90.6,41.8,90.6z M47.5,92.2l0.4,2c-0.5-0.8-0.5-1.1-1.4-1.2L47.5,92.2z M39.1,92.8
		c0.6,0,1,0.5,1,1c0,0.6-0.5,1-1,1c-0.6,0-1-0.5-1-1C38.1,93.3,38.5,92.8,39.1,92.8z M117,93.1l3.1,2.2l-1,4l-3.1-2.9L117,93.1z
		 M29.8,93.1c0,0,0.1,0,0.2,0c0.5,0.1-0.1,0.2,0.3,0.6s0.5-0.2,0.6,0.3c0.1,0.5-0.2,0-0.5,0.4c-0.3,0.5,0.4,0.4-0.1,0.7
		c-0.5,0.2,0-0.2-0.6-0.3c-0.5-0.1-0.3,0.5-0.7,0.1s0.2-0.1,0.2-0.7c-0.1-0.5-0.6-0.1-0.3-0.6c0.3-0.5,0.2,0.2,0.7-0.1
		C29.9,93.4,29.7,93.1,29.8,93.1z M46.3,93.4l0.5,0.3l-0.6,2.7l-7,2.6C41.5,97.1,43.8,94.9,46.3,93.4z M47.5,94.7L47.5,94.7
		c0.5,2,1.6,5,2.9,7.5c-0.9,0.5-4.2,2.3-4.1,3.2c0.5,1.6,3.9,3,3.9,3c-1.3,2.1-2.5,4.7-3.6,7.6c-0.6-1-0.7-5,0.6-6.7
		c-1.2-0.5-3-1.6-4.2-2.8c0.8-3,4.4-4.8,4.6-4.8C47.4,101.8,46.4,95.4,47.5,94.7L47.5,94.7z M36,95.2c0.6,0,1,0.5,1,1
		c0,0.6-0.5,1-1,1c-0.6,0-1-0.5-1-1S35.5,95.2,36,95.2z M114.5,95.3c4.6,8.6,1.9,16.1-5.4,21.5l0.3-2c5-3.7,8.2-11,4.5-17.9
		L114.5,95.3z M27.3,95.5c0,0,0.1,0,0.2,0c0.5,0.1-0.1,0.2,0.3,0.6s0.5-0.2,0.6,0.3c0.1,0.5-0.2,0-0.5,0.4s0.4,0.4-0.1,0.7
		s0-0.2-0.6-0.4c-0.5-0.1-0.3,0.5-0.7,0.1c-0.4-0.4,0.2-0.1,0.2-0.6c-0.1-0.5-0.6-0.1-0.3-0.6c0.3-0.5,0.2,0.2,0.7-0.1
		C27.5,95.8,27.2,95.6,27.3,95.5L27.3,95.5z M100.5,95.6c-3.4,12.7-3.3,18.6-3.7,22h-13l-0.5-4.6L100.5,95.6z M48.5,95.9
		c0,0,2.8,2.7,5.4,5l-0.3,0.6l-2.5,0.3C49.2,98.1,48.5,95.9,48.5,95.9z M46.1,97.3L46.1,97.3l0.2,1.9c-0.8,0-10,3.8-17,10
		c1-1.9,2.8-3.7,4.5-5.2C37.4,100.4,46.1,97.3,46.1,97.3L46.1,97.3z M33.1,97.7c0.6,0,1,0.5,1,1c0,0.6-0.5,1-1,1c-0.6,0-1-0.5-1-1
		S32.5,97.7,33.1,97.7z M38.9,98.9l0.5,0.5l-2.4,1.3L38.9,98.9z M55.8,99.5l0.1,0c0.4,0,0.5,0.2,0.7,0.4c-0.5-0.1-0.9-0.2-1.4-0.1
		C55.4,99.6,55.6,99.5,55.8,99.5L55.8,99.5z M46.5,99.9l0.2,1.4c-5.3,3-11.5,5.9-20.7,14.7V113C31.8,107.6,38.5,103.1,46.5,99.9z
		 M53.6,100c0.3,0.1,0.6,0.1,0.9,0c0,0-0.2,0.4-0.4,0.4C53.9,100.4,53.6,100,53.6,100z M55.8,100.1c0.7,0,1.1,0.6,1,1.4
		c-0.5,2.7-0.5,5.4,0.1,7.3c0.4,1.5,0.5,2,0.2,2.2c-3.1,2.2-4.8-7.6-2.2-10.4C55.2,100.3,55.5,100.1,55.8,100.1z M30.5,100.4
		c0.6,0,1,0.5,1,1c0,0.6-0.5,1-1,1c-0.6,0-1-0.5-1-1C29.4,100.9,29.9,100.4,30.5,100.4z M119.8,100.7l1.9,3.3L119,107l-1.6-3.5
		L119.8,100.7z M53.3,102.4L53.3,102.4L53.3,102.4l-0.1,1.1c-1.4,0.4-2.6,1-3.6,1.9c-0.2,0.2,3.2,1.7,3.6,1.4l0,1.2
		c0,0.4-5.6-1.4-6-2.8C47.7,104.4,51.2,102.4,53.3,102.4L53.3,102.4z M27.8,103c0.6,0,1,0.5,1,1c0,0.6-0.5,1-1,1s-1-0.5-1-1
		C26.7,103.5,27.2,103,27.8,103z M43,104.2L43,104.2L43,104.2c-0.4,0.8-1,1.8-1.1,2.9c-3.8,2.4-7.8,4.6-12.6,10l-2.6,0l-0.1-0.7
		C32,111.4,37.6,107,43,104.2L43,104.2z M52.9,104.6L52.9,104.6l0,1.4c-0.9,0-1.4-0.3-2-0.6C51.5,105,51.9,104.7,52.9,104.6
		L52.9,104.6z M81.9,104.7l0.7,0.8l-0.4,0.4L81.9,104.7z M42.9,107.7l1.4,0.9c-3.7,1.9-7.5,4.8-10.9,8.5h-2.8
		C34.2,113.2,38.1,109.7,42.9,107.7z M118.8,108.7l0.3,3.9l-3.6,2l0.1-4.1L118.8,108.7z M50.9,108.7l2.5,0.3l0.3,1.1
		c-2.1,1.3-3.9,2.9-5.6,4.5C48.6,112.5,49.7,110.4,50.9,108.7L50.9,108.7z M45,109.2l1.1,0.5l-0.4,1.8c-3,1.4-5.4,3.2-8,5.7h-2.9
		C37.3,114.4,41.5,110.9,45,109.2z M54.1,110.9L54.1,110.9l0.4,12c-10.6,12.6-10,24.8-6.9,35.8l-2-0.1c-2.4-3-5.5-6-5.5-6l0-34.8
		l7.3,0C49.1,113.8,53.8,110.9,54.1,110.9L54.1,110.9z M45.5,112.5l0.1,1.6c-1.5,0.9-2.8,1.9-3.9,3h-2.7
		C40.8,115.3,42.7,113.5,45.5,112.5z M70.4,113.3l0.4,1.9c-24.6,9-29.1,35.3-14.6,53.3l-1,1.1C38.6,151.5,45.9,121.8,70.4,113.3z
		 M45.7,115.2c0,0,0.1,1.4,0.2,1.9h-2.8C43.7,116.4,44.2,115.6,45.7,115.2z M115,115.8l-1.6,3.8l-4.2,0.1l1.9-3.8L115,115.8z
		 M88.2,118.4H92v3.7h-3.9V118.4z M71.5,118.7l0.1,1.6c-1.7,0.9-1.3,2.3-1.7,2.3c-1.1,0.3-3.8,1.8-3.8,1.8c-1-0.9-2.3-0.7-2.9-0.2
		c-0.9,0.6-1,1.9-0.8,3l-2.9,3.5c-1.4-0.6-2.8-0.6-3.5,0.4c-0.8,1.1-0.5,2.4,0.8,3.9l-1.6,4.2c-0.2-0.2-2.9,0.5-2.9,2.2
		c0,1.7,2.2,2.8,2.2,3l-0.1,4.6c-0.1-0.2-2.3,0.7-2,2.9c0.3,2,3,1.8,3.1,2l1.5,4.4c-0.1-0.1-2,1.8-0.8,3.6c1,1.5,3.8,0.5,3.8,0.4
		l0.8,1.1l-0.9,1c0,0-0.4-0.5-0.6-0.4c-1.7,0.3-3.5-0.1-4.4-1.4c-1.2-1.9,0.1-4.8,0.6-4.8l-1-2.5c-1.9,0-3.4-1.7-3.5-3.1
		c-0.2-3,2.2-4.2,2.2-4.2l0.1-2.8c-0.1,0.2-2.4-1.4-2.3-3.3c0-1.3,1.1-2.9,2.5-3.5c0.4-0.2,1-0.5,1-0.5l0.9-2.3c0,0-1.3-1.9-1-3.8
		c0.6-2.9,4.4-2.7,5-2.4l1.7-2.2c-0.9-2,0.6-4.4,2.6-4.8c0.9-0.1,3.3,0.4,3.3,0.4l2.2-1.2C68.9,120.3,70.2,119.5,71.5,118.7z
		 M84.2,122.8h3.3v3.7h-3.3V122.8z M93,122.8h3.7v3.7H93V122.8z M71.7,123.8l0,1.4c-21.4,10.5-12.6,32.2-9.6,34.8l-0.7,1.5
		C57.7,159.2,48,134.1,71.7,123.8z M88.2,127.6h4l0,3.8h-4L88.2,127.6z M70.8,129.4l-1.3,3.5l-3.9,0.3l1.4-3.5L70.8,129.4z M151,132
		l2.7,0c-5,6-10.4,10-15.8,12.2c0.1-0.8,0.2-1.3,0.1-2.1C143.9,139.2,148,135.7,151,132z M141.9,132c0.3,0.7-7,4.7-7.1,4.4l0-1.3
		l3.9-3L141.9,132z M143.5,132L143.5,132l2.1,0c-1.9,3-11.7,8.4-11.3,7.6l0.4-2.2C137.9,136,140.7,134.1,143.5,132L143.5,132z
		 M147,132l2.7,0c-4.1,5.2-8.2,7.2-12.2,9.4c-0.2,0-0.1-0.1-0.9-0.1l-1.4-1.1C135.5,140.5,144.4,135.2,147,132L147,132z M134.4,132
		c0.8,0,2.8,0,2.8,0c-0.7,0.8-1.5,1.6-2.5,2.1L134.4,132z M71.2,132.2l-0.1,1.6c-5.7,5-8,11.3-5,18.7l-0.7,1.6
		C62.2,146.2,63.1,138.5,71.2,132.2z M83.9,132.5h13.2l0.3,4.3l-17.7,17.5C82.4,144.4,83.2,138.5,83.9,132.5z M153.8,133.4v2.4
		c-7,7.8-14,11.3-20.1,12.7l-0.1-0.9l2.8-1.8C145.5,141.8,149.5,137.8,153.8,133.4z M132.6,133.5c0.1,1.7-1.4,5-3.1,6.8l-3,0
		l-0.3-1.3C128.7,137.6,131,135.8,132.6,133.5z M133.5,134c1.1,1.8-0.5,6.3-0.6,6.2c-0.1,0.3,9.3,2.3-0.4,7c0.2,1.4,1.1,4.3,0.4,6.2
		c-0.2-0.7-1.9-5.4-3.2-6.7c3-0.9,5.2-2.7,5-3.4c-0.5-0.9-1.8-2-4.1-2.7C132.5,137.9,133.1,135.9,133.5,134z M64.5,134.9l0.3,3.6
		l-3.4,2.1l-0.3-4L64.5,134.9z M124.2,138.2L124.2,138.2c0.3,0,0.5,0.1,0.6,0.2c1.7,0.7,1.8,9.1,0.3,9.9c-1.1,0.7-1.9-0.4-1.9-0.6
		c0.7-3.9,0.3-6.2,0-8.9C123.3,138.4,123.8,138.2,124.2,138.2L124.2,138.2z M153.8,138.4v3c-10,10.5-20.7,18.7-31.7,23.4l-1-1.7
		C134.5,156.8,145.6,147.9,153.8,138.4z M152,138.8c-4.6,6.4-10.2,10.6-17.8,12.5l-0.1-1.9C142.8,147.5,150.9,140,152,138.8z
		 M26.3,139.7c6,6.2,12.2,12.4,18.3,18.8l-2.4,0.1l-16-16.8L26.3,139.7z M98,140l0.2,1.5l-1.8,1.9l2.8,3l0.1,0.7l-2.4,2.5l-1.1-1.1
		l1.3-1.5l-2.2-2.4l-4.1,4l3.4,3.8l-2.6,2.5l-1-1.1l1.3-1.5l-2.3-2.4l-4.2,4.3l3.2,3.6l-2.1,2.4l-1-1.1l1.1-1.3l-2.3-2.4l-4.1,4
		l3.3,3.7l-2.7,2.7l-1.1-1l1.5-1.7l-2.5-2.4l-2,1.9c0,0,0.8-1.9,0.9-2.2c0.2-0.5,0.8-0.8,5-5.1C87.8,150.3,92.9,145.6,98,140z
		 M126.8,141c1.5,0,4,0.4,5.2,1c2.3,1.2,1.5,2.2,0.1,2.9c-1.8,0.8-3.2,1.3-5.2,1.3l0.1-1c1.1-0.3,2.3-0.6,3.4-1.1
		c0.7-0.4,0.9-0.7,0.9-0.7s-0.7-0.7-1.8-1.1c-0.8-0.3-1.9-0.3-2.5-0.4L126.8,141z M61,142.3l1.9,2.8l-2.2,3.7l-2.1-3.2L61,142.3z
		 M98.4,142.6c0.1,0.5,0.7,2.6,0.4,2.2l-1.2-1.4L98.4,142.6z M126.9,142.9c1,0.1,2.1,0.1,2.9,0.5c-0.9,0.7-1.9,0.8-2.8,1
		L126.9,142.9z M152.6,144.3c0.6,0,1.1,0.5,1.1,1.1s-0.5,1.1-1.1,1.1s-1.1-0.5-1.1-1.1S152,144.3,152.6,144.3z M94.8,146.3l1,0.9
		l-1.2,1.5l2.2,2.4l2.8-2.6l0.4,1.7L74,176l-1.4-0.1l1.7-2l-1.9-1.9l0.9-1.4l2.1,2l4.1-3.9l-3.3-3.5l2.8-2.9l1.1,0.9l-1.6,1.8
		l2.3,2.4l4.2-4.2l-3.3-3.7l2.7-2.6l1,0.9l-1.2,1.3l2.4,2.6l3.6-3.8l-3.3-3.6l2.9-2.9l0.9,0.9l-1.3,1.5l2.4,2.6l3.9-4.1l-3.2-3.5
		L94.8,146.3z M150,147c0.6,0,1.1,0.5,1.1,1.1s-0.5,1.1-1.1,1.1c-0.6,0-1.1-0.5-1.1-1.1S149.4,147,150,147z M128.9,147
		c1.8,2.1,2.8,4.4,3,7c-1.4-2.2-3.2-4.1-5.6-5.8l0.4-1.1L128.9,147z M153.8,147.2v2.5c-7.9,9-17.4,15.8-27.2,20.6l-1.7-2.1
		C136.5,163,144.9,156.5,153.8,147.2z M142.3,149l-3.2,2.5v-1.1L142.3,149z M123,149.1c1.4,0.6,1.7,0.6,2.8,0c2.7,1.3,5,3.6,6.4,7
		c-3.7,2.4-7.8,4.3-11.7,6.2c-1.9-3-3.7-5.9-5.2-9.8C121.3,152.4,122.9,149.1,123,149.1z M147.3,149.6c0.6,0,1.1,0.4,1.1,1.1
		c0,0.6-0.5,1.1-1.1,1.1s-1.1-0.5-1.1-1.1C146.3,149.9,146.8,149.6,147.3,149.6z M139,150.4l0,1.1c-1.5,1.4-4.5,3.6-4.5,3.6
		l-1.2-0.1l0.4-3.1C135.6,151.5,137.4,150.9,139,150.4z M60.9,150.5l2.9,2.4l-0.9,3.8l-2.9-2.2L60.9,150.5z M100.2,151.2l0.3,1.1
		l-24.1,24.1l-1.4-0.2L100.2,151.2z M144.6,152.2c0.6,0,1.1,0.5,1.1,1.1s-0.5,1.1-1.1,1.1c-0.6,0-1.1-0.5-1.1-1.1
		S144,152.2,144.6,152.2z M153.4,152.3c0.1,0-0.1,0.3,0.3,0.4c0.5,0.1,0.3-0.5,0.7-0.1c0.4,0.4-0.2,0.1-0.2,0.7
		c0.1,0.5,0.6,0.1,0.3,0.6c-0.3,0.5-0.2-0.2-0.7,0.1c-0.5,0.2,0.1,0.6-0.5,0.5c-0.5-0.1,0.1-0.2-0.3-0.6c-0.4-0.4-0.5,0.2-0.6-0.3
		c-0.1-0.5,0.2,0,0.5-0.4c0.3-0.5-0.4-0.4,0.1-0.7C153.3,152.3,153.3,152.2,153.4,152.3z M141.4,154.7c0.6,0,1.1,0.5,1.1,1.1
		s-0.5,1.1-1.1,1.1s-1.1-0.5-1.1-1.1S140.8,154.7,141.4,154.7z M150.6,154.8c0.1,0-0.1,0.3,0.3,0.4c0.5,0.1,0.3-0.5,0.7-0.1
		c0.4,0.4-0.2,0.1-0.2,0.7s0.6,0.1,0.3,0.6c-0.3,0.5-0.2-0.2-0.7,0.1c-0.5,0.2,0.1,0.6-0.5,0.5c-0.5-0.1,0.1-0.2-0.3-0.6
		c-0.4-0.4-0.5,0.2-0.6-0.3c-0.1-0.5,0.2,0,0.5-0.4c0.3-0.5-0.4-0.4,0.1-0.7C150.5,154.8,150.6,154.8,150.6,154.8z M133.3,155
		c0.4,0,0.8,0.1,1.2,0.1l-2.2,1.3C132.9,155.8,133.3,155.1,133.3,155z M153.8,155.6l0,2.3c-5.5,5.6-12.5,11.4-23.1,16.9l-1.4-1.4
		C138.1,169.3,146.2,163.4,153.8,155.6z M138.2,156.8c0.6,0,1.1,0.5,1.1,1.1s-0.5,1.1-1.1,1.1s-1.1-0.5-1.1-1.1
		S137.6,156.8,138.2,156.8z M147.9,157c0.1,0-0.1,0.3,0.3,0.4c0.5,0.1,0.3-0.5,0.7-0.1c0.4,0.4-0.2,0.1-0.2,0.6
		c0.1,0.5,0.6,0.1,0.3,0.6c-0.3,0.5-0.2-0.2-0.7,0.1c-0.5,0.2,0.1,0.6-0.5,0.5c-0.5-0.1,0.1-0.2-0.3-0.6c-0.4-0.4-0.5,0.2-0.6-0.3
		c-0.1-0.5,0.2,0,0.5-0.4c0.3-0.5-0.4-0.4,0.1-0.7C147.8,157,147.9,157,147.9,157z M27.9,158.8c3.6-0.1,6.8,1.2,8.7,2.7
		c3.8-2.2,6.9-2.5,11.2-1.8l1.3,2.6c-4.2-0.8-8.7-0.7-12.5,2.3c-4-2.5-7-3.3-10.2-2.9l-0.1-2.7C26.9,158.9,27.4,158.8,27.9,158.8z
		 M135.1,159c0.6,0,1.1,0.5,1.1,1.1s-0.5,1.1-1.1,1.1s-1.1-0.5-1.1-1.1S134.5,159,135.1,159z M145.1,159.6c0.1,0-0.1,0.3,0.3,0.4
		c0.5,0.1,0.3-0.5,0.7-0.1c0.4,0.4-0.2,0.1-0.2,0.6c0.1,0.5,0.6,0.1,0.3,0.6c-0.3,0.5-0.2-0.2-0.7,0.1c-0.5,0.2,0.1,0.6-0.5,0.5
		c-0.5-0.1,0.1-0.2-0.3-0.6c-0.4-0.4-0.5,0.2-0.6-0.3c-0.1-0.5,0.2,0,0.5-0.4c0.3-0.5-0.4-0.4,0.1-0.7
		C145,159.6,145.1,159.6,145.1,159.6z M131.7,161.2c0.6,0,1.1,0.5,1.1,1.1s-0.5,1.1-1.1,1.1c-0.6,0-1.1-0.5-1.1-1.1
		S131.1,161.2,131.7,161.2z M142,161.9c0.1,0-0.1,0.3,0.3,0.4c0.5,0.1,0.3-0.5,0.7-0.1c0.4,0.4-0.2,0.1-0.2,0.7
		c0.1,0.5,0.6,0.1,0.3,0.6c-0.3,0.5-0.2-0.2-0.7,0.1c-0.5,0.2,0.1,0.6-0.5,0.5c-0.5-0.1,0.1-0.2-0.3-0.6c-0.4-0.4-0.5,0.2-0.6-0.3
		c-0.1-0.5,0.2,0,0.5-0.4c0.3-0.5-0.4-0.4,0.1-0.7C141.9,161.9,141.9,161.9,142,161.9z M128.3,163.2c0.6,0,1.1,0.5,1.1,1.2
		c0,0.6-0.5,1.2-1.1,1.2c-0.6,0-1.1-0.5-1.1-1.2C127.2,163.7,127.7,163.2,128.3,163.2z M139,164.3c0.1,0-0.1,0.3,0.3,0.4
		c0.5,0.1,0.3-0.5,0.7-0.1c0.4,0.4-0.2,0.1-0.2,0.7c0.1,0.5,0.6,0.1,0.3,0.6c-0.3,0.5-0.2-0.2-0.7,0.1c-0.5,0.2,0.1,0.6-0.5,0.5
		c-0.5-0.1,0.1-0.2-0.3-0.6c-0.4-0.4-0.5,0.2-0.6-0.3c-0.1-0.5,0.2,0,0.5-0.4c0.3-0.5-0.4-0.4,0.1-0.7
		C138.9,164.3,138.9,164.2,139,164.3z M125,164.9c0.6,0,1.1,0.5,1.1,1.1s-0.5,1.1-1.1,1.1s-1.1-0.5-1.1-1.1S124.4,164.9,125,164.9z
		 M75.5,165.9l2.8,2.6l-2.9,2.9l-1.1-1l1.6-1.7l-1.1-1.5L75.5,165.9z M135.9,166.3c0.1,0-0.1,0.3,0.3,0.4c0.5,0.1,0.3-0.5,0.7-0.1
		c0.4,0.4-0.2,0.1-0.2,0.7c0.1,0.5,0.6,0.1,0.3,0.6c-0.3,0.5-0.2-0.2-0.7,0.1c-0.5,0.2,0.1,0.6-0.5,0.5c-0.5-0.1,0.1-0.2-0.3-0.6
		c-0.4-0.4-0.5,0.2-0.6-0.3c-0.1-0.5,0.2,0,0.5-0.4c0.3-0.5-0.4-0.4,0.1-0.7C135.8,166.3,135.9,166.3,135.9,166.3z M132.6,168.2
		c0.1,0-0.1,0.3,0.3,0.4c0.5,0.1,0.3-0.5,0.7-0.1c0.4,0.4-0.2,0.1-0.2,0.7c0.1,0.5,0.6,0.1,0.3,0.6c-0.3,0.5-0.2-0.2-0.7,0.1
		c-0.5,0.2,0.1,0.6-0.5,0.5c-0.5-0.1,0.1-0.2-0.3-0.6c-0.4-0.4-0.5,0.2-0.6-0.3c-0.1-0.5,0.2,0,0.5-0.4c0.3-0.5-0.4-0.4,0.1-0.7
		C132.5,168.2,132.6,168.2,132.6,168.2z M129.2,170.1c0.1,0-0.1,0.3,0.3,0.4c0.5,0.1,0.3-0.5,0.7-0.1c0.4,0.4-0.2,0.1-0.2,0.6
		s0.6,0.1,0.3,0.6c-0.3,0.5-0.2-0.2-0.7,0.1c-0.5,0.2,0.1,0.6-0.5,0.5c-0.5-0.1,0.1-0.2-0.3-0.6c-0.4-0.4-0.5,0.2-0.6-0.3
		c-0.1-0.5,0.2,0,0.5-0.4c0.3-0.5-0.4-0.4,0.1-0.7C129.1,170.1,129.1,170.1,129.2,170.1z M71.7,173.1l1,0.9l-1.4,1.7l-1.1,0
		L71.7,173.1z M54.2,177.9c-3.2,1.6-4.7,2.6-6.9,4.6l-3.2-4.4L54.2,177.9z M32.6,178.1h8.5l-2.8,4C36.4,180.1,34.5,178.9,32.6,178.1
		z M42.7,178.4c0.9,0.3,3.3,3.8,4.4,5.6c2.4-1.9,4.8-4.1,7.3-5.3c-3.1,3.3-5.7,6.6-7.6,9.9c-0.5-1.5-2-5.7-3.9-7.5
		c-3,2.8-4.2,6.3-4.2,6.3c-1.6-2.8-3.6-5.6-5.8-8.2c-0.4-0.5,2.7,1.5,5.8,4.5C39.5,181.5,41.9,178.5,42.7,178.4z M32.5,180.6
		c1.5,1.2,5.4,6.3,5.9,9.4l-1.9,0.1C35.5,186.9,33.8,183.8,32.5,180.6z M53.5,181.1c-1.4,3-3.2,6-4.5,9.3l-1.9-0.1
		C49.2,185.8,50,185,53.5,181.1z M42.8,182.4L42.8,182.4c1.8,2.5,2.7,4.9,3.2,7.8l-1.4-0.1c0,0-1-2.9-1.6-3.9
		c-0.4-0.6-0.8-0.5-1.1,0c-0.7,1.2-0.9,2.5-1.3,3.8l-1.6-0.1C38.8,187.7,42.3,182.5,42.8,182.4z M42.6,190.9c0.6,0,1.3,0.7,1.3,2
		c0,0.6-0.4,1.9-0.9,1.9c-0.9,0.5-2-1-1.7-2.3C41.5,191.5,42,190.9,42.6,190.9z M45.7,191.1c1.4,0.2,1,3.4,0.3,3.8
		c-1.1,0.6-2-0.4-1.6-1.9C44.8,191.9,45.2,191.1,45.7,191.1z M39.5,191.1c1.3,0.1,1.5,3,1,3.6c-0.6,0.6-2.2,0.2-2.3-0.9
		C37.7,192.6,38.6,191.2,39.5,191.1z M48.9,191.6c1.6,0.2,0.7,3,0,3.5c-1,0.8-2-0.4-1.5-1.8C47.8,192.3,48.4,191.6,48.9,191.6z
		 M36.1,191.7c1.2,0.2,1.8,2.8,1.1,3.6c-0.4,0.4-1.4-0.2-1.9-0.9C34.8,193.5,35.4,191.7,36.1,191.7z M42.7,195.8
		c2.4,0,5.4,0.4,5.7,1.7c0.1,1.4-0.9,1.4-3.9,0.7c-1.5-0.3-4.2-0.1-5.5,0.1c-2.3,0.4-2.6,0.3-2.6-0.7c0-1.1,1.3-1.7,4.3-1.8
		C41.2,195.8,41.9,195.8,42.7,195.8z M53,196.7c-3.5,0.3-4.5,4.8-4.1,6.5c0.3,2.8,0.2,5.7-0.3,7.6c-0.4,1.4-0.7,2.8-1.3,4.1
		c-0.9,1.9-0.7,3.3,0.7,4c1.1,0.6,2.5,0.4,3.4-0.5c1.6-1.7,1.8-5.4,0.8-13.7c-0.3-2.9-0.2-3.5,1.2-3.3
		C56.3,201.3,56.2,196.7,53,196.7z M53.1,197.2c3.1-0.1,2.1,4.3-0.5,3.2c-0.8-0.3-1.3,0.4-1.2,2.2c0,0.8,0.2,1.7,0.3,2.4
		c1.1,8,0.7,13.3-1.7,13.6c-2.1,0.3-3.5-1.2-2.5-2.8c0.6-0.9,1.1-1,2.2-0.6c1.6,1,1.2-0.4-0.2-1.5c-0.9-0.6-1-0.6-0.5-2.7
		c0.6-2.7,0.9-4.6,0.6-8.1C49.2,200.6,50,197.4,53.1,197.2z M32.9,204.4c-1.5-0.1-2.9,0.7-3.5,1.9c-0.9,2-0.1,3.8,1.5,4.6
		c1,0.5,2,0.4,2.9,0c0.4-1.7,0.4-3.1,1.5-5.4C34.6,204.8,33.7,204.5,32.9,204.4z M32.3,204.9L32.3,204.9c0.4,0,1,0,1.5,0.1
		c1.1,0.2,1,1.5-0.1,1.1c-2.5-1.2-4.6,2.4-2.6,3.8c1,0.6,1.5,0.3,0.5-0.6c-0.4-0.5-0.3-0.7-0.1-1.2c0.5-1,2.5-0.8,2.3-0.1
		c-0.4,2.3-0.7,3-1.4,3C28.9,211.2,28,205.1,32.3,204.9L32.3,204.9z M67.4,209.2c0,0-11.8,13.5-17.4,20.4l71.1-0.3l-13.5-18.9
		C95.9,213.1,82.3,212.3,67.4,209.2z M67.1,213.5c1.8,0,3.8,1.3,5.5,5.7c0.1,0,7.8-11.9,14.5,0.5c1.1-2.8,7.4-10,14.7-0.7
		c2.6-6.2,8.5-4.1,9.1-1.9c-0.1-0.5-5.7-1.8-8.1,2.3c-0.4,0.9-0.5,1.7,0,2.2c1.2,1.2-0.1,2.8-1.5,1.9c-0.5-0.4-0.6-1.1-0.2-1.7
		c1.2-0.9-1.3-3.8-3.3-4.8c-2.8-1.4-6.7-0.8-8.6,1.2c-1,1.1-1.6,2.1-1.8,2.8c-0.1,0.4,0,0.5,0.2,0.8c0.8,1,0.3,2.4-0.8,2.2
		c-1.4-0.2-1.2-1.6-0.3-2.3c0.3-0.1,0.2-0.3,0.1-0.6c-2.6-7.5-12.4-6.1-13.5-0.9c0,0.2-0.1,0.4-0.1,0.6c0.1,0.5,0.4,0.9,0.3,1.3
		c-0.4,1.6-2.4,1.1-2.5-0.2c0-0.6,0.6-0.8,0.9-1.3c0.2-0.3,0.3-0.8,0.1-1.1c-2.7-5.6-7.2-4.5-9.5-3.2
		C62.4,216.2,64.5,213.5,67.1,213.5L67.1,213.5z M64.1,216.8L64.1,216.8c1,0,1.9,0.4,2.7,1.4c2.8-1.5,4.8,1.1,4.4,1.3
		c-3.9-2.6-5.2,3.4-1.3,3.2c-1.7,3.6,4.4,5.1,3.7,0.5c3.8,1.3,4.4-3.9,0.6-3.8c1.2-2.2,4.4-1.6,5.8-0.2c1.6-2,5.5-0.1,5.9,1.6
		c-4.4-2.3-4.8,4.7-0.6,3.2c-1.3,4.4,5.5,3.8,3.6,0c4.2,1.4,3.6-5-0.5-3.7c-0.2-0.3,3.3-4,5.8-0.6c0.3-0.6,4.3-2.6,6.5,0.5
		c-4.7-1.6-3.8,4.8-0.4,3.5c-0.9,4.3,5.2,3.6,3.6-0.1c4.7,1.2,2.6-6.1-0.7-3.4c0.5-2.9,4.5-1.7,4.5-1.3c0,0,2.1-2.3,4.5-0.6
		c-3.7,0.3-2.4,5.4,1.1,3.9c0,1.7,1.4,2.9,3.3,2.3l3,4.2l-68.1,0.4l5.4-6.6c1.8,1.5,3.7,0.8,3.9-1.6c4,2.5,5-3.4,1.3-3.6
		C62.8,217.1,63.5,216.8,64.1,216.8z M60.3,218.7c0.2,0.2-0.1,1-0.6,0.7L60.3,218.7z M113.5,220.4c0.2,0.3,0.3,0.5,0.5,0.8
		C114.1,221.4,112.9,221,113.5,220.4z"/>
	<path class="st1" d="M48.4,65c0,0-3.7-6.1-8.8-13.3c-3.4-4.8-6.1-10-6.3-14.5C33,32,35.8,26.9,40.7,26.6c4.9-0.2,6.9,4,7.7,7.4
		c0.8-3.5,2.8-7.7,7.7-7.4c4.9,0.2,7.6,5.4,7.4,10.5c-0.3,4.5-2.9,9.7-6.3,14.5C52.1,58.9,48.4,65,48.4,65L48.4,65z"/>
	<path class="st1" d="M131.2,185.3c0,0-3.7,6.1-8.8,13.3c-3.4,4.8-6.1,10-6.3,14.5c-0.3,5.1,2.4,10.3,7.4,10.5
		c4.9,0.2,6.9-4,7.7-7.4c0.8,3.5,2.8,7.7,7.7,7.4c4.9-0.2,7.6-5.4,7.4-10.5c-0.2-4.5-2.9-9.7-6.3-14.5
		C135,191.5,131.2,185.3,131.2,185.3z"/>
</g>
</svg>
