<?xml version="1.0" encoding="utf-8"?>
<!-- Generator: Adobe Illustrator 21.0.0, SVG Export Plug-In . SVG Version: 6.00 Build 0)  -->
<svg version="1.1" id="Layer_1" xmlns="http://www.w3.org/2000/svg" xmlns:xlink="http://www.w3.org/1999/xlink" x="0px" y="0px"
	 viewBox="0 0 178.6 249.4" style="enable-background:new 0 0 178.6 249.4;" xml:space="preserve">
<style type="text/css">
	.st0{fill:#FFFFFF;}
	.st1{fill:#131F67;}
	.st2{fill:#E2CF00;}
	.st3{fill:#D40000;}
</style>
<g>
	<path class="st0" d="M9.1,0.6h161.5c4.7,0,8.5,3.8,8.5,8.5v232.4c0,4.7-3.8,8.5-8.5,8.5H9.1c-4.7,0-8.5-3.8-8.5-8.5V9.2
		C0.5,4.5,4.4,0.6,9.1,0.6z"/>
	<path d="M14.3,40.6c-3.4,4.4-7.1,6.9-7.2,10.3c0,1.1,0.7,3,2.8,3.4c1.4,0.2,3.2-0.8,3.3-2.8c0-0.4,0.5-0.4,0.5,0.2
		c-0.1,1.6-0.6,3.4-1.6,4.9c1.5,0,3,0,4.5,0c-0.9-1.5-1.5-3.3-1.6-4.9c0-0.5,0.5-0.6,0.5-0.2c0,2,1.9,3,3.3,2.8
		c2.1-0.4,2.8-2.2,2.8-3.4C21.4,47.5,17.8,45,14.3,40.6L14.3,40.6z"/>
	<path d="M165.3,210.1c-3.4-4.4-7.1-6.9-7.2-10.3c0-1.1,0.7-3,2.8-3.4c1.4-0.2,3.2,0.8,3.3,2.8c0,0.4,0.5,0.4,0.5-0.2
		c-0.1-1.6-0.6-3.4-1.6-4.9c1.5,0,3,0,4.5,0c-0.9,1.5-1.5,3.3-1.6,4.9c0,0.5,0.5,0.6,0.5,0.2c0-2,1.9-3,3.3-2.8
		c2.1,0.4,2.8,2.2,2.8,3.4C172.5,203.2,168.8,205.7,165.3,210.1L165.3,210.1z"/>
	<polygon points="14.9,35.2 17.6,35.2 13.7,25.5 10.7,29.6 10.7,35.2 12.8,35.2 12.8,38.1 5.5,38.1 5.5,35.2 7.9,35.2 7.9,14.2 
		5.5,14.2 5.5,11.7 12.9,11.7 12.9,14.3 10.9,14.3 10.8,24.6 17.4,14.2 15.1,14.2 15.1,11.7 23,11.7 23,14.2 20.9,14.2 15.5,22.7 
		20.8,35.2 23.1,35.2 23.2,38.1 15,38.1 14.9,35.2 	"/>
	<polygon points="164.7,215.5 162.1,215.5 166,225.3 168.9,221.2 168.9,215.5 166.8,215.5 166.8,212.6 174.2,212.6 174.2,215.5 
		171.8,215.5 171.8,236.5 174.2,236.5 174.2,239 166.7,239 166.7,236.4 168.8,236.4 168.8,226.2 162.3,236.5 164.6,236.5 164.6,239 
		156.6,239 156.6,236.5 158.7,236.5 164.1,228.1 158.8,215.5 156.5,215.5 156.5,212.6 164.7,212.6 164.7,215.5 	"/>
	<path class="st1" d="M24.2,19.8h131.2V231H24.2V19.8z M117.4,229.6c-4.9-8.9-12.6-23.4-12.8-23.5c-2.9,1.5-31.9,5.4-45.9,1.6
		c-4.8,7.2-9.5,14.4-13.6,21.5L117.4,229.6z M72.7,203c-0.7,0-1.5,0.5-1.4,0.1c0.1-0.2,0.3-2.5,0.4-3.3c0.2-0.4,0.5,0.6,0.5,1.5
		c0,0.5,0.2,0.1,1.9,0.2c1.8,0.1,3.3,0.4,3.9,0.6c2.1,0.5,6.2,0.1,8-1.2c1-0.7,1.3,0.1,0.3,0.8c-4.4,3.4-7.9,2.1-11.8,1.5
		C73.7,203.1,73.4,203,72.7,203z M74.6,199.9c-0.3-0.2-0.5-0.2-0.8,0c-1.4,0.6-1-0.3,0-1.2c0.4-0.4,0.4-0.6,0.1-1.1
		c-0.2-0.2-0.5-0.3-0.4-0.6c0.3-1.4,2.3-3.6,4.6-4.6c0.9-0.4,1.1,0-0.1,0.7c-1.8,1.1-2.4,2-1.4,1.6c2-0.7,3.8-0.2,6.4,1.1
		c0.7,0.4,1.1,0.4,1.7,0.4c0.5-0.4,0.9,0.1,1.2,0.3c0.2,0.1,0.2,0.2,0.4,0.2c1.5-0.3,0.6,0.6-1.4,2
		C81.2,201.2,77.3,202.4,74.6,199.9L74.6,199.9z M80.1,200.5c1.5-0.4,3.2-1.4,4.3-2.3c1.3-1.2,0.6-1-0.9-0.3
		c-2.2,1.1-3.7,1.4-6.2,1.3c-2.1,0-2-0.1-2.1,0.1C74.9,200.2,77.7,201.2,80.1,200.5z M76,196.9c0.1-0.4,0.2-0.9,0.1-1.1
		c-0.2-0.3-0.6-0.1-1.1,0.6c-0.3,0.4-0.3,0.5,0,0.8c0.2,0.1,0.3,0.2,0.4,0.2C75.9,197.6,75.9,197.2,76,196.9z M76.9,197.5
		c0.6-2.2,2.1-2.1,3.1-0.1l0.7,0c-1.5-4.1-4.3-2-4.4,0C76.7,197.5,76.9,197.5,76.9,197.5z M82.3,197.1c0.7-0.4,0.6-0.6-0.3-1.1
		c-0.6-0.3-0.9-0.4-1-0.2c0,0.4,0,1.1,0.3,1.4C81.5,197.4,81.9,197.3,82.3,197.1z M72.8,190.9c-0.1-0.2-0.1-0.6,0.4-0.8
		c2.9-1.3,0.8-4.2-1.4-2.1c-0.7,0.6-1.8,0.9-2.6,0.5c-0.8-0.3-0.8-1.3,0.2-1.5c0.3-0.1,1.2-0.2,1.5-0.5c3.9-2.1,5.9,2.4,3.2,4
		C73.5,190.9,72.9,191.1,72.8,190.9z M62,186.8c-1.6-0.7-1.8-3.2-0.3-4.2c0.9-0.6,1.9-0.8,4.5,0.5c1.8,0.9,2.9-0.1,2.8,1
		c0,0.6-0.1,1.3-1.1,1.4c-1.7,0.3-2.9-2.1-5.1-1.9c-1.6,0.2-1.4,2.1-0.2,2.5C64,186.6,63.1,187.2,62,186.8L62,186.8z M90.8,187.1
		c-0.2,0-0.3-0.6-0.2-0.8c0.8-1.9,1.5-3.4,2.2-5.1c0.6-1.4,1-2,1.2-2c0.3,0,0.4,0.2-0.1,1.1c-0.6,1.6-2.7,6-3,6.8
		C90.9,187.1,90.9,187.1,90.8,187.1L90.8,187.1z M78,186.6c-0.7-0.5-0.6-1.2,0.2-0.7c1,0.7,2.7-0.6,2.4-1.8
		c-0.4-1.5-2.4-1.9-4.1-0.5c-2.6,2.1-5.5,2.2-5.5,0.6c0-0.5-0.1-0.6,1-0.7c1.3-0.1,2.7-0.7,3.4-1.1c3.2-2,6.6-0.6,5.9,2.7
		C81,186.6,79.1,187.4,78,186.6z M66.3,181.8c-0.3,0-0.7,0.3-0.9,0.2c-0.3-0.2-0.2-0.8-0.4-1.4c-0.4-1.1,0-0.8,0.7-0.5
		c0.9,0.4,1.8,0.3,2.6,0c0.8-0.3,1.9-0.2,3.6,0c1.4,0.2,2.1,0.1,3.4-0.2c1.3-0.4,1-0.3,0.8,0.6c-0.1,0.5-0.3,1.3-0.5,1.5
		c-0.9-0.5-1.6-0.3-2.2,0c-1,0.4-1.7,0.5-2.5,0.3c-0.8-0.4-1.2-0.4-1.9,0C67.7,182.8,67.2,181.9,66.3,181.8z M86.3,179.6
		c0.2-0.3,0.5-0.8,0.7-1.3c2.1-4.1,2.2-5.3,0.8-6.7c-2-1.9-3.6-1.1-5.5,2.7c-0.5,0.9-0.7,1.6-0.9,1.9c-0.2,0.3-0.5,0.1-0.6-0.1
		c-0.2-0.2,1.9-4.2,2.7-5.1c2.1-2.3,6.1-0.5,5.9,2.6c-0.1,1.6-0.4,2.4-1.8,5.2c-0.4,0.7-0.7,1.3-0.8,1.6
		C86,180.9,86.1,179.9,86.3,179.6z M66.7,179.4c0.3-1.5,5-2.2,6.3-0.2c0.1,0.2,0,0.2-0.5,0c-2.4-0.8-2.9-0.7-5.2,0.2
		C67,179.5,66.8,179.6,66.7,179.4z M84.7,179.1c0-0.1,0.2-0.7,0.4-1.2c1.6-3.1,2-3.9,1.5-4.4c-0.9-1.1-2.2-0.1-3.3,3.1
		c-0.4,1.2-0.7,1-0.9,0.8c-0.4-0.4,1.4-4.1,2.2-4.7c1.9-1.2,3.5,0.2,2.6,2.7c-0.7,1.1-1.2,2.9-1.9,3.8
		C85.1,179.6,84.7,179.5,84.7,179.1L84.7,179.1z M77.7,174.1c-0.1-0.2,0.1-0.4,0.8-1.8c0.9-2,1.2-2.7,0.8-3.9
		c-0.7-2-3.2-2.5-4.7-1.2c-0.5,0.4-0.8,1-1.1,1.6c-0.6,1.2-1,2.8-1.3,3.2c-0.3,0.3-0.7,0.3-0.7-0.2c0.4-1.1,0.5-1.9,1.4-3.5
		c2.2-4.7,8.4-2.5,6.9,2.4c-0.5,1.8-1.2,3.1-1.5,3.6C78,174.5,77.7,174.3,77.7,174.1z M76.2,173.2c0-0.2,0.2-0.6,0.5-1.2
		c1-2.6,1.1-3.4-0.5-3.4c-0.9,0.1-1.1,0.5-1.9,2.5c-0.3,0.7-0.4,1.1-0.6,1.3c-0.2,0.2-0.5,0.1-0.6,0c-0.3-0.3,1.1-3.7,1.9-4.3
		c1.7-1.5,4,0.6,2.9,2.6c-0.5,1.4-0.9,2.3-1.2,2.7C76.5,173.7,76.2,173.7,76.2,173.2z M39.2,142.9l-5.3-0.4c0.9,5.7,1,11.9,0,16.3
		c-0.8,3.8-0.8,6.6-0.6,9.9c0.3,3.8,1.9,7.1,2.3,11.1c0.3,2.9-0.4,6-0.9,8.9c-1,4.9-0.8,5.4-0.6,11.1c0.1,5.3-0.4,5.1-0.7,4.8
		c0,0-0.1-1-0.1-2.1c0-1.1-0.1-3.8-0.1-5.7c-0.1-3.8,0.3-7.1,0.6-8.5c0.6-2.8,1.3-5.7,0.9-8.8c-0.9-3.9-2.1-7.8-2.5-11.6
		c-0.5-4.7,0.8-9.3,1.2-12.7c0.4-3.3,0-8.9-0.9-11.3c-0.1-0.8-0.8-1.8-0.8-1.8c-0.8-0.1-2-0.2-2.7-0.2c-0.1,22.4,0,44.8,0,67.2
		l4.9,4.6L39,209L39.2,142.9z M39.5,168.6c0,0,7.5,4.3,15.8,8.6c-0.8-4.9,1.7-5.6,4.1-6.2c-0.6-9.4,8.1-7.5,9.4,0.7l0.8,0
		c1.5-4.1,3-6.9,6.4-7.6c2.6-0.5,5.2,1.2,5.9,5.1c-0.1-0.3,8.7-5.2,9,5.2c4-2.5,6.9-0.3,8,2.8c1.7-2.6,5.9-2.7,7.3-2.9
		c-0.1-0.6,4.9-1.6,7.2-0.8c2.7-0.4,3.9,1.9,5.2,2.5c2.9-0.8,10.5-3.5,9.8-4.9c0.1,0,0.4,0.5,0.9,0.7c0.2,0.1,1.8-0.9,1.8-0.9
		c-11-12.7-20-37.7-14-60.6c-0.9-0.8,0.8-0.1,0.4,0c0,0-2.1,10.2-1.8,14.6c24.6,11.8,21.6,36.6,15.3,44.7l1,1.3
		c0.4,0.3,19.4-10.8,18.8-11.3l3.6-1.8l-0.6-48.5l-14.2-1.1c0,0,0.2-0.4,0.3-0.5c0.1-3-0.1-7.3,0-11c0.1-10.5,0.2-14,0-14.3
		c-4.4-2.9-10.9-7.1-16.4-9.2c0.2,0.1-0.1,4.3-0.3,4.6c-5.1,1.6-2.8,3.7-4.6,6c-1.3,1.4-4.3,1.7-5.7,0c-1.7-1.7-2.5-5.5-2.5-5.5
		c-2.7,2.9-2.2,6.4-5.8,7.8c-5.8,2.9-7.7-5.8-7.4-5.6c-2.2,2.2-8.5,3.9-9.2-5.2c-2.8,2.6-6,1.3-7.3-1.9c-1.7,0.1-3.7,1.4-5.4,2.2
		c-1.6,0.7-3.7,1.1-5.2,1.1c-1.9,0.2-3.5,0.2-5.2-0.3c-0.8,0.3-2.7-0.5-3.2-1.7c-0.9-1-1.6-1.1-2.4-0.9c-2.8,1.5-5.8,1.8-9.1,3.4
		c-0.2,0.1,0.3,0.4,0.1,0.4l-1.7,0.8c16.8,22.2,17.7,44.6,14.2,60.4c-0.1,0.5-0.2,0.9,0.1,1.4c-0.5-0.1-0.5,0.1-0.6-0.3
		c0.4-4.8,1.8-6.9,1.8-14.6c-6-3.3-12.8-8.1-15.8-14.1c-6.4-10.1-4.3-22.1,0.5-31.6l-1.2-1.3c-14.1,7.1-22.4,14.7-22.4,14.7
		l0.1,47.6l14.5,1.7L39.5,168.6z M32.6,136.8c-0.5-0.5-1.6-0.6-2.1-0.2c-0.1,0.1-0.4,0.6-0.4,0.6c-0.3-0.3-0.7-0.3-1.2-0.9l0.7-1.1
		c0.6-0.8,1.3-1.1,2.7-1.4c0.5-0.1,1.2-0.2,1.4-0.3c1-0.4,1.4-1.4,0.3-1c-0.7,0.2-1.8,0.1-1.9-0.5c-0.1-0.6-0.6-0.8-1.1-0.7
		c-1,0.2-1.9,0.8-2.7,1.3c-0.4,0.2-1.1,0.8-1.1,0.8c-0.1,0.2-0.5-1.1-0.1-1.5c0.5,0.1,0.9,0.1,1.4-0.1c1.2-0.5,2.3-1.1,3.6-1.5
		c0.8-0.3,0.8-0.3,0.6-0.8c-0.1-0.2-0.2-0.9-0.1-1.2c0.1-0.4,0.1-0.6-0.1-0.7c-0.5-0.4-1.8,0-3.7,0.9c-0.6,0.3-0.9,0.4-1.3,0.7
		c0.2-0.6,0.1-0.7,0.1-1.3c0.7,0.1,1.4-0.2,2-0.5c0.5-0.3,1-0.5,2.4-0.7c0.4,0,0.2-1.4-0.2-1.8c-0.4-0.4-1.2-0.4-2.2-0.1
		c-0.9,0.2-2,0.4-2.6,1.4c0.6-1.6,0.2-1,1.4-2c0.6,0,2-0.3,2.3-0.4c0.6-0.1,0.6-1.4-0.2-2c-0.5-0.4,1.8-0.5,1.8-0.3
		c0,0.1-0.1,0.6,0.1,0.8c1,0.3,1,1.1,1.1,1.5c1.2,1.9,1.7,0.7,2.5,0.1c-0.2,4.1,1.3,4.6,1.5,4.9c-2,3.7-0.5,3.8,1.4,4.6
		c0,0-0.7,0.3-1.2,0.3c-0.7,0-2.1,0.8-2.8,1.4c-0.3,0.3-0.4,0-1.7,0c-1.3,0-1.4,0.1-2,0.3c-1.2,0.5-1.1,1,0,0.8
		c1.2-0.2,2.4,0.5,2.5,1.5c0.1,0.2,0,0.2,0,0.2c-0.3,0-0.8,0-0.8-0.1S32.8,137.1,32.6,136.8L32.6,136.8z M34.3,131.8
		c0.3-0.2,0.4-0.8,0.1-1c-0.3-0.2-1.4-0.1-1.7,0.2C32,131.5,33.3,132.4,34.3,131.8L34.3,131.8z M35,129.3c0.4-0.3,0.5-1.1,0.1-1.5
		c-0.6-0.7-2.1-0.3-2.2,0.6C32.8,129.5,34.2,130,35,129.3z M34.5,125.9c0.1-0.8-0.7-1.3-1.5-1c-0.9,0.5-0.4,1.5,0.8,1.5
		C34.5,126.4,34.5,126.4,34.5,125.9z M31.8,122.6c-0.4,0.2-0.5,0.7,0,1.1C33.4,124.5,32.9,122.1,31.8,122.6z M145.8,127.5
		c-0.7-2.7-2.7,0-2.7,0c-0.1-2.7,0.4-3.9-1.6-4.9c2-3.1,1.6-3.5-0.5-4.7c0.2,0,2.9-0.6,3.3-2.1c0.1,0.1,4.2,1.1,4.7-1.2
		c-1.2,0.6-3.7,0.6-3.7-1.8c0.2-0.1,0.8,0,0.8,0.1c-0.3,1.5,2.5,1.9,2.9,0.7c0,0,0.9,0.6,1.4,0.7c0,0-1.3,1.9-2.5,2.1
		c-2.2,0.7-2.9,0.9-2.9,1.3c0,0.2,0.4,0.2,1,0.3c1.3,0.1,1.3,0.4,1.5,0.8c0.2,0.4,0.3,0.5,0.8,0.4c1.5-0.5,2.3-0.8,3.4-1.9
		c0.1,0,0.3,1.1,0.4,1.2c0-0.2-1.1,0.1-2.8,1.1c-1.4,0.8-1.9,0.9-2.1,1.1c-0.1,0.2,0.2,0.7,0.2,1.2c0,0.5-0.3,0.7-0.1,0.8
		c0.3,0.2,0.7,0.1,1.2,0c1.2-0.3,2.1-0.8,3.1-1.4c-0.2,0.4,0.2,1.5,0.2,1.5s-0.5-0.4-1-0.2c-1,0.5-2,1-3.2,1.2
		c-0.2,0.1-0.1,0.5-0.1,1c0,0.4-0.1,0.7,0.1,0.8c1.7,0.2,2.7-0.2,3.9-1l-0.3,1.5c-0.4-0.4-1.5-0.1-2.3,0.2c-0.4,0.1-0.5,0.4-0.6,0.7
		c-0.2,0.6,0.2,1,0.6,1.1c0.3,0.1,0.7,0.1,0.7,0.1c-1.2,0.8-1.3,1-2.7,0.5C146.5,128.8,146,128.2,145.8,127.5L145.8,127.5z
		 M147.8,127.5c-0.3-0.4-0.9-0.6-1.2-0.4c-0.3,0.2-0.2,0.5-0.1,0.7C146.8,128.5,148.5,128.2,147.8,127.5z M146.7,125.6
		c0.5-0.6,0-1.4-0.9-1.4c-0.6,0-0.9,0.4-0.9,0.8C144.9,125.9,146.3,126.1,146.7,125.6z M145.8,123.3c0.8-0.2,1.1-1.1,0.5-1.7
		c-0.4-0.4-1.7-0.5-2.1-0.1C143.3,122.5,144.3,123.7,145.8,123.3z M146.5,120.3c0.5-0.3,0.6-0.7,0.2-1.2c-0.8-0.7-2.2-0.1-1.7,0.8
		C145.1,120.5,145.9,120.6,146.5,120.3z M44.7,97.4c0.7-0.3,1.3-0.9,2.1-1.3c0.5-0.3,0.4-0.2-0.3-0.6c-0.5-0.2-1.6-1.3-1.7-1.1
		C44.6,94.9,44.6,97.4,44.7,97.4z M63.7,122.1c0.1-1.1-0.1-0.8-0.7-0.4c-0.4,0.3-1.1,0.7-1.4,0.8c-1.1,0.5-0.9,0.6,0.6,1.3
		c1,0.5,1.3,0.5,1.4,0.3C63.7,123.5,63.7,122.8,63.7,122.1z M62.1,121.4c1-0.7,1.4-1,1.4-1.7c0-0.8-0.1-1.1-0.8-0.6
		c-2.5,2-5.1-1.9-2.8-4.1c0.5-0.4,1.1-1.1,1.1-1.3c0-1.3-1.4,0-2.5,1.7c-1.3,1.6-2.1,3.5-0.9,5.4C58.4,122.2,60.4,122.5,62.1,121.4
		L62.1,121.4z M56.5,118.9c0-0.6,0.1-1.3,0.2-1.5c0.3-0.7,0.3-0.8-1-0.2c-0.5,0.2-1.1,0.3-1.3,0.3c-1,0-0.8,0.3,0.7,1.6
		C56.5,120.3,56.6,120.4,56.5,118.9z M60,112.9c0.2-0.4-0.2-0.5-0.5-0.5c0,0-0.6,0.4-1.2,0.9c-1.9,1.5-3.4,1.7-4.3,0.5
		c-1-1.2-0.6-2.6,1.6-4.2c1-0.7,1.2-0.8,0.7-1.1c-0.4-0.2-0.4-0.2-1.8,0.7c-2.8,1.9-3.6,3.2-3.4,5.1c0.1,0.8,0.5,1.2,0.9,1.5
		C54.7,118.3,58.4,115,60,112.9z M62.8,114l-0.2-2.6c-5.8-5.2-8.1-12.1-6.5-19.2l-1.5-2.9c-1.3,3.1-1.9,7.8-0.5,12.6
		C55.4,106,57.8,110.9,62.8,114L62.8,114z M50.9,112.5c0.9-1.7,0.9-1.6-0.8-1.6c-2,0-1.8-0.3-0.6,1.4
		C50.3,113.7,50.1,113.8,50.9,112.5z M52,110.1c1.1-0.4,0.9-0.3,2.4-1.3c1.7-1.1,1.8-1.8,0.1-0.9c-2.3,1.1-4.2,0.8-5-0.6
		c-0.7-1.3,0.7-3,3-3.6c0.8-0.2,1.2-0.4,1.2-0.7c0-1-3.8,0.3-5.4,1.9C45.3,107.9,47.9,111.4,52,110.1z M47.1,105.4
		c0.1-0.2,0.4-0.5,0.6-0.9c1.1-1.3,0.2-0.9-0.8-1.2c-0.5-0.2-1-0.4-1.3-0.3c-0.6,0.1,0.2,1.2,0.4,1.9
		C46.5,106.4,46.5,106.4,47.1,105.4z M51.2,102.5c1.9-0.2,2.1-0.4,2.1-0.8c0-0.4-0.2-0.3-1.2-0.2c-2.6,0.4-4.3-0.3-4.6-1.7
		c-0.4-1.4,1.4-2.8,3.7-2.7c1.3,0,2.1-0.4,1.3-0.8c-0.4-0.2-3.9-0.2-4.6,0.1c-2.3,0.7-3.2,2-3,3.7c0.3,2.2,1.5,2.8,4.4,2.7
		C49.8,102.8,50.5,102.6,51.2,102.5z M52.7,95.4c0-0.3-0.5-0.4-2.4-0.7c-2.4-0.4-3.5-2.6-2-4c0.6-0.5,1.9-0.7,2.6-0.6
		c1.6,0.3,2.6,0.6,2.6,0.1c0-0.5-0.5-0.5-3.5-1.2c-4.5-1-7,3.5-3.4,5.7C48,95.6,52.7,96.1,52.7,95.4z M53.8,89
		c0-0.2-0.1-0.3-0.5-0.4c-2.1-0.6-5.1-3.4-2.9-5.1c1-1-0.8-2.2-2.2-1.1c-1.4,1.2-1.3,3.1,0.3,4.6C50.1,88.4,53.8,89.8,53.8,89z
		 M46.5,88.7c1.6-0.7,2.7-0.3,1.5-1.3c-0.7-0.6-1.3-2.4-1.7-0.9c-0.4,0.9-0.6,2.5-0.6,2.7C45.7,89.3,45.7,89.1,46.5,88.7z
		 M99.6,80.3c0.3-1.1,1.3-3.8,1.5-4c0.8-0.6,0.7,0.2,0,1.7c-0.7,1.5-1.2,2.7-1,3.6c0.3,1.3,0.8,2.2,2.1,2.5c0.9,0.2,1.8-0.2,2.4-0.6
		c0.8-0.5,1.5-2,2.4-3.9c0.3-0.5,0.7-2.2,1.1-1.2c0.2,0.5-1.6,4.1-2.3,5C102.7,87.1,98.7,83.5,99.6,80.3z M113,83.7
		c0.9,0.8,2.4,1.3,3.3,1c2.4-0.8,3.4-3.1,2.5-6.7c-0.5-2-0.8-3.3-1.2-3.5c-0.2-0.1-0.4,0.1-0.6,0.4c-0.2,0.3,0.1,0.6,0.4,1.6
		c1.1,4,0.8,5.8-0.5,6.6c-2,1.1-3.7-0.2-4.3-3c-0.1-0.4-0.4-1.3-0.4-1.3c-0.2-0.4-1.4-0.3-0.9,1C111.4,80.6,112.4,83.1,113,83.7z
		 M123.2,73.2c0-1.4-3-7.5-3.2-6.9c0,0,0,1.4,0.1,2c0,0.2,0.2,0.4,0.3,0.6c2.6,4.6,2.2,7.8-0.1,8.6c-0.8,0.3-0.9,0.7-0.6,1
		c0.7,0.8,2.4-0.7,2.7-1.3C123.4,76,123.3,73.8,123.2,73.2z M80.2,72.1c4.5-5.9,8-19.2,8.6-27.7c-0.2-0.2-1.2-0.1-1.5,0.1
		c-0.2,0.2-0.1,0.7-0.1,1.3c-0.9,7-2.6,13.4-5,19.9c-1.1,2.8-2.1,4.7-3.4,6.6c-0.2,0.3-0.5,0.7-0.6,0.9c-0.3,0.5-0.1,0.8,0.3,0.6
		C79.1,73.4,79.7,72.7,80.2,72.1z M76.9,73.8c5-7.5,7.8-15.6,9.6-29.1c-0.4-0.1-1.2,0-1.5,0.2c-0.2,0.3-0.1,0.8-0.2,1.9
		c-0.4,3-1,6-2,10c-2.6,8.7-5.1,13.6-8.2,17.9c-0.3,0.4-0.5,0.6-0.5,0.7c0,0.2,0.3,0.2,0.8-0.1C75.6,74.9,76.4,74.4,76.9,73.8
		L76.9,73.8z M72.2,76.1c1.5-0.9,4.2-4.6,6.1-8.7c2.1-4.8,3.9-10.2,5-14.8c0.5-2,1.2-7.1,1.1-7.5c-0.1-0.2-1.6,0-1.4,0.2
		c0,0-1.5,8.2-3,12.7c-2.9,8.4-5.5,14.1-8.2,16.8c-0.4,0.4-1.1,1.1-1.1,1.1s0,0.3,0.2,0.4C71.4,76.4,71.8,76.3,72.2,76.1L72.2,76.1z
		 M69.8,75.8c3.4-1.9,7.4-10.9,10.7-22.1c0.6-1.9,1.6-8.4,1.6-8.4s-1.4,0.1-1.6,0.3c-0.3,0.4-0.2,1.4-0.6,3.7
		c-1.5,7.1-3.7,13.6-7,20c-1.4,2.8-3.8,5.5-5.3,6.3c-0.8,0.4-1.1,0.9-0.5,0.9c1,0,1.1,0.3,1.9-0.2L69.8,75.8z M116.6,176
		c-2.6,0-4.7,2.5-6.7,5.6c-4.1,6.4-6.9,17-7.6,22.6l1.6-0.3c-0.2,0.1,2.9-15,7.7-21.5c2.6-4.1,2.5-4.2,3.9-4.5
		c1.8-0.5,3.3,1.5,2.4,2.7c-0.3,0.4-0.7,0.1-0.6-0.5c0.3-1.9-2.4-2.2-3.1-0.4c-0.9,2.1,1.4,4,3.7,3.1c2-0.7,2.8-3.5,1.4-5.6
		C118.6,176.5,117.5,175.9,116.6,176z M103.1,175.7c-3.1,3.9-4.6,7.8-6.5,13.3c-1.9,5.4-3.2,10.7-3.8,16.8l1.7-0.2
		c-0.1-3.9,4.2-22.6,10.2-29.5c0.3-0.4,0.6-0.8,0.6-0.9C104.9,174.2,103.5,175.3,103.1,175.7z M109.9,174.3c-4,3.3-7.1,10.4-9.2,17
		c-2.3,7.1-3.3,13.7-3.1,13.7l1.6-0.2c-0.1-0.4,4.4-25.6,12.9-30.2c0.7-0.4,0.9-0.7,0.3-0.9C111.3,173.5,110.5,173.9,109.9,174.3z
		 M114.3,174.3c-8.7,1.1-14.3,27.9-14.5,30.1l0,0.2l1.7-0.4l0-0.1c1.2-6.8,2.3-11.6,5-17.8c2.1-4.6,5-10.4,9.3-11
		c0.4,0,0.7,0.1,0.6-0.3C116.2,174.3,114.9,174.2,114.3,174.3L114.3,174.3z M62.7,165.8c-3.1,0.8-3.2,4.6-1.1,9.4
		c0.2,0.4,0.1,0.6,0.3,0.7c0.4,0.3,0.6-0.1,0.7-0.4c0.1-0.4-0.1-1-0.5-1.9c-1.3-3.3-1-5.3,0.3-6.1c3.3-1.7,4.2,1.8,4.7,3.4
		c0.1,0.4,0.2,0.9,0.4,1c0.7,0.1,1-0.1,1-0.1c0,0-0.9-3-1.4-4.1C66.1,165.8,64,165.4,62.7,165.8z M39.9,169.4l0,39.8l-6,5.7
		c-2.6-2.2-6-5.7-6-5.7l0.1-67.3l-1.9-0.2c-0.5,28.9,0,58.5,0,87.4h17.6c4.9-7.9,10.1-15.6,14.9-23.5c0.2-0.4,0.2-1.1,0.1-3.6
		c0-1,0.1-1.8-0.1-2c-0.1-0.2-0.5-0.1-0.8,0.1c-0.3,0.1-0.5,0.1-0.3-0.3c0.1-0.2,0.4-0.6,0.6-1.1c0.8-1.4,1-1.8,0.7-3.3
		c-0.1-0.4-0.4-0.7-0.7-1.1c-2.5-3.7-3.5-9.1-2.2-13.1c0.4-1.8,0.3-2.1-0.6-3.5L39.9,169.4z M117.5,126.6c-1.6-0.8-1.6-0.8-1.6,0.8
		c0,1.2,0,1.5,0.5,1.3c0.6-0.3,1.4-0.6,2-0.9C119.5,127.4,118.1,126.9,117.5,126.6z M123.9,130.7c-1.3-1-0.8-0.9-1.1,1.4
		c-0.2,1.4-0.5,1.4,0.9,1c0.8-0.3,2.4-0.1,1.7-1C125.4,132,124.2,130.9,123.9,130.7z M69.8,172.3c-6.7,0.8-9.5,7.5-9.8,13
		c-0.2,4.4-0.5,9.5-0.1,9.9c4.4-2,6.1,0.3,6.5-0.3c0.2-0.3-1-1.2-2.4-2c-0.3-0.2-0.9-0.5-1.1-0.7c-0.5-0.4,1.1-0.1,2.1,0.6
		c1.3,0.9,1.5,0.7,0.9-1.9c-0.6-2.8-0.7-3.2,1.4-4.3c0.9-0.4,1.3-0.8,2-1.5c0.5-0.6,0.6-0.7,0.4,0.1c-0.3,1.4-1.6,2-2.7,2.6
		c-0.6,0.3-0.8,0.9-0.8,1.4c0,0.5,0.6,3.3,0.8,4.1c0.2,0.8,0.3,1.7,0.5,2.5c0.5,2.2,0.5,2.6,0.3,4.2c-0.1,0.9-0.2,1.5-0.2,2
		c0,0.5,0.1,1.2,0.1,1.2c0,0-1.2-1.2-3.8-0.2c-1.9,0.8-3.4,0-4.4-0.6c-0.2,0.9-0.2,1.8-0.2,2.8c10.9,2,20.2,1.7,28.1,0.9
		c0.1-1.9,1.4-13.8,6.2-24.2c0.8-1.3,1.5-2.3,1.8-2.4c0.1-0.1,0.1-0.2,0.1-0.3c0-0.4-0.1-1.1-0.5-1.4c-0.9-0.7-2.4,0.2-2.8,1.8
		c-0.4,1-2.3,5.2-2.5,5.1c-0.1-0.1-0.4-0.1-0.3-0.4c0.7-1.7,1.7-3.5,2.3-5c0.8-2.2,2.5-3.4,3.7-2c0.4,0.5,0.6,0.9,0.8,1.1
		c0.1,0.1,0.4,0,0.5-0.2c0.5-0.7-0.6-2.4-1.8-2.7c-1.7-0.5-3,0.8-4.9,4.9c-1.1,2.4-1.3,2.9-1.5,2.8c0,0-0.3,0-0.2-0.4
		c0.2-1,1.7-3.8,2.8-5.6c1.6-2.7,4.6-2.9,5.8-0.6c0.2,0.3,0.2,0.7,0.4,1c0.4,0.5,1,0.4,1.2-0.4c-0.2-0.5-1.2-2.5-1.9-2.8
		c-1.7-1.2-3.7-0.9-5.4,0.6c-0.4,0.3-0.8,1.1-1.9,3.4c-1.7,3.7-1.7,3.7-2.2,3.1c0.7-1.8,2.4-4.7,3.1-6.5c0.1-0.3,0.2-0.6,0.2-0.8
		c0-1.3,0.2-3.6-2.6-5.2c-2.3-1.3-5.4,0.1-6.5,2.6c-0.8,1.9-1.4,3.2-1.8,3.5c-0.6,0.4-0.5-0.1-0.4-0.3c0.8-1.7,1.9-3.5,2.1-5.2
		c0.1-4.2-3.7-6.1-6.7-4.7C72.1,166,70.9,169.3,69.8,172.3z M49.2,77.3c3.7-1.7,6.2-2.6,10-3.7c0.5-0.2,0.6-0.3,0-1.4
		c-2.4-4.8,4.2-8.6,6.4-3.9c0.3,0.6,0.4,1,0.7,0.7c2.8-3,7.3-14.5,8.4-22.5C69.7,37.8,61,21.8,61,21.8H26.1v69.9
		C35.8,83.5,42.4,80.6,49.2,77.3L49.2,77.3z M90.7,70.4c0.3-0.6,0.7-1.4,0.9-1.8c0.2-0.7,1.1-1.2,0.7,0.1c-0.1,0.3-0.3,0.7-0.5,1.2
		c-0.5,0.9-1,2-1.3,2.8c-1.9,3.9-1.8,6.2,0.3,7.9c1.6,1.6,5,1.7,6.8-0.8c0.3-0.4,0.5-0.9,0.6-1.1c0.8-1.9,1.4-2.9,1.5-3.1
		c0.8-1,0.9,0.2-0.3,2.2c-1.4,2.2-1.4,4.7-0.2,6.4c1.8,2.5,5.1,2.6,7.2,0.6c1.1-1.3,2-2.9,2.7-5c0.2-0.5,0.3-0.8,0.4-1.1
		c0.2-0.4,0.4-0.6,1.1-0.7c4.5-0.9,8.2-5.5,8.7-10.5c0.1-0.7,0.3-1.9,0.3-2.6c0.1-1.4,0.1-8.8,0-9.3c-0.1-0.2-0.2-0.4-0.5-0.4
		c-0.2,0-0.5,0.1-1,0.2c-1.5,0.5-2.2,0.7-3.6,0.2c-0.5-0.2-0.8-0.2-1-0.2c-0.6,0.1,0.2,1,2,2c0.8,0.4,1.4,1,0.8,1
		c-0.2,0-2.4-1.2-2.7-1.3c-1-0.6-0.7,0.2-0.2,2.2c0.7,2.8,0.3,3.5-1.9,4.6c-0.4,0.2-0.9,0.6-1.2,0.9c-1.1,1.7-0.8,0.4-0.3-0.5
		c1-1,0.4-1.4-1.6-0.7c-2.3,0.8-3.3,0.2-4-1.1c-0.7-1.5,0.6-3.3,1.8-3.3c0.4,0,0.3,0.1-0.2,0.5c-0.7,0.5-1,0.9-1,1.7
		c-0.1,1.6,1,2.2,2.5,1.2c0.7-0.5,1.3-0.8,1.9-1c0.6-0.1,1.4,0.1,1.4,0.5c0,0.2,0,0.6,0,0.7c0.1,0.5,0.9-0.2,1.3-0.5
		c1.2-0.9,1.1-1.1,0.8-2.5c-0.5-2-0.8-3.9-1.3-5.9c-0.3-1.1-0.3-2.3-0.1-3.4c0.1-0.5,0.3-1.7,0.3-2.4c0-0.8,0-1.9,0-1.9
		c1.2,0.9,1.6,1.1,2.8,0.6c1.8-0.7,2.9-0.7,4.4,0.1c0.5,0.3,1.1,0.5,1.1,0.5L120,45c0,0-1.4-0.3-3.9-0.6c-7.6-1-23.3-1.2-23.9-0.3
		c-1,6.2-2.4,13.6-4.1,18.4c-0.3,0.9-0.6,1.3-0.4,1.4c0.1,0,0.3-0.4,0.5-0.5c0.7-0.9,0.2,1.2-0.9,3.7c-0.1,0.2-0.2,0.5-0.2,0.5
		c0,0.1-0.7,1.9-1.2,2.9c-0.3,0.6-0.6,0.8-0.6,0.4c0.3-1.4,1.2-3.3,1.4-4.5c-0.8,1.2-1.9,3.1-2.8,4.2c-0.2,0.3,0,0.4,0.1,0.8
		c0.5,1.4,1.8,1.5,2.5,0.3c0.4-0.7,1.7-3.4,2.1-4.6c0.5-1.2,0.8-1.8,0.9-1.9c0.3-0.2,0.4,0.5-0.2,1.7c-1.6,3.5-2.3,5.4-3.1,6.1
		c-0.6,0.6-1.7,0.5-2.3-0.5c-1-1.7-1.9-1.1-0.9,0.6c1,1.8,3.2,1.9,4.3,0.3c0.4-0.5,2.2-4,2.7-5.3c0.3-0.8,0.6-1.4,0.8-1.4
		c0.6-0.2-0.1,1.5-1.8,5.1c-0.6,1.4-1.4,2.8-2.7,3.3C83.4,75.6,83,74,82,72.2c-0.5-0.4-0.9,0.3-0.8,1.1c0.3,1.3,0.9,1.8,1.9,2.4
		c1.8,1.2,4.3,0.3,4.9-0.6C88.7,74.2,89.1,73.5,90.7,70.4L90.7,70.4z M101.5,82.1c-0.3-0.6-0.2-1.2-0.1-1.8c0.3-1.3,0.8-2.5,1.4-3.6
		c1-0.5,0.2,1.4,0.1,1.6c-1.2,2.4-1.3,3.4-0.2,3.7c0.9,0.2,1.4-0.3,2.3-2.5c0.5-1.1,0.6-1.6,0.8-1.7c0.3-0.1,0.5,0,0.5,0.3
		c-0.6,1.4-1,3-2,4.1C103.3,83.2,101.9,83.2,101.5,82.1z M92.7,80.2c-4.6-1.7-1.9-6.8-0.9-8.6c0.2-0.3,0.8-1.5,0.9-1.9
		c0.3-0.7,0.7-0.4,0.7,0c0,0.1-0.5,1.2-1,2.2c-2.2,4.4-2.2,6.2,0,7.3c2.1,1,3.1,0.4,4.8-2.9c1-2.5,1.5-2.6,1.4-1.6
		c0,0.4-1.2,2.8-2,3.9C95.6,80.3,94.4,80.8,92.7,80.2z M92.9,78.1c-0.8-0.5-1.2-1.8-0.7-2.9c0.5-0.9,1.6-4.2,2.1-4.4
		c0.9,0,0.4,0.7-0.7,2.8c-1.3,2.7-1.2,3.5-0.2,3.9c0.9,0.4,1.3-0.4,2.7-3.6c0.2-0.5,0.5-1,0.7-0.9c0.2,0,0.6,0.1-0.1,1.6
		c-0.2,0.3-0.5,1.1-0.8,1.8C95,78.3,94,78.8,92.9,78.1z M108,72.3c-0.4-0.2-2.1-0.9-1.8-1.4l0.2,0c1.6,1.1,3.5,1.3,5.6-0.1
		c0.3-0.3,0.6-0.1,0.4,0.3C111.7,72.3,109,72.8,108,72.3z M102.9,70.5c0-0.1,0.2-0.5,0.3-1c0.2-0.7,0.1-1.2,0.3-1.2
		c0.7,0.4,2,0.4,2.6,0c0.7-0.4,2.1-0.6,2.6-0.2c0.7,0.5,1.1,0.3,1.6-0.1c0.6-0.5,0.6-0.3,1.6,0.1c0.8,0.3,1.1,0.5,1.4,0.4
		c0.1,0,0.4-0.3,0.5-0.3c0.2,0,0.3,0.8,0.5,1.6c0.2,0.7,0.1,0.9-0.6,0.5c-0.5-0.3-1.8-0.5-3.3,0c-1.1,0.3-1.3,0.2-2.1,0.1
		c-1.9-0.3-3.3-0.6-4.8,0.3C103,71,102.7,71.2,102.9,70.5L102.9,70.5z M98.1,66.9c-0.9-1.9,1.2-4.4,3.1-3.5c0.6,0.3,1.2,1.4,0.3,0.9
		c-4.3-0.9-3.2,5.5,1.4,2.1c3.1-2.1,5.2-2.4,5.4-0.4c-0.1,0.7-0.7,0.6-1.2,0.7c-1.3,0.2-1.7,0.4-3.2,1C101.6,68.5,99.4,69,98.1,66.9
		z M114.9,67.8c-1-0.3-2-0.7-3.1-0.9c-1.1-0.2-1.6-0.8-1.4-1.5c0.2-0.8,1.3-0.9,2.9,0.1c1.8,1.1,3.1,1.4,3.8,1
		c1.3-0.8,0.6-2.2-0.7-2.6c-1-0.3-0.3-0.6,0.8-0.3c1.7,0.6,1.7,3.7,0,4.3C116.7,68.1,115.7,68,114.9,67.8z M100.3,57.8
		c1.2-0.8,2.4-1.4,2.8-1.9c0.2-0.2,0.8-1,0.4-0.8c-2.5,1.5-5.4,0.3-7.5-0.8c-1-0.5-0.8-0.3-1.5-0.2c-0.5,0-0.9,0.1-1-0.2
		c0-0.2-0.3-0.1-0.5-0.1c-0.8-0.1-0.3-1.1,1.3-2.2c3-2.2,7.6-4.2,10-1.5c0.5,0.5,0.5,0.8,0.9,0.5c1-0.7,1,0.2,0.2,1
		c-0.6,0.6-0.4,0.7,0.4,1.3c0.3,0.3,0.1,0.5-0.1,0.9c-0.1,0.2,0,0.5-0.1,0.7c-0.2,0.8-3.8,3.7-5.1,4.1C99.5,58.7,100,58,100.3,57.8z
		 M102.2,52.5c-0.7,2.1-2,2.8-3,0.3l-0.5,0c0,2.1,3.6,3.5,4.1-0.3C102.6,52.6,102.4,52.5,102.2,52.5z M98.9,54.5
		c-0.2-0.4-0.5-1.4-0.8-1.4c-0.7,0-1.7,0.1-1.5,0.5C97,54.4,99.2,55,98.9,54.5z M103.7,54.2c0.7-0.4,0.8-0.7,0.4-1.1
		c-0.6-0.6-0.8-0.3-1,0.6C102.9,54.4,103.1,54.6,103.7,54.2z M94.9,52.7c4.4-2,6.1-2.3,7.8-1.8c0.4,0.1,0.8,0.3,1,0.3
		c0.9-0.1,0.3-1-1.2-1.6c-1.8-0.6-2.9-0.3-6.2,1.4C94.3,52.1,92.7,53.7,94.9,52.7z M107.6,50.2c-0.1-0.1-0.3-0.9-0.4-1.2
		c-0.1-0.3-0.1-0.6-0.2-0.6c-2,0.3-3.8-0.1-4.3-0.2c-3.1-0.7-6.1-0.6-8.3,0.3c-0.5,0.2-1.2,0.6-1.3,0.6c-0.2,0.2-0.4,0-0.4-0.2
		c0-0.2,1.4-1.3,2.2-1.8c2.6-1.3,5.4-1.5,8.4-0.7c2,0.8,3.2,0.6,4.5,0.1c0.6-0.3,0.2,0.4,0,1.3c-0.1,0.6,0,1.2,0,1.5
		C107.9,50.2,107.8,50.6,107.6,50.2L107.6,50.2z M153.5,229.2v-70.1c-17.5,12.2-25.2,14.6-33.4,17.5c3.1,5.5-3.8,10.7-6.8,4.7
		c-3.6,4-8.5,18.2-8.7,22.9c0,0,9.5,16.6,14.2,24.9H153.5z M89.8,206.2c0.3-3.5,1.1-9.5,3.4-16.5c1-2.9,2.2-6.3,3.8-9.3
		c0.7-1,0.7-1.5,0-1.1c-0.4,0.2-2.5,2.6-2.8,3.1c-2.8,7.7-4.9,13.4-6,23.8L89.8,206.2z M92.1,205.9c0.7-8.6,3.9-20.1,8.6-27.7
		c0.4-0.7,1-1.3,1-1.6c-0.1-0.7-1.9,0.5-3.3,2.7c-1.6,3.1-3.1,6.5-4.3,10.2c-1.7,5.2-2.9,10-3.4,16.6L92.1,205.9z M96.6,205.2
		c0.5-4.9,2-9.5,3.3-14c1.6-5.5,3.6-9.6,6.1-13.3c0.8-1.2,1.7-2.3,2.6-3.4c0.1-0.1,0.2-0.4,0.2-0.5c-0.6-0.1-1,0.1-1.4,0.3
		c-0.6,0.3-1.5,1.2-2,1.8c-3.5,4.4-5.3,9.6-7,14.9c-1.7,5-2.8,9.9-3.1,14.4L96.6,205.2z M65.6,201.4c0.7-0.1,1.1,0.1,1.3-0.1
		c0.2-0.2,0.1-0.7,0.2-1.3c0.1-1.4,0-1.3-0.8-0.4c-1.4,1.5-3.9,2-5.5,1.1c-0.8-0.4-1.3-0.8-1.4-0.4c-0.1,0.4,0,0.8,0.4,1
		C61.7,202.1,63.4,201.6,65.6,201.4z M64,200.4c1-0.3,1.9-0.8,2.5-1.6c0.5-0.8,0.5-0.9,0.1-0.7c-2,1-3.3,1.5-5,1.2
		c-2.4-0.4-2.5-0.1-0.9,0.9C61.7,200.8,62.6,200.8,64,200.4z M60.5,197.3c0.4-0.3,0.5-1.4,0.2-1.5c-0.3-0.1-0.7,0.5-0.8,0.9
		C59.7,197.4,60.1,197.6,60.5,197.3L60.5,197.3z M64.2,197.3l0.6-0.1c-0.3-2.8-3.3-2.9-3.9,0.3l0.5,0.1
		C62,195.1,63.7,195.1,64.2,197.3L64.2,197.3z M66.3,196.8c0.8-0.5,0.4-1.1-0.8-1.3c-0.8-0.2-0.8,0.5-0.3,1.4
		c0.2,0.4,0.3,0.4,0.8,0.1C66.1,196.9,66.2,196.8,66.3,196.8z M59.1,193.4c0-0.3-0.1-0.8-0.3-1.1c-1.1-2.2-1.6-4.8-1.5-8
		c0.1-2.3,0.1-3-0.4-3c-0.7,0.3-1.1,4.6-0.2,8.2C57.3,192,59.1,195.1,59.1,193.4z M59.1,189.9c-0.1-1.2,0.2-3.9,0.1-4.5
		c-0.2-0.8-0.6-1.5-0.9-1.7c-0.4-0.3-0.5,0.3-0.4,1.7C58.2,188.9,58.7,191.4,59.1,189.9L59.1,189.9z M59.4,183.7
		c0.3-0.5,0.2-1-0.4-2.1c-2.3-4.5-2.6-7.5-0.2-8.6c0.3-0.1,0.4-0.1,0.6-0.2c0.7-0.4,0.5-1.2-0.7-0.9c-3.1,0.9-3.7,3.8-1.1,9.2
		C59,183.8,59.2,184.1,59.4,183.7z M60.1,180.1c0-0.2-0.3-0.6-0.6-1.4c-0.9-2.3-0.9-3.2,0.1-3.8c0.3-0.2,0.6-0.2,0.7-0.4
		c0.1-0.3,0.1-0.9-0.1-1c-1.4,0-2,0.8-2.2,1.6c-0.2,2.8,0.9,4.7,1.9,6.6C60,181.1,60,180.5,60.1,180.1z M61,178.3
		c0.7-1.5,0-3.4-1-2.8c-0.7,0.4-0.7,0.9-0.3,2.1C60.2,179.1,60.5,179.3,61,178.3z M63.7,174.1c0.1-0.3-0.2-0.8-0.6-2.2
		c-0.5-1.4-0.3-2.4,0.6-2.6c1.3-0.3,1.7,1.8,2,2.6c0.1,0.7,0.6,0.9,1,0.4c0.1-0.1,0.1-0.2,0-1c-0.8-3.2-1.9-4.3-3.6-3.5
		c-1.6,0.7-1.4,2.4-0.2,5.9c0.2,0.5,0.3,0.8,0.4,0.9C63.4,174.6,63.6,174.4,63.7,174.1L63.7,174.1z M65,173.2
		c0.4-0.4,0.4-0.2-0.1-1.6c-0.5-1.5-0.8-1.9-1.3-1.3c-0.3,0.3-0.2,0.7,0.2,1.9C64.2,173.7,64.4,173.8,65,173.2z M131,168
		c2.5-1.7,1.5-4.9-1.8-6c-0.4-0.1-0.8-0.3-1-0.4c-1.5-0.7-2.7-1-2.7-0.4c0,0.3,0.5,0.5,1.9,1.2c2.2,1.1,2.6,2.3,1.6,3.8
		C128.2,167.3,129.7,168.6,131,168z M133.3,164.1c0.2-0.9,0.5-1.7,0.7-2.2c0.2-0.8-0.1-0.6-0.6-0.5c-1.4,0.7-2.4,0.3-1.7,1.3
		C132.4,164.1,133,165.1,133.3,164.1z M133.1,161c1.7-1,2.1-3.8,0.5-5c-0.4-0.3-1-0.7-1.9-1c-1.6-0.5-4-0.7-4.9-0.5
		c-0.2,0.2-0.2,0.6,0,0.7c0.2,0.1,0.7,0.1,1.3,0.2c6.1,1,3.6,5.5-0.6,4.6c-1.4-0.3-2-0.2-1.5,0.2c0.7,0.4,2.1,0.9,3.4,1.2
		C130.8,161.5,132.1,161.6,133.1,161L133.1,161z M124.8,160.6c1.9-4.4,3-15.9-8.1-24.2l0.4,2.3c6.5,5.8,8.1,13.1,6.8,19.9
		L124.8,160.6z M134.7,152.7c-0.7,0.5-1.3,0.9-2.2,1.3c-0.5,0.2-0.5,0.3,0.2,0.7c0.4,0.2,0.9,0.5,1.2,0.8c0.4,0.4,0.8,0.6,1,0.4
		C134.9,155.3,135.1,153.1,134.7,152.7z M131.5,153.5c2.2-0.7,3.5-1.8,3.2-3.6c-0.4-2.7-2.6-3.2-6.8-2.2c-2,0.5-2.2,1.4-0.3,1
		c2.4-0.6,4.3,0.3,4,2.1c-0.1,1.5-1.4,2.4-3.5,2.4c-1.1,0-1.5,0.1-1.3,0.5C126.9,154,130.5,153.8,131.5,153.5z M127.7,147.2
		c3.7-1.3,5.4-3.2,4.5-5.4c-1-2.6-4.2-2.6-7.4-0.2c-1.5,1.1-1.3,1.5,0.2,1c1.9-0.9,3.1-1,3.9-0.3c1.4,1.3,0.5,3.4-1.7,4.2
		c-1,0.4-1.4,0.7-1.4,1C125.9,147.9,126.1,147.7,127.7,147.2L127.7,147.2z M133.9,147.1c0.1-0.8-0.8-3.4-1.1-2.8
		c-0.1,0.2-0.4,0.9-0.9,1.3c-1.3,1.1-1,0.7,0.2,1.1C132.9,146.9,133.8,147.4,133.9,147.1z M124.2,141.4c3.7-2.2,5.1-5.3,3.2-7.3
		c-1.7-1.8-4.6-0.8-7.3,2.6c-1.2,1.5-0.3,1.3,1.3-0.1c1.9-1.7,4.4-0.9,4.3,1.2c0,0.9-1.3,2.4-2.5,3.2c-0.4,0.2-0.4,0.6-0.3,0.8
		C123.2,142,123.5,141.9,124.2,141.4z M130.7,139.2c-0.2-0.6-1.6-3.1-1.9-3c-0.3,0.6-0.3,1.5-0.7,2.2c-0.5,1-0.5,0.9,1.2,0.9
		C130.5,139.2,130.7,139.4,130.7,139.2z M119.8,136.3c3.1-3.3,3.4-7.1,0.5-8c-1.6-0.5-4.2,0.7-4.2,1.9c0,0.8,0.1,0.9,0.8,0.6
		c2.8-1,4.9,1.6,2.4,4.7c-0.6,0.9-0.7,1.1-0.5,1.3C119,137.1,119.1,137.1,119.8,136.3z M153.5,108.9V21.8h-18.3l-14.5,23l0,5.6
		c0,0.2,0.3,0.3,0.5,0.1c0.8-0.6,0.5,0-0.4,1.5c-1,1.5-0.7,2.7,0.4,4.2c2.2,3.3,3.4,9.4,2.4,12.7c-0.4,1.2-0.4,1.7-0.2,2.4
		c0.3,0.8,0.4,1.2,1.2,1.7c0.7,0.5,6.2,2.6,15.1,8.4l0-40.6l5.6-5.4l5.9,5.7l0.2,67.6L153.5,108.9z M150.2,41.3l-5-4.6l-4.9,4.6
		c0,21.8,0.1,66.7,0.1,66.7l4.9,0.4c0,0,0.4-1-0.1-3.7c-0.7-4-0.6-8.8,0.5-16.2c0.7-4.5,0-8.4-1-12.6c-0.9-2.8-0.9-5.3-0.8-7.8
		c0.3-3.9,1.4-6.9,1.6-12.5c0.1-3.2-0.1-6.4,0-10.3c0-0.5,0.3-0.5,0.3,0.1c0.1,3.6,0.3,7,0.3,10.5c-0.1,4.6-1.2,9.3-1.3,13.4
		c-0.1,2.9-0.1,3.9,1.1,7.4c1.9,5.5,0.7,14,0.6,14.2c-0.8,5.4-1.4,12.4,1.3,17.6l2.6,0.2L150.2,41.3z M116.1,82.5
		c1.5-0.7,1.8-1.9,1-4.7c-0.1-0.5-0.3-1.1-0.4-1.4c-0.2-0.7-0.5-0.8-0.9-0.2c-0.3,0.3,0,0.4,0.4,2c0.6,2.4,0.2,3.2-0.6,3.2
		c-0.8,0-1.4-0.7-1.6-2.2c-0.1-0.5-0.2-0.9-0.3-1.1c-0.2-0.4-0.5-0.3-0.7,0.1c-0.3,0.5,0.2,2.6,0.9,3.6
		C114.6,82.8,115.1,83,116.1,82.5z M115.7,80.4c0.3-0.6-0.1-2-0.3-3c-0.2-0.5-0.4-0.7-0.7-0.6c-0.5,0.1-0.5,0.7-0.3,1.6
		C114.8,80.3,115,80.6,115.7,80.4z M120.2,76.9c1.7-1,1.8-2.6,0.7-5.6c-0.5-1.2-1-2.1-1.4-2.1c-0.1,0.8-0.2,1.2-0.1,1.5
		c1,1.5,1.7,3.9,0.3,5.3C118.9,76.6,119.4,77.2,120.2,76.9z M65.4,75.7c3.9-0.8,7.5-7.2,9.7-12.9c2-5.7,4.2-12,4.5-17.2
		c0,0-1.5,0.1-1.7,0.4c-0.2,0.3-0.2,1-0.4,1.9c-1,4.8-1.8,8.5-3.6,13c-1.2,3.1-2.6,6.7-5.9,11.5c-1.1,1.3-2.4,2.2-3.9,2.4
		c-0.4,0.1-1.1,0-1.3,0.1c-0.3,0.2,0,0.7,0.7,0.9C64.3,75.9,64.7,75.9,65.4,75.7L65.4,75.7z M119.5,75c0.6-0.6,0.7-1.4,0-3
		c-0.2-0.5-0.3-0.7-0.5-0.6c-0.5,0.1-1,1.4-0.7,2.4C118.7,75.2,119,75.6,119.5,75z M64,74c1.1-0.2,2.7-1,3.7-2.5
		c6.4-10.1,7.5-15.7,9.5-25.2c0,0-1.5-0.1-1.8,0.3c-0.6,3.9-1.8,7.7-2.8,11c-1.6,5.5-6.1,14.3-8.5,14.7c-1.3,0.2-2.8-0.9-2.6-2.1
		c0.1-0.7,0.2-1,0.6-1.2c0.9-0.3,1.4,0.3,0.4,0.7c-1.1,1,0.9,2.4,2.1,1.4c2-1.7-1-5-3.4-3.5c-2.7,1.7-2,4.6-0.3,6
		C61.8,74.1,62.8,74.2,64,74z M83.3,70.1c1.7-1.7,2.9-4,3.9-6.8c2-6.3,3.6-13.5,4.2-19.2c0,0-1.4-0.1-1.8,0.2
		c-0.5,6.1-3,18.7-7.1,25.2C81.7,71,82,71.4,83.3,70.1z M120.5,56.9c-0.2-0.1-0.1,0-0.2,0c-0.2,0.2-0.1,1,0.4,2.2
		c1.4,2.2,1.5,6.5,1.4,8.1c0,0.5-0.1,0.8,0.1,1.2c0.1,0.4,0.4,0.9,0.8,0.1c0.5-3.2,0.1-6.5-1.1-9.2
		C121.5,58.4,121.1,57.5,120.5,56.9z M121.5,66.3c0.2-0.9-0.2-4.3-0.8-5.5c-0.2-0.5-0.6-0.5-0.6,0c0,1.2-0.1,3.4,0,4.1
		C120.8,66.4,121.3,67.3,121.5,66.3L121.5,66.3z M118.4,52.6l-0.6,0c0,2.2-1.9,2.8-2.7,0.2l-0.6,0.1
		C115.3,56.7,118.8,54.9,118.4,52.6z M114.5,54.3c-0.3-1-0.2-1.3-1-0.9c-0.7,0.3-1,0.7-0.1,1.1C114.2,54.9,114.7,54.9,114.5,54.3
		L114.5,54.3z M119.4,53.7c0.3-0.5,0.2-1-0.2-1c-0.3,0-0.4,0.2-0.5,0.8C118.6,54.4,119,54.6,119.4,53.7z M119.8,50
		c0.2-0.1,0.2-0.4,0.1-0.9c-1.1-1.5-3.7-1-4.6-0.7c-1.1,0.4-1.4,0.2-2.1-0.1c-0.6-0.1-0.7,0-0.8,0.3c-0.1,0.3-0.2,0.8-0.2,1.6
		c0,0.7,0,1.1,0.2,0.8C114.6,48.8,116.3,48.3,119.8,50z M112.5,52c0,0.3,0.3,0.1,0.9-0.3c2.4-1.4,3.7-1.2,5.8-0.5
		c0.5,0.1,0.7-0.3,0.2-0.7C117,48.5,114.1,49.7,112.5,52z M121.1,42.9l12.8-21.3l-71.4-0.1l12.1,22.6
		C84.5,41.8,100.8,38.9,121.1,42.9z"/>
	<path class="st2" d="M57.8,209.6c1.5-2.3,9,1.8,9.4,3.4c4.4-3.5,9.8-3.8,14.1,0.6c4.5-4.9,9.2-4.6,14.2-1.7
		c-0.6-1.1,6.3-6,10.5-2.9l11.3,20.3l-72.6,0.2C49.1,223.1,52.9,215.3,57.8,209.6z M26.1,103.7c-0.4-1.1-2-12.4,2.1-12.7
		c25.7,16,26.2,44.7,25.7,45c-0.4-0.1,8.2,8.6,8.8,9.4c1.9,2.6-16.4,27.4-17.1,26.5l-5.9-3.4l0.1-8.7l0.1-17.5l-14.2-1.2l0.5-3.8
		c4.8,0.4,9.7,1.3,14.1,0.3c2.9-5.4,1.8-13.4-1.7-16.6c-1.8-1.1-3.6-0.8-5.5-0.5C25.5,119.1,29.4,106.2,26.1,103.7z M153.5,109.5
		l0,3.2c-5,1.1-13.9-3.2-16.6,3.7c0.3,7.4,2,10.8,3.1,13c0.9,2,7-0.3,9.1,1.8c6.2,7.6,4.7,17.8,4.8,27l-2.7,1.4
		c-18.5-11-32.7-45-34.6-54.7c-0.1-6.2,17-26.2,17-26.2l6.2,3.8c0.1,0.1-0.1,26.3-0.1,26.1C144.6,108.7,149.3,109.2,153.5,109.5z
		 M116.8,85.6c-21.5,37.9-12.7,66,3.1,90.2c0,0-1.4,0.3-1.5,0.2c-4.3-4.3-9.7-2.3-14-1.4c-13.1,0.3-8.2-3.9-26.9-10.5
		c-4.5,0.4-11.5,2.6-14.1,0.8C81.7,131,79,109.3,60.1,73.8c1.6,0.5,1.8,1.9,3,2.3c3.9,1.5,9.2,0.9,12.4-0.5
		c5.1-2.3,10.5,3.9,26.2,10.8c1.3,0.7,2.9-0.4,4.3-0.7c2.9-0.6,5.4-1.8,7.5-1.1C114.2,84.9,116.8,85.6,116.8,85.6z M73.4,41.2
		c-0.9-1.7-10.4-19.9-10.4-19.9l70.7,0.4L123,39.3c-1,1-6,3.6-11.1-2.4c-0.1,0.9-7.5,6.2-13.9-0.2c-3.8,3.5-7.8,5.6-14.3,1.6
		C83.6,39.3,78.5,44.3,73.4,41.2z"/>
	<path class="st3" d="M81.1,213.2c-6.8-6.5-14-0.6-13.8-0.3c-2.6-2.6-5-4-9.1-3.8l0.2-1.1c10.6,2,27,2.5,46-1.5l1,2.1
		c-5.1-1.8-7.7,0.6-10,3.5C87.2,206.9,85.2,211.4,81.1,213.2z M97.1,138.1l4.8-0.1c0.9,14.2,12.7,35.9,13,35.9
		c-0.8-1.1-8.6-0.2-8.5-0.1C102.1,162.3,97.4,150.8,97.1,138.1z M68.8,171.7c0.1,0-1.2-4-2.5-5.8c5.1-8.8,9.3-17.8,11.4-27.9l3.5,0
		C80.1,152,69.1,173.1,68.8,171.7z M131.1,169.9c7.6-13.9,6.3-33.9-15.3-44.9c0,0,0.6-14.7,2.2-14.7c0.4,0.1,9.8-0.1,9.8-0.1
		c2.5-6.1,6.4-13.5,12-18.5l0.1,16.4c-4.1,0.4-6.6,1.7-7.9,5l-5.7,1.3c0.4,16.5,6.6,31.7,24.8,45.3c-4.4,3.8-19.2,11.4-19.2,11.3
		L131.1,169.9z M39.8,159.5l0.2-17.1c2.8-0.6,4.9,0.2,7.2-4.8c0,0,3.8,1.8,5.1,2.5C48.7,146.7,45.6,153.6,39.8,159.5z M76.1,129.5
		l0.2-8.8h8.2c-0.7,2.9-0.9,5.8,0,8.8H76.1z M94.7,129.5c0.6-2.8,1-5.7-0.2-8.8h8.8l-0.2,8.8H94.7z M77.9,112.3
		c-1.5-17-13-36.2-13.2-35.8c1.4,0.2,3.8,0.9,5.1,0.3c1.6,0.3,3,0.1,3.1-0.1c-0.2-1.9,9.1,18,9.3,35.6
		C82,112.4,78.3,112.3,77.9,112.3z M98.3,112.4c1.2-7.8,4.5-22.2,12.1-33.9c0.9,2.1,1.6,4.2,2.8,6.1c-5.7,8.4-9.3,18-11.4,27.8
		L98.3,112.4z M45.5,108.2C42,101,27.5,89.8,28.3,90.9c6-5.4,12.7-8.8,19.3-12.3c0,0,1.2,1.1,1,1.4c-4.1,6.5-6.1,20.3-2.1,28.2
		c3.8,8.4,10.6,13.4,17.5,17.4c-0.5,5.3-0.8,9.1-2.1,14.4c0,0-4.3-2.3-7.9-3.8C53.4,126.2,51.4,117.3,45.5,108.2L45.5,108.2z
		 M83.8,38.1c5.1,3.1,9.7,2.8,14.1-1.4c5.6,5.1,11.6,2.7,14.1,0.4c2.4,2.7,5.4,4.2,9.9,3.3l-1.1,2.3c-14.3-2.8-29.8-1.7-46,1
		c0,0-1-2.1-0.9-2.1C75.2,41.5,79.7,43.4,83.8,38.1L83.8,38.1z"/>
	<path d="M61.9,20.7l12.6,23.7c0,0,0.4-0.1,0.6-0.1c17.5-3.4,31.3-3.9,46.1-1.3l13.2-22C110.3,20.7,61.9,20.7,61.9,20.7z M63.3,21.7
		l70,0.1l-3.9,6.5c-2.4-0.7-3.7,0.4-4,2.6c0,0-0.3-0.1-0.8-0.2c-3.5-0.4-3.9,4.2-0.7,4.8c0.8,0.1,1,0,1,0c-2.9,2.4-4.5,0.8-5.9,0
		c0,0.3-2.6,2.2-5-0.1c3.4,0.3,4-3.1,2.3-4.4c-0.3-0.3-0.7-0.6-0.7-0.6c0.8-0.7,1-1.7,0.5-2.7c-1-2.2-4.3-2-4.8,0.3
		c-0.2,0.9-0.2,1.1-0.2,1.1c-2.6,0.2-3.2,2.7-2.3,4.1c0.5,0.8,1.6,1,2.7,0.9c-1.4,2-4.6,1.3-6.1-0.3c-2.3,2.7-4.9,2.4-6.2,0.9
		c0.9,0,1.5,0,2.3-0.8c1.4-1.3,0.7-3.6-1.2-4.2c-0.4-0.1-0.7-0.1-0.7-0.2c0,0,0.1-0.1,0.1-0.8c0.5-4-5.4-3.6-4.9,0.3
		c0.1,0.5,0.2,0.7,0.2,0.7s-0.6,0-1,0.1c-3.3,1.5-1,5.7,1.5,4.7c0.2-0.1,0.9-0.4,1-0.4c-3.1,3.9-5.8,1.1-6.5,0.7
		c-2.1,3.2-5.8,1-5.9,0.8c0.2,0.1,0.9-0.1,1.6-0.4c2.1-1.1,1.5-3.9-0.1-4.5c-0.5-0.2-1.1-0.2-1.8-0.1c0,0,0-0.7,0-1
		c-1-3.8-5.8-1.9-4.6,1.3c0.1,0.3,0.4,0.6,0.4,0.6s-0.6,0.4-0.9,0.7c-2.3,2,0,5.4,2.7,4c0.3-0.2,0.7-0.6,0.8-0.5
		c-1.2,2.3-3.1,3.1-5.8,1.2c-1.7,2.6-4.4,1.5-5.1,0.2c2.5,0.2,4.2-4.6-0.7-4.8c-0.4-1.3-0.4-3.3-3.4-3L63.3,21.7z M97.5,30.1
		c0.6,0,1,0.5,1,1c0,0.6-0.5,1-1,1s-1-0.5-1-1S96.9,30.1,97.5,30.1z M113.1,30.2c0.6,0,1.1,0.5,1.1,1.1s-0.5,1.1-1.1,1.1
		c-0.6,0-1.1-0.5-1.1-1.1S112.5,30.2,113.1,30.2z M82.5,31.4c0.6,0,1,0.5,1,1c0,0.6-0.5,1-1,1c-0.6,0-1-0.5-1-1
		C81.4,31.9,81.9,31.4,82.5,31.4z M126,32.6c0.1,0,0.3,0,0.4,0.1l-0.9,1.6C124.6,33.5,125.1,32.5,126,32.6z M69.3,33.2
		c1.6,0.1,1.1,1.3,0.9,1.7L69.3,33.2z M97.4,34c6,6.9,11.4,4.9,14.9,0.3c1.5,3.9,4.9,6.6,10.7,4c-0.4,0.6-1.2,1.7-1.2,1.7
		c-5.1,1.4-7.7-1-9.6-3.4c-5.2,4.4-10.1,3.3-14.2-0.5c-3.5,4.4-9.1,5.3-14.2,1.8c-2.4,3.5-5.8,5-10,3.2c0,0-0.9-1.4-1-1.5
		c0.6,0.5,8.5,3.8,10.4-4.1C85.8,40.1,94.8,40.3,97.4,34z M98,36.8c6.8,6.4,13.9,0.9,14,0.5c0.1,0.4,4,5,9.5,3.3l-0.9,1.6
		c-14.8-2.4-28.9-1.9-45.7,1.3L74,41.8c4.3,1.3,8-0.3,9.7-3.2C84.8,39.2,92.4,43.5,98,36.8z M80.2,72.5c-0.2,0-0.4,0.2-0.8,0.6
		c-0.8,0.8-1,0.9-1.8,1c-0.6,0.1-1.8,0.8-2.6,1.5c-0.2,0.2-0.6,0.3-1,0.4c-0.4,0.1-1,0.2-1.2,0.2c-0.3,0-0.6,0.1-0.7,0.2
		c-0.4,0.2-1,0.3-1.7,0.1c-0.7-0.2-0.8-0.2-1.6,0.1c-1.1,0.3-1.8,0.3-2.4,0c-0.5-0.3-1.4-0.5-2-0.3c-0.8,0.3-2.9-1-2.9-1.8
		c0-0.2-1.2-1.1-1.5-1.1c-1.1-0.2-10.5,3.6-10.4,3.8c11.5,14.4,21.2,36.3,13.9,63.1l-1.3-0.6c1.1-4.9,1.5-9.8,1.8-14.8
		c-21.6-9.4-23.5-31.4-15.1-45.2l-1.4-1.5c-5.1,2.7-10.3,4.3-22.9,15c0,16,0.1,32,0.1,48c4.6,0.5,9.6,0.9,14.5,1.4
		c0,0-0.1,15.4-0.2,21.5c-0.1,5.1,0.1,4.8,0.1,4.8l16.4,8.7c-1.2-4.6,1.7-6.4,4.1-6.2c-1.1-4.4,1.6-6.5,4.5-5.9
		c2,0.4,2.7,1.5,3.9,5.2c0.2,0.6,0.4,1.4,0.4,1.4l1.1,0c1.4-3.1,2.4-7.1,5.8-7.6c4.4-0.7,6.1,2.4,6.1,5.5c4.3-3.8,9.4-0.9,9.1,4.8
		c2.2-1.4,5.8-2.7,8.1,2.7c0.9-0.2,1.3-1.2,2.5-1.5c0.5-0.1,1.5-0.7,1.5-0.7l0-0.2c0,0,1-0.3,2.2-0.5c1.1,0.4,0.8,0.4,1.4-0.3
		c0.7-0.3,1.7-0.6,2.6-0.5c0.9,0.1,1.3,0.1,1.8-0.1c0.8-0.3,1.5-0.4,2,0.1c0.3,0.4,0.8,0.2,1.3,0.2c1,0,2.4,0.4,2.9,1.3
		c0.6,0.7,2,1.3,2,1.3l1.1-0.3l0.1-0.4l9.3-3.6c-18.9-20.9-18.4-48.7-14-62.7l1.7,0.8c-0.9,4.2-1.9,8.4-1.8,14.6
		c17,7.7,25.5,27.5,15.2,44.8l1.1,1.4c4.3-1.8,15.1-7.9,18.8-11.3l0.8,0.1c0,0,2.3-1.5,3.3-2.3l0.1-45.9l-0.8,0.2l-0.1-2.7l-14-1.1
		c0.2-0.1,0.3-0.2,0.4-0.5l-0.1-25.4c-0.5-0.8-12.3-7.8-16.7-9.4c-0.2,0-0.1,0.3,0,1c0.2,2.5-1.5,4.7-3.4,4.7
		c-0.7,0-0.8,0.3-0.8,1.7c0,2-0.7,3.4-2.8,4.2c-2.5,0.9-4.2-0.4-5.6-5.6c-0.4-1.4-1.1-1-1.8,0.8c-0.3,0.9-1.5,3.2-2.1,4.4
		c-0.5,0.9-1.3,1.3-2.4,1.8c-0.9,0.4-2.7,0.4-3.8-0.2c-1.9-1-2.7-2.2-3.2-5.1c-0.1-0.4-0.3-0.4-0.9,0.1c-3.4,2.6-8.2-0.1-8.2-4.6
		c0-1.3,0-1.4-0.8-0.7c-2.3,1.9-5.5,0.9-6.7-2.1C80.6,72.8,80.5,72.5,80.2,72.5L80.2,72.5z M60.7,74.1c0.2,0.1,0.7,0.7,1,1
		c0.7,0.8,1.6,1.2,2.6,1.7c0.1-0.1,11.3,15,13.2,36l5.2,0c-1-20.3-6.5-30.1-9.1-36.4l1.9-0.6c4.2,8.1,9.3,24.6,9.1,39h-8.6
		c-1.2-14.4-6.8-28.5-14.5-39.2C60.9,74.9,60.4,74.3,60.7,74.1L60.7,74.1L60.7,74.1z M57.3,76.3l0.9,2.8c0,0,0.1-0.6,0.4-0.9
		c1.7-1.5,3.3,0.5,2.6,3.3c-0.2,0.9-0.5,2.5-0.5,2.5s-1.7-0.9-2.6-1.2c-2.4-1-3.2-3-1.4-3.2c0.3,0,0.9-0.1,0.9-0.1
		c-0.8-0.6-2.4-2-2.4-2L57.3,76.3z M65.3,76.6L65.3,76.6c0.7,0.4,2.6,0.9,3.6,0.5c0.9-0.3,1.5-0.1,2.4-0.1c0.5,0,1.5-0.2,1.5-0.2
		c5.1,10.8,8.6,23.7,9.2,35.4l-4,0c-1.5-12.5-6.3-25.1-12.4-34.5C65.4,77.3,65,76.6,65.3,76.6z M81.9,76.8c1.9,0.1,3.7,2.6,4.2,4.1
		c0.5,1.4,0.7,1.3,1.3,1.1c1.7-0.6,3.5,1.3,1.2,1.6c-2.2,0.4-1,4.8-1.1,5.2c-0.9,0.2-2.6-3.6-2.6-4.7c0.1-2.7-2.4-5-4-3.9
		c-0.7,0.5-0.7,0.9-0.9,0.7c-0.7-0.6-0.9-2.3,0-3.2C80.6,77.1,81.3,76.8,81.9,76.8L81.9,76.8z M128.1,77.7c0,0,0.1,3.6,0,4.4
		c-0.3,2.4-3.4,2.6-3.5,0.7c-0.5,0.8-0.9,1.7-1.1,2.6l-2.2-1.5c0.8-0.6,1.6-1.1,2.2-1.9c-1.6,0.1-2.5-1.3-1.4-2.5
		C123.4,78.1,126.7,77.9,128.1,77.7z M47.5,78.8l1,1.1c-8.6,15.5-5.6,35.2,15.3,45.6c-0.1,4.7-0.7,9.5-1.9,14l-7.7-3.8
		c0.1-17.5-9.8-34.1-25.4-45.1C34.5,86.1,40.8,82,47.5,78.8z M110.5,79c0.4,2,2.3,5.7,2.4,5.5c0-0.1-8,10.3-11.4,27.7l-2.9,0
		C100.5,100.6,104.4,89.7,110.5,79z M135,79.5l1.6,1c-8.2,7-13.7,15.8-17.6,25.3l-2.1-1C123,90.9,129.1,84.8,135,79.5z M137.1,81
		c0.7,0.1,1.3,0.7,1.8,1c0.8,0.5,0.6,0.7-0.9,1.8c-1.7,1.3-1.9,1.3-1.9-0.6C136.2,81.9,136.5,81,137.1,81z M135.3,83
		c0.5-0.1,0.2,2.2,0.1,2.9c-0.2,0.8-2.4,2.6-3.2,3.4c-0.3,0.2-0.5,0.1-0.5-0.2c0-0.6,0.1-1.4,0.1-2.2c0-0.2,0-0.5,0.2-0.7
		C133.1,84.8,134.7,83.1,135.3,83z M139.5,83.6L139.5,83.6c0.2,0.1,0.1,2.7,0,2.9c-0.6,0.2-2.4-0.1-2.8-0.3
		C136.6,85.8,139.1,83.6,139.5,83.6z M62.3,84.4l0.6,2.5l0.2-0.4c1.2-1.8,2.6-0.8,2.6,1.8c0,0.8-0.7,4-0.7,4s-4.5-2.2-4.8-3.1
		c-0.3-0.9,0.1-1.8,1-1.8c0.3,0,0.6-0.1,1,0l-1.9-2L62.3,84.4z M113.5,84.8l2,0.8c-4.2,7-8.6,13.8-11.8,29.5h-8.5
		c1.2-9.6,3.6-19,7.9-28.1c0.6-0.1,2.1-0.4,2.6-0.8c0,0-7,16.2-7.9,26.7l4.1,0.1C104.2,102.6,108.3,92.1,113.5,84.8z M97.4,85
		c1.1,0,2,0.8,1.9,2.2c0,1.3-0.1,1.5-1.1,1c-1.2-0.7-2.2-0.7-3.3,0.1c-0.6,0.4-1.2,0.8-1.2,0.8s0.5-2.3,1.3-3
		C95.9,85.4,96.7,85,97.4,85z M90.7,85.8c1.3,0,2.5,1.3,2.3,2.6c-0.1,0.8-0.3,1.1-0.5,1.8c0,0,0.7-0.3,1-0.4
		c1.5-0.7,3.1,0.6,3.1,2.1c0.1,1-1,2.3-2.4,2.3c-0.5,0-0.9-0.1-1.4-0.5c0.3,1.9,0.4,2.8-1,3.7c-1.1,0.8-3.6-0.1-3.4-2.2l0.1-1.3
		L87.3,94c-3.2,0.1-3.3-3.9-0.7-4.5c1-0.2,2.2,0.6,2.2,0.6c-0.5-1-0.5-2.7,0.2-3.5C89.5,86.1,90.1,85.8,90.7,85.8z M121.3,85.9
		c0.2,1.5,0.8,3.1,0.6,4.5c-0.3,1.8-1.8,2.9-3,1.7c-0.1-0.1-0.4-0.4-0.4-0.4c-0.5,0.7-0.9,2.6-0.9,2.6l-2.1-1.3c0,0,1.5-1,1.9-1.6
		c0.1-0.2,0.2-0.5,0.2-0.5c-1.2,0.4-2.2-0.8-1.8-1.9C116.4,87.3,119.5,86.6,121.3,85.9z M136.1,86.9c0.8,0,2,0.3,2.8,0.4
		c0.7,0.1,0.3,0.6-1.3,2.2c-1.5,1.5-1.5,1.4-2.6,1.3c-2.7,0-3.2,0-1.6-1.7c0.8-0.9,1.6-1.7,2.2-2C135.6,87,135.8,86.9,136.1,86.9z
		 M131,87.3h0.1c0.2,0.2,0.1,1.5,0.1,2.2c0,1.2,0,1.2-0.5,1.9c-0.6,0.8-1.2,1.7-1.9,2.4c-0.6,0.6-0.6,0.6-0.9-1
		c-0.3-1.5-0.1-1.9,1.8-4.1C130,88.2,130.7,87.4,131,87.3z M139.5,88.4c0,0.8,0,1.8,0,2.8c-5.6,5.6-9.4,11.8-12,18.7l-1.9-0.9
		C129.2,100.3,134.1,93.7,139.5,88.4z M90.7,90c-0.9,0-1.7,0.8-1.7,1.7c0,0.9,0.8,1.7,1.7,1.7c0.9,0,1.7-0.8,1.7-1.7
		C92.4,90.7,91.6,90,90.7,90z M90.7,90.5c0.6,0,1.2,0.5,1.2,1.2c0,0.6-0.5,1.2-1.2,1.2s-1.2-0.5-1.2-1.2C89.5,91,90,90.5,90.7,90.5z
		 M90.7,91.1c-0.3,0-0.6,0.2-0.6,0.6c0,0.3,0.3,0.6,0.6,0.6c0.3,0,0.6-0.3,0.6-0.6C91.2,91.4,91,91.1,90.7,91.1z M28.1,91.2
		c17.6,11.4,25.5,29,25.4,44.2l-1-0.5c-1-21.4-12.6-34.6-25-43.1L28.1,91.2z M132,91.4c0.6,0,1.3,0.1,1.9,0.2
		c1.5,0.1,1.6,0.2,0.6,1.3c-0.7,0.9-1.8,2.5-2.2,2.6c-0.3,0.1-2.9,0-3.6-0.1c-0.2,0,0.1-0.3,1.3-2.1C131,91.9,131.1,91.4,132,91.4z
		 M139.5,92c0,0,0.3,9.7,0,15.9c-4-0.1-6.3,1.4-7.3,4.3l-4.2-2.1C131.1,102.1,135.2,96.6,139.5,92z M127.1,92.1
		c0.2,0,0.3,0.6,0.4,1.5c0.3,1.8,0.2,1.9-0.5,2.9c-0.7,1-1.7,2.9-1.8,2.2c-0.5-1.8-0.7-2.9-0.5-3.3C125.3,94.4,126.1,93,127.1,92.1z
		 M26.8,92.4c14.1,8.8,24.5,23.9,24.9,42.1c0,0-3-1.4-4.9-2.5l-0.1-1.8l1,0l0.3,2l2.2-0.1l-0.6-5l-3.4,0.3l-0.7-2.8l1-0.2l0.6,1.8
		l2.2-0.6l-1.2-4.4l-3.4,0.9l-1.1-3l1.1-0.4l0.9,1.8l2.1-0.7l-1.9-4.4l-3.1,1.5l-1.6-2.9l1.2-0.7l1,1.7l1.9-1l-2.4-4.1l-3,1.7
		l-1.5-2.3l0.9-0.6l1,1.2l1.7-1.2l-2.6-3.5l-2.8,2.2l-2.1-2.4l1-0.8l1.4,1.3l1.6-1.4l-3.1-3.4l-2.7,2.5l-2-1.8l1-1.1l1.3,1l1.3-1.6
		L31,96.8l-2.5,2.5L26,97.7v-1.2c0.8,0.3,1.6,0.7,2.4,1.1l1.2-1.9L26,93.2L26.8,92.4z M66.1,93.1l0.5,3.1c0.5-0.8,0.9-1.4,2-1.1
		c1.3,0.5,1.3,2.5,0.2,5.6c-0.2,0.6-0.5,1.1-0.5,1.1s-0.6-0.2-1-0.5c-0.8-0.6-2.2-1.2-2.9-2.3c-0.7-1.2-0.7-2.8,0.6-2.6
		c0.3,0,0.8,0.1,0.8,0.1l-2-2.6L66.1,93.1z M26,94.1l2.4,1.6L28,96.6L26,95.7V94.1z M87.3,94.8c0.7,1-1.8,3.9,1.5,5.1
		c0,0,0.1,0.7-0.6,1.1c-1.6,1.2-3.9-1-3.2-3.2C85.5,96.4,86.8,94.8,87.3,94.8z M94.1,94.9c0,0,1,0.7,1.2,0.9
		c1.8,1.8,1.8,4.3,0.2,5.2c-1.1,0.6-2.3,0.1-2.8-0.7c-0.2-0.4,0.1-0.8,0.5-0.8c0.8,0,1.4-1.5,1.2-3.1C94.3,95.7,94.1,94.9,94.1,94.9
		z M115.5,95.5L115.5,95.5c0,0,0.2,2.2,0.5,3.1c1,2.7-0.3,4.3-2,3.4c-0.3-0.1-0.7-0.7-0.7-0.7l-0.2,3.1l-2.5-0.7
		c0.5-0.9,1.3-1.5,1.9-2.5c0,0-0.4,0-0.7,0c-1.5,0.1-2.1-1.6-0.5-3C112.5,97,115.5,95.5,115.5,95.5z M129,96.2
		c0.9,0,1.9,0.1,2.6,0.2c-0.6,1.3-1.3,2.4-2.1,3.5c-0.1,0.1-0.3,0.2-0.5,0.2c-1,0.2-2.1,0.1-3.2,0.1c-0.2,0,0.3-0.9,0.5-1.4
		c0.7-1.3,1.2-2.3,1.8-2.5C128.4,96.2,128.7,96.2,129,96.2z M123.8,97.2c0.2,0,0.3,0.3,0.5,1.1c0.4,1.7,0.5,1.7-0.2,3.1
		c-0.4,0.7-0.9,1.9-1.2,2.4c-0.6,1.3-0.7,1.2-1.1,0.1c-0.8-2.2-0.8-1.9,0.4-4.4C123.1,98,123.5,97.2,123.8,97.2z M31.1,97.8l2.3,1.8
		l-0.6,0.6l-1.3-0.9l-1.9,2l3.1,2.8l2.6-2.6l2.2,2.3l-0.7,0.6l-1.3-1.3l-1.9,1.7l2.9,3.5l2.9-2.3l1.8,2.4l-0.8,0.5l-1.2-1.2
		l-1.9,1.3l2.4,3.4l3-1.7l1.7,2.8l-0.9,0.5l-1-1.5l-2.1,1.2l2,3.9l3.2-1.4l1.3,3l-1,0.4l-0.8-1.8l-2.2,0.9l1.5,4.1l3.3-0.9l0.8,3.1
		l-1,0.3l-0.5-1.7l-2.1,0.5l0.9,4.2l3.3-0.2l0.4,3.4l-1,0l-0.3-2l-2.1,0c0,0.7,0.1,2.1,0.1,2.1l-1.3-0.6
		c-1.9-12.8-8.7-23.4-18.8-30.8L26,98.7l2.5,1.6C28.5,100.3,30.7,98.3,31.1,97.8z M127,100.8c0.5,0,1,0,1.6,0
		c0.3,0.2-0.1,0.8-0.8,2.1c-1,1.8-1.1,1.9-2.9,2.3c-2.2,0.5-2.1,0.7-0.9-1.9c0.5-1,1.1-2.1,1.5-2.5C126,100.8,126.5,100.8,127,100.8
		z M26.1,101.3c10.5,6.8,17.1,21,18,29.6c0,0-0.3-0.2-0.9-0.5c-0.8-0.4-1-0.6-1.2-1.8c-2.1-10.5-7.9-19.4-15.8-25.7L26.1,101.3z
		 M120.8,103c0.5-0.2,1.4,3.7,1.1,4.1l-2.5-1.2C119.4,105.9,120.5,103.1,120.8,103z M70.2,103.2l0,3.3c0,0,0.4-0.5,0.6-0.6
		c0.8-0.6,2,0.2,2,1.2c0.1,1.4-0.1,1.9-1.2,3.8c-0.3,0.6-0.8,1.3-0.8,1.3s-1.3-0.9-2.7-2.3c-1.5-1.5-1.2-3.6,0.1-3.6
		c0.4,0,0.7,0.1,1.1,0.2c-0.3-1-1.3-2.9-1.3-2.9L70.2,103.2z M111.2,105.7c0,0,0.7,0.9,1.5,3.3c0.8,2.3-0.4,4-2,3.1
		c-0.3-0.2-0.6-0.5-0.6-0.5c-0.1,1.1,0.1,3.1,0.1,3.1l-2.5-0.4c0,0,1.4-2.2,1.5-2.8c0,0-0.2,0.1-0.9,0.1c-2.5,0-2-3.1,0.9-4.8
		C109.7,106.7,111.2,105.7,111.2,105.7z M125.8,105.7c0.6,0,0.3,0.5-0.3,1.8c-0.3,0.7-0.6,1.1-0.6,1.1s-1.8-0.8-2.6-1.3
		C123.4,106.3,124.2,106.1,125.8,105.7z M89.7,106.1c2,0,3.5,2,3.2,4.8c-0.5,4.9-0.2,4.6,0.3,5c1,0.9-0.3,1.4-1.5,0.6
		c-0.8-0.6-1-1.2-1-3.8c0-3.1-0.1-3.9-1.2-3.6c-0.7,0.2-0.9,0.8-0.8,2.8c0.1,2.9-0.1,3.6-1.2,4.6c-1.2,0.9-2.5,0.1-1.4-0.5
		c0.5-0.6,0.6-1.3,0.4-3C86.3,111.5,85.4,106.1,89.7,106.1z M138.3,108.6c0.5,0,1,0,1.5,0c3.8,0.1,13.6,0.9,13.6,0.9l0.1,2.9
		c-0.6-0.1-14.1-1.2-16-0.6c0.9,0.4,0.8,4.7-3,3.7c-3.2-1.2-1.7-5.7,2.5-6.7C137.4,108.6,137.9,108.6,138.3,108.6z M89.7,110.3
		c0.2,0,0.4,0.9,0.4,2s-0.2,2-0.4,2s-0.4-0.9-0.4-2S89.5,110.3,89.7,110.3z M117.7,110.5l8.3,4.1c1.2,15.7,6.5,32.3,24.9,44.9
		c-3,2.1-10.4,7.4-18.9,11l-0.7-0.8c10.1-17.3,2.5-36.4-15.2-45.1C116,120,116.6,115.2,117.7,110.5z M135.4,112.5
		c-0.4,0-0.7,0.3-0.7,0.7c0,0.4,0.3,0.7,0.7,0.7c0.4,0,0.7-0.3,0.7-0.7C136.1,112.8,135.8,112.5,135.4,112.5z M142.9,112.8
		c1.3,0,2.7,0.3,3.9,0.3h0c1.6-0.1,2,0.1,2.1,0.9c0.1,0.7,0.6,0.8,1.2,0.6c1.5-0.5,2.4,2.1,1.1,3.2c-0.8,0.7-0.6,1,0,1
		c1.5,0,1.5,2-0.1,3.2c-0.6,0.5-0.6,0.7,0,1c1.1,0.6,0.9,1.7-0.5,2.6c-0.8,0.5-0.8,0.6-0.2,0.8c1.6,0.4,0,2.8-1.8,2.4
		c-0.7-0.2-1.4,0-2.1,0.4c-1.9,0.8-2.2,1-4.3,0.7c-1.8-0.3-2.6-0.9-3.1-2.5c-1.1-3.2-2.2-6.8-2.2-10.4c-0.2-2.2,3.4-4.1,5.2-4.2
		C142.5,112.8,142.7,112.8,142.9,112.8z M33.3,113.2c1.9,0,3.5,1.6,3.5,3.5s-1.5,3.5-3.5,3.5c-1.9,0-3.5-1.6-3.5-3.5
		S31.4,113.2,33.3,113.2z M71.7,114.2l-0.3,3c0,0,0.5-0.4,0.6-0.5c0.9-0.8,2.3,0.1,2,1.3c-0.1,1-1.9,4.1-2.6,4.8
		c0,0-2.9-3.1-3.2-3.7c-0.7-1.4,0.2-2.8,1.5-2.2c0.2,0.1,0.7,0.5,0.7,0.5l-0.9-2.9L71.7,114.2z M33.6,114.3
		c-1.3-0.1-2.5,0.6-2.3,1.9c0.1,0.4,0.8-0.2,1.4-0.6c1.2-0.5,2-0.1,2.6,0.9c0.2,0.3,0.5,0.5,0.7,0.4
		C36.2,115.3,34.9,114.4,33.6,114.3z M126.6,115l1.2,0.6c1.7,22.2,12.8,35.3,24.5,43.1l-0.9,0.6C137,149.9,127,133.3,126.6,115z
		 M128.4,115.9c0,0,3.1,1.6,4.7,2.3l0.1,2l-1.1,0l-0.4-1.9l-2.3,0.2l0.7,4.7l3.6-0.4l0.5,2.8l-1.2,0.3l-0.6-1.7l-2.1,0.5l1.4,4.5
		l3.3-1.1l1,3l-1.1,0.4l-0.7-1.7l-2.2,0.8l1.7,4.4l3.4-1.1l1.4,2.8l-1,0.5l-1-1.7l-2,1.1l2.4,4.1l3.1-1.6l1.4,2.2l-1.1,0.8l-1-1.3
		l-1.7,1.1l2.7,3.7l2.7-2l2,2.3l-0.9,0.8l-1.4-1.4l-1.6,1.4l3.2,3.5l2.7-2.4l2,1.8l-0.6,0.6L147,149l-1.7,1.9l3.3,2.9l2.6-2.9
		l2.2,1.7v1.2l-2-1l-1.3,2l3.3,2.5l0,1C134.4,146.9,129.4,129.1,128.4,115.9L128.4,115.9z M89.5,116.1c0.8,0,1.7,0.8,3.1,2.4
		c4,4.7,2.9,11.9-2.3,15.7c-0.8,0.6-1.1,0.5-2-0.3c-5.4-4.7-5.7-10.9-0.9-16.4C88.2,116.6,88.8,116.1,89.5,116.1z M108.7,116.7
		c1,1.5,2.2,3.1,2.4,5c-0.1,1.8-1.3,2.2-2.6,1.1c-0.2,1,0.4,2.8,0.4,2.8l-2.3-0.2c0,0,0.9-1.6,0.9-2.6c-1.6,1.1-2.8-0.3-2.6-1.5
		C105.4,119.3,107,117.9,108.7,116.7z M89.5,117.9c-0.2,0-0.4,0.1-0.7,0.4c-1.4,1.1-2.5,2.5-3.1,4c-1.2,3.1-0.4,6.6,2.3,9.3
		c1.4,1.4,1.9,1.3,4-1.6c1.8-2.4,2.1-5.5,1-8.1c-0.5-1.3-1.5-2.6-2.7-3.5C90,118.1,89.8,117.9,89.5,117.9z M133.8,118.5l1.8,0.9
		c2.3,15.2,9.7,24.4,17.9,30.8l0,1.4l-2.2-1.7l-2.7,2.8l-2.2-1.8l0.8-0.8l1.2,0.8l1.6-1.8l-3.1-2.8l-2.7,2.4l-2.2-2.3l0.7-0.6
		l1.5,1.4l1.7-1.6l-3-3.4l-2.7,2.1l-1.9-2.5l0.8-0.5l1,1.4l2.1-1.3l-2.2-3.4l-3.1,1.6l-1.6-2.9l0.9-0.4l1,1.6l1.9-0.9l-2-4l-3.2,1.1
		l-1.2-3.2l0.9-0.3l0.8,1.9l2.2-0.7l-1.5-4.3l-3.3,0.9l-0.8-3.2l1-0.2l0.5,1.7l2.3-0.5l-0.8-4.1l-3.4,0.4c-0.1-0.7-0.6-2.6-0.6-3.3
		l1-0.1l0.3,1.8l2.3-0.1L133.8,118.5z M89.7,118.8c1.2,0.2,2.7,2.6,3.1,3.4c0.7,1.7,0.7,3.7,0.1,5.3c-0.5,1.3-1.9,3.5-2.9,4.2
		c-0.7,0.4-1.4,0.1-2.4-1.4c-2.1-2.9-2.5-6.4-0.8-8.7C88,119.8,88.9,118.8,89.7,118.8z M136.2,119.6l0.9,0.4
		c1.1,8.8,6.3,20.8,16.4,28v1.1C145.6,143.4,138.3,133.6,136.2,119.6z M89.5,120.2c-3.5,2.7-3,6.9-0.3,9.7
		C92.1,128,93.1,122.8,89.5,120.2z M35.6,120.4L35.6,120.4c2,0,3.3,0.7,3.9,2.1c0.9,2.2,1.1,2.6,1.3,3.7c0.1,0.6,0.3,1.6,0.4,2.2
		c1,5.9,0.3,8.1-3.3,9c-1.1,0.3-2.5,0.4-3.6,0.1c-0.3-0.1-1.3-0.1-2-0.1c-1.5-0.1-2-0.2-2.8-0.9c-0.3-0.2-0.5-0.4-0.9-0.5
		c-1.8-0.3-2.3-1.9-1-3.1c0.8-0.7,0.8-0.8,0.8-0.9c0-0.1-0.4-0.1-0.7-0.1c-1.8,0-1.8-1.9,0-3.2c0.9-0.6,1.2-1.2,0.7-1.1
		c-1.6,0.4-2.2-2-0.5-2.8c0.9-0.5,1.6-0.9,0.7-1c-0.7,0.1-1.3-0.5-1.1-1.1c0.3-0.8,1.8-1.5,2.6-1.2c0.7,0.2,1.3,0.4,1.7,0.1
		c1-0.7,1.5-1.1,2.3-1.2C34.6,120.4,35.1,120.4,35.6,120.4L35.6,120.4z M94.8,120.8l8.1,0.2v8.1l-7.8-0.1
		C95.1,128.9,96.7,125.3,94.8,120.8z M76.4,121l7.9,0.1c-1.3,3.1-0.8,6.2-0.3,8l-7.6-0.1V121z M89.5,122.1c1.3,0.8,1.7,4.4-0.2,5.9
		C87.6,126.1,87.9,123.1,89.5,122.1z M70.2,124.5l2.1,0.2l-0.8,3c0,0,0.3-0.4,0.5-0.4c2.7-1.3,2.9,1.6,0.1,4.2
		c-0.6,0.6-1.6,1.4-1.6,1.4s-0.8-1.2-1.4-2.2c-0.7-1.1-1.2-2.2-1-2.8c0.2-0.9,1.2-1.5,1.9-0.9c0.3,0.3,0.7,0.7,0.7,0.7L70.2,124.5z
		 M107.8,126.8c0,0,0.9,0.9,1.4,1.5c1.9,2.1,2.2,4,1.2,4.6c-0.8,0.4-1.3,0.1-2-0.4c0.1,1.3,1.1,3.1,1.1,3.2l-2.8,0.5
		c0,0,0.7-2.5,0.6-3.5c0,0-0.6,0.4-0.8,0.6c-1.8,0.7-2.7-1.4-1.2-3.5C106.6,127.8,107.8,126.8,107.8,126.8z M145.6,130.6
		c1.9,0,3.4,1.5,3.4,3.4s-1.5,3.4-3.4,3.4c-1.9,0-3.4-1.5-3.4-3.4S143.8,130.6,145.6,130.6z M147.3,132.2c-0.1,0-0.3,0.4-0.3,1.1
		c-0.2,1.5-1.4,2.1-2.8,1.4c-0.6-0.3-1-0.7-1-0.4c0,0.2,0.4,1.1,0.8,1.4c1.2,1.1,4,0.8,3.9-1.7C147.9,132.9,147.5,132.1,147.3,132.2
		z M86.1,133.4L86.1,133.4c0.4,0,0.8,0.1,1.1,0.4c0.9,0.6,1.1,1.4,1.2,4.5c0.1,2.7,0,2.8,0.4,3.1c1.1,0.8,1.7-0.4,1.4-3.2
		c-0.3-2.6,0.6-4.5,2.2-4.5c0.8,0,0.9,0.5,0.3,1.1c-0.6,0.6-0.8,1.4-0.6,2.9c0.5,3.9,0.1,5.8-1.6,6.6c-1.7,0.8-3.9-0.1-4.3-2.3
		c-0.2-1.4-0.2-3.1-0.1-4.8c0-1.7,0-1.9-0.6-2.9C85.4,133.8,85.7,133.5,86.1,133.4L86.1,133.4z M43.5,134.7c0.9,0,1.9,0.5,2.5,1.8
		c1.4,2.9-1.6,5.3-4.4,5.5c-4.8,0.1-10.6-0.6-15.5-1.3l0.1-2.8c4.5,0.3,9.5,0.6,14.9,0.9C40.5,136.2,41.9,134.7,43.5,134.7z
		 M69,135.3l2.7,0.6l-1.7,2.8c0.5-0.2,0.9-0.4,1.4-0.2c1.1,0.4,1.1,1.8,0.3,3.1c-0.6,1-2.4,2.1-3.7,2.8c-0.7-1.5-2.2-4.1-1.6-5.5
		c0.3-0.8,1.2-1.1,2-0.7c0.3,0.2,0.8,0.4,0.8,0.4L69,135.3z M75.3,135.3l8.2,0.1c-1.2,8.4-3.5,19.6-8.1,28.7l-1.9,0.5
		c4.1-9.1,6.8-17.6,8-27.1h-4.1c-2.4,10.2-5.9,19.7-11.2,27.9l-2.4-0.8C69.5,155.5,74.1,145.2,75.3,135.3z M94.1,135.5h9.2
		c1.7,17.1,7.4,28.7,15.9,40.2c0,0-0.5,0.1-0.9,0c-0.9-1.1-1.7-1.8-3-2.1c-7.1-10.4-11.9-24.9-13.1-36h-5.4
		c0.6,14,4.4,25.4,9.5,36.5l-2.8,0.5C99.4,164.6,94.9,156,94.1,135.5z M89.4,136.6c0.2,0,0.4,0.9,0.4,2s-0.2,2-0.4,2s-0.4-0.9-0.4-2
		S89.2,136.6,89.4,136.6z M43.6,136.8c-0.4,0-0.7,0.3-0.7,0.7c0,0.4,0.3,0.7,0.7,0.7c0.4,0,0.7-0.3,0.7-0.7
		C44.3,137.1,44,136.8,43.6,136.8z M108.3,137.6c0.8,0.6,1.6,1.2,2.3,1.7c2.1,1.5,2,4.2,0,4.2c-0.2,0-0.7,0-0.7,0s0.8,1.8,1.3,2.7
		c-0.8,0.2-2.6,0.6-2.6,0.6s0.2-1.8,0.2-3.2c0,0-0.3,0.4-0.6,0.5c-1.3,0.6-2.5-0.6-2.3-2C106.3,140.2,108.3,137.6,108.3,137.6z
		 M47.2,137.9l4.5,2.3c-3.1,7.1-6.7,13.7-11.8,18.7l0.2-16.3C42.9,142.5,45.7,142.5,47.2,137.9z M78,138.2h2.8
		c-1.2,13-9.8,30.6-11.4,32.8l-0.5,0.4c0,0-1.1-4-2.4-5.4C71.3,159.4,76.4,146.8,78,138.2L78,138.2z M97.5,138.2h4.2
		c1.3,10.4,4.5,21.6,12.5,35.2c0,0-0.8,0.1-1.4-0.3c-1.4-0.9-2.3,0.3-3.1,0.2c-1.3-0.1-1.5-0.1-2.8,0.2
		C100.2,159.3,98.3,148.2,97.5,138.2z M52.2,140.5L52.2,140.5l1.5,0.7c-3.2,7.5-6.2,13.5-13.8,20.8v-2.2
		C45.2,154.6,48.9,147.7,52.2,140.5L52.2,140.5z M54.4,141.6c0.9,0.4,1.7,0.8,2.5,1.4c-0.9,1.1-2,1.6-3.4,1.7
		c-0.7,0.2-0.4-0.5,0.3-1.9C54.1,142,54.4,141.6,54.4,141.6z M57.4,143.2l2.7,1.3c0,0-0.3,1.1-0.9,2.3c-0.9,1.9-1.1,2-1.3,0.4
		c0-0.3-0.3-1.2-0.5-1.8C57.1,144.1,57.4,143.2,57.4,143.2z M60.7,144.7c0,0,1.1,0.5,1.4,0.7c-4.7,14.2-17.2,25.9-17.1,25.6
		l-1.9-1.2C51.3,162.3,57.4,153.4,60.7,144.7z M55.7,144.9c0.5,0,0.1,0.6-0.6,1.9c-0.6,1.3-0.8,1.8-1.3,2c-0.8,0.3-1.9,0.3-2.9,0.5
		c-0.4,0.1-0.2-0.3,0.4-1.6c0.8-1.6,0.8-1.9,2-2.2C54.1,145.4,55,144.9,55.7,144.9z M56.6,145.5c0.4,0.2,0.6,2.1,0.7,2.3
		c0.5,1.8,0.5,2.1,0.1,2.7c-0.6,1.1-1.4,2.5-1.6,2.8c-0.5,0.9-0.7,0.7-1-1.5c-0.2-1.4-0.4-2-0.2-2.6c0.3-0.7,1.1-2.3,1.5-3.2
		C56.3,145.6,56.5,145.4,56.6,145.5z M66,146.2l2.5,0.8l-1.9,2.4c0,0,0.8-0.1,0.9-0.1c1.9,0.1,1.6,2.1,0.1,3.2c-0.6,0.6-3.7,2-3.7,2
		c-0.3-1.7-1-2.8-0.8-4.6c0.1-1,0.2-1.8,1.4-1.9c0.6,0,0.9,0.6,1.3,1.1L66,146.2z M110.6,148.3c0,0,1.5,0.8,2.9,1.8
		c1.8,1.4,2.1,3,0.3,3.7c-0.2,0.1-0.8,0-0.8,0c0.5,0.9,1.7,2.2,1.7,2.2c-0.6,0.4-1.4,0.7-2.3,1c0,0-0.2-2.2-0.4-3
		c0,0-0.2,0.5-0.5,0.7c-1.7,1.1-3.1-1-2.2-3.5C109.8,149.6,110.6,148.3,110.6,148.3z M91.6,148.7c4.3-0.1,1.8,7-0.4,6.6
		c0-0.1,1.8-4.2-0.7-4.9C89.5,150,90.5,148.6,91.6,148.7z M84.6,149.2c1.3,0,2.3,0.9,1,1.5c-2,0.9-0.8,3.2-0.8,4.5
		c0,0.8-1.8-0.7-2.2-2.3C82.2,150.9,82.4,149.3,84.6,149.2z M52.7,149.9c0.3,0,0.5,0,0.6,0.1c0.1,0.3-0.5,1.4-1.4,2.7
		c-0.5,0.7-0.7,0.9-1,1.1c-0.7,0.4-1.6,0.3-2.4,0.3c-1.2,0-1,0,0.3-2.1c0.6-0.9,1-1.7,1.3-1.9C50.3,150.1,51.8,149.9,52.7,149.9z
		 M54,150.7c0.2,0,0.3,0.3,0.3,0.7c0,2.6,0.9,3.4,0.2,4.2c-0.8,1.3-1.8,2.7-2.1,3.1c-0.6,0.7-0.5,0.6-0.7-1.3
		c-0.1-1.4-0.2-2.3-0.1-2.8c0.5-1.3,1.1-1.9,1.8-3.2C53.6,150.9,53.8,150.6,54,150.7z M88.3,152.7c1.3,0,2,1.4,2,2.6l-0.1,1.2
		c1.6-0.6,3.6,0,3.7,1.6c0.2,2.7-1.8,2.4-3.5,2.3c0.2,0.1,0.4,2.5-0.6,3.4c-1.6,1.8-4.5,0-3.8-2.6c0.2-0.5,0.2-0.9,0.2-0.9
		s-1,0.4-1.4,0.4c-3.2-0.1-2.9-4.7,0.3-4.1c0.7,0.1,1.1,0.3,1.1,0.3s-0.1-0.3-0.2-0.7C85.5,154.3,86.5,152.7,88.3,152.7z
		 M151.8,153.5l1.7,1v1.9l-2.4-1.8L151.8,153.5z M49.2,154.8c0.7,0,1.2,0,1.1,0.2c0,0.3-1.5,2.4-2.4,3.4c-0.7,0.8-0.8,0.7-2.7,0.6
		c-0.7,0-1.2,0-1.2-0.2c0.8-1.1,2-2.5,2.8-3.7C47.2,154.9,48.3,154.8,49.2,154.8z M50.7,155.8c0.4,0.1,0.3,2,0.4,3.2
		c0.1,1.1,0.1,1.1-0.4,1.8c-0.6,0.6-1.2,1.5-1.9,2.2c-1.1,1.2-1,1.3-1-1.3c0-2.1-0.1-2.1,0.3-2.6c0.2-0.3,0.9-1.1,1.4-1.8
		C50.3,156.3,50.6,155.8,50.7,155.8z M61.4,156.1l2.3,1.2l-2.3,2.3c0,0,0.6,0,0.8,0c1.5,0.3,1.4,1.9-0.1,3c-0.9,0.6-4,1.7-4,1.7
		c-0.1-1.3-0.4-2.5-0.3-3.9c0-0.7,0.1-1.4,0.6-1.9c0.3-0.4,0.9-0.6,1.7-0.1c0.4,0.4,0.6,0.8,0.6,0.8L61.4,156.1z M88.3,156.9
		c-0.9,0-1.6,0.7-1.6,1.6s0.7,1.6,1.6,1.6s1.6-0.7,1.6-1.6S89.2,156.9,88.3,156.9z M113.7,157.2c0,0,3,1.1,4.3,2.4
		c1.3,1.1,0.7,2.8-0.6,2.8c-0.1,0-0.6-0.1-0.6-0.1c0.4,0.6,1.8,2.2,1.8,2.2l-2.3,0.9c0,0-0.4-1.8-0.7-2.8c-0.8,1.9-2.8,0.7-2.9-0.5
		C112.5,160.5,113.2,158.9,113.7,157.2z M88.3,157.4c0.6,0,1.1,0.5,1.1,1.1s-0.5,1.1-1.1,1.1s-1.1-0.5-1.1-1.1
		S87.6,157.4,88.3,157.4z M88.3,158c-0.3,0-0.6,0.2-0.6,0.6c0,0.3,0.3,0.6,0.6,0.6c0.3,0,0.6-0.2,0.6-0.6
		C88.8,158.2,88.6,158,88.3,158z M44.8,159.7c0.6,0,1.1,0,1.7,0.1v0c0.3,0.3-0.4,1.1-1.8,2.5c-1.1,1.2-1.3,1-2.6,1
		c-2.2,0-2.3,0-1.3-1.2c1.1-1.3,1.8-2.1,2.3-2.4C43.7,159.7,44.3,159.7,44.8,159.7z M47,160.9c0.3,0,0.1,1.4,0.1,1.9l-0.1,2.4
		l-1.8,1.7c-2,1.8-1.8,1.9-1.8,0.2c0-1.4,0-2.3,0.3-2.9c0.9-1.1,1.8-2,2.8-3.1C46.8,160.9,46.9,160.9,47,160.9z M91.5,161.4
		c0.5,0,1.7,2.1,2,3.9c0.7,4.1,3.1,6.1,4.9,4.4c0.7-1,0.8,0.1,0.7,0.6c-0.4,5.2-6.2,3-6.9-2.1c-2.1,1.3-4-1.4-2.7-1.3
		C92.4,166,91.6,163.3,91.5,161.4z M84.7,161.5c0.3,1.8-2.9,4.9-4.7,2.7c-0.9-1.1-0.1-3.4,1.1-2C82.4,163.2,83.6,162.1,84.7,161.5z
		 M41,163.9c0.6,0,1.2,0.1,1.6,0.1c0.6,0.1,0.2,0.3-1.1,1.5c-1.1,1-1.5,1.5-1.6,1c-0.1-0.7,0-1.5,0-2.5
		C39.9,163.9,40.4,163.8,41,163.9z M55.5,165.1l2,1.4l-1.9,1.8c1.7-0.1,1.9,1.6,1.2,2.5c-0.4,0.6-2.1,1.3-3.7,1.6
		c-1,0.2-1.8,0.3-1.8,0.3s0-0.8-0.1-2.1c-0.1-2.6,0.1-3.7,1.1-4.2c0.7-0.4,1.9,0.2,2.2,0.9c0.1,0.2,0.4,0.6,0.4,0.6L55.5,165.1z
		 M42.9,165.3L42.9,165.3c0.1,0.2-0.3,4.4-0.3,4.4l-2.8-1.6C39.9,168.1,42.7,165.3,42.9,165.3L42.9,165.3z M118.1,165.8
		c2,1,3.4,0.9,4.9,2c1.1,0.8,0.8,2.4,0,2.7c-0.4,0.1-1,0.1-1,0.1c0.7,0.9,2.3,2,2.3,2l-2.5,1.1c0,0-0.3-1.7-0.7-2.6
		c-0.5,1.4-2,1.3-2.9,0.7c-0.6-0.5-0.9-2.1-0.6-3.5C117.7,167.8,118.1,165.8,118.1,165.8z M104.8,205.6c-24.6,5.9-44.5,2.2-46.5,1.5
		l-1.6,2.4c-0.2,0.4-0.3,1.6-1.4,1.9l-1.6,2.4l0.3,0.3l-1.4,1.2l0.3,0.4l-1,1.5l-0.4,0l-2.4,3.6l0.4,0.4l-5.5,8.6l73.8,0
		C113.7,221.9,109.1,213.8,104.8,205.6z M104.4,206.7l0.6,1.3c-4.2-1.1-7.6,0.6-9.7,3.6c-4.5-3.4-10.2-2.4-14,1.5
		c-3.5-3.6-9.6-4.1-14.1-0.5c-1.9-4.1-8.8-4.2-8.9-3.8c0,0,0.3-0.4,0.3-0.6C67.2,210.2,86.7,211,104.4,206.7z M102.3,208.4
		c1,0,2,0.2,3.2,0.6l0.8,1.3c-1.6-0.9-8.4-2.8-10.4,4c-2-2.8-10.5-6.8-14.7,1.8c-1.2-2.3-8.3-9-14.7-0.5c-2.5-5.3-4.7-5.7-9.3-5
		c3.3-3.2,8,0.1,10,2.9c5.6-4.7,10.2-3.3,14.3,0.5c5.2-5.8,10.5-4.4,14.2-1.5C97.5,209.7,99.4,208.3,102.3,208.4z M105.2,211.4
		c0.1,0,0.3,0,0.4,0c0.7,0.1,1.4,0.3,2,0.9c0,0-0.7,0.1-0.9,0.2c-2.9,0.8-2.3,4.9,0.7,4.9c0.3,0,1-0.1,1-0.1
		c-0.1,2.8,0.8,3.5,3.6,3.3l4.8,8.7L45.7,229l4.5-7.3c2.3,0.3,3.7-1,3.2-3c0,0,1.4,0.4,1.8,0.4c2.6,0,3.2-4,0.8-4.7
		c-0.3-0.1-1-0.2-1.1-0.2c1.1-2.9,4.2-1.2,5.1,0c2-1.7,4.2-0.9,5.2,1.2c0,0-0.4-0.2-0.5-0.3c-2.3-1.7-4.5,1.9-2.2,3.5
		c0.2,0.2,0.7,0.3,0.7,0.3s-0.3,0.2-0.5,0.7c-1.2,2,0.7,4.5,3,3.9c1.8-0.7,1.8-2.1,1.8-3.5c0,0,0.6,0,1.2,0.1c2.1,0,2.7-2.7,1.4-4
		c-0.7-0.7-1.6-0.6-2.1-0.7c2.5-2.4,4.1-0.8,5.9,0.4c0.3,0,3-3.3,6.3-0.1c-1.6-0.4-3.2,0.6-3.2,2.3c0,1.1,0.8,2,2.4,2.1
		c-0.2,0.5-0.3,0.9-0.3,1.5c0,1.8,1.3,2.8,3,2.6c1.4-0.2,2.5-1.8,2-3.2c-0.2-0.6-0.5-0.8-0.5-0.8c3.9,0.5,3.8-4.4,0.8-4.7
		c-0.7-0.1-1.3,0.2-2,0.9c1.8-3.6,5-2.9,6.2-1.4c1.7-1.2,3.9-2.9,6.7,0.1c-0.5-0.1-1.1-0.1-1.6,0c-2.2,0.6-2.2,3.4-0.5,4.2
		c0.5,0.2,1.1,0.4,1.7,0.4c-0.6,2.3,2,4,3.8,2.9c1.3-0.8,1.6-2.7,0.2-4.4c2.4-0.1,2.6-3.1,1.2-4.1c-1.1-0.8-2.3-0.4-3.3,0.7
		c-0.3-0.9,2-3.8,5.4-1.7C103.2,211.9,104.2,211.4,105.2,211.4L105.2,211.4z M108.7,214.6l0.9,1.7
		C109.1,216.4,108.2,215.7,108.7,214.6z M96.8,216.3c0.6,0,1,0.5,1,1.1c0,0.6-0.5,1.1-1,1.1s-1-0.5-1-1.1
		C95.7,216.8,96.2,216.3,96.8,216.3z M53.5,216.4c0.1,0.6,0.2,1.1-0.8,1.2L53.5,216.4z M65.5,217.4c0.5,0,1,0.4,1,1s-0.4,1-1,1
		c-0.5,0-1-0.4-1-1S65,217.4,65.5,217.4z M81.5,217.7c0.6,0,1,0.5,1,1s-0.5,1-1,1s-1-0.5-1-1S81,217.7,81.5,217.7z"/>
	<path d="M48.4,26.8C41,37.3,33.1,43.4,33,51.6c0,2.7,1.4,7.2,5.9,8c2.9,0.6,6.9-1.8,7-6.6c0-1,1-0.9,1,0.4
		c-0.1,3.8-1.3,8.2-3.4,11.8c3.2,0,6.4,0,9.7,0c-2-3.6-3.2-8-3.4-11.8c0-1.3,1-1.3,1-0.4c0.1,4.8,4.1,7.2,7,6.6
		c4.5-0.9,5.9-5.4,5.9-8C63.7,43.4,55.8,37.3,48.4,26.8z"/>
	<path d="M131.2,223.9c-7.4-10.5-15.3-16.6-15.4-24.8c0-2.7,1.4-7.2,5.9-8c2.9-0.6,6.9,1.8,7,6.6c0,1,1,0.9,1-0.4
		c-0.1-3.8-1.3-8.2-3.4-11.8c3.2,0,6.4,0,9.7,0c-2,3.6-3.2,8-3.4,11.8c0,1.3,1,1.3,1,0.4c0.1-4.8,4.1-7.2,7-6.6
		c4.5,0.9,5.9,5.4,5.9,8C146.5,207.4,138.6,213.4,131.2,223.9z"/>
</g>
</svg>
