<?xml version="1.0" encoding="utf-8"?>
<!-- Generator: Adobe Illustrator 21.0.0, SVG Export Plug-In . SVG Version: 6.00 Build 0)  -->
<svg version="1.1" id="Layer_1" xmlns="http://www.w3.org/2000/svg" xmlns:xlink="http://www.w3.org/1999/xlink" x="0px" y="0px"
	 viewBox="0 0 178.6 249.4" style="enable-background:new 0 0 178.6 249.4;" xml:space="preserve">
<style type="text/css">
	.st0{fill:#FFFFFF;}
	.st1{fill:#E2CF00;}
	.st2{fill:#D40000;}
	.st3{fill:#131F67;}
</style>
<g>
	<path class="st0" d="M9,0.8h161.5c4.7,0,8.5,3.8,8.5,8.5v232.4c0,4.7-3.8,8.5-8.5,8.5H9c-4.7,0-8.5-3.8-8.5-8.5V9.4
		C0.5,4.7,4.3,0.8,9,0.8z"/>
	<path class="st1" d="M112.8,21.9c0,0,20.3,29.4,27.2,34.6c0.5,0.2,9-1.4,9-1.4c-4.3-10.4-7.1-21.2-4.3-33.3L112.8,21.9z
		 M124.1,68.4c-14,4-27.9,7.7-43.1,1.2l-16.6,16c-0.1,0.4,20,9.1,20.3,8.1c-9.9,26.6,5.5,31.5,15.3,2.2c12.8-1.7,28.2-3.4,40.9-12.3
		C130,77,124.1,68.3,124.1,68.4z M40,73.1c-5.3-3.3-9.4,3.4-5.6,6.8c-0.5,2-0.6,4.9,1.3,6.2c1.7,1.1,5,0,5.4,0c0,0,0.1,3.5-0.2,3.5
		c-0.5,0-2.4-1.6-3.6-2c-3.9-1.2-9.6-2-9.5-1.8c0.2,0.3-0.9,1.3,3.5,4.1c1.6,1,6.8-0.1,10.9,1.2c2.5,0.8,4.8,2.1,6.1,1.4
		c3.6-1,5-5.7,4.8-5.7c-0.1-0.1-10.9,2.8-9.9,3.3l0-4.1c4.2,0.5,8.1-2.6,3.9-7.9C50.3,75,46,67.7,40,73.1L40,73.1z M57.6,91.8
		c-10.4,10.5-31.7,30.3-31.7,30.3l0.2,14.8L47,155.5c1.6-19.8,12.9-38.3,23.6-47.6C71.5,105.1,59.9,92.8,57.6,91.8z M131.9,95.4
		c-1.6,12.2-3,28.8-23.6,47.3c3.6,6.1,8.1,12.3,14.7,15.3c0.5,1,18.9-19.2,30.3-28.7l-0.1-12.9L131.9,95.4z M38.9,98
		c0,0.3-0.8,3.5-1,3.4c0,0.2,2.1-0.8,2.3-1.7c0.2-0.8,0.7-1.8,0.7-2C40.5,94.5,39.6,96.9,38.9,98z M31.2,106.6
		c-0.7,1.8-1.5,5.1-1.2,7.3c3.7,1.9,4.7-5.9,3.7-6.6C33.1,107,31.7,106.6,31.2,106.6z M145.3,141.9c-0.3,1.5-0.3,2,0.4,2.3
		c1.2,0.5,1.7-0.1,2.7-2.6c0.6-1.5,1.1-3.7,0.6-4.6C146.7,135.4,145.5,140.8,145.3,141.9z M80.7,154.9c-15.2,2.4-30.3,3.9-42.4,13.3
		c1.4-0.2,15.9,13.6,16.7,15.5c22.3-10.9,44-2.7,44-2.7l16.3-15.8c0.6-0.3-17.7-7.9-21.2-9.2C106.6,122.3,86.8,127.4,80.7,154.9z
		 M140.4,151c-1,0.8-1.5,1.5-2.3,2.6l0.8,1.3l2-2.2L140.4,151z M126.1,165.2c2.1-1,9.6-4.6,9.9-3.7l-0.2,3.6
		c-1.1-0.4-8.5,0.8-4.2,8.5c-2.7,6.1,3.3,9.2,7.5,5.2c8.8,3,7.6-5.8,5.8-7.2c1.4-2.2-0.4-7-1.3-7c0,0,7.7,1.7,6.9,0.4
		c-0.3-0.6-0.8-1.7-2.5-2.8c-2-1.3-5.4-0.8-8.2-1.4c-3-0.6-4.9-1.7-7.4-1.8C128.6,159.2,125.1,162.5,126.1,165.2z M40.7,193.8
		l-10.6,2.8c4.4,10.9,6.1,20.9,4.9,33.1l30.6,0.2L40.7,193.8z"/>
	<path class="st2" d="M68.2,229.7c-13.4-19.2-25.9-37.5-42.4-57.7c0,0,0-7.8,0.1-15.5l50.8,73L68.2,229.7z M95.4,198.7
		c-0.4-3.7-1.2-8-2.2-11.8l9.3-8.8C101.5,186,99.9,192,95.4,198.7z M139.7,171.1c2.1,2.8-1.4,4.3-2.7,3.1
		C134.3,171.7,138.2,169.1,139.7,171.1z M47.8,153.7c-1.5,1,2.8-24.1,14.6-37.1C69.6,137.3,56.9,148.8,47.8,153.7z M106.1,153.6
		l-7.8-2.1l3.7-11c0,0,7.6,1.7,6.9,4C106.8,151.9,106.1,153.6,106.1,153.6z M69.8,149.4c2.1-3.5,3.7-7.4,5.2-11.3l7.9-0.2l-3.9,10.9
		L69.8,149.4z M117.1,133.9c-6.1-12.1,1.1-31.3,14.3-36.6C130.9,109.6,127.1,122.1,117.1,133.9z M76.3,130.5
		c0.3-4.3-0.2-8.8-0.8-12.8c8.4,1.9,17.5,3.2,27.6,3.7l1,11.6C95,131.3,85.9,130.1,76.3,130.5z M96.3,112.8c0.9-3.6,2-7.1,3.6-10.5
		l9.6-0.4c0-0.2-4.1,6.4-5,11.1C102.9,112.8,96.3,112.8,96.3,112.8L96.3,112.8z M78.2,109.9c-2.8-1-6.6-1.3-8.1-3.4l2.9-9.2l8.6,2.6
		L78.2,109.9z M102.3,21.9l6.7-0.1c0,0,32.4,41.6,44.5,57.7c-0.4,1.6,0.1,15.6,0.1,15.6C136.5,70.9,102.3,21.9,102.3,21.9z
		 M39.8,80.5c-2.9-2.9,1.6-5.2,3.2-3C44.3,79.3,41.5,82.3,39.8,80.5z M76.5,73.1c0.1-9.6,6.9-21.1,6.8-20.8c-0.1,0,1,9.4,2.3,12.4
		C85.3,65.2,76.9,73.7,76.5,73.1z"/>
	<path class="st3" d="M24.4,20.3v210.5h130.6V20.3H24.4z M26.1,21.9h57.5c0,0,0.1,0.8-0.1,4.4c-0.2,7.3-0.6,14.9-0.1,22.3
		c0.1,2.6,0,5.1,0.4,7.6c0.4,2.5,0.5,5.1,1.7,7.4c0.5,1.2,0.5,1.2-1.3,2.8c-0.9,0.8-1.6,1.7-1.6,1.8c0,0,0,0.2,0.1,0.1l0.8-0.8
		c0.5-0.6,1.3,0.2,4,0.9c0.5,0.2,1.3,0.7,1.9,1.1c4.1,3.4,9.8,2.4,14.1,0.5c1.2-0.5,1.5-0.6,3.5-0.8c7.2-0.9,15-4,15-4l0.9,1.6
		c0,0,0.4-0.1,0.6,0.3c4.2,7.9,17.8,16.9,17.5,16.5l-8.9,4.9c0.7,0.8,1.5,1.8,2.3,2.7l0.1,0l0.1,0.2c7.2,8,18.9,18.7,18.9,18.7v19.6
		c-4,3.2-7.9,6.8-11.4,10.4c-1,1-1.7,1.6-1.3,1.6c0.9-0.1,1.7,0.8,2.4,1.4c0.5,0.5,0.4,0.5-0.2,1.2c-0.4,0.5-0.5,0.6-0.5,1
		c0,0.7,0,1.2-0.6,1.7c-0.4,0.5-0.6,0.8-0.7,1.4c-0.1,0.6-0.1,0.9-0.5,1.5c-0.7,0.1-0.7,1.1-0.6,1.6c0.7,0.7,0.4,1.5,0.4,1.3
		c-1.3,1.5-2.7,2.7-1.8,0.7c0.4-0.8,0.5-1.4,0.5-1.4s-0.6,0.7-1,1c-0.5,0.5-0.7,0.2-0.7-1.3c-0.1-1.1-0.5-2.7-0.7-3
		c-0.1-0.2-0.1,0.1-0.1,1.2c0.1,1.4,0.2,1.8-0.3,3.3c-0.7,1.9-1.2,2.2-0.1,2.1c1-0.1,1.9-0.1,2.4,0.5c0.2,0.2,0.4,0.6,0.8,0.8
		c0.9,0.5,1.5,1,2,1.5c1.5,1.7,1.1,3.2-1.9,2.2c-1.6-0.5-0.5-1.2,1.1-1.1c1,0.1,1.2-0.3,0.3-0.6c-1.7-0.3-1.9-0.5-3,0.8
		c-4.6-0.5-7.2-3-8.5-5.2c-0.5-0.9-0.7-1.1-0.3-1.6c-1.9,0.6-4.2,3.9-5.9,5.4c-4.8-2.7-10.7-7.6-14-13.2c-1.7,3.2-3.6,8.9-3.6,8.9
		l-7.5-2.1l-0.1,0.2l7.4,2.1l-0.7,2.5c-0.1,0.3-1.2,3.1-1.2,3.1l11.6,5.4c-1,1.8-2.8,2.4-3.1,4.3l16-15.3c0,0,2.1,3.1,2.8,3.8
		c0.7,0.7,0.9,0.8,0.1,1c-3.8,0.6-6.7,3.4-5.7,7.3c0.2,0.4,0.5,0.3,1.2-0.2c2.5-2.3,8.6-4.4,8.8-3.8l0,2.4c-6.6,0.1-5.9,5-5.4,7.6
		l-1.9,1.7c0.7,0.4,1.3,0.7,2,1.2c-0.6,3.2,2.2,7.9,7.6,5.5c0.5,0.5,0.9,1,1.4,1.6c0.6-0.6,1.2-2.2,1.2-2.2c2.7,1.2,8.3-1.5,5.4-7.8
		l1.6-1.5l-1.5-1c0-1.6-0.3-3-1.2-4.4c0,0,2.5,0.6,4.4,0.8c1.2,0.1,2.1,0.1,2-0.6c0-0.2-0.2-1.2-0.3-1.5c-0.6-1.6-3.5-2.8-6.3-3
		c-0.5,0-1,0-1.1-0.1c-0.2-0.2,0.1-0.5,0.4-0.5c1.5,0.3,3-0.9,3.3-2.3c0.1-0.3,0.4-0.7,0.8-1.2c0.8-0.9,0.9-0.9,0.9-2.1
		c0-0.9,0.1-1.1,0.6-1.7c0.5-0.8,0.8-1.9,0.5-3.1c-0.1-0.4-0.4-0.9-0.1-1.8c0.5-1.5-0.6-2.8-1.9-3.6c-0.8,0.6-2,0.1-2.9-0.3
		c-0.3-0.2,1.1-8.1,3.9-7.4c0.5,0.3,0.7,1.7,0.6,1.7c0.1,0,0.2-0.8,0-1.4c-0.2-0.6-0.6-1.1-1.5-0.9c-0.7,0.1-1.4,1-1.8,1.4
		c-1.3,1.7-1.3,2.8-1.8,4.6c-0.2,0.8-0.2,0.8-1.4-0.1c-0.8-0.7-1.2-0.9-1-1.3c0.1-0.2,0.7-0.7,0.7-0.7l10.7-9.9v99.2H95.1l0.4-13
		c1.1-8.9-0.8-27.7-2.3-29.5c1.1-1.3,4.6-4.3,4.4-4.4l-0.5-0.3l-1.8,1.7l-4.5-1.4c-1.9-1.3-3.9-2.6-5.9-3.1
		c-3.3-0.9-9.7,1.9-9.8,1.9c-10.2,0.8-18.5,4.9-18.3,4.9c-0.4-0.4-1-1.7-1.1-1.7c-5.3-7.4-10.5-11.5-17.6-16.5l9-5l-21.3-22.3
		l-0.2-18.1L56.6,93c0.2-0.5,9.8,6.8,13.4,12.8c0.7-2.9,2-5.6,3-8.5c0.1-0.3,6.1,2.2,7.9,2.3c0.3,0,0.5-0.3,0.5-0.3l-8-2.6l1.6-4.7
		c0,0,0.6-1.3-0.1-1.5c-3.6-1.2-7-3.2-10.5-5l1.6-1.9c0-0.1,0.7-1,0.5-1.4C65,84.1,50.6,97.5,50.6,97.5c-0.4-2.3-1.1-3.1-2.5-4.5
		c0.8,0,2-0.8,2.6-1.3c2.1-1.5,3.3-4.3,3-5.9c-2,0.6-3.9,1.4-6.4,1.9c-1.4,0.3-2.8,0.9-3.6,1.6l-0.1-2.6c0,0,3.4,0.6,5-1.7
		c1.4-2,0.8-4.2,0.5-5.4c0-0.3,0-0.2,0.5-0.8c0.4-0.4,1.1-0.9,1.1-0.9c0-0.1-1.8-0.8-2.1-1.4c0.5-4.7-3.3-6.6-6.5-5.7
		c-0.6,0.2-0.9,0.3-1.6-0.5c-0.1-0.1-1-1-1-1s-0.4,0.9-0.6,1.3c-0.6,1.2-0.8,0.9-2.2,0.9c-3.4,0.2-5,2.9-4.2,6.4
		c0.2,0.8,0.1,0.7-0.4,1.7c-0.3,0.5-0.7,1.2-0.7,1.2s0.6,0.3,1.1,0.5c0.6,0.3,0.7,0.6,0.7,1.2c0.1,1.4,0.4,2.3,1.2,3.5
		c-2.7,0.1-4.7-0.2-7.2-1c0.4,3.8,3.1,5.1,6.5,5.7c0,0-0.4,0.3-0.7,0.5c-0.8,0.2-1.3,0.9-1.3,1.5c-0.1,0.6-0.5,1.2-0.9,1.5
		c-0.5,0.5-1,1.1-0.8,2.3c-0.1,0.9-0.3,1.2-0.5,1.5c-0.5,0.7-0.7,1.4-0.6,2.3c0.1,0.4,0.2,1.3,0.1,2.3c-0.1,1.6,0.4,2.1,1.1,3.2
		c0.5,0.7,0.4,0.7,0.3,1.2c-0.3,1.2-0.5,1.9-0.8,2.8c-0.6,2.1-0.6,3.7-0.1,4.1c0.8,0.6,1.6,0.4,2,0.3c3-0.9,2.5-3.9,2.6-5.8
		c0.1-0.5,0.3-0.8,0.4-0.7c0.8,1,1.7,1.6,2.9,2.2c-4,4.1-6.5,6.5-11.6,11L26.1,21.9z M84.4,21.9h2.4c-0.5,0.9-2.4,3.9-2.6,3.1
		L84.4,21.9z M87.7,21.9h1.4c-1.4,3.2-3.3,5.2-5.1,7.2l0.1-2.1C84.2,27.1,86.8,24.1,87.7,21.9z M90.2,21.9h1.4c0,0,0,0.7-0.1,1.1
		c-1,3.4-7.5,9.8-7.4,8.9L84,30.2C84,30.3,88.9,25.4,90.2,21.9z M92.5,21.9H94c4.9,8.6,13.8,11.6,16,12.2l1.3,1.9
		c-10.4-2-16-8.8-18.6-12.9C92.5,22.8,92.5,21.9,92.5,21.9z M95.1,21.9h1.6c3.3,5.5,9.2,8.5,11.3,9.2c0.5,0.6,1.1,1.7,1.4,2
		C103.8,31.5,97.6,26.7,95.1,21.9z M97.5,21.9H99c1.8,2.5,4.5,4.4,6.1,5.6c0.8,0.7,1.9,2,1.8,2.3C103.4,28.7,99.4,24.7,97.5,21.9z
		 M99.7,21.9h1.9c0.8,1.2,1.6,2.2,2.4,3.4c0.2,0.2,0.3,0.5,0.2,0.6c-0.1,0.3-0.5,0.1-1.6-0.9C100.9,23.4,99.7,21.9,99.7,21.9z
		 M102.3,21.9h41.8c-1.1,11.7-1.2,20.7,4.8,32.8c-1.1,1.1-9.3,1.5-11.9,2.8c0,0.3,0.7,0.9,0.7,0.9c2.7-1.3,13.3-2.4,13.3-2.4
		c-4.4-7.7-8.1-22.7-5.3-34.1h7.9v56.3c0,0,0.1,10.7,0.3,16.8c-4.1-5.3-9.3-12.5-12.8-17.9c-4.3-6-9-13.1-13.9-19.7
		c-1.4-2.1-3.5-4.8-5.2-7.2c-2.6-3.8-4.8-6.7-7.5-10.7c-2.9-4.2-5.7-8-9.1-12.9C102.4,22.4,102.3,21.9,102.3,21.9z M92.2,23.5l1,1.5
		c-2.3,3.9-5.3,7.3-9.1,10.1l0-2C88.4,29.9,90.3,26.7,92.2,23.5L92.2,23.5z M93.7,25.8L93.7,25.8c2.8,3.8,8.8,9.6,18.4,11.3
		c0,0,0.5,0.5,1.3,1.6c1,1.4,1,1.4,1.2,3.7c0.1,4.1,1.4,9.7,2.8,13.3c-0.2,0.9-0.3,1.3-2,3.6c-6.9,9.3-21.5,18.1-28.7,6.1
		C84.3,61.4,84,54,83.9,49.4l0.1-0.4c0.2-0.8,0.4-0.7,1.7-0.3c1.3,0.6,2.7,0.1,4.1-0.3c1.6-0.6,1.7-0.1,0.2,1.3
		c-0.5,0.5-1.2,1.3-1.1,1.2c0.1,0,1-0.4,1.4-0.7c1.2-0.9,1.5-0.6,1.1,0.5c-1.9,4.4-2.3,4.5,0.4,5.8c0.6,0.3,0.9,0.5,1.3,0.8
		c1.9,1.7,1.2,0.8,0.7,0c-0.8-1.3-0.1-1.9,1.3-1.1c0.9,0.5,2.1,0.9,2.7,0.7c1.2-0.4,1.6-1.8,1.3-3.3c-0.3-0.8-2-2.3-1.6-0.8
		c1,0,1.9,1.4,1,2.4c-0.7,0.9-1.9,0.4-3.7-0.8c-1-0.8-2.2-0.4-2.2,0.6c0,0.6-0.9,0.5-1.4-0.3c-0.3-0.4-0.1-1.7,0.5-3
		c3.8-7.7,0.6-15.1-6-13c-0.7,0.2-1.4,0.4-1.4,0.4l0-2.9C87.8,33.5,91.8,29.3,93.7,25.8L93.7,25.8z M102.8,37.7
		c-2-0.1-3.8,0.4-5.2,1.9c-1,1.2-0.6,2.3,1.5,1.2c1.8-0.9,2-1,4-1.1c2.8-0.1,5.2,0.8,8.3,2.7c2,1.2,2.3,1.3,1.8,0.6
		C112,40.8,107.1,37.8,102.8,37.7z M86.7,39.8c0.5,0,1.1,0,1.6,0.1c1.9,0.5,3.7,1.7,3.4,2.3c-0.1,0.2-0.2,0.2-0.5,0.1
		c-1.4-0.7-3.6-1.8-6.8-0.4c-0.4,0.2-0.6-0.1-0.6-0.5C83.8,40.5,85.2,39.8,86.7,39.8z M104,40.9c-1.4,0-2.9,0.5-4.6,1.5
		c-1.1,0.6-1.5,0.9-2,0.6c-1.2-0.6-0.9-0.1-0.2,1.1c0.5,0.9,0.5,1.1,0.4,1.6c-0.1,0.6-0.1,0.6,0.5,1.3c1.1,1.4,2.2,2.8,3.8,3.9
		c0.5,0.3,1.2,0.7,1.2,0.7c0.2,0,0.1-0.1-0.2-0.4c-2.1-2-3.7-3.8-1.6-3c2.5,0.8,4.8-0.2,6.7-0.9c0.8-0.2,1.6-0.4,1.8-0.4
		c1.8,0,2.2-0.7,1.1-1.9C108.5,42.3,106.4,40.9,104,40.9z M104,41.4c1.5,0,3.1,0.6,4.5,1.8c0.8,0.7,1.2,1.1,1.1,1.3
		c-0.1,0.2-0.7-0.1-1.7-0.7c-2.1-1.1-4.4-1.4-7.3-0.5c-2.3,0.7-1.6-0.4,0.9-1.4C102.2,41.6,103.1,41.4,104,41.4z M87.3,41.7
		c1.7,0,3.5,0.5,4.7,1.6c0.8,0.7,0.2,0.9-1.1,0.3c-2.1-0.9-3.8-1-5.5-0.2c-0.5,0.2-1.1,0.5-1.3,0.5c-0.3-0.2-0.4-0.8-0.2-1.1
		C84.6,42.1,85.9,41.7,87.3,41.7z M115.9,42.3c0.1,0,0.3,0.2,0.6,0.6c0.5,0.7,0.5,1.1,0.1,2.4c-0.5,1.6-0.7,1.3-0.9-0.9
		C115.6,43,115.6,42.3,115.9,42.3z M117.6,44.6c0.2,0,0.4,0.3,0.8,1c0.3,0.5,0.2,0.7-0.6,3c-0.3,1-0.7,1.8-0.7,1.8
		c-0.2,0.2-0.2,0.2-0.3,0c-0.6-0.7-0.5-2.2,0-3.9C117.1,45.3,117.3,44.7,117.6,44.6z M101.9,44.8l0.4,0.1c0,3.5,2.7,2.8,3,0.3
		c0,0,0.7-0.1,0.8,0.1c0.3,0.5-0.4,2-1.5,2.5c-0.8,0.4-1.9,0.3-2.6-0.3c-0.2-0.3-0.7-1.6-0.6-2.2C101.6,45,101.8,44.8,101.9,44.8z
		 M89.6,45.2c0.2,0,0.3,0.1,0.3,0.4c0.1,1.2-1,2.4-2.5,2.5c-1.4,0.2-2.2-1-2.2-2.1c0-0.8,0.7-0.9,0.8-0.3c0.2,1.9,1.9,2,2.6,1
		c0.3-0.4,0.2-1.4,0.7-1.5C89.5,45.2,89.6,45.2,89.6,45.2z M100.3,45.2L100.3,45.2c0.3,0,0.5,0.1,0.6,0.4l0.6,1.8
		c-0.4,0.5-2-0.5-2-1.3C99.5,45.6,99.9,45.2,100.3,45.2z M107.1,45.6c0.1,0,0.3,0,0.5,0.1c1.5,0.5,1.5,0.7,0.3,1.2
		c-1.5,0.5-1.6,0.6-1.3-0.4C106.8,45.8,106.9,45.6,107.1,45.6z M91.3,45.8c1.1,0.1,1.2,1,0.2,1.3c-1.4,0.6-1.9,0.6-1.4-0.3
		C90.5,46.1,90.7,45.8,91.3,45.8z M84.4,46.1c0.1,0,0.3,0,0.4,0.2c0.2,0.5,0.4,0.9,0.7,1.4c-0.2,0.2-0.8,0.2-1.1-0.1
		C83.7,47.1,83.8,46.1,84.4,46.1L84.4,46.1z M119.2,47.2c0.4,0,0.9,0.7,1,1.2c-1.5,1.9-1.3,5.5-1.6,6.6c-0.3,0.9-0.4,0.1-1.2-2.2
		C117,51.9,118.7,47.3,119.2,47.2L119.2,47.2z M120.7,49.2c0.3,0.2,0.8,0.6,0.9,1.3c0,0.4-0.2,0.9-0.3,1.5c-0.3,1.3-0.7,3.6-0.9,5.8
		c-0.1,0.9-0.1,1.8-0.1,1.8c-0.5,0.9-1.4-1.5-1.3-3.4C119.3,54.7,119.5,49.4,120.7,49.2z M122.1,51.3c0.2,0,0.4,0.1,0.7,0.6
		c0.2,0.3,0.3,0.5,0.4,0.8c0.1,0.4,0,1-0.2,2.1c-0.7,3-0.6,6.2-0.1,9.5c0.1,0.7-0.4,0.3-1.1-0.9c-0.4-0.7-0.7-1.6-0.8-2.6
		c-0.3-2.3,0.2-5.5,0.7-8C121.7,52,121.8,51.4,122.1,51.3z M123.9,53.7l1.2,1.5c0,0-0.5,3.3-0.5,5.1c-0.1,0.7,0.6,7.9,0.8,8.5
		c-0.7-0.8-1.1-1.3-1.9-2.4c-0.1,0-0.8-7.2-0.3-9.9C123.5,54.9,123.9,53.7,123.9,53.7z M125.8,56.6c0.2,0,0.5,0.2,0.8,0.7
		c0.3,0.4,0.4,0.7,0.5,1.3c0,0.4-0.2,0.7-0.2,1.3c0,4,0.5,7.7,1.2,11.3c0.2,1.3-0.2,0.8-1-0.1c-0.7-0.7-0.7-1-1.1-2.1
		c-0.1-0.2-0.8-7.5-0.8-8.1c0-2.3,0.1-3.5,0.4-4.1C125.6,56.7,125.7,56.6,125.8,56.6z M117.8,56.9c1.2,2.6,2.2,5.2,3.7,7.6
		c0,0-1.4,0.7-1.8,0.5c-0.6-1.6-2.7-6-2.8-6.7C117,58,117.8,56.9,117.8,56.9z M95.6,59c-0.2,0-0.3,0.1-0.5,0.3
		c-0.4,0.5-0.9,0.3-1.9-0.2c-0.5-0.2-0.4,0.1-1.3,0.5C91.1,60,90.9,60,90.5,60c-0.6,0-0.8-0.2-0.8,0.2c0,0.2,0,1.3-0.2,1.8
		c-0.2,0.7-0.4,1-0.2,1.2c0.3,0.3,0.5,0.1,1.2-0.5c1-1,1.7-0.7,2.9-0.3c1.3,0.4,1.6,0.6,2.8,0.2c1.7-0.6,2.7-0.6,3.4-0.2
		c1.2,0.7,1.5,0.7,1-1.3c-0.2-0.7-0.2-1.7-0.3-1.9c-0.1-0.2-0.4,0.4-0.7,0.6c-0.6,0.4-0.9,0.4-2.3,0C96.8,59.5,96.1,59,95.6,59z
		 M116.3,59.4c0.1,0,0.3,0,0.4,0.2c0.5,1.2,2.6,5.3,2.5,5.8c-0.4,0.4-0.9,0.6-1.3,0.3c-1-1.9-1.3-2.9-2.2-5
		C115.6,60.3,116,59.5,116.3,59.4z M127.8,59.5c0.1,0,0.5,0.3,0.7,0.6c0.7,1,0.8,1.1,0.8,2.1c0.1,3.7,0.5,8,1.6,11.4
		c0.2,0.7,0.6,1.5,0.5,1.6c-0.3,0.5-2-0.9-2.5-2.9c-0.7-2.6-1.1-5.4-1.3-7.2C127.4,61.9,127.4,59.6,127.8,59.5z M115.1,61.1
		c0.1,0,0.2,0.1,0.3,0.4c0.6,1.2,1.3,3.1,1.9,4.3c0.2,0.5-0.9,0.9-1.2,0.8c-0.5-0.4-0.7-1.3-1-1.9c-1-2.2-1.2-2.2-0.6-2.9
		C114.6,61.5,114.9,61.1,115.1,61.1z M130.2,62.8c0.1,0,0.2,0.1,0.3,0.3c0.6,0.7,1,1.3,1.2,1.8c0.1,0.4,0,0.7,0.1,1.4
		c0.1,1.9,0.6,4.5,2,9.7c0.1,0.5,0.3,1.1,0.3,1.3c-0.1,1-1.5-0.6-2-2.2c-0.5-1.8-1.3-4.2-1.6-6.3C130,65.3,129.7,62.8,130.2,62.8z
		 M113.4,63c0.3,0.1,0.5,0.7,0.8,1.2c1.2,2.7,1.3,2.7,0.5,3c-0.8,0.2-0.8,0.2-1.7-1.7c-0.7-1.4-0.8-1.5-0.2-2
		c0.2-0.3,0.4-0.4,0.5-0.4L113.4,63z M97.8,63.6c-0.1,0-0.5,0.3-0.9,0.5c-1,0.4-2.7,0.4-3.7,0.1c-1.9-0.7-1.3,0.2,0.3,0.8
		c1.3,0.4,3.8,0.1,4.2-0.7C97.9,64,98,63.5,97.8,63.6z M111.7,64.9c0.1,0,0.2,0,0.3,0.1c1,1.6,1.4,2.3,1.2,2.4
		c-0.2,0.2-1,0.5-1.3,0.3c-0.4-0.2-0.8-1.2-1-2C110.9,65.4,111.3,65,111.7,64.9z M85.7,65.7c0.5,0,1.7,1.6,1.4,1.9
		c-0.1,0.2-0.5,0-1.6-0.3c-0.4-0.1-1.2-0.2-0.9-0.8C84.7,66.3,85.5,65.7,85.7,65.7z M110,66.2l0.1,0c0.2,0.1,0.7,1.4,0.8,1.7
		c-0.1,0.3-0.9,0.3-1.2,0.3c-0.3-0.6-0.4-0.9-0.4-1.3C109.2,66.8,109.7,66.3,110,66.2z M132.6,66.3L132.6,66.3
		c0.2,0,0.5,0.3,0.9,0.9c0.8,1.2,0.7,1.1,1.3,3.9c0.7,3.2,1.5,5.4,2.3,8.6c0,0.5-0.2,0.4-0.8,0c-1-0.6-1.3-1.2-1.6-3
		c-0.5-2.8-1.6-5.4-2-8.8C132.4,67,132.4,66.3,132.6,66.3L132.6,66.3z M108.2,67.5c0.6,0,0.5,0.9,0.3,1c-0.4,0.4-1.6,0.3-1.8,0.3
		C106.4,68.1,107.9,67.5,108.2,67.5z M135.6,70.5c0.2,0,0.6,0.7,1.5,1.9c0.8,1.1,0.6,1,1.1,2.8c0.7,2.6,1.8,4.5,2.5,6.9
		c0,0.3-0.3,0.2-0.6,0.1c-0.6-0.3-1.2-0.7-1.7-1.1c-0.4-0.4-0.4-0.9-1.4-4.5c-0.4-1.3-0.5-1.6-1-3.6
		C135.5,71.2,135.4,70.5,135.6,70.5z M47.6,78.2c2.8,5.1,1.7,7.3-4.2,8.1c-0.4-0.1,0,2.6,0,3.8c3-1.7,6.6-2.1,9.9-3.2
		c-0.9,2.9-2.5,6.2-7.3,5.7C40.8,88.7,35,91,31,89.5c-2.2-0.8-3-3.2-3-3.7c2.6,0.3,5.6,0.8,8.1,0.6c-2.8-2.1-2-5.1-1.6-6.4
		c-3.3-4-0.5-8.7,4.2-7.6c0.5,0.1,1.4,0.6,1.4,0.6C45.5,68.3,49.9,73.6,47.6,78.2L47.6,78.2z M139.3,75.8c0.2,0,0.6,0.5,1.4,1.6
		c2.5,3.5,4.6,6.7,4.6,6.9c-0.1,0.6-2.7-0.4-3.3-1.3c-0.7-1-2.8-6-2.8-6.8C139.1,75.9,139.2,75.8,139.3,75.8z M38.9,90.6
		c1.3,0.2,1.6,0.3,1.6,0.8c0.1,0.4-3.1,0.5-3.5,0.2c-0.3-0.3,0.1-0.8,0.4-0.9C37.9,90.5,38.4,90.5,38.9,90.6z M127.4,91.2
		c-17.8,8.6-25,31.1-16,48.4l-1.2,0.9c-8.9-18.4-2.3-38,12.2-48c0.6-0.4,1.9-0.7,2.5-1.1c0,0-5.9,1.4-7.9,2.1
		c-0.4,0-1.6,0.4-2.9,1.8c-1.1,1-4.6,5.9-4.5,6l-9.3,0.4l0,0.3l9.1-0.2c-9.4,15.5-7.1,30.2-1.3,40.6l0.2,0.2c3.1-1.7,6.3-5,8.5-7.8
		c-5.3-17.1,0.4-30.5,15.2-38.1c0-0.2,0-0.7-0.1-1.1l-1-1c-16.4,7.3-23,25.3-16.3,41.7l-1.1,1.2c-8.4-16.9,0.5-38,16.1-44.2
		l-0.6-0.6c-16.9,7.9-24.3,28.1-15.9,45.3l-1,0.9c-9.4-18.8,0.5-39.9,16-47.1L127.4,91.2z M36.1,91.2c0,0-0.1,1,0.2,1.3
		c0.2,0.7-0.1,0.6-0.7,0.5c-1.5-0.4-0.3,0.5,0.9,1.2c1.2,0.7,1,0.7,0,1.3c-0.7,0.4-0.6,0.6-0.5,1c0.1,0.5,0.2,0.2,0.5-0.1
		c0.6-0.6,1.1-0.7,1.7-0.7c0.8,0,0.9,0.7,0.8,1.2c-0.3,1.1-1.4,1-2.3,0.8c-1.5-0.4-3.9-3-3.9-4.5C32.6,91.7,34.5,91.1,36.1,91.2z
		 M41.9,91.3L41.9,91.3c0.3,0,0.7,0.2,0.9,0.3c0.6,0.2,1.3,0.5,2.1,0.8c1.1,0.4,2.2,0.9,2.9,1.4c2.2,1.5,2.1,4.4,1.9,4.7l-11.3,10.8
		c0,0-0.6-0.3-1.2-0.6c-1.9-1-2.4-1.5-1.3-2c0.5-0.3,0.7-0.8,0.8-1.4c0.1-0.7,0.1-0.6,0.5-0.9c0.8-0.6,0.8-0.8,0.8-1.8
		c0-0.6,0.1-0.9,0.3-1.3c0.6-1.1,0.3-2,0.8-3.1c0.6-0.6,0.9-2.3,1.5-1.8c0.5,0.6,0.3,1.4,0.4,1.8c0.1-0.1,0.6-0.3,0.7-0.3
		c0.2-0.1,0.5,0,0.5,0.4c-0.1,1.1,0,2.2,0.2,3.2c0.8,2.9,0.7,2.5,0.4,0.1c-0.2-1.3-0.2-2.4,0.3-3.6c0.5-0.9,0.5-1-0.6-1.5
		c-0.4-0.2-1.1-0.4-1.2-0.7c-0.2-0.3-0.7-0.8-1.4-1c-1.6-0.4-2.6-2-2.3-2.2c0.2-0.2,0.8,0,1.2,0.1c1.5,0.1,1.8,0,2.5-0.6
		C41.5,91.5,41.6,91.3,41.9,91.3L41.9,91.3z M119.9,93.3c-15.2,12.3-17.9,32.3-10.3,47.7l-1.3,1c-9.5-18.1-3.1-37.6,8.6-48.2
		L119.9,93.3z M32,94.8c0.3,0,0.6,0.4,1.6,1.5c0.7,0.8,1.5,1.4,1.9,1.7c0.9,0.4,0.7,0.2,0,1c-0.8,0.9-0.3,1.6-1.3,1.2
		c-2.4-1.1-4-4.4-2.5-5.2C31.9,94.8,31.9,94.8,32,94.8L32,94.8z M30.9,98.2l0.2,0c0.3,0.1,0.6,0.6,1,1c1.1,1.1,1.5,1.5,2.4,1.9
		c0.8,0.4,0.8,0.5,0.3,1.1c-0.2,0.2-0.3,0.5-0.4,0.7c0,0.2-0.1,0.4-0.2,0.4c-0.9,0.2-4-1.7-4.1-3C30.1,99.1,30.4,98.2,30.9,98.2z
		 M37.3,98.6c0.5,0,0.8,0.5,0.8,1.2c0,0.5-0.3,0.8-0.9,1c-1.3,0.5-2.1-0.4-1.2-1.5C36.5,98.9,37,98.6,37.3,98.6z M36.6,101.7
		c1,0,1.3,0.8,0.5,1.5c-0.7,0.7-2,0.7-2-0.1C35.1,102.6,35.9,101.7,36.6,101.7L36.6,101.7z M30.5,102.7c0.7,0.2,2.3,1.4,3,1.5
		c0,0.4-0.4,0.5,0.2,1.2c0.3,0.3,0.3,0.6,0.1,0.7c-0.8,0.4-3.6-0.9-3.8-2.3C29.9,103.1,30.1,102.7,30.5,102.7z M34.1,104.4
		c1,0,2.1,0.1,1.9,0.5c-0.1,0.3-0.4,1.2-0.9,1.1c-0.2-0.1-0.4-0.3-0.6-0.4C34.1,105,34,104.4,34.1,104.4z M31.1,106.7
		c0.6-0.3,2.5,0.3,2.7,0.8c0.8,1.9-0.2,6.1-2,6.6c-0.7,0.2-1.5,0.4-2-0.8C29.7,113.2,30.9,106.8,31.1,106.7z M71.3,107.8
		c-0.4,0.3-0.5,0.3-0.6,0.6c2.8,2.6,13,29.2-8.3,48.7l-4.5,1.4c20.5-16.1,17.1-39,11.5-48.8c-0.6,0.1-0.8,0.6-0.9,0.8
		c6.2,9.6,8.6,36.8-16,49.9l0.1,0.1c0,0,0.2,0.2,0.3,0.3c0-0.4,11.1-3,10.3-3.1C73.5,148.5,82.4,126.7,71.3,107.8L71.3,107.8z
		 M67.6,111.1c-0.5,0.5-0.6,0.5-0.7,0.8c8.9,17.4,0.6,38.9-15.7,47c0.3,0.3,0.4,0.4,0.6,0.6C70.5,149.3,75.8,127.7,67.6,111.1z
		 M66.2,112.6c-0.4,0.3-0.4,0.3-0.7,0.7c7.4,14.9,1.6,35.5-15.9,44c0.1,0.1,0.4,0.4,0.7,0.7C70.6,147,72.5,126.1,66.2,112.6z
		 M64.5,114.4c-0.7,0.9-2.1,2.2-2.1,2.2c2.2,1.7,7.4,26.3-14.7,37.2c0,0.8-0.7,1.5,0.8,2.4C64.5,148.9,71.5,129.6,64.5,114.4z
		 M144.8,144.8c0.6,0,1.1,0.2,1.7,0.3c2,0.3,3.3,1.7,2.4,2.6c-0.3,0.3-0.7,0.1-2-0.5c-0.6-0.3-0.7-0.6-0.8-1.2
		c-0.1-0.8-0.3-0.9-0.5-0.3c-0.2,0.6-0.4,1-1.1,0.8C142.5,146.1,143.3,144.8,144.8,144.8z M143.5,147.3c1,0.1,0.9,0.7,0.2,1.4
		c-0.7,0.5-1.1,0.6-1.5,0.2C141.6,148.2,142.5,147.3,143.5,147.3z M145.9,147.7c0.6,0,1.4,0.3,2.4,1.1c1.1,1,1.4,3.3,0.4,3.7
		c-0.4,0.2-0.5,0-1.4-0.9c-0.6-0.6-1.3-1.1-2-1.5c-1.4-0.7-1.6-0.9-0.6-1.4c0.2-0.1,0.4-0.3,0.6-0.5
		C145.4,147.9,145.5,147.8,145.9,147.7z M142.5,150c1,0.1,1.1,1.2,0.2,1.6c-0.2,0.2-1.1-0.1-1.1,0.1c0.1,0.4-0.3,0.2-0.4,0.1
		c-0.1-0.2-0.2-0.4-0.2-0.6C141.1,150.6,141.8,149.9,142.5,150z M144.3,150.8l0.1,0c0.2,0,0.4,0.1,0.8,0.3c2.3,1.3,3.5,3.3,2.7,4.4
		c-0.5,0.7-1.4,0.5-2-0.6c-0.4-0.6-1.3-1.3-2.4-1.9c-1.2-0.6-1.3-0.7-0.4-1.2c0.4-0.2,0.6-0.4,0.8-0.7
		C144.1,150.9,144.2,150.8,144.3,150.8L144.3,150.8z M141.9,153.4c0.4,0,0.9,0.2,1,0.6c0.2,0.6-0.9,0.9-1.8,0.9
		c-0.4,0-1,0.1-1.1-0.2c-0.1-0.3,0.3-0.8,0.5-1c0.4-0.2,0.7-0.3,1-0.3C141.6,153.4,141.8,153.4,141.9,153.4z M144,154.5
		c0.4,0.1,0.9,0.9,1.1,1.1c1.8,1.8,1.6,2.7,0.4,3.4c-0.8,0.5-2,0.6-2.4,0.2c-0.7-0.6-0.6-1.2,0.1-1.5c0.7-0.1,0.4-0.4-0.2-0.6
		c-2.3-0.6-3.7-1.9-1.2-1.6c0.7,0.1,1.4-0.5,1.8-0.9C143.7,154.5,143.9,154.4,144,154.5L144,154.5z M25.6,156.2l51.1,73.1H35.4
		c1.5-11.6-1.5-24.5-5.3-32.9c4.2-0.7,8.2-1.8,12.2-2.9l-0.8-1.1c-4.8,1.9-9.2,2.6-13.3,3.1c5.5,9.4,7.5,22.4,5.8,33.8h-7.9v-56.7
		L25.6,156.2z M133,158.7c3.5,1.1,6.9,2.8,10.2,2.5c1.8,0,3.6,0.3,5.4,1.2c1.2,0.6,1.8,2.7,1.8,2.7c-1.9,1-7.6-0.8-7.6-0.8
		c3.7,2.4,2.4,6.7,1.6,7.2c5,6.4-2.8,9.7-5.3,7.4c-3.7,3.7-10,0.6-7.6-5.5c0,0-4.6-8.9,4.5-8.3c0,0,0.2-3.6-0.1-3.7
		c-3.1-0.2-6.7,2.4-9.8,4C125.2,160.7,129.7,159.5,133,158.7z M34.7,167.1c0.7,0,2.5,1.2,2.7,2.2c0,0.2,0.5,1.4,1,2.5
		c0,0.2,1.8,3.4,1,3.1c-1.6-2.1-4.3-5.7-5-7.5C34.5,167.2,34.5,167.1,34.7,167.1z M38.5,169.1c0.4,0,1.5,0.9,1.8,1.2
		c0.1,0.5,0.6,1.9,1.1,2.8c1.1,2.4,2.8,6.1,2.5,7.2c-0.1,0.4-0.1,0.5-0.2,0.5c-0.8-0.9-1.5-2.2-2.3-3.2c0-0.1,0-0.1-0.2-0.9
		c-0.8-3.5-2-5.3-2.8-7.3C38.3,169.2,38.4,169.1,38.5,169.1z M41.2,170.9c0.1,0.1,2.2,1.5,2.4,1.7c0.7,2.6,3.6,10.8,2.8,12.2
		c-0.3-0.2-1.4-1.5-1.5-2.2c-0.3-3.9-1.6-6.8-2.9-9.7C41.7,172.1,41.4,171.2,41.2,170.9z M45,173.7c0.6,0.3,1.3,1,1.7,1.7
		c0.3,0.4,0.4,0.9,0.6,2c0.7,3.3,2.1,6.7,1.5,10.3c-0.4,0.5-1.2-0.7-1.4-1.9c-0.4-4-0.8-5.9-2.1-10.5
		C45.1,174.5,44.9,173.8,45,173.7z M48.3,176.8c0.1,0,0.4,0.3,0.9,0.7c0.9,0.9,1,1.2,1,2.6c0,2.1,0.7,4.5,0.8,6.6
		c0.1,1.2,0.3,4.4,0.1,4.6c-0.3,0.4-1.4-1-1.4-3c0.1-2.5,0-4.3-1-8.6C48.3,177.7,48.1,176.9,48.3,176.8L48.3,176.8L48.3,176.8z
		 M51.1,179.8c0.3,0,1.2,1.2,1.5,2.3c0.3,1,0.2,2.3,0.5,3.4c0.6,3.7,0.5,7.4,0.4,8.5c-0.1,0.6-0.4,0.3-0.9-0.2
		c-0.7-0.8-0.6-0.8-0.6-2.9c0-1.8-0.4-6.4-0.6-7.3c-0.3-1.7-0.5-3.3-0.4-3.6L51.1,179.8z M83.1,180.1c0.5,0,1,0,1.5,0.1
		c3.7,0.6,6.6,3.1,8.3,7.3c1.6,4.2,2,10,2.3,15.3c0,1.3-0.5,0.9-1.9,0.2c-1.5-0.7-1.8-0.5-4,0c-1.4,0.3-1.2-0.6,1-2.2
		c0.8-0.5,1.6-1.2,1.4-1.3c-0.1,0-0.8,0.1-1.3,0.5c-2.2,1.8-2.8,2.2-2.2,0.5c0.2-0.4,0.7-1.6,0.9-2.2c0.8-2.2-0.1-3.1-2.8-4.5
		c-0.7-0.3-1.1-0.9-0.4,0.3c0.6,1-0.6,1.8-2,0.6c-1-0.8-3-0.3-3.6,0.7c-0.6,1-0.3,2.8,0.9,3.3c1.1,0.5,1.5,0.1,0.4-0.6
		c-1.3-0.9-1.1-2.5,0.4-2.5c0.4,0,1,0.4,2.7,1.3c1.2,0.6,2,0.4,2-0.6c0-0.6,0.4-0.6,1.1-0.2c1,0.5,0.9,1,0.4,2.4
		c-0.4,1-0.6,2.2-0.9,3.2c-0.9,3.6-1,7.6,0,8.8c2.6,3.3,5.3,3,7.7,0.8l-0.1,3.7c-2.4,1.9-5.2,3.2-9.5,10.4c-1.5-1.9-8-9.7-18.4-11.4
		l-2.3-3.2c0-0.2-1.7-11.9-2.9-15.9c0,0,1.3-2,2.5-3.4C68.5,186.2,75.7,180.1,83.1,180.1L83.1,180.1z M71.9,182.7
		c0.4,0,0.4,0.4-0.8,0.8c-0.4,0.1-0.5-0.7-0.3-0.8C71.1,182.7,71.5,182.7,71.9,182.7L71.9,182.7z M69.2,182.9c0.2,0,0.3,0,0.4,0.2
		c0.6,0.7,0.8,1.2,0.3,1.5c-0.7,0.6-1.3,0.4-1.7-0.7C68.1,183.2,68.6,183,69.2,182.9z M53.5,182.9c0.5,0.4,1.2,1.4,1.8,2.3
		c0.4,2.1,0.3,4.2,0.5,6.4c0.2,2.3-0.1,4.2-0.4,4.9c-0.3,0.8-1,0.3-1.2-0.9c0-0.3,0.2-3.1,0.2-4.7C54.4,188.4,53.7,185.1,53.5,182.9
		z M67.2,183.6c0.5,0.4,1,1.5,1.2,2.2c0,0.2-0.2,0.4-0.6,0.7c-0.4,0.4-0.5,0.3-1-0.4c-0.7-1.1-1-1.8-0.9-2.2
		C66.4,183.5,66.8,183.4,67.2,183.6z M91.7,183.7c1,0.1,2,0.5,3,0.8l-1.5,1.4C92.7,185.2,92.2,184.4,91.7,183.7z M64,184.3
		c0.3,0,0.7,0,0.9,0.2c0.6,0.7,1.5,2.6,1.5,3.3c-0.1,0.2-0.4,0.5-0.6,0.6c-0.2,0-0.4-0.3-1-1.4C63.7,185,63.4,184.5,64,184.3z
		 M62.7,184.9c0.6,0.5,2,3.4,2.1,4.2c0,0.2-0.1,0.4-0.2,0.6c-0.9,1-0.7,0.8-2-2c-1.1-2.3-1.4-2.5-0.7-2.8
		C62.2,184.8,62.5,184.7,62.7,184.9z M60.6,185.6c0.4,0,0.5,0.7,1.3,2.2c1.3,2.9,1.8,3.3,1.5,3.6c-0.4,0.5-0.6,0.8-0.9,0.2
		c-0.8-1.3-1.6-2.9-2.3-4.3c-0.6-1.1-0.6-1.2-0.3-1.5C60.1,185.7,60.4,185.7,60.6,185.6z M85.1,186.4c-0.6,0-1.1,0-1.4,0.1
		c-0.5,0.1-2.4,0.8-1.2,0.9c0.2,0,0.9-0.1,1.3-0.2c1.2-0.1,3.7,0.1,3.6-0.1C87.2,186.5,86.1,186.4,85.1,186.4z M59.5,187.9
		c1.9,3.5,2.9,4.9,2.5,5.4c-0.3,0.3-0.7,0.8-0.9,0.7c-0.4-0.2-0.9-1.3-2.2-4c-1.4-2.7-1.5-2.9-0.8-3.3
		C59,186.2,59.2,187.2,59.5,187.9z M56.4,187.2c0.3,0,0.5,0.6,0.7,0.8c0.8,1.4,0.7,1.2,0.7,5.7c0,2.8-0.4,4.6-0.8,5.3
		c-0.2,0.4-0.7,0.1-0.9-0.6c-0.1-0.3,0.2-0.8,0.2-1.3C56.6,193.7,56.4,190.3,56.4,187.2z M78.5,187.8c-0.1,0-0.2,0-0.2,0.1
		c-0.1,0.2,0.1,0.6,0.6,1.2c0.4,0.6,0.3,1,0.3,1.8c0,1.1,0.1,1.1,0.8,0.6c0.7-0.5,0.7-0.5,1.9,0.3c0.7,0.5,1.6,0.5,2.1,0
		c0.4-0.4,0.5-0.2,1.1-0.1c0.6,0.3,0.7,0.4,2-0.2c0.8-0.4,0.9-0.4,1.4-0.2c0.9,0.8,1,0.5,0.9-0.5c0-0.4,0.1-1,0.2-1.4
		c0.4-1.8-0.3-1.8-1.2-0.7c-0.4,0.4-1.2,0.6-1.9,0.3c-1.1-0.5-2.8-0.3-4.1-0.1c-1.5,0.3-2.2-0.2-2.8-0.7
		C79.2,187.9,78.7,187.7,78.5,187.8L78.5,187.8z M58.8,191.6c0.2,0,0.5,0.5,0.9,1.7c0.5,1.5-0.4,6.8-1,7.7c-0.3,0.5-0.5,0.7-1.1-0.1
		c-0.2-0.4-0.1-0.5,0.2-1.5c0.4-1.6,0.7-4.1,0.7-5.3C58.5,192.5,58.6,191.7,58.8,191.6z M60.7,196.7c0.1,0,0.3,0.3,0.5,0.9
		c0.3,0.8,0.2,2.4-0.2,3.6c-0.2,0.7-0.5,1.5-0.8,2.1c-0.1,0.4-0.8,0.2-1-0.6c-0.1-0.5,0.3-1.1,0.5-1.9c0.2-0.8,0.4-1.8,0.5-2.3
		C60.3,197.4,60.5,196.7,60.7,196.7z M75.4,199.1L75.4,199.1L75.4,199.1c-0.1,0.1,1.4,1.7,1.8,2.1c0.2,0.2,2,2.3,0.9,1.8
		c-2.8-1.2-6-0.6-8,1.3c-0.3,0.2-0.5,0-1.2-0.1c-1.6-0.1-2.1,0.5-1.2,1.3c0.1,0.1,0.4,0.2,0.6,0.4c0.1,0.2,0.1,0.5,0.2,0.6
		c3,4,8.6,4.8,12.1,2.2c0.4-0.3,0.7-0.4,1.1-0.3c0.8,0.2,0.9-0.4,0.2-1.4c-0.3-0.4-0.7-0.9-0.5-1c0.4-0.4,0.7-1-0.1-1.2
		c-0.5-0.2-1.1-0.8-1.4-1.6C79.4,202.1,76,199.2,75.4,199.1L75.4,199.1z M61.8,200.8c0.1,0,0.2,0.2,0.3,0.2c0.4,0.8,0.3,3.8-0.3,4.8
		c-0.4,0.4-1.2-0.4-1.1-1.2c0.1-0.6,0.8-3.5,0.9-3.7L61.8,200.8z M75.1,203.3c0.5,0,1.3,0.2,1.9,0.8c0.3,0.3,0.9,1.6,0.7,2.1
		c-0.1,0.3-0.7,0.2-0.8,0.1c-0.4-2.6-2.4-2.9-3.1-0.5c0,0-0.4,0.4-0.5-0.3C73.4,203.9,74.1,203.3,75.1,203.3z M91.7,203.5
		L91.7,203.5c0.7,0,1.3,0.3,1.6,1c0.2,0.5,0.2,0.9,0.2,1.1c-0.1,0.2-0.3,0.1-0.3,0.1c-1-2.9-2.5-1.5-3,0c0,0-0.5,0.2-0.6,0
		c-0.1-0.2,0-0.5,0.2-0.9C90.2,203.9,91,203.5,91.7,203.5L91.7,203.5z M77.7,203.7c0.4,0,1,0.3,1.5,0.8c0.5,0.5,0.5,0.8,0.1,1.1
		c-0.2,0.2-1.1,0.4-1.2,0.1l-0.7-1.6C77.4,203.8,77.6,203.7,77.7,203.7z M72.7,203.7c0.4,0,0.5,0.1-0.2,1.6
		c-0.1,0.3-1.8-0.1-1.5-0.8C71.5,204.1,72.3,203.7,72.7,203.7L72.7,203.7z M89.8,203.9c-0.1,0.1-0.8,1.7-0.8,1.7
		c-0.6-0.1-1.3,0-1.4-0.5c-0.1-0.5,0.1-0.7,1-1.1C89,203.8,89.8,203.8,89.8,203.9z M94.3,204.3c0.6,0.2,0.8,0.8,0.7,1
		c-0.1,0.2-0.4,0.2-0.6,0c-0.2-0.2-0.4-0.6-0.5-0.9C94,204.1,94.3,204.2,94.3,204.3z M62.8,205.7c0.2,0.4,0.5,2.5,0.1,2.4
		c-0.4-0.1-0.6-0.7-0.7-1.3C62.2,206.7,62.6,205.8,62.8,205.7z M69.7,206.9c0.2,0,0.6,0.1,1.3,0.5c2.3,1.1,4.6,1.3,7.1,0.7
		c1.4-0.4,1.8-0.6,2-0.3c0.3,0.4-0.2,0.8-2.2,1.5c-2.2,0.7-4.5,0.6-7.5-1.5C69.6,207.2,69.5,206.9,69.7,206.9z M94.8,207.3
		c0.1,0,0.1,0.1,0.2,0.2c0.4,0.7-0.9,1.4-1.5,1.6c-1.8,0.3-3.5,0.1-4.9-0.7c-1-0.7-0.6-1.2,0.5-0.7c1.1,0.6,3.5,0.7,4.7,0.1
		C94.2,207.5,94.5,207.2,94.8,207.3z M66.7,208.7c-0.1,0,0.1,0.4,0.5,0.8c3.1,3.5,10.5,5.4,14.7,1.8c1.3-1.2,1.1-1.8-1-0.8
		c-3.4,0.9-7.9,1.6-13.1-1.1C67.2,208.9,66.9,208.7,66.7,208.7z M88,208.8l0.1,0c0.2,0,0.5,0.2,1.3,0.5c1.3,0.6,3.5,0.3,4.2,0.1
		c1.6-0.6,2,0.2,0.4,1c-1.7,1.1-4.1,0.6-5.5-0.7C88.1,209.3,87.9,208.8,88,208.8L88,208.8z M67.5,215c6.1,0.6,15.7,7,19.3,14.3h-2.4
		c-3.6-5.8-9.2-10.7-15.8-12.5C68.4,216.7,67.4,215.3,67.5,215z M94.5,216.4v2c-1,0.8-5,4.2-7.7,9.1c-0.2-0.3-0.5-0.8-0.8-1.2
		C88.8,221.1,91.8,218.1,94.5,216.4L94.5,216.4z M69.9,218c1.4-0.1,10.5,5.2,13.6,11.4h-1.6c-3.5-4.5-7.3-7.8-10.7-9
		C70.4,219.5,69.4,218,69.9,218z M94.5,219.4v2.7c-2.2,2.1-3.8,4.6-5,7.2h-1.7c0,0-0.3-0.4-0.5-1.1C89.1,225,91.1,222.2,94.5,219.4z
		 M72.3,221.6c0.8,0,7.3,4.8,8.3,7.7h-1.6c-1.4-2-3.4-4.2-5.3-5.3C72.8,223.1,71.9,221.9,72.3,221.6L72.3,221.6L72.3,221.6z
		 M94.5,223.3L94.5,223.3v2.3c-1,1.1-1.9,2-2.9,3.7h-1.4C91.3,226.7,94.2,223.2,94.5,223.3z M75.6,226.5L75.6,226.5
		c0.6,0.1,2.4,2.2,2.4,2.8h-0.8c-0.5-0.6-1-1.6-1.4-2.2C75.6,226.8,75.4,226.5,75.6,226.5z M94.5,227L94.5,227v2.3h-2
		c-0.2,0,1.2-2,2-2.5V227z"/>
	<path d="M123,21.5c-7.1,0-14.2,0-21.2,0.1l52.3,74.4l0-16.5l-16.8-21.7c3.8-1.2,8.5-2,12.2-2.3c-4.7-10.5-7.1-20.3-5-33.8
		C137.3,21.6,130.1,21.5,123,21.5z M143.7,22c-0.4,4.8-0.9,10.1-0.1,16c-2.7-1-3.4,0.7-3.8,0.9c-0.5-1.1-2.4-3.1-4.6-0.8
		c-1.1,1.2-0.6,3.5,2,4.5c-3,0.2-4.5-2.3-5-4.9c-1.6-1-3.3-2-3.5-5.7l0.8,0.1c-0.3,2.5,2.3,3.8,3.9,2.6c1-0.8,1.1-1.9,0.7-3.7
		c0.8-0.2,2.7-0.9,2.2-3.3c-0.7-3.3-4.1-2.9-5.6-0.7c-1.3-1.6-3.6-1.9-4.6,0.6c-0.5,1.4,0.7,2.9,2,3.2c-3,0.6-4.6-3.6-4.7-6.4
		l-1.3-2.2C130.3,22,133.9,22,143.7,22z M102.7,22.1l6.1,0l44.4,57.5l0.1,14.3L102.7,22.1z M118,22.1l1,0c0.8,5.1,3.7,8.7,8.6,10.5
		c0.3,4.1,2.2,9.8,9.8,11.7c-0.2,4.7,2.8,9.1,6,11.3c0,0-0.9,0.2-1.5,0.3c-4.3-3.4-5.8-10.5-5.8-10.5c-1.4-0.5-8.4-3.1-9.8-12.4
		C123.1,32.2,118.2,27.2,118,22.1L118,22.1z M114.1,22.1h3.4c0.3,4.1,2.8,9,8.4,11.3c1.3,6.6,3.9,9.6,9.8,12.3
		c0.9,3.9,3.2,8.7,5.6,10.2l-1.3,0.3L114.1,22.1z M130.7,28.3c0.8,0,1.4,0.6,1.4,1.4s-0.6,1.4-1.4,1.4c-0.8,0-1.4-0.6-1.4-1.4
		S130,28.3,130.7,28.3z M83.8,36c0.1,0.2-19,16.4-17.2,46.9L66,83.5l0.2,0.2c-0.6,0.7-1.2,1.3-1.9,2c4,2.5,10.9,5.3,10.9,5.2
		L73.8,94l8.3,2.7L81,99.6c0,0-5.7-1.9-8.1-2.7c-1.2,2.6-1.9,5.4-2.7,8.1c-0.1,0.2-0.3,0.1-0.6-0.3C65.3,97.3,56.4,92,56.7,92.6
		l-31.3,29.7l-0.2,18.4L46.9,163c0,0-6.3,3.1-9.2,5.1c2.3,1.9,4.9,3.3,7.2,5.1c4.7,3.3,7.9,8.3,11,11.6c14.5-7.2,29.1-6.8,41.7-2.4
		c-1.5,1.5-3.1,2.9-4.6,4.6c3.7,9.6,2.5,28.7,2.3,29.3c7.6-7.8,19-24.5,17.4-48.1l3.2-3.2c-0.1-0.2-8-4.4-11.3-5.4l0.9-2.9l-7.9-2.5
		l0.9-2.3l7.9,2.3c1.5-3.7,3.1-8.9,3.1-8.9c3.2,4.7,6.6,9.1,13.8,13.4l31.1-29.8l-0.2-19.2l-21.2-21.2l8.8-4.6
		c-0.8-0.7-2.1-1.3-2.9-2l0.1-0.2c-0.2-0.2-0.4-0.3-0.6-0.5l-0.3,0.2c-3-2.1-6-4.2-8.3-6.7l0-0.4c-1.2-1.3-2.4-2.5-3.7-3.8
		c-0.6-0.6-1.5-2-1.5-2l-0.1-0.5l-1.3-1.7c-4.3,2.5-22.6,8.9-40.4,1.9l3.4-3.4c-0.9-2.2-1.5-4.6-1.7-6.6C83.4,50.3,83.8,36,83.8,36
		L83.8,36z M139.7,40.5c0.8,0,1.5,0.7,1.5,1.5c0,0.8-0.7,1.5-1.5,1.5s-1.5-0.7-1.5-1.5C138.3,41.1,138.9,40.5,139.7,40.5z
		 M144.3,42.2c0.7,3.7,2.4,9,4,12.6l-2,0.2c-1.6-1-3.3-2.5-3.5-4.7c-4.3,0-5.6-6.7-4-5.9c-0.2,2.3,1.5,3.2,3.1,3
		c1.4-0.2,2.6-2.1,0.9-4.3C143.7,42.8,144.1,42.6,144.3,42.2z M83.3,53.1c0.3,4.7,1.2,8.1,2.1,11.7l-8.5,8
		C77.5,65.4,79.7,58.9,83.3,53.1z M124.1,68.5l1.1,1.6c-12.3,7.2-33.3,7.7-46.1,1.6l1.7-1.6C92.1,75.2,110.4,75.6,124.1,68.5z
		 M44.3,70.9c-1.2,0-2.7,0.5-4.2,1.6C34.5,70,30.8,76,34.3,80c-0.5,2.9-0.9,3.4,1.2,6.3c-2.3,0.3-5.2-0.3-7.6-0.7
		c0.4,4.2,6.5,5.2,9,4.8c2.7-0.6,5.3,0.8,5.4,0.8c1.6,0.4,2.6,1.2,4.2,1.6c3,0.4,6.4-2,6.9-6.2c-1.8,0.5-3.7,1.1-5.5,1.5
		c-1.7,0.4-3,0.8-4.3,1.8l-0.1-3.5c8.8,0.4,5-8,4.5-8.4C49.7,74.7,47.7,71,44.3,70.9L44.3,70.9z M124.6,71.2l1.9,4.6l-5.1,1.7
		l-1.3-4.5L124.6,71.2z M43.9,71.3c3,0,5.7,3.2,2.8,6.7c5.6,4.9-1.6,10.2-5,6.6c-4.5,4.2-9.4-0.2-6.8-4.7c-4.8-4.3,1.1-10.2,5.2-6.4
		C41.1,71.9,42.6,71.3,43.9,71.3z M78.8,73c0.7,0,1.3,0.6,1.3,1.3c0,0.7-0.6,1.3-1.3,1.3s-1.3-0.6-1.3-1.3
		C77.5,73.6,78.1,73,78.8,73z M45.6,73.1L45.6,73.1c-1.3,0.9-2,2.2-3.1,3.2c-1.5-0.5-2.6-0.2-3.5,0.5c-1.5-0.8-1.9-1.4-3.3-2.1
		c-0.5-0.2-0.5,0.3-0.4,0.5c1,1.1,2,1.5,3.2,2.4c-0.1,1.1,0.1,2,0.5,2.8c-0.8,1.6-1.6,2-2.3,3.7c-0.1,0.3,0.1,0.4,0.3,0.2
		c1.2-1,1.8-2,2.8-3.3c1.6,0.5,2.1,0.2,3.1-0.1c1,0.7,1.7,1.5,3,2.2c0.4,0.2,0.4-0.4,0.4-0.4c-0.9-0.8-1.9-1.5-2.8-2.4
		c0.5-2,0-2.7-0.4-3.3c0.8-1.1,1.8-2,2.7-3.6L45.6,73.1z M81.7,73.4l4.6,1.4l-1,4.8L80.4,78L81.7,73.4z M115,74.6l1.3,4.7l-4.8,1.3
		l-0.8-5L115,74.6z M118.3,74.7c0.7,0,1.3,0.6,1.3,1.3c0,0.7-0.6,1.3-1.3,1.3S117,76.7,117,76C117,75.2,117.6,74.7,118.3,74.7z
		 M129.2,74.8l4,3.6l-4.5,2.3l-2.1-4.7L129.2,74.8z M91.3,75.9l4.7,0.6l-0.2,5l-5.4-0.7L91.3,75.9z M75.1,75.9l5.2,2.3l-1.9,5.2
		l-5.3-2.3L75.1,75.9z M88.5,76.3c1.9,0.3,1.4,2.6,0,2.6c-0.7,0-1.3-0.6-1.3-1.3C87.2,76.9,87.8,76.3,88.5,76.3z M105.3,76.3l0.6,5
		l-4.8,0.3l-0.1-5.1L105.3,76.3z M41.1,76.8c1,0,1.9,0.8,1.9,1.9s-0.8,1.9-1.9,1.9c-1,0-1.9-0.8-1.9-1.9S40,76.8,41.1,76.8z
		 M108.6,76.9c0.7,0,1.3,0.6,1.3,1.3c0,0.7-0.6,1.3-1.3,1.3c-0.7,0-1.3-0.6-1.3-1.3C107.3,77.5,107.9,76.9,108.6,76.9z M98.5,77.3
		c0.7,0,1.3,0.6,1.3,1.3s-0.6,1.3-1.3,1.3s-1.3-0.6-1.3-1.3S97.8,77.3,98.5,77.3z M121.4,77.6l1.9,5.2l-5.3,1.7l-1.5-5.3L121.4,77.6
		z M41.1,77.7c-0.6,0-1,0.4-1,1s0.4,1,1,1c0.6,0,1-0.4,1-1S41.7,77.7,41.1,77.7z M125.1,77.8c0.7,0,1.3,0.6,1.3,1.3
		s-0.6,1.3-1.3,1.3s-1.3-0.6-1.3-1.3S124.4,77.8,125.1,77.8z M134.3,79.3l3.4,2.4l-1.7,0.9C135.5,81.6,134.8,80.3,134.3,79.3z
		 M85.3,79.7l5.1,1.1l-0.8,5.3L84.1,85L85.3,79.7z M70.3,80l2.7,1.3l-1.8,4.4l-4.3-2.3L70.3,80z M82.3,80.3c0.7,0,1.3,0.6,1.3,1.3
		c0,0.7-0.6,1.3-1.3,1.3S81,82.3,81,81.6C81,80.9,81.6,80.3,82.3,80.3z M111.5,80.6l0.9,5.3l-5.7,0.8l-0.4-5.4L111.5,80.6z
		 M132.8,80.7c0.7,0,1.3,0.6,1.3,1.3s-0.6,1.3-1.3,1.3s-1.3-0.6-1.3-1.3S132.1,80.7,132.8,80.7z M128.8,80.7l1.9,4.7l-5.6,2.3
		l-1.7-4.7L128.8,80.7z M114.6,81.1c0.7,0,1.3,0.6,1.3,1.3c0,0.7-0.6,1.3-1.3,1.3s-1.3-0.6-1.3-1.3
		C113.3,81.7,113.8,81.1,114.6,81.1z M95.7,81.6l5.3,0.1l-0.1,5.4l-5.8-0.2L95.7,81.6z M138.4,82l2.1,1.5
		c-21.6,13.9-52,15.7-75.6,1.9c0,0,1-1,1.5-1.5C87.7,96.7,118.9,94.9,138.4,82z M92.8,82.6c0.7,0,1.3,0.6,1.3,1.3
		c0,0.7-0.6,1.3-1.3,1.3s-1.3-0.6-1.3-1.3C91.5,83.2,92.1,82.6,92.8,82.6z M103.8,82.9c0.7,0,1.3,0.6,1.3,1.3c0,0.7-0.6,1.3-1.3,1.3
		s-1.3-0.6-1.3-1.3C102.5,83.5,103.1,82.9,103.8,82.9z M78.4,83.6l5.6,1.6L83,89.6l-6.1-1.8L78.4,83.6z M74.7,83.6
		c0.7,0,1.3,0.6,1.3,1.3c0,0.7-0.6,1.3-1.3,1.3s-1.3-0.6-1.3-1.3C73.4,84.2,74,83.6,74.7,83.6z M118,84.6l1.3,5l-6.2,1.3l-0.7-4.9
		L118,84.6z M121.5,85.3c0.7,0,1.3,0.6,1.3,1.3s-0.6,1.3-1.3,1.3s-1.3-0.6-1.3-1.3S120.8,85.3,121.5,85.3z M41,86.1L41,86.1l0,3.5
		c-1-0.8-2.2-1.7-3.4-2.7C38.8,86.9,40,86.6,41,86.1L41,86.1z M28.3,86.1c0.3,0,0.9,0.2,1.7,0.2c2.5,0,7.2,0.8,8.6,1.9
		c0.5,0.4,1.2,0.7,1.5,1.3c0,0.3-0.4,0.3-1-0.1c-1.2-0.7-3.1-1.4-5.7-1.7c-0.5-0.1-0.5,0-0.5,0.2c0,0.3,0.4,0.4,1.8,0.7
		c1.8,0.3,2.1,0.5,2.5,0.6c1,0.3,0.4,0.7-0.7,0.8c-4.4,0.4-7.7-1.5-8.4-3.7C28.1,86.2,28.2,86.1,28.3,86.1z M89.6,86.2l5.5,0.7
		l-0.3,4.6l-6.1-0.7L89.6,86.2z M41.9,86.4c0.2,0,0.4,0.1,0.6,0.2c1,0.7,0.3,3.1-0.2,3.7c-0.3,0.4-1.1,0.2-1.1-0.4
		c0.1-0.5,0-2.8,0.1-3.5C41.5,86.4,41.7,86.4,41.9,86.4L41.9,86.4z M106.7,86.8l0.3,4.8l-6,0.3l0-4.7L106.7,86.8z M86.3,87.1
		c0.7,0,1.3,0.6,1.3,1.3c0,0.7-0.6,1.3-1.3,1.3c-0.7,0-1.3-0.6-1.3-1.3C85,87.7,85.6,87.1,86.3,87.1z M52.7,87.2
		c0.2,3.5-5.2,5.9-7.2,4.8c-0.9-0.5-0.5-0.8,1.2-1.1c2.3-0.6,3.8-1.2,3.8-1.6c0-0.3-0.3-0.2-1.3,0.1c-1.4,0.5-2.9,0.7-4.3,1.3
		c-1,0.5-1.4,0.6-1.7,0.3c-0.5-0.6,1.8-2.1,4.2-2.5C49.2,88.3,51,87.3,52.7,87.2z M110,87.7c0.7,0,1.3,0.6,1.3,1.3
		c0,0.7-0.6,1.3-1.3,1.3s-1.3-0.6-1.3-1.3C108.7,88.2,109.3,87.7,110,87.7z M97.9,88.6c0.7,0,1.3,0.6,1.3,1.3c0,0.7-0.6,1.3-1.3,1.3
		c-0.7,0-1.3-0.6-1.3-1.3C96.6,89.2,97.2,88.6,97.9,88.6z M126.9,90.8c8.7,8.3,18.3,17.9,26.1,25.8c0,4.1,0,12.4,0,12.4l-30.1,28.7
		c-5.4-3.3-10.1-7.5-14.3-14.9c0.5-0.4,1.1-0.8,1.4-1.2l-1.8,1c-5.5-8.9-7.9-26.6,1.5-40.8l-9.5,0.3l1.6-3.2l10.4-0.6l4.2-4.5
		c0,0,1.3-0.2,2.4-0.5c1.1-0.3,3.3-0.9,5-1.4S126.8,90.8,126.9,90.8z M56.6,93.1c0,0,9,4.9,13.9,14.6c-16.1,13.9-22.1,30-23.5,46.8
		c-8.7-8.2-13.2-12.7-21.1-20.7l0.3-11.9L56.6,93.1z M90.4,94.7c-2.3,5-4.3,10.4-6.1,16.2l-2.5-0.7c0,0,1.6-0.7,2.3-1.1l-1.3-2.1
		l2.5-1l-1.5-1.8l2.5-1.4l-1.2-1.6l2.3-1.1l-1.4-1.6l2.4-1.3l-1.2-1.6L90.4,94.7z M91.2,94.7c0,0,0.3,0.1,0.7,0.1l-0.4,1.3
		c0.9,0.2,0.9,0.1,1.2,0.2l0.7-1.4l1.1,0.2c-2.2,5-4.5,10.4-5.9,16.3l-1.3-0.3c0,0,0.4-1.2,0.4-1.4c-0.2,0-0.9-0.3-1.1-0.4
		c-0.1,0.2-0.5,1.6-0.5,1.6l-1,0C86.6,104.6,89.5,97.5,91.2,94.7z M95.3,94.9l2.3,1.9l-2.6,1l1.3,1.8l-2.7,1l1.6,1.9l-2.7,1l1.6,2.2
		l-2.8,1l1.8,2l-2.5,1.2l1.5,1.5c0,0-1.6,0.5-1.7,0.5c-0.3,0.1-1.3-0.2-1.3-0.2C90.6,105.9,92.6,100.1,95.3,94.9z M40,95.8
		c-0.6,0.4-0.3,1.3-1.1,2.1c-0.1,0.1-0.1,0.4-0.2,0.7c0,0.2-0.7,2.7-0.7,2.7s0.2-0.2,0.4-1c0.2-0.7,0.4-2,0.5-2.2
		c0.6-0.2,0.7-2.1,1.3-1.8c0.3,0.1,0.3,0.5,0.1,1.2c-0.4,1.5-0.6,2.1,0.1,1.1c1.1-1.3,1.2-2.5,0-2.7C40.3,95.9,40.1,95.8,40,95.8
		L40,95.8z M56.3,96.4l-28.1,26.4l-0.1,9.9l9.8,9.9l6.9,6.7c2.5-15.1,8.3-29.5,22.5-42C65.1,103.9,61.4,99.4,56.3,96.4z M132,96.6
		c-16.5,7.8-20.3,23.7-15.2,38.2C124.7,124.7,130.8,115.1,132,96.6z M73.2,97.5l7.5,2.4l-2.8,9.7l-6.8-2.1l-0.7-1.7L73.2,97.5z
		 M131.2,97.7c-0.7,12.9-5.6,25.5-14,35.4C112.9,122.6,115.4,105.7,131.2,97.7z M90.8,97.8L90.3,99l1,0.3l0.4-1.2L90.8,97.8z
		 M89.7,100.6l-0.4,1.2l1.1,0.4l0.4-1.2L89.7,100.6z M134,100.8c-2.3,17.9-12,34.2-22.2,42.5c3.2,5.3,7.1,8.7,10.9,11.5l28.7-27.6
		l-0.1-9.2L134,100.8z M57.3,101.4c1-0.1,1.3,2.4,0.8,4.2c-0.2,0.7-0.2,1-0.2,1s0.3-0.3,1.2-0.8c5.6-2.8,3.8,1.5,1.2,3.1
		c-0.6,0.3-1.2,0.7-1.2,0.7s0.6,0.1,1.2,0.2c3.4,0.7,2.7,2.7-0.9,2.4c-0.5,0-1.1-0.1-1.1-0.1c0,0,0.2,0.8,0.5,1.4
		c1.2,3-1,3.3-2.5,1.3c-0.2-0.3-0.7-1-0.7-1s-0.1,0.6-0.2,1.1c-1.3,4.8-4.4,4.6-3.2-0.2c0.1-0.5,0.3-1.4,0.3-1.4s-0.7,0.4-1.5,0.8
		c-4.1,1.8-4.7-0.1-1-2.8c1.1-0.8,1.4-1.1,1.4-1.1c-0.7-0.1-1.3-0.2-1.8-0.3c-3-0.7-3.7-2.5,1-2.4c0.7,0,1.4,0.1,1.4,0.1
		s-0.2-1-0.5-1.8c-1.1-3.6,1.2-4,3.1-0.8c0.4,0.7,0.5,0.7,0.5,0.7C55.2,103.8,56.1,101.5,57.3,101.4z M108.9,102.1
		c-2,3.5-3.7,7-4.5,10.6l-7.7-0.1c0.5-3.2,1.9-6.6,3.5-10.1C103.3,102.3,106.1,102.2,108.9,102.1z M88.6,103.6l-0.4,1.3l1.1,0.3
		l0.4-1.3L88.6,103.6z M31.2,106c-0.8,2.1-1.1,4.5-1.6,6.4c-0.2,1.1,0,1.6,0.7,1.8c0.9,0.4,2.3-0.1,3.1-1.2c0.4-0.6,0.7-1.9,0.8-4.1
		l0.1-2C33.1,106.7,32.3,106.4,31.2,106L31.2,106z M87.6,106.3l-0.4,1.2l1.1,0.4l0.4-1.2L87.6,106.3z M137.3,106.7L137.3,106.7
		c1.3,0,1.5,0.2,2.7,0.9l2.3,2.4c-0.6,0.6-1,1.4-1,2.3c0,1.7,1.4,3.2,3.1,3.2c0.9,0,2.2-0.9,2.2-0.9l3.6,3.8c-2.3,0.9-4-0.8-5.2-2.4
		c-0.1,1.5-1.3,6.5-3.6,6.9c-1.8-0.3,0-7.3,0.1-7.2c-1.2,1.3-7.1,2.7-6.7,1.2c0.8-2.9,5.3-4,5.8-4.5
		C138.3,110.8,135.3,106.9,137.3,106.7L137.3,106.7z M31.5,106.8c0.8,0.1,1.3,0.1,1.8,0.4c0.2,0.1,0.2,0.3,0.3,0.4
		c0,0.8,0.2,3.3-0.6,3.4c-0.9,0-1.7,0.2-2.3,0.6c-0.5,0.4-0.6,0.1-0.5-0.8c0.1-0.9,0.6-2.7,0.7-3.5C31,107,31.3,106.8,31.5,106.8z
		 M55,106.9c-1.7,0-3.1,1.4-3.1,3.2s1.4,3.2,3.1,3.2c1.7,0,3.1-1.4,3.1-3.2S56.7,106.9,55,106.9z M55,108c1.1,0,2,0.9,2,2
		s-0.9,2-2,2c-1.1,0-2-0.9-2-2S53.8,108,55,108z M71.2,108c7.2,12.5,6.4,29.6-2.1,42.1l9.1-0.6l-1.2,2.3l-9.7,1
		c-1.5,1.4-2.8,2.9-4.3,4.4l0,0.5c-3.3,0.8-6.7,1.7-10.1,2.9c-1.8-1.8-5.2-5.3-5.2-5.4l0.2-1.1c23.2-11.8,16.4-35.6,14.8-37.6
		C65.4,113.3,68.5,110.3,71.2,108z M54.9,109.5c-0.3,0-0.5,0.2-0.5,0.5c0,0.3,0.2,0.5,0.5,0.5h0c0.3,0,0.5-0.2,0.5-0.5v0
		C55.5,109.7,55.2,109.5,54.9,109.5z M135.5,110.3c0.9,0,1.7,0.8,1.7,1.7c0,0.9-0.8,1.7-1.7,1.7s-1.7-0.8-1.7-1.7
		C133.8,111,134.6,110.3,135.5,110.3z M143.1,110.7l1.1,1.1c-0.1,0.1-0.2,0.3-0.2,0.4c0,0.3,0.2,0.5,0.5,0.5c0.2,0,0.3-0.1,0.4-0.2
		l1,1.1c-0.4,0.4-0.9,0.6-1.4,0.6c-1.1,0-2-0.9-2-2C142.4,111.6,142.7,111.1,143.1,110.7z M45.3,111.1c0.9,0,1.7,0.8,1.7,1.7
		c0,0.9-0.8,1.7-1.7,1.7c-0.9,0-1.7-0.8-1.7-1.7C43.6,111.9,44.3,111.1,45.3,111.1z M32.2,111.8c0.2,0,0.3,0,0.5,0.1
		c0.8,0.3,0.6,1-0.4,1.7c-0.7,0.4-1.3,0.5-1.9,0.2C29.4,113.2,31,111.8,32.2,111.8z M45.8,116l-10.2,9.9c0.6-1.6,0.7-3.3,0.7-4.9
		c3.1,0.3,4.4-1.2,3.9-4.5C42.2,116.6,44.2,116.4,45.8,116z M62.2,117.1c4.7,13.6,0.6,27.9-14.2,36.2
		C48.6,140.4,54,127.9,62.2,117.1z M75.7,118.3c8.1,2.1,17.4,3.1,27,3.1c0.1,3.7,0.2,7.6,1,11.3c-8.2-2.2-17.4-3.2-27.4-3
		C76.8,125.9,76.1,121.5,75.7,118.3z M136.1,120.3l-8.7,10.2l0.4-5.6c2.9,0.4,4-1.2,3.5-4.2C132.9,120.9,134.5,120.6,136.1,120.3z
		 M51.8,120.9l-0.7,4.1c-1.7,0-3.4,0.7-3.4,4.5l-5.2-0.1L51.8,120.9z M147.3,121.6c0.9,0,1.7,0.8,1.7,1.7c0,0.9-0.8,1.7-1.7,1.7
		s-1.7-0.8-1.7-1.7C145.6,122.4,146.3,121.6,147.3,121.6z M43.9,122.1c0.9,0,1.7,0.8,1.7,1.7c0,0.9-0.8,1.7-1.7,1.7
		c-0.9,0-1.7-0.8-1.7-1.7C42.2,122.9,43,122.1,43.9,122.1z M143.5,123.9l-0.9,6.2c-2.4-0.2-4.3,0.2-3.7,4.3c-2-0.2-4.8,0.3-6.6,0.4
		L143.5,123.9z M135,125c0.9,0,1.7,0.8,1.7,1.7s-0.8,1.7-1.7,1.7c-0.9,0-1.7-0.8-1.7-1.7S134.1,125,135,125z M31.5,126.3
		c0.9,0,1.7,0.8,1.7,1.7c0,0.9-0.8,1.7-1.7,1.7c-0.9,0-1.7-0.8-1.7-1.7C29.8,127.1,30.5,126.3,31.5,126.3z M37.1,128.3
		c2.2,0.5,1.2,5.6,0.7,6.9c0,0,6.1-3.2,6.4-1.8c0.2,2.9-5,4.9-5,4.9s3.6,3.1,3.7,5c0,1.3-1.5,1-3.4-0.6c-0.8-0.8-1.5-1.4-2-2
		c0.7-0.6,1.1-1.4,1.1-2.4c0-1.7-1.4-3.2-3.1-3.2c-1,0-1.8,0.4-2.4,1.1c-0.5-0.4-1-0.9-1.6-1.6c-1.1-1.1-1.9-1.9-1.8-2.3
		c1.5-1,4.4,1.8,4.7,2C33.9,134,35.6,128.6,37.1,128.3z M126.4,132.7c1.6,0,0.8,3.3,0.3,4.9c0,0,0.9-0.7,1.3-0.9
		c2.8-1.3,3.9,0.2,2.4,1.9c-0.7,0.9-1.6,1.1-2.4,1.8c1.9,0.1,3.5,0.5,4.5,2.1c-0.8,1.5-3.4,1.1-5.5,0.6c1.2,1.4,1.7,5.2,0.3,5.2
		c-1.5-0.4-2.2-2.1-2.8-3.3c-0.5,1.3-1,2.8-2,3.8c-1.1,1-1.6,0.2-1.6-1.5c0-0.7,0.5-2.7,0.5-2.7c-6.3,2.1-5.9-0.8-0.9-3.3
		c-3-1.5-4.9-2.8,0.3-3.1c-0.1-0.1-1-2.9-0.1-3.6c0.9-0.6,2.8,1.5,2.9,1.6C124.2,134.4,124.9,132.7,126.4,132.7z M35.3,136.4
		c1.1,0,2,0.9,2,2c0,0.7-0.3,1.2-0.8,1.6c-0.5-0.5-0.7-0.7-1.1-1.1c0.1-0.1,0.2-0.3,0.2-0.4c0-0.3-0.2-0.5-0.5-0.5
		c-0.2,0-0.3,0.1-0.4,0.2c-0.3-0.3-0.7-0.7-1-1C34.1,136.7,34.6,136.4,35.3,136.4z M148.5,136.5c-1.1,0.1-1.8,1.1-2.3,1.9
		c-0.1,0.2-0.3,0.2-0.4,0.5c-0.5,1.5-0.9,3.2-1.1,5.4c0.7,0.3,2.3,0.8,3,0.5c0.2-0.1,0.1-0.6,0.2-0.8
		C148.3,143,151,136.3,148.5,136.5z M148.2,136.8c0.3,0,0.5,0.1,0.7,0.5c0.3,0.7-0.6,1.4-1.8,1.4c-0.7,0-0.9,0.1-0.6-0.5
		C146.8,137.8,147.6,136.9,148.2,136.8z M133.5,136.9c0.9,0,1.7,0.8,1.7,1.7s-0.8,1.7-1.7,1.7s-1.7-0.8-1.7-1.7
		C131.8,137.6,132.6,136.9,133.5,136.9z M43.9,137c0.9,0,1.7,0.8,1.7,1.7c0,0.9-0.8,1.7-1.7,1.7c-0.9,0-1.7-0.8-1.7-1.7
		C42.2,137.8,42.9,137,43.9,137z M124.2,137.7c-1.7,0-3.1,1.4-3.1,3.2c0,1.7,1.4,3.2,3.1,3.2s3.1-1.4,3.1-3.2
		C127.4,139.1,126,137.7,124.2,137.7z M82.2,138.1c-0.8,3.6-2.1,7.1-3.7,10.5c-3,0.2-6.3,0.3-8.5,0.6c3.6-6.3,3.7-7.8,5-11.2
		L82.2,138.1z M87.4,138.6c0.9,0.1,1.8,0.2,2.6,0.4c-1.5,5.5-3.6,11.1-6.2,16.5l-1.6-0.2l-0.8-0.9l2.5-1l-2-2l3.3-1l-2-2l3.2-0.8
		l-1.7-2.1l2.9-1.1l-1.8-2.4L89,141L87.4,138.6z M124.2,138.8c1.1,0,2,0.9,2,2c0,1.1-0.9,2-2,2c-1.1,0-2-0.9-2-2
		C122.2,139.7,123.1,138.8,124.2,138.8z M90.6,139.1l1.1,0.2l-0.3,1.2l1.2,0.3l0.4-1.3c0,0,1,0.1,1.1,0.2
		c-1.3,5.3-5.9,16.3-5.9,16.2l-1.2-0.2l0.3-1.1l-1.1-0.2c0,0-0.4,0.8-0.5,1.2l-1.2-0.1C87.4,149.1,89.3,144.1,90.6,139.1z
		 M148,139.5c0.9,0,0.8,0.4,0.2,2.1c-0.6,1.5-0.8,2.2-1.1,2.4c-0.7,0.5-2.2,0.1-2-0.6c0.4-2.3,0.5-3.3,1.1-3.6
		C146.8,139.6,147.4,139.5,148,139.5z M95,139.7l2.8,0.5l-2.4,1.4l1.5,1.8l-2.9,1.2l1.8,1.8l-2.8,1.1l1.7,2l-2.9,1.2l2,1.7l-3.3,1
		l1.2,1.9l-1.2,0.7L89,156C91.5,150.1,93.1,145.3,95,139.7z M124.3,140.3c-0.3,0-0.5,0.2-0.5,0.5v0c0,0.3,0.2,0.5,0.5,0.5
		s0.5-0.2,0.5-0.5C124.8,140.5,124.6,140.3,124.3,140.3L124.3,140.3z M101.9,141.1l5.5,1.5l1.1,2l-2.6,8.8l-7.4-2.2L101.9,141.1z
		 M90.9,142l-0.5,1.4l1.2,0.3l0.5-1.5L90.9,142z M89.9,145.3l-0.5,1.4l1.1,0.2l0.5-1.5L89.9,145.3z M88.8,148.2l-0.5,1.4l1.1,0.2
		l0.5-1.4L88.8,148.2z M140.7,150.8c0,0-0.6,0.4-0.7,0.6c0.1,0.3,0.5,0.8,0.4,1.2c0,0.2-0.3,0.5-0.7,0.9c-1,1.2-1.4,1.1-0.8-0.2
		c0.2-0.4,0.3-0.8,0.3-0.8c-0.2,0.3-0.4,0.7-0.6,1.1c-0.3,0.7-0.7,1.3-0.7,1.3c0.7,0.2,1.1,0.7,1.5,1c0,0,0.2-0.6,0.4-1.1
		c0.2-0.8,0.6-1.1,1.1-1.4c0.3-0.2,0.6-0.5,0.6-0.5C141,152.3,140.9,151.5,140.7,150.8z M87.6,151.2l-0.6,1.5l1.1,0.3l0.6-1.6
		L87.6,151.2z M25.1,155c-0.1,6.1,0.1,10.1-0.1,16.6L41.4,193l-2.6,0.9c0,0,0,0.3-0.2,0.3c-3.5,1-9.2,1.9-9.2,1.9
		c4.2,9.7,7,21.8,5.1,33.9l42.5-0.1L25.1,155z M79.4,156.3c12.3,0.1,24.6,3.2,35.6,9l-1.5,1.5c-21.6-11.7-51.3-11.7-73.1,2.5
		l-1.8-1.3C51.3,159.9,65.4,156.1,79.4,156.3z M25.9,157.1l50,72l-5.9,0.1L26,171.4L25.9,157.1z M133.2,158.4
		c-5.3,1-7.9,3.1-7.4,6.7c0.1,1.4,1.7-0.1,1.7-0.1c0,0,2.9-2.3,8.4-3.4l-0.2,3.3c-6.9,0-6.5,5.5-4.5,8.3c-0.7,1.3-2.2,5.9,2.8,7.7
		c2.5,0.5,5.1-1.5,5-1.6c4.6,2.2,9.9-1.5,5.8-7.8c1.6-2.8,0.5-4.8-1-6.6c2.1,0.3,4.1,0.9,7,0.9c0-3-2.5-4.3-7.6-4.7
		C139.6,161.6,133.2,158.4,133.2,158.4z M77.9,158.8L77.9,158.8h0.7l-0.2,5.1l-5.6,0.3l-0.4-5.1C74.4,158.9,76.1,158.8,77.9,158.8
		L77.9,158.8z M84.6,158.9l6,0.7l-0.9,4.7l-5.5-0.6L84.6,158.9z M133.1,159c0.5,0.1,0.3,0.6-0.3,0.8c-1.1,0.2-3.8,1.8-3.8,2.2
		c0,0.3,0.1,0.2,1.1-0.3c1.4-0.7,2.8-1.2,4.3-1.8c0.9-0.4,1.4-0.1,1.1,0.7c-0.2,0.5-0.3,0.6-2.5,1.2c-2.3,0.7-3.4,1.5-5.4,2.6
		c-1.3,0.7-1.5,0.7-1.5-0.2C126.3,160.5,130.5,159.3,133.1,159z M81.3,159.6c0.7,0,1.4,0.6,1.4,1.4c0,0.8-0.6,1.4-1.4,1.4
		s-1.4-0.6-1.4-1.4C80,160.2,80.6,159.6,81.3,159.6z M66.5,159.9l0.4,4.6l-5.5,1.4l-1.3-4.8C62.3,160.7,64.4,160.3,66.5,159.9z
		 M137.2,160.3c1.5,0.2,1.4,3.7,0.6,4.3c-1.2,0.9-1.9-0.9-1.4-3.3C136.6,160.6,136.9,160.3,137.2,160.3z M69.6,160.5
		c0.7,0,1.4,0.6,1.4,1.4c0,0.8-0.6,1.4-1.4,1.4s-1.4-0.6-1.4-1.4C68.3,161.1,68.9,160.5,69.6,160.5z M96.4,160.9l6.2,1.7l-1.5,4.8
		l-5.8-1.6L96.4,160.9z M93,161c0.7,0,1.4,0.6,1.4,1.4s-0.6,1.4-1.4,1.4c-0.7,0-1.4-0.6-1.4-1.4S92.3,161,93,161z M143.8,161.4
		c2.7,0,6.2,1.4,6.2,3.4c-0.1,0.6-5.6-0.2-8.2-1.2c-0.9-0.4-2-1.5-2-1.9c0-0.3,0.5-0.3,0.8,0c0.4,0.4,1.6,0.9,4.6,1.6
		c2.3,0.6,2.5,0.6,2.5,0.2c-0.4-0.7-3.7-1.1-5.3-1.6C141,161.5,143.3,161.4,143.8,161.4z M139.1,162.4c0.7,0.3,0.9,0.9,1.3,1.3
		c-0.5,0.2-0.7,0.4-1.4,0.5C139,163.7,138.8,163.1,139.1,162.4z M57.8,162.8c0.7,0,1.4,0.6,1.4,1.4c0,0.8-0.6,1.4-1.4,1.4
		s-1.4-0.6-1.4-1.4S57.1,162.8,57.8,162.8z M54.2,163.2l1.5,4.7l-5.2,2.3l-1.9-4.7C50.4,164.6,52.3,163.9,54.2,163.2z M78.4,164
		c0,0,4.2,0,5.6,0l-0.3,5.3l-5.2,0L78.4,164z M72.9,164.3l0.3,5.3l-5,0.7l-1-5.3L72.9,164.3z M104.6,164.3c0.7,0,1.4,0.6,1.4,1.4
		c0,0.8-0.6,1.4-1.4,1.4c-0.7,0-1.4-0.6-1.4-1.4C103.2,164.9,103.8,164.3,104.6,164.3z M140.9,164.4c3.1,0,6,3.5,3,7.2
		c5,3.8-0.4,10.2-4.8,6.5c-6.3,6.2-9.8-2.2-7.2-4.4c-3.8-6.3,0.9-10.3,5.7-7.5C138.5,165,139.7,164.4,140.9,164.4z M89.7,164.6
		l5.5,1.2l-1.1,5.2l-5.4-1.1L89.7,164.6z M108,164.7l5,2.5l-3.9,3.8l-2.9-1.4L108,164.7z M75.7,165.3c0.7,0,1.4,0.6,1.4,1.4
		c0,0.8-0.6,1.4-1.4,1.4c-0.7,0-1.4-0.6-1.4-1.4C74.3,165.9,74.9,165.3,75.7,165.3z M86.6,165.5c0.7,0,1.4,0.6,1.4,1.4
		c0,0.8-0.6,1.4-1.4,1.4C84.6,167.9,85.1,165.5,86.6,165.5z M61.5,166.2l1.2,5.2l-5.1,1.7l-1.8-5.1L61.5,166.2z M65,166.6
		c0.7,0,1.4,0.6,1.4,1.4c0,0.8-0.6,1.4-1.4,1.4s-1.4-0.6-1.4-1.4C63.6,167.2,64.2,166.6,65,166.6z M142.4,167.1
		c-0.1,0-0.3,0.1-0.4,0.2c-0.7,0.9-1.6,1.9-2.3,2.8c-1.3-0.5-2.5-0.3-3.3,0.2c-1.1-0.9-2-1.7-3.2-2.4c-0.2-0.1-0.4,0-0.3,0.2
		c0.8,1.1,2,1.8,2.9,2.9c-0.4,1.2-0.4,2.2,0.3,3.2c-0.5,0.9-1.6,2-2.3,3.3c-0.2,0.5,0.3,0.4,0.3,0.4c1.1-0.8,1.6-1.9,2.8-2.9
		c1.3,0.3,2,0.7,3.2-0.4c1.2,0.6,1.9,1.4,3.2,2.2c0.4,0.3,0.6-0.3,0.4-0.5c-1.1-1.1-1.9-1.6-3.1-2.6c0.3-0.4,0.5-2-0.5-3.1
		c0.8-1,1.2-1.5,2.3-3C142.8,167.3,142.6,167.1,142.4,167.1z M101.2,167.5l5,2.1l-1.8,5.2l-4.8-2L101.2,167.5z M46.5,167.9
		c0.7,0,1.4,0.6,1.4,1.4s-0.6,1.4-1.4,1.4c-0.7,0-1.4-0.6-1.4-1.4S45.7,167.9,46.5,167.9z M97.3,168c0.7,0,1.4,0.6,1.4,1.4
		c0,0.8-0.6,1.4-1.4,1.4c-0.7,0-1.4-0.6-1.4-1.4C96,168.6,96.6,168,97.3,168z M43,168.4l1.6,4l-3.7-2.8L43,168.4z M83.8,169.4
		l4.9,0.6l-0.8,4.7l-4.3-0.4L83.8,169.4z M78.4,169.4l0,4.9l-4.7,0.2l-0.4-4.9L78.4,169.4z M54.2,170.3c0.7,0,1.4,0.6,1.4,1.4
		c0,0.8-0.6,1.4-1.4,1.4c-0.7,0-1.4-0.6-1.4-1.4C52.8,170.9,53.5,170.3,54.2,170.3z M50.5,170.4l1.9,4.9l-3,1.4l-4-3.8L50.5,170.4z
		 M68.2,170.5l0.8,4.6l-4.9,1.2l-1.2-4.7L68.2,170.5z M138.2,170.5c1.1,0,1.9,0.9,1.9,1.9s-0.9,1.9-1.9,1.9s-1.9-0.9-1.9-1.9
		S137.2,170.5,138.2,170.5z M80.9,170.7c0.7,0,1.4,0.6,1.4,1.4s-0.6,1.4-1.4,1.4s-1.4-0.6-1.4-1.4S80.1,170.7,80.9,170.7z
		 M94.2,171.2l5.2,1.7l-1.8,4.2l-4.5-1.2L94.2,171.2z M71,171.4c0.7,0,1.4,0.6,1.4,1.4c0,0.8-0.6,1.4-1.4,1.4s-1.4-0.6-1.4-1.4
		C69.7,172,70.3,171.4,71,171.4z M138.2,171.5c-0.6,0-1,0.4-1,1c0,0.6,0.4,1,1,1s1-0.4,1-1C139.2,171.9,138.8,171.5,138.2,171.5z
		 M90.9,171.9c0.7,0,1.4,0.6,1.4,1.4c0,0.8-0.6,1.4-1.4,1.4c-0.7,0-1.4-0.6-1.4-1.4C89.6,172.5,90.2,171.9,90.9,171.9z M57.7,173.4
		l1.8,4.2l-4.9,2.1l-2.1-4.2L57.7,173.4z M61.2,173.7c0.7,0,1.4,0.6,1.4,1.4c0,0.8-0.6,1.4-1.4,1.4s-1.4-0.6-1.4-1.4
		C59.9,174.3,60.5,173.7,61.2,173.7z M79.3,175c8.1,0,15.4,1.7,21.2,4.1l-1.7,1.6c-19-6.5-31.4-3.6-44.1,2l-1.3-1.6
		C62.4,176.7,71.3,175,79.3,175z M100.8,175c0.7,0,1.4,0.6,1.4,1.4c0,0.8-0.6,1.4-1.4,1.4c-0.7,0-1.4-0.6-1.4-1.4
		C99.4,175.6,100.1,175,100.8,175z M51.3,178L51.3,178L51.3,178c1.1,0.1,1.2,2.1,0.7,1.5l-1.2-1.4C51,178,51.2,178,51.3,178
		L51.3,178z M102.1,178.8c0,1.5-1.5,11.9-6.4,19c-0.3-3.6-1.2-7.9-2.1-10.8C93.5,187.1,98.8,182.2,102.1,178.8z M39.1,194.5
		l25.6,34.6l-2.7,0c-1.1-6.5-4.8-9.9-9.2-11.7c-0.4-5.5-3.7-10.4-9.3-12.2c-0.4-3.7-2-7.3-6.1-10.3L39.1,194.5z M36.5,195.3
		c4.9,3.8,5.1,4.7,6.6,10.5c7,2.4,8.8,7.6,9.2,12c4.6,1.8,8.4,5.7,9.1,11.3l-1.4,0c-1-6.3-5-8.9-9.2-10.1c0.3-8.9-6.6-11.7-9-12.2
		c0.1-6.4-4-9.1-6.7-11.3C35.6,195.5,36.1,195.4,36.5,195.3L36.5,195.3z M32.4,196.2c2.1,0.7,3.7,3.6,3.5,5c2.8,0.3,5.7,3,5,5.8
		c-0.2,0.1-0.5,0.1-0.8-0.2c0.7-5.4-7.3-2.7-4.1,1.2l-1.4,0.9c-1.2-5.4-2.6-8.5-4.1-12.4C31,196.4,32.4,196.2,32.4,196.2z
		 M39.1,207.6c0.7,0,1.3,0.6,1.3,1.3c0,0.7-0.6,1.3-1.3,1.3s-1.3-0.6-1.3-1.3C37.8,208.2,38.4,207.6,39.1,207.6z M42.4,208.2
		c1.9-0.1,3.7,3.4,3.6,5.2c3.1,0.9,4.1,4,4,5.1l-0.7,0c-1.1-5-6.7-2.3-4.4,1.7c-3,1.1-2.8,3.9-1.9,5c1.2,1.5,4.3,1.5,5.3-0.9
		c2.9,3.8,7-0.5,3.4-4c2.9,1.1,3.4,5,2.9,6.2c1.4,0.5,2.9,2.6,2.7,2.6l-21.9,0c0,0,1.1-8.8-0.1-15.5c1.5,0.4,2.4,0.7,4.1-1.3
		c2.7,2.2,4.7,0.6,4.5-1.4c-0.2-1.4-0.9-2-2.1-2.7C42.2,208.2,42.3,208.2,42.4,208.2z M48.5,219.7c0.7,0,1.3,0.6,1.3,1.3
		c0,0.7-0.6,1.3-1.3,1.3c-0.7,0-1.3-0.6-1.3-1.3C47.1,220.3,47.7,219.7,48.5,219.7z"/>
	<path class="st2" d="M14.6,56.8c-1.7-2.9-3.5-5.6-5.8-8c2.3-2.4,4.1-5.1,5.8-8c1.7,2.9,3.5,5.6,5.8,8C18.1,51.2,16.3,54,14.6,56.8z
		"/>
	<path class="st2" d="M164.9,210.3c-1.7-2.9-3.5-5.6-5.8-8c2.3-2.4,4.1-5.1,5.8-8c1.7,2.9,3.5,5.6,5.8,8
		C168.5,204.7,166.7,207.5,164.9,210.3z"/>
	<path class="st2" d="M48.5,65.4c-4.1-6.9-8.5-13.5-14-19.2c5.5-5.7,9.8-12.3,14-19.2c4.1,6.9,8.5,13.5,14,19.2
		C57,51.9,52.7,58.5,48.5,65.4z"/>
	<path class="st2" d="M131,224.1c-4.1-6.9-8.5-13.5-14-19.2c5.5-5.7,9.8-12.3,14-19.2c4.1,6.9,8.5,13.5,14,19.2
		C139.5,210.6,135.1,217.3,131,224.1z"/>
	<path class="st2" d="M8.8,29.6H6.5v-3h2.2c0,0,0-1.6,0.1-4.5c0.1-6.1,0.3-7,2.1-8.7c3.5-3.3,9.3-0.6,9.2,4.4
		c-0.1,7,0,13.7-0.2,14.7c-0.4,1.7-0.4,1.8-0.3,2.1c0.3,0.6,2.9,0.9,2.9,0.7v3c-2,0.2-2.8,0-4.5-1.2c-1,1-4.1,1.9-6.5,0.8
		C9.8,36.9,8.4,34.7,8.8,29.6z M16.2,34.8c-1.1-1.6-2.9-3.7-4.7-4.5c-0.1,1.8,0,3.3,0.7,4.2C13.2,35.8,14.9,36.1,16.2,34.8z
		 M17.1,17.4c-0.8-2.3-2.9-3.1-4.4-1.6c-1,0.9-1.1,1.8-1.1,7c0,3.2,0,4.5,0,4.5c3,1,5.7,4.4,5.7,4.4l0.1-9.5
		C17.4,20.5,17.3,19,17.1,17.4L17.1,17.4z"/>
	<path class="st2" d="M170.7,221.6h2.2v3h-2.2c0,0,0,1.6-0.1,4.5c-0.1,6.1-0.3,7-2.1,8.7c-3.5,3.3-9.3,0.6-9.2-4.4
		c0.1-7,0-13.7,0.2-14.7c0.4-1.7,0.4-1.8,0.3-2.1c-0.3-0.6-2.9-0.9-2.9-0.7v-3c2-0.2,2.8,0,4.5,1.2c1-1,4.1-1.9,6.5-0.8
		C169.7,214.2,171.1,216.5,170.7,221.6z M163.3,216.3c1.1,1.6,2.9,3.7,4.7,4.5c0.1-1.8,0-3.3-0.7-4.2
		C166.2,215.3,164.6,215,163.3,216.3z M162.4,233.7c0.8,2.3,2.9,3.1,4.4,1.6c1-0.9,1.1-1.8,1.1-7c0-3.2,0-4.5,0-4.5
		c-3-1-5.7-4.4-5.7-4.4l-0.1,9.5C162.1,230.6,162.2,232.2,162.4,233.7z"/>
</g>
</svg>
