<?xml version="1.0" encoding="utf-8"?>
<!-- Generator: Adobe Illustrator 21.0.0, SVG Export Plug-In . SVG Version: 6.00 Build 0)  -->
<svg version="1.1" id="Layer_1" xmlns="http://www.w3.org/2000/svg" xmlns:xlink="http://www.w3.org/1999/xlink" x="0px" y="0px"
	 viewBox="0 0 178.6 249.4" style="enable-background:new 0 0 178.6 249.4;" xml:space="preserve">
<style type="text/css">
	.st0{fill:#FFFFFF;}
	.st1{fill:#D40000;}
	.st2{fill:#131F67;}
	.st3{fill:#E2CF00;}
</style>
<g>
	<path class="st0" d="M9,0.4h161.5c4.7,0,8.5,3.8,8.5,8.5v232.4c0,4.7-3.8,8.5-8.5,8.5H9c-4.7,0-8.5-3.8-8.5-8.5V9
		C0.5,4.3,4.3,0.4,9,0.4z"/>
	<path class="st1" d="M14.2,56.4c0,0-1.8-2.6-4.2-5.6c-1.6-2-2.9-4.2-3-6.1c-0.1-2.1,1.2-4.3,3.5-4.4c2.3-0.1,3.3,1.6,3.7,3.1
		c0.4-1.4,1.3-3.2,3.7-3.1c2.3,0.1,3.6,2.2,3.5,4.4c-0.1,1.9-1.4,4-3,6.1C16,53.9,14.2,56.4,14.2,56.4L14.2,56.4z"/>
	<path class="st1" d="M165.3,193.9c0,0-1.8,2.6-4.2,5.6c-1.6,2-2.9,4.2-3,6.1c-0.1,2.1,1.2,4.3,3.5,4.4c2.3,0.1,3.3-1.6,3.7-3.1
		c0.4,1.4,1.3,3.2,3.7,3.1s3.6-2.2,3.5-4.4c-0.1-1.9-1.4-4-3-6.1C167,196.5,165.3,193.9,165.3,193.9z"/>
	<path class="st1" d="M8.4,29.2H6.2v-3h2.2c0,0,0-1.6,0.1-4.5c0.1-6.1,0.3-7,2.1-8.7c3.5-3.3,9.3-0.6,9.2,4.4
		c-0.1,7,0,13.7-0.2,14.7c-0.4,1.7-0.4,1.8-0.3,2.1c0.3,0.6,2.9,0.9,2.9,0.7v3c-2,0.2-2.8,0-4.5-1.2c-1,1-4.1,1.9-6.5,0.8
		C9.4,36.5,8,34.3,8.4,29.2z M15.9,34.4c-1.1-1.6-2.9-3.7-4.7-4.5c-0.1,1.8,0,3.3,0.7,4.2C12.9,35.4,14.6,35.7,15.9,34.4L15.9,34.4z
		 M16.8,17.1c-0.8-2.3-2.9-3.1-4.4-1.6c-1,0.9-1.1,1.8-1.1,7c0,3.2,0,4.5,0,4.5c3,1,5.7,4.4,5.7,4.4l0.1-9.5
		C17.1,20.1,17,18.6,16.8,17.1L16.8,17.1z"/>
	<path class="st1" d="M171.1,221.2h2.2v3h-2.2c0,0,0,1.6-0.1,4.5c-0.1,6.1-0.3,7-2.1,8.7c-3.5,3.3-9.3,0.6-9.2-4.4
		c0.1-7,0-13.7,0.2-14.7c0.4-1.7,0.4-1.8,0.3-2.1c-0.3-0.6-2.9-0.9-2.9-0.7v-3c2-0.2,2.8,0,4.5,1.2c1-1,4.1-1.9,6.5-0.8
		C170.1,213.8,171.5,216.1,171.1,221.2z M163.6,215.9c1.1,1.6,2.9,3.7,4.7,4.5c0.1-1.8,0-3.3-0.7-4.2
		C166.6,214.9,164.9,214.6,163.6,215.9z M162.7,233.3c0.8,2.3,2.9,3.1,4.4,1.6c1-0.9,1.1-1.8,1.1-7c0-3.2,0-4.5,0-4.5
		c-3-1-5.7-4.4-5.7-4.4l-0.1,9.5C162.4,230.2,162.5,231.8,162.7,233.3z"/>
	<path class="st2" d="M24.1,19.6v211.2h131.2V19.6H24.1z M26.2,21.3h54.1l-0.2,13.5c0,0-0.1,0.3-0.2,0.5c1.1,0.6,1.3,9,0.9,11.9
		c0.2,0.9,0.1,2.5,0.1,2.5c-3.3,4.5-5,8.7-6.4,13.9c-0.6,0.2-1.4,0.7-2,0.8l-0.2,0.7c1.3-0.7,4.9-1.9,4.9-1.9
		c16.1,7.9,28,6,40.7,0.1c-1.7,7.9,1.8,18.3,12.7,18.3c0.4-0.1-2.3-6.2-3-6.5c-3.5-1.5-4.9-5.1-4.6-9.2l-0.6-1
		c-1.2,5,1.7,10,5.6,11.3l1.1,2.3c-7.1-2.2-10.2-8.9-7.8-15.5c-1.2-5.5-2.9-6.3-3.9-7.8c-6.2-2.4-7.4-8.2-6.3-12.8
		c0.1-0.9-2-4.1-1.9-4.1c-2.1,4.6-3,10.5,1.8,16.4c-3.1,4.2-7.2,7.5-11.7,10.3c-6.6,3.5-11.6,1.1-14.8-6.6
		c-1.9-4.6-2.6-9.2-2.6-14.1c0-3,0-3.1,1.2-2.6c1,0.5,3.3,0.5,4.7-0.2c0.8-0.4,1.2-0.5,1.3-0.4c0.1,0.2-0.4,0.9-1.6,2.1
		c-0.5,0.6-1.2,1.4-1.2,1.4s0.9-0.1,2.1-1.4c0.4-0.4,1.3-1.5,1.3-1.5s-0.2,1.2-0.4,1.8c-0.1,0.2-0.3,1.2-0.5,2.2s-0.5,2.2-0.6,2.6
		c-0.5,1.7-0.4,2.5,1.2,3.3c0.9,0.4,2.3,1.8,2.3,1.8c0,0-0.4-1.6-0.2-2.1c0.2-0.6,0.9-0.2,1.6,0.2c1.6,0.8,2.5,0.8,3.4,0.1
		c1.2-1,0.8-3.2-0.6-3.8c-1.1-0.4-1.3,0-0.2,0.7c1.6,1.1-0.2,2.9-1.6,1.8c-1.1-0.8-2.9-0.9-3.1-0.2c-0.2,0.7-0.4,0.5-1.1,0.1
		c-1.2-0.7-1.2-0.8-0.2-4.5c1.8-7.1,1.7-9.7-0.8-11.9c-1.8-1.6-4.8-2.3-7.9-0.6v-2.4c4.5-1.8,7.8-4.9,10.5-9.9h0.5
		c2.6,5.8,6.9,10,14.9,13c0.7,0.4-1.3-4.5-1.7-4c-4.3-1.7-8.1-5-10.2-9h1.2c1.2,1.8,3.7,5.1,8.1,7.4c0.2-1.1-2.8-5.9-3.5-7.4h37
		c-1.2,9.1-2.8,18.8,3.7,36.4c-3.1-1.6-15.3,1.8-13.1,2.5c1.1-1.3,8.9-3.1,14.7-1.7c-0.5-0.4-8.8-19.9-4-37.2h14.1v82.1
		c-0.1-0.5-1.2-1-1.1-1.3c0.1-0.8,0-2.2-0.5-2.8c-0.2-0.3-0.6-0.6-0.7-0.9c-0.4-0.7-1-1.5-1.4-1.7c-0.2-0.1-0.5-0.2-0.5-0.3
		c0-0.2-0.1-0.7-0.2-1.1c-0.3-1.2-0.5-1.1,0.3-2.3c2.7-4.7,4.3-8.8,2.7-14.2c-2.5,2.5-4.3,5.6-5.9,7.8c-0.4-3.2-0.3-5.7-0.4-8.3
		c1.3-0.4,2.1-1.1,2.7-2.9c0,0,1.4,1.1,2.3,1l-0.6-2.1c3.8-1.2,4.3-6.1-0.2-7.2l0.4-2.6c-0.7,0.3-2.2,0.8-2.2,0.8
		c-2.2-4.3-6.2-2.6-7.1,0.2l-1.7-0.7c0.2,0.9,0.4,1.8,0.3,2.7c-3.7,1.6-2.8,6.1,0.2,6.7l-0.3,2.1l2.2-0.7c0.3,1,0.2,1.6,1.9,2.7
		c0,4.4-0.1,7.1,0,11c-2.3-2.4-4.5-4-8.4-5.2c0,0,0,0.9,0.2,2.4c0.1,0.5,0.1,0.4-0.2,0.4c-0.5,0-2.9-3.8-2.9-3.8
		c-3.9,8.2-10,21.5-18,29.4c-4.3,4.3-6.5,9-7.6,13c0,0-1.7,0-3.1-0.3c2-9.3,6.4-28.3,6.4-28.3s3.1-0.9,4.9-1.1l0-0.7l-4.3,1l0.2-1.6
		l4-0.8l0-0.4l-4.3,0.6L111,91c0,0-9.6,1.4-13,1.3c0.2,10.5-0.6,19.2-0.2,30.6l-4.7-2.8c-0.4-7.9-0.5-27.8-0.5-27.8l-12.9-2l0.4,3.1
		C69.4,89,58.7,85.1,50.8,76.8c4.9-3.8,13-7.5,13-7.5l-0.3-0.6C43.5,79,36.3,86.2,26.2,95.1L26.2,21.3z M81.1,21.3h1.6
		c-0.4,0.7-0.9,1.4-1.7,1.8L81.1,21.3z M83.9,21.3h1.7c-1.4,2.2-2.8,3.6-4.6,4.6l0-1.7C82.1,23.3,83.1,22.3,83.9,21.3z M86.8,21.3
		h1.6c-2.2,3.4-4.4,5.7-7.3,7.2v-1.4C82.9,25.7,85.4,23.5,86.8,21.3z M89.2,21.3h1.3c-2.2,4.3-5.4,7.4-9.5,9v-1
		C85.6,26.8,87.5,24.1,89.2,21.3z M92.8,21.3h1.6c2.2,4.3,6.6,8.5,11.5,10.2l0.7,1.7C100.2,30.9,95.9,27.4,92.8,21.3z M97.3,21.3
		h1.1c1.2,1.6,2.6,3.1,4.3,4.2l1,2C101.5,25.9,99,24,97.3,21.3z M99.4,21.3h1.3l1.7,2.9C101.2,23.6,100.4,22.2,99.4,21.3z M98,32.5
		c-1.7,0-3.3,0.5-4.4,1.4c-1.2,1-0.3,2,1.4,1.2c2.9-1.4,6.3-0.8,9.9,1.2c3.1,1.7,2-0.1-0.9-1.9C102,33.2,99.9,32.5,98,32.5z
		 M84.2,34.7c2.5,0,5.3,1.1,5.3,2.6c-1.6-1.4-4.9-2-8.1-0.6c-0.2-0.1-0.3-0.9-0.1-1.2C82,34.9,83,34.7,84.2,34.7z M99.1,35.7
		c-1.6,0-3,0.4-3.6,1.3c-0.3,0.4-0.4,0.5-0.8,0.4c-0.7-0.1-0.7,0.3,0.1,1.5c0.4,0.6,0.3,1.2-0.2,2c-0.6,0.9-0.5,0.9,1.3,1.8
		c0.7,0.3,1.3,0.7,1.8,1.1c1,0.7,1.8,1.4,3,1.7c-0.6-0.7-1.7-1.5-2.7-2.3c-1-0.6-1.6-1.4-1.6-1.4s1.1,0.3,1.5,0.4
		c1.3,0.3,2.7,0.5,3.8,0.2c0.8-0.2,1.9-0.7,2.7-1.4c0.2-0.1,0.4,0,1,0c2,0.1,1.6-0.5-1.3-2.1c-2.9-1.6-5.2-1.9-7-1
		c-0.8,0.4-1.2,0.5-1.1,0.2c0.1-0.2,0.3-0.5,0.7-0.7c3-1.8,5.4-0.3,8.1,1c1.1,0.7,1.6,0.6,1.6,0.6C104.3,36.9,101.6,35.7,99.1,35.7z
		 M85.4,36.5c1.5,0,2.8,0.6,4,1.3c0.5,0.2,0.3,0.8-0.2,0.6c-2.8-1.3-3.3-1.9-6.6-0.7c-1.1,0.4-1.5,0-0.2-0.5
		C83.5,36.6,84.5,36.5,85.4,36.5z M87.5,39.2c-0.8,3.8-4.6,2.7-4.1,0l0.7,0c0.1,2.3,2.4,2.3,2.8,0L87.5,39.2z M109.7,39.2l1,2.2
		c-2.2,5.5,0.8,13,7.4,14.8c-0.2,0.1,0.9,1.7,0.9,1.9C106.5,55.3,107.5,43.4,109.7,39.2z M97.9,39.4l0.3,0c1.1,2.7,2.6,1.1,2.9,0
		l0.8,0C101.7,42.2,97.5,42.7,97.9,39.4z M88.3,39.5c0.5-0.1,0.7,0.7,0.5,0.8c0,0-1,0.9-1.1,0.4C87.6,39.9,88.1,39.5,88.3,39.5z
		 M82.5,39.5l0.1,0c0.3,0.2,0.4,1,0.3,1.3c-0.2,0.2-0.9-0.1-1.1-0.4C81.6,40.1,81.9,39.5,82.5,39.5L82.5,39.5z M102.7,39.8
		c0.2,0,0.9,0.3,0.9,0.6c0,0.1-1,0.8-1.2,0.7C102,40.9,102.5,39.9,102.7,39.8L102.7,39.8z M97.2,39.9L97.2,39.9
		c0.1,0.1,0.7,0.4,0.2,1.1l-0.7-0.3C96.6,40.4,97.1,39.9,97.2,39.9z M112.2,44.8c-0.2,3.2,0.7,6.3,4.1,8.3l-0.7-1.4
		c-0.9-0.7-2.7-2.7-2.5-5.2L112.2,44.8z M81.1,50.5l0.4,2.1c-1.9,3.2-3.3,6.3-4.5,10l-1.8,0.7C76.6,58.6,77.9,54.9,81.1,50.5z
		 M81.9,53.7l0.5,1.8c-0.9,1.7-1.9,3.7-2.5,6l-2,0.7C78.8,59.2,80.1,56.3,81.9,53.7z M88.2,54.5L88.2,54.5c-0.1,0.4-0.1,1.3,0,3
		c0,0.3,0.3,0.2,1.2-0.3c0.7-0.4,0.7-0.4,1.4-0.2c2,0.7,2.9,0.4,3.6,0.2c1.2-0.3,1.7-0.2,2.3,0.2c0.4,0.2,0.9,0.4,1,0.4
		c0.5,0.2,0.3,0,0-1.5c-0.4-1.7-0.2-1.8-0.9-1.4c-0.1,0.1-0.6,0.3-0.8,0.4c-0.6,0.1-1.5-0.6-2.1-0.4c-1.4,0.5-1.4,0.4-2.7,0.1
		c-0.6-0.2-1.3,0.2-1.8,0.3C89.1,55.3,88.7,54.5,88.2,54.5L88.2,54.5z M111.8,55.3c2.3,2.2,4.8,2.9,7.4,3.7
		c-0.3,1.1-0.9,2.3-1.2,3.7c-13.6,7.2-27.3,7-40.2,0.4l6.7-2.6c3.7,6.4,8.3,8.1,13.6,6C104,63.8,108.3,60,111.8,55.3z M82.7,56.6
		l0.6,1.6l-0.9,2.4l-1.6,0.7C81.1,59.6,81.7,58.3,82.7,56.6z M95,58.4c-0.4,0-1,0.3-2.4,0.3c-0.8,0-1.4-0.1-1.7,0
		c-0.6,0.1,0.1,0.4,1.5,0.8c1.4,0.4,3-0.2,3.2-0.8C95.7,58.6,95.6,58.4,95,58.4z M83.7,59.2l0.4,0.8l-0.6,0.2L83.7,59.2z
		 M119.9,59.6l1,2.3c-1.8,3.8-2.9,14.3,8.8,17.6l0.5,1.5C122.2,81.2,114.2,71,119.9,59.6z M93,60.4c-1.1,0-2.3,0.3-3.1,0.9
		c-0.7,0.6,0.2,0.9,1.1,0.5c1.2-0.6,3.1-0.5,4.3,0.2c0.9,0.6,1.3,0.5,0.8-0.4C95.5,60.8,94.3,60.4,93,60.4z M144.1,63.1
		c2.3,0,4.8,2.6,2.5,5.2c7.4-3.2,7.6,6.4,1,5.2c0.3,4.1-2.6,4.5-2.6,4.5c0.2,3.5,0.6,10.6,0.6,10.6s2.9-6.3,6.1-8.4
		c1,5-1.7,10.4-3.8,13.4c-1.3,1.8-4.3,0.9-4,2.1c0.1,0.3,0.5,0.8,1,1.2c0.3,0.3,0.6,0.5,1.4,0.5c1.3,0,1.8-0.3,1,0.8
		c-0.6,0.9-2.7,1.1-3,1.5c-0.6,1.1-0.2,0.8-1.1,1.8c-0.7,0.8-0.5,0.4-0.1,1.1c0.5,0.9,0.3,2.6-0.2,3.7c-0.4,0.9-0.4,1.6-0.4,1.6
		c0,0.1,1.2-1.2,1.5-2.7c0.3-1.2,0.6-1.9,0.6-1.2c0,0.9,0.1,2.1,0.9,2.5c0.6,0.4,0.7,0.7,0.6,1.2c-0.1,0.5,0.4,0.9,0.9,1.2
		c0.1,0.1,0.5,0.3,0.5,0.5c-0.1,0.8,0.2,1.7,0.7,1.8c0.2,0.1,1.8,0,2.1-0.9c0-0.3,0-1.5-0.6-1.5c-0.4-0.2-0.4-0.3,0.3-0.7
		c1-0.6,1.7-1,2.2-1.1c0.7-0.1,1.3-0.8,1.3-0.8l0.1,48.1c-6,6.1-12.5,12.2-21.1,18.2c-5-4.2-10.5-8.4-16.3-11.6l-2-1.2l0.7-0.9
		l-3.5-4.6l3.9-3.2l1,1.3l-1.9,1.8l2.8,3.1l6.2-6.1l-4.1-4l2.1-4l1.4,0.7l-1,2.6l3.1,2l3.9-7.8l-5-2.3l1.3-5.3l1.5,0.2l-0.5,3.8
		l3.9,0.8l1.6-8.9l-5.7-1l0.5-5.1l1.6,0l-0.2,2.8l4,0.6l0.8-7.8l-5.6-0.9l0.7-6l1.3,0.2l-0.2,3.7l4.1,0.7c0.4-2.5,0.8-5.7,1.5-8.1
		l-5.3-2l1.9-5l1.2,0.4l-1,2.7l3.9,1.7l3.3-6.5l-4.6-3.3c1-1.7,2-3.3,3.5-4.7l0.9,0.8l-1.6,2.5l3.1,2.3l2-2.4
		c0.7,0.3,1.8,1.3,1.8,1.3l0.1-0.5c-1.6-0.9-8.3-5.9-8.3-9.8c4,0.8,6.1,3.1,8.8,5.8c-0.2-4.2-0.6-8.6-0.4-12.9
		c-1.6-1.1-2.2-2.5-2-4.3c-5.2,1-6.5-6-0.3-6C141.1,64.4,142.5,63.1,144.1,63.1z M50.2,77c8.1,6.9,13.3,11.5,29.8,16.7l0.4,2.5
		c-9.5-2.2-19.9-6.7-32.2-17.8L50.2,77z M47.8,78.6c5.1,4.8,10.4,8.5,15.7,11.6l1.9,1.1l-1,1l3.1,4.6l-4,3.3l-1-1l2.1-2.1l-3-3
		l-6.1,6.2l4.2,3.7l-2.4,3.8l-0.9-0.4l1.3-2.6l-3.9-2.1l-4.4,8l5.5,2.5l-1.3,4.9l-1.3-0.1l0.4-3.9l-4.2-0.7l-1.4,9l5.4,0.8l-0.1,5.2
		l-1.4,0l0.1-2.9l-4.2-0.2l-0.4,7.6l5.2,0.7l-0.5,6.2l-1.3-0.3l0.1-4l-4-0.4l-1.4,8.5l5.4,1.5l-1.9,5.3l-1.2-0.6l0.8-2.7
		c-1-0.4-3.7-1.6-3.7-1.6l-3.5,6.6l4.5,3.1l-3,5.7l-1-1l2-3.4l-3.8-2.4l-2,2.8c-0.9-0.8-2.7-1.8-3.3-2.5c-0.7-0.6-1.2-0.7-2-0.5
		c-0.7,0.2-1.3,0.3-1.2,0c0.1-0.1,1.4-1,3.3-2.2c0.6-0.4,1-0.7,1-1c0-0.2,0.3-0.6,0.7-0.8c0.4-0.3,0.3-0.5,0.3-0.8
		c-0.4-1.5-0.1-3.8,0.6-5.4c0.5-1,0.7-1.2,0.3-1.2c-1,0.1-2.1,3.6-2.3,4.6c-0.1-0.1-0.2-1-0.2-1.4c-0.1-0.6-0.2-1-0.7-1.2
		c-0.6-0.1-0.4-0.4-0.5-0.9c-0.1-0.7-0.5-1.2-1.1-1.5c-0.6-0.3-0.7-0.4-0.7-1c0-0.5-0.5-1.3-0.9-1.6l-2.1,0.8
		c-0.2,0.6,0.1,1.3,0.4,1.6c1.1,1-0.5,1-1.6,1.7c-0.3,0.2-0.6,0.6-0.9,0.5c-2.3-0.8-0.7-36.7-1.1-47.4
		C31.2,90.9,47.8,78.6,47.8,78.6L47.8,78.6z M133.8,87.2l0.8,0.9c-5.8,6.6-9.3,14.2-10.4,21.6c-1.2,6.6-1,13.2-2.1,19.6
		c-1.1,9.2-3.7,14.1-9.3,19.3c-2.5,2.3-10.1,6.6-10.3,6.6l-1.8-0.5c15.6-8,19.5-13.6,21.2-32.7C122.3,98.1,133.1,88.8,133.8,87.2z
		 M135.4,88.8L135.4,88.8l0.8,0.8l-4.6,6.5l4.5,3.2l-1.8,4.2L133,103l1-2.9l-3.8-1.6l-3.1,8.3l5.4,1.7l-0.9,5.4l-1.1-0.3V110l-4-0.8
		l-1.2,9.3l5.9,0.8l-0.4,4.8l-1.4-0.1l-0.1-2.9l-4.1-0.2l-0.9,8.1l5.8,1l-1.1,5.7l-1.2-0.3l0.3-3.8l-3.9-0.5l-2.3,7.7l4.9,2.5
		l-2.4,5l-1-0.7l1.3-2.9l-3.8-1.9l-3.7,6.4l4,3.9l-3.9,4.1l-0.9-1.1l2-2.2l-3-3l-6.2,5l3.2,4.2l-0.4,0.5l-3.3-1.3l-1.6-2.1l-1.9,0.8
		l-1.5-0.6c9.2-4.9,15.2-10.5,17.7-19c1.4-4.7,1.8-9.8,2.2-15c0.6-6.9,1.4-14.5,3.7-20.2C129.6,96.3,132.2,92.7,135.4,88.8
		L135.4,88.8z M85.8,92l6.3,3.4L92,97.6l-5.9-2.9L85.8,92z M87.5,92.1l4.5,0.6l0,1.8L87.5,92.1z M67.2,92.2l2.6,1.2l2.2,2.6l1.7-1.1
		l1.8,0.7c-5.7,3-10.8,6.5-14.8,12.6c-4.4,6.8-4.9,15.7-5.5,24.4c-1.7,14.9-4.6,22.4-11.1,30.3l-0.7-0.9l4.1-7.1l-4.8-3.1l2.2-4
		l1.1,0.4l-0.9,2.4l4,2.1l3-8.5l-5.6-1.7l0.9-5.3l1.4,0.1l-0.4,3.8l4,0.6l1.1-9l-5.4-0.8l0.1-4.8l1.3,0.1l0,2.9l4.2,0.2l0.3-8.2
		l-5.3-0.6l0.6-5.8l1.5,0.2l-0.3,3.5l4.1,0.6l1.9-7.5l-5.3-2.4l2.8-5.1l1.3,0.6l-1.3,2.8L58,110l3.8-5.9l-4.1-3.9l4-4.2l1,1
		l-2.2,2.5l3,2.8l6-5l-2.9-4.4L67.2,92.2z M105.1,92.4l-0.2,2.1l-6.3,3.6v-2.1L105.1,92.4z M139.1,92.5l1.3,0.9l-0.9,1.2l-1.2-0.8
		L139.1,92.5z M102.4,92.8L98.6,95v-2.2L102.4,92.8z M147.1,94.8c0.4,0,0.7,0.1,0.8,0.2c0.3,0.3,0.1,0.9-0.3,1.1
		c-0.6,0.4-2.1,0.4-2.3,0c-0.2-0.5,0.6-1,1.3-1.2C146.9,94.9,147,94.9,147.1,94.8z M86.6,95.7l5.5,3l0,2.1l-5.2-2.9L86.6,95.7z
		 M104.3,95.8l-0.3,2.7l-5.6,3l0-2.4L104.3,95.8z M77.2,95.9l2.2,0.6c-8.3,3.7-16.5,9.1-19.6,18.5c-1,2.8-1.7,5.9-2.1,10
		c-0.2,4.2-0.5,8.4-0.9,11.9c-0.9,7.2-2.3,16.6-11.3,27.4l-0.7-0.8c13.5-15,10.3-35.5,13.4-46.9C61.2,107,65.7,101.7,77.2,95.9z
		 M149.3,97.7c0.1,0,0.2,0,0.3,0c0.9,0.1,0.7,1.9-0.7,3.1c-0.8,0.6-1.2,0.6-1.7,0c-0.2-0.2-0.7-0.4-1-0.4c-0.9,0,0.9-1.8,2.4-2.6
		C148.9,97.8,149.1,97.7,149.3,97.7z M87.2,99.2l4.9,2.5l0,2.1l-4.5-2.5L87.2,99.2z M103.7,99.5l-0.3,2.3l-5.1,2.6l0-2.1L103.7,99.5
		z M151.1,100.4c0.2,0,0.3,0,0.4,0.2c0.7,0.8-0.6,3.1-2.1,3.8c-0.6,0.3-0.9,0.2-1.4-0.2c-0.2-0.2-0.6-0.5-0.8-0.4
		c-0.9,0.1-0.4-0.9,0.3-0.9c0.2,0,1.4-0.9,2.3-1.7C150.4,100.6,150.8,100.4,151.1,100.4L151.1,100.4z M145.9,101.3
		c1.1,0,1.5,0.9,0.2,1.3c-0.9,0.3-1.4,0.1-1.4-0.5C144.9,101.4,145.5,101.3,145.9,101.3z M87.9,102.5l4.3,2.2l0,2.2l-4-2.1
		L87.9,102.5z M103.3,102.8l-0.3,2.1l-4.6,2.4l0-1.7L103.3,102.8z M152,103.7c0.3,0,0.4,0.3,0.4,0.9c0,1-0.6,1.9-1.6,2.3
		c-0.7,0.3-1.2,0.3-1.5-0.1c-0.2-0.2-0.4-0.3-0.5-0.3c-1.5-0.1-1.3-0.4,0.2-1.1c0.5-0.2,1.5-0.9,2-1.2
		C151.4,103.8,151.8,103.7,152,103.7z M146.5,104.4c0.7,0,1.4,0.5,1,0.9c-0.3,0.3-1.5,0.4-1.7,0.2
		C145.3,104.9,145.7,104.4,146.5,104.4z M88.6,105.9l3.7,2l0,2.1l-3.5-2L88.6,105.9z M102.7,106l-0.1,2.2l-4.2,2.1l0-2.1L102.7,106z
		 M148.1,106.9c0.7,0.1,0.6,0.7,0,1.1c-0.4,0.3-1,0.1-1.2-0.2C146.4,106.8,147.6,106.9,148.1,106.9z M148.9,109c0.3,0,0.5,0,0.6,0.2
		c0.2,0.3,0.1,0.7-0.2,0.8c-0.3,0.1-1.1,0-1.2-0.2c-0.1-0.2-0.1-0.3,0.1-0.5C148.4,109.1,148.7,109,148.9,109z M89.1,109.2l3.1,1.7
		l0,2.1l-2.9-1.7L89.1,109.2z M102.2,109.3l-0.2,2l-3.7,1.8l0-2L102.2,109.3z M63.9,110.5c0.8,0,1.4,0.5,0.9,1.4
		c-1.2,1.4-2.1,1.9-3.3,2.8c-1.1,0.8-0.7-0.8,0.7-3.3C62.6,110.8,63.3,110.5,63.9,110.5z M101.9,112.3l-0.3,2.2l-3.3,1.7v-2.1
		L101.9,112.3z M89.6,112.5l2.6,1.3l0,2.1l-2.4-1.3L89.6,112.5z M121.4,112.7c0.1,0,0.2,0,0.3,0.1c0,1-0.2,1.6-0.2,2.5
		c-0.1,0.3-0.9-1.6-0.8-2.1C120.8,112.9,121.1,112.7,121.4,112.7z M65.8,113.1c1.1,0,1.8,0.7,1.5,1.8c-0.4,1.1-2.8,1.7-3.9,2.4
		c-0.7,0.4-0.9,0-0.7-0.6c0.1-0.3,0.2-0.5-0.4-0.6c-1.3-0.2-0.5-0.8,1.9-2.5C64.8,113.3,65.3,113.1,65.8,113.1z M118.8,113.8
		c0.4,0,0.8,0.2,1.3,0.7c0.8,0.9,1.4,2.8,1,3.3c-0.3,0-0.5,0.5-0.5,0.7c-0.1,0.6-1.1-0.5-2.2-2.2C117.6,114.9,118,113.8,118.8,113.8
		z M74.3,114.1c3.3,0,9.5,0.7,18.1,6.1c1.1,0.7,2.2,1.5,3.4,2.1c3.3,1.8,6,3,10.2,3.8l-0.1,2.2c0.7,2.5,0.9,5.9,1.3,7.6l1,2
		c0,0-5.2,0-7.5-0.5c-3.8-0.6-10.7-3.8-14-6.4c-3.5-2.6-8.7-4.7-13.2-5.5l-0.1-1.9c0,0-0.4-6.5-0.8-7.3l-0.8-2
		C72,114.2,72.8,114.1,74.3,114.1z M101.5,115.5l-0.2,2.2l-2.9,1.4v-1.9L101.5,115.5z M116,115.6c1.1,0.1,2.9,2.2,3.8,3.9
		c0,0.2-0.1,0.4-0.3,0.3c-0.5-0.1-0.7-0.3-0.9,0.4c0,0.2,0.1,0.5-0.1,0.4c-1-0.3-3.8-3.1-3.6-4c0.1-0.7,0.5-0.9,0.9-1L116,115.6z
		 M90.2,115.7l2.1,1.1l0.1,2.1l-1.9-0.8L90.2,115.7z M67.8,116.3c0.5,0,0.9,0.3,1.2,0.8c0.5,1.2-0.4,1.9-3,2.5
		c-2.2,0.5-2.2,0.6-1.9-0.3c0.2-0.6-0.5-0.6-0.9-0.8c-0.7-0.2-0.1-0.3,1.8-1.3C66,116.8,67,116.2,67.8,116.3z M60.3,116.9
		c3.8,3.5,3,11.1-2,13.1l0.2-2c0,0,4.7-3.1,1.3-9.6C59.9,117.9,60.1,117.4,60.3,116.9z M113.6,118.2c1.3,0,4.9,3.3,3.4,3.4
		c-0.2,0-0.1,0.2-0.1,0.4c0,0.2,0,0.4,0,0.5c-0.1,0.3-0.5,0.2-1.2-0.2c-1.6-1-2-1.3-2.6-1.8C111.9,119.5,112.3,118.2,113.6,118.2z
		 M100.9,118.8l0,1.8l-2.6,1.3l0-1.6L100.9,118.8z M68.7,120.1c1.4,0.2,2.1,1.7,0.5,2.6c-0.7,0.4-3,0.1-4,0
		c-1.2-0.1-0.5-0.5-0.4-0.6c0.2-0.3,0.3-0.3-0.3-0.7c-0.5-0.5-0.8-0.7,0.5-0.8C66.2,120.5,67.5,120,68.7,120.1z M121,120.5
		L121,120.5c0.1,0,0.1,0.2,0.1,0.8l-0.1,1.2c-0.8,0.1-4.7,5-1.5,10.7l-0.3,1c-0.1,0.5-0.2,0.6-0.6,0.3c-2.4-1.7-3.2-10.1,1.8-13.6
		C120.7,120.6,120.9,120.5,121,120.5L121,120.5z M111.7,121.5c0.5,0,1,0.1,1.7,0.4c1.5,0.7,2.5,1.2,2.7,1.6c0.1,0.2-0.1,0.4-0.4,0.5
		c-0.4,0.1-0.4,0.3-0.3,0.7c0,0.3,0.1,0.5-0.3,0.5c-0.6,0-1.9-0.4-3.2-1.1C109.8,123,110.1,121.4,111.7,121.5z M100.4,121.5v2.2
		l-2.1-1L100.4,121.5z M65,123.3c0.8,0.1,1.6,0.2,2.5,0.3c2.4,0,3.4,1.7,1.4,2.5c-0.9,0.4-2.4-0.3-4.2-0.8c-0.7-0.2-1-0.4-0.5-0.6
		c0.4-0.2,0.5-0.5,0.2-0.9C64.3,123.5,64.5,123.3,65,123.3z M121,123.3c-0.3,3.3-0.6,6-1.1,9.2C119.5,132.4,116.9,126.3,121,123.3z
		 M110.9,124.9c0.8,0,2.1,0.3,3.4,0.8c1.1,0.4,1.3,0.5,0.5,0.9c-0.5,0.2-0.4,0.4-0.3,0.7c0.2,0.3,0.8,0.6,0,0.6
		c-0.8,0.1-2.7-0.1-3.4-0.2c-1.8-0.3-2.3-2-0.8-2.7C110.4,125,110.6,124.9,110.9,124.9z M64.2,125.8c0.2,0,0.5,0.1,1,0.3
		c3.3,1,4.6,2.3,3,3.5c-0.5,0.4-1.2,0.2-2.5-0.6c-1.4-0.8-2.1-1.2-2.3-1.5c-0.3-0.3-0.1-0.6,0.3-0.6c0.5,0,0.5-0.2,0.4-0.7
		C64,125.9,64,125.8,64.2,125.8L64.2,125.8z M79,127.8l1.7,0.7l-1.9,0.9L79,127.8z M62.7,128.2c0.1,0,0.2,0,0.3,0.1
		c0.3,0.1,0.8,0.5,1.5,1c1.4,1,2.2,1.7,2.3,2.4c0,0.3-0.2,0.7-0.6,0.9c-0.8,0.5-1.7,0.1-3.5-1.8c-0.6-0.6-1-0.9-1.2-1.2
		c-0.2-0.3-0.1-0.6,0.3-0.5C63.1,129.6,62.3,128.2,62.7,128.2z M112.8,128.6c0.4,0,0.8,0,1.3,0c0.8,0,0.8,0.4,0.6,0.5
		c-0.4,0.3-0.3,0.7,0.1,0.9c0.3,0.1,0.2,0.4-0.2,0.6c-0.2,0.1-0.5,0.2-0.9,0.3c-2.3,0.7-3.9,0.5-4.4-0.6c-0.4-1,0.2-1.6,2.2-1.8
		C111.9,128.6,112.3,128.6,112.8,128.6z M81.4,128.9L81.4,128.9l4.3,2.5l0.7,27.3c15.7,1.6,27.3,5,40.3,17.2
		c-4.2,2.3-6.2,3.4-10.2,5.6l-0.6,0.9c10.3-4.9,26-14.9,37.3-26.1v72.5h-54c0-4.3,0-8.5,0-12.8c-0.6-3.7-0.1-7.9-0.7-11.4l-0.2-3.4
		c3.3-3.9,5.2-8.8,6.8-13.9c0,0,1.6-0.6,2.4-0.9l0.3-1c-1.6,0.8-5.1,2.1-5.1,2.1c-11.4-6.5-27.6-6.8-40.3-0.1
		c-0.3,0.2-0.5,0.2-0.5,0.2c2.3-6.3-1.1-15.7-12.6-17.7l0.1,0.6C61.6,172,64.4,185,59.7,191c0.2,0.4,0.4,0.8,0.6,1.1
		c0.8-1.2,1.4-2.7,1.9-4.1c5.9-3.4,13.3-5.1,20.6-5.2c6.9,0,13.7,1.5,19.1,4.6c-1.8,1-7.7,2.5-7.7,2.5c-3.3-3.7-5-7.5-11-5.5
		c-6.3,1.6-11.9,7.1-15.1,10.7c-3.2-1.9-4.9-2.4-7.7-2.5c0.1,0.4,0.4,0.7,0.4,0.9c10.4,0,14,11.7,9.2,18.2l0.4,0.8
		c3-4,3.8-11.5-1.5-16.7c3.9-4.4,11.4-11.4,17.9-11c2.4,0.1,4.7,3,6.2,5.3c3.3,4.9,4.1,11.6,4.4,15.5c0.1,1,0.2,1.7,0.2,2.3
		c0,1.5-0.3,1.4-1.3,1.1c-1.2-0.3-3-0.3-4.2,0c-0.7,0.2-1.2,0.3-1.3,0.3c-0.3-0.1,0.3-0.8,1.4-2.2c1.1-1.3,1-1.9,1-1.9
		c0,0-0.8,0.5-1.4,1.4c-0.8,1.3-1.2,1.7-1.3,1.4c-0.1-0.3,0.3-1.8,1-4.1c0.8-2.8,0.8-3-1.5-4.7c-0.9-0.6-1.7-1-2.2-1.9
		c0,0-0.1,1,0.2,1.6c0.4,0.7-0.4,1.1-1.8,0.3c-3.3-1.8-5.4,1.9-2.5,3.5c0.7,0.4,1.1,0.1,0.5-0.4c-1.8-1.7-0.6-3.1,1.9-1.6
		c1.4,0.9,2,0.6,2.4-0.5c0.3-0.4,2.5,1.1,2.5,1.8c0,0.4-0.3,1.7-0.5,2.6c-0.7,2.4-0.9,3.2-1.2,4.8c-0.6,2.9-0.5,4.3,0.1,5.6
		c1.3,2.8,4.7,4.2,7.6,3c0.4-0.2,1.2-0.3,1.2-0.3l0,2.1c-5.7,2.2-9.8,9-9.7,9.2l-2,0c-2.7-5.4-7.5-9.5-13.5-11.7
		c-0.1,0,0.6,2.6,1.7,3.6c2.9,1.5,6.7,4.1,8.8,8.1l-1.4,0c-1.8-2.7-4-4.5-6.2-6.1c0.2-0.1,1.7,5,2.4,6.4L41,229.8
		c2.5-10,3-21.1-2.9-35.7c4.9,0.3,9.3-0.8,13.3-2.5l-0.4-1c-4.6,2.2-9.6,2.6-14.6,2.1c3.8,7.1,7.1,21.8,3.9,36.1H26.2v-79.1
		c0,0,0.4,1.3,1,1.9c0.4,0.4,0.7,1.1,0.8,1.6c0.2,0.6,0.3,0.6,1.2,1.3c0.4,0.3,0.6,0.6,0.6,0.7c0,0.2,0,0.7,0.2,1.1
		c0.8,0.9,0.6,1.5,0.1,2.1c-2.6,2.7-4.3,8.5-2.9,14.6c3.1-2.1,6.3-7.6,6.4-7.6l0.3,7.5c-0.3-0.1-2.2,1.1-2.2,2.5
		c-0.9,0.3-1.9-0.2-2.8-0.4l0.6,2.2c-3.2,1.3-3.4,5.7,0.3,6.9c0,0-0.3,1.7-0.6,2.6l2.4-0.4c1.4,4.2,6.8,2.9,6.7-0.1
		c0,0,1.6,0.6,2.2,0.9l-0.5-2.9c3.3,0,4.9-6,0.1-7c0-0.8,0.3-1,0.6-2l-2.5,0.2c-0.5-1.5-2.1-2.7-2.2-2.5L36,162.3
		c1.9,1.6,3.7,3.3,6.2,4.6c1.4,0.7,2,0.9,2.2,0.5c0.2-1.3-0.2-2.4-0.7-3.8c0.7,0.1,3.2,3.5,3.4,5c8.9-5.6,17.3-12.8,17.3-12.8
		l4.3-0.7l-0.4,2l-3.9,0.7l0,0.7l4.4-0.9l-0.3,2.6c0,0,8.5-1.5,12.8-1.6c0,0,0.1-21.7,0.1-24.1C81.4,132,81.4,128.9,81.4,128.9
		L81.4,128.9z M80.8,129.3l0,1.6l-2.3,1.1l0.3-1.7L80.8,129.3z M60.9,129.8c0.2,0,0.5,0.3,1,0.9c2.3,2.8,2.6,3.3,1.8,4.1
		c-0.9,0.9-2.1,0-3.4-2.4c-0.2-0.3-0.4-0.7-0.5-0.9c-0.5-0.6-0.3-0.8,0.3-0.7c0.3,0,0.5-0.1,0.5-0.4C60.7,130,60.8,129.8,60.9,129.8
		z M114.8,131.3c1,0.1,0.6,0.4,0.4,0.6c-0.3,0.4-0.4,0.6,0.2,0.8c0.1,0,0.3,0.3,0.1,0.4c-0.5,0.3-2.6,1.3-3.3,1.5
		c-1.5,0.5-2.4-0.7-1.5-1.9C111.1,132.3,113.6,131.2,114.8,131.3z M58.6,131.5c0.5,0,1,1.2,1.1,1.4c1.5,2.2,1.7,3.3,0.7,4
		c-0.6,0.5-2-0.2-2.3-1.7c-0.2-1.1-0.3-2.3,0-3.2C58.3,131.6,58.5,131.5,58.6,131.5L58.6,131.5z M80.8,131.9l0,1.8l-2.8,1.4l0.3-1.9
		L80.8,131.9z M86.6,132l2.7,1.7l0.2,1.5l-2.8-1.5L86.6,132z M116.4,133.7l0.1,0.1c0,0.2-0.1,0.9,0.3,1c0.8,0.1,0.6,0.4-0.1,1
		c-0.7,0.7-1.4,1.5-2.3,1.9c-2.3,0.9-3-1.6-0.9-2.9C114.5,134.3,115.5,133.9,116.4,133.7z M86.7,134.6l3.1,1.8l0.1,1.8l-3.1-1.6
		L86.7,134.6z M80.7,134.8l0,1.6l-3,1.7l0.3-1.8L80.7,134.8z M118,136.2c0.2,0,0.2,0.2,0.2,0.6c0,1.1-1.8,5.1-3.3,3.1
		c-0.4-0.8,0-1.6,1.3-2.5C117.2,136.6,117.7,136.2,118,136.2z M57.6,136.5c0.2,0.4,0.6,0.8,0.8,1c0,0.3-0.5,0.4-0.9,0.6
		C57.4,138.1,57.4,137,57.6,136.5z M80.7,137.4l0,2l-3.6,2l0.4-2.3L80.7,137.4z M86.7,137.7l3.6,1.9l0.4,2.3l-3.9-2.1L86.7,137.7z
		 M80.7,140.4v2.1l-4,2.1l0.3-2L80.7,140.4z M86.7,140.6l4,2.3l0.5,2.1l-4.4-2.3L86.7,140.6z M30.4,140.7c0.7,0,0.9,0.7,0.4,1.1
		c-0.3,0.3-1.2,0.2-1.3,0C29,141.4,29.6,140.7,30.4,140.7z M31.5,142.9c0.1,0,0.2,0,0.4,0c0.5,0.1,0.8,0.8,0.5,1.2
		c-0.5,0.7-1.9,0.2-1.7-0.7C30.8,143.1,31.1,142.9,31.5,142.9L31.5,142.9z M80.6,143.6v1.8l-4.4,2.3l0.3-2.1L80.6,143.6z
		 M86.9,143.8l4.5,2.4l0.3,2.1l-4.9-2.5L86.9,143.8z M29.4,143.9c0.2,0,0.4,0,0.5,0.2c0.1,0.1,0.2,0.5,0.5,0.7
		c0.6,0.3,0.6,0.4-0.5,0.9c-0.5,0.2-1.4,0.8-1.7,1.1c-1,0.7-1.4,0.4-1.5-0.3C26.7,145.4,28.5,143.9,29.4,143.9z M32.8,145.4
		c0.2,0,0.5,0,0.6,0.1c0.4,0.2,0.4,0.8,0,1c-0.8,0.5-2.1-0.2-1.4-0.8C32.2,145.5,32.5,145.4,32.8,145.4z M80.6,146.4l0,2.4l-4.9,2.6
		l0.3-2.4L80.6,146.4z M30.4,146.7c0.3,0,0.6,0.1,0.9,0.3c0.3,0.4,0.6,0.5,0.8,0.5c0.8,0,0.6,0.3-0.3,0.7c-1.2,0.6-2.1,1.3-2.9,2.1
		c-0.9,0.8-1,1-1.3,0.7C26.5,149.6,28.7,146.8,30.4,146.7z M86.9,146.7l5.1,2.8l0.4,2.4l-5.6-3.1V146.7z M33.8,148.4
		c0.2,0,0.4,0,0.6,0.2c0.4,0.3,0.2,0.9-0.4,1.1c-0.4,0.2-1.1,0.1-1.3-0.1C32.1,149.1,33,148.4,33.8,148.4z M31.3,149.6
		c0.3,0,0.6,0.4,0.8,0.8c0.1,0.1,0.4,0.1,0.7,0.1c1,0,1.1,0.4,0.2,0.9c-0.3,0.2-1.2,0.8-1.8,1.4c-1.6,1.5-2.5,1.2-2.3-0.4
		C29.1,150.8,30.5,149.6,31.3,149.6z M86.9,149.7l5.7,3.1l0.6,2.6l-6.2-3.4V149.7z M80.7,149.8l0,2.4l-5.3,2.8l0.4-2.4L80.7,149.8z
		 M87,152.8l6.3,3.9l0.2,2.5l-6.6-3.8V152.8z M80.7,153.2l0,2.3l-5.9,3l0.3-2.2L80.7,153.2z M32.8,154.7c0.2,0,0.3,0,0.4,0.1
		c0.7,0.3,0.5,0.9-0.5,1.4c-1.1,0.6-1.4,0.5-1.6-0.2C30.9,155.5,32,154.7,32.8,154.7z M99,155c11,2.5,21.8,8,32.3,17.6l-2.2,1.6
		c0,0-9.2-10.5-29.6-16.7L99,155z M87.1,156.1l3.1,1.8l0,0.5l-3.1-0.3L87.1,156.1z M35,156.2c0.2,0,0.4,0.1,1.5,0.7
		c4.4,3.2,6.1,5.1,7.2,8.6c0.7,2.1,0.6,2-1.5,0.9c-2-1.1-4.8-2.9-6.6-5.2c-0.3,5.4,0.3,12.2,0.3,12.2c2.7,1.4,1.9,4.9,1.8,4.9
		c7.1-1.9,5.5,7.4,0.3,5.4c1.3,7-6.7,6.5-5.9,0.4c-6.4-0.2-5.2-7.2,0-6.3c-0.5-2.2,0.2-3.6,2.2-4.5l-0.3-9.2c0,0-5.2,7.5-6.1,7.4
		c-0.5-0.1-1.3-0.9,0-7.5c0.7-3.4,4.3-7.6,6.3-7.7C34.7,156.2,34.8,156.2,35,156.2L35,156.2z M40,156.2l0.9,0.6l-0.9,1.7l-1.1-0.9
		L40,156.2z M80.6,156.7l0,1.4l-2.9,0.2L80.6,156.7z M50.3,172.3c0,0.6,0.3,0.7,0.4,0.9c6.7,1,10.8,9.3,7.7,15.3
		c0.1,0.4,0.4,0.7,0.6,1.1C62.4,184.9,59.9,173.4,50.3,172.3z M51.9,175.4c0.4,0.9,0.4,1,0.7,1.2c2.4,0.9,4.9,4.7,4.3,8.6
		c0.1,0.2,0.4,0.8,0.6,1.1C58.4,183.2,57.2,177.2,51.9,175.4z M104.3,187.7c-1.4,4.5-3.1,8.9-6.1,12.7l-0.4-1.9
		c2.8-4.4,4.2-8.3,4.8-10.1L104.3,187.7z M101.7,188.8c0.2,0.3-2.7,7.3-4.2,8.5l-0.6-1.8c1.2-1.8,2.9-6.1,2.9-6.1L101.7,188.8z
		 M83.9,188.8c-0.1,0-0.1,0.1-0.1,0.3c0,0.6,0.7,1.1,1.9,1.4c1.6,0.4,3.9-0.2,3.9-1c0-0.5-0.3-0.5-1.3,0c-1.2,0.5-2.2,0.4-3.7-0.4
		C84.2,188.9,84,188.8,83.9,188.8z M98.6,189.9c-0.5,1.7-1.2,3.1-2,4.4l-0.4-1c0.6-1,1-2.1,1.5-3.2L98.6,189.9z M96.8,190.5
		c-0.2,0.6-0.5,1.3-1,1.8l-0.7-1.4L96.8,190.5z M86.3,191.8c-1,0-2.1,0.4-2.2,1c0,0.3,0.4,0.2,2.4-0.1c1.1-0.1,1.6,0.5,2.6,0.4
		c0.5-0.1,0-0.5-0.1-0.7C88.5,192,87.4,191.8,86.3,191.8z M81.7,193.1c-0.1,0,0,0.3,0.4,1c0.2,0.4,0.3,1.2,0.3,1.7
		c-0.1,1.2,0,1.2,0.6,0.5c0.4-0.4,1.1-0.3,2.3,0c0.8,0.2,0.9,0.3,1.5-0.1c0.6-0.4,0.8-0.2,1.3-0.1c0.5,0.1,1-0.1,1.5-0.3
		c0.7-0.2,0.8-0.1,1.4,0c0.9,0.4,0.8,0.4,0.8-1.1c0.1-1.5,0-1.6-0.9-1.1c-0.8,0.5-1.4,0.7-2.7,0.3c-1.4-0.5-1.6-0.4-2.6-0.1
		c-1.2,0.4-1.8,0.5-2.7-0.1C82.2,193.4,81.8,193.1,81.7,193.1z M62,195.4l0.5,0.9c4.9,1.8,8.2,5.8,6.2,12.5l0.5,0.7
		C71.6,202.7,68.9,197.1,62,195.4z M63.5,198.3l0.7,1.4c3.7,1.8,3.5,6.7,3.2,6.5l0.6,1.3C68.9,204.2,67.2,199.5,63.5,198.3z
		 M78.5,205.6c0,0,0.2,0.5,1.9,1.6c1.4,1,2.6,1.7,2.5,1.9c-0.1,0.1-1-0.1-1.6-0.3c-1.7-0.5-4.1,0.1-5.5,1.1c-0.4,0.2-0.9,0-1.4-0.2
		c-0.2-0.1-0.7-0.1-0.9-0.1c-1,0.3,0,1.3,2.5,2.6c3.1,1.6,4.8,1.7,6.8,0.8c1.3-0.7,1.7-0.2,0.3,0.6c-5,1.6-6.9-1-10.3-2.5
		c3.3,3.9,9.4,5,11.8,2.5c0.1,0,0.4,0,0.5,0c0.7,0,0.7-0.2,0-1.3c-0.4-0.7-1.2-1.4-0.2-2.2c0.8-0.6,0.7-0.9-0.2-1.2
		c-0.2-0.1-0.2,0.1-0.6-0.2c-1.2-1-2.4-1.8-3.4-2.4C80,206,79.2,205.7,78.5,205.6z M79.8,209.2c0.9,0,1.9,0.8,2.2,2.1
		c0,0.1,0.1,0.2,0.1,0.4l-0.8,0c-0.7-2.7-2.7-1.8-2.9-0.2l-0.7-0.1C77.9,209.8,78.8,209.1,79.8,209.2L79.8,209.2z M94.4,209.3
		c0.9,0,1.7,0.8,1.9,2.1l-0.5,0.1c-0.3-1-1.9-2.3-2.7,0.1l-0.7,0C92.7,210,93.5,209.3,94.4,209.3z M82.2,210c0.2,0,0.6,0.1,0.7,0.2
		c0.2,0.5-0.4,0.9-0.5,0.7C82.3,210.8,82.1,210,82.2,210z M92.3,210.1c0.2,0.2-0.2,0.8-0.4,1.1c-0.2,0.2-0.7,0-0.9-0.2
		c-0.2-0.2,0-0.6,0.2-0.8C91.6,209.9,91.9,209.8,92.3,210.1z M97,210.1c0.4,0.1,0.7,0.2,0.8,0.6c0,0.3-0.3,0.5-0.6,0.5
		c-0.1,0-0.7-0.4-0.6-1C96.6,210,96.8,210.1,97,210.1z M77,210.1c0.2,0,0.3,0,0.4,0.1c0.1,0.2-0.1,0.7-0.2,0.8l-0.7,0
		c0-0.1-0.1-0.5,0.1-0.8C76.7,210.2,76.9,210.1,77,210.1z M90.4,212L90.4,212c0.1,0,0.2,0,0.4,0.1c2,1.3,4.6,1.9,6.5,1
		c0.4-0.2,0.7-0.2,0.7,0c0,0.2-0.5,0.7-1.3,0.9c-1.9,0.6-5.1-0.2-6.2-1.4C90.1,212.3,90.3,212,90.4,212L90.4,212z M72.8,213.4
		c-0.2,0-0.3,0.1-0.2,0.3c0.1,0.8,5.5,3.9,7.8,4.3c1.8,0.3,3.3,0.2,4.4-0.5c2.7-1.6,2-3.8-0.6-2.1c-1.8,1.1-6.4,0.6-9.1-1
		C73.8,213.7,73.1,213.4,72.8,213.4z M90.6,213.7c0.2,0,0.4,0.1,0.6,0.2c2.2,1.2,3.9,1.2,5.2,0.8c1.4-0.5,1.6-0.6,1.8-0.5
		c0.7,0.6-0.4,1.5-2.5,1.8c-1.7,0.3-2.6,0.3-4.5-1.1C90,214.2,90.1,213.7,90.6,213.7z M73.5,218c4.7,1.8,10,5.8,12.4,10.8l-1.5,0
		c-1.6-2.9-4.9-6.5-10.2-9.1C74,219,73.5,218.3,73.5,218z M98.3,220.3v1.6c-2.9,1.5-5.4,3.8-7.3,6.9l-1.7,0
		C91.3,225.4,94.1,222.2,98.3,220.3z M98.3,222.7v1.9c-1.9,1.1-3.4,2.5-4.5,4.2h-2C93.4,226.1,95.6,224,98.3,222.7z M76.7,224.2
		c1.4,0.9,3.6,3,4.5,4.6l-0.8,0c-0.8-1-2-2.1-3-3C77,225.4,76.8,224.8,76.7,224.2z M98.3,225.4L98.3,225.4v1.6c0,0-1.4,1-2,1.8h-1.6
		C95.8,226.8,98.1,225.4,98.3,225.4z M98.3,227.9v0.9l-1,0C97.3,228.7,97.9,228.1,98.3,227.9z M78.7,228.1c0.3,0.2,0.5,0.7,0.5,0.7
		l-0.3,0L78.7,228.1z"/>
	<path class="st3" d="M38,194.2c3.3,0.1,10.3-1.2,10.2-1c0,0,21.7,36.2,20.8,35.8c-0.3,0.4-27.8,0.4-27.8,0.4
		C40.6,229.5,47.1,216.1,38,194.2z M47.8,168.7c10.6-8.8,21.6-8.9,33.5-10.1l0.3-29.9l4.3,2.6l0.1,27.4c15.7,1.2,29.2,7,40.8,17.1
		c0.1,0.2-16.8,9.3-24.2,11.8c-14.9-7.8-28-5.8-40.5-0.1c2.4-14.4-8.8-16.7-12.8-17.4C48.8,170,48.2,168.9,47.8,168.7z M34.3,173.4
		c0.2-3.1,0-6.2-0.2-9.3c-0.1-0.7-6.2,9.4-6.5,6.9c-0.9-6.1,2.2-13.9,6.9-14.8c0.5-0.6,9.9,5.2,9.4,10.3c-0.1,1.6-8.4-5.6-8.4-5.1
		c-0.2,0.8,0.2,12.1,0.5,12.1c2.4,1.3,1.9,3.1,2.1,4.5c6.4-0.9,6,6.2,0,5.9c0.4,8.4-7.4,4.6-5.8,0.1c-7.8-0.4-4-7.7-0.1-6.1
		C31.9,176,32.4,174.1,34.3,173.4z M43.6,138l-17-1.1l0.8-39.6c9.7-19.2,35.7-8.9,35.8-7C48.6,99.4,43.7,116.7,43.6,138z
		 M73.1,121.5l-0.5-4.4c-1.3-2.7,33.1,13.2,33.5,13.6l1,4.7C107.3,137.5,85.2,127,73.1,121.5z M135.7,113.7
		c-2.6,19.8-2.4,39.6-17,46.5c10.9,10.7,20.1,2.4,33.9-4.5c0.4,0-0.5-42.3-0.7-42.3C146.4,113.8,141,113.9,135.7,113.7z M135.5,85.5
		c-0.8-1,6,1.8,8.6,5.8c-0.4-0.5-0.5-13.9-0.6-13.4c-0.3,0.2-2.4-1.3-1.8-4.2c-6,1.3-5.7-6.5-0.4-6.2c-0.7-7.1,8-4.5,5.7,0.3
		c7.4-1.4,6.1,7,0.5,5.6c0.5,3.2-0.8,4-2.6,4.7c0.1,1.3,0.6,10.2,0.6,10.2s5.5-8.4,5.9-7.7c1.9,1.8-1.5,13.9-6.1,14.2
		C141.4,95.6,134.6,87.5,135.5,85.5z M117.9,63.4c-2.5,8.5,4.3,18.3,10.7,18.3c1.3-0.2,3.7,0.5,2.9,1.2c-10.1,8.2-33.6,9.9-33.6,9.5
		c0.2,10.1-0.2,20.2-0.4,30.3l-4.3-2.6c-0.1-9.2-0.4-18.6-0.6-27.7c-15-2-28.6-6.9-39.3-17.2c7.1-5.3,15.6-8.6,23.7-11.9
		C87.3,68.6,101.6,71.7,117.9,63.4z M109.5,21.1c0,0,19.4,0.2,28.8,0.1c-3.2,13-0.9,24.7,3.2,35.9c-1.1-0.3-8.3,0.3-10,1.1
		C131.1,58.5,109.5,21.1,109.5,21.1z"/>
	<path class="st1" d="M69.6,229l-21.1-35.9l3.2-1.4l21.8,37.3L69.6,229z M31.9,181l3.1-3.2l3.1,3.1l-3.2,3L31.9,181z M99.8,160.9
		l-0.4-2.6c12.2,3,22.1,9.3,29.3,16.1l-1.7,1.3C127.5,175.6,109.6,162.2,99.8,160.9z M64.8,158.6l3.5-0.8l-0.1,2.2l-3.4,0.7
		L64.8,158.6z M135.7,156.7l-2.1-1.7l1.5-1.8l2,1.6L135.7,156.7z M64.2,139.3c8.2-6.1,8.8-13.2,8.8-13.2l2.8,0.7l-6.6,27.5l-4.6,1
		C64.6,150,64.1,144.6,64.2,139.3z M98.6,154.9c-1.8-5.8-5.3-18.9-5.3-18.9c0.1,0.4,11.3,3.6,15.3,2.5c1.7,2.4,3.6,4.4,5.6,6.3
		C110,148.8,104.9,152.2,98.6,154.9z M145.6,133.8l-2-1.7l1.8-2.2l2.2,1.7L145.6,133.8z M119.8,132.6c-1.6-2.9-1.7-6.2,1.3-9.4
		L119.8,132.6z M58.4,127.6c-0.1-3,0.3-5.8,1-8.5C61.1,122.2,61.1,125.4,58.4,127.6z M103.5,124.9c0,0,4.3-20.2,6.2-28.2l4.8-1.1
		l-0.2,16.4c-4.8,3.9-8.1,13.2-8,13.2L103.5,124.9z M33.7,121.5l-2.1-2l2.1-2l1.8,2L33.7,121.5z M71.3,113.6
		c-1.5-2.2-3.6-4.5-5.8-6.8c3.6-5,9.5-7.9,15.8-10.1l4.2,19C80.7,114.2,75.6,112.7,71.3,113.6L71.3,113.6z M41.9,96.7l1.5-1.8
		l1.9,1.5l-1.5,2L41.9,96.7z M111.3,91.1l3-0.7l0.1,2.3l-3.6,0.7L111.3,91.1z M50.8,76.6l2.3-1.4c8,7.2,16.9,12.2,26.5,15.1l0.3,2.7
		C69.1,89.5,59.1,84.8,50.8,76.6L50.8,76.6z M144.4,73.7l-3-2.9l2.7-3l3.2,2.8C146.3,72.1,144.4,73.7,144.4,73.7z M128,59.4
		l-22.2-38.1l3.2,0L130.8,58L128,59.4z"/>
	<path d="M105.6,20.6l-5.3,0l30.1,60.9c-9.2,0-14.6-9.8-12.3-18.5c-18.6,8.5-30.2,5.4-41,0l-4.6,1.8c0.3-2.8,3.7-13.3,8.9-18.2
		l0-5.3l-0.1-2.5l-0.4-4.5c-7.6,7.2-16.5,18.6-17.7,34.8c0,0-7,3.6-12.9,7.6c0.3,0,9.2,11,30.7,17.1l-0.9-3.5
		c3.2,0.9,7.7,1.6,12.2,2.2l0.6,27.6l5.1,3l0.2-30.5c0.2,0.1,8.2-0.3,12.5-1.3l-0.6,2.9l4.3-0.8v2.1l-4.7,1.1l-6.6,28.5l3.9,0.9
		c1.1-5.7,4-10.4,8.1-13.3l0-1.1c2.7-1.9,8.2-3.4,8.2-3.4c1.9-9.3,6.3-15.7,10.9-21.8l-2.2-3l8.5-3.1l-11.8-20.2
		c4.5-3.2,13.6-2,13.6-2c-3.9-10.5-7.3-21.3-3.4-37.2l-32.9,0L105.6,20.6z M137.5,21.2c-2.1,12.2-1.4,24,3.5,35.3l-0.8,0
		c-0.1,0,0.1-0.6,0-0.8c-0.1-0.4-0.8-0.2-1.4,0.2c-0.3,0.2-0.5,0.4-0.7,0.5c-0.6,0.3-3.6,0.3-3.6,0.3c1-0.7,2.4-2.6,1.6-3.7
		c-0.2-0.2-0.3-0.1-0.5,0.2c-0.9,1.5-1.3,1.8-2.5,1.8c-1.8,0-3.1-1.2-3-2.9c0.1-1.7,2.6-2.5,2.2-0.9c-0.1,1.4,1.3,1.7,1.6,0.3
		c0.1-0.5,0-0.3,0.1-0.9c2.8-1.5,1.3-4.6-1.4-3.9c-0.6,0.2-0.7,0.2-1.1,0c-0.8-0.4-1.5-0.3-1.8,0.3c-0.3,0.5,0.1,0.9,0.7,0.9
		c0.6,0,0.7,0.3,0.7,0.7c0,0.9-1.5,1.3-2.5,0.8c-2.6-1.4-1.7-4.9,1.4-4.9c0.9,0,1.3,0.1,1.4-0.1c0.1-0.6-1.3-1.6-2.1-1.4
		c-0.7,0.1-1.1,0.3-0.7-0.6c0.2-0.9,0.2-1.4,0-2.1c-0.5-1-0.5-0.5-0.8,0.3c-1,1.7-2.5,2.1-3.8,1.1c-1.2-0.9-1.2-2.5,0-3.6
		c0.8-0.8,1.7-0.3,1.2,0.6c-0.2,0.4,0,0.8,0.3,0.9c0.7,0.2,1.2-0.2,1.2-1.1c0-0.5-0.2-0.6,0.7-1.1c2.3-1.3,0.6-4.8-2-3.7
		c-0.6,0.2-0.7,0.5-0.9,0.4c-1.1-1-2.6,0.3-1.7,0.9c0.4,0.2,0.9,0.3,1,0.3c0.2,0.1,0.1,0.4-0.2,0.8c-1.1,1.2-3.4,0.6-4-1.1
		c-0.7-2,1.4-4.2,3-3c0.5,0.4,0.9,0.4,0.9-0.1c0-0.8-1-1.7-2.3-1.7c-1.3,0.1-1.2,0.3-0.5-0.9c0.5-1.1,0.5-2.1,0-2.7
		c-0.4-0.5-0.7-0.6-0.7-0.1c0.3,1.6-1.6,3.1-3.1,2.4c-1.5-0.7-2.2-2.3-1.5-3.7c0.7-1.3,2.3-1.4,2,0c-0.1,0.9,0.5,1.4,1.2,0.8
		c0.2-0.2,0.3-0.4,0.3-0.9c0-0.6-0.2-0.8,0.2-1.2c1.1-0.1,1.1-2.4,1-2.5L137.5,21.2z M112.5,21.3l3.9,0
		C116.4,24,112.9,23.7,112.5,21.3z M118.2,21.3c0.7,0,1.3,0.2,1.3,0.9c0,0.7-0.6,1.2-1.2,1.2c-0.7,0-1.2-0.6-1.2-1.2
		C117,21.5,117.5,21.3,118.2,21.3z M106.1,21.4h2.8l21.7,36.4l-2.6,1.3L106.1,21.4z M110.6,22.7c1.3,0.8,2.5,1.4,4.2,1.5
		c-0.5,1-0.9,2.1-1,3.9L110.6,22.7z M115,30c1.3,0.5,2.5,1.2,4.7,0.5c-1.2,1-1.8,2.3-2.3,3.6L115,30z M126.3,34.4
		c0.6,0,1.1,0.5,1.1,1.2s-0.5,1.1-1.1,1.1c-0.6,0-1.1-0.5-1.1-1.1S125.7,34.4,126.3,34.4z M119.3,37.3c1,0.4,2,0.6,3.1,0.5
		c-0.6,0.8-0.7,1.9-0.8,3.3L119.3,37.3z M122.6,43c0.9,0.4,2,1.1,3.8,0.9c-1.2,2.1-1,2.7-1.1,3.6L122.6,43z M133.5,47.2
		c0.7,0,1.2,0.5,1.2,1.2s-0.5,1.2-1.2,1.2c-0.7,0-1.2-0.5-1.2-1.2S132.8,47.2,133.5,47.2z M126.7,49.9c0.8,0.5,2.4,0.7,2.5,0.6
		c-0.1-0.1-0.5,1.6-0.5,2.6L126.7,49.9z M130.5,56.1c1.2,0.7,2.5,0.6,3.2,0.7c-0.8,0.2-1.6,0.4-2.4,0.7L130.5,56.1z M144.3,63
		c-2.8,0.2-3.5,2.4-3.1,4.5c-2.1-0.3-4.5,1.7-3.9,4.2c0.6,2.4,2.8,2.5,4.3,2.3c-0.1,0.6-0.4,2.5,1.9,4.1l0.3,12.3c0,0-1-0.9-1.7-1.6
		c-2.9-2.9-7.3-5-7-3.4c0,0.2,0.1,0.9,0.2,1.4c0.5,2.8,4.2,5.8,6.7,7.3c0.9,0.5,1.5,1.1,1.5,1.1c-4.7,5.1-7.3,10.5-7.9,16
		c-0.6,5-1.1,9.5-1.5,14.2c-1.9,23.1-11.8,28.9-12.3,30.1l-0.2,3.1l-2.8-0.2l-3.2,2.8c10.4,5.4,16.5,11.9,16.4,12
		c8.3-5.5,15.5-11.5,22.2-17.8l-0.1-51.5c0,0-0.6,0.2-0.7,0.2c-0.5,0-0.6,0.2-0.8,1.2c-0.1,0.5-0.4,1-0.7,1.4
		c-0.5,0.7-0.3,0.3,0.3,0.6c1.3,0.5-0.4,3-2.3,3.3c-1.4,0.2-2.1,0.5-2.4,0.8c-2.9,2.5-5.7,2.9-7.9,2c-1.1-0.5-2.2-1.1-2.6-2.2
		c-0.9-2.5,1-6.2,2-8.3c2-3.9,5.3-6.8,5.3-6.8l-0.5-0.6c1.5-0.1,3.7-0.9,4.3-1.9c3.2-4.4,4.8-10.4,3.3-13.7
		c-2.2,1.7-4.5,5.8-5.8,8.2c-0.5-3.5-0.6-9.7-0.6-9.7c0.5-0.5,3.2-0.2,2.6-4.7c2.4,1.1,4.9-0.6,4.8-2.9c-0.2-3.6-2.9-3.5-5.1-3
		C148.3,65.4,146.3,62.8,144.3,63z M144.2,63.3c2.9,0.1,3.5,3.4,1.7,5.2c0,0-1.2-0.9-1.8-1.4c-0.6,0.5-0.8,0.9-1.4,1.3
		c-0.8-0.6-1.2-1.6-1.2-2.5C141.6,64.3,143.1,63.2,144.2,63.3z M77.2,63.4c11.9,6.7,26.8,7.2,40.4,0.3l-0.2,1.1l-1.5,0.8l0.8,1.6
		l0.5-0.2l0,1c-11.2,6.1-30.1,7.4-44.8-2.8c0.8-0.5,2.9-1,2.9-1l-0.7,0.9l1.8,1.2l0.9-1.3L76,64L77.2,63.4z M78.2,65.4L77.6,67
		l1.7,0.9l0.6-1.6L78.2,65.4z M71.8,65.6c18.3,11.5,35.3,8.1,45.5,3.4l0.1,1.2c-13.2,5.6-30.5,7.2-47.1-4L71.8,65.6z M114.8,66.3
		l-1.6,0.7l0.6,1.5l1.7-0.7L114.8,66.3z M69.6,66.6c14.9,9.6,30.8,11.5,48,4.5l0.7,1.8c-16.7,6.8-34.4,6-50.5-5.5L69.6,66.6z
		 M81,66.7l-0.7,1.6l1.8,0.7l0.5-1.6L81,66.7z M112.3,67.3l-1.6,0.5l0.5,1.5l1.7-0.6L112.3,67.3z M83.8,67.8l-0.4,1.6l1.9,0.5
		l0.3-1.6L83.8,67.8z M149,67.8c1.4,0,2.8,1.1,2.9,2.7c0.3,2.8-3.8,4.1-5.3,1.5l1.3-1.6l-1.2-1.1C147.3,68.2,148.2,67.8,149,67.8
		L149,67.8z M67.3,67.8l4.4,3.1l-3.2,5l-4.8-3.2L67.3,67.8z M140.5,67.9c0.7,0,1.4,0.3,1.9,0.9l-1.6,1.9l1.7,1.8
		c-2,2.2-5.1,0.8-5-1.8C137.5,69.3,139,67.9,140.5,67.9z M144.1,68l2.8,2.5l-2.6,3l-2.6-2.7L144.1,68z M109.6,68.1l-1.7,0.5l0.4,1.5
		l1.7-0.5L109.6,68.1z M86.8,68.6l-0.3,1.6l1.9,0.4l0.3-1.6L86.8,68.6z M106.8,68.8l-1.8,0.4l0.3,1.6l1.8-0.4L106.8,68.8z
		 M144.3,69.2l-1.5,1.5l1.5,1.5l1.5-1.5L144.3,69.2z M89.9,69.3l-0.2,1.6l2,0.3l0.2-1.6L89.9,69.3z M103.6,69.5l-1.8,0.2l0.2,1.6
		l1.9-0.2L103.6,69.5z M92.8,69.7l0,1.7l1.8,0.1v-1.6L92.8,69.7z M100.6,69.8l-1.8,0.1l0,1.6l1.8-0.1L100.6,69.8L100.6,69.8z
		 M68,69.9c-1.1,0-1.9,0.9-1.9,1.9c0,1.1,0.9,1.9,1.9,1.9s1.9-0.9,1.9-1.9C69.9,70.7,69,69.9,68,69.9z M97.6,69.9l-1.8,0l0,1.6
		l1.8,0L97.6,69.9z M144.3,69.9l0.8,0.8l-0.8,0.8l-0.8-0.8L144.3,69.9z M144.3,70.4c-0.2,0-0.3,0.1-0.3,0.3c0,0.1,0.1,0.3,0.3,0.3
		c0.2,0,0.3-0.1,0.3-0.3C144.6,70.5,144.5,70.4,144.3,70.4z M67.9,70.5c0.7,0,1.3,0.6,1.3,1.3c0,0.7-0.6,1.3-1.3,1.3
		s-1.3-0.6-1.3-1.3C66.7,71.1,67.3,70.5,67.9,70.5z M61.2,70.6l2.5,2.1c-0.8,1.6-3.4,4.8-3.4,4.8l-4.7-3.8l2.5-1.4
		c-0.1,0.3-0.2,0.6-0.2,0.9c0,1,0.8,1.9,1.9,1.9s1.9-0.8,1.9-1.9c0-1-0.8-1.8-1.8-1.9L61.2,70.6z M59.7,72c0.7,0,1.3,0.6,1.3,1.3
		c0,0.7-0.6,1.3-1.3,1.3s-1.3-0.6-1.3-1.3S59.1,72,59.7,72z M146,72.6c0,0,0.7,0.3,0.9,0.5c1.4,2.1-0.1,4.6-2.3,4.5
		c-2.7-0.1-3.4-3.4-1.5-4.8l1.5,1.4L146,72.6z M76.7,73.4l5.3,2l-2,5.7l-5.7-2.4L76.7,73.4z M55.1,74c21.4,19.4,51.9,20.8,74,7.9
		l1.3,0l0.7,0.7c-25.2,15-56.5,11.7-77.7-7.6L55.1,74z M114.1,75.2l1.7,5.7l-5.8,1.5l-1.3-5.7L114.1,75.2z M52.9,75.4
		c6.5,6.3,15.7,11.8,26.5,15l0.3,2.3c-11.5-3.5-20.1-8.1-28.6-16.1L52.9,75.4z M78.1,75.5c-1,0-1.9,0.8-1.9,1.9s0.8,1.9,1.9,1.9
		c1,0,1.9-0.8,1.9-1.9S79.1,75.5,78.1,75.5z M68.8,75.9l5.4,2.9l-2.7,5.4l-5.8-3.1L68.8,75.9z M78.1,76.1c0.7,0,1.3,0.6,1.3,1.3
		s-0.6,1.3-1.3,1.3c-0.7,0-1.3-0.6-1.3-1.3S77.4,76.1,78.1,76.1z M87.1,76.9l5.2,0.8L92,83.4l-6.1-0.7
		C86.2,80.6,87.1,76.9,87.1,76.9z M112.2,77c-1,0-1.9,0.8-1.9,1.9c0,1,0.8,1.9,1.9,1.9c1,0,1.9-0.8,1.9-1.9
		C114.1,77.8,113.2,77,112.2,77z M112.2,77.6c0.7,0,1.3,0.6,1.3,1.3s-0.6,1.3-1.3,1.3c-0.7,0-1.3-0.6-1.3-1.3S111.5,77.6,112.2,77.6
		z M69.8,77.7c-1,0-1.9,0.8-1.9,1.9c0,1,0.8,1.9,1.9,1.9c1,0,1.9-0.8,1.9-1.9C71.7,78.5,70.9,77.7,69.8,77.7z M103.1,77.7l0.7,5.8
		l-5.7,0.3L97.9,78L103.1,77.7z M143.9,78.2h0.8c0.1,5,0.5,10.8,1,15.1c0.1,0.6,0.1,0.8,0.1,0.9c-0.6,1-1.2-0.3-1.5-3.1
		c-0.1-0.8-0.2-1.9-0.3-2.7C143.8,86.2,143.9,78.2,143.9,78.2z M47.8,78.3L47.8,78.3C39.2,83.7,25,96.5,25.1,96.8l0.1,49.2l1.1,0.1
		l0.9-1.8c-1.4-0.4-1-3,1.7-3.6c0.5-0.1,1.9-0.6,2.2-0.8c2.1-1.6,5.4-2.5,7.8-1.9c3.4,0.9,4.4,3.5,2.5,7.8c-1.7,3.7-3.5,7.8-6.9,9.5
		c0,0,0.6,0.5,0.8,0.6c6.7-3.9,10.1-17.8,9.9-26.5c0.3-8.9,1.8-17.8,5.4-24.3c5.9-10.7,13.7-15,13.6-15
		C64.1,90.2,53.6,83.8,47.8,78.3L47.8,78.3z M69.8,78.3c0.7,0,1.3,0.6,1.3,1.3s-0.6,1.3-1.3,1.3c-0.7,0-1.3-0.6-1.3-1.3
		S69.1,78.3,69.8,78.3z M121.7,78.5l2,5.4l-5.6,2.3l-2-5.7L121.7,78.5z M89.3,78.6c-1,0-1.9,0.8-1.9,1.9s0.8,1.9,1.9,1.9
		c1,0,1.9-0.8,1.9-1.9C91.2,79.4,90.4,78.6,89.3,78.6z M100.8,79c-1,0-1.9,0.8-1.9,1.9c0,1,0.8,1.9,1.9,1.9s1.9-0.8,1.9-1.9
		C102.7,79.9,101.8,79,100.8,79z M89.3,79.2c0.7,0,1.3,0.6,1.3,1.3s-0.6,1.3-1.3,1.3s-1.3-0.6-1.3-1.3
		C88.1,79.7,88.6,79.2,89.3,79.2z M100.8,79.6c0.7,0,1.3,0.6,1.3,1.3s-0.6,1.3-1.3,1.3c-0.7,0-1.3-0.6-1.3-1.3
		S100.1,79.6,100.8,79.6z M119.9,80.3c-1,0-1.9,0.8-1.9,1.9c0,1,0.8,1.9,1.9,1.9s1.9-0.8,1.9-1.9C121.8,81.1,121,80.3,119.9,80.3z
		 M151.3,80.8c0.9,2.9-0.8,6.7-0.8,6.9c-1,2.9-2.3,5.3-2.7,5.4c-0.4,0.1-0.5,0.1-0.5-0.3c0-0.6,1.3-4.3,2.2-6.7
		c0.3-0.9,0.7-1.9,0.8-2.8c-0.9,1.5-3,5.7-3.4,8.4c-0.2,1.8-0.5,1.5-0.8-0.6c-0.3-2.9,0.3-4.4,3.6-8.5
		C150.2,81.9,150.9,81.3,151.3,80.8z M119.9,80.9c0.7,0,1.3,0.6,1.3,1.3c0,0.7-0.6,1.3-1.3,1.3c-0.7,0-1.3-0.6-1.3-1.3
		C118.6,81.5,119.2,80.9,119.9,80.9z M80.1,81l5.6,1.4l-1.3,5.9l-6.4-1.7L80.1,81z M110,82.4l1.6,5.8l-6.6,1.1l-1-5.9L110,82.4z
		 M82.1,83c-1,0-1.9,0.8-1.9,1.9s0.8,1.9,1.9,1.9s1.9-0.8,1.9-1.9S83.2,83,82.1,83z M92.1,83.3l6,0.3l0.1,6l-6.5-0.3L92.1,83.3z
		 M82.1,83.6c0.7,0,1.3,0.6,1.3,1.3c0,0.7-0.6,1.3-1.3,1.3s-1.3-0.6-1.3-1.3S81.4,83.6,82.1,83.6z M107.4,84.1c-1,0-1.9,0.8-1.9,1.9
		c0,1,0.8,1.9,1.9,1.9c1,0,1.9-0.8,1.9-1.9C109.3,85,108.4,84.1,107.4,84.1z M94.9,84.6c-1,0-1.9,0.8-1.9,1.9c0,1,0.8,1.9,1.9,1.9
		s1.9-0.8,1.9-1.9C96.8,85.4,95.9,84.6,94.9,84.6z M107.4,84.7c0.7,0,1.3,0.6,1.3,1.3c0,0.7-0.6,1.3-1.3,1.3c-0.7,0-1.3-0.6-1.3-1.3
		C106.1,85.3,106.7,84.7,107.4,84.7z M94.9,85.2c0.7,0,1.3,0.6,1.3,1.3c0,0.7-0.6,1.3-1.3,1.3c-0.7,0-1.3-0.6-1.3-1.3
		C93.6,85.8,94.2,85.2,94.9,85.2z M136.4,85.6c1.5,0.2,5.8,3.3,6.9,5.2c1,1.8,0.5,2.4-0.6,0.9c-1.5-1.7-5-4.4-5-4.4s0.4,0.7,2.2,2.5
		c1.8,1.8,3.7,4,3.7,4.4c0,0.3-0.4,0.2-0.9-0.1c-1.4-0.8-2.7-2-3.8-3c-1.6-1.4-3.4-4.6-3.1-5.4C135.9,85.5,136.1,85.6,136.4,85.6z
		 M51.9,86.1c1.2,0,2.5,0.7,2.5,2.1c0,1,0.1,1,1,1c0.8,0,3.2,0.3,3.2,0.3v2.7c0,0-1.1,0-2.5-0.1C53.9,92,53.9,92,53.6,93
		c-0.1,0.4-0.3,0.6-0.7,0.9c-2,1.3-4-1.1-2.7-3.4c0.4-0.8,0.5-1.1,0.2-1.5C49.8,87.6,50.6,86.1,51.9,86.1L51.9,86.1z M52.4,87.4
		c-0.2,0-0.5,0.1-0.8,0.4c-0.3,0.3-0.3,1.3,0,1.8c0.3,0.5,0.3,0.7-0.1,1c-0.7,0.6-0.7,1.8,0,2.3c0.6,0.4,1.2-0.1,1.2-1
		c0-0.9,0.6-0.9,0.6-0.9l4.2,0.1l0-0.7l-3.1-0.2c-0.4,0-0.9,0-1.2-0.3c-0.3-0.2-0.7-0.7-0.4-1.2C53.5,88.1,53.1,87.4,52.4,87.4
		L52.4,87.4z M43.3,89l2,3.4l2.3,0.1l0.2,2.1l2.8,1.8l-2.9,1.7l-0.1,2.1l-2.2,0.3l-2.1,2.6l-2-2.6l-2.2,0l0-2.2l-3-1.9l3.3-1.8
		l0-2.5l2.3-0.2L43.3,89z M114.2,90.6l0.1,2.1l-3.3,0.6l0.4-2.1L114.2,90.6z M93.1,92.7l4.4,0.1l-0.3,29.1c0,0-0.9,0-1,0l0-1.1
		l-1.4,0l-1.4-0.9L93.1,92.7z M43.3,93.4l-2.6,3.3l3.1,2.8l2.8-3.2L43.3,93.4z M94.5,93.9v1.3h1.9v-1.3H94.5z M43.3,95l1.8,1.3
		l-1.4,1.9L42,96.7L43.3,95z M114.3,95.8l-0.1,15.9c-6.1,4.8-8,13.3-8,13.3l-2.5-0.1l6.3-28.1L114.3,95.8z M81.3,96.1
		c-5.5,2.6-11,4.6-16.4,10.9c2.1,1.9,4.3,3.8,6.3,7.1c4.5-0.7,9.6,0.1,15,2.3L81.3,96.1z M94.5,96.5v1.4h1.9v-1.4H94.5z M30.6,96.5
		c1.4-0.1,2,1.2,2.3,1.9c0.1,0.4,0.2,0.9,0.2,0.9c4-0.3,3,4.3,0.4,4.5c-0.3,0,0.2,0.8,0.8,1.1c1.5,0.6,2.6,0.2,3.6-1.1
		c0.8-1,0.8-1.2,0.8-1.2l2.5,1.3c0,0,0.1,0-0.4,1.1c-0.8,2.1,0.4,4.6,1.3,2.8c0.5-1,1.9-1.6,2.9-1.1c1.1,0.5,1.5,2.5,0.7,3.8
		c-0.2,0.4-0.2,0.5-0.1,0.8c0.2,0.5,0.4,1.9,0.1,2.4c-0.3,0.6-0.7,0.7-1.3,0.2c-0.9-0.7-1.5-0.9-3.1-1.4c-2.9-0.5-3.4-1.6-4.6-3.9
		c-3.4,1-8.4-1.1-7.8-6.2c0.3-1.1,0.4-3.3-0.2-3.7C27.7,98,29,96.7,30.6,96.5z M80.8,97l4.4,18.5c-4.8-1.8-9.6-3.2-13.8-2.1
		c-1.9-3.1-3.6-4.6-5.7-6.6C69.9,101.8,75.1,99,80.8,97L80.8,97z M31,97.9c-0.3,0-0.6,0.1-0.9,0.4c0,0,0.3,0.3,0.5,0.6
		c0.3,0.5,0.3,0.5,0,1.7c-1.3,4.8,1.8,8,6.4,6.6c1.1-0.3,1.1-0.3,1.4,1c0.5,2.2,2,3.3,5.1,3.7c0.2,0,0.5,0.1,0.7,0.2
		c1.3,0.9,0.8-0.3,0.4-0.7c-0.3-0.3-0.7-0.7-0.7-0.7s0.4-0.3,0.6-0.4c0.9-0.5,1.2-2.2,0.5-2.6c-0.6-0.3-1.7,0.2-1.7,0.8
		c0,1.2-1.5,1.3-2.8,0.3c-1.7-1.3-0.2-4.5-0.2-4.5l-1-0.4c0.1,0.1-2,3.2-4.7,2.1c-1.8-0.7-3.1-2.9-2.3-3.5c0.6-0.2,1.4,0.2,1.8-0.2
		c0.9-0.7,0.2-2.1-1.2-2c-0.3,0-0.9,0.1-0.9,0.1c0.1-0.6,0.2-1,0.1-1.6C31.9,98.4,31.5,97.9,31,97.9z M94.5,99.3v1.1l1.8,0v-1.1
		L94.5,99.3z M94.5,101.7v1.2h1.9v-1.2H94.5z M94.5,104.2v1.2h1.9v-1.2H94.5z M94.5,106.6v1.3h1.9v-1.3H94.5z M94.5,109v1.2h1.9V109
		H94.5z M94.5,111.4v1.2h1.9v-1.2H94.5z M33.8,112.5l1.8,2.7l1.9,0.1l0.1,1.8l3.2,2.4l-2.8,2l-0.2,2l-2.2,0.1l-1.8,3l-2.2-2.6
		l-1.8-0.3l-0.2-2.4l-2.7-2l2.5-2l0.2-2.1l2.1,0.2L33.8,112.5z M136.9,113.8c0.2,0,0.4,0.1,0.6,0.2c0.7,0.3,0.9,0.4,2.6,0.5
		c2,0.1,2.7,0.3,3.7,0.9c0.6,0.4,0.6,0.4,1.3,0c2.8-1.9,5.9-0.2,6.2,3.3c0.1,0.9,0.2,1.3,0.5,2c0.2,0.5,0.5,0.9,0.3,1.3
		c-0.4,1-2.6,1.1-3.7-0.4c-0.2-0.2-0.4-0.3-0.7-0.3c-0.6,0.2-2.1-1-2-1c-0.1,0.8-0.2,1.5-0.4,2.6l-2.6,0c0,0-0.1-0.5-0.2-2.1
		c-0.1-1.9-0.6-2.5-1.2-1.4c-1,1.8-3.8,1-4-1.1c-0.1-0.7-0.1-0.8-0.5-1.1C135.3,115.9,135.7,113.8,136.9,113.8L136.9,113.8z
		 M94.5,113.9v1.1h1.9v-1.1H94.5z M137.2,115.1c-0.5-0.1-0.2,1,0.6,1.4c0.5,0.3,0.5,0.3,0.4,1.1c-0.1,1.5,1.4,2.3,2,1
		c0.1-0.2,0.2-0.5,0.1-0.7c-0.3-1.1,2.1-0.8,2.7,0.3c0.1,0.3,0.3,1,0.4,1.7c0.1,0.7,0.1,1.5,0.1,1.5h0.8c0,0,0-0.5,0-0.9
		c0.2-1.9,1-3.1,2.2-3.1c0.5,0,0.5,0.1,0.2,0.7c-0.6,1.1,0,1.8,1.3,1.8c0.8,0,0.8,0,1.2,0.6c0.3,0.7,0.6,0.9,0.9,0.7
		c0.2-0.1,0.2,0-0.1-2.2c-0.4-3.4-2.4-4.3-5.1-2.4c-0.8,0.5-0.9,0.5-1.6-0.1c-1-1-1.7-1.2-3.6-1.3
		C138.8,115.3,137.9,115.2,137.2,115.1L137.2,115.1z M73.3,116c-0.4,0-0.9,0.1-1.4,0.1c0.5,2.6,0.7,5.2,0.9,7.8
		c2.3-0.4,5.2,0,9.1,1.8c2.4,1.1,5.3,3,8.3,5.2c3.3,2.3,7.1,3.7,10.4,4.4c4,0.9,7.2,0.8,7.1,0.6c-0.2,0-1.4-6.4-1.3-7.8
		c-5.5-0.5-10.9-2.6-15-5.4C86.2,119.1,79.9,115.9,73.3,116z M94.5,116.2v1.1h1.9v-1.1H94.5z M33.8,116.5l-3.2,3.1l3.2,3l2.7-3
		L33.8,116.5z M33.8,118l1.4,1.6l-1.5,1.6l-1.8-1.6L33.8,118z M74.9,118.1c0.4,0,0.8,0.3,2.1,1c1.1,0.8,2,1.2,1.6,0
		c0.2-0.3,1.5,0.8,2.9,1.5c1.7,1.4,1.7,1,1.9,0.4c0.2-0.5,0.5-0.2,1.9,1.1c1.8,1.7,1.6,1.7,2,1.3c0.4-0.8,0.5-0.8,2,0.9
		c1.5,1.7,1.8,2.1,2.2,1.3c0.5-0.4,0.8,0,2.8,1.9c1,1,1.3,0.9,1.4,0.2c0.2-0.7,0.3-0.5,2,0.8c2,1.6,2.2,1.7,2.3,1.2
		c0.1-0.9,0.7-0.6,2.8,0.9c1.2,0.9,1.7,1.1,2,0.9c0.3-0.5-0.7-1.4,1.3-0.5l0.5,2.9l-0.7-0.2c-0.4-0.1-1.4-0.4-1,0.5
		c0.2,0.5-0.3,0.5-1.8-0.5c-2.2-1.3-2.6-1.6-2.8-1.4c-0.3,1-0.3,1.1-1.8-0.1c-1.7-1.3-2.1-1.7-2.3-1.2c0,1-0.5,0.8-2.1-0.6
		c-1.4-1.2-1.7-1.8-2.3-0.9c-0.2,0.3-0.3,0.2-0.6,0.1c-0.8-0.6-2.4-2.3-2.9-2.8c-0.4-0.4-0.6-0.3-0.9,0.1c-0.3,0.3-0.3,0.2-1.2-0.6
		c-2.1-2-2.5-2.4-2.8-2.2c-0.2,0.5,0,1.1-1.6-0.2c-2-1.5-2.9-2.1-2.8-1.2c-0.4,0.4-0.1,0.5-2.1-0.6c-1.9-1.1-2.2-1.4-2.5-1
		c-0.2,0.6-0.8,0.4-0.8,0.3l-0.4-3l0.7,0C73.9,118.4,74.5,118.1,74.9,118.1L74.9,118.1z M59.3,118.4c-0.2,0.5-1.2,3.1-1.2,9.8
		c0.1,0.2,2.7-2.4,2.8-4.8C60.9,121.1,59.3,118.3,59.3,118.4z M94.5,118.5v1.2h1.9v-1.2H94.5z M59.4,119.5c2.4,3.8-0.2,7.3-0.9,7.6
		C58.5,124.2,58.9,121.6,59.4,119.5z M121.4,122.7c-3.9,2.5-3.3,9.1-1.3,10.8C120.2,133.5,121.4,126.3,121.4,122.7z M120.9,123.5
		l-1,8.6C118.4,130.5,118.2,126,120.9,123.5z M145.3,124.9l2.1,2.6l1.8,0.1l0.4,1.9l2.7,2.2l-2.7,1.8l-0.2,2.1l-2,0.2l-2,3.1l-1.9-3
		l-1.8-0.2l-0.1-2l-2.9-2.1l2.8-1.7l0.1-2.3l2.2,0L145.3,124.9z M72.7,125.8c-1.3,6.2-4.4,10.5-8.8,13.4l0,0.6l-7.4,3
		c-1.6,7.6-4.5,15-10.6,22l1.7,3.5l-8.3,2.9l11.8,20.4c0.8,0-5.7,3.1-13.6,2.3c5,12.3,6,25.1,3.3,36.2l38.7-0.2l-29.6-58.4l-0.5-1
		c-0.4-0.8,15.5,1.8,12.3,17.3c0,0.3,0.1,0.4,0.3,0.2c3.1-2.7,24-10.2,40.6-0.3l4.9-2.1c-2.4,8.3-5,14-9.5,19l0.8,11.8
		c8-6.6,16.6-18.6,17.8-34.7c3.6-1.8,6.7-3.8,10.1-5.6l0.4,0.1l2.2-1.3c-6.9-7.6-21.1-15-30.2-16.9l0.5,2.6c-5-1.4-8.8-1.6-12.7-2.1
		l-0.6-27.4l-5.1-3l-0.2,30.3c-3.8,0-12.5,1.5-12.5,1.5l0.4-2.6l-4,0.8l-0.1-2.5l4.5-1.3l6.5-27.8L72.7,125.8z M73.3,126.4l2.1,0.4
		L68.9,154c0,0-3.6,1-3.8,0.9c-0.3-5.1-0.4-15.5-0.4-15.5C71,134,72,130.3,73.3,126.4z M29,128.4c1,0,2,0.7,2.1,1.3
		c0.2,0.4,0.3,0.6,0.6,0.6c1.6,0.2,1.7,0.7,1.7,1.6c-0.2,1.8,1,0.3,1.3-1.5c0-0.2,0-1.6,0-1.6l2,0c0,0,0.1,1.4,0.1,1.7
		c0.2,1.4,0.8,2.5,1.2,1.8c1.4-2.5,4.6-1.2,4.1,1.2c-0.1,0.6-0.1,0.6,0.3,1.1c0.6,0.7,0.9,1.5,0.7,2.1c-0.2,0.6-0.7,0.7-1.6,0.4
		c-0.5-0.2-1-0.2-2.5-0.3c-2,0-2.7-0.2-3.5-1.4c-1.8,1.6-3.9,1.5-5.2,0.6c-1-0.5-1.6-1.8-1.8-3.7c0-1-0.3-1.8-1-2
		c-0.3-0.3,0-1,0.6-1.6C28.3,128.5,28.6,128.4,29,128.4L29,128.4z M145.2,128.7l-2.7,3.4l3.3,2.9l3-3.6L145.2,128.7z M81.7,129.2
		l3.8,2.2l0.5,27l-4.3-0.1L81.7,129.2z M29.2,130.7c0.2,0.6,0.2,1,0.2,1.5c-0.4,3,3,4.5,5.4,2.4c0.6-0.7,0.8-0.7,1.3,0.1
		c0.7,0.8,1.6,1.1,3.7,1c0.9-0.1,1.5,0.4,2,0.1c0.3-0.2,0-0.8-0.6-1.1c-0.3-0.2-0.4-0.2-0.3-0.9c0.2-1.8-1.3-2.2-2.3-0.7
		c-0.8,1.2-2.1,0.4-2.5-1.6c-0.2-1.6-0.4-1.5-0.6-0.2c-0.2,1.6-2.4,3.4-3.2,2.6c-0.2-0.2-0.2-0.2,0-1c0.3-1.1,0.1-1.5-1.1-1.7
		c-0.2,0-0.4-0.2-0.5-0.3c-0.6-0.9-0.6-1.2-1.4-1.3C28.3,129.4,29,130.2,29.2,130.7z M145.4,130.2l1.7,1.5l-1.5,1.8l-1.8-1.4
		L145.4,130.2z M82.9,131.1v1.2v0h1.6v-1.3H82.9z M82.9,133.7v1.2v0.1h1.6v-1.3H82.9z M92.7,135.2c1.8,6.8,3.7,13.6,5.5,20.4
		c1.7-0.7,11.7-5.2,16.4-10.9c-0.2,0-4.3-4-5.7-6.6C104.2,138.9,98.8,137.9,92.7,135.2z M82.9,136.1v1.2v0h1.6v-1.3L82.9,136.1z
		 M93.7,136.4c4.3,1.3,9.8,3.1,14.9,2.2c1.3,2.4,3.2,4.3,5.3,6.1c-3.8,4.2-9.4,7.4-15.1,9.9L93.7,136.4z M134.5,136.9
		c0.2,0,0.4,0.1,0.6,0.3c0.7,0.6,1.2,0.8,2.6,1c2.2,0.4,3.9,1.8,4.4,3.6c0.2,0.8,0.3,0.8,1.4,0.5c4.2-1.1,7.5,2.5,6.5,7.1
		c-0.4,1.6-0.5,1.8,0,2.5c1.1,1.2,1.3,1.2,0.1,2.2c-1.1,1-3.2,0.5-3.6-1.1c-0.4-0.9-0.4-0.9-1.1-1c-2.8-0.4-2.6-4.3,0-4.7
		c0.2,0,0.4,0,0.5,0c0.7-0.3-0.8-2.1-2.1-1.8c-1.6,0.3-2.3,1.3-3,2.9l-2.5-1.4c0.6-1.3,1.1-2.9,0.5-4c-0.4-0.9-1-0.9-1.1-0.1
		c-0.4,1.9-2.8,2.5-4.4,0.9c-0.9-0.9-1-1.8-0.3-3.1c0.4-0.8,0.4-0.9,0.3-1.2C132.7,138.4,133.5,136.9,134.5,136.9L134.5,136.9z
		 M82.9,138.5v1.3l1.6,0v-1.3H82.9L82.9,138.5z M134.8,138.6c-0.5,0-0.5,0.5,0,1.1c0.4,0.4,0.5,0.6-0.1,1c-0.7,0.7-0.9,1.7-0.4,2.4
		c0.7,1.1,2.4,0.5,2.2-0.8c-0.1-0.9,0.6-1.4,1.8-1c1.7,0.5,2.5,2.4,1.8,4.4c-0.1,0.4-0.4,1.2-0.4,1.2l0.5,0.3c0,0,0.6-1,0.8-1.2
		c1.9-2.4,6.5-1.2,6,1.8c-0.1,0.9-0.1,1.1-1.1,0.8c-0.7-0.4-1.3,0.4-1.3,1.3c0,0.8,0.7,1.5,1.7,1.3c0.8-0.1,1-0.1,0.9,0.9
		c0.1,0.7,0.4,1.2,0.8,1.5c1.2,0.5,1.7-0.2,0.8-1.2c-0.6-0.6-0.5-1.5-0.2-2.4c0.4-1,0.2-3.3-0.4-4.5c-0.9-1.8-3.5-2.6-5.7-1.7
		c-1,0.5-1.1,0.7-1.2-0.3c-0.5-2.3-2.3-4.1-4.5-4.2C136.2,139.1,135.3,138.7,134.8,138.6z M82.9,140.9v1.2h1.6v-1.2H82.9z
		 M82.9,143.3v1.3h1.6v-1.3H82.9z M82.9,145.9v1.3c0,0,0.9,0,1.6,0v-1.3H82.9z M135.9,148l1.8,2.6l2,0.1l0.2,2.1l3,1.9l-2.6,1.6
		l0,2.1l-2.5,0.2l-2.2,2.9l-1.9-2.6l-1.9,0l-0.4-2.3l-3.3-1.7l3.4-1.9l-0.1-2.4l2.3,0L135.9,148z M82.9,148.4v1.4h1.6v-1.4H82.9z
		 M82.9,150.9v1.4h1.6v-1.4H82.9z M134.9,151.9l-2.5,3.4l3.4,2.9l2.7-3.4L134.9,151.9z M82.9,153.2v1.5h1.6v-1.5H82.9z M135.2,153.4
		l1.8,1.4l-1.3,1.6l-1.8-1.3L135.2,153.4z M82.9,156v1.2h1.6V156H82.9z M34.7,156.1c-3.1,0-6.1,5.1-6.8,7.5c-0.8,3.1-1,8.7-0.2,8.8
		c2.8-2,4.1-5.5,6.2-8c0.3,3,0.3,8.7,0.3,8.7s-1.2,0.7-1.9,1.7c-0.5,0.9-0.6,1.9-0.2,2.9c-1.6-0.5-4.4,0.1-4.5,3
		c0.1,4.1,4.5,3.5,4.5,3.4c-0.1,0-0.9,4.3,3.1,4.8c1.4,0.2,3.9-0.9,3.2-4.8c2.5,0.4,4.6-1,4.6-3.4c0-1.6-1.2-3.1-3.3-3.1
		c-0.4,0-1.4,0.2-1.4,0.2c0-0.2,0.9-2.8-2-4.6l-0.5-11.8c0,0,1,1.1,1.4,1.5c1.9,1.8,3.2,2.7,5.4,3.8c2.1,1.1,1.9,0.9,1.5-1.3
		c-1-3.2-3.1-5.7-7.6-8.8C35.8,156.3,35.2,156.1,34.7,156.1z M35,156.4l0.6,16.7h-0.9l-0.8-16.7L35,156.4z M127,156.9l0.3,0
		c2,0.2,2.5,2.4,1.6,3.5c-0.4,0.4-0.5,0.5-0.3,0.7c0.9,1.1,0.4,2.9-0.5,3.1c-2.7,0.9-3.1-0.6-3.1-2.4l-4.2-0.2l0-2.5l4.6,0.1
		C125.1,158.2,125.7,157,127,156.9L127,156.9z M33.1,157c0.4,0,0,1.2-1.2,3c-2.2,3.2-3.1,6-3.1,9c1-3.1,1.7-5.6,4.3-9.3
		c0.4-0.4,0.5-0.1,0.5,1.1c0,2.8-1.3,5.7-4.4,9.1c-0.5,0.6-1.2,1.2-1.3,1.2c-0.3,0-0.3-0.6-0.3-1.9c0-5.2,2-9.8,4.9-11.9
		C32.7,157.1,32.9,157,33.1,157z M36.1,157.2c1.4,0.4,3.8,2.6,4.8,3.7c1.2,1.3,2.7,4.8,2.5,5.3c-0.1,0.2-0.3,0.2-1-0.2
		c-4.3-2.5-7.4-5.5-6.6-6.4c0.2-0.3,1.2,0.3,2.4,1.5c0.8,0.8,1.7,1.5,2.5,2.3c1.2,1.2,1.5,1.4,0.8,0c-0.7-1.2-2.5-3.2-4.8-4.9
		C35.8,157.7,35.6,157.2,36.1,157.2L36.1,157.2z M127.2,157.9l-0.2,0c-0.9,0.4-0.5,1.5-0.6,2.3l-4.7-0.2l0,0.7l4.4,0.2
		c0.1,0.7-0.3,2.1,0.3,2.3c1.2,0.5,1.9-1.1,0.9-2c-0.4-0.3-0.8-0.5,0.3-0.9c0.7-0.6,0.8-1.7,0.2-2.2
		C127.6,158,127.4,157.9,127.2,157.9z M68,158.1l-0.2,1.7l-2.7,0.7l-0.1-1.9L68,158.1z M100,158.7c10,2.7,21.2,8.9,28.4,15.8l-1.4,1
		c-7.5-7-17.4-12.3-26.5-14.9L100,158.7z M82.8,159c16.5,0,31.6,6.4,43.7,16.8l-2,1.3c-11.1-9.2-23.3-15.3-39.9-16.1
		c-10.8-0.5-23.1,2.3-35.2,9l-0.9-1.7C60.3,161.9,71.8,159,82.8,159z M81.5,161.5l6.5,0.2l-0.4,6.1l-5.9-0.2L81.5,161.5z
		 M74.5,161.9l0.9,5.8l-5.6,1.1l-1.6-5.9L74.5,161.9z M95,162.7l6.4,1.7l-2.1,6l-5.7-1.6L95,162.7z M84.7,162.8
		c-1,0-1.9,0.8-1.9,1.9c0,1,0.8,1.9,1.9,1.9s1.9-0.8,1.9-1.9C86.6,163.6,85.7,162.8,84.7,162.8z M84.7,163.4c0.7,0,1.2,0.5,1.2,1.2
		s-0.6,1.2-1.2,1.2s-1.2-0.5-1.2-1.2S84,163.4,84.7,163.4z M71.9,163.4c-1,0-1.9,0.8-1.9,1.9c0,1,0.8,1.9,1.9,1.9
		c1,0,1.9-0.8,1.9-1.9S72.9,163.4,71.9,163.4z M71.9,164.1c0.7,0,1.2,0.5,1.2,1.2s-0.6,1.2-1.2,1.2s-1.2-0.5-1.2-1.2
		S71.2,164.1,71.9,164.1z M97.4,164.8c-1,0-1.9,0.8-1.9,1.9s0.8,1.9,1.9,1.9c1,0,1.9-0.8,1.9-1.9S98.5,164.8,97.4,164.8z M61.5,165
		l1.9,5.7l-5.5,2.2l-2.1-5.6L61.5,165z M97.4,165.5c0.7,0,1.2,0.5,1.2,1.2s-0.6,1.2-1.2,1.2c-0.7,0-1.2-0.5-1.2-1.2
		S96.8,165.5,97.4,165.5z M108.2,166.8l5.8,3.1l-3,5.5l-5.4-2.8L108.2,166.8z M59.6,167.3c-1,0-1.9,0.8-1.9,1.9s0.8,1.9,1.9,1.9
		c1,0,1.9-0.8,1.9-1.9S60.6,167.3,59.6,167.3z M81.5,167.5l0.3,5.8l-5.1,0.4l-0.9-5.7L81.5,167.5z M87.7,167.8l5.9,0.8l-1.4,5.5
		l-5.3-0.9L87.7,167.8z M59.6,168c0.7,0,1.2,0.5,1.2,1.2s-0.6,1.2-1.2,1.2c-0.7,0-1.2-0.5-1.2-1.2S58.9,168,59.6,168z M78.8,168.7
		c-1,0-1.9,0.8-1.9,1.9s0.8,1.9,1.9,1.9s1.9-0.8,1.9-1.9S79.8,168.7,78.8,168.7z M69.4,168.9l1.5,5.6l-5.6,1.6l-1.7-5.4L69.4,168.9z
		 M89.9,169c-1,0-1.9,0.8-1.9,1.9s0.8,1.9,1.9,1.9s1.9-0.8,1.9-1.9S90.9,169,89.9,169z M78.8,169.4c0.7,0,1.2,0.5,1.2,1.2
		s-0.6,1.2-1.2,1.2s-1.2-0.5-1.2-1.2S78.1,169.4,78.8,169.4z M89.9,169.7c0.7,0,1.2,0.5,1.2,1.2s-0.6,1.2-1.2,1.2
		c-0.7,0-1.2-0.5-1.2-1.2S89.2,169.7,89.9,169.7z M109.7,169.7c-1,0-1.9,0.8-1.9,1.9c0,1,0.8,1.9,1.9,1.9s1.9-0.8,1.9-1.9
		C111.6,170.5,110.8,169.7,109.7,169.7z M99.7,170.2l5.7,1.9l-2.3,5.3l-5.4-2.1L99.7,170.2z M109.7,170.3c0.7,0,1.2,0.5,1.2,1.2
		s-0.6,1.2-1.2,1.2s-1.2-0.5-1.2-1.2S109.1,170.3,109.7,170.3z M67.1,170.5c-1,0-1.9,0.8-1.9,1.9c0,1,0.8,1.9,1.9,1.9
		s1.9-0.8,1.9-1.9S68.2,170.5,67.1,170.5z M67.1,171.2c0.7,0,1.2,0.5,1.2,1.2c0,0.7-0.6,1.2-1.2,1.2s-1.2-0.5-1.2-1.2
		C65.9,171.7,66.5,171.2,67.1,171.2z M101.4,172.3c-1,0-1.9,0.8-1.9,1.9c0,1,0.8,1.9,1.9,1.9s1.9-0.8,1.9-1.9
		C103.3,173.1,102.5,172.3,101.4,172.3z M101.4,172.9c0.7,0,1.2,0.5,1.2,1.2s-0.6,1.2-1.2,1.2s-1.2-0.5-1.2-1.2
		S100.8,172.9,101.4,172.9z M35.1,173.6c1.5,0.1,2.6,1.4,2.7,2.8c0.1,1.1-1.3,2.4-1.3,2.4l-1.6-1.5l-1.5,1.4
		c-0.3,0.1-1.4-1.9-1.1-2.9C32.8,174.5,33.8,173.5,35.1,173.6z M119.3,173.6l4.5,3.7c0,0-2,1.2-2.3,1.4c0-0.2,0.1-0.3,0.1-0.5
		c0-1-0.8-1.9-1.9-1.9s-1.9,0.8-1.9,1.9c0,0.9,0.6,1.6,1.4,1.8c-0.5,0.3-1.1,0.6-1.1,0.6l-2.4-2L119.3,173.6z M83.6,173.7
		c9,0.1,18.7,2.8,28.6,9.7l-2,0.8c-12.2-8.1-28.9-12.5-48-4.4l-0.7-1.6C68.2,175.5,75.7,173.6,83.6,173.7z M111.1,175.4l4.8,3
		l-3.1,4.7l-4.7-3L111.1,175.4z M82.4,176.2c9.6,0,19.1,3,27.3,8.3l-2,0.8c-14.9-9.6-30.8-9.1-45-3.3l-0.2-1.4
		C69.2,177.6,75.8,176.2,82.4,176.2z M119.7,176.9c0.7,0,1.2,0.5,1.2,1.2s-0.6,1.2-1.2,1.2s-1.2-0.5-1.2-1.2S119,176.9,119.7,176.9z
		 M30.7,177.8c0.8,0,1.7,0.4,2.3,1.3l-1.7,1.7l1.5,1.7c0,0-0.5,0.4-0.8,0.6c-2,1.1-4.2-0.6-4-2.5C28,179,29.3,177.8,30.7,177.8z
		 M111.8,177.9c-1,0-1.9,0.8-1.9,1.9c0,1,0.8,1.9,1.9,1.9c1,0,1.9-0.8,1.9-1.9C113.7,178.7,112.8,177.9,111.8,177.9z M39.7,177.9
		c1.5,0,2.6,1.2,2.8,2.5c0.1,1-0.4,2-1.6,2.8c-1.6,1-3.4-0.6-3.4-0.7l1.3-1.3l-1.6-1.6C37.1,179.5,38.2,177.9,39.7,177.9z
		 M35.1,178.3l2.7,2.7l-2.9,2.7l-2.7-2.7L35.1,178.3z M107.1,185.5l-1.5,0.7l-2.1-1.3l-0.6,1.2l1.2,0.7l-1.2,0.5
		c-13.9-7.9-29.7-5.6-40.1-0.4l0.1-0.8l1.1-0.6l-0.4-1.4l-0.6,0.2l0-1.6c6.5-3,12.9-4.3,20.6-4.2C91.2,178.6,100.1,181,107.1,185.5z
		 M111.8,178.5c0.7,0,1.2,0.5,1.2,1.2s-0.6,1.2-1.2,1.2s-1.2-0.5-1.2-1.2S111.1,178.5,111.8,178.5z M35,179.5l-1.5,1.5l1.4,1.6
		l1.4-1.5L35,179.5z M80.6,179.8l-1.9,0.1l0.1,1.6l1.9,0L80.6,179.8z M81.9,179.8l0,1.6l1.7,0l0-1.5L81.9,179.8z M84.9,179.8
		l-0.1,1.6l1.7,0.1l0.1-1.5L84.9,179.8z M77.5,180l-2,0.2l0.2,1.6l1.8-0.2L77.5,180z M88.1,180.1l-0.1,1.6l1.8,0.2l0.2-1.5
		L88.1,180.1z M35,180.1l0.8,0.9l-0.8,0.8l-0.9-0.9L35,180.1z M74.2,180.6l-1.9,0.3l0.2,1.6l1.8-0.4L74.2,180.6z M91.3,180.6
		l-0.3,1.5l1.8,0.4l0.3-1.5L91.3,180.6z M35,180.7c-0.2,0-0.3,0.1-0.3,0.3c0,0.1,0.1,0.3,0.3,0.3s0.3-0.1,0.3-0.3
		C35.3,180.8,35.2,180.7,35,180.7z M71.1,181.2l-1.6,0.4l0.3,1.6l1.7-0.4L71.1,181.2z M94.3,181.3l-0.3,1.5l1.8,0.5l0.4-1.5
		L94.3,181.3z M68.5,182l-1.7,0.6l0.4,1.5l1.7-0.6L68.5,182z M97.4,182.2l-0.6,1.5l1.5,0.6l0.7-1.3L97.4,182.2z M36.9,183
		c1.6,1.5,1.6,4.9-1.3,5.5c-2.6,0.5-4.9-3.3-2.2-5.4l1.6,1.6L36.9,183z M65.8,183.1l-1.6,0.7l0.6,1.4l1.5-0.7L65.8,183.1z
		 M100.3,183.4l-0.6,1.3l1.7,0.8l0.6-1.3L100.3,183.4z M51.5,192L73,228.9l-3.4-0.1l-20.9-35.7L51.5,192z M47.9,193.4l1.2,1.9
		c-2.3-1.9-5.8-0.3-5.6,2.1c0.1,1.1,1,1.7,1,0.7c-0.1-1.1,1.4-2,2.5-1.9c2,0,3.2,2.6,1.8,3.9c-0.9,0.8-2.1,0.8-1.7-0.3
		c0.1-0.4,0-0.5-0.2-0.7c-0.6-0.5-1.6,0.2-1.4,0.9c0.2,0.5,0.2,0.6-0.4,1c-2.3,1.6-0.7,4.8,2.1,3.4c0.6-0.2,0.8-0.2,1.1-0.1
		c1.2,0.4,1.9-0.6,0.8-1.1c-0.6-0.3-0.7-0.8,0-1.2c1.3-0.9,3.3,0.5,3.3,2.3c0,1.2-1.6,2.2-3.2,1.8c-0.9-0.2-1,0.4-0.2,1.1
		c1.7,1.3,4.1,0.2,4.9-2.1c0.2-0.7,0.2-0.9,0.2-0.9l2.2,3.7c0,0-0.7-0.3-1.1-0.5c-2.1-0.6-4.4,0.7-4.4,2.6c0,0.9,0.5,1.2,0.8,0.5
		c0.7-1.6,2.1-2.2,3.6-1.5c1.4,0.6,2,2,1.5,3.3c-0.6,1.3-2.5,1.7-2.2,0.5c0.1-0.6-0.3-1-0.9-0.9c-0.2,0-0.5,0.7-0.5,1.1
		c0.1,0.3,0,0.4-0.8,1c-1.9,1.5-0.4,4,2,3.3c0.4-0.1,0.6-0.1,0.9,0.1c0.9,0.4,1.8,0.2,1.8-0.5c0-0.5-0.2-0.6-0.7-0.6
		c-0.8,0-0.6-0.9,0.3-1.4c2.3-1.1,4.6,1.8,3.2,4c-0.6,1-1,1.1-3.1,0.8c-0.3,0-0.5,0.2-0.3,0.5c0.6,0.9,2.5,1.2,3.6,0.7
		c1.2-0.5,1.9-1.9,2-3.3l2.4,4.2c-1.9-2-5.1-1.2-5.6,1.6c0,0.7,0.6,1.1,0.9,0.5c1-2.6,4.7-1.8,4.7,1c0,0.4-0.1,0.7-0.4,1.1
		c-0.7,1.3-2.4,1.6-2.1,0.5c0.1-0.4-0.1-0.8-0.6-0.9c-0.5-0.1-0.8,0.3-0.8,1c0,0.5,0,0.7,0,0.7c-0.9,0.4-1.4,1.1-1.6,2.2l-16.9,0
		c2-11.8,1.5-22.4-2.3-32.5c-0.3-0.9-0.8-2.1-0.8-2.1l3,0.1c0.7,0.6,3.4,0.4,4.5-0.6L47.9,193.4z M50.8,198.1l1.7,3.2
		c-0.7-0.4-1.5-0.7-2.6-0.8C50.5,199.6,50.6,198.8,50.8,198.1z M46.2,201.4c0.6,0,1.2,0.5,1.2,1.2s-0.5,1.2-1.2,1.2
		s-1.2-0.5-1.2-1.2S45.6,201.4,46.2,201.4z M58.2,210.8l1.7,3c-0.8-0.4-1.5-0.7-2.8-0.7C57.6,212.6,58,211.7,58.2,210.8z
		 M53.4,214.1c0.6,0,1.1,0.5,1.1,1.1s-0.5,1.1-1.1,1.1c-0.6,0-1.1-0.5-1.1-1.1S52.8,214.1,53.4,214.1z M65.6,223.5l2.5,4.4
		c-1-0.6-2-1.3-3.3-1.1C65.3,225.4,65.7,224.7,65.6,223.5z M60.9,227.5c0.7-0.1,1.4,0.6,1.4,1.5l-2.7,0
		C59.8,228,60.4,227.5,60.9,227.5z M64.8,227.9c0.9,0,1.7,0.4,2.2,1.2l-3.4,0C63.6,229,63.6,227.8,64.8,227.9z"/>
	<path class="st1" d="M48.3,65c0,0-3.7-6.1-8.8-13.3c-3.4-4.8-6.1-10-6.3-14.5C33,32,35.7,26.9,40.6,26.6c4.9-0.2,6.9,4,7.7,7.4
		c0.8-3.5,2.8-7.7,7.7-7.4c4.9,0.2,7.6,5.4,7.4,10.5c-0.3,4.5-2.9,9.7-6.3,14.5C52.1,58.9,48.3,65,48.3,65L48.3,65z"/>
	<path class="st1" d="M131.2,185.3c0,0-3.7,6.1-8.8,13.3c-3.4,4.8-6.1,10-6.3,14.5c-0.3,5.1,2.4,10.3,7.4,10.5
		c4.9,0.2,6.9-4,7.7-7.4c0.8,3.5,2.8,7.7,7.7,7.4c4.9-0.2,7.6-5.4,7.4-10.5c-0.3-4.5-2.9-9.7-6.3-14.5
		C134.9,191.5,131.2,185.3,131.2,185.3z"/>
</g>
</svg>
