<?xml version="1.0" encoding="utf-8"?>
<!-- Generator: Adobe Illustrator 21.0.0, SVG Export Plug-In . SVG Version: 6.00 Build 0)  -->
<svg version="1.1" id="Layer_1" xmlns="http://www.w3.org/2000/svg" xmlns:xlink="http://www.w3.org/1999/xlink" x="0px" y="0px"
	 viewBox="0 0 178.6 249.4" style="enable-background:new 0 0 178.6 249.4;" xml:space="preserve">
<style type="text/css">
	.st0{fill:#FFFFFF;}
</style>
<g>
	<path class="st0" d="M8.8,0.2h161.5c4.7,0,8.5,3.8,8.5,8.5v232.4c0,4.7-3.8,8.5-8.5,8.5H8.8c-4.7,0-8.5-3.8-8.5-8.5V8.8
		C0.3,4.1,4.1,0.2,8.8,0.2z"/>
	<path d="M131,26.7c-7.9,0.2-11.4,9-5.6,15.9c0.8,1,0.9,1.6-0.6,0.6c-3.9-2.6-11.4-0.9-11.8,7.1c-0.5,9.9,13.3,12.7,15.9,2.2
		c0.1-1.1,1-1.1,0.8,0.5c-0.2,4.3-1.6,8.2-3.4,12.1c3.1,0,6.5,0,9.3,0c-1.8-3.9-3.2-7.9-3.4-12.1c-0.2-1.6,0.7-1.6,0.8-0.5
		c2.6,10.5,16.4,7.6,15.9-2.2c-0.4-8-7.9-9.7-11.8-7.1c-1.5,1-1.5,0.4-0.6-0.6C142.4,35.7,138.9,26.9,131,26.7L131,26.7L131,26.7z"
		/>
	<path d="M48.2,26.7c-7.9,0.2-11.4,9-5.6,15.9c0.8,1,0.9,1.6-0.6,0.6c-3.9-2.6-11.4-0.9-11.8,7.1c-0.5,9.9,13.3,12.7,15.9,2.2
		c0.1-1.1,1-1.1,0.8,0.5c-0.2,4.3-1.6,8.2-3.4,12.1c3.1,0,6.5,0,9.3,0c-1.8-3.9-3.2-7.9-3.4-12.1c-0.2-1.6,0.7-1.6,0.8-0.5
		c2.6,10.5,16.4,7.6,15.9-2.2c-0.4-8-7.9-9.7-11.8-7.1c-1.5,1-1.5,0.4-0.6-0.6C59.5,35.7,56,26.9,48.2,26.7L48.2,26.7L48.2,26.7z"/>
	<path d="M131,223.9c-7.9-0.2-11.4-9-5.6-15.9c0.8-1,0.9-1.6-0.6-0.6c-3.9,2.6-11.4,0.9-11.8-7.1c-0.5-9.9,13.3-12.7,15.9-2.2
		c0.1,1.1,1,1.1,0.8-0.5c-0.2-4.3-1.6-8.2-3.4-12.1c3.1,0,6.5,0,9.3,0c-1.8,3.9-3.2,7.9-3.4,12.1c-0.2,1.6,0.7,1.6,0.8,0.5
		c2.6-10.5,16.4-7.6,15.9,2.2c-0.4,8-7.9,9.7-11.8,7.1c-1.5-1-1.5-0.4-0.6,0.6C142.4,214.9,138.9,223.7,131,223.9L131,223.9
		L131,223.9z"/>
	<path d="M48.2,223.9c-7.9-0.2-11.4-9-5.6-15.9c0.8-1,0.9-1.6-0.6-0.6c-3.9,2.6-11.4,0.9-11.8-7.1c-0.5-9.9,13.3-12.7,15.9-2.2
		c0.1,1.1,1,1.1,0.8-0.5c-0.2-4.3-1.6-8.2-3.4-12.1c3.1,0,6.5,0,9.3,0c-1.8,3.9-3.2,7.9-3.4,12.1c-0.2,1.6,0.7,1.6,0.8,0.5
		c2.6-10.5,16.4-7.6,15.9,2.2c-0.4,8-7.9,9.7-11.8,7.1c-1.5-1-1.5-0.4-0.6,0.6C59.5,214.9,56,223.7,48.2,223.9L48.2,223.9
		L48.2,223.9z"/>
	<path d="M89.6,53.2c-7.9,0.2-11.4,9-5.6,15.9c0.8,1,0.9,1.6-0.6,0.6C79.5,67,72,68.8,71.6,76.8c-0.5,9.9,13.3,12.7,15.9,2.2
		c0.1-1.1,1-1.1,0.8,0.5c-0.2,4.3-1.6,8.2-3.4,12.1c3.1,0,6.5,0,9.3,0c-1.8-3.9-3.2-7.9-3.4-12.1c-0.2-1.6,0.7-1.6,0.8-0.5
		c2.6,10.5,16.4,7.6,15.9-2.2c-0.4-8-7.9-9.7-11.8-7.1c-1.5,1-1.5,0.4-0.6-0.6C101,62.2,97.4,53.4,89.6,53.2L89.6,53.2L89.6,53.2z"
		/>
	<path d="M89.6,197.4c-7.9-0.2-11.4-9-5.6-15.9c0.8-1,0.9-1.6-0.6-0.6c-3.9,2.6-11.4,0.9-11.8-7.1c-0.5-9.9,13.3-12.7,15.9-2.2
		c0.1,1.1,1,1.1,0.8-0.5c-0.2-4.3-1.6-8.2-3.4-12.1c3.1,0,6.5,0,9.3,0c-1.8,3.9-3.2,7.9-3.4,12.1c-0.2,1.6,0.7,1.6,0.8,0.5
		c2.6-10.5,16.4-7.6,15.9,2.2c-0.4,8-7.9,9.7-11.8,7.1c-1.5-1-1.5-0.4-0.6,0.6C101,188.4,97.4,197.2,89.6,197.4L89.6,197.4
		L89.6,197.4z"/>
	<path d="M165.1,209.7c3.1-0.1,4.6-3.8,2.2-6.6c-0.3-0.4-0.4-0.7,0.2-0.3c1.6,1.1,4.6,0.4,4.7-3c0.2-4.1-5.3-5.3-6.4-0.9
		c-0.1,0.5-0.4,0.5-0.3-0.2c0.1-1.8,0.6-3.4,1.4-5.1c-1.2,0-2.5,0-3.7,0c0.7,1.6,1.3,3.3,1.4,5.1c0.1,0.7-0.3,0.7-0.3,0.2
		c-1-4.4-6.5-3.2-6.4,0.9c0.2,3.3,3.2,4,4.7,3c0.6-0.4,0.6-0.2,0.2,0.3C160.5,206,162,209.6,165.1,209.7L165.1,209.7z"/>
	<path d="M48.2,79.6c-7.9,0.2-11.4,9-5.6,15.9c0.8,1,0.9,1.6-0.6,0.6c-3.9-2.6-11.4-0.9-11.8,7.1c-0.5,9.9,13.3,12.7,15.9,2.2
		c0.1-1.1,1-1.1,0.8,0.5c-0.2,4.3-1.6,8.2-3.4,12.1c3.1,0,6.5,0,9.3,0c-1.8-3.9-3.2-7.9-3.4-12.1c-0.2-1.6,0.7-1.6,0.8-0.5
		c2.6,10.5,16.4,7.6,15.9-2.2c-0.4-8-7.9-9.7-11.8-7.1c-1.5,1-1.5,0.4-0.6-0.6C59.5,88.6,56,79.8,48.2,79.6L48.2,79.6L48.2,79.6z"/>
	<path d="M48.2,171c-7.9-0.2-11.4-9-5.6-15.9c0.8-1,0.9-1.6-0.6-0.6c-3.9,2.6-11.4,0.9-11.8-7.1c-0.5-9.9,13.3-12.7,15.9-2.2
		c0.1,1.1,1,1.1,0.8-0.5c-0.2-4.3-1.6-8.2-3.4-12.1c3.1,0,6.5,0,9.3,0c-1.8,3.9-3.2,7.9-3.4,12.1c-0.2,1.6,0.7,1.6,0.8,0.5
		c2.6-10.5,16.4-7.6,15.9,2.2c-0.4,8-7.9,9.7-11.8,7.1c-1.5-1-1.5-0.4-0.6,0.6C59.5,162,56,170.8,48.2,171L48.2,171L48.2,171z"/>
	<path d="M131,79.6c-7.9,0.2-11.4,9-5.6,15.9c0.8,1,0.9,1.6-0.6,0.6c-3.9-2.6-11.4-0.9-11.8,7.1c-0.5,9.9,13.3,12.7,15.9,2.2
		c0.1-1.1,1-1.1,0.8,0.5c-0.2,4.3-1.6,8.2-3.4,12.1c3.1,0,6.5,0,9.3,0c-1.8-3.9-3.2-7.9-3.4-12.1c-0.2-1.6,0.7-1.6,0.8-0.5
		c2.6,10.5,16.4,7.6,15.9-2.2c-0.4-8-7.9-9.7-11.8-7.1c-1.5,1-1.5,0.4-0.6-0.6C142.4,88.6,138.9,79.8,131,79.6L131,79.6L131,79.6z"
		/>
	<path d="M131,171c-7.9-0.2-11.4-9-5.6-15.9c0.8-1,0.9-1.6-0.6-0.6c-3.9,2.6-11.4,0.9-11.8-7.1c-0.5-9.9,13.3-12.7,15.9-2.2
		c0.1,1.1,1,1.1,0.8-0.5c-0.2-4.3-1.6-8.2-3.4-12.1c3.1,0,6.5,0,9.3,0c-1.8,3.9-3.2,7.9-3.4,12.1c-0.2,1.6,0.7,1.6,0.8,0.5
		c2.6-10.5,16.4-7.6,15.9,2.2c-0.4,8-7.9,9.7-11.8,7.1c-1.5-1-1.5-0.4-0.6,0.6C142.4,162,138.9,170.8,131,171L131,171L131,171z"/>
	<path d="M14.1,40.2c-3.1,0.1-4.6,3.8-2.2,6.6c0.3,0.4,0.4,0.7-0.2,0.3C10,46,7,46.7,6.9,50c-0.2,4.1,5.3,5.3,6.4,0.9
		c0.1-0.5,0.4-0.5,0.3,0.2c-0.1,1.8-0.6,3.4-1.4,5.1c1.2,0,2.5,0,3.7,0c-0.7-1.6-1.3-3.3-1.4-5.1c-0.1-0.7,0.3-0.7,0.3-0.2
		c1,4.4,6.5,3.2,6.4-0.9c-0.2-3.3-3.2-4-4.7-3c-0.6,0.4-0.6,0.2-0.2-0.3C18.6,44,17.2,40.3,14.1,40.2L14.1,40.2z"/>
	<rect x="6" y="11.3" width="2.6" height="26.4"/>
	<path d="M16.2,11.3c-2.5,0-4.4,2.2-4.4,5v16.3c0,2.8,2,5,4.4,5h1.4c2.5,0,4.4-2.2,4.4-5V16.4c0-2.8-2-5-4.4-5H16.2z M16.9,13.8
		c1.5,0,2.6,1.1,2.6,2.5v16.5c0,1.4-1.2,2.5-2.6,2.5c-1.5,0-2.6-1.1-2.6-2.5V16.3C14.3,14.9,15.5,13.8,16.9,13.8z"/>
	<rect x="170.6" y="212.2" width="2.6" height="26.4"/>
	<path d="M163,238.6c2.5,0,4.4-2.2,4.4-5v-16.3c0-2.8-2-5-4.4-5h-1.4c-2.5,0-4.4,2.2-4.4,5v16.3c0,2.8,2,5,4.4,5H163z M162.2,236.1
		c-1.5,0-2.6-1.1-2.6-2.5v-16.5c0-1.4,1.2-2.5,2.6-2.5c1.5,0,2.6,1.1,2.6,2.5v16.5C164.9,235,163.7,236.1,162.2,236.1z"/>
</g>
</svg>
