<?xml version="1.0" encoding="utf-8"?>
<!-- Generator: Adobe Illustrator 21.0.0, SVG Export Plug-In . SVG Version: 6.00 Build 0)  -->
<svg version="1.1" id="Layer_1" xmlns="http://www.w3.org/2000/svg" xmlns:xlink="http://www.w3.org/1999/xlink" x="0px" y="0px"
	 viewBox="0 0 178.6 249.4" style="enable-background:new 0 0 178.6 249.4;" xml:space="preserve">
<style type="text/css">
	.st0{fill:#FFFFFF;}
	.st1{fill:#D40000;}
</style>
<g>
	<path class="st0" d="M8.8,0.4h161.5c4.7,0,8.5,3.8,8.5,8.5v232.4c0,4.7-3.8,8.5-8.5,8.5H8.8c-4.7,0-8.5-3.8-8.5-8.5V9
		C0.3,4.3,4.1,0.4,8.8,0.4z"/>
	<path class="st1" d="M48.2,117.9c0,0-3.7-6.1-8.8-13.3c-3.4-4.8-6.1-10-6.3-14.5c-0.3-5.1,2.4-10.3,7.4-10.5c4.9-0.2,6.9,4,7.7,7.4
		c0.8-3.5,2.8-7.7,7.7-7.4c4.9,0.2,7.6,5.4,7.4,10.5c-0.3,4.5-2.9,9.7-6.3,14.5C51.9,111.8,48.2,117.9,48.2,117.9z"/>
	<path class="st1" d="M14.1,56.4c0,0-1.8-2.6-4.2-5.6c-1.6-2-2.9-4.2-3-6.1c-0.1-2.1,1.2-4.3,3.5-4.4c2.3-0.1,3.3,1.6,3.7,3.1
		c0.4-1.4,1.3-3.2,3.7-3.1c2.3,0.1,3.6,2.3,3.5,4.4c-0.1,1.9-1.4,4-3,6.1C15.8,53.9,14.1,56.4,14.1,56.4z"/>
	<path class="st1" d="M165.1,193.9c0,0-1.8,2.6-4.2,5.6c-1.6,2-2.9,4.2-3,6.1c-0.1,2.1,1.2,4.3,3.5,4.4c2.3,0.1,3.3-1.6,3.7-3.1
		c0.4,1.4,1.3,3.2,3.7,3.1c2.3-0.1,3.6-2.2,3.5-4.4c-0.1-1.9-1.4-4-3-6.1C166.9,196.5,165.1,193.9,165.1,193.9z"/>
	<path class="st1" d="M89.6,99.1c0,0-3.7-6.1-8.8-13.3c-3.4-4.8-6.1-10-6.3-14.5c-0.3-5.1,2.4-10.3,7.4-10.5c4.9-0.2,6.9,4,7.7,7.4
		c0.8-3.5,2.8-7.7,7.7-7.4c4.9,0.2,7.6,5.4,7.4,10.5c-0.2,4.5-2.9,9.7-6.3,14.5C93.3,93,89.6,99.1,89.6,99.1z"/>
	<path class="st1" d="M48.2,65c0,0-3.7-6.1-8.8-13.3c-3.4-4.8-6.1-10-6.3-14.5c-0.3-5.1,2.4-10.3,7.4-10.5c4.9-0.2,6.9,4,7.7,7.4
		c0.8-3.5,2.8-7.7,7.7-7.4c4.9,0.2,7.6,5.4,7.4,10.5c-0.3,4.5-2.9,9.7-6.3,14.5C51.9,58.9,48.2,65,48.2,65z"/>
	<path class="st1" d="M131,117.9c0,0-3.7-6.1-8.8-13.3c-3.4-4.8-6.1-10-6.3-14.5c-0.3-5.1,2.4-10.3,7.4-10.5c4.9-0.2,6.9,4,7.7,7.4
		c0.8-3.5,2.8-7.7,7.7-7.4c4.9,0.2,7.6,5.4,7.4,10.5c-0.2,4.5-2.9,9.7-6.3,14.5C134.7,111.8,131,117.9,131,117.9z"/>
	<path class="st1" d="M131,65c0,0-3.7-6.1-8.8-13.3c-3.4-4.8-6.1-10-6.3-14.5c-0.3-5.1,2.4-10.3,7.4-10.5c4.9-0.2,6.9,4,7.7,7.4
		c0.8-3.5,2.8-7.7,7.7-7.4c4.9,0.2,7.6,5.4,7.4,10.5c-0.2,4.5-2.9,9.7-6.3,14.5C134.7,58.9,131,65,131,65z"/>
	<path class="st1" d="M89.6,151.2c0,0-3.7,6.1-8.8,13.3c-3.4,4.8-6.1,10-6.3,14.5c-0.3,5.1,2.4,10.3,7.4,10.5c4.9,0.2,6.9-4,7.7-7.4
		c0.8,3.5,2.8,7.7,7.7,7.4c4.9-0.2,7.6-5.4,7.4-10.5c-0.2-4.5-2.9-9.7-6.3-14.5C93.3,157.3,89.6,151.2,89.6,151.2z"/>
	<path class="st1" d="M131,132.4c0,0-3.7,6.1-8.8,13.3c-3.4,4.8-6.1,10-6.3,14.5c-0.3,5.1,2.4,10.3,7.4,10.5c4.9,0.2,6.9-4,7.7-7.4
		c0.8,3.5,2.8,7.7,7.7,7.4c4.9-0.2,7.6-5.4,7.4-10.5c-0.2-4.5-2.9-9.7-6.3-14.5C134.7,138.5,131,132.4,131,132.4z"/>
	<path class="st1" d="M48.2,132.4c0,0-3.7,6.1-8.8,13.3c-3.4,4.8-6.1,10-6.3,14.5c-0.3,5.1,2.4,10.3,7.4,10.5c4.9,0.2,6.9-4,7.7-7.4
		c0.8,3.5,2.8,7.7,7.7,7.4c4.9-0.2,7.6-5.4,7.4-10.5c-0.3-4.5-2.9-9.7-6.3-14.5C51.9,138.5,48.2,132.4,48.2,132.4z"/>
	<path class="st1" d="M131,185.3c0,0-3.7,6.1-8.8,13.3c-3.4,4.8-6.1,10-6.3,14.5c-0.3,5.1,2.4,10.3,7.4,10.5c4.9,0.2,6.9-4,7.7-7.4
		c0.8,3.5,2.8,7.7,7.7,7.4c4.9-0.2,7.6-5.4,7.4-10.5c-0.2-4.5-2.9-9.7-6.3-14.5C134.7,191.5,131,185.3,131,185.3z"/>
	<path class="st1" d="M48.2,185.3c0,0-3.7,6.1-8.8,13.3c-3.4,4.8-6.1,10-6.3,14.5c-0.3,5.1,2.4,10.3,7.4,10.5c4.9,0.2,6.9-4,7.7-7.4
		c0.8,3.5,2.8,7.7,7.7,7.4c4.9-0.2,7.6-5.4,7.4-10.5c-0.3-4.5-2.9-9.7-6.3-14.5C51.9,191.5,48.2,185.3,48.2,185.3z"/>
	<rect x="6" y="11.5" class="st1" width="2.6" height="26.4"/>
	<path class="st1" d="M16.2,11.5c-2.5,0-4.4,2.2-4.4,5v16.3c0,2.8,2,5,4.4,5h1.4c2.5,0,4.4-2.2,4.4-5V16.6c0-2.8-2-5-4.4-5H16.2z
		 M16.9,14c1.5,0,2.6,1.1,2.6,2.5V33c0,1.4-1.2,2.5-2.6,2.5c-1.5,0-2.6-1.1-2.6-2.5V16.5C14.3,15.1,15.5,14,16.9,14z"/>
	<rect x="170.6" y="212.4" class="st1" width="2.6" height="26.4"/>
	<path class="st1" d="M163,238.8c2.5,0,4.4-2.2,4.4-5v-16.3c0-2.8-2-5-4.4-5h-1.4c-2.5,0-4.4,2.2-4.4,5v16.3c0,2.8,2,5,4.4,5H163z
		 M162.2,236.3c-1.5,0-2.6-1.1-2.6-2.5v-16.5c0-1.4,1.2-2.5,2.6-2.5s2.6,1.1,2.6,2.5v16.5C164.9,235.2,163.7,236.3,162.2,236.3z"/>
</g>
</svg>
