<?xml version="1.0" encoding="utf-8"?>
<!-- Generator: Adobe Illustrator 21.0.0, SVG Export Plug-In . SVG Version: 6.00 Build 0)  -->
<svg version="1.1" id="Layer_1" xmlns="http://www.w3.org/2000/svg" xmlns:xlink="http://www.w3.org/1999/xlink" x="0px" y="0px"
	 viewBox="0 0 178.6 249.4" style="enable-background:new 0 0 178.6 249.4;" xml:space="preserve">
<style type="text/css">
	.st0{fill:#FFFFFF;}
</style>
<g>
	<path class="st0" d="M8.4,0h161.5c4.7,0,8.5,3.8,8.5,8.5v232.4c0,4.7-3.8,8.5-8.5,8.5H8.4c-4.7,0-8.5-3.8-8.5-8.5V8.5
		C-0.2,3.8,3.7,0,8.4,0z"/>
	<path d="M89.1,105.8c-7.9,0.2-11.4,9-5.6,15.9c0.8,1,0.9,1.6-0.6,0.6c-3.9-2.6-11.4-0.9-11.8,7.1c-0.5,9.9,13.3,12.7,15.9,2.2
		c0.1-1.1,1-1.1,0.8,0.5c-0.2,4.3-1.6,8.2-3.4,12.1c3.1,0,6.5,0,9.3,0c-1.8-3.9-3.2-7.9-3.4-12.1c-0.2-1.6,0.7-1.6,0.8-0.5
		c2.6,10.5,16.4,7.6,15.9-2.2c-0.4-8-7.9-9.7-11.8-7.1c-1.5,1-1.5,0.4-0.6-0.6C100.5,114.8,97,106,89.1,105.8L89.1,105.8L89.1,105.8
		z"/>
	<path d="M164.6,209.4c3.1-0.1,4.6-3.8,2.2-6.6c-0.3-0.4-0.4-0.7,0.2-0.3c1.6,1.1,4.6,0.4,4.7-3c0.2-4.1-5.3-5.3-6.4-0.9
		c-0.1,0.5-0.4,0.5-0.3-0.2c0.1-1.8,0.6-3.4,1.4-5.1c-1.2,0-2.5,0-3.7,0c0.7,1.6,1.3,3.3,1.4,5.1c0.1,0.7-0.3,0.7-0.3,0.2
		c-1-4.4-6.5-3.2-6.4,0.9c0.2,3.3,3.2,4,4.7,3c0.6-0.4,0.6-0.2,0.2,0.3C160.1,205.7,161.5,209.4,164.6,209.4L164.6,209.4z"/>
	<path d="M5.5,37.4v-2.3h2.2L12.3,11h2.6l5.1,24.1h1.7v2.3h-5.9v-2.3h1.6l-0.6-3.7h-6l-0.5,3.7h1.6v2.3H5.5z M16.2,28.8l-2.6-12.9
		l-2.4,12.9H16.2z"/>
	<path d="M156.6,211.9v2.3h2.2l4.6,24.1h2.6l5.1-24.1h1.7v-2.3h-5.9v2.3h1.6l-0.6,3.7h-6l-0.5-3.7h1.6v-2.3H156.6z M167.2,220.5
		l-2.6,12.9l-2.4-12.9H167.2z"/>
	<path d="M13.6,39.9c-3.1,0.1-4.6,3.8-2.2,6.6c0.3,0.4,0.4,0.7-0.2,0.3c-1.6-1.1-4.6-0.4-4.7,3c-0.2,4.1,5.3,5.3,6.4,0.9
		c0.1-0.5,0.4-0.5,0.3,0.2c-0.1,1.8-0.6,3.4-1.4,5.1c1.2,0,2.5,0,3.7,0c-0.7-1.6-1.3-3.3-1.4-5.1c-0.1-0.7,0.3-0.7,0.3-0.2
		c1,4.4,6.5,3.2,6.4-0.9c-0.2-3.3-3.2-4-4.7-3c-0.6,0.4-0.6,0.2-0.2-0.3C18.2,43.7,16.8,40,13.6,39.9L13.6,39.9z"/>
</g>
</svg>
