<?xml version="1.0" encoding="utf-8"?>
<!-- Generator: Adobe Illustrator 21.0.0, SVG Export Plug-In . SVG Version: 6.00 Build 0)  -->
<svg version="1.1" id="Layer_1" xmlns="http://www.w3.org/2000/svg" xmlns:xlink="http://www.w3.org/1999/xlink" x="0px" y="0px"
	 viewBox="0 0 178.6 249.4" style="enable-background:new 0 0 178.6 249.4;" xml:space="preserve">
<style type="text/css">
	.st0{fill:#FFFFFF;}
	.st1{fill:#D40000;}
</style>
<g>
	<path class="st0" d="M9.2,0.8h161.5c4.7,0,8.5,3.8,8.5,8.5v232.4c0,4.7-3.8,8.5-8.5,8.5H9.2c-4.7,0-8.5-3.8-8.5-8.5V9.4
		C0.6,4.7,4.5,0.8,9.2,0.8z"/>
	<path class="st1" d="M89.9,65.4c-4.1-6.9-8.5-13.5-14-19.2c5.5-5.7,9.8-12.3,14-19.2c4.1,6.9,8.5,13.5,14,19.2
		C98.4,51.9,94.1,58.5,89.9,65.4z"/>
	<path class="st1" d="M14.4,56.8c-1.7-2.9-3.5-5.6-5.8-8c2.3-2.4,4.1-5.1,5.8-8c1.7,2.9,3.5,5.6,5.8,8C17.9,51.2,16.1,54,14.4,56.8z
		"/>
	<path class="st1" d="M165.4,210.3c-1.7-2.9-3.5-5.6-5.8-8c2.3-2.4,4.1-5.1,5.8-8c1.7,2.9,3.5,5.6,5.8,8
		C169,204.7,167.2,207.5,165.4,210.3z"/>
	<path class="st1" d="M89.9,224.1c-4.1-6.9-8.5-13.5-14-19.2c5.5-5.7,9.8-12.3,14-19.2c4.1,6.9,8.5,13.5,14,19.2
		C98.4,210.6,94.1,217.3,89.9,224.1z"/>
	<path class="st1" d="M6.9,38.3L7,36.6c0.4-5,1.5-6.7,7.6-12c3-2.5,4-3.8,4.1-5.3c0.4-3.4-2.7-4.5-4.6-4.5c-2.6,0-5.5,1.5-4.1,5.2
		l-2.9,0.9c-0.6-3.4,0-6.6,2.7-8c3.6-1.8,8.2-1.1,10.5,1.8c1.6,1.9,1.9,4.6,1.1,6.7c-2.5,5.4-10.8,7.7-11.5,14h9.2v-3.5h2.7v6.4
		L6.9,38.3z"/>
	<path class="st1" d="M172.9,212.9l-0.1,1.6c-0.4,5-1.5,6.7-7.6,12c-3,2.5-4,3.8-4.1,5.3c-0.4,3.4,2.7,4.5,4.6,4.5
		c2.6,0,5.5-1.5,4.1-5.2l2.9-0.9c0.6,3.4,0,6.6-2.7,8c-3.6,1.8-8.2,1.1-10.5-1.8c-1.6-1.9-1.9-4.6-1.1-6.7c2.5-5.4,10.8-7.7,11.5-14
		h-9.2v3.5h-2.7v-6.4L172.9,212.9z"/>
</g>
</svg>
