<?xml version="1.0" encoding="utf-8"?>
<!-- Generator: Adobe Illustrator 21.0.0, SVG Export Plug-In . SVG Version: 6.00 Build 0)  -->
<svg version="1.1" id="Layer_1" xmlns="http://www.w3.org/2000/svg" xmlns:xlink="http://www.w3.org/1999/xlink" x="0px" y="0px"
	 viewBox="0 0 178.6 249.4" style="enable-background:new 0 0 178.6 249.4;" xml:space="preserve">
<style type="text/css">
	.st0{fill:#FFFFFF;}
</style>
<g>
	<path class="st0" d="M9.3,0.2h161.5c4.7,0,8.5,3.8,8.5,8.5v232.4c0,4.7-3.8,8.5-8.5,8.5H9.3c-4.7,0-8.5-3.8-8.5-8.5V8.8
		C0.8,4.1,4.6,0.2,9.3,0.2z"/>
	<path d="M131.5,26.7c-7.9,0.2-11.4,9-5.6,15.9c0.8,1,0.9,1.6-0.6,0.6c-3.9-2.6-11.4-0.9-11.8,7.1c-0.5,9.9,13.3,12.7,15.9,2.2
		c0.1-1.1,1-1.1,0.8,0.5c-0.2,4.3-1.6,8.2-3.4,12.1c3.1,0,6.5,0,9.3,0c-1.8-3.9-3.2-7.9-3.4-12.1c-0.2-1.6,0.7-1.6,0.8-0.5
		c2.6,10.5,16.4,7.6,15.9-2.2c-0.4-8-7.9-9.7-11.8-7.1c-1.5,1-1.5,0.4-0.6-0.6C142.9,35.7,139.4,26.9,131.5,26.7L131.5,26.7
		L131.5,26.7z"/>
	<path d="M48.7,26.7c-7.9,0.2-11.4,9-5.6,15.9c0.8,1,0.9,1.6-0.6,0.6c-3.9-2.6-11.4-0.9-11.8,7.1C30.2,60.2,44,63,46.6,52.5
		c0.1-1.1,1-1.1,0.8,0.5c-0.2,4.3-1.6,8.2-3.4,12.1c3.1,0,6.5,0,9.3,0c-1.8-3.9-3.2-7.9-3.4-12.1c-0.2-1.6,0.7-1.6,0.8-0.5
		c2.6,10.5,16.4,7.6,15.9-2.2c-0.4-8-7.9-9.7-11.8-7.1c-1.5,1-1.5,0.4-0.6-0.6C60.1,35.7,56.5,26.9,48.7,26.7L48.7,26.7L48.7,26.7z"
		/>
	<path d="M131.5,223.9c-7.9-0.2-11.4-9-5.6-15.9c0.8-1,0.9-1.6-0.6-0.6c-3.9,2.6-11.4,0.9-11.8-7.1c-0.5-9.9,13.3-12.7,15.9-2.2
		c0.1,1.1,1,1.1,0.8-0.5c-0.2-4.3-1.6-8.2-3.4-12.1c3.1,0,6.5,0,9.3,0c-1.8,3.9-3.2,7.9-3.4,12.1c-0.2,1.6,0.7,1.6,0.8,0.5
		c2.6-10.5,16.4-7.6,15.9,2.2c-0.4,8-7.9,9.7-11.8,7.1c-1.5-1-1.5-0.4-0.6,0.6C142.9,214.9,139.4,223.7,131.5,223.9L131.5,223.9
		L131.5,223.9z"/>
	<path d="M48.7,223.9c-7.9-0.2-11.4-9-5.6-15.9c0.8-1,0.9-1.6-0.6-0.6c-3.9,2.6-11.4,0.9-11.8-7.1c-0.5-9.9,13.3-12.7,15.9-2.2
		c0.1,1.1,1,1.1,0.8-0.5c-0.2-4.3-1.6-8.2-3.4-12.1c3.1,0,6.5,0,9.3,0c-1.8,3.9-3.2,7.9-3.4,12.1c-0.2,1.6,0.7,1.6,0.8,0.5
		c2.6-10.5,16.4-7.6,15.9,2.2c-0.4,8-7.9,9.7-11.8,7.1c-1.5-1-1.5-0.4-0.6,0.6C60.1,214.9,56.5,223.7,48.7,223.9L48.7,223.9
		L48.7,223.9z"/>
	<path d="M165.6,209.7c3.1-0.1,4.5-3.8,2.2-6.6c-0.3-0.4-0.4-0.7,0.2-0.3c1.6,1.1,4.6,0.4,4.7-3c0.2-4.1-5.3-5.3-6.4-0.9
		c-0.1,0.5-0.4,0.5-0.3-0.2c0.1-1.8,0.6-3.4,1.4-5.1c-1.2,0-2.5,0-3.7,0c0.7,1.6,1.3,3.3,1.4,5.1c0.1,0.7-0.3,0.7-0.3,0.2
		c-1-4.4-6.5-3.2-6.4,0.9c0.2,3.3,3.2,4,4.7,3c0.6-0.4,0.6-0.2,0.2,0.3C161.1,206,162.5,209.6,165.6,209.7L165.6,209.7z"/>
	<path d="M14.6,40.2c-3.1,0.1-4.6,3.8-2.2,6.6c0.3,0.4,0.4,0.7-0.2,0.3c-1.6-1.1-4.6-0.4-4.7,3c-0.2,4.1,5.3,5.3,6.4,0.9
		c0.1-0.5,0.4-0.5,0.3,0.2c-0.1,1.8-0.6,3.4-1.4,5.1c1.2,0,2.5,0,3.7,0c-0.7-1.6-1.3-3.3-1.4-5.1c-0.1-0.7,0.3-0.7,0.3-0.2
		c1,4.4,6.5,3.2,6.4-0.9c-0.2-3.3-3.2-4-4.7-3c-0.6,0.4-0.6,0.2-0.2-0.3C19.1,44,17.7,40.3,14.6,40.2L14.6,40.2z"/>
	<path d="M14.8,37.7v-2.3h2.1v-3.8H6.3v-2.7l11.4-17.5l1.9,0v17.5h3.2v2.7h-3.2l-0.1,3.8h1.8v2.3L14.8,37.7L14.8,37.7z M16.9,17.7
		L9.6,28.8h7.2V17.7z"/>
	<path d="M165.4,212.2v2.3h-2.1v3.8h10.5v2.7l-11.4,17.5l-1.9,0v-17.5h-3.2v-2.7h3.2l0.1-3.8h-1.8v-2.3L165.4,212.2L165.4,212.2z
		 M163.3,232.2l7.2-11.1h-7.2V232.2z"/>
</g>
</svg>
