<?xml version="1.0" encoding="utf-8"?>
<!-- Generator: Adobe Illustrator 21.0.0, SVG Export Plug-In . SVG Version: 6.00 Build 0)  -->
<svg version="1.1" id="Layer_1" xmlns="http://www.w3.org/2000/svg" xmlns:xlink="http://www.w3.org/1999/xlink" x="0px" y="0px"
	 viewBox="0 0 178.6 249.4" style="enable-background:new 0 0 178.6 249.4;" xml:space="preserve">
<style type="text/css">
	.st0{fill:#FFFFFF;}
	.st1{fill:#D40000;}
</style>
<g>
	<path class="st0" d="M9.3,0.8h161.5c4.7,0,8.5,3.8,8.5,8.5v232.4c0,4.7-3.8,8.5-8.5,8.5H9.3c-4.7,0-8.5-3.8-8.5-8.5V9.4
		C0.8,4.7,4.6,0.8,9.3,0.8z"/>
	<path class="st1" d="M14.6,56.8c-1.7-2.9-3.5-5.6-5.8-8c2.3-2.4,4.1-5.1,5.8-8c1.7,2.9,3.5,5.6,5.8,8C18.1,51.2,16.3,54,14.6,56.8z
		"/>
	<path class="st1" d="M131.5,65.4c-4.1-6.9-8.5-13.5-14-19.2c5.5-5.7,9.8-12.3,14-19.2c4.1,6.9,8.5,13.5,14,19.2
		C140,51.9,135.6,58.5,131.5,65.4z"/>
	<path class="st1" d="M165.6,210.3c-1.7-2.9-3.5-5.6-5.8-8c2.3-2.4,4.1-5.1,5.8-8c1.7,2.9,3.5,5.6,5.8,8
		C169.1,204.7,167.3,207.5,165.6,210.3z"/>
	<path class="st1" d="M48.7,65.4c-4.1-6.9-8.5-13.5-14-19.2c5.5-5.7,9.8-12.3,14-19.2c4.1,6.9,8.5,13.5,14,19.2
		C57.2,51.9,52.8,58.5,48.7,65.4z"/>
	<path class="st1" d="M48.7,224.1c-4.1-6.9-8.5-13.5-14-19.2c5.5-5.7,9.8-12.3,14-19.2c4.1,6.9,8.5,13.5,14,19.2
		C57.2,210.6,52.8,217.3,48.7,224.1z"/>
	<path class="st1" d="M131.5,224.1c-4.1-6.9-8.5-13.5-14-19.2c5.5-5.7,9.8-12.3,14-19.2c4.1,6.9,8.5,13.5,14,19.2
		C140,210.6,135.6,217.3,131.5,224.1z"/>
	<path class="st1" d="M14.8,38.3V36h2.1v-3.8H6.3v-2.7l11.4-17.5l1.9,0v17.5h3.2v2.7h-3.2L19.5,36h1.8v2.3L14.8,38.3L14.8,38.3z
		 M16.9,18.3L9.6,29.4h7.2V18.3z"/>
	<path class="st1" d="M165.4,212.8v2.3h-2.1v3.8h10.5v2.7l-11.4,17.5l-1.9,0v-17.5h-3.2V219h3.2l0.1-3.8h-1.8v-2.3L165.4,212.8
		L165.4,212.8z M163.3,232.8l7.2-11.1h-7.2V232.8z"/>
</g>
</svg>
