<?xml version="1.0" encoding="utf-8"?>
<!-- Generator: Adobe Illustrator 21.0.0, SVG Export Plug-In . SVG Version: 6.00 Build 0)  -->
<svg version="1.1" id="Layer_1" xmlns="http://www.w3.org/2000/svg" xmlns:xlink="http://www.w3.org/1999/xlink" x="0px" y="0px"
	 viewBox="0 0 178.6 249.4" style="enable-background:new 0 0 178.6 249.4;" xml:space="preserve">
<style type="text/css">
	.st0{fill:#FFFFFF;}
</style>
<g>
	<path class="st0" d="M9.5,0.6H171c4.7,0,8.5,3.8,8.5,8.5v232.4c0,4.7-3.8,8.5-8.5,8.5H9.5c-4.7,0-8.5-3.8-8.5-8.5V9.2
		C1,4.5,4.8,0.6,9.5,0.6z"/>
	<path d="M48.8,26.8c-7.4,10.5-15.3,16.6-15.4,24.8c0,2.7,1.4,7.2,5.9,8c2.9,0.6,6.9-1.8,7-6.6c0-1,1-0.9,1,0.4
		c-0.1,3.8-1.3,8.2-3.4,11.8c3.2,0,6.4,0,9.7,0c-2-3.6-3.2-8-3.4-11.8c0-1.3,1-1.3,1-0.4c0.1,4.8,4.1,7.2,7,6.6
		c4.5-0.9,5.9-5.4,5.9-8C64.1,43.4,56.2,37.3,48.8,26.8z"/>
	<path d="M14.7,40.6C11.3,45,7.6,47.5,7.5,51c0,1.1,0.7,3,2.8,3.4c1.4,0.2,3.2-0.8,3.3-2.8c0-0.4,0.5-0.4,0.5,0.2
		c-0.1,1.6-0.6,3.4-1.6,4.9c1.5,0,3,0,4.5,0c-0.9-1.5-1.5-3.3-1.6-4.9c0-0.5,0.5-0.6,0.5-0.2c0,2,1.9,3,3.3,2.8
		c2.1-0.4,2.8-2.2,2.8-3.4C21.9,47.5,18.2,45,14.7,40.6z"/>
	<path d="M165.8,210.1c-3.4-4.4-7.1-6.9-7.2-10.3c0-1.1,0.7-3,2.8-3.4c1.4-0.2,3.2,0.8,3.3,2.8c0,0.4,0.5,0.4,0.5-0.2
		c-0.1-1.6-0.6-3.4-1.6-4.9c1.5,0,3,0,4.5,0c-0.9,1.5-1.5,3.3-1.6,4.9c0,0.5,0.5,0.6,0.5,0.2c0-2,1.9-3,3.3-2.8
		c2.1,0.4,2.8,2.2,2.8,3.4C172.9,203.2,169.2,205.7,165.8,210.1z"/>
	<path d="M131.7,26.8c-7.4,10.5-15.3,16.6-15.4,24.8c0,2.7,1.4,7.2,5.9,8c2.9,0.6,6.9-1.8,7-6.6c0-1,1-0.9,1,0.4
		c-0.1,3.8-1.3,8.2-3.4,11.8c3.2,0,6.4,0,9.7,0c-2-3.6-3.2-8-3.4-11.8c0-1.3,1-1.3,1-0.4c0.1,4.8,4.1,7.2,7,6.6
		c4.5-0.9,5.9-5.4,5.9-8C146.9,43.4,139,37.3,131.7,26.8z"/>
	<path d="M48.8,106.2c-7.4,10.5-15.3,16.6-15.4,24.8c0,2.7,1.4,7.2,5.9,8c2.9,0.6,6.9-1.8,7-6.6c0-1,1-0.9,1,0.4
		c-0.1,3.8-1.3,8.2-3.4,11.8c3.2,0,6.4,0,9.7,0c-2-3.6-3.2-8-3.4-11.8c0-1.3,1-1.3,1-0.4c0.1,4.8,4.1,7.2,7,6.6
		c4.5-0.9,5.9-5.4,5.9-8C64.1,122.7,56.2,116.7,48.8,106.2z"/>
	<path d="M48.8,223.9c-7.4-10.5-15.3-16.6-15.4-24.8c0-2.7,1.4-7.2,5.9-8c2.9-0.6,6.9,1.8,7,6.6c0,1,1,0.9,1-0.4
		c-0.1-3.8-1.3-8.2-3.4-11.8c3.2,0,6.4,0,9.7,0c-2,3.6-3.2,8-3.4,11.8c0,1.3,1,1.3,1,0.4c0.1-4.8,4.1-7.2,7-6.6
		c4.5,0.9,5.9,5.4,5.9,8C64.1,207.4,56.2,213.4,48.8,223.9z"/>
	<path d="M131.7,223.9c-7.4-10.5-15.3-16.6-15.4-24.8c0-2.7,1.4-7.2,5.9-8c2.9-0.6,6.9,1.8,7,6.6c0,1,1,0.9,1-0.4
		c-0.1-3.8-1.3-8.2-3.4-11.8c3.2,0,6.4,0,9.7,0c-2,3.6-3.2,8-3.4,11.8c0,1.3,1,1.3,1,0.4c0.1-4.8,4.1-7.2,7-6.6
		c4.5,0.9,5.9,5.4,5.9,8C146.9,207.4,139,213.4,131.7,223.9z"/>
	<path d="M131.7,106.2c-7.4,10.5-15.3,16.6-15.4,24.8c0,2.7,1.4,7.2,5.9,8c2.9,0.6,6.9-1.8,7-6.6c0-1,1-0.9,1,0.4
		c-0.1,3.8-1.3,8.2-3.4,11.8c3.2,0,6.4,0,9.7,0c-2-3.6-3.2-8-3.4-11.8c0-1.3,1-1.3,1-0.4c0.1,4.8,4.1,7.2,7,6.6
		c4.5-0.9,5.9-5.4,5.9-8C146.9,122.7,139,116.7,131.7,106.2z"/>
	<path d="M7,30c-0.3-2.2-0.3-8-0.1-9.7c0.8-5.2,2.8-7.6,6.1-8.4c3.2-0.8,7.8,0.1,8.8,4.4l-2.7,0.1c-1.5-2.9-5.2-2.2-7.2-0.9
		c-1.7,1-2.4,5.3-2.1,5.5c0,0,3.1-2.3,5.6-2.2c5.3,0.6,7.5,5.1,7.3,9.5c-0.2,5.2-1.8,9.4-7.4,9.7C9.9,37.9,7.5,35,7,30L7,30z
		 M20.1,28.6c0-3.6-1.6-6.3-4.7-6.6c-3.1-0.3-6.2,2.7-6,6.4c0.2,3.7,1.7,6.8,5.4,6.8C18.9,35.2,20.1,31.2,20.1,28.6L20.1,28.6z"/>
	<path d="M173.5,220.7c0.3,2.2,0.3,8,0.1,9.7c-0.8,5.2-2.8,7.6-6.1,8.4c-3.2,0.8-7.8-0.1-8.8-4.4l2.7-0.1c1.5,2.9,5.2,2.2,7.2,0.9
		c1.7-1,2.4-5.3,2.1-5.5c0,0-3.1,2.3-5.6,2.2c-5.3-0.6-7.5-5.1-7.3-9.5c0.2-5.2,1.8-9.4,7.4-9.7C170.6,212.8,173,215.7,173.5,220.7z
		 M160.3,222.1c0,3.6,1.6,6.3,4.7,6.6c3.1,0.3,6.2-2.7,6-6.4c-0.2-3.7-1.7-6.8-5.4-6.8C161.6,215.5,160.4,219.5,160.3,222.1z"/>
</g>
</svg>
