<?xml version="1.0" encoding="utf-8"?>
<!-- Generator: Adobe Illustrator 21.0.0, SVG Export Plug-In . SVG Version: 6.00 Build 0)  -->
<svg version="1.1" id="Layer_1" xmlns="http://www.w3.org/2000/svg" xmlns:xlink="http://www.w3.org/1999/xlink" x="0px" y="0px"
	 viewBox="0 0 178.6 249.4" style="enable-background:new 0 0 178.6 249.4;" xml:space="preserve">
<style type="text/css">
	.st0{fill:#FFFFFF;}
	.st1{fill:#D40000;}
</style>
<g>
	<path class="st0" d="M8.7,0.4h161.5c4.7,0,8.5,3.8,8.5,8.5v232.4c0,4.7-3.8,8.5-8.5,8.5H8.7c-4.7,0-8.5-3.8-8.5-8.5V9
		C0.2,4.3,4,0.4,8.7,0.4z"/>
	<path class="st1" d="M48.1,117.9c0,0-3.7-6.1-8.8-13.3c-3.4-4.8-6.1-10-6.3-14.5c-0.3-5.1,2.4-10.3,7.4-10.5c4.9-0.2,6.9,4,7.7,7.4
		c0.8-3.5,2.8-7.7,7.7-7.4c4.9,0.2,7.6,5.4,7.4,10.5c-0.2,4.5-2.9,9.7-6.3,14.5C51.8,111.8,48.1,117.9,48.1,117.9z"/>
	<path class="st1" d="M14,56.4c0,0-1.8-2.6-4.2-5.6c-1.6-2-2.9-4.2-3-6.1c-0.1-2.1,1.2-4.3,3.5-4.4c2.3-0.1,3.3,1.6,3.7,3.1
		c0.4-1.4,1.3-3.2,3.7-3.1c2.3,0.1,3.6,2.3,3.5,4.4c-0.1,1.9-1.4,4-3,6.1C15.8,53.9,14,56.4,14,56.4z"/>
	<path class="st1" d="M165,193.9c0,0-1.8,2.6-4.2,5.6c-1.6,2-2.9,4.2-3,6.1c-0.1,2.1,1.2,4.3,3.5,4.4c2.3,0.1,3.3-1.6,3.7-3.1
		c0.4,1.4,1.3,3.2,3.7,3.1c2.3-0.1,3.6-2.2,3.5-4.4c-0.1-1.9-1.4-4-3-6.1C166.8,196.5,165,193.9,165,193.9z"/>
	<path class="st1" d="M48.1,65c0,0-3.7-6.1-8.8-13.3c-3.4-4.8-6.1-10-6.3-14.5c-0.3-5.1,2.4-10.3,7.4-10.5c4.9-0.2,6.9,4,7.7,7.4
		c0.8-3.5,2.8-7.7,7.7-7.4c4.9,0.2,7.6,5.4,7.4,10.5c-0.2,4.5-2.9,9.7-6.3,14.5C51.8,58.9,48.1,65,48.1,65z"/>
	<path class="st1" d="M130.9,117.9c0,0-3.7-6.1-8.8-13.3c-3.4-4.8-6.1-10-6.3-14.5c-0.3-5.1,2.4-10.3,7.4-10.5
		c4.9-0.2,6.9,4,7.7,7.4c0.8-3.5,2.8-7.7,7.7-7.4c4.9,0.2,7.6,5.4,7.4,10.5c-0.2,4.5-2.9,9.7-6.3,14.5
		C134.6,111.8,130.9,117.9,130.9,117.9z"/>
	<path class="st1" d="M130.9,65c0,0-3.7-6.1-8.8-13.3c-3.4-4.8-6.1-10-6.3-14.5c-0.3-5.1,2.4-10.3,7.4-10.5c4.9-0.2,6.9,4,7.7,7.4
		c0.8-3.5,2.8-7.7,7.7-7.4c4.9,0.2,7.6,5.4,7.4,10.5c-0.2,4.5-2.9,9.7-6.3,14.5C134.6,58.9,130.9,65,130.9,65z"/>
	<path class="st1" d="M89.5,144.4c0,0-3.7-6.1-8.8-13.3c-3.4-4.8-6.1-10-6.3-14.5c-0.3-5.1,2.4-10.3,7.4-10.5c4.9-0.2,6.9,4,7.7,7.4
		c0.8-3.5,2.8-7.7,7.7-7.4c4.9,0.2,7.6,5.4,7.4,10.5c-0.2,4.5-2.9,9.7-6.3,14.5C93.2,138.2,89.5,144.4,89.5,144.4z"/>
	<path class="st1" d="M130.9,132.4c0,0-3.7,6.1-8.8,13.3c-3.4,4.8-6.1,10-6.3,14.5c-0.3,5.1,2.4,10.3,7.4,10.5
		c4.9,0.2,6.9-4,7.7-7.4c0.8,3.5,2.8,7.7,7.7,7.4c4.9-0.2,7.6-5.4,7.4-10.5c-0.2-4.5-2.9-9.7-6.3-14.5
		C134.6,138.5,130.9,132.4,130.9,132.4z"/>
	<path class="st1" d="M48.1,132.4c0,0-3.7,6.1-8.8,13.3c-3.4,4.8-6.1,10-6.3,14.5c-0.3,5.1,2.4,10.3,7.4,10.5c4.9,0.2,6.9-4,7.7-7.4
		c0.8,3.5,2.8,7.7,7.7,7.4c4.9-0.2,7.6-5.4,7.4-10.5c-0.2-4.5-2.9-9.7-6.3-14.5C51.8,138.5,48.1,132.4,48.1,132.4z"/>
	<path class="st1" d="M130.9,185.3c0,0-3.7,6.1-8.8,13.3c-3.4,4.8-6.1,10-6.3,14.5c-0.3,5.1,2.4,10.3,7.4,10.5
		c4.9,0.2,6.9-4,7.7-7.4c0.8,3.5,2.8,7.7,7.7,7.4c4.9-0.2,7.6-5.4,7.4-10.5c-0.2-4.5-2.9-9.7-6.3-14.5
		C134.6,191.5,130.9,185.3,130.9,185.3z"/>
	<path class="st1" d="M48.1,185.3c0,0-3.7,6.1-8.8,13.3c-3.4,4.8-6.1,10-6.3,14.5c-0.3,5.1,2.4,10.3,7.4,10.5c4.9,0.2,6.9-4,7.7-7.4
		c0.8,3.5,2.8,7.7,7.7,7.4c4.9-0.2,7.6-5.4,7.4-10.5c-0.2-4.5-2.9-9.7-6.3-14.5C51.8,191.5,48.1,185.3,48.1,185.3z"/>
	<path class="st1" d="M6.6,32.8L9,32.1c0.9,2.4,2.8,3.2,4.7,3c3.5-0.3,4.7-4.2,4.9-7.6c-1.4,1.4-3.4,2.2-5.2,2.1
		c-5.6-0.3-7-4.8-7.1-9.4c-0.2-3.9,1.5-6.8,4.3-8.1c1.5-0.7,4.9-0.7,6.4,0.1c3.4,1.8,4.7,4.9,4.5,12.3c0,6.1-1.3,13.2-7.9,13.4
		C9.9,38.4,7,35.4,6.6,32.8L6.6,32.8z M16.1,26.1c1.1-0.7,1.8-1.4,2.3-2.4c0.4-0.8,0.6-1.3,0.4-3c-0.3-4.4-2.6-6.9-6-6.4
		c-1.9,0.3-2.9,1.3-3.5,3.3c-1.1,3.6,0.3,7.8,2.9,8.8C13.4,26.8,15.2,26.7,16.1,26.1z"/>
	<path class="st1" d="M172.4,217.5l-2.4,0.8c-0.9-2.4-2.8-3.2-4.7-3c-3.5,0.3-4.7,4.2-4.9,7.6c1.4-1.4,3.4-2.2,5.2-2.1
		c5.6,0.3,7,4.8,7.1,9.4c0.2,3.9-1.5,6.8-4.3,8.1c-1.5,0.7-4.9,0.7-6.4-0.1c-3.4-1.8-4.7-4.9-4.5-12.3c0-6.1,1.3-13.2,7.9-13.4
		C169.1,212,172,214.9,172.4,217.5z M162.9,224.2c-1.1,0.7-1.8,1.4-2.3,2.4c-0.4,0.8-0.6,1.3-0.4,3c0.3,4.4,2.6,6.9,6,6.4
		c1.9-0.3,2.9-1.3,3.5-3.3c1.1-3.6-0.3-7.8-2.9-8.8C165.6,223.5,163.8,223.6,162.9,224.2z"/>
</g>
</svg>
