<?xml version="1.0" encoding="utf-8"?>
<!-- Generator: Adobe Illustrator 21.0.0, SVG Export Plug-In . SVG Version: 6.00 Build 0)  -->
<svg version="1.1" id="Layer_1" xmlns="http://www.w3.org/2000/svg" xmlns:xlink="http://www.w3.org/1999/xlink" x="0px" y="0px"
	 viewBox="0 0 178.6 249.4" style="enable-background:new 0 0 178.6 249.4;" xml:space="preserve">
<style type="text/css">
	.st0{fill:#FFFFFF;}
	.st1{fill:#05D1C7;}
	.st2{fill:#FFFBFB;}
	.st3{fill:#FCFBFA;}
</style>
<g>
	<path class="st0" d="M8.6-0.3h161.5c4.7,0,8.5,3.8,8.5,8.5v232.4c0,4.7-3.8,8.5-8.5,8.5H8.6c-4.7,0-8.5-3.8-8.5-8.5V8.2
		C0,3.5,3.8-0.3,8.6-0.3"/>
	<polyline class="st1" points="12.9,13.3 165.7,13.3 165.7,235.5 12.9,235.5 12.9,13.3 	"/>
	<polygon class="st1" points="12.9,13.3 12.9,13.8 165.2,13.8 165.2,235 13.4,235 13.4,13.3 12.9,13.3 12.9,13.8 12.9,13.3 
		12.4,13.3 12.4,236 166.2,236 166.2,12.8 12.4,12.8 12.4,13.3 	"/>
	<polygon class="st2" points="16.2,16.5 16.2,16.7 162.2,16.7 162.2,232.1 16.4,232.1 16.4,16.5 16.2,16.5 16.2,16.7 16.2,16.5 
		16,16.5 16,232.5 162.6,232.5 162.6,16.3 16,16.3 16,16.5 	"/>
	<polygon class="st2" points="46.5,46.9 46.5,47 132,47 132,201.8 46.6,201.8 46.6,46.9 46.5,46.9 46.5,47 46.5,46.9 46.4,46.9 
		46.4,202 132.2,202 132.2,46.8 46.4,46.8 46.4,46.9 	"/>
	<path class="st2" d="M48.5,48.9h-0.4v151.5h82.5V48.5H48.1v0.4H48.5v0.4h81.2v150.2H48.9l0-150.7H48.5v0.4V48.9 M89.3,51.5V52
		c9.2,0,17.5,3.7,23.5,9.7c6,6,9.7,14.3,9.7,23.5c0,5.4-1.3,10.7-3.9,15.5l-0.1,0.2l0.2,0.2c5.2,6.6,8.1,14.8,8.1,23.3
		c0,8.4-2.9,16.6-8.1,23.2l-0.2,0.2l0.1,0.2c2.5,4.8,3.9,10.1,3.9,15.5c0,9.2-3.7,17.5-9.7,23.5c-6,6-14.3,9.7-23.5,9.7
		C70.9,196.9,56,182,56,163.6v0c0-5.4,1.3-10.7,3.9-15.5l0.1-0.2l-0.2-0.2c-5.2-6.6-8.1-14.8-8.1-23.3c0-8.4,2.9-16.6,8.1-23.2
		L60,101l-0.1-0.2C57.4,95.9,56,90.6,56,85.2c0-9.2,3.7-17.5,9.7-23.5c6-6,14.3-9.7,23.5-9.7h0V51.5v-0.4h0
		c-18.8,0-34.1,15.3-34.1,34.1c0,5.5,1.4,11,4,15.9l0.4-0.2l-0.3-0.3c-5.4,6.8-8.3,15.1-8.3,23.7c0,8.6,2.9,17,8.3,23.8l0.3-0.3
		l-0.4-0.2c-2.6,4.9-3.9,10.3-4,15.9v0c0,18.8,15.3,34.1,34.1,34.1c18.8,0,34.1-15.3,34.1-34.1c0-5.5-1.4-11-4-15.9l-0.4,0.2
		l0.3,0.3c5.4-6.8,8.3-15.1,8.3-23.7c0-8.6-2.9-17-8.3-23.8l-0.3,0.3l0.4,0.2c2.6-4.9,3.9-10.3,4-15.9c0-18.8-15.3-34.1-34.1-34.1
		V51.5"/>
	<path class="st2" d="M45.5,45v0.1h87.5c0.4,0,0.8,0.4,0.8,0.8v157c0,0.4-0.4,0.8-0.8,0.8H45.5c-0.4,0-0.8-0.4-0.8-0.8v-157
		c0-0.4,0.4-0.8,0.8-0.8V45v-0.1c-0.6,0-1,0.5-1,1v157c0,0.6,0.5,1,1,1h87.5c0.6,0,1-0.5,1-1v-157c0-0.6-0.5-1-1-1H45.5V45z"/>
	<path class="st2" d="M59.3,100.8c-5.3,6.7-8.2,15-8.2,23.6c0,8.5,2.9,16.8,8.1,23.5c0.1-0.1,0.2-0.3,0.2-0.4
		c-5.1-6.6-7.9-14.7-7.9-23.1c0-8.5,2.9-16.7,8.1-23.3L59.3,100.8"/>
	<path class="st2" d="M119.3,100.8l-0.4,0.3h0c5.3,6.6,8.1,14.9,8.1,23.3c0,8.4-2.8,16.5-7.9,23.1c0.1,0.1,0.2,0.3,0.2,0.4
		c5.3-6.7,8.1-15,8.1-23.5C127.5,115.8,124.6,107.5,119.3,100.8"/>
	<path class="st3" d="M60.5,102.6c-4.7,6.3-7.3,13.9-7.3,21.8c0,7.8,2.5,15.4,7.2,21.6c0-0.1,0.1-0.1,0.1-0.2
		c-4.6-6.2-7.1-13.7-7.1-21.4c0-7.8,2.6-15.4,7.3-21.7L60.5,102.6"/>
	<path class="st3" d="M118.2,102.6l-0.2,0.1h0c4.7,6.2,7.3,13.8,7.3,21.6c0,7.7-2.5,15.2-7.1,21.4c0,0.1,0.1,0.1,0.1,0.2
		c4.7-6.2,7.2-13.8,7.2-21.6C125.5,116.5,122.9,108.9,118.2,102.6"/>
	<path class="st3" d="M89.3,129.8c-12.2,0-22.9,6.4-28.9,16.1c0.1,0.1,0.1,0.1,0.2,0.2v0l-0.2,0.1c0-0.1-0.1-0.1-0.1-0.2
		c-0.3,0.4-0.5,0.9-0.8,1.3c0.1,0.1,0.2,0.2,0.3,0.3c1.5-2.8,3.5-5.4,5.8-7.7c6.1-6.1,14.4-9.8,23.7-9.8c9.3,0,17.6,3.7,23.7,9.8
		c2.3,2.3,4.2,4.8,5.8,7.7c0.1-0.1,0.2-0.2,0.3-0.3c-0.2-0.4-0.5-0.9-0.7-1.3c0,0.1-0.1,0.1-0.1,0.2l-0.2-0.1
		c0.1-0.1,0.1-0.2,0.2-0.2C112.2,136.2,101.5,129.8,89.3,129.8"/>
	<path class="st2" d="M119,147.3c-0.1,0.1-0.2,0.2-0.3,0.3c2.6,4.7,4.1,10.2,4.1,16c0,9.2-3.7,17.6-9.8,23.7
		c-6.1,6.1-14.4,9.8-23.7,9.8l0,0c-9.3,0-17.6-3.7-23.7-9.8c-6.1-6.1-9.8-14.4-9.8-23.7c0-5.8,1.5-11.2,4-15.9
		c-0.1-0.1-0.2-0.2-0.3-0.3c0,0-0.1,0.1-0.1,0.1c0.1,0.1,0.1,0.2,0.2,0.3l-0.4,0.3c0,0-0.1-0.1-0.1-0.1c-2.5,4.7-3.9,10-3.9,15.7
		c0,18.7,15.2,33.9,33.9,33.9l0,0c18.7,0,33.9-15.2,33.9-33.9c0-5.7-1.4-11-3.9-15.7c0,0-0.1,0.1-0.1,0.1l-0.4-0.3
		c0.1-0.1,0.1-0.2,0.2-0.3C119.1,147.4,119,147.4,119,147.3"/>
	<path class="st2" d="M59.5,147.5c-0.1,0.1-0.2,0.3-0.2,0.4c0,0,0.1,0.1,0.1,0.1l0.4-0.3C59.6,147.7,59.6,147.6,59.5,147.5"/>
	<path class="st2" d="M119.1,147.5c-0.1,0.1-0.1,0.2-0.2,0.3l0.4,0.3c0,0,0.1-0.1,0.1-0.1C119.3,147.8,119.2,147.6,119.1,147.5"/>
	<path class="st2" d="M60.5,145.8c0,0.1-0.1,0.1-0.1,0.2c0,0.1,0.1,0.1,0.1,0.2l0.2-0.1v0C60.6,146,60.5,145.9,60.5,145.8"/>
	<path class="st2" d="M118.2,145.8c-0.1,0.1-0.1,0.2-0.2,0.2l0.2,0.1c0-0.1,0.1-0.1,0.1-0.2C118.2,146,118.2,145.9,118.2,145.8"/>
	<path class="st0" d="M89.3,51.5v-0.2c-18.7,0-33.9,15.2-33.9,33.9c0,18.7,15.2,33.9,33.9,33.9c18.7,0,33.9-15.2,33.9-33.9
		c0-18.7-15.2-33.9-33.9-33.9V51.5v0.2c9.3,0,17.6,3.7,23.7,9.8c6.1,6.1,9.8,14.4,9.8,23.7c0,9.2-3.7,17.6-9.8,23.7
		c-6.1,6.1-14.4,9.8-23.7,9.8c-9.3,0-17.6-3.7-23.7-9.8c-6.1-6.1-9.8-14.4-9.8-23.7c0-9.2,3.7-17.6,9.8-23.7
		c6.1-6.1,14.4-9.8,23.7-9.8V51.5z"/>
</g>
</svg>
