<?xml version="1.0" encoding="utf-8"?>
<!-- Generator: Adobe Illustrator 21.0.0, SVG Export Plug-In . SVG Version: 6.00 Build 0)  -->
<svg version="1.1" id="Layer_1" xmlns="http://www.w3.org/2000/svg" xmlns:xlink="http://www.w3.org/1999/xlink" x="0px" y="0px"
	 viewBox="0 0 178.6 249.4" style="enable-background:new 0 0 178.6 249.4;" xml:space="preserve">
<style type="text/css">
	.st0{fill:#FFFFFF;}
	.st1{fill:#D40000;}
	.st2{fill:#E2CF00;}
	.st3{fill:#131F67;}
</style>
<g>
	<path class="st0" d="M8.9,0.4h161.5c4.7,0,8.5,3.8,8.5,8.5v232.4c0,4.7-3.8,8.5-8.5,8.5H8.9c-4.7,0-8.5-3.8-8.5-8.5V9
		C0.4,4.3,4.2,0.4,8.9,0.4z"/>
	<path class="st1" d="M14.1,56.4c0,0-1.8-2.6-4.2-5.6c-1.6-2-2.9-4.2-3-6.1c-0.1-2.1,1.2-4.3,3.5-4.4c2.3-0.1,3.3,1.6,3.7,3.1
		c0.4-1.4,1.3-3.2,3.7-3.1c2.3,0.1,3.6,2.2,3.5,4.4c-0.1,1.9-1.4,4-3,6.1C15.9,53.9,14.1,56.4,14.1,56.4z"/>
	<path class="st1" d="M165.2,193.9c0,0-1.8,2.6-4.2,5.6c-1.6,2-2.9,4.2-3,6.1c-0.1,2.1,1.2,4.3,3.5,4.4c2.3,0.1,3.3-1.6,3.7-3.1
		c0.4,1.4,1.3,3.2,3.7,3.1c2.3-0.1,3.6-2.2,3.5-4.4c-0.1-1.9-1.4-4-3-6.1C167,196.5,165.2,193.9,165.2,193.9z"/>
	<path class="st1" d="M14.1,11.5v2.8h2.7c0,0,0.1,2.7,0.1,8.3c0,5.5,0.1,8.2-0.2,9.8c-0.9,3.6-6.2,3.6-7.2,1
		c-0.6-1.5-0.4-2.7-0.5-4.2H6.1c0,0,0,0.8,0,1.7c0,4,1.4,6,4.5,6.8c3.2,0.9,7-0.5,8.3-3.2c0.8-1.6,0.7-1.7,0.7-11.2
		c0-6.3,0.1-9,0.1-9h2.5v-2.8H14.1L14.1,11.5z"/>
	<path class="st1" d="M165.3,238.8v-2.8h-2.7c0,0-0.1-2.7-0.1-8.3c0-5.5-0.1-8.2,0.2-9.8c0.9-3.6,6.2-3.6,7.2-1
		c0.6,1.5,0.4,2.7,0.5,4.2h2.9c0,0,0-0.8,0-1.7c0-4-1.4-6-4.5-6.8c-3.2-0.9-7,0.5-8.3,3.2c-0.8,1.6-0.7,1.7-0.7,11.2
		c0,6.3-0.1,9-0.1,9h-2.5v2.8H165.3L165.3,238.8z"/>
	<path class="st2" d="M153.5,29.5l-9.2,6l-0.1,7c-5.5-2.6-7.8-6.9-8.7-12c-1.5,2-1.7,11.9-1.7,11.9c-1.4,0.7-1.5,1.6-2.4,2.5
		c0.9,1.5,3.4,3.9,3.4,3.9c0,0-1.1,10.3,0.2,10.7c1.2-4.4,2.9-8.2,9-12.2c0,0,0.1,16.4-0.3,32.2c-2.6-1.8-8-5-11.6-8.2
		c4.6-5.9-0.1-13.6-6.9-8.5c-5.8-6.8-4.8-17.3-7.4-24.3c0,0-14.6-4-20.8-3.7c5.3,13.7,4.2,30.4-19,33.6c-11.1,5.1-24,10.8-36.5,21.4
		c-2.3,15.8-10.5,23.6-16.2,27.9c0,6.4,0,12.8,0.2,19.2c0,0,5.3-3.5,6.1-2.8c4.4,28.6,20.5,34.3,18.9,35.1c-0.3,0.1-5.3,5.3-5.3,5.3
		l-19.6-13c-0.7,19.8-0.3,40,0,59.8c3.5-2,9.8-6.7,9.8-6.7l0.1-6.7c0-0.6,8.9,5.6,9,13c0.7,0.5,2.2-10.7,0.8-11.9l3.7-3.8l-4-3.8
		c0,0,1-6.3-1-10c-1.3,8.3-8.2,11-8.2,11s-0.1-30.5-0.3-30.5l12.3,7.8c-6.7,9.1,5.1,12.1,6.5,7.6c7.6,7.1,4.7,15.6,8,25.6l21.5,4
		c-8.9-16.5,0.8-35.3,18.2-34c3.3-1.4,6.2-3.3,6.2-3.3s-2.2-3.5-4.9-6.8l-37.3-0.6l17.4-32.7L71.8,139c7.9-13.8,8.5-13.4,6-28.1
		l11.1,0.2c0.4-4.6-4.9-21.9-12.5-33.3l41.9,0.4l-23.6,33l12.7,0.4c-7.6,13.7-9,13.4-6.4,27.7l-11.3,0.2
		c1.9,16.8,14.4,34.7,18.8,40.2c7.3-1.7,20.8-12.1,29.2-18.6c1.1-11.3,5-20.9,15.1-28.1l0-18.6c0,0-5.8,3.7-5.8,3.5
		c0-4-2.1-12.4-5.9-19.9c-4.1-8-11-15.3-12.5-15.7c3.6-5.5,5.1-5.9,5.1-6l19.6,12.6L153.5,29.5z M54.3,69.5
		c-7.4,1.9-17.5,0.2-19.6,6.7c-0.5,1.5,0.6,2,1.4,2.4C40.5,73.1,52,80.8,54.3,69.5z M29.5,91.9c-1.7,0.2-1.1,3.8-0.6,4.2
		C30.2,95.8,30.5,91.8,29.5,91.9z M92.6,121.7l-5.8,0l0,6.8l5.8,0L92.6,121.7z M149.6,155.6c-0.1,0.7-0.7,3.6,0.8,3.1
		C152,157.4,150.5,151.6,149.6,155.6z M144.1,172.8c-0.7-1-2.8,1.5-4.5,1.6c-7.7,0.4-13.4-0.6-14.4,7.5c4.5-2.8,10.7-1.6,14.7-2.5
		C142.9,178.4,146.2,175.7,144.1,172.8z"/>
	<path class="st3" d="M24.1,19.6v211.2h131.2V19.6H24.1z M62.5,21.3l66.1,0.2c-2,5.8-7.3,9.7-10.1,15.4c-0.6,0.9-0.6,1.6-0.3,2.6
		c0.6,1.8,1.2,4.8,1.5,6.6c0.4,4,0.8,9.1,3,13.5c0.3,1,2.3,3.5,2.8,3.5c2.9-4,10.4-1.6,8.2,5.4c-0.8,2.7-2.2,2.7-1.6,3.2l11.9,8.1
		c0,0,0.3-31.9,0-31.9c-6.2,3.7-6.5,5.9-9.1,11.8c-1.6-2.2,0.2-7.7,0-10.6l-3.6-3.9l2.8-3.1c0,0,1-11.6,1.2-11.4
		c0.6,4,4.4,10.5,8.9,12l0.1-7.1l9.5-6.1L153.5,88l-0.9,1v2.5c0,0-7-4.6-7.2-4.9c-0.1-0.8-2-2.3-2.5-1.5l-2.1-1.5
		c0.3-0.1-2.2-3.6-2.5-2.5c-0.1,0.2,0,1,0,1l-2.1-1.5c0,0-0.2-0.5-0.3-0.7c-0.2-0.5-0.6-1.1-0.9-1.5c-0.8-0.9-1.5-1-1,0.4l-1.3-0.8
		l-0.8,1l2.4,1.5v1.8l-2.9-2.2c-0.8,0-0.9,0.1-0.7,0.8l3.6,2.3v1.9c-1.5-1-4.5-2.9-4.5-2.9l-0.4,0.5c9,7.9,16.5,21.5,17.9,35.3
		c2.3-1.1,5.8-4.5,5.4-2.5c0,0.5,0.6,1,0.6,1l0.6,30.1c-6,5.4-9.3,9.7-16.3,14.9c-9.4,7.5-22.8,15.4-35.5,21.2
		c-3.6,0.2-6.8-0.8-13.2,3.8c-7.2,4.5-9.5,12.5-8.2,21.2c0.7,3.1,1.9,7.5,2.3,8.1c0.1,0.2,0.5-0.1,0.5-0.1l-0.1-0.2
		c-0.7-1.5-3.4-8.6-2.7-14c0.3-1.9,0.3-4.5,2.4-5.1c0.8-0.2,1.5,0.1,1.9,0.7c0.8,1,0.3,2.2-0.2,3.2c2.7-1.1,1.3-6.1-2.5-4.9
		c0,0,0.2-0.5,0.3-0.7c1.9-4,6.9-9.4,13.1-11c2-0.5,4.4-0.7,6.6-0.2c1.1,0.2,1.1,0.7,1,2.3c-0.1,1.6,0.5,2,1.2,2.7
		c1.3,1.5-2.5,2-4.6,0.7c-0.5-0.3-0.8-0.4-0.8-0.4s0.2,0.4,0.5,1.1c0.6,1.2,1.1,2.1,1.6,1.9c0.7-0.5,0.1-0.8,2-0.3
		c0.6,0.2,1.6,0.4,2,0.5c0.9,0.2,0.8,0.4,0.6,1.1c-0.6,1.8-0.1,2.4,2.7,4c2.3,1.2,2.1,1.3,0.4,5.1c-0.9,2-1.9,4.3-2.8,6.5
		c-0.4,0.9-0.3,1.4,0.3,2.3c0.6,0.9,1,3.8,0.8,4c3.3,4.2,6.1,9.3,9.6,14.4l-65.9-0.4c0,0,6.7-10.1,10.2-14.9c0.6-0.5,0.7-1.3,0.5-2
		c-0.1-0.2-2-13.4-2-13.4c-0.8-3.9-1.8-8.3-5.5-11c-1.4,1.6-5,2.6-6.9,0.5c-0.6-0.7-1.3-1.5-1.4-2.9c-0.3-1.9,0.4-4.2,0.6-4.5
		c0.3-0.4,0.8-0.8,0.8-1c0-0.6-1-1-2.5-1.8c-3.1-1.7-9.2-5.9-9.2-5.9s-0.2,22,0,30.8c5.9-2.5,8.7-10.8,8.7-10.8
		c1.5,1.9,0.4,7.6,0.5,9.5c1.3,1.6,2.5,2.1,3.7,3.7c-0.7,1.6-1.9,2.7-3.2,3.7c0.7,3.4,0.9,7-0.5,10.9c-2.3-6.7-4-8.9-9.1-12.1
		c0.2,2.6-0.2,4.6,0,6.9l-10,6.9l-0.8-60.8l20.4,14l0.3-0.5l-19.6-13.7v-2.1l1.9,1.2c0,0,0.2,1.4,0.7,1.8c0.5,0.3,1.9,0,1.7,0
		l3.2,2.2c-0.4,0.8,2.1,4.1,2.5,1.8l2.5,1.6c0.3,0.7,0.2,1.9,1.6,2.6c0.5,0.2,1.2,0.1,0.9-0.7l1.9,1.1c0.3,1.3,2.2,3.8,2.6,2.7
		c0-0.1-0.1-0.9-0.1-0.9l1.3,1c0,0,1.3-0.3,0.7-0.9l-2.2-1.4l0-1.6l2.9,2c0,0,0.7-0.5,0.6-0.9l-3.5-2.4l0.1-1.5
		c1.4,0.7,2.9,1.7,4.3,2.7l0.2-0.5c-10.3-8.4-16.5-22.4-18.4-34.5c-1.7,1-4.5,2.7-6.2,2.9l0-32.4c5.7-6.2,11.5-11.1,18.8-16.5
		c10.1-8.2,21.5-13.7,30.7-18.1c1.6-0.5,3.1-1.4,4.8-1.5c2.4-0.1,3-0.1,7.1-1.8c10.8-5.3,17.8-13.3,10.2-31.7
		C97,36,98.8,41,99.2,45.4c0.4,3.7-0.4,6.9-1,7.8c-1.4,1.7-3.3,1.5-3.3-0.9c0-0.7,0.5-1.8,0.5-1.8c-1.9-0.2-3.1,6.4,2.2,4.6
		C95.3,61.6,85,67.3,80.3,67.7c-2.4,0.4-3.6-0.3-3.7-2c0-1-0.6-3-1.1-3.6c-1.3-1.5,2.2-2,4.4-0.7c0.7,0.4,0.9,0.3,0.5-0.3
		c-0.1-0.2-0.6-0.9-0.6-1.2c0-0.7-0.1-1-1-0.6c-0.6,0.2-0.9-0.1-1.4-0.3c-0.4-0.2-1.1-0.3-2-0.4c-1.7-0.1-1.6,0.4-1.3-1.3
		s-0.1-2-2.1-3.3c-3.2-2-3.1-1.4,0.2-7.8c2.2-4.4,2.3-4.8,1.4-6.9c-0.7-1.7-1.3-3.3,0.5-3.6C70.3,34.4,66.7,24.7,62.5,21.3
		L62.5,21.3z M25.9,21.4h35.6c3.1,4.3,10.7,14.9,10.7,14.9c0,0-0.2,1.7,0.7,3.1c0.6,1.1,0.5,2.4-0.5,4.3c-0.7,1.3-1.5,3.1-2.3,4.9
		c-1.8,3-1.8,3.8-0.6,4.8c1.1,0.8,3.4,1.8,4,2.4c0.4,0.4-0.1,1.4-0.2,2.1c-0.1,0.4-0.4,1.4,0,1.8c0.6,0.7,0.8,0.9,0.5,1.7
		c-0.2,0.5,0.7,1,0.9,1.3c0.6,0.8,0.8,1.5,0.9,2c0.1,0.5,0,1,0,1c-3.3-1.3-9.1-0.3-7.9,6.5c-10.3,5.1-18.5,10.8-23.7,14.4
		c-1.7-5.7-4.7-7-7.5-7.4c-0.1-0.2,0.1-0.6,0.5-1c1.3-1.3,4.3-1.6,6.4-1.5c6.9,0,9.4-1.2,11.2-5.7c0.6-1.5,0.4-3.5,0.4-3.5
		s-0.5,0.7-0.8,0.9c-1.7,1.5-4.7,1.8-7.2,1.9c-4.2,0-6.4,0.4-7.8,1.1c-2.7,1.3-4.7,3.1-5,4.8c-0.1,0.6-0.2,0.6-1.4,0.5
		c-1.4-0.1-2.1,0.7-2.3,2c-0.1,0.6,0.1,0.6-0.9,1c-1.4,0.5-1.8,1.9-1.3,3.3c0.2,0.6,0.2,0.7-0.4,1.1c-1,0.7-1.2,1.5-0.8,2.5
		c0.1,0.4,0.2,0.5-0.1,1c-0.9,1.3,0.2,3.3,1.4,3.8c-0.7,4.2-0.4,4.4-0.3,4.9c0.1,0.5,0.5,0.7,1,0.7c1.4-0.1,1.2-1.2,1.4-2.3l1.7,2
		l-6.1,5.8L25.9,21.4z M130.5,21.4h22.7V29l-9.4,6v6.4c-6.7-4.3-7.1-9-7.9-12.3c-9.5,10.2-7,25.3-0.2,32.3c-0.2-0.3,1.2-9.7,8-12.9
		v30.2l-11.1-7.5c5-5.6-1-14.7-7.5-8.7c-4.8-4.8-4.3-14.9-6.6-23.1c-0.2-0.9,0.1-1.8,1.4-3.5C123.5,31.1,127,25.9,130.5,21.4
		L130.5,21.4z M134.3,32.3c0,0-0.6,1.8-0.4,9.6l-3.4,2.7C130.7,36.9,134.3,32.3,134.3,32.3z M75.1,37.7c-1-0.1,0.1,1.6,1,1.9
		c4.4,0.3,7.1-0.4,11.6,3.6c1.3,0.9,1.2-0.1-0.1-1.4c-2.3-2.3-5.8-4-9.3-4c-1,0-2.7-0.1-3-0.2C75.2,37.7,75.2,37.7,75.1,37.7z
		 M76.3,41.7c-0.3,0-1-0.5-1-0.5c0,0.8,1.2,2.6,1.5,3c0,0.2,0,0.7,0,1.3c-0.1,0.3-1.9,0.3-1.3,1.1c0.2,0.3,1,0.2,1.6,0.3
		c1.2,0.2,3.7,2.5,5.4,2.8c0.5,0.1,1,0,1,0c-1.2-0.5-2.5-1.1-3.6-2c-0.8-0.8,1-0.8,1.6-0.9c0.7-0.1,1.6-0.5,2-0.6
		c1.1-0.5,0.7-0.6,1.8-0.2c0.6,0.2,1.3,0.6,1.6,0.6c1.5,0.3,1-0.8-1.4-2c-0.3-0.2-0.9-0.7-1.4-1C82.2,42.4,81,42,79.5,42
		c-0.9,0.1-1.4,0-1.4,0c1.1-0.5,2.1-0.6,3.4-0.5c2.2,0.4,4.4,2.3,6.5,3.6C85,41.2,79.2,39.5,76.3,41.7z M80.5,44
		c0.2,0,0.3,0.2,0.3,0.5c0,0.2-0.9,1.5-1.1,1.6c-0.4,0.3-0.4-0.3-0.1-1.4C79.7,44.2,80.1,44,80.5,44z M81.6,44.4
		c1.4,0.2,2.3,1.2,1.2,1.6c-0.6,0.2-2.2,0.5-2.2,0.3C80.6,45.9,81.3,44.3,81.6,44.4z M130.5,45.2l4,3.8c-0.2,1-0.6,4.7-0.6,8.4
		C132,54.6,130.5,50.9,130.5,45.2z M76.6,49.8C76.3,49.8,76,50,76,50s0.3,0.2,0.7,0.4c2.4,1.3,1.4,3.8-1.3,2.1
		c-1.9-1.2-3.3-1.4-3.5-0.1c-0.1,0.6-0.1,1.1,0.8,0.8c0.3-0.1,1.3,0.4,2.1,0.7c1,0.4,3.1,1.3,3.9-1C79,51.5,77.8,49.7,76.6,49.8z
		 M83.7,54c-0.4,0-0.9,0.2-0.9,0.2s0.5,0.2,0.9,0.3c2.6,0.4,2.5,4.9-3.4,1.7c-2-1-3-0.7-4.1,0.2c-0.8,0.7-0.4,1.2,1,1
		c1.7-0.2,2.9,0.5,4.5,1C86.6,59.6,87.9,54.1,83.7,54z M72.6,66c1.3,0,2.7,0.6,4.1,2L76,68.3c-1.2-0.4-1.8-0.7-3-1.1
		c0.3,0.9,0.3,1.4,0.3,1.4s-1.3-0.5-2.5-0.6c0.4,0.9,0.8,1.7,0.8,1.7s-0.8,0-1.9,0l0.7,1.1l-1.7,0.8C67.7,68.6,69.8,65.9,72.6,66z
		 M54,69.6c0.3,2.8-2.1,6.6-10.6,6.6c-3.3-0.1-5.1,0-7.5,2.7l-1.5-1.2c0.5-1.8,1.3-5,8-6.5C46.2,70.5,49.9,71.6,54,69.6z M32.7,77.5
		c0.3,0,0.6,0.1,1,0.3c1.5,1,1.7,1.7,0.2,2.5c-0.9,0.5-1.1,0.6-1.8-0.2C30.8,79,31.4,77.5,32.7,77.5z M76.8,77.9
		c3.2,5.7,10.8,19.6,12.4,33.2l1.4,0l23.6-32.6L76.8,77.9z M36.6,80.1c0.8,0,1.8,0.2,2.6,0.6c0.8,0.4,1.6,1.2,2.2,2.1
		c0.9,1.2,1.5,2.6,1.5,3.8c0,0.3,0,0.6-0.1,0.8c-0.9,0.9-3.3,2.9-4.5,3.6c-1.3-1.1-1.9-3.8,0-5.9c0.9-0.7,1.2-1-0.4-0.9
		c-1.2,0.1-1.3,0.1-1.2-0.6c0.2-1.8-0.2-1.2-0.9-0.1c-0.5,0.8-1.7,1.2-2.1,1.2c-0.6,0-0.5-0.5,0-0.8c0.9-0.5,0.9-1.3,0.6-2.3
		C34.1,80.6,35.2,80,36.6,80.1L36.6,80.1z M30.4,80.6c1.4-0.1,2.4,1.1,1.1,1.9c-1,0.7-0.9,1.2,0.2,2.1c0.5,0.5,0.9,0.7,0.8,0.8
		c-0.2,0.8-2.2-1.3-3.3-2.1c-0.8-0.9-0.8-2.2,0.6-2.7C30,80.6,30.2,80.6,30.4,80.6z M136.3,81.8l2.6,1.8v1.5l-2.6-1.5V81.8z
		 M33.4,82.1c0.8-0.1,0.6,1.1-0.4,1.7c-0.6,0.3-1.1,0.1-1.1-0.4c0-0.3,0.6-0.9,1.1-1.1C33.2,82.1,33.3,82.1,33.4,82.1z M29,84.6
		c1.3,0.1,3,1.5,2.7,2c-0.1,0.3-0.9,0.9-0.8,1.3c0.2,0.7-0.3,0.7-1.4,0c-1.8-1.2-2.3-2.1-1.6-3C28.2,84.6,28.6,84.5,29,84.6z
		 M136.3,84.6l2.7,1.9v1.8l-2.7-1.8L136.3,84.6z M141,85l2.7,1.7l0.2,1.8l-2.8-1.7L141,85z M133,85.3c0.9,0.5,1.6,0.6,2.2,1.7
		c0.3,0.3,0.7,0.5,0.7,0.5l0.7-0.1l2.6,1.7c0,0,0.1,0.7,0.5,1.4c0.4,0.7,1.4,1.1,1.4,1.1c0.2,0,0.2-0.7,0.1-1l3.2,2.2l0.6,1.8
		l1.9,1.2c0,0-0.2-1.1-0.2-1.5l2.8,1.9c0,0,0.1,0.2,0.5,1.2c0.5,1.5,2,2.4,2,1.1l0.5,0v2.1l-14.7-9.8c0,0-0.9-0.8-1.8-2
		C135,87.5,133,85.3,133,85.3z M34.1,85.5c0.9,0,1.1,0.1,0.6,0.6c-0.5,0.5-1.5,0.2-1.4-0.4C33.3,85.4,33.5,85.5,34.1,85.5z
		 M36.3,85.5c0.3,0,0.6,0.3,0.4,0.9c-0.5,1.5-0.4,3.8,1,5.1l-4.4,3.9c-0.3,0.2-0.8,0-1.3-0.4c-1.5-1.2-2-2.3-0.8-2.3
		c0.8,0,1.9-0.8,1.6-1.8c-0.2-0.6-0.1-1,0.6-1.2c0.6-0.3,1.1-1.3,0.9-2c-0.2-0.6-0.1-0.7,0.3-0.7c0.4,0.1,0.9-0.4,1.1-1.1
		C35.9,85.7,36.1,85.5,36.3,85.5L36.3,85.5z M32.7,87.3c0.3,0,0.5,0.2,0.8,0.5c0.6,1.1-0.9,1.6-1.5,1.1
		C31.4,88.3,31.9,87.2,32.7,87.3z M141,87.7l2.9,1.9l0.3,2l-3.1-1.8L141,87.7z M28.2,88.1c0.2,0,0.5,0.1,0.8,0.3
		c0.2,0.2,0.9,0.7,1.2,0.9c0.8,0.5,0.9,0.8,0.2,0.9c-0.3,0-0.7,0.5-0.7,0.9c-0.4,0.4-1.4-0.2-2.1-1.1C27,89.1,27.4,88.2,28.2,88.1z
		 M145.9,88.2l2.9,1.9l0.3,1.9l-2.9-1.8L145.9,88.2z M31.3,90.7l0.2,0.1c0.6,0.3,0.8,0.7,0.2,1c-0.5,0.3-0.8,0.3-1.1,0
		C30.3,91.4,30.8,90.7,31.3,90.7z M146.1,91.2l3.2,2.2l0.1,1.7l-2.9-1.6L146.1,91.2z M29.3,91.7c1.3,0.8,0.8,4.7-0.1,4.7
		C27.9,95.4,28.1,92.7,29.3,91.7z M151.2,91.8l1.3,0.9v1.7l-1.3-0.8L151.2,91.8z M138.6,92.2l13.9,9.3v1.7l-12.4-8.4L138.6,92.2z
		 M151.4,94.8l1.1,0.7v1.8l-1.1-0.7L151.4,94.8z M141.4,96.9l11.1,7.4v1.9l-9.7-6.5L141.4,96.9z M143.6,101.5l8.9,5.8v1.9l-7.8-5.2
		L143.6,101.5z M145.1,105.3l7.5,4.9v1.9l-6.7-4.5L145.1,105.3z M146.3,108.8l6.3,4.3v0.7l-0.8,0.5l-5.1-3.3L146.3,108.8z M147,112
		l4.1,2.7l-1.3,0.9l-2.4-1.9L147,112z M79.1,113c0.1,0.9-0.2,2.9,0.2,3.7l1.3-2.1h1.6c-0.7,1.7-2.6,5.5-2.6,5.5h6.5
		c0,0,1.7-3.6,2.7-5.2l1.5,0l-2.4,5.2h6.1l2.7-5.3h2l-2.5,5.3h4.5l0.9-2.1h-2l2.3-5h-6.6l-2.6,5h-1.5l2.6-5h-6.5l-2.7,5h-2l2.5-5
		H79.1z M147.6,115l1.5,1l-1.2,0.7C147.8,116.2,147.7,115.6,147.6,115z M78.7,130.7l-1.1,1.9h2.3c-0.7,1.7-2.4,5-2.4,5h6.3l2.7-5
		h2.2l-2.5,5h5.8l2.7-5h2l-2.4,5h6.1l-0.3-4.5l-1.3,2.5h-1.4l2.2-4.9h-6.2l-2.5,4.9h-1.5l2.3-4.9H85l-2.5,4.9h-1.8l2.3-4.9H78.7z
		 M30.9,134.6l0.1,0.7l-0.8-0.3L30.9,134.6z M29.3,135.5l2,1.3l0.3,1.6l-3.4-2.2L29.3,135.5z M27.2,136.5l4.6,3.2l0.4,1.9l-6.5-4.2
		L27.2,136.5z M25.7,138.4l7,4.9l0.7,2.1c0,0-5.9-3.8-7.6-5.4V138.4z M89.3,139.3l-23.4,32.8l37.1,0.3
		C96.8,162.4,92.1,151.3,89.3,139.3z M25.7,141.1l8.1,5.7L35,149l-9.2-6.2V141.1z M25.7,143.9c0,0,6.7,5,9.9,6.7
		c0.4,0.7,1.6,3,1.6,3l-11.5-8V143.9z M25.7,146.7l12.1,8.4l2.3,3.3l-14.4-9.8V146.7z M153.1,148.4V229h-34.6
		c-3.4-4.9-6.5-9.7-10.2-15.2c-0.7-0.9-0.6-2.1-1.1-3.1c-0.4-0.7-0.5-2.1,0-2.9c1.4-3.1,3-5.9,4-9.2c0.4-1.4-2.5-2.5-4-3.5
		c-1.2-0.8-1.1-1.2-0.7-2.8c0.4-1.1,0.4-1.7-0.3-2.1c-0.4-0.2-0.4-0.2-0.3-0.8c0.1-0.6,0-1-0.7-1.6c-0.1-0.1-0.7-0.7-1-1.4
		c-0.2-0.4-0.3-1.5,0.6-1.5c4.8,1.9,8.3-1,7.3-6.1c0,0,16.1-9.3,23.4-15.1c1,4.3,3.4,7.8,7.8,7.9c-2.1,2.3-5.5,2.3-8.4,2.2
		c-6.9-0.1-9.8,2.9-10.2,9.3c1.9-2.7,6.1-3,10.3-2.9c4,0.2,9.5-1.2,10.9-6.5c1.9,0.7,3.3,0.7,4.1-1.8c0.1-0.3,0.4-0.7,0.6-0.8
		c1.7-0.7,1.9-2,1.4-3.5c-0.1-0.4-0.1-0.6,0.5-1.4c0.4-0.6,0.5-1.8,0.1-2.7c-0.2-0.4-0.2-0.8-0.1-1.4c0.1-1-0.1-1.8-0.8-2.7
		c-0.6-0.7-0.6-0.8-0.3-2.1c0.4-1.6,0.5-3.5,0.1-3.8c-0.5-0.4-2.1-0.6-2.1-0.1c-0.2,0.2-0.1,1.7-0.2,1.8c-0.3-0.3-1.8-1.3-1.8-1.3
		L153.1,148.4z M25.7,149.4c4.8,3.2,9.8,7.1,15.6,10.7l2,2.4l-1.8-0.2c0,0-1-0.1-1.6-1.6c-0.4-1.1-2.2-2.4-2.9-1.5l-1.7-1.1
		c0,0-0.3-0.5-0.5-0.9c-0.9-1.8-2.9-3.4-2.9-2.2c0,0.1,0,0.7,0,0.7l-1.8-1c0,0-0.3-0.7-0.4-0.9c-0.5-1.2-2.1-2.6-2.3-2.1
		c-0.1,0.3-0.2,0.8-0.2,0.8l-1.3-0.7V149.4z M25.7,152.7l1.8,1.2l0.1,1.6l-1.9-1.1V152.7z M146.5,154.9c1.4,0.7,2.5,1.8,2.4,2.5
		c0,0.4-0.3,0.5-0.9,0.6c-1.3,0.2-1.3,0.6-1.3,1.6c0,0.8,0,0.7-0.7,1.2c-0.9,0.6-1.1,0.7-1,2c0.1,0.9,0,0.8-0.5,1
		c-1.1,0.2-1.2,0.5-1.4,1.2c-0.1,0.8-0.6,0.9-0.5,0.2c0.5-1.5,1-3.5-0.9-6.1C141.8,159,144.9,156.1,146.5,154.9z M150.1,154.2
		c1.9,1,0.5,4.8-0.2,4.7C149,157.8,149.5,155.4,150.1,154.2z M30.1,155.6l2.7,1.8l0,1.6l-2.7-1.8L30.1,155.6z M25.7,155.7l1.7,1.2
		l0,1.5l-1.7-0.9L25.7,155.7z M30,158.5l2.9,1.9l0,1.7l-2.9-1.9L30,158.5z M148.4,158.9c0.8,0,1.3,0.7,0.8,1.3
		c-0.1,0.2-0.3,0.2-0.6,0.2c-1.3,0-1.7-1.1-0.5-1.4C148.2,158.9,148.3,158.9,148.4,158.9z M35.3,159.1l2.8,1.9l0,1.6l-2.8-1.8
		L35.3,159.1z M141.2,159.5c1.3,2,1.7,3.2,0.3,5.9c-0.5,0.7-0.6,0.8,0,0.9c0.6,0.1,1.4,0.9,1.3,1.2c0,0.4,0.3,0.2,1.2-0.6
		c1.1-1,1.7-1.3,1.5-0.6c-0.4,1.2-1.1,1.3-0.8,2.6c0.1,1.1,0.5,1.1-0.6,1.5c-2.5,1.1-5.1-0.5-6.9-4.2c-0.7-1.5-0.9-2.2-0.5-2.9
		C137.7,162.1,141.1,159.6,141.2,159.5z M150.6,160c0.6,0.1,1.1,1.8,1,2.2c-0.1,0.5-2-0.7-2-1.3C149.5,160.5,150.1,159.9,150.6,160z
		 M146.9,161.6c0.2,0,0.5,0.1,0.7,0.3c0.6,0.5,0.5,1.2-0.2,1.5c-0.7,0.3-1.1,0.2-1.3-0.4C145.7,162.1,146.2,161.5,146.9,161.6z
		 M148.9,162.1c0.2,0,0.5,0.2,0.8,0.5c1.9,1.3,2.4,2.3,1.5,3.3c-0.5,0.6-0.5,0.5-1.5-0.1c-1.9-1.2-2.2-1.4-1.5-2.1
		c0.2-0.2,0.5-0.6,0.5-0.9C148.7,162.2,148.7,162,148.9,162.1z M35.3,162.1l2.7,1.8l0,1.6l-2.7-1.6L35.3,162.1z M40.4,162.7l2.1,1.3
		v1.8l-2.1-1.4V162.7z M146.6,164.7c0.2,0,0.7,0.3,1.6,0.9c3,2.1,3.8,4.1,1.8,4.9c-0.8,0.3-1.7-0.6-2.3-1.4c-0.3-0.5,0-1.1,0.4-1.6
		c0.4-0.6,0.3-0.9-0.7-1.8C146.6,165,146.4,164.7,146.6,164.7z M144.6,164.7c0.1,0,0.3,0,0.5,0c0.1,0,0.4,0.2,0.1,0.6
		c-0.1,0.1-1,0.5-1.1-0.1C144,165,144.2,164.8,144.6,164.7L144.6,164.7z M40.4,165.7l2.1,1.3v1.7l-2.1-1.2V165.7z M146.9,166.7
		c0.3,0,0.4,0.2,0.4,0.5c0,0.4-0.4,1.2-0.8,1.5c-1,0.7-1.9-0.1-1.1-1.2C145.8,166.9,146.5,166.6,146.9,166.7z M146.6,169.9
		c0.2,0,0.3,0.1,0.6,0.2c1.7,0.9,2.3,2.1,1.1,3.1c-0.9,0.7-2.2,0.5-3.4-0.8c-1-1.1-0.9-1.1,0.5-2C146.1,170,146.4,169.9,146.6,169.9
		z M143.3,172.4c0,0,0.5,0.2,1.4,1.3c1.1,1.4-0.8,2.7-2.7,4.8c-4,2.7-11.1,0-16.6,3.3c0.1-5.3,3.5-7.6,10.7-7.3
		C140.4,175,143.4,172.5,143.3,172.4z M35.9,172.5l10.6,7.3c0,0-1.6,1.6-1.5,4.4c0.1,3.7,4.4,7.8,8.7,4.3c1.3-0.6,3.3,3.1,4.3,6
		c1.4,3.5,1.1,9.8,3.2,17.4L49.8,229H25.9v-7l10-7.2v-6c6.1,3,7.8,9,8.1,14c6.6-8.2,9.9-22.6-0.7-34.4c-0.3,5.5-2.1,9.8-7.4,13.2
		V172.5z M111.2,179.3c1.8,5.1-5.1,7.4-7.6,3.5l1.1-0.4c0,0,1.4,0.7,2.2,0.9c-0.3-0.4-0.4-1.2-0.4-1.2s1.6,0.3,2.6,0.3
		c-0.3-0.5-0.7-0.9-0.7-1.4c0.7-0.1,1.5,0.1,2.3-0.1c-0.6-0.5-0.7-0.3-0.7-1L111.2,179.3z M96.6,191.5c-0.3,0-0.6,0-0.9,0.1
		c-2.5,0.5-2.9,3.1-1.5,4.5c0.9,0.8,2.4,0.8,3.5,0.2c-1.1,0-1.8,0.2-2.7-0.5c-1.7-1.7,0.4-3.9,2.9-2.6c3.1,1.6,4.5,1.9,5.5,1.4
		c0.9-0.4,1-1.6,0.2-1.5C101.9,193.5,98.9,191.6,96.6,191.5z M45.4,192.5c2.3,3.6,3.8,8.9,3.6,12.1l-3.9-3.3
		C45.7,198.7,45.5,195.3,45.4,192.5z M103.3,196.1c-0.7,0-1.3,0.2-1.8,0.6c-1,1-0.6,4.2,1.9,3.5c0,0-1.2-0.4-1.5-1.1
		c-0.5-1.4,1.3-2.7,2.9-0.8c1.3,1.5,3.3,1.1,3.4-0.1c0.1-0.6-0.2-1-1-0.7c-0.4,0.2-0.8,0-1.5-0.4C104.8,196.4,104,196.1,103.3,196.1
		z M97.2,200.9c-1,0-0.7,0.2,0.7,0.7c2,0.8,3.4,1.3,3,1.7c0.1,0-3.6,0-5.3,1.1c-0.4,0-0.9-0.2-1.5-0.5c-1.8-0.9-2.5,0.1-0.9,1.2
		c3.2,2.2,5.9,3.3,8,3.1c1.4-0.1,2.2-0.2,1.3,0.3c-4.1,1.7-7.4-1.2-10.1-3c-0.5-0.3-0.7-0.4-0.7-0.4s0.3,0.5,0.6,0.8
		c3.1,2.7,6.2,4.5,10.4,3.3c0.7-0.3,0.7-0.5,1-0.4c1.2,1.1,0.8-0.7,0-1.6c-0.5-0.6-0.6-0.6-0.7-1.7c-0.1-0.7-0.1-0.8,0.5-1.1
		c1.4-0.6,0.6-0.8-0.2-0.8c-0.5-0.1-1.3-0.7-2.9-1.7C99.4,201.3,98,200.8,97.2,200.9z M99.6,204.2l-0.9,1.7c0,0-1.5-0.3-2-0.7
		c-0.1-0.1,0-0.3,0.3-0.4C97.9,204.4,98.6,204.1,99.6,204.2z M100.4,204.5c0.2,0,0.3,0.1,0.3,0.3c0,0.2-0.4,1-0.6,1.3
		c-0.2,0.3-0.4,0.2-0.6,0.1c-0.5-0.2,0.1-1,0.5-1.4C100.1,204.7,100.3,204.5,100.4,204.5z M48.9,205.8c0.7,3-2.1,11-3.2,11.6
		c0.1,0,0.7-5.5-0.2-8.3L48.9,205.8z M90.7,206.4c-0.1,0-0.1,0.2,0.2,0.6c2.1,3.2,5.3,5.6,10.1,5.8c1.5,0.1,3.8,0.2,4.1,0.3
		c0.7,0.2,0.7,0.4,0.8,0.1c0.5-1.6-1.5-3-5.3-2.4c-2.6,0.4-5.7-1.1-8.9-3.7C91.1,206.6,90.8,206.4,90.7,206.4z"/>
	<path class="st1" d="M80.5,229.1l1-5l9.3,0.5c0,0,1.1,3.2,1.5,4.6H80.5z M59.1,229l4.9-8.1l7,1.9l-1.6,6.4L59.1,229z M72.7,229.1
		l2.1-8.7c-4-0.9-7.8-1.5-12.2-2.7l-7.2,11.3l-4.3-0.1c3.7-5,10.5-15,10.5-15c15.6,5.4,31.2,6.3,47,3.4c0,0,5.8,7.7,7.9,11.9
		l-4.1-0.2l-5.1-8.6c-3.5,0.4-7,0.9-10.7,1l2.5,7.5h-4.1l-2.3-7.5c-4.4-0.2-8.2,0.2-13.5-0.7l-1.9,8.2L72.7,229.1z M102.1,229.1
		l-1.4-5.3l5-0.6c0,0,2.3,4.1,3.6,5.9L102.1,229.1z M57.1,179.4c6.2-9.5,28.2-39.9,28.2-39.9l3.3,0c0,0-19.7,27.6-29.2,41.5
		L57.1,179.4z M25.4,164.7l7.7,5.5l0.1,43.1l-7.8,5.5L25.4,164.7z M57.2,94.2l4.6,9.1C42.1,122,46,144,56.5,159.7
		c0,0-2.7,3.9-4.3,7.2c-14.3-9.4-18.6-34-18.5-34.3C49.4,118.5,51.5,114.1,57.2,94.2z M137.8,161.3c1-13.9,7.8-22.9,15.4-28.5
		l0.4,14.1C148.6,151.7,143.4,156.6,137.8,161.3z M117.2,147.3c17.3-16.2,17.9-39.1,5.3-56l5.2-7.2c7.3,7.8,14.5,16,17.5,35.1
		c-10.9,8.6-20.6,22.9-23.2,37.3L117.2,147.3z M93.4,128.5l0-6.6l6.4,0v6.6L93.4,128.5z M79.7,128.5l-0.1-6.6l6.4,0l-0.1,6.7
		L79.7,128.5z M90.6,111.1c0,0,21.6-30.3,30-41.1l1.8,1.3L93.9,111L90.6,111.1z M40.8,89.8c0,11.8-7.6,21.2-15.3,27.4l0.1-13.5
		C30.2,98.9,35.4,94.3,40.8,89.8z M153.3,32.7l0,52.6l-7.2-4.4l0.6-44.1L153.3,32.7z M118.8,35.8c-16.3-4.3-31.2-5.5-46.9-2.2
		C69.9,31.2,63,21,63,21l4,0.1l5.6,9l10.7-1.4l-2.7-7.3l4.4,0l2.2,7.2c0-0.1,8.7,0.1,13.5,0.7c0.8-2.7,2.2-7.9,2.2-7.9l4.8,0
		c-0.6,2.5-2.3,8.6-2.3,8.6c4,0.6,11.3,2.4,11.4,2.5c2.6-3.7,5-7.3,7.3-11l4.7,0C127.4,23.7,119.1,35.9,118.8,35.8z M115.8,29.5
		l-7.2-1.7l1.9-6.4l10.1,0L115.8,29.5z M74.3,27.2L71,21.3h6.5l2.1,5.2L74.3,27.2z M89,26l-1-4.7h11.7l-1.2,5L89,26z"/>
	<path d="M62.2,20.9l10.4,15.1c4.2-0.4,11.4-2.4,24-1.2c0,0,1.8,5.4,2.4,8c1.8,7.2-0.6,14.4-4.8,18.2c-2.1,1.9-4.9,4.1-7.9,5.3
		c-4.1,1.7-4.5,1.7-7,1.8c-1.6,0.1-1.8,0.1-2.7,0.6c-0.3,0.1-0.4,0.4-0.7,0.5c-0.2,0.1-0.6,0-0.6,0C62,75,51.5,81.6,43.6,87.5
		c-0.1,0.1-0.2,0.4-0.2,0.4c-0.6,0.5-1.2,0.9-1.9,1.4l-0.4,0c-9.3,7.2-14.6,13-16.6,14.7l0.2,33.5c0,0,4.2-2.2,6.4-3.5
		c1.5,13,8,25.6,18.2,34.4l-4.4,6.1l-20.4-14.1l0.3,61.9l10.9-7.5v-6.5c3.2,2.2,6.4,3,8.7,13c1.8-3.5,1.7-8.7,0.9-12.2
		c-0.2,0.2,2.4-2.1,3.6-4l-4-3.6c0,0,1-8.7-0.9-10.4c-1.5,3.9-2.7,8.1-8.3,11.2l-0.1-30.1c2.8,1.8,5.5,3.8,8.2,5.6l0.4-0.1l2.9,2
		c0,0-0.3,0.6-0.6,1c-3.5,5.3,2.3,11.8,7,7.9c1.8-1.5,5.3,4.8,6,10.9c0.7,3.9,1,8.9,2.1,12.3c0.3,1,0.2,1.6-0.5,2.2
		c-3.6,5.1-10.9,15.4-10.9,15.4h5.2l0.4-0.6h-3.9c3.3-4.4,6.5-9.6,9.9-13.9c12.9,4.8,33.9,6,46.6,3c2.6,3.7,5.2,7.6,7.7,11.3h-3.7
		l0.5,0.8h4.9l-10.4-15.4c-7.2,2.1-24.7,1.3-24.4,1.1c0,0,0-0.1-0.7-1.9c-3-9.7-3.3-18.4,4.3-25.3c4-3.6,8.5-5.9,13.5-5.5
		c2.2,0,2.3-0.2,3.2-0.6c0.5-0.2,1.6-0.5,1.6-0.5l5.1-2.8l0.7-0.1l1.5-0.8l0.3-0.4l2.4-1.2l0.3,0l3.2-1.8l0-0.3l1.3-0.8l0.3,0.3
		c0.3,0,12.5-7.9,17.5-12.4l0.3,0.1c5.9-4.8,13.9-12.3,16.3-15.2l-0.1-14.4l-0.2-0.2l-0.1-15.9h-0.5l0-2c-2.6,1-5.5,3.4-5.7,3.3
		c-1.7-13.5-7.8-25.9-18-35l4.3-6l20,13.5l0.1-3.9h0.2c0.2-15.1,0.4-54.2,0.4-54.2l-0.2,0l0-3.1l-10.2,6.5l-0.1,6.6
		c-4.5-1.5-7.4-6.9-8.3-11.8c-1.3,0.5-1.7,11.9-1.7,11.9c-0.2,0-3.2,2.8-3.2,2.8s2.6,2.9,3.9,4.1c-0.3,0.6-0.8,9.2-0.2,10.2
		c0.3,0.8,1.2,0.7,1.2-0.2c1.4-6.7,7.8-11.2,8.1-10.8l-0.2,31.1l-11.3-8c2.4-2.7,2.9-7.2-0.1-9.5c-3-2.2-6-0.3-6.6,1.1
		c-3.7-2.4-4.9-11.3-5.5-14.8c-0.1-1.7-0.6-4-1.1-6.1c-0.3-1.3-0.7-2.5-0.7-3.7c0-0.5,0-0.8,0.5-1.5l11-15.7l-5.6,0l-0.1,0.1l4.4,0
		l-9.9,14.1c-15-4.7-30.5-5.8-47.1-2.9l-8.2-11.6l3.7,0l-0.1-0.2H62.2z M70.8,21l0.2,0.3l6.4,0L77.3,21L70.8,21z M80.4,21l0.1,0.3
		l4.4,0l-0.1-0.3L80.4,21z M102.8,21.2l0,0.2l4.8,0l0-0.2L102.8,21.2z M88,21.2l0,0.2h11.7l0-0.2L88,21.2z M110.5,21.3l0,0.2l10.1,0
		l0.1-0.2H110.5z M153.1,29.9l0,2.1l-6.8,4.3c-0.2,9.1-0.4,44.1-0.4,44.1l-1.6-1.1l0.3-43.8C144.6,35.5,150.6,31.7,153.1,29.9z
		 M135.3,31.6h0.2l0.1,0.5h-0.4L135.3,31.6z M135.8,32.9l0.2,0.7h-1l0.1-0.6L135.8,32.9z M152.9,33.2v1.4l-5.8,3.7v-1.4L152.9,33.2z
		 M134.8,34.4l1.5,0l0.3,0.8h-2L134.8,34.4z M97.3,34.8l1,0.2c2.3,5.6,2.9,10.4,3.4,15.4c0.9,6.5,2.8,13,4.1,15.7h-1.5
		c-0.2,0-3.3-9.4-4-15c-0.2-1.1-0.1-2.1-0.2-3.1C99.8,43.7,99.2,40.5,97.3,34.8z M99.2,35l1.3,0.1c0.9,4,2.2,7.7,2.8,11.7
		c0.9,6.4,1.3,12.9,4.4,19.2h-1.2c-1.9-4.3-3-8.7-3.8-13.5c-0.6-2.8-0.6-4.8-0.9-7.3C101.4,42.3,100.3,38.5,99.2,35z M101.2,35.2
		l1.3,0.2c0.9,3.9,2.3,8.3,2.7,11.9c0.8,7.3,1.9,14,4.2,18.8h-0.9c-3.5-6.9-3.6-13-4.6-19.4C103.4,42.9,102.1,39.1,101.2,35.2z
		 M103.3,35.5l1.2,0.2c0.8,3.9,2.2,8.4,2.6,12.4c0.6,7.1,1.8,12.4,4.5,18h-1.1c-3.2-5.5-3.6-12.3-4.6-19.2
		C105.3,43.1,104,39.3,103.3,35.5z M152.9,35.5v1.7L147,41v-1.7L152.9,35.5z M105.1,35.8l1.2,0.2c0.8,3.8,2.2,7.8,2.6,11.5
		c0.6,6.3,1.7,12.7,4.3,18.5h-1.1c-2.7-5.9-3.9-11.2-4.5-18.1C107.4,44.2,105.9,39.6,105.1,35.8z M137,35.9l0.6,1.2h-3l0-1.1
		L137,35.9z M107.1,36.2l1.4,0.3c1.5,6,1.9,11.8,3,17.5c1.3,7.1,2.7,10.7,3.8,12.1h-1.2c-2.9-6.2-3.9-12.3-4.6-18.7
		C109.1,43.7,107.9,40,107.1,36.2z M109.3,36.6l1.1,0.2c1.3,4.9,1.9,9.6,2.5,14c1,8.5,3.9,14.9,4.5,15.2h-1.2
		c-2.6-3.6-3.6-9.8-4.9-18.5C110.7,43.8,110.1,40.2,109.3,36.6z M111.1,37l1.2,0.3c0,0,1.1,4.3,1.9,10.1c0.7,4.8,1.1,14.3,6.3,19.7
		c2.6,2.7,7.2,5.1,10.3,2.5c1.3-1.1,2.2-3,1.4-4.9c-1.4-3.3-5.9-2.7-4.4,0.7c0.2,0.8-0.9,0.9-1.7,0.1c-0.8-0.9-0.6-1.8,0-2.7
		c1.2-1.9,4.3-2.1,6.2-0.4c3,2.9,1.7,7.9-2.1,9.5c-4.3,1.8-9.9-2-12.1-5.6c-3.6-6.3-4.2-12.3-5.1-18.6
		C112.7,44.2,111.9,40.6,111.1,37z M112.9,37.5l1.2,0.3c0,0,1.4,6.1,1.8,9.7c0.6,4.5,1.2,9.7,3.1,13.8c1.2,2.5,2.9,4.7,4.7,5.9
		c1.5,1.1,2.9,1.7,4.9,1.3c2.3-0.5,2.4-4.1,0.2-4.1c-1.1,0-0.4-1.1,0.5-1.1c3.3-0.1,3.4,5.1,0.3,6.3c-3.6,1.3-7.5-1.2-9.9-4.4
		c-4.2-6.5-4-12.5-5-17.7C114.6,44.8,113,37.6,112.9,37.5z M138.1,37.7l0.8,1l-4.2,0l0-1L138.1,37.7z M114.8,38l1.2,0.4
		c0,0,1.2,4.7,1.9,10.3c0.9,5.4,1.1,9.9,3.9,13.8c1.2,1.6,3.4,3.8,4.7,4c0.9,0.2,1.7,0,2-0.7c0.4-1.1,1.3-0.6,1.3,0.4
		c0,0.7-0.5,1.4-1.3,1.6c-4.1,0.7-7.9-4.5-9-7.1c-1.5-3.8-2.2-8.1-2.9-13.4C116.3,45.3,114.9,38.2,114.8,38z M152.9,38.2l0,1.7
		l-5.8,3.7v-1.7L152.9,38.2z M116.6,38.5l1.3,0.4c0,0,1.1,4.2,1.8,9.3c0.7,5.2,2.1,11.3,4.8,14.4c0.2,0.3,0.4,0.5,0.5,0.7
		c0.2,0.4,0,1.1-0.2,1.1c-4.8-2.5-5.9-12.6-6.4-16C117.8,43.3,116.6,38.5,116.6,38.5z M134.7,39.5h4.8l1,1l-5.8,0L134.7,39.5z
		 M152.9,40.7v1.4l-5.8,3.7v-1.5L152.9,40.7z M137.3,41.3c1.4,0,3.1,0,4.3,0l2.1,1.3c0.1,0.1-9.7,0-9.7,0c0.3-0.3,0.5-0.7,0.7-1.3
		C134.7,41.3,135.9,41.3,137.3,41.3z M152.9,43v1.7l-5.8,3.7v-1.6L152.9,43z M133.6,43.3c1,0,7.5,0.1,10.1,0.1v0.9H132L133.6,43.3z
		 M131.8,45.2l11.9,0v1.2H133L131.8,45.2z M152.9,45.5v1.8l-5.8,3.6v-1.7L152.9,45.5z M133.8,47.4c0,0,6.6,0,10,0l-1.9,1h-6.6
		L133.8,47.4z M152.9,48v1.7l-5.8,3.7v-1.7L152.9,48z M135.2,49.2h5.7l-1.1,1.1l-4.7-0.1L135.2,49.2z M152.9,50.4v1.8l-5.8,3.6v-1.6
		L152.9,50.4z M134.9,51.1h4l-0.7,0.9h-3.4L134.9,51.1z M99.8,51.6c0.5,4.9,2.3,9.9,3.9,14.5h-1.3c0.1,0.1-2.5-5.8-3.4-11.3
		C99.1,54.7,99.8,51.7,99.8,51.6z M134.7,52.8h3L137,54l-2.5,0L134.7,52.8z M152.9,53v1.6l-5.8,3.6v-1.4L152.9,53z M134.6,54.6h2
		l-0.5,1.1h-1.5L134.6,54.6z M152.9,55.5v1.7l-5.8,3.6v-1.6L152.9,55.5z M98.5,55.8c0.6,3.8,3.2,10,3.4,10.3h-1.1
		c-0.1,0.4-3.1-8.5-3.1-8.5S97.9,57,98.5,55.8z M134.6,56.5h1.2l-0.2,0.7l-1,0L134.6,56.5z M134.7,58h0.6l-0.1,0.6h-0.4L134.7,58z
		 M152.9,58v1.4l-5.8,3.7v-1.3L152.9,58z M97.1,58.2c0.9,2.6,1.8,5.3,2.8,7.9h-1.3c-0.9-2.2-1.8-5-2.3-6.8L97.1,58.2z M95.8,59.9
		l2.2,6.1h-1.2c-0.7-1.5-1.3-3.3-1.9-5C94.8,61.1,95.2,60.5,95.8,59.9z M152.9,60.3v1.6l-5.8,3.6v-1.4L152.9,60.3z M94.3,61.5
		c0.7,1.5,1,3.1,1.8,4.6h-1.5c-0.5-1.4-1-3.9-1-3.9L94.3,61.5z M92.9,62.7c0.3,1.1,0.5,2.2,1,3.4h-1.4C92,65.2,92,63.4,92,63.4
		L92.9,62.7z M152.9,62.9v1.7l-5.8,3.5v-1.6L152.9,62.9z M91.5,63.8c0.1,0.9,0.2,1.5,0.4,2.3h-1.3c-0.1-0.4-0.2-1-0.1-1.6L91.5,63.8
		z M89.7,65l0.1,1.1h-2C88.5,65.7,89.7,65,89.7,65z M152.9,65.6V67l-5.8,3.7v-1.4L152.9,65.6z M83.4,67.7l35.1,0
		c0.4,0.5,0.8,1.1,1.5,1.6c-13.4,0.1-26.6,0.3-43.3,0l1.8-1C80,68.2,81.7,68.3,83.4,67.7z M152.9,67.9v1.5L147,73v-1.4L152.9,67.9z
		 M54,69.4c-2.8,1.3-5.5,1.6-7.4,1.4c-4.2-0.3-10.7,1.4-12,5.5c-0.4,1.4-0.4,1.5,0.4,2.2c0.4,0.4,0.8,0.6,0.8,0.6
		c0.7-0.6,1.6-1.7,2.6-2.1c3.8-1.4,7.2-0.3,10.7-1.2C51.8,75.1,54.3,72.8,54,69.4z M53.9,69.7c-0.5,5.6-6.6,6.4-9.3,6.2
		c-5.4-0.3-7.6,1.3-8.4,2.3c-0.3,0.3-0.4,0.2-0.4,0c0.6-3.1,5.7-3.2,8.2-3.2c6.2,0.3,7.8-2.7,7.6-2.7c-0.5,0.2-0.8,0.4-1.3,0.6
		c-0.2,0.1-0.2,0-0.7-0.4c0,0-0.6,1.4-1.4,0.1c0,0.1-0.6,1.2-1.7,0.1c0,0.1-0.7,1.1-1.7,0.1c-1,0.9-1.5,0.4-1.9-0.2
		c-0.3,0.2-1.2,1.4-2,0.1c-0.8,0.5-1.2,1.1-1.9,0.7c-1.6,0.3-3.1,2-3.7,3.5c-0.2,0.5-0.5,0.6-0.6,0c-0.2-1.6,2.5-4.4,5.1-5.2
		c2.1-0.6,3.5-1,8.1-0.9C50.6,71.1,53.9,69.7,53.9,69.7z M120.5,70.2l1.6,1.1L93.5,111H91L120.5,70.2z M74.6,70.2h3.3v5.4H75l-1-1.5
		c0.3,0.2,0.6,0.2,0.9,0.2c1,0,1.7-0.8,1.7-1.7s-0.8-1.7-1.7-1.7c-1,0-1.7,0.8-1.7,1.7l0,0.3l-1-1.6c0,0,0.4-0.3,1.5-0.7
		C73.9,70.4,74.6,70.2,74.6,70.2L74.6,70.2z M84.6,70.2h5.5v5.4h-5.5V70.2z M96.7,70.2h5.7v5.4h-5.7V70.2z M109,70.2h5.7v5.4H109
		V70.2z M152.8,70.3l0.1,1.7l-5.8,3.6v-1.7L152.8,70.3z M111.7,70.9c-1,0-1.9,0.8-1.9,1.8s0.8,1.9,1.9,1.9c1,0,1.8-0.8,1.8-1.9
		S112.7,70.9,111.7,70.9z M87.4,71c-1,0-1.8,0.8-1.8,1.8s0.8,1.9,1.8,1.9s1.8-0.8,1.8-1.9S88.4,71,87.4,71z M99.4,71
		c-1,0-1.8,0.8-1.8,1.8s0.8,1.9,1.8,1.9c1,0,1.8-0.8,1.8-1.9S100.4,71,99.4,71z M81.2,71.2c0.9,0,1.5,0.7,1.5,1.6s-0.7,1.6-1.5,1.6
		c-0.9,0-1.5-0.7-1.5-1.6S80.3,71.2,81.2,71.2z M117.9,71.3c0.4,0,0.7,0.1,1,0.4l-1.7,2.3c-0.4-0.3-0.7-0.7-0.7-1.2
		C116.4,71.9,117.1,71.3,117.9,71.3z M105.6,71.3c0.9,0,1.6,0.7,1.6,1.6s-0.7,1.6-1.6,1.6s-1.5-0.7-1.5-1.6S104.8,71.3,105.6,71.3z
		 M93.6,71.3c0.9,0,1.5,0.7,1.5,1.6s-0.7,1.6-1.5,1.6s-1.5-0.7-1.5-1.6S92.8,71.3,93.6,71.3z M74.9,71.4c0.6,0,1.2,0.5,1.2,1.2
		s-0.5,1.2-1.2,1.2s-1.2-0.5-1.2-1.2S74.3,71.4,74.9,71.4z M71.4,71.5L71.4,71.5C81.2,84,86.4,97.1,88.7,111h-1.7
		c-2.7-15.1-8.9-28.4-17.2-38.9L71.4,71.5z M111.7,71.5c0.7,0,1.2,0.5,1.2,1.2s-0.5,1.2-1.2,1.2c-0.7,0-1.2-0.6-1.2-1.2
		S111,71.5,111.7,71.5z M87.4,71.6c0.7,0,1.2,0.5,1.2,1.2c0,0.7-0.6,1.2-1.2,1.2s-1.2-0.6-1.2-1.2C86.2,72.1,86.7,71.6,87.4,71.6z
		 M99.4,71.6c0.7,0,1.2,0.5,1.2,1.2c0,0.7-0.5,1.2-1.2,1.2c-0.7,0-1.2-0.6-1.2-1.2C98.2,72.2,98.8,71.6,99.4,71.6z M130.1,72.5
		c0.6,5-0.6,8.2-4.4,8.7c-4.8,0.7-5.5,1-5.5,5.6c0,5.4-0.8,7-4.7,7.4c-4.3,0.5-5.3,1-4.9,6.4c0.3,3.9-1.3,5.6-4.6,6.3
		c-2.6,0.6-4.8,1.4-5.8,4.1h-2.4c0.6-4.1,4.8-6.1,7.4-6.2c2.9-0.7,3.5-1.6,3-6.7c-0.3-3.8,1-4.9,5.5-5.8c3.6-0.7,4.4-1.7,4.2-4.6
		c-0.4-6.2,0-7.2,3.5-7.9c1.8-0.4,4.7-0.6,5.9-2c1.3-1.6,0.9-2.9,0.8-4.8L130.1,72.5z M152.9,72.7v1.6l-5.8,3.6v-1.6L152.9,72.7z
		 M66.9,73.6c-1.2,5.4,3,6.6,5.7,7.5c3,1.1,3.8,2.6,3.4,8c-0.3,4.1,0.2,5,2.8,6.4c4,2.1,5.1,5,3.3,9.3c-1.1,2.7-0.5,3.8,0.2,6.2
		h-1.9c-0.1,0-1.8-3.3-0.4-6.5c1.7-3.8,1.6-5.6-2.1-7.3c-2.9-1.3-3.8-2.5-3.9-5.2c-0.1-1.1-0.1-1.7,0.2-4.2c0.3-3.1-0.8-4.4-5.4-6.1
		c-2-0.8-3.4-2.5-3.8-5.3c-0.1-0.8,0-1.7,0-1.7L66.9,73.6z M135.5,74.2l17.4,11.6l-0.1,2.6L134.3,76L135.5,74.2z M124.3,74.5
		c0.8,0,1.5,0.7,1.5,1.5c0,0.8-0.7,1.5-1.5,1.5c-0.8,0-1.5-0.7-1.5-1.5C122.7,75.2,123.4,74.5,124.3,74.5z M69.4,75.1
		c0.8,0,1.4,0.6,1.4,1.4s-0.6,1.4-1.4,1.4c-0.8,0-1.4-0.6-1.4-1.4C68,75.8,68.7,75.1,69.4,75.1z M152.8,75.3l-0.1,1.6l-5.7,3.6v-1.6
		L152.8,75.3z M69.4,75.7L69,76.4L68.6,77h0.7h0.7l-0.4-0.6L69.4,75.7z M75.6,76.3h39.8l-1,1.4H76.6L75.6,76.3z M61.9,76.4
		c5.3,6.9,10.5,14.1,14.4,27.5l-1.7,0.7c-3.3-10.8-8.4-19.8-14.4-27.2L61.9,76.4z M152.9,77.6v1.7l-4.4,2.7l-1.3-0.8L152.9,77.6z
		 M59.5,77.8l0.8,1c-1.6,1.4-4.5,2.8-4.9,4.6c-0.4,1.9,1.3,3.7,3.1,3.6c2.2-0.2,3.9-1.7,5.8-2.9l0.7,1c0,0-3.3,2.5-5.3,3.1
		c-4.3,1.3-7.5-4.2-4.3-7.5c0.5-0.5,1.5-1.2,2.3-1.7C58.5,78.5,59.5,77.8,59.5,77.8z M77.3,78.5l36.6,0.2L90.5,111h-1
		C87.6,99,83.1,88.2,77.3,78.5z M61.3,79.8l2.1,3c0,0-1.4,1.3-3.7,2.6c-1.8,1-3.8-0.8-2.7-2.5C58.3,81.3,61.3,79.8,61.3,79.8z
		 M152.9,80.1v1.6l-2.5,1.6l-1.2-0.7L152.9,80.1z M61.1,81.3c-1.1,0-2.7,1.2-3.4,2.2c-0.2,0.4-0.2,0.8,0.1,1.1
		c0.3,0.4,0.8,0.4,2-0.2c2.5-1.3,2.9-2.1,1.9-2.9C61.5,81.4,61.3,81.3,61.1,81.3z M61.1,82c0.1,0,0.3,0,0.4,0
		c0.4,0.1,0.3,0.7-0.2,0.8c-0.1-0.2-0.8-0.2-0.8,0.6c-0.2,0.4-0.2,0.4-0.7,0.5c-0.4-0.1-0.6,0.2-0.7,0.3c-0.4,0.2-0.8,0.1-0.9-0.1
		c-0.1-0.2,0.2-0.9,0.5-0.9c0.1,0,0.4-0.2,0.6-0.3c0-0.4,0.5-0.5,0.6-0.5c0.1,0,0.6,0,0.8-0.3C60.8,82,60.9,82,61.1,82z M152.9,82.4
		v2.4l-1.8-1.2L152.9,82.4z M51.4,82.7c6.7,7.9,11.5,16.3,14.5,27.9l-1.3,0.9c-2-8.1-5.1-16.7-14.3-27.9L51.4,82.7z M129.3,82.8
		c3,2.6,15.4,14.2,17.7,34.9l-1.7,1c-1.3-10.9-5.6-23.4-17.2-34.5L129.3,82.8z M123.4,83.5c0.8,0,1.5,0.7,1.5,1.5
		c0,0.8-0.7,1.5-1.5,1.5c-0.8,0-1.5-0.7-1.5-1.5C121.8,84.2,122.5,83.5,123.4,83.5z M49.5,84.1c0,0,1.4,1.4,1.4,1.8
		c0,0.7-0.5,1.1-3.8,2.2c-0.5,0.2-2.9,0.7-2.9,0.7l0.1-1.2c1.2-0.4,4.3-1.2,4.6-1.9c0.1-0.3-0.5-1-0.3-1L49.5,84.1z M71.7,84.4
		c0.8,0,1.4,0.6,1.4,1.4c0,0.8-0.6,1.4-1.4,1.4c-0.8,0-1.4-0.6-1.4-1.4C70.3,85,70.9,84.4,71.7,84.4z M127.8,84.8
		c10.1,9.9,15.6,22,16.9,34.6C133,129,125,141,121.8,156c-1.6-2.6-2.9-5.6-4.3-8.6c15.7-13.8,18.9-38.6,5.4-56L127.8,84.8z M71.7,85
		l-0.4,0.6L71,86.3h0.7h0.7l-0.4-0.6L71.7,85z M66.2,86.7l0.7,1.1c-1.3,1.2-5.1,2.3-5.5,4.9c-0.2,1.9,1.1,3.9,3,3.6
		c2.2-0.4,3.5-1.2,5.5-2.3l0.6,1.1c0,0-1.5,1.3-4.5,2.3c-2.8,1-5.4-0.7-5.9-4c-0.4-2.4,0.7-3.6,4.7-5.9
		C65.2,87.3,66.2,86.7,66.2,86.7z M114.2,87.2c0.8,0,1.5,0.7,1.5,1.5c0,0.8-0.7,1.5-1.5,1.5c-0.8,0-1.5-0.7-1.5-1.5
		C112.6,87.9,113.3,87.2,114.2,87.2z M51.9,87.3L51.9,87.3l0.9,0.9c0,0-0.4,0.6-2.7,2c-2,1.2-2.3,1-1.2,1.9c1.9,1.6,4.5,5.2,4.5,6.1
		c0,0.9-0.8,1.7-2.3,2.4c-0.8,0.4-4.1,1.5-4.6,1.6c-1,0.1-1.2,0.5-0.3,1.4c1.6,1.9,3,5.9,2.5,7.1c-0.6,1.4-1.4,1.6-7.4,1.9
		c-0.7,0-1-0.2-0.6,0.7c0.3,0.6,0.6,1.5,1.1,4.2c0.5,2.4,0.4,3.5-0.5,4c-0.5,0.3-4.7,0.2-6.5-0.2c-2-0.4-2.2-0.4-1.9,0.9
		c0.4,1.8,0.7,6.6-0.7,7.5c-0.6,0.4-1.2,0.3-3.6-0.6c-1.6-0.5-2.9-1.1-2.9-1.1l0-1.5c1.3,0.5,4.8,2,5.8,1.6c1.2-1.7-0.5-7.7-1.1-8.9
		c-0.8-1.5,0-1.9,1.8-0.9c0.9,0.6,8.8,3.8,8.4,1c-0.5-2.6-1.3-5.7-3-7.6c-1.5-1.8-0.8-2.5,0.9-1.7c3,1.4,9.3,1,9-0.4
		c-0.4-2.3-2.5-5.4-5.3-7.8c-0.8-0.7-0.8-1,0.1-1.1c2.7-0.2,10.3-1,9.2-2.8c-0.9-1.5-2.1-3.1-3.2-4c-1.7-1.4-3.4-2-4.2-2.3l0-1.1
		C47.6,90.1,49.4,89,51.9,87.3L51.9,87.3z M43.6,88.3c-1.2,13-6.7,23.8-17.9,31.3l-0.1-1.5c9.9-7.4,14.6-18,15.9-28.2L43.6,88.3z
		 M53.1,89l0.9,0.8c0,0-0.2,0.4-1.6,1.4c-1,0.8-0.7,0.5,0,1.4c0.6,0.8,1.7,2.3,1.7,2.3l-0.3,2c-1.2-1.7-2.1-2.9-3.9-4.7
		c-0.9-0.9-0.8-0.9,0.4-1.6C51.4,90.1,52.2,89.5,53.1,89z M67.4,89.1c0,0,1.9,3.3,1.9,3.6c-2.2,1.4-4.9,3.6-6.3,1.1
		c-0.4-0.8-0.2-1.9,0.9-2.6C65.4,90.2,67.3,89.2,67.4,89.1z M78.3,90.2c0.8,0,1.4,0.6,1.4,1.4c0,0.8-0.6,1.4-1.4,1.4
		s-1.4-0.6-1.4-1.4S77.5,90.2,78.3,90.2z M67.1,90.4c-1.3,0.3-2.6,1.5-3.3,2.1c-0.3,0.2-0.1,1.1,0.2,1.5c0.3,0.4,0.9,0.4,1.6,0
		c0.3-0.2,0.8-0.4,1.2-0.6c1-0.5,1.4-0.8,1.4-1.2C68.1,91.5,67.6,90.3,67.1,90.4z M40.6,90.9c0.3,1.5-0.6,4-1.1,5.5
		c-3,3.9-7.2,5.9-11.3,7.2c-0.9,0.3-2.1,0.1-2.1,0.1C31.7,97.9,36.5,93.6,40.6,90.9z M78.3,90.9l-0.4,0.6l-0.4,0.6h0.7H79l-0.4-0.6
		L78.3,90.9z M67.3,91c0.2,0,0.3,0.4,0.5,0.7c-0.6,0.3-1,0.1-0.9,0.5c0,0,0.1,0.8-0.9,0.8c-0.2-0.1-0.6-0.1-0.8,0.1
		c-0.7,0.3-1.2-0.3-0.5-0.6c0.2-0.1,0.7-0.2,0.8-0.5c0.1-0.4,0.4-0.7,0.7-0.4c0.2,0,0.6,0,0.7-0.2C67,91.1,67.1,91,67.3,91z
		 M29,91.6c-0.1,0-0.2,0-0.3,0c-0.3,0.3-0.7,4.3-0.4,4.6c0.4,0.4,1.5,0.5,1.6,0c0.3-1.6,0.3-2.8,0.4-4.1
		C29.7,91.7,29.3,91.6,29,91.6L29,91.6z M29.4,92.1c0.6,0.2,0.3,2.4,0,3.4c-0.2,0.6-0.6,0.5-0.8-0.1c-0.2-0.6,0-2.2,0.3-2.9
		C29.1,92.2,29.3,92,29.4,92.1L29.4,92.1z M55.5,92.1l1,1.2c-2,19.4-15.9,36.3-30.7,42.9l0-1.3C42.7,126,52.9,111.2,55.5,92.1
		L55.5,92.1z M122.5,92.1l1.8,2.5l-2.6,0.1L122.5,92.1z M43.8,93c0.9,0,5.7,3,5.1,4.5c-0.5,1.2-4.5,1.3-6.4,1.1l0.3-1.1
		c0,0,0.6,0.2,2.7,0c2.3-0.2,2.1-0.9-0.5-2.6c-1.1-0.7-1.4-0.9-1.4-0.9L43.8,93z M57.1,94.6c1.5,2.5,2.9,5.4,4.2,8.6
		c-18.2,17.2-16.8,40.7-5.3,56.1l-5,6.7c-9.9-9.5-15.3-21.1-17.1-33.5C48.4,122,55.2,106.5,57.1,94.6z M124.9,95.3l1.1,2.1l-2.6,0
		L124.9,95.3z M113.6,96.4c0.8,0,1.5,0.7,1.5,1.5c0,0.8-0.7,1.5-1.5,1.5c-0.8,0-1.5-0.7-1.5-1.5C112.1,97.1,112.7,96.4,113.6,96.4z
		 M71.1,96.8l0.5,1.2c0,0.1-3.7,1.3-4.9,2.8c-2.5,3.1,0.5,5.8,3.2,4.9c1.5-0.4,2.5-1.1,4-1.8l0.3,0.8c-1.9,1-3.5,2.2-5.6,2.3
		c-3.6,0.1-5.6-4.7-2.5-7.3C67.6,98.3,69.3,97.7,71.1,96.8z M118.8,97.5c11.9,17.2,3.8,36-3.9,42.7l-0.2-2c12.9-14.8,8.4-32,3-39.6
		L118.8,97.5z M126.5,98.3l0.9,2.1l-2.8-0.3L126.5,98.3z M78.6,99c0.8,0,1.4,0.6,1.4,1.4s-0.6,1.4-1.4,1.4s-1.4-0.6-1.4-1.4
		S77.8,99,78.6,99z M117.4,99.3c10.4,15.2,4.6,39.4-15.3,46.7l-0.1-1.7c20.3-8.5,22.3-31.1,14.1-43.9L117.4,99.3z M72.2,99.3
		l1.3,3.6c-1.7,1.1-2.8,1.5-4.2,1.8c-2,0.4-3.1-2.1-1.5-3.2C69.3,100.6,70.6,99.9,72.2,99.3z M38.4,99.4c0.2,0,0,0.6-0.6,2.1
		c-1.4,3.4-1.5,3.4-5,4c-1.8,0.3-3.2,0.4-4.5,0.2c-1.9-0.2-2.8-0.7-1.5-1c3.7-0.8,7.7-2.7,10.3-4.5C37.8,99.7,38.2,99.4,38.4,99.4
		L38.4,99.4z M78.6,99.6l-0.4,0.6l-0.4,0.6h0.7h0.7l-0.4-0.6L78.6,99.6z M104.7,99.8c0.9,0,1.7,0.8,1.7,1.7c0,0.9-0.8,1.7-1.7,1.7
		c-0.9,0-1.7-0.8-1.7-1.7C103,100.5,103.7,99.8,104.7,99.8z M53.1,100.3l-0.4,1.3c0,0-2.1,1.1-3.1,1.5c-0.8,0.3-0.8,0.4-0.6,1.1
		c0.5,1.4,1.5,3.2,1.5,3.2l-0.9,2c-0.5-1.8-1.1-3.7-2.1-5.4c-0.9-1.3-1.1-1.5,0.3-1.8C49.7,101.6,51.4,101.1,53.1,100.3z
		 M71.7,100.7c-1,0-3.2,0.9-3.4,1.7c-0.1,0.5,0,1.1,0.4,1.3c1.1,0.4,3.2-0.5,3.8-1.3c0.2-0.2-0.1-0.8-0.3-1.1
		C72.1,101.1,72.1,100.7,71.7,100.7z M71.7,101.4l0.1,0c0.2,0,0.8,0.8,0.1,0.7c-0.2,0-0.5,0.1-0.7,0.3c0,0.4-0.6,0.5-0.8,0.4
		c-0.2-0.1-0.5,0.1-0.5,0.2c-0.4,0.3-0.9,0.3-1,0.1c-0.1-0.1,0.3-0.7,0.6-0.7c0.1,0,0.3-0.2,0.6-0.4c0.1-0.4,0.5-0.3,0.8-0.3
		C71.2,101.7,71.5,101.4,71.7,101.4z M127.8,101.5l0.8,2.1l-2.7-0.2L127.8,101.5z M115.1,101.9c0.9,0.3,1.4,1.1,0.9,2
		c-0.6,0.7-1.1,0.7-1.9,0.7c0.7,0.8,1,1.9,0.3,2.6c-1,1-2.9-0.5-2.8-0.7L115.1,101.9z M40.9,102.7c0,0,4.2,3.6,4.2,5.3
		c0,0.6-0.2,0.8-0.7,1c-1.7,0.5-6.3-0.9-6.3-0.9l0.6-1.1c0.7,0.2,4.3,1.1,4.6,0.7c0.3-0.5-3-3.7-3-3.7L40.9,102.7z M61.8,104.2
		l0.5,1.8l-1.7-0.4L61.8,104.2z M129,104.5l0.4,2.4l-2.8-0.6L129,104.5z M76.5,104.6l0.4,1.4c-18.3,8.5-23.6,28-14.1,44.1l-1.1,1.5
		C49,130.8,61.9,109.8,76.5,104.6z M34.9,106c0.3,0,0.4,0.1,0.4,0.4c0,0.3-1.8,2.7-2.4,3.2c-1.3,0.5-6.3-1.6-7-3.2
		c-0.1-0.5,0.3-0.3,1.5,0c2.7,0.8,5.4-0.1,7.3-0.3C34.7,106,34.8,106,34.9,106z M83.5,106c0.8,0,1.4,0.6,1.4,1.4s-0.6,1.4-1.4,1.4
		c-0.8,0-1.4-0.6-1.4-1.4S82.8,106,83.5,106z M60,106.1l0.2,2.2l-2.1-0.1L60,106.1z M83.5,106.7l-0.4,0.6l-0.4,0.6h0.7h0.7l-0.4-0.6
		L83.5,106.7z M26,107.7c1.4,1.3,3.4,2.3,5.2,2.6c1.1,0.2,0.8,0.4-0.2,1.4c-1,1-0.9,1.2-1.9,0.6c-1.7-0.8-3.5-2.8-3.4-3.8
		C25.7,108.2,25.8,107.7,26,107.7z M129.8,108l0.3,2.3l-2.6-0.9L129.8,108z M57.4,108.8l0.8,2.1l-2.3-0.1L57.4,108.8z M114.6,109.3
		c1.1-0.1,1.5,0.8,1.5,1.5c0,0.3-0.1,0.8-0.1,0.8c1.4-0.9,3.2-0.2,3.1,1.2c-0.1,2-1,2-2.6,1.7c0.9,1.4-0.2,2.8-1.8,2.3
		c-1.5-0.5-1.2-2-0.5-3c-3.5,0.6-4.4,5.5-0.4,7c-0.8-1.3-1-2.8,0.7-3c1.6-0.2,2.3,1,1.6,2.5c1.5-0.5,3,0.3,2.5,1.8
		c-0.6,1.8-2.2,1.7-3.1,0.6c0.7,1.6-0.9,2.8-2.1,2.2c-1.9-1-0.9-2.8,0.3-3.3c-4.8-0.5-5.9,6.2-2.4,7.1c-0.9-0.6-1-3.2,1.1-2.8
		c2,0.4,1.6,2.3,0.2,3.2c1.6-0.3,3.1,1,2.1,2.4c-1.1,1.6-2.7,0.5-3.3-0.6c0.2,1.5-0.8,2.5-2,1.9c-2.1-1-0.6-3.4,1.1-3.2
		c-3.3-2-7.9,2.2-5.2,5.6c-0.1-1.6,0.7-2.8,1.7-2.7c0.9,0.1,1.8,1.2,1.5,2c-0.2,0.7-1.1,1.3-1.9,1.4c2.6,0.3,2.8,2.1,1.7,3
		c-1.8,1.5-2.6-0.2-3.1-1.3c-0.4,2.5-3.4,1.7-3.5-0.2c-0.1-2,2.2-2,2.6-1.9c0.1-0.1-2.1-2-4.1-2.2v-0.7c7.8-4.9,10.8-13.8,8.3-21.9
		l0.5-0.5c1.3,1,2.5,3.1,4.9,2.3c0,0-0.5-0.4-0.8-0.6C112.2,110.8,112.9,109.4,114.6,109.3z M63.3,110.8l0.8,1.2
		c-11.8,13.8-9.6,29.7-2.9,40.2l-1,1.2C54.3,145.6,49.4,126.9,63.3,110.8z M25.9,110.9c1,0.6,1.6,1.4,2.5,2.2
		c0.7,0.6,0.7,0.7,0.1,1.2c-1.3,1.3-2-0.6-2.5-1.3C25.6,112,25.5,111,25.9,110.9z M71.8,111c0.8,0,1.6,0.7,1.6,1.7
		c0,0.3,0,0.6,0,0.6s0.3-0.3,0.5-0.7c1-1.7,3.2-0.7,2.8,1.2c-0.2,0.9-1.7,1.3-2.1,1c0.4,1.1,1.5,1.3,2.8,1.8
		c0.5,0.1,1.4,0.3,1.4,0.3v0.7c-7.1,4.5-11.2,12-8.6,22.4l-0.8,1.1c-1.4-3.4-2.7-3.4-5.1-3.5c0,0,0.6,0.4,0.9,0.8
		c0.7,0.8,0.4,2.3-0.6,2.5c-2.3,0.4-2.3-1.3-2-2.4c0,0-0.4,0.3-0.6,0.5c-0.9,0.6-2,0-2.1-1.2c-0.1-1.1,0.3-1.8,1.4-1.9
		c0.4,0,1,0,1,0s-0.2-0.4-0.3-0.7c-0.5-1.1,0.6-2,1.7-1.7c1.7,0.4,1.6,1.9,0.6,3.1c2.7,0.2,4.1-1.5,3.9-3.3
		c-0.2-2.1-1.2-3.3-3.3-3.6c0,0,0.3,0.5,0.5,0.8c0.5,1-0.2,2.1-1.4,2.1c-1.2,0-1.9-1.1-1.5-2.1c0.1-0.3,0.5-0.6,0.5-0.6
		c0,0-0.6,0.2-0.8,0.2c-1.4,0.2-2.3-1-1.7-2.2c0.4-0.9,1.7-1.1,2.6-0.7c0.1,0.1,0.3,0.3,0.3,0.2c0,0-0.1-0.3-0.1-0.5
		c-0.3-1.1,0.3-1.7,1.5-1.6c1.7,0.1,2.3,1.5,1.2,2.7c-0.3,0.3-0.7,0.8-0.7,0.8c0.1,0.2,2.4,0.4,3.6-0.8c1.4-1.5,1.6-4.5,0.2-5.5
		c-0.2-0.2-0.7-0.5-0.7-0.5c0.7,1.3-0.6,2.9-1.6,2.6c-2.2-0.5-2-2.3-0.6-2.9c0,0-1.4-0.5-1.9-1.1c-0.6-0.8-0.4-1.6,0.3-2.2
		c0.9-0.7,2.2-0.2,2.8,0.6c0.4-1.1,0.9-1.9,2.4-1.3c1.1,0.5,1.1,2-0.1,2.7c-0.4,0.3-1.1,0.5-1.1,0.5s1,0.6,2.3,0.6
		c2.4,0,4.3-2.8,3.3-5c-0.2-0.4-0.7-1-0.7-1s-0.1,0.8-0.2,1c-0.6,1.1-1.8,1.1-2.6,0.4c-0.7-0.6-0.5-1.4,0-2c0.4-0.4,0.8-0.5,1.3-0.8
		c-0.6-0.2-1.3-0.4-1.7-1c-0.3-0.6-0.1-1.4,0.7-1.9C71.2,111.1,71.5,111,71.8,111L71.8,111z M130.4,111.3l0.2,2.4l-2.7-1
		L130.4,111.3z M55.5,111.4l1,2.2l-2.5,0L55.5,111.4z M108.2,111.4c2.4,8.8-1.4,15.6-7.7,20.5v-1.4c4.9-4.2,8.3-9.2,6.7-18
		L108.2,111.4z M35.6,111.5c0,0,3.7,4.8,2.9,6.4c-1,1.5-6.7-1.8-6.7-1.9l0.7-0.7c0.9,0.4,3.8,1.9,4.4,1.7c0.2-1.4-1.5-3.3-2.1-4.5
		L35.6,111.5z M79.2,111.9H107l-0.8,1.3H104l-4.3,7.9h-20L79.2,111.9z M48,112.2l-1,1.7c-0.9,0.3-3.6,0.3-3.8,0.5
		c0.3,0.9,0.7,3.5,0.7,3.5l-1.1,1.4c-0.3-1.7-0.8-3.8-1.2-5.4c-0.4-1.3-0.3-1,2.6-1.3C45.4,112.7,46.7,112.5,48,112.2z M53.7,114.3
		l1.1,2l-2.3,0L53.7,114.3z M25.8,114.5c0.1-0.1,0.8,0.8,1,1c-0.1,0.5-0.9,0.8-1,0.6C25.7,116,25.7,114.8,25.8,114.5L25.8,114.5z
		 M130.7,114.5l0,2.5l-2.8-1.2L130.7,114.5z M152.6,115.1l0,1.6c-10,4.9-25,18.1-29.2,41.7l-0.8-1.2
		C126.8,134.8,141.4,121.6,152.6,115.1L152.6,115.1z M52.1,117.3l1.2,1.9l-2.2,0.2L52.1,117.3z M130.8,118.1l-0.2,2.3l-2.7-1.5
		L130.8,118.1z M78.7,118.5c0,0.5,0,0.9,0,1.5c-6.2,4-8.2,10.3-7.2,18.2l-0.9,1.3C68.6,132.3,70.7,123.4,78.7,118.5z M28.2,118.8
		c0,0,2.3,5.3,1.4,6.5c-0.9,0.7-3-0.5-3.9-1l0-1.3c0,0,0.7,0.4,1.4,0.7c1.5,0.7,1.5-0.1,0.7-2.3c-0.3-0.8-0.6-1.7-0.6-1.7
		L28.2,118.8z M149.9,119c0.6,0.4,2.7,1,2.7,1l0,1.5l-4.2-1.5L149.9,119z M50.6,120.6l1.6,1.7l-2.2,0.5L50.6,120.6z M147.9,120.8
		c0.2,0,0.3,0,0.5,0c1.4,0,4.2,1.2,4.2,1.2l0,1.7c-1.4-0.4-3-1.2-4.5-1.4c-1.2-0.2-1.1,0.5-1.1,2.1c0,2.2,0.6,4.2,1.6,6.5
		c0.9,1.8,0.4,2.3-1,1.5c-2.6-1.8-8.1-3.1-8.9-2.1c-0.9,1.1,0.8,6.4,2.8,8.9c0.8,1,0.7,1.1,0.3,1.5c-0.3,0.3-0.7,0.4-1.5,0.2
		c-2.9-0.9-7-1.1-8.2-0.3c-1.2,0.8,1.9,6.1,4.5,7.8c1.7,1.2,1.4,1.8-1.4,1.9c-4.4,0-7.8,1-7.7,2.2c0.3,2.1,3.2,4.9,6.5,6.4
		c2,0.8,1.2,1.2-0.2,1.6c-2.2,0.8-4.4,2-6.5,3.1l-1-1.3c0,0,2.1-1.4,4.4-2.7c0.5-0.3,0.5-0.4-0.2-1.1c-2.5-2.1-4.3-4.4-4.6-5.9
		c-0.4-1.5,0.4-2.5,2.6-3.3c1.4-0.5,1.9-0.7,3.1-1c1.8-0.4,1.8-0.5,1-1.8c-0.3-0.6-0.9-1.6-1.2-2.2c-2.6-4.5-1.2-6.1,4.8-6.2
		c1.5-0.1,1.8-0.1,1.7-0.6c-0.3-2.1-1.3-4.5-1.1-6.3c0.3-2.7,3-3.3,7.9-2.1c1.1,0.3,1.2,0.2,1-0.7
		C144.9,124.5,145.7,121,147.9,120.8z M130.5,121.1l-0.4,2.6l-2.6-1.7L130.5,121.1z M33.6,121.7l7.1,0.5l-1.1,1.3l-4.3-0.1l-0.2,3.7
		l-1.4,1.4L33.6,121.7z M79.9,122h5.8v6.2h-5.8V122z M87,122h5.5v6.2H87V122z M93.5,122h5.8v6.2h-5.8V122z M144.8,122.5
		c-0.1,1.6,0.2,4.5,0.3,5.7c-0.1,0.4-0.4,0.3-1.9,0c-1.1-0.4-4-0.5-4-0.5l1.2-1.3c1,0.1,1.8,0.1,2.9,0.2c0-1,0-3.1,0-3.1
		L144.8,122.5z M49.7,123.8l1.6,1.7l-2.1,0.5L49.7,123.8z M130,124.3l-0.7,2.7l-2.4-2.1L130,124.3z M149.2,124.4
		c1.2,0,2.2,0.4,3.3,1.3l0,1.4l-2.3-1.1c0,1.6,1.3,4.4,1.3,4.4l-1.2,1c-1-1.6-1.6-3.5-1.6-5.3C148.7,125.5,148.6,124.4,149.2,124.4z
		 M48.9,127.1l2,1.2l-2.2,0.9L48.9,127.1z M129.2,127.7l-1,2.7l-2.1-2.4L129.2,127.7z M25.7,128.5l5.5,2l-1.2,0.8l-4.4-1.4
		L25.7,128.5z M79.7,129.3h19.9l0.4,9.7l-27.8-0.2l1-1.4l1.8,0L79.7,129.3z M48.5,130l2.1,1.5l-2.2,1L48.5,130z M152.6,130.9l0,1.6
		c-6.7,5-14.1,13.5-15.3,28.6l-1.7,1.5C136.5,147.8,142.6,137.7,152.6,130.9L152.6,130.9z M128.1,130.9l-1,2.5l-1.9-2.3L128.1,130.9
		z M136.1,131.4c0,1.5,1.1,6,1.1,6c-1.8,0.1-3.6-0.1-5.6,0.4l0.9-1.7c0,0,0.9-0.1,1.6-0.2c1.6-0.3,1.4-0.1,1-1.5
		c-0.3-1.3-0.4-1.5-0.4-1.5S136,131.4,136.1,131.4z M141.3,131.7c1.8,0,4.6,1.7,5.8,2.6l-0.6,0.7c-0.2,0.1-2.7-1.3-4.8-1.6
		c0.7,1.3,1,2.3,2.4,4.4l-0.9,1.2c-0.3-0.1-3.9-5.7-3-6.9C140.5,131.8,140.8,131.7,141.3,131.7z M33.4,133L33.4,133
		c2.4,14.6,8.2,24.6,17.2,33.6l-0.9,1.2c-10.7-9.8-16.5-22.2-18-33.9L33.4,133z M48.4,133.6l2,1.1l-2,1.2L48.4,133.6z M152.6,133.6
		l0,2.1l-1.2-1.2C151.7,134.2,152.1,133.9,152.6,133.6z M126.8,134.1l-1.3,2.5l-1.7-2.3L126.8,134.1z M150.7,135.1
		c1.8,0.2,2.3,3.8,1.8,4.5c-0.3-0.4-2.7-2-3.8-2.6C148.6,136.8,150.4,135.2,150.7,135.1z M122.1,136.9l2.8,0.3l-1.5,2.4L122.1,136.9
		z M48.4,136.9l2.2,1.1l-2,1.4L48.4,136.9z M148.5,138c0.4,0,0.8,0.2,1.3,0.4c2,1.1,3.1,2.3,2.9,3.4c-0.1,0.5-0.3,0.6-0.7,0.2
		c-0.6-0.7-2.6-1.5-4.3-1.8c-1.3-0.3-1.4-0.4-1-1C147.4,138.4,147.8,138,148.5,138z M114.2,139c3.1,11.7,8.6,20.8,15.4,28.2
		l-1.5,1.1c-5.2-5.9-10.8-12.9-15.5-27.9L114.2,139z M77.9,139.6h2.3h0c0.3,0-1,5.2-5.5,5.5c-2.9,0.5-3.2,1-3.2,5.4
		c-0.1,6-1,7.5-6,7.8c-3.3,0.2-3.7,0.9-3.1,5.6c0.5,4.5-1.2,6.8-5.3,6.8c-3.6,0.3-5.1,2-5.1,5.3c0,1.4,0,1.7,0,1.7l-2.3,0.2
		c0,0,0-2.2,0.2-3.3c0.7-4.3,2.6-6.1,6.5-6c3-0.2,3.5-0.7,3.4-5.3c-0.1-4.7-0.2-4.6,1-5.8c0.8-0.8,1.7-1.1,3.3-1.3
		c4.9-0.5,5.3-0.8,5.3-5.9c-0.5-4.2,0.7-6.8,3.4-7C77.9,142.9,77.9,139.6,77.9,139.6L77.9,139.6z M85.5,139.6H88l-28.9,40.9
		l-1.5-1.1L85.5,139.6z M89,139.6c2.7,9.9,4.8,19.7,13.4,32.6L66.2,172L89,139.6z M90,139.6h1.3c3.2,17.1,13.2,33.3,18.7,39.2
		l-1.1,0.6C100.9,169.4,93.6,157.8,90,139.6z M97,139.6H99c0.2-0.1,1.1,5.2-0.2,7.6c-1.1,3.2-0.6,5,1.9,6.1c4.3,2,5.3,4,4.8,8.9
		c-0.4,3.4,0.7,5.1,3.9,6.2c3.8,1.3,5.5,3.4,5.5,6.7c0,0.5-0.2,1.1-0.2,1.1l-2.1,1.3c0,0,0-0.5,0.1-1c0.6-3.7-0.2-4.8-4.6-6.5
		c-4.2-1.7-5.2-3.6-4.5-8.4c0.2-1.6-0.1-3.2-0.7-4.3c-1.1-1.9-3.5-1.9-5.2-3.7c-1.4-1.5-1.6-3.6-0.4-7.3
		C98.1,143.4,98.1,142.1,97,139.6z M120.3,139.6l2.8,0.4l-1.7,2.1L120.3,139.6z M48.8,140.4l2.5,0.7l-1.8,1.9L48.8,140.4z
		 M146.3,140.9c0.8,0,2.5,0.3,3.8,0.9c3.1,1.5,3.6,2.8,0.9,2.1c-1.5-0.4-3.7-0.3-5.8,0.2c-2.2,0.5-2.2,0.6-1.4-0.8
		C144.8,141.7,145,140.9,146.3,140.9z M135.2,141.5c1.9,0,3.7,0.5,5.5,1.2l-0.6,1c-1.2-0.2-2.5-0.8-4.3-0.7c0.8,1.5,1.7,2.2,2.9,3.5
		l-0.5,1c-0.1,0.1-3.5-2.7-4.2-4.6C133.7,141.9,134,141.6,135.2,141.5z M95,141.8c0.9,0,1.7,0.7,1.7,1.7s-0.7,1.7-1.7,1.7
		c-0.9,0-1.7-0.7-1.7-1.7S94.1,141.8,95,141.8z M129.3,141.8c0,0,2.7,5.4,2.5,5.6c-1.7,0.7-3.5,1.1-5.3,1.8l0.4-1.6
		c0,0,0.6,0,2.7-0.8c1-0.4-1.1-3.1-1.1-3.1L129.3,141.8z M118.4,142.2l2.8,0.5l-1.9,2.1L118.4,142.2z M66,142.2
		c0.7-0.1,1.7,1.2,1.7,1.2l-3.4,4.7c-1.6-0.3-1.3-2.8,0.2-2.9c0.3,0,1,0.1,1,0.1s-0.5-0.2-0.7-0.6C63.7,143.6,64.7,142.3,66,142.2
		L66,142.2z M94.2,142.9l0.4,0.6l0.4,0.6l0.4-0.6l0.4-0.6h-0.7H94.2z M110.6,143.4c3.9,0,4,4.9,3.2,6.5c-0.5,1.1-1.4,1.7-3.9,2.9
		c-2.2,1-2.4,0.9-2.4,0.9l-0.5-1.2c0,0,1.3-0.6,2.6-1.1c2.8-1.1,3.5-2,3.2-4.1c-0.4-2.9-2.7-3.4-7-1.4c-0.5,0.2-1.1,0.5-1.1,0.5
		l-0.3-0.6c0.1-0.1,3.5-1.8,5.4-2.3C110.1,143.4,110.4,143.4,110.6,143.4L110.6,143.4z M49.6,143.9l2.2,0.7l-1.6,1.6L49.6,143.9z
		 M149,144.5c2,0,3.6,0.3,3.6,1c0,0.3-0.1,0.4-1.8,0.6c-2.7,0.4-7.2,2.7-9.7,4.8c-1.5,1.3-1.1,1-0.5-0.9c0.6-1.8,1.6-4,2.1-4.3
		C143.9,145,146.8,144.5,149,144.5z M116.8,144.8l1.9,0.4l-1.2,1.2L116.8,144.8z M110.4,145.8c1.5,0.1,2,1.6,1.3,2.6
		c-1.1,1.6-5.2,2.8-5.2,2.8l-1.4-3.7C105.2,147.5,108.3,145.7,110.4,145.8z M104,146.3c4.4,12.4,9.8,20.5,15.4,27.2l-1.4,0.9
		c-6-7.2-11.6-15.5-15.6-27.9L104,146.3z M152.5,146.6c0.2,0,0.3,0.1,0.3,0.3c-0.1,0.5-7.9,8-12.4,11.8c-2.1,1.7-2,1.7-2.2,1.5
		c-0.1-1.3,0.8-5.9,1.3-6.7c3-3.2,7.7-5.8,12.2-6.8C152,146.7,152.3,146.6,152.5,146.6z M110.1,146.7c-0.5,0-1.3,0.3-2.4,0.7
		c-1.5,0.6-1.7,1.3-1,2.2c0.3,0.4,0.6,0.3,2.1-0.3c1.5-0.6,2.2-0.9,2.3-1.4C111.2,147.2,110.8,146.7,110.1,146.7z M110.2,147.1
		c0.5,0,0.5,0.3,0.6,0.6c0.1,0.2-0.4,0.5-0.7,0.5c-0.1,0-0.4,0.1-0.6,0.3c-0.2,0.3-0.3,0.6-0.7,0.5c-0.2,0-0.6-0.1-0.7,0.1
		c-0.7,0.6-1.4,0.1-1.1-0.5c0.1-0.2,0.4-0.2,0.6-0.2c0.2,0,0.6,0,0.7-0.3c0.1-0.3,0.5-0.4,0.8-0.4c0.3,0,0.6-0.1,0.7-0.3
		C109.9,147.3,110.1,147.1,110.2,147.1z M74.5,147.2c0.9,0,1.7,0.7,1.7,1.7s-0.7,1.7-1.7,1.7s-1.7-0.7-1.7-1.7
		C72.9,148,73.6,147.2,74.5,147.2z M50.5,147.3l2.5,0.3l-1.6,2L50.5,147.3z M100.7,148.5c0.9,0,1.7,0.7,1.7,1.7s-0.7,1.7-1.7,1.7
		s-1.7-0.7-1.7-1.7S99.8,148.5,100.7,148.5z M100,149.7l0.4,0.6l0.4,0.6l0.4-0.6l0.4-0.6h-0.7H100z M51.7,150.4l2.7,0.2l-1.6,2.1
		L51.7,150.4z M66.1,150.8c0.9,0,1.7,0.7,1.7,1.7c0,0.9-0.7,1.7-1.7,1.7s-1.7-0.7-1.7-1.7S65.1,150.8,66.1,150.8z M134.2,151.9
		c1.1,0,2.5,0.1,2.5,0.1l-0.3,1.3c-1.4,0.1-3.2-0.3-4.7,0.4c0.6,0.9,3.8,2.2,4.1,2.5c0,0.1-0.3,1.4-0.3,1.4c0.1,0.3-5.5-2.3-5.7-4.4
		C129.9,152.3,132.3,151.9,134.2,151.9z M115.1,153.2c3.2,0,4.7,4.5,3.5,6.4c-1.5,2.1-3.2,3-5.6,4.2l-0.8-1.3c3.9-1.7,6.7-4.1,5-6.6
		c-2-2.8-4.9-0.3-8.1,0.9l-0.6-1C108.6,155.9,112.9,153.3,115.1,153.2z M125.3,153.4c1.5,2.9,4.1,5.1,4.8,5.7c0,0-2.6,1.7-4.1,2.7
		l-0.9-1.1l2.2-1.9l-2.5-3.5L125.3,153.4z M53.3,153.7l2.5,0l-1.1,2.2L53.3,153.7z M149.5,154.1c-0.3,1.4-0.3,3-0.4,4.7
		c0.5,0.5,1,0.7,1.5,0.7c0.5-1.5,0.8-3.2,0.6-5C150.6,154.1,150,154.1,149.5,154.1z M150.4,154.5c0.2,0,0.3,0.3,0.4,0.7
		c0.1,1,0,2.2-0.3,3c-0.2,0.5-0.8,0.3-0.8-0.4c0-1,0.1-1.8,0.2-2.6C150,154.7,150.2,154.5,150.4,154.5z M114.9,155.8
		c1.6,0.1,2.3,1.5,1.7,2.5c-1.5,1.9-3,2.2-4.9,3.3l-1.9-3.6C109.7,158,113.4,155.9,114.9,155.8z M114.8,156.6
		c-1.1-0.1-1.8,0.7-2.7,1.1c-1.1,0.5-1.5,1.4-0.7,2.2c0.8,0.9,3.9-1.2,4.2-1.8C116.1,157.2,115.6,156.7,114.8,156.6z M55.4,156.8
		l2.4,0l-1.3,1.9L55.4,156.8z M114.7,157c0.1,0,0.2,0.1,0.4,0.2c0.3,0.2,0.3,0.8-0.3,1c-0.3,0.1-0.8,0.1-0.8,0.5
		c0,0.3-0.5,0.4-0.7,0.4c-0.3,0-0.7-0.1-0.8,0.3c-0.2,0.4-0.4,0.5-0.7,0.1c-0.3-0.3-0.2-0.8,0.5-0.8c0.3,0,0.5-0.2,0.6-0.5
		c0-0.3,0.2-0.4,0.5-0.4c0.4,0,0.7-0.2,1-0.6C114.5,157,114.6,157,114.7,157z M100.8,157.2c0.9,0,1.7,0.7,1.7,1.7s-0.7,1.7-1.7,1.7
		s-1.7-0.7-1.7-1.7S99.9,157.2,100.8,157.2z M100.2,158.4l0.4,0.6l0.4,0.6l0.4-0.6l0.4-0.6h-0.7H100.2z M65.4,160.3
		c0.9,0,1.7,0.7,1.7,1.7s-0.7,1.7-1.7,1.7s-1.7-0.7-1.7-1.7S64.5,160.3,65.4,160.3z M135,161.5l0,0.2l0,1.2c0,0.1-2.3,1.3-3.9,2
		c-0.5,0.3-0.2,0.9-0.1,1.4l-0.8,0.5c0,0-1.1-0.9-1.3-1.3C128.6,163.9,133.2,162,135,161.5L135,161.5z M25.7,161.7l19,13l-1.3,1.9
		l-17.6-12L25.7,161.7z M121.3,162.1c2.4,0.6,4.1,3.5,3.7,5.8c-1.4,2.6-3.1,3.5-5.4,4.9l-0.9-1.1c2.9-1.4,6.3-3.8,4.4-6.8
		c-2-2.8-5.2,0.2-8.3,1.6l-0.8-1.1C116.4,164.3,118.8,162.1,121.3,162.1z M107.8,163c0.9,0,1.7,0.7,1.7,1.7s-0.7,1.7-1.7,1.7
		c-0.9,0-1.7-0.7-1.7-1.7S106.9,163,107.8,163z M56.4,163.5c0.9,0,1.7,0.7,1.7,1.7s-0.7,1.7-1.7,1.7c-0.9,0-1.7-0.7-1.7-1.7
		S55.5,163.5,56.4,163.5z M107.1,164.2l0.4,0.6l0.4,0.6l0.4-0.6l0.4-0.6h-0.7H107.1z M120.8,165c0.5,0,1,0.1,1.4,0.4
		c2,2-2.4,4.6-4.1,5.5l-2.4-3.3C115.7,167.6,118.6,165,120.8,165L120.8,165z M120.8,165.7c-1.1-0.1-2.9,1.3-3.5,2
		c-0.4,0.5-0.2,1.1,0.5,1.7c0.6,0.4,4-2,3.9-2.6C121.7,166,121.3,165.7,120.8,165.7z M25.9,165.8l0.5,0.4l-0.5,0.4V165.8z
		 M120.8,166.1c0.2,0,0.3,0.1,0.4,0.3c0.2,0.3,0.1,0.8-0.4,0.9c-0.3,0-0.6,0.1-0.7,0.5c-0.1,0.2-0.4,0.5-0.8,0.4
		c-0.4-0.1-0.6,0.1-0.6,0.3c-0.2,0.3-0.7,0.4-1,0.1c-0.2-0.2,0.2-0.9,0.4-0.9c0,0,0.3,0.1,0.7-0.4c0.1-0.3,0.5-0.6,0.8-0.5
		c0.3,0.1,0.5-0.2,0.6-0.4C120.4,166.1,120.6,166.1,120.8,166.1z M27.1,166.6l0.8,0.5l-2,1.4v-1.2L27.1,166.6z M28.6,167.6l1,0.7
		l-3.8,2.7v-1.5L28.6,167.6z M30.6,168.8l1.1,0.7l-5.8,3.9v-1.5L30.6,168.8z M32.6,169.9v1.3l-6.8,4.7v-1.3L32.6,169.9z M33.4,170.8
		l1.5,1l0.4,42.6l-9.1,6.3l0-1.9l7.6-5.5L33.4,170.8z M143.3,171.9c-2,2.3-4.8,2.5-7.2,2.4c-6.4,0.1-10.4,0.4-11.3,8.1
		c2.6-2,5.4-2.2,8.6-2.1c4.1,0,5.9-0.3,7.6-1.1c2.7-1.3,4.3-3.7,4-5.4C144.7,173.5,143.9,172,143.3,171.9z M32.6,172.3v1.5l-6.8,4.5
		v-1.5L32.6,172.3z M109.8,172.4c0.9,0,1.7,0.7,1.7,1.7s-0.7,1.7-1.7,1.7c-0.9,0-1.7-0.7-1.7-1.7S108.9,172.4,109.8,172.4z
		 M143.5,172.7c0.4,0,0.4,0.5-0.3,1.2c-1.4,1.4-2.9,2.1-7.6,2c-5-0.1-6.9,0.7-8.2,2.9c-0.4,0.6-0.4,0.9,0.2,0.4
		c0.5-0.5,1.5-1.6,1.9-0.6c0.8-0.6,1.6-1.4,2-0.3c0.2-0.1,1.7-1.5,2-0.2c0.7-0.8,1.3-1,1.6,0.1c1-0.5,1.5-1.3,2-0.1
		c0.8-0.6,1.4-1.3,1.8-0.2c0.7-0.2,1.3-1.4,1.7-0.4c0.1,0,2.5-1.4,3.2-2.9c0.6-1.3,1.1-0.4,0.4,0.9c-1.6,3.2-4.4,4.3-10.9,4.3
		c-3.9,0-5.5,0.4-6.7,1.1c-2,1.1-0.9-1.7,0.5-3.5c1.7-2.2,3.7-2.9,9.1-2.7c3,0,4.9-0.4,5.7-1C142.7,173.1,143.2,172.7,143.5,172.7z
		 M65.7,172.7c11.9,0.4,37.3,0,37.3,0l1.4,1.6H64.5L65.7,172.7z M55.4,173.4c0.9,0,1.7,0.7,1.7,1.7s-0.7,1.7-1.7,1.7
		s-1.7-0.7-1.7-1.7S54.5,173.4,55.4,173.4z M109.1,173.7l0.4,0.6l0.4,0.6l0.4-0.6l0.4-0.6h-0.7H109.1z M32.6,174.6v1.5l-6.8,4.6
		v-1.5L32.6,174.6z M65.3,175.3h5.2v5.5h-5.2V175.3z M77.1,175.3h5.6v5.5h-5.6V175.3z M89.6,175.5h5.4v5.4h-5.4V175.5z M101.4,175.6
		l3.6,0.1c0,0,2,2.6,2.9,3.7l-2.7,1.4l-3.8,0V175.6z M67.8,176c-1,0-1.8,0.8-1.8,1.8c0,1,0.8,1.8,1.8,1.8c1,0,1.8-0.8,1.8-1.8
		C69.7,176.8,68.9,176,67.8,176z M79.9,176.1c-1,0-1.8,0.8-1.8,1.8c0,1,0.8,1.9,1.8,1.9s1.8-0.8,1.8-1.9
		C81.8,177,80.9,176.1,79.9,176.1z M92.2,176.2c-1,0-1.8,0.8-1.8,1.8c0,1,0.8,1.9,1.8,1.9s1.8-0.8,1.8-1.9
		C94.1,177,93.3,176.2,92.2,176.2z M73.8,176.4c0.8,0,1.5,0.7,1.5,1.5c0,0.8-0.7,1.5-1.5,1.5s-1.5-0.7-1.5-1.5
		C72.3,177.1,73,176.4,73.8,176.4z M62.8,176.6c0.4,0.3,0.6,0.7,0.6,1.2c0,0.8-0.6,1.4-1.4,1.4c-0.3,0-0.5-0.1-0.8-0.2L62.8,176.6z
		 M67.8,176.6c0.7,0,1.2,0.5,1.2,1.2c0,0.7-0.6,1.2-1.2,1.2c-0.7,0-1.2-0.5-1.2-1.2C66.6,177.1,67.2,176.6,67.8,176.6z M104.5,176.6
		c-1,0-1.8,0.8-1.8,1.8c0,1,0.8,1.9,1.8,1.9c1,0,1.8-0.8,1.8-1.9C106.4,177.5,105.5,176.6,104.5,176.6z M86.1,176.6
		c0.8,0,1.5,0.7,1.5,1.5c0,0.8-0.7,1.5-1.5,1.5c-0.8,0-1.5-0.7-1.5-1.5C84.6,177.3,85.2,176.6,86.1,176.6z M79.9,176.8
		c0.7,0,1.2,0.5,1.2,1.2c0,0.7-0.5,1.2-1.2,1.2c-0.7,0-1.2-0.5-1.2-1.2C78.7,177.3,79.2,176.8,79.9,176.8z M32.6,176.8v1.5l-6.8,4.7
		v-1.5L32.6,176.8z M92.2,176.8c0.7,0,1.2,0.5,1.2,1.2c0,0.7-0.5,1.2-1.2,1.2S91,178.7,91,178C91,177.4,91.6,176.8,92.2,176.8z
		 M98.3,176.9c0.8,0,1.5,0.7,1.5,1.5s-0.7,1.5-1.5,1.5s-1.5-0.7-1.5-1.5S97.5,176.9,98.3,176.9z M104.5,177.3c0.7,0,1.2,0.5,1.2,1.2
		c0,0.7-0.5,1.2-1.2,1.2c-0.7,0-1.2-0.6-1.2-1.2C103.3,177.8,103.8,177.3,104.5,177.3z M51.9,178.6c3.1,0,6.6,1.6,8.5,4.2
		c2.9,3.9,4.9,8.9,5.7,15.4c0.4,3.2,1.9,12.9,2.8,15.2l-1.2-0.2c-0.2,0.1-1.7-6.1-2.6-14.3c-0.4-3-1-6.9-2.7-10.5
		c-2-4.1-5.4-8.4-9.9-8.7c-2.6-0.2-5.1,1.5-5.4,3.8c-0.4,1.8,0.7,3.6,2.1,4.1c1.4,0.6,3.1,0.1,3.2-1.8c0-0.3,0-0.6-0.1-0.9
		c0.6-0.1,1.1,0.2,1.4,0.7c0.1,0,0,2.8-2.1,3.3c-2.6,0.8-5.6-1.7-5.8-4.3c-0.2-2.2,1.5-4.9,3.6-5.7
		C50.2,178.7,51.1,178.6,51.9,178.6z M32.6,179.4v1.5l-6.8,4.7v-1.5L32.6,179.4z M52.1,180.4c3.8-0.1,7.5,4.1,9,6.9
		c1.6,2.9,2.9,7.5,3.4,11.9c0.8,7.4,2.2,13.4,2.5,13.7l-1-0.2c-0.2,0.1-1.6-6.5-2.5-13.9c-0.5-4.2-2-8.3-3.9-11.5
		c-1.7-2.9-4-5.1-6.7-5.4c-1.7-0.2-3.4,0.3-3.8,2.1c-0.2,1,0.4,2.1,1.6,2.2c0.3,0,0.6,0,0.6,0.1c0.7,0.1-0.4,1.2-1.1,1.1
		c-2.4-0.3-3.5-3.6-1.6-5.3C49.8,180.8,50.9,180.4,52.1,180.4z M60.2,181.7h42.5c0,0,0,1-2.6,0.9c-2.2-0.1-3.7,0.2-5.2,0.6H61.5
		L60.2,181.7z M32.6,181.9v1.4l-6.8,4.7v-1.6L32.6,181.9z M52.4,182.5c0.8,0,1.6,0.2,2.3,0.6c5.3,3.1,7.3,10.6,8,15.4
		c0.9,7.1,2,13.6,2.3,13.8l-1.1-0.3c-0.2,0-1.4-6.1-2.2-13c-0.6-5.5-2.5-11.1-6.3-13.5c-2.4-1.6-2.9-1.8-4-0.8
		c-1,0.8-1.9-0.4-1.1-1.4C50.8,182.8,51.6,182.6,52.4,182.5z M32.6,184.5v1.2l-6.8,4.7V189L32.6,184.5z M62.6,184.6h0.9
		c0.1-0.1,3.7,5.8,4.8,15.4c0.6,5,2.3,13.6,2.6,13.7l-1.2-0.1c-1.3-5.1-2-9.9-2.6-14.2C66.2,194.5,65.6,190.3,62.6,184.6L62.6,184.6
		z M64.4,184.6h1.1c1.9,3.6,3.9,9.1,4.6,14.7c0.6,4.8,1.2,9.8,2.9,14.9l-1.2-0.3c-1.5-4.2-2-9.2-2.8-14.4
		C68.1,193.8,66.7,188.8,64.4,184.6z M66.4,184.6h1c2.7,5.8,3.8,9.2,4.6,14.8c1,7.1,2,13.5,3.1,15.2l-1.2-0.1
		c-1.7-5.1-2.5-10.2-3.1-15.4C70.1,193.7,68.5,189,66.4,184.6z M68.3,184.6h1h0c0.1-0.2,3.7,7,4.5,14.8c0.6,5.2,1.8,10.4,3.5,15.5
		l-1.1,0c-1.3-1.5-2.3-8.8-3.4-15.5C71.6,192.4,70,188.3,68.3,184.6L68.3,184.6z M70.3,184.6h0.9c1.9,5,3.2,7.3,4.1,13.5
		c0.7,4.8,1.7,10.8,3.9,17.1l-1.1,0c-1.6-4.4-2.9-10.2-3.5-15.9C73.7,191.7,70.3,184.6,70.3,184.6z M72,184.6h1.2
		c2.1,4.2,3.8,9.3,4.4,15.2c0.3,3.2,0.9,8.1,3.3,15.6l-1-0.1c-2-5-3.1-11-3.8-16.2C75.4,194,74.2,189.7,72,184.6z M73.9,184.6h1.5
		c2.5,5.9,3.8,12.1,4.2,14.2c0,0,0.3,1.8,0.4,2.4c-0.1,5.1,0.8,8.8,2.7,14.3l-0.9-0.1c-2.2-6.4-2.8-11-3.4-15.3
		C77.9,194.7,76.1,189.1,73.9,184.6z M76.2,184.6h1.1c1.5,3.8,2.7,7.7,3.7,11.3c-0.1,0.8-0.7,2.7-0.8,3.6
		C80.2,196.6,78.4,189.4,76.2,184.6z M77.9,184.6h1.5c1.1,3,2.2,5.8,2.9,8.6l-0.8,1.8C80.5,191.1,79.1,187.7,77.9,184.6z
		 M80.1,184.6h1.2l2.3,6.7l-0.8,1.3C82.1,190.4,81.3,187.7,80.1,184.6z M81.9,184.6h1.2c0.5,1.4,1.8,5,1.8,5l-0.8,1.1
		C84.1,190.7,82.4,186,81.9,184.6z M83.8,184.6h1.1c0.3,0.9,1.3,3.6,1.3,3.6l-0.7,0.8L83.8,184.6z M85.6,184.6h1.2l0.9,2.3l-0.9,0.8
		C86.8,187.7,85.9,185.5,85.6,184.6z M87.6,184.6h0.9l0.5,1.3l-0.8,0.6L87.6,184.6z M89.3,184.6h1.8c-0.5,0.3-1.1,0.7-1.5,1
		L89.3,184.6z M54.9,186.3c4.4,2.3,5.6,9.3,6.1,13.1c0.8,6.7,1.8,12.1,2,12.2l-1-0.2c0,0-0.7-3.4-1.2-6.7c-0.4-2.7-0.7-5-0.8-6
		c-0.1-0.6-0.2-1.4-0.2-1.7c-0.6-2.7-0.8-3.4-1.6-5c-1.1-2.2-1.8-3-3.5-4.6L54.9,186.3z M32.6,186.7v1.3l-6.8,4.8v-1.5L32.6,186.7z
		 M32.6,189v1.5l-6.8,4.5v-1.3L32.6,189z M32.6,191.6v1.4l-6.8,4.7v-1.4L32.6,191.6z M43.9,193h0.6l0,0.9h-0.9L43.9,193z
		 M32.6,194.2v1.5l-6.8,4.5v-1.4L32.6,194.2z M43.2,194.8h1.4l0,1h-1.8L43.2,194.8z M42.4,196.4h2.3v1h-2.9L42.4,196.4z M32.6,196.6
		v1.6l-6.8,4.5v-1.6L32.6,196.6z M41.2,198.3h3.4l0,0.9h-4.1L41.2,198.3z M32.6,199.2v1.5l-6.8,4.3v-1.4L32.6,199.2z M39.8,199.9
		h4.7l-0.1,0.8H39L39.8,199.9z M32.6,201.6v1.5l-6.8,4.4V206L32.6,201.6z M38,201.7h6.2l1.3,1h-9.7C36.6,202.4,37.4,202.1,38,201.7z
		 M36,203.8h10.7l1,0.8H36V203.8z M32.6,204.1v1.6l-6.8,4.4v-1.4L32.6,204.1z M36,205.5l12,0.1l-1,1H36V205.5L36,205.5z M32.6,206.7
		v1.4l-6.8,4.6V211L32.6,206.7z M35.8,207.4h10.2l-1.2,1.1h-7.1L35.8,207.4z M32.6,209.2v1.4l-6.8,4.9v-1.5L32.6,209.2z M38.8,209.4
		h6l0.2,0.8h-5.2L38.8,209.4z M40.5,211h4.7c0.1,0.3,0.1,0.7,0.2,1h-4L40.5,211z M32.6,211.7v1.3l-6.8,4.7v-1.4L32.6,211.7z
		 M41.9,212.8h3.5l0,1.1h-2.7L41.9,212.8z M43,214.6h2.4l-0.1,1.1h-1.9L43,214.6z M43.7,216.4h1.5l-0.1,0.8h-1.2L43.7,216.4z
		 M44.1,218.3h0.7l-0.1,0.6h-0.4L44.1,218.3z M59.1,229l-0.4,0.5h10.6l0.1-0.5H59.1z M72.7,229l-0.2,0.6h4.8l0.1-0.6H72.7z
		 M80.5,229.1l-0.1,0.6h12.2l-0.2-0.6H80.5z M95.1,229.1l0.2,0.7h4.1l-0.3-0.7H95.1z M109.3,229.1l-7.2,0l0.3,0.8h7.4L109.3,229.1z"
		/>
	<path class="st1" d="M48.2,65c0,0-3.7-6.1-8.8-13.3c-3.4-4.8-6.1-10-6.3-14.5c-0.3-5.1,2.4-10.3,7.4-10.5c4.9-0.2,6.9,4,7.7,7.4
		c0.8-3.5,2.8-7.7,7.7-7.4c4.9,0.2,7.6,5.4,7.4,10.5c-0.2,4.5-2.9,9.7-6.3,14.5C52,58.9,48.2,65,48.2,65z"/>
	<path class="st1" d="M131.1,185.3c0,0-3.7,6.1-8.8,13.3c-3.4,4.8-6.1,10-6.3,14.5c-0.3,5.1,2.4,10.3,7.4,10.5
		c4.9,0.2,6.9-4,7.7-7.4c0.8,3.5,2.8,7.7,7.7,7.4c4.9-0.2,7.6-5.4,7.4-10.5c-0.2-4.5-2.9-9.7-6.3-14.5
		C134.8,191.5,131.1,185.3,131.1,185.3z"/>
</g>
</svg>
