<?xml version="1.0" encoding="utf-8"?>
<!-- Generator: Adobe Illustrator 21.0.0, SVG Export Plug-In . SVG Version: 6.00 Build 0)  -->
<svg version="1.1" id="Layer_1" xmlns="http://www.w3.org/2000/svg" xmlns:xlink="http://www.w3.org/1999/xlink" x="0px" y="0px"
	 viewBox="0 0 178.6 249.4" style="enable-background:new 0 0 178.6 249.4;" xml:space="preserve">
<style type="text/css">
	.st0{fill:#FFFFFF;}
	.st1{fill:#131F67;}
	.st2{fill:#D40000;}
	.st3{fill:#E2CF00;}
</style>
<g>
	<path class="st0" d="M8.9,0.6h161.5c4.7,0,8.5,3.8,8.5,8.5v232.4c0,4.7-3.8,8.5-8.5,8.5H8.9c-4.7,0-8.5-3.8-8.5-8.5V9.2
		C0.4,4.5,4.2,0.6,8.9,0.6z"/>
	<path d="M14.1,40.6C10.7,45,7,47.5,6.9,50.9c0,1.1,0.7,3,2.8,3.4c1.4,0.2,3.2-0.8,3.3-2.8c0-0.4,0.5-0.4,0.5,0.2
		c-0.1,1.6-0.6,3.4-1.6,4.9c1.5,0,3,0,4.5,0c-0.9-1.5-1.5-3.3-1.6-4.9c0-0.5,0.5-0.6,0.5-0.2c0,2,1.9,3,3.3,2.8
		c2.1-0.4,2.8-2.2,2.8-3.4C21.3,47.5,17.6,45,14.1,40.6z"/>
	<path d="M165.2,210.1c-3.4-4.4-7.1-6.9-7.2-10.3c0-1.1,0.7-3,2.8-3.4c1.4-0.2,3.2,0.8,3.3,2.8c0,0.4,0.5,0.4,0.5-0.2
		c-0.1-1.6-0.6-3.4-1.6-4.9c1.5,0,3,0,4.5,0c-0.9,1.5-1.5,3.3-1.6,4.9c0,0.5,0.5,0.6,0.5,0.2c0-2,1.9-3,3.3-2.8
		c2.1,0.4,2.8,2.2,2.8,3.4C172.3,203.2,168.6,205.7,165.2,210.1z"/>
	<path d="M14.1,11.7v2.8h2.7c0,0,0.1,2.7,0.1,8.3c0,5.5,0.1,8.2-0.2,9.8c-0.9,3.6-6.2,3.6-7.2,1c-0.6-1.5-0.4-2.7-0.5-4.2H6.1
		c0,0,0,0.8,0,1.7c0,4,1.4,6,4.5,6.8c3.2,0.9,7-0.5,8.3-3.2c0.8-1.6,0.7-1.7,0.7-11.2c0-6.3,0.1-9,0.1-9h2.5v-2.8H14.1z"/>
	<path d="M165.3,239v-2.8h-2.7c0,0-0.1-2.7-0.1-8.3c0-5.5-0.1-8.2,0.2-9.8c0.9-3.6,6.2-3.6,7.2-1c0.6,1.5,0.4,2.7,0.5,4.2h2.9
		c0,0,0-0.8,0-1.7c0-4-1.4-6-4.5-6.8c-3.2-0.9-7,0.5-8.3,3.2c-0.8,1.6-0.7,1.7-0.7,11.2c0,6.3-0.1,9-0.1,9h-2.5v2.8H165.3z"/>
	<path class="st1" d="M24.1,19.8V231h131.2V19.8H24.1z M65.7,20.9l59.4,0.2L116,35.2c-12-3.8-31.5-1.3-41.5,0.6
		C71.8,31.4,67.9,25.9,65.7,20.9z M25.8,21.5h38.2l9,16.3c0.3,0.5,0,1.4-0.2,1.9c-1.1,3.1-2.1,4.9-4.3,8.6c-2.1,3.5-2.9,6.7-2.1,8.9
		c0.1,0.3,0.2,0.7,0.2,1c-0.1,1.1-1,2.3-2.3,3.2c-0.8,0.1-2.6,0.2-3.6,1.2c-0.9,0.9-1.6,2.1-1.5,4.4c0.1,0.8,0.2,1.3,0.2,1.3
		C47.9,73,39.7,78.5,40,78.7c-0.1,0-10.1-4.6-14.2-5.7V21.5z M127.3,21.5h26.2v74.7l-9.9-6.5c0.8-0.6,1.3-0.9,2.2-1.5
		c0.2,0,0.4-0.1,0.6-0.1c1.8-0.4,3-1.7,2.4-3c-0.4-0.9,0.2-0.9,0.7-1.6c0.6-0.8,0.5-1.6,0.1-2.3c-0.2-0.4-0.1-0.5,0.2-1.1
		c0.8-1,0.2-2.7-0.8-3.2c-0.1-0.2,0.1-0.4,0.2-0.6c0.3-1.3-0.2-2.5-1.4-2.8c-0.6-0.2-0.8-0.3-0.6-0.8c0.4-0.9-0.1-1.3-0.9-1.6
		c-0.2-0.1-0.5-0.2-0.5-0.2l0.1-0.6c0,0,0.6-0.3,1.1-0.5c3.3-1.5,4.1-5.9,1.8-9.9c-0.9-1.5-1.8-2.8-2.8-4.3l4.4-6.1
		c0,0-3.1-3.6-4.2-5.6c0.3-1,3.3-4.1,3.7-7.1c0.6-4.7-3-7.7-6.4-7.4c-2.4,0.2-5.3,1.7-5,6.1c0.1,1.4,0.6,2.8,1.6,4.5
		c0.7,1.3,1.5,2.6,2.4,3.9l-4.4,6l4.5,5.6c-0.8,1.4-1.8,2.8-2.5,4.2c-1.7,3.3-2.2,6.8,1.2,9.3c0.6,0.4,1.3,0.9,1.3,0.9l-0.1,0.6
		c0,0-0.2,0.1-0.3,0.1c-6.1,0.4-10.4,5.8-11.8,10.5l-16.5-10.5c0.6-0.3,0.6-1.7,0.5-2.5c0-1.3,0-1.3,0.7-2.5
		c0.3-0.4,0.4-0.8,0.2-1.5c-0.2-0.7-0.3-0.5,0.2-1c0.2-0.2,0.4-0.3,0.4-0.6c0-0.3,0-0.9,0-1.9c0-2.1,0-1.9,1.2-2.9
		c1.5-1.2,2-1.7,2.3-2.2c0.3-0.7,0-1.3-0.8-2.8c-1-1.8-2.3-3.7-2.9-5.4c-0.6-0.9-0.5-2.4,0-3.4c0.6-1.1,0.8-1.8,0.8-4.1
		c0-2.1-0.2-1.9,0.4-2.7C120.8,31.6,127.3,21.5,127.3,21.5L127.3,21.5z M148,31.1c3.4,4.8-0.1,9.2-2.4,12.5c1.4,2.1,2.5,3.5,3.9,5.7
		c-1.1,2.4-2.9,4.2-4,6.1c5.4,7.2,5.6,13.8-1.7,14.2c-2.6-0.3-5-2.5-4.7-5.7c0.2-3.3,2-5.8,3.8-8.5c-1.6-2.7-3.2-3.7-4.3-5.8l4-5.9
		c-1.1-2.7-3.4-4.7-3.7-8.3C138.7,30.3,143.5,27.9,148,31.1z M93.5,34.7L93.5,34.7c0.9,0,1.8,0,2.7,0.1c0.3,2.5-8,17-6.3,17.9
		c6.5,1.6,4.3,9.3-0.7,9c-0.7,0-0.8,0.1-1.3,1.7c-0.9,2.4-1.5,4.2-2.5,6.4c0,0.6-3.2,0.4-6,0.4c-1.2,0.9-6.2,3.3-8.9-2.9l-0.1,5.3
		c0,0,37.4-0.6,44,0.2c0.1-1.7,3.7,1.3,3.7,1.3L100,102.8l0.9,0.8c2.6-3.2,18.5-28.7,18.5-28.7L153.8,97c-0.3,3.3,0,10.7,0,10.7
		c-9.4,5-6.5,7.5-0.1,1.5l0.1,4.3c-2.4,1.2-4.6,5.5-0.2,2.5l0.1,2.4c-2.3,3.3-6.9,0.9-5.7-2.5c-3.1,0.4-3.6-2.8-3.5-4.3
		c-4.1-0.9-2.7-5.3-2.7-5.3c-2.4-2-2.8-4.1-0.9-6.3c-2-1.2-2.5-2-4.7-2.9c1.6,14.6,9.6,22.2,17.9,28.9c-0.2,0-0.2,4.7-0.8,3.8
		c-11.9-8.9-19.5-19-20.8-35.3c-0.1,0.3-5.6-4.3-6.6-4c-1.9,26.5,19.3,43.9,28.1,47.4c0,0,0.1,3.7,0,3.7
		c-13.3-5.8-28.2-22.8-31-43.1l-7.9,12.2l-2.9-1.3l12.7-20l-8.6-5.4l-14,22.1c0,0-0.4,1.8,0.6,1.8c19.7,2.1,48.9,25.7,39.1,64
		c-0.9-0.3-2.2-1-2.3-1c1.5-3.3,5.8-24.7-7.1-42c-5.9-7.9-15.1-16.4-29.8-18.8c1.2,2.5,0.7,8.2,0.7,8.2l3.4,0.7
		c-1.2-1.2-2.1-2.2-2.6-3.5c-0.6-2.1,0.3-3.3,2.6-2.1c0.9,0.5,1.1,0.5,2-0.2c1.8-1.4,3.9,0,3.5,2.3c-0.1,0.3,0,0.5,0.9,0.6
		c2,0.2,4,1.2,5.3,2.7c0.6,0.8,0.8,0.7,1.3,0.2c1.4-1.2,3.7,0.5,3.3,2.3c-0.2,1.1-0.1,1.3,0.4,1.5c2.7,1.1,3.4,1.8,4.2,4.2
		c0.3,0.9,0.6,1.1,0.7,1.1c0.1,0,0.6-0.2,0.9-0.3c2-0.8,3.2,1.7,1.8,3.6c-0.3,0.4-0.1,0.8,0.4,1c1.7,0.9,2.8,3.1,3,5.4
		c0.1,0.9,0.2,0.9,1,0.8c2.2-0.1,3.3,2.9,1.5,4c-0.6,0.4-0.5,0.9,0,1.5c1.3,1.5,1.6,2.7,1.5,4.4c-0.2,2.3,0,2.3,0.7,2.6
		c2.2,0.8,1.8,4.3-0.4,4.3c1.5,3.6-0.5,7.9-0.4,8c4.1,2.3,0.4,4.7-0.8,4.3c0,0-0.6,1.6,0.1,2.4c-3.6,4.7-8.3,5.5-13.5,7.9l-0.2-16.7
		c2.2,1.7,4.3,3.4,6.5,5c0,0,0.5-0.2,0-0.6c-1-0.9-3.4-2.4-4-3c-1.4-1.1-6.8-6.2-7.7-7.4c-0.4-0.8-1.1-0.3-1-0.3
		c0.6,1.1,1.1,2.4,1.9,3.5c1.8,2.5,3.5,5.2,3.3,7.9c0,1.5-0.6,3.1-0.9,3.8c-0.2,1-1.9-0.2-1.5-1c0.7-2.4,1.3-4.3-1.3-8.2
		c-1.3-1.9-2.9-5.3-2.9-5.3l-1.1,0.3l0,21.7c-0.9,0-3.2,0.6-2.7,0.6c7.1-1.4,9.2,8.7,2.4,9c-1.2,0.1-2.4,2.4-2.8,3.5
		c0.6,4.8-0.6,7.1-3.1,11.5c-1.4,2.8-4.2,6.2-3.3,9.3c-8.3,2.1-14.6,2.6-23,2.8c-0.1-0.1,2.8-8.3,4.9-12.4c1.6-3.1,2.4-5.2,1.9-5.8
		c-6.7,0.3-5.4-9.4,1-9.1c0,0,1.6-5.6,3.4-8.1c1.7-0.9,5.1,0.3,7-0.9c4.5-1.4,7.5,3.9,7.5,3.9l1.2-5c-1.1-0.2-43.1-0.7-45.8,0.5
		c-1.3-0.6-3.2-2-3.2-2c0,0,15.4-24.5,17.6-28c0.2-0.3-0.4-0.9-0.4-0.9c-0.1-0.8-18.2,28.3-18.2,28.3c-10.2-6.5-23.1-14.8-34.5-22.1
		l0-10.9c8.3-5.2,7.5-7.3-0.1-1.7c-0.1,0.1-0.2-4.1-0.2-4.1c5.8-5.2,1-3.6-0.2-1.8c0-1.3-0.3-3.1,0.6-3.8c2.6-2.3,5.6-0.2,5.7,3.3
		c3.3,0.7,2.9,3.6,3.8,4.7c3.4,1.9,1.6,4.8,2.5,5.8c3.6,2.2,1.1,5.9,0.3,5.8c0.5,0.3,4.9,3.3,5.3,3.2c-0.4-15.6-16-28.1-18.1-29.7
		l0.4-3.4c0,0,21.5,13.7,21.3,35.7l6.9,4.1c-0.6-22.6-10.9-37.9-28.2-47.6l-0.2-4.2c14.5,6.7,28,20.4,31.1,42.7l8-12.4l2.8,1.4
		l-12.9,20.6l8.1,5.3c6.3-8.2,11.5-18.3,14.6-23c-0.1-0.4-0.3-1.1-0.3-1.1c-30.7-5.1-48-33.8-39.8-63.7l2.1,0.9
		c-6.4,22.2,4,54.2,37.5,60.7c-0.1-2.4-0.5-8.2-0.5-8.2s-4.4-1.3-3.7-0.8c1.1,0.9,3.5,4.9,2.5,6.3c-0.7,0.1-2-0.3-3.3-1.3
		c-0.5-0.4-0.5-0.3-1.1,0.3c-1.6,1.7-3.9,0.7-3.9-1.6c0-1,0-1.2-1.4-1.2c-2.1,0-3.1-0.4-4.3-2.1c-0.9-1.2-0.8-1.2-1.9-0.8
		c-2,1-3.6-1.1-3-2.7c0.3-0.8,0-1-0.9-1.2c-1.8-0.3-3.8-2.5-4.2-4.4c-0.1-0.4-0.3-0.5-1.3-0.4c-2.1,0.1-3.2-1.2-2.4-2.9
		c0.4-0.9,0.6-1.3-0.3-2c-1-0.8-1.6-1.3-2-2.3c-0.4-0.8-0.4-1.2-0.7-2.8c-0.1-0.6-0.3-0.6-1-0.7c-2.1-0.3-3-2.5-1.4-3.9
		c0.5-0.4,0.5-0.4-0.2-1.4c-1.4-1.8-1.9-4.2-1.3-5.7c0.2-0.4,0-0.9-0.5-1.1c-1.9-0.5-2-2.6-0.1-3.8c0.5-0.4,0.6-0.6,0.2-1.3
		c-0.7-1.2-0.7-4.5,0-6c0.4-1,0.4-1-0.2-1.5c-1.5-0.9-1.1-3.5,0.7-4c0.9-0.2,0.9-0.3,0.7-1.3c-0.4-1.8-0.5-2.3,0.6-3
		c3-1.9,10.6-5.6,10.6-5.6l2.5-1.2c0,0,0.3,16,0.1,17.8c3.6,2.9,5.6,8.9,8.6,5.2l0.1-21.9c0.2-0.5,0.3-0.6,0.9-0.6
		c0.5-0.1,1.7-0.2,2.1-0.3c0.6-0.9-1-0.4-1.8-0.2c-4,1.2-7-5-3.9-8.2c0.6-0.5,2.8-1.4,3.8-1.5c1.4-1.1,2.7-3.2,2.2-4.7
		c-0.7-2.1,0-5.2,2.1-8.6c2.3-3.2,4.1-6.9,5-10.7C81,36.5,87.1,34.8,93.5,34.7L93.5,34.7z M96.9,35.2c0,0,9.7,0.1,14.6,0.9
		c4.3,0.7,4.1,0.6,4,3.7c0,2.2,0,2.1-0.6,3.2c-1,1.9-0.9,3.9,0.8,6.5c1.6,2.6,2.8,4.5,2.8,4.9c0,0.6-0.1,1.3-1.5,2.2
		c-1.6,1.1-1.9,1.9-1.9,3.1c0,0.9-0.2,1.2-0.7,1.2c-0.2,0-1,0.4-1.9,0.8c-1.5,0.7-1.5,0.7-2.9,0.7c-0.7,0-1-0.3-1.2-0.2
		c-0.4,0.2-0.7,1.4-0.7,1.8c0,0.1,0.2,0.1,0.7-0.1c2.3-0.8,5.8-0.4,5.9-0.1c0.5,0.4,0.5,1.1-0.2,1.8c-0.5,0.7-0.7,1.1-0.5,2.2
		c0.3,1.5,0.1,2.1-0.7,2.6c-7.7,3.4-17.7-0.2-22.5-5.8c-1.1-1.3-1.5-2.2-1.5-2.2c1.1-0.1,2.1-0.1,3-0.5c3.7-1.7,3.7-8.6-1.3-9.3
		C88.4,52.4,94.7,42.8,96.9,35.2L96.9,35.2z M109.5,37.6L109.5,37.6c-2.6,0.1-5.4,1-7.7,2.3c-1.8,1-2.8,3.1-2.8,3.1s1.5-0.8,2.4-1.3
		c3-1.5,8-3,10-1.8c1.7,1,2.4,0.7,1.4-0.7C112,38.1,110.8,37.7,109.5,37.6L109.5,37.6z M108.2,41c-0.3,0-0.5,0-0.8,0.1
		c-1.7,0.4-3.7,1.8-5.2,3.1c-0.8,0.6-1.9,1.9-2.1,2.2c-0.4,0.7,0.5,1.5,1.7,0.9c0.7-0.4,0.7-0.3,1.4-0.2c1.5,0.5,3.3,1.2,5.9,0.9
		c0.2,0.1,0.2,0.1,0.1,0.4c-0.2,0.4-1.1,1.2-2.3,2.2c-0.6,0.5-1.5,1.2-1.5,1.2s0.9,0.1,1.8-0.4c1.3-0.8,2.9-2.4,3.8-3.7
		c0.1-0.1,0.2-0.2,0.3-0.4c0.1-0.3-0.5-0.2-0.8-0.3c-0.1,0-0.1-0.4-0.1-0.5c-0.1-0.4,0.1-1,0.1-1.6c0.1-0.5,0.5-0.8,0.9-1.1
		c1.4-1.5,1.3-2.1-0.6-1c-0.3,0.2-0.6,0.3-0.9,0.3c-2.8,0.1-4.4,0-6.7,1.9c-1,0.8-1.7,0.9-0.7,0c1.4-1.1,3.2-2.7,5.1-3.2
		c1.2-0.3,2.3,0.6,2.8,0.4C110.3,41.5,109.3,41,108.2,41L108.2,41z M107.5,45c0.1,0,0.2,0,0.3,0c0.3,0.2,0.6,1.3,0.6,1.7
		c0,0.4-0.8,0.2-0.9,0l-0.4-1.2C107,45.2,107.3,45,107.5,45z M106.1,45.2c0.1,0,0.2,0,0.3,0c0.3,0.3,0.4,1.1,0.6,1.7
		c-0.1,0.4-2.9-0.2-3.2-0.6C104.1,45.8,105.3,45.3,106.1,45.2z M111.2,53c-0.2,0-0.5,0.1-0.7,0.3c-1.2,1.3-0.8,3.4,0.6,4.1
		c0.7,0.3,1.8,0.1,3.4-0.4c0.8-0.2,1.3-0.3,1.5-0.3c0.6,0,1-1,0.5-1.4c-0.5-0.5-1.7-0.4-3,0.6c-0.7,0.5-1.1,0.8-1.7,0.7
		c-1.3,0-1.9-1.4-0.6-2.8C111.7,53.4,111.5,53.1,111.2,53z M103,57.8c-1.9-0.3-2.9,2.9-1,4.5c1.5,1.2,4.4,0.6,6.4-0.7
		c1.8-1.2,2.5-1.5,3.9-1.3c1.7,0.3,1.7-0.4,0.9-1.2c-0.8-1-2.9-0.7-4.7,0.5c-3.9,2.6-5.3,3-6.4,1.6c-1-1.2-0.2-2.7,0.8-2.7
		c0.7,0,1.1,0.5,1.7,0.7C104.3,58.1,103.8,57.9,103,57.8z M88.4,63.5c2,2.5,3.8,4.5,6.6,6l0,0.5l-9.1,0
		C86.7,68.8,88.5,63.5,88.4,63.5z M57.7,69.9c-0.2,3.7,0.5,5.9,2.7,8.5c2.3,2.8,2.2,7.1,0.7,9.7c-0.7,1.2-2-0.3-1.4-1
		c0.9-1.1,1-3.9,0.5-5.6c-1-2.9-3.1-4.2-4-7.3c-0.3-1.3-0.2-3.6-0.2-3.6L57.7,69.9z M60.5,70.2c0.2,0,0.4,0.1,0.8,0.5
		c1.3,1.1,1.1,4.3-0.4,6.3c-0.5,0.6-0.8,0.4-1.3-0.1c-0.6-0.6-0.4-0.6,0.1-1.6c0.5-1,0.7-2.2,0.6-3.6C60.3,70.7,60.3,70.2,60.5,70.2
		z M143.9,71.3c1.1,0,2.6,0.2,2.7,0.6c0.1,0.5-0.1,0.9-0.8,1.2c-1.7,0.7-3.9-0.3-3.3-1.5C142.6,71.4,143.2,71.3,143.9,71.3z
		 M141,71.6c0.3,0,0.5,0,0.8,0.2c0.5,0.3-0.3,2.2,2.4,2.2c0.6,0.1,1.1-0.1,1,0.2c-0.1,0.4-1.3,1.1-2.6,1.3c-3.8,0.6-3.6,0.4-3.4,3
		c0.1,1.7,0,2.3-0.2,3.4c-0.4,1.8-0.6,3.6-0.3,3c0.4-0.8,1.3-3.2,1.3-4.6c0-2.1,0.7-2.5,1-1c0.1,1-0.3,1.5,0.3,2.5
		c0.4,0.6,0.5,0.6,0.3,1.4c-0.2,0.8-0.1,1,0.2,1.4c0.3,0.4,0.5,0.5,0.3,1c-0.5,1.2,0.3,2.3,1.4,2.4c0.5,0,0.7,0.3,0.5,0.5
		c-0.3,0.3-0.8,0.5-1.3,0.6l-12-7.6c2.5-5.7,5.3-8.3,9.3-9.7C140.4,71.7,140.7,71.6,141,71.6L141,71.6z M147.4,74
		c0.3,0,0.6,0.2,0.9,0.5c0.7,0.9,0.1,2.1-1.7,3.1c-1.5,0.9-2,1-2.3-0.4c-0.1-0.2-0.3-0.6-0.4-0.7c-0.4-0.3-0.3-0.6,0.2-0.8
		c0.2-0.1,0.9-0.4,1.5-0.8C146.4,74.4,146.9,74.1,147.4,74z M142.3,76.8c0.4,0,0.8,0.1,1.1,0.3c0.5,0.3,0.5,1.1,0,1.4
		c-1,0.4-2.5-0.1-2.4-1C141,77,141.6,76.8,142.3,76.8z M148.4,77.7c0.3,0,0.6,0.1,0.8,0.5c0.5,0.7,0.1,1.5-1.2,2.3
		c-0.2,0.1-0.5,0.3-0.8,0.4c-1.3,0.6-2.8,0.9-2.7,0.5c0.1-0.3-0.4-1.7-0.6-1.9c1.3-0.4,2.1-0.6,3.2-1.2
		C147.7,77.9,148.1,77.7,148.4,77.7z M57.6,78.7c0.6,0,1.1,0.8,0.9,1.2c-0.9,2.1-1,3-0.6,5.2c0.3,1.8,0.8,2.8,2.6,5.5
		c1.4,2.1,1.9,2.9,1.6,3.5c-0.2,0.4-0.8,0.7-1.1,0.3c-0.7-0.9-1.1-2-1.8-3.1c-2.7-3.9-2.8-4.9-3.2-7.9c-0.2-1.4,0.7-4.4,1.3-4.8
		C57.5,78.8,57.5,78.7,57.6,78.7z M119.8,79c-0.4,0.1-1.7,2.4-1.6,2.6C118.9,82.3,120.9,78.9,119.8,79z M142.6,80c1.1,0,1.4,1,1,1.5
		c-0.7,0.7-1.9,0.2-1.9-0.8C141.7,80.2,141.9,80,142.6,80z M148.5,81.3c0.6-0.1,0.7,0.6,0.4,1.5c-0.4,0.8-0.9,0.9-2.3,1.4
		c-1.7,0.5-2,0.5-2.3-1.1c-0.1-0.6-0.1-0.5,1.6-0.9C146.7,81.9,147.6,81.4,148.5,81.3z M45.3,82l0.4,3.2l0.7-2.4L45.3,82z
		 M142.9,83.1c0.9,0,1.3,0.8,0.9,1.2c-0.2,0.3-0.9,0.3-1.2,0.1C141.9,84,142,83.1,142.9,83.1z M116.6,84.8l1.7,1l-13.6,21.4l-1.6,0
		l-0.2-0.3L116.6,84.8z M147.5,85c1,0,1.1,0.9-0.1,1.8c-0.5,0.3-1.1,0.4-1.5,0.4c-0.6,0-1-0.1-1.1-0.5c-0.3-1-0.4-1.3,0.5-1.2
		C146.1,85.4,146.7,85.2,147.5,85z M143.3,86c0.7,0,1.1,0.8,0.7,1.1c-0.6,0.5-1.3,0.2-1.3-0.5C142.7,86.1,142.8,86,143.3,86z
		 M45.4,87.5l-3.7,3.3c1.4,1.6,2.5,3.2,3.7,4.9L45.4,87.5z M120.3,87.7c1.6-0.1,2.1,0.7,1.4,1.2c-1,0.7-1.9,0.7-3.1,0.5
		c-1.6-0.3-0.3-1.5,1.4-1.7C120,87.7,120.2,87.7,120.3,87.7L120.3,87.7z M118.6,90c0.3,0,0.8,0.1,1.4,0.3c1.1,0.4,2.4,1.5,2.3,2.1
		c-0.1,1-2,0.5-3.5-0.9C117.9,90.5,117.8,90,118.6,90z M117.1,90c0.9,0.1,1.8,3.2,1.1,4.1c-0.7,0.9-1.9-1.1-1.7-2.6
		C116.6,90.9,116.8,90.1,117.1,90L117.1,90L117.1,90z M57.6,90.7c0.5,0.1,1.2,0.8,1,1.4c-0.1,0.2-0.3,0.2-0.6,0.1
		c-0.4-0.2-0.7-0.8-0.7-1.3C57.5,90.8,57.5,90.7,57.6,90.7z M126.7,91.2l2.7,1.8l-2.7,0.1V91.2z M115.2,92.8L115.2,92.8
		c0.2,0,0.4,0.2,0.4,0.4c0,0.2-0.2,0.4-0.4,0.4c-0.2,0-0.4-0.2-0.4-0.4C114.8,93,115,92.8,115.2,92.8L115.2,92.8z M115.6,94.9
		c2.1,0,2.5,0.7,1,1.5c-0.6,0.3-2.2,0.4-3,0.1C112.3,96.1,113.8,94.9,115.6,94.9z M132.2,96.3l0.1,1.9l-5.2,0.4l-0.3-1.9L132.2,96.3
		z M112.6,97.2c0.9,0.1,1.7,2.6,1.1,3.9c-0.3,0.7-0.8,0.5-1.4-0.6c-0.6-1.1-0.6-3,0.1-3.3L112.6,97.2z M114.4,97.2
		c0.4,0,0.9,0.1,1.7,0.5c1.4,0.7,2.2,1.9,1.5,2.3c-0.7,0.3-1.8-0.1-2.6-0.9C113.8,98,113.7,97.2,114.4,97.2z M45.6,97.9l-2.3,4.5
		l4.1,3.6L45.6,97.9z M110.7,99.8L110.7,99.8c0.2,0,0.4,0.2,0.4,0.4c0,0.2-0.2,0.4-0.4,0.4c-0.2,0-0.4-0.2-0.4-0.4
		C110.4,100,110.5,99.8,110.7,99.8z M132.8,101.4l0.4,1.8l-4.9,1.2l-0.5-1.9L132.8,101.4z M143.4,101.6c-1.9,1.3-0.1,2,1.3,1
		C144.5,102.3,143.8,101.7,143.4,101.6z M111.2,101.7c0.6,0,1.2,0.2,1.5,0.4c0.5,0.4,0.4,0.6-0.7,1c-1.9,0.8-4.2,0.3-2.9-0.8
		C109.6,101.9,110.4,101.7,111.2,101.7z M109.8,104.2c1.4,0,4,1.9,3.4,2.8c-0.3,0.5-2.1,0.1-2.8-0.6c-0.9-0.9-1.4-2.1-0.9-2.2
		C109.7,104.2,109.7,104.2,109.8,104.2L109.8,104.2z M108.1,104.3c0.7-0.1,1.8,3.1,1,3.9c-0.3,0.3-0.4,0.3-0.9-0.2
		c-1.1-0.9-0.9-2.7-0.2-3.6C108,104.3,108.1,104.3,108.1,104.3z M149,105.3c-6.6,2.5-4.9,4.9,0.7,0.7
		C149.5,105.6,149.3,105.5,149,105.3z M134.1,106.2l0.7,1.8l-5,2l-0.7-2L134.1,106.2z M48.9,109.6l-1.7,4.4c1.8,0,3.5,0.9,5.2,1.6
		L48.9,109.6z M135.8,110.9l1.1,1.8l-4.7,2.5l-0.9-1.9L135.8,110.9z M26.9,114.4l1.9,1.4l-2.8,3.5l-0.3-0.5l0-2.9L26.9,114.4z
		 M138.3,115.5l1.1,1.6l-4.5,3.1l-1.1-1.8L138.3,115.5z M31.7,117.6l2.1,1.6l-3.3,3.9l-2-1.5L31.7,117.6z M54.5,118.6l-0.1,4.7
		l4.9,0.2L54.5,118.6z M115.6,119c-1.4,0.3-3.3,1.2-4.7,1.7l5.5,3.2L115.6,119z M141.3,119.7l1.3,1.6l-4.2,3.5l-1.3-1.7L141.3,119.7
		z M35.9,121.1l1.9,1.8l-3.4,3.7l-1.8-1.7L35.9,121.1z M144.9,123.7l1.5,1.5l-3.8,3.9l-1.5-1.5L144.9,123.7z M40.3,125.6l1.5,1.7
		l-3.9,3.1l-1.4-1.7L40.3,125.6z M62.7,126l1.1,4.6c-0.1-0.3,4.8-1.4,5.5-1L62.7,126z M120,126.4l4.6,4.9l0.5-4.7L120,126.4z
		 M148.7,127.2l1.7,1.3l-3.1,4.4l-1.9-1.5L148.7,127.2z M43.7,130.2l1.4,2l-4.1,2.4l-1.2-1.8L43.7,130.2z M153.1,130.6l0.3,0.3
		l0,3.2l-1.3,1.9l-1.8-1L153.1,130.6z M126.9,134.2l4.1,7.4l1.2-5.6C130.6,136,128.2,135.1,126.9,134.2z M46.9,135.2l1,2.1l-4.3,2
		l-1-2.1L46.9,135.2z M49.2,140.3l0.8,2.2l-4.6,1.5l-0.7-2.1L49.2,140.3z M34.5,141.7c-0.8,0-2.8,0.8-5.7,2.5l1.4,1
		C34.4,143,35.5,141.7,34.5,141.7z M70.8,141.7c0.3,0,0.6,0.4,0.9,1.2c0.4,1.3,0.2,2.9-0.7,2.9c-0.6-0.1-0.8-1.6-0.8-2
		C70.1,142.5,70.4,141.8,70.8,141.7z M74.8,142.5l1.8,0.2l0,0.5l-14.1,22.3l-1.7-1.1L74.8,142.5z M67.2,143c0.6,0,1.4,0.4,2.1,1.2
		c0.4,0.5,0.9,1.1,1,1.8c0,0.2-0.4,0.1-0.8,0.1c-0.9-0.1-2.3-0.8-2.8-1.6C66.3,143.5,66.6,143,67.2,143z M132,143.8l1.9,9.1
		c0.6-2.3,1.8-3.6,2.7-5.4C134.2,146.4,133.2,145.1,132,143.8z M51.1,145.6l0.4,2.4l-4.7,1.1l-0.5-2.3L51.1,145.6z M69,146.5
		c1.7,0.2,2,0.6,0.8,1.4c-0.7,0.5-2.8,0.6-2.9,0C66.6,147.2,68,146.5,69,146.5z M36,147.1c-0.5,0-1.2,0.3-1.7,0.8l1.5,0.9
		C37.4,147.6,36.9,147,36,147.1z M66.3,148.7c0.5,0,0.9,1,1,1.8c0.1,0.8,0,1.5-0.1,2c-0.1,0.6-0.8,0.6-1.1,0.1
		C65.2,151.1,65.2,148.6,66.3,148.7z M68.8,149.8c0,0.2-0.2,0.4-0.4,0.4c-0.2,0-0.4-0.2-0.4-0.4c0-0.2,0.1-0.4,0.4-0.4
		C68.6,149.4,68.8,149.6,68.8,149.8z M62.4,150c0.2,0,0.6,0.1,0.9,0.2c1.2,0.5,2.9,2.3,2.2,2.6c-1,0.4-3.2-0.7-3.7-1.9
		C61.6,150.4,61.8,150,62.4,150z M52.2,151.5l0.1,2.3l-5,0.2l-0.1-2.3L52.2,151.5z M64.4,153.5c0.5,0,1,0.1,1.4,0.2
		c0.7,0.3,0.2,0.9-1,1.3c-0.8,0.3-2,0.4-2.4,0C61.5,154.3,63,153.5,64.4,153.5z M25.8,153.8c3.4,2.1,10.5,6.7,10.5,6.7
		c-0.3,0.1-0.7,0.3-1,0.6c-0.3,0.2-0.5,0.4-0.8,0.5c-0.4,0.2-0.7,0.2-1,0.2c-2.2,0.5-3.3,1.7-2.6,3.3c0.3,0.6,0.3,0.5-0.1,1
		c-1.3,1.2-1.2,1.6-0.7,3.2c0,0.2-1.6,2.1-0.2,3.6c0.8,0.7,0.8,0.2,0.5,1.8c-0.1,0.9,0.2,1.7,1.5,1.9c0.7,0.3,0.7,0.2,0.5,0.8
		c-0.1,0.4-0.1,0.6,0,0.8c0.2,0.5,0.5,0.7,1.1,1l0.1,0.6l-0.2,0.1c-4.3,2.3-5.5,6.2-1.4,11.9c0.5,0.7,1.7,2.6,1.7,2.6
		c-1.4,2.1-2.8,3.8-4.2,5.7l4.2,5.8c-0.9,1.2-2.5,3.4-3.2,5.3c-1.2,3.3-0.5,7.7,3.7,9c1.8,0.6,4.2,0.1,5.7-1.6
		c1.2-1.4,1.9-4.2,0.8-7.1c-1.4-3.3-3.1-4.9-3.6-5.8l4.5-5.6c0,0-3.1-4.4-4.3-6c8-9.7,2.2-12.8,0.5-13.9c-0.1-0.1-0.2-0.2-0.2-0.2
		l-0.2-0.8l0.2,0c7.4-0.9,9.9-5,12.1-10.2c4.5,2.9,16.2,10.3,16.2,10.3c-0.2,0.6-0.3,1.5-0.3,2.2c0.2,1.4,0.1,2-0.4,2.5
		c-0.5,0.5-0.4,0.7-0.3,1.2c0.1,0.9,0.3,1-0.1,1.5c-0.5,0.6-0.7,0.8-0.6,2.2c0.1,0.8,0.2,1.4-0.1,1.9c-0.3,0.6-1.1,1-2.1,1.7
		c-1.8,1.4-1.5,1.8,0.9,6.8c2.1,4.3,2.3,5.3,1.5,6.8c-0.7,1.3-0.9,2.2-0.8,4.1c0,0.5,0.1,1,0.1,1.2c0,0.6,0,0.5-0.3,0.9
		c-0.3,0.3-0.7,0.9-1,1.3c-2.9,4.3-10.5,15.5-10.5,15.5H25.8L25.8,153.8z M134.1,154.6c0,4-0.1,9.1-1.4,12.9l1.5,0.7
		c-0.5-3.9,0.1-7.1,3.7-8.8C136.2,158.3,135,156.5,134.1,154.6z M61.8,155.8c0.3,0,0.7,0.5,1.1,1.6c0.2,0.6,0.2,1.7-0.2,2.1
		c-0.8,0.8-1.8-1.1-1.5-2.7C61.4,156.2,61.6,155.8,61.8,155.8z M64.1,156.3L64.1,156.3L64.1,156.3c0.2,0,0.4,0.2,0.4,0.4
		c0,0.2-0.2,0.4-0.4,0.4c-0.2,0-0.4-0.2-0.4-0.4C63.7,156.5,63.9,156.4,64.1,156.3L64.1,156.3z M58,157.1c0.8,0.1,1.6,0.5,2.1,1
		c0.8,0.7,1.5,1.6,1.3,1.7c-1.2,0.5-4.3-1.1-3.9-2.4C57.6,157.2,57.8,157.1,58,157.1z M52.6,157.3l0,1.9l-3-1.9L52.6,157.3z
		 M120.8,158.2c0.5,0,1.2,0.7,1.1,1.1c-0.2,0.5-0.5,0.4-0.8-0.1C120.7,158.6,120.5,158.2,120.8,158.2z M60.3,160.6
		c0.7,0,1.4,0.1,1.4,0.5c0,0.4-0.6,0.8-1.2,1c-1.7,0.5-3,0.2-2.5-0.6C58.3,161,59.3,160.6,60.3,160.6z M118.6,161
		c0.7,0,1.3,1.3,0.8,1.8c-0.7,1.3-0.8,5.4,0.5,7.1c2,2.2,3.8,5,3.6,8.7l-1.9,0.8c0.1-3.1,0-5.1-2.4-7.8c-2.9-3.1-2.2-8.5-1.2-10.1
		C118.1,161.2,118.3,161,118.6,161z M39.3,162.3l9.1,6.1c0,0,0,0.2,0,0.3c-1.3,4.9-5.1,8.9-10.6,9.6c-0.6,0.1-0.3-0.3-0.7-1.1
		c-0.4-0.8-1.1-1.1-2-1.2c-2.3,0-0.3-1.3,2.5-1.7c0.9-0.1,2.1-0.3,2.6-0.8c0.1,0.1-0.5-3.9,0.1-5.2c0.3-1.2,0-1.8-0.3-1.1
		c-0.2,0.5-0.5,1.7-0.7,3c-0.1,1.1-0.4,1.2-0.6,0.7c-0.1-0.2-0.1-0.8,0.1-1.3c0.2-1-1.1-1.8-0.8-2.7c0.3-0.8,0-1.7-0.5-1.9
		c-0.2-0.5-0.2-0.9-0.2-1.2c0.1-0.8-0.5-1.6-1.4-2c-0.4-0.2-0.2-0.4,0.1-0.6C37,160.6,38.3,161.7,39.3,162.3z M33.8,162.5
		c0.2,0,0.4,0,0.7,0.1c0.5,0.3,0.8,1.8,0.3,1.9c-0.2,0-0.8,0.1-1.2,0.2c-1.5,0.4-2.3,0.4-2.2-0.5C31.3,163.3,32.6,162.5,33.8,162.5z
		 M35.8,162.7c0.6,0,1.1,0.7,0.7,1.1c-0.4,0.4-1.1,0.1-1.1-0.5C35.4,163,35.5,162.7,35.8,162.7z M36.2,165.1c0.2,0,0.4,0,0.6,0.1
		c0.6,0.3,0.9,1.2,0.5,1.6c-0.3,0.3-1,0.2-1.5-0.2C35.1,166,35.5,165.1,36.2,165.1z M34.3,165.2c0.3,0,0.6,0.1,0.7,0.4
		c0.1,0.2,0,0.4,0.1,0.7c0.1,0.5,0.4,0.8,0.2,1c-1.2-0.1-3.6,1.4-4.3,1.3c-0.6-0.1-0.7-0.6-0.1-1.5
		C31.4,166.1,33.3,165.2,34.3,165.2z M35,168.1c0.3,0,0.3,0.1,0.2,0.5c-0.1,0.3,0,0.9,0.2,1.3c0.2,0.4,0.5,0.7,0.4,0.9
		c-0.3,0.1-1.3,0.3-2.2,0.6c-1.1,0.6-4.2,2.4-3.4-0.5c0.2-1,1.4-1.6,3.3-2.3C34.3,168.3,34.8,168.1,35,168.1z M36.7,168.1
		c0.5,0,1,0.2,1.3,0.8c0.7,1.4-1.3,1.6-2,0.4C35.5,168.6,36,168.2,36.7,168.1z M37,171.4c1.1,0,1.9,1.3,1.1,1.8
		c-0.6,0.3-1.3,0.3-1.9,0.1C35.2,172.9,35.7,171.4,37,171.4z M138.6,171.4c4,2.1,9.5,4,14.8,5.5v52.3h-36.4l-10-17.3
		c-0.5-0.8-0.7-1.4-0.4-2.1c0.4-1.2,1.3-3.5,2.3-5.1c2.4-4.4,5.8-9.2,4-13.5c-0.2-0.5,1.9-3.1,1.9-3.1c3.4,0.2,6.3-2.1,4.9-6.8
		C126.6,178.4,132.3,176.1,138.6,171.4z M35.2,171.7c0.1,0-0.2,1.1,0.4,1.8c0.4,0.6,0.3,0.5-0.9,1c-0.5,0.2-0.9,0.6-1.2,0.9
		c-1.8,1.6-3.5-0.5-1.8-2.1C33,172.1,34.5,171.8,35.2,171.7L35.2,171.7L35.2,171.7z M118.6,172.8c0.6,0.1,1.4,0.9,1.1,1.3
		c-0.8,1.4-0.9,2.1-0.9,3.6c-0.1,1.6,0.2,1.8-0.4,1.6c-0.4-0.2-1.1-0.5-1.3-0.9C116.7,177.4,117.7,172.6,118.6,172.8z M34.6,176.8
		c0.7,0,1.3,0.2,1.7,0.7c0.3,0.4,0.4,0.8,0,0.9c-0.8,0.4-3.3,0.2-3.4-0.3C32.8,177.3,33.6,176.8,34.6,176.8L34.6,176.8z M72.7,177.8
		c3.1,0,6.6,0.7,9.4,1.9c2.4,1,6.3,3.9,8.4,7.3c0,0-0.5,0-0.8,0c-4.7,0.8-6.4,6.6-2.4,9.4c1.2,0.8,2.2,0.7,2.2,0.7
		c1-0.1-4.5,10.4-6.6,16.9c-6.7-0.3-11.8,0.8-18.4-1.5c-0.7-1.2-0.5-3.8,0-5.1c0.5-1.2,1.1-2.2,0.8-3.5c-0.5-2.4-2.7-5.6-3.5-7.6
		c-0.7-1.5-0.6-2.1,0.5-3c1.3-1,1.7-1.2,2-1.8c0.3-0.5,0.2-0.6,0.2-1.7c0-1.3,0-1.1,1.1-1.3c0.4-0.1,1.3-0.4,2-0.7
		c1.4-0.8,2.4-0.7,3.3-0.3c0.4,0.1,0.3-0.3,0.5-0.8c0.1-0.2,0.2-0.6,0.2-0.7c0-0.2-0.5-0.2-1-0.1c-2.1,0.3-3.8,0.4-4.7,0
		c-0.8-0.3-0.8-0.8-0.3-1.6c0.4-0.7,0.7-0.7,0.5-2.3c-0.2-2,0.1-2.4,1-3C68.2,178.2,70.3,177.8,72.7,177.8z M83.8,179.5h9.8
		c-1.3,2.2-1.9,4-2.7,6.4C87.9,181.8,85.9,180.8,83.8,179.5z M75.5,186.5c-1.2,0-2.7,0.6-4.6,1.7c-1.3,0.7-2.3,1.2-3.7,0.9
		c-0.8-0.1-0.9,0-1,0.2c-0.5,1.1,1.2,2.3,2.9,1.5c0.5-0.2,4.3-2.2,4.5-2.3c0.2-0.2,1.8-0.6,2.2-0.6c1.3,0,2,1,1.9,2.1
		c-0.1,1-1.2,1.5-1.9,1.1c-0.7-0.3-0.6-0.9-0.9-1.5c-0.6,1.4,0.2,2.4,1.5,2.5c1.5,0,2.9-1.8,2-3.7C77.8,187.2,76.9,186.5,75.5,186.5
		z M67.8,191.8c-0.1,0-0.3,0-0.4,0c-1.2,0.2-2,0.7-3.4,0.8c-1.1,0.2-1,1.1-0.3,1.6c0.5,0.3,1.2,0.1,3.1-1.1c1.9-1.2,3.5,1.3,2,2.6
		c-1,0.8-0.3,1,0.4,0.5C70.7,195.1,69.9,191.8,67.8,191.8z M69.3,200.7c-0.1,0.2-0.1,0.5-0.1,0.8c0,0.2-0.2,0.5-0.2,0.6
		c0,0.1,0.4,0.2,0.5,0.4c0.2,0.5,0.1,1.6-0.1,2.5c-0.1,0.4-0.7,0.5-0.9,0.8c-0.8,0.8-0.6,1.1,0.3,0.7c0.6-0.2,0.3-0.6,1.8-0.3
		c1.9,0.4,3.4-0.1,4.9-1c1.7-0.9,2.3-1.4,2.3-1.3c0.1,0.2,0,0.3-1.2,1.3c-3,2.5-5.2,3-6.9,2.1c-0.5-0.3-0.9-0.5-0.5,0.2
		c0,0.1,0.5,0.4,0.7,0.5c1.7,0.8,3.9,0.1,6.6-2c0.6-0.5,1.1-1,1.8-1.6c2.3-1.9,1.7-2.8-0.9-1.8c-0.8,0.3-1,0-2.1-0.4
		c-1.5-0.6-2-0.6-3.6-0.7c-1.5,0-1.7,0.1-1.7-0.1c0-0.3,1.1-1.3,2.1-1.9c0.9-0.5,1.1-1.1,1.1-1.1C71.8,198.5,70.2,199.6,69.3,200.7z
		 M72.7,202.2c0.1,0,2.6,0.2,3.2,0.7c0.3,0.3-0.1,0.5-1.2,1c-0.6,0.3-1.2,0.5-1.2,0.5C73.4,204.6,72.4,202.3,72.7,202.2z
		 M71.7,202.5c0.1,0,0.3,0.1,0.3,0.2c0.2,0.5,0.4,1,0.5,1.5c0,0.2,0.1,0.4-0.1,0.4c-0.2,0-0.5,0-0.6-0.1c-0.2-0.4-0.5-1.7-0.4-1.9
		C71.5,202.4,71.6,202.5,71.7,202.5z M80.9,206.6c0,0-1.7,1-2.5,1.4c-3.8,1.8-7.9,2.6-10.7,1.6c-1.1-0.4-1.3-0.3-0.9,0.5
		c0.3,0.5,0.8,1.1,1.7,1.4c2.7,0.7,6.9-0.3,10.2-2.5C80.1,208,80.9,206.6,80.9,206.6z M105.6,213.4c0,0,8.2,15.3,8.9,16.1l-60.8-0.3
		L64,214.8C64.1,215.6,88.7,219,105.6,213.4z"/>
	<path class="st2" d="M54.2,229.2l9.8-14.4c14.5,2.7,27.6,1.3,41.9-1.2l9.5,16L54.2,229.2z M131.1,175.4l-0.1-8.6l3,1.1
		c-1-4,1.6-8.2,4-8.3c-7.6-5.7-1.3-11.9-1.4-12c-8.4-4.3-4.2-10.9-4.7-11.5c-10.2-2.6-6.2-10.7-7-9.9c-5.9,1.8-9.2-3.2-9.3-7.2
		c-5.1,2.9-13.1-1.2-10.6-5.8c0,0,2.7,1.3,3.2,1c4.2-3,3.9,1.3,4.7,2.3c3.1-0.5,5,1.9,5.7,3.1c4.6,0,4.4-1.1,4.5,3.4
		c3.5,0.9,3.3,2.7,5.3,5.3c4.4,0,3.6,1.5,2.6,3.9c3.2,2.5,3.4,4.5,3.9,6.7c3.4,1.2,4.1,1.8,1.8,4.6c3,4.5,1.6,7.2,2,7.4
		c3.8,2.7,1.9,3.7,0.2,4.8c0.6,3.6,1,4.2-0.3,7.8c4.4,3.1-0.7,4.5-0.9,4.4l0,3.1L131.1,175.4z M25.7,153.1l-0.1-10.6l36.9,23.8
		l-4.7,7.3L25.7,153.1z M74.7,168.7c10.2-19,8.7-17,5.6-38.1l25,0.5c2.8,6.4,4.5,11.8,11.7,22.3c-7.8,2-6.7,2.8-7.3,15.1L74.7,168.7
		z M96.1,163.9c-0.3-0.5-0.4-0.9-0.3-1.1c0.1-0.3,0.3-0.3,0.6-0.1c1.1,0.5,2.1,1,2.9,0c0.4-0.5,0.3-1.2,0-1.7
		c-0.6-1.2-2.5-0.3-3.1-0.3c-0.6,0-0.8-0.5-0.3-1.2c0.3-0.3,0.5-0.6,0.5-1c0.3-2.8-4.4-1.8-2.8,0.9c0.8,1,0.3,1.6-0.8,1
		c-1.2-0.7-2.9,0-2.8,1.4c0,1.1,1.4,1.8,2.6,1.1c0.3-0.2,0.5-0.3,0.7-0.4c0.5-0.2,0.9,0,0.8,0.6c-0.5,0.8-1.1,1.9-0.6,2.6
		c0.5,1.1,2.1,1,2.7,0.3C96.5,165.5,96.6,164.8,96.1,163.9z M153.8,108.1l-37-23.9c2.3-3,3.6-5.3,4.9-7.7l32.1,20.6L153.8,108.1z
		 M96,100l3.8,19.3L74,119.7c-1.4-6.5-10.3-21.1-10.3-20.9L70.6,82l34.3,0L96,100z M86.3,92.9c0.7-0.6,0.6-1.5-0.1-2.5
		c-0.7-1-0.4-1.7,0.7-1c0.6,0.4,1.6,0.5,2.3,0.3c0.8-0.3,1.2-1,1.1-1.8c-0.2-1-1.3-1.3-2.5-0.9c-0.4,0.1-0.6,0.4-0.9,0.5
		c-0.7,0.3-0.9-0.5-0.3-1.5c0.7-1.1,0-2.3-1.2-2.5c-1.3-0.1-2.1,1.4-1.6,2.2c0.8,1.2,0.2,2-0.9,1.2c-1.6-1.1-3.6,0.3-2.8,2
		c0.4,0.8,1.8,1,3,0.5c1-0.4,1.3,0.1,0.7,1.1C82.5,92.6,84.6,94.4,86.3,92.9z M48.8,73.9l-0.3,10.3c-3.9-2.4-3.3-2.4-3.4-2.3
		c1.1,3.1-0.2,6.9-3.5,8.8c5.9,5.5,2.7,9.4,1.7,12c7.5,4.4,3.7,11.9,3.7,11.5c7.4,0,7.3,6.5,7.5,9.2c9.2-0.6,8,6.7,9.2,7.4
		c4.5-2,9.7-1.3,11,4.7c0.9,3.4-2.4,0.1-3.8,0.3c-5.1,3.2-4.1-1.7-4.4-2.3c-4.2,0.4-4.8-1.6-6.6-3c-4.5,0.9-4.2-0.6-3.9-3.4
		c-3.6-0.7-4.3-2.9-5.8-5.1c-4.9,0.2-2.9-3.3-2.9-4c-0.6-0.5-3.4-3.3-3.6-6.5c-5.1-1.4-1.9-4-1.7-4.8c-1.9-2.4-2.4-4.1-1.8-7.1
		c-4.5-2.1-0.7-4-0.4-5.2c-1.5-3.9-0.4-5.1,0.2-7.2c-2.9-3.4-1.2-3.2,1-5.2c0.3-0.4-0.5-2.1-0.4-3.1L48.8,73.9z M74.8,35.9
		l-8.1-14.4h57.8c0,0-6.3,8.7-8.7,13.1C101.3,32.2,87.8,33.3,74.8,35.9z"/>
	<path class="st3" d="M34.4,219.9c-8-3-2.8-10.8-0.5-13.9c-1.6-2.5-2.4-3.4-4.1-5.9c1.5-2.2,3.2-3.9,4.3-5.9
		c-4.4-5-7.4-12.5,1.2-14.3c9.6,2.4,3.9,10.9,1.3,14.1c0.9,1.9,2.5,3.6,4.1,6c-1.5,1.8-3,3.5-4.3,5.7c3.8,4.6,6.4,10.5,1.6,13.6
		C36.8,219.9,35.8,220.1,34.4,219.9z M77.2,143.3C77,143.1,58,173.7,58,173.7l2.2,1.4l18.2-28.3c0.3,0.2,0.5,0.5,0.5,0.8
		c0,0-15,24.3-17.4,28.2c-0.1,0.1,3.7,2.3,3.8,2.3c5.6-2.7,28.7-0.4,44.1-1.3l-0.2,5.4c-5.1-6.9-7.6-2.6-14-2.9
		c-1.7,0.5-3.6,6.6-4,8.2c-3.1-0.4-6,2.8-5.3,5.8c1,3.3,2.7,3.1,4.6,3.1c-0.2,3.7-6.8,13.6-6.8,18.5c7-0.6,14.6-0.7,21.8-2.9
		c0,0,2.7-7.8,6.1-12.9c1.1-2,1.7-4.9,1.2-6.8c-0.3-2,0.6-2.5,1.4-4c0.5-0.9,2.2-0.9,2.5-0.9c4.6-1.3,3-7.3,1-8.3
		c-2.4-1.3-5.9,0.7-7.2-1.9c-1.4-2.8-1-8.7-1-8.7l-34.7,0.2c0,0,9.8-18.6,9.6-18.7C81.6,148.5,77.2,143.4,77.2,143.3z M53.9,160.2
		c0.2-1.9,0.5-32.4-28.5-47.6l0.2-4c0.2-0.2,26.3,11.8,30.8,42.9l8.1-12.6l3,1.2C63.1,146.6,54.3,162.6,53.9,160.2z M36.3,149.2
		c1.2-3.5-0.8-1.7-2.5-1.8c-1.2-0.7-2.4-1.5-3.6-2.3c8.5-4.5,3.4-4.3-1.5-1.1c-1.3-0.7-2.9-2.2-3-2.1c9.6-6.1,6-6.2-0.1-1.8
		c0.2-4.2,0.1-2.6,0.1-4c5.2-5.6,0.4-2.5,0-2.5c-1.3-5.6,4.9-4.4,5.4-0.2c1.1,0.8,3.2,1.8,3.8,5.2c2.9,1.9,2.6,3.4,2.5,5.7
		c1.2,1.1,4.1,3.5,0.7,5.7L36.3,149.2z M25.3,123.9l0.2-3.1c0.4-1.3,22.7,14.6,21.1,35c0.3-0.1-2.5-1.4-3.3-2.1
		C43.4,138.7,27.4,125.5,25.3,123.9z M153.5,141.1c-14.9-6.8-29.1-23.1-29.8-44.3l-8.4,14.1l-3-1.3c0.3,0.2,6.7-11.6,13.2-19.7
		c1.9,26.8,12.4,39.2,28.3,48.3L153.5,141.1z M75.4,131.3c-14.4-1.8-35.1-22-28.9-48.5c7.8,4.2,12.1,10.8,15.8,14.5
		c2.3,2.7,10.8,16.6,11.2,22.1c10.5,3,30.8-0.4,30.8-0.4c17,3.8,34.9,22.1,28.4,48.2c0,0-4.5-3-8.3-6.4
		c-11.5-11.1-15.2-20.2-19.2-30.2C90.5,129.2,76.7,131.8,75.4,131.3z M153.6,109.2c0.3,1.3,0.1,4.1,0.1,4.1
		c-3.8,4.2-4.2,4.2,0.6,2.9c-0.6,4-3.6,4.7-5.3,3.3c-0.6-0.5-0.7-3.3-0.7-3.3c-2.9-0.7-3.9-1.6-3.5-4.7c-3.4-0.4-3.2-2-3-5.4
		c-3.1-1.7-2.3-4.4-0.5-5.6l1.5,1c-0.5,0.4-0.2,3.1,2.4,1.1c0,0,2.1,1.8,3.2,2.5c-7.8,5-3.1,3.9,1.7,0.6c0.9,0.6,2.1,1.6,2.8,2
		C146.7,112.2,144.6,116,153.6,109.2z M154,126.1l-0.3,3.6c-15.3-9.3-19.5-21.7-20.6-34.8c0,0,2.1,1.5,3,2.1
		C137.5,114,153,125.4,154,126.1z M70,81.7l36.7,0.2L97,100.5l5.1,6.1c0,0,12.8-19.8,19.2-30.2l-2.2-1.3l-18.3,28.7l-0.7-0.8
		l18.1-28.7c-1.1-0.7-3.1-1.8-3.1-1.8s-31.3,0.5-44.9,0.4c0.4-1.9,0.5-5.2,0.5-5.2c2,2.9,4.2,5.4,8.8,2.6c0,0,5.5,0.2,5.7-0.1
		c0.7-1.1,1.9-4.5,3.3-8.4c4,0.1,5.2-2.7,5.4-4.3c0.4-3.9-4.1-5-4.4-4.4c1-5.8,8-17.8,6.7-18.2c-1.6-1-17.3,2-21.9,2.6
		c-0.4-0.2-2.7,7.1-5,10.2c-2.6,3.4-3.5,7-2.2,10.4c-1.4,3.8-4,3.4-6,4.4c-2.4,2.6-1.7,6.5,0.5,8c1.6,1.1,4,1,6.4-1L70,81.7z
		 M143.1,55.4l-4.3-5.8l4.2-6.1c-1.6-2.6-4.4-6.6-3.9-9.7c1.1-6.3,9.5-5.3,10.3,0.6c0.4,2.8-1.6,6.2-3.7,9.1
		c1.4,2.5,1.9,2.9,3.9,5.7c-1.2,2.1-4,6.1-4,6.1c1.8,3,4.3,6.3,4.1,9.3c-0.2,2.6-3,5.3-5.7,4.7C135.6,67.7,140.2,58.9,143.1,55.4z"
		/>
	<path d="M65.3,20.8c2.3,4.3,8.8,15.8,8.8,15.8c15.4-3.2,28.3-4,41.9-1l9.7-14.7L65.3,20.8z M67.3,21.6h2.8l5.5,11.2l9.4-1.9
		l-1.6-9.3l2.7,0l1.3,8.9l13.8-0.4l1.8-8.6l2.6,0l-1.8,8.8l11,1.5l5.4-10.3h3.7l-8.2,12.7c-14.5-2.8-28.9-1.9-41,1.1L67.3,21.6z
		 M72.6,21.6h8.1l1.9,7.6c-1,0.5-4.7,1.4-6,1.3C75.2,27.9,73.6,24.1,72.6,21.6L72.6,21.6z M88.2,21.6h12.4l-1.1,6.4l-10.4,0.3
		L88.2,21.6z M107.8,21.6h9.5l-3.8,7.8l-7.2-1L107.8,21.6z M144.1,29.4c-3.6-0.1-5.4,3.3-5.3,5.6c0.6,3.5,1.3,4.2,3.9,8.5l-4.1,6.1
		l4.4,5.7c0,0-0.7,0.8-1.1,1.4c-2,2.9-3,5.5-2.8,7.7c0.1,2.4,1.5,4.2,4.1,5c3.9,0.9,6.4-1.9,6.5-5.1c0-2.2-1-4.8-3.1-7.6
		c-0.6-0.8-0.8-1.4-0.8-1.4s2.9-4.2,4-6.1l-4-5.7c3.2-4.8,3.8-5.8,3.9-8.7C149.5,31.9,147.4,29.5,144.1,29.4z M144.1,29.8
		c3.6,0.3,5.5,3,5.1,6.4c-0.5,3.3-3.5,6.4-3.9,7.4c1.4,2.3,4.1,5.6,4.1,5.6c-1.1,2.1-4.1,6.1-4.1,6.1s0.2,0.3,0.4,0.6
		c3.1,4.4,3.9,6.4,3.7,9c-0.2,2.1-1.8,3.9-3.8,4.3c-3.2,0.6-5.9-1.7-6.2-4.8c-0.2-2.7,1.5-5.3,2.9-7.4c0.6-0.9,1.1-1.7,1.1-1.7
		l-4.4-5.8c1.3-2.1,3-4.2,4.3-6c0,0-0.7-1.1-1.3-2c-2.4-3.8-3.1-5.7-2.7-7.8C140,31,141.9,29.7,144.1,29.8z M144,31.7
		c-1.3,0-2.6,1-3.1,2.4c-0.7,2.7,2.1,6.7,3.4,7.8c2.4-2.8,3.9-5.9,3.1-8C146.7,32.7,145.4,31.7,144,31.7z M144.4,32.6
		c2.4,0,3.3,2.9,1.5,6.2c-0.6,1.1-1.6,2.3-1.6,2.3s-0.9-1.1-1.4-1.9c-2.2-3.4-1.6-6,1.1-6.5C144,32.6,144.2,32.6,144.4,32.6
		L144.4,32.6z M96.6,34.1c-6.5-0.1-16.2,1.4-22.9,2.8c-0.6,4-2.7,8-4.9,11.2c-2.1,3.4-2.9,6.4-2.2,8.5c0.7,1.9-1.1,4.8-3.1,5
		c-2.5,0.2-4,1.9-4,4.4c-0.1,3.9,2.6,6.3,6.3,5c0.4,0,0.6,0.2,0.6,0.2l-0.2,22.3c-2.1,0.3-3.4,0.8-5.2,1.7c-3.3-3.7-6-6.3-8.5-8.2
		c-0.1-5,0.1-10-0.1-14.9c-3.7,1.4-7.6,3.7-10.9,5.9c-1.1,0.7-1.2,1.1-0.8,3c0.2,1,0.2,1.1-0.7,1.3c-1.8,0.4-2.3,3.2-0.8,4.1
		c0.7,0.4,0.7,0.5,0.2,1.5c-0.7,1.6-0.7,4.5,0.1,5.8c0.4,0.7,0.4,0.9-0.2,1.3c-1.9,1.2-1.7,3.8,0.2,4.3c0.5,0.1,0.6,0.3,0.5,0.8
		c-0.6,1.6-0.1,4,1.3,5.8c0.7,0.9,0.7,0.9,0.2,1.4c-1.6,1.4-0.7,3.9,1.4,4.2c0.7,0.1,0.7,0.1,0.8,0.7c0.2,1.6,0.4,2.1,0.7,2.8
		c0.4,1,1,1.6,2,2.4c0.8,0.6,0.8,0.6,0.4,1.6c-0.8,1.7,0.5,3.5,2.5,3.4c1.1,0,1.1,0,1.1,0.3c0.4,1.8,2.5,4,4.3,4.3
		c0.9,0.2,1.1,0.4,0.8,1.1c-0.5,1.2-0.2,2.1,1.1,2.7c0.9,0.4,1.1,0.5,2,0.1c1.1-0.4,1.1-0.4,2,0.8c1.3,1.7,2.1,2.1,4.2,2.1
		c1.4,0,1.4,0,1.4,1c0,2.3,2.5,3.3,4.1,1.6c0.6-0.6,0.6-0.6,1.1-0.2c2.2,1.6,4.2,2,4,0.5c-0.4-3.6-3-5.7-3-5.7l3.2,0.8
		c0.1,3.8,0.3,8.3,1.1,11.4l-14.4,22.8l-7.7-5.1l13-21.1l-3.6-1.4c-2.8,4.4-4.8,7.9-7.4,11.9c-2.6-18.9-15.8-35.5-31.9-42.5l0.1,5
		c16.8,8.6,28.8,26.3,28.5,47.2c-0.1,0.1-1.4-0.7-3.2-1.9c-1-0.6-2.9-1.9-3.1-2c0.8-23.1-22.2-36.8-22.3-36.1c0,0-0.1,3-0.2,4.4
		c9.8,6.5,17.5,18.5,18.3,29.1l-4.6-2.9c2.7-1.4,2-4.9,0-5.8c-0.6-0.3-0.7-0.4-0.3-1.2c0.6-1.7-0.5-4.3-2.1-4.7
		c-0.7-0.2-0.8-0.4-0.8-1.4c-0.1-1.8-1.1-3-2.8-3.4c-0.5-0.1-0.5-0.1-0.5-0.7c-0.2-3.5-3.6-4.9-6.1-2.5c-0.3,0.3-0.6,0.8-0.6,0.8
		l0,3.8c0.9-0.5,2.2-2.1,2.7-2c0.6,0.1,0.3,0.5-1,1.6c-0.9,0.8-1.7,1.5-1.7,1.5l0.1,5c1.5-0.9,2.9-2,4.3-3c1.2-0.8,1.8-1.1,1.9-0.8
		c0.2,0.3-0.1,0.6-0.8,1c-1.8,1.2-3.9,2.6-5.4,3.8l0,3.4l0.3,0.4l0.1,3l-0.3,0.1v3.8l35.5,22.7L78.4,147l0.3,0.3l-18,28.3
		c1.7,1.1,3.5,2.3,5.3,3.2c1.1-0.6,1.6-1,3.8-1.5c2.2-0.5,39,0,39,0l0.2,4.5c-1.3-4.5-5.5-5.4-8.8-3.4l-5.4,0c0,0-3.2,5.7-3.7,8.7
		c-2.3-0.3-5.3,1.9-5.5,4.1c-0.4,3.2,1.7,5.5,4.5,5.1c-1.4,5.6-4.7,11.2-6.4,16.1c-0.9,2.3-0.6,2.7-0.4,2.8
		c8.1-0.1,15.5-0.9,23.2-3.4c-1.1-1.9,1.9-6.5,3.5-9.8c2.3-4,2.9-5.6,3.2-7.5c0.2-1.8-0.1-2.2-0.4-3.6c0.2-1.2,2.1-3.3,2.1-3.3
		c2.5,0.4,4.5-1.4,4.8-3.7c0.4-4.3-3.2-6.5-6.5-5.6l0-21.9l2.5,0.1l2.8-1.4c4.5,3.8,7.4,7.7,12.2,10.6l-0.1,0.2l-3.6-2.5l0,14.4
		c4.1-2.2,8-4.1,11.7-7.1l-0.8-0.6l0-2.1c3.5,0.3,3.8-4.2,1-4.7c0,0,0.1-0.4,0.3-0.9c0.9-1.8,1-3.5,0.3-5.4
		c-0.4-1.1-0.4-1.4,0.1-1.4c2.1,0,1.9-3.8-0.2-4.6c-0.7-0.3-0.7,0-0.5-2.4c0.1-1.8-0.3-2.9-1.6-4.5c-0.5-0.6-0.5-0.9,0.2-1.2
		c1.8-1.1,0.5-4.3-1.7-4.2c-0.9,0-0.9,0-0.9-0.8c-0.2-2.3-1.5-4.5-3.2-5.4c-0.5-0.3-0.6-0.5-0.3-0.9c1.4-1.9,0.1-4.5-1.9-3.8
		c-0.4,0.1-0.8,0.3-0.9,0.3c-0.2,0-0.3-0.2-0.6-1c-0.8-2.4-1.6-3.1-4.3-4.2c-0.5-0.2-0.6-0.4-0.3-1.4c0.4-1.9-2.2-3.6-3.5-2.4
		c-0.6,0.5-0.6,0.5-1.2-0.3c-1.3-1.4-3.3-2.5-5.1-2.6c-0.9-0.1-1-0.1-0.9-0.5c0.5-2.3-1.7-3.7-3.6-2.4c-0.9,0.7-1.1,0.7-2,0.2
		c-1.9-1.1-2.7-1.1-2.9-0.1c-0.1,0.8,0.1,1.8,0.3,2.3c0.5,1.6,1.1,2.2,2.4,3.3c0,0-2.2-0.6-2.7-0.7c0.1-0.1-0.2-7.6-1.6-11.8
		l14-22.2l8,5.3l-12.8,20.2l3.7,1.5c0,0,5-8.2,7.6-12.3c1.7,20.1,17.3,37.7,31.4,42.9c0,0,0-2.9,0.1-4.3
		c-14.9-6.5-29-24.8-28.1-46.7l6,3.8c1.7,17.6,9.4,27.8,22.2,36.5v-5.4c-8.8-6.5-16.1-15-18.1-28.6c0,0,3,1.9,4.3,2.8
		c0,0-0.4,0.2-0.6,0.4c-1.6,1.3-1.1,4,1,5.6c0.3,0.2,0.3,0.3,0,1.1c-0.6,1.7,0.3,3.8,2,4.2c1,0.2,0.9,0.2,1,1.3
		c0,2.1,0.9,3.1,3.2,3.6c0.3,0.1,0.3,0.1,0.3,1c0,2.3,2.2,3.9,4.2,2.9c0.6-0.3,2.5-1.9,2.5-1.9v-3.8c0,0-0.9,0.7-1.5,1.3
		c-1.1,1-1.5,1.2-1.5,0.5c0-0.5,0.5-1.1,1.6-1.8c0.6-0.4,1.4-1.3,1.4-1.3v-4.4c0,0-0.5-0.8-0.5-1.7c0-0.5,0.2-1.3,0.2-1.3l0.5,0
		l0-5.1l-0.6-0.5l0-3.4l-35-22.6l-18.2,28.9l-0.5-0.5L118.6,74l-5.1-3.2c-0.1,0-2,1.1-4.1,1.5c-2.1,0.4-18.9-0.3-38.6-0.1
		c0-1.4,0-2.3,0-3.9c0,0,0.3,0.2,0.4,0.4c1.6,3.4,5.6,3.4,8,1.9c0.5-0.3,0.6-0.3,3.2-0.3c2.7,0,3.1,0,3.1,0c1.3-3.5,2.3-6.4,3.1-8.7
		c6.8,0.6,7.2-8.6,1.6-9.2c-1,0-0.3-2.6,1.7-6.7c2.1-4.3,2.4-4.9,3.5-7.8C96.2,36.3,96.5,34.9,96.6,34.1L96.6,34.1z M94.9,35.3
		c0.3,0,0.6,0,0.9,0.1c0.5,0.4-0.8,3.5-3,8.2c-1.9,3.9-2.7,5.8-3.1,7.2c-0.2,0.6-0.2,1.3-0.5,1.9c-1.1,0.6-1.9,1.3-2.4,2
		c0,0,0.1-1,0.2-1.6c0.3-1.8,1-3.8,2.7-7.2c1.3-2.7,2.6-5.7,3.7-8.7c0.2-0.7,0.3-1.4,0.7-1.7C94.4,35.3,94.6,35.3,94.9,35.3z
		 M92.2,35.4c0.3,0,0.7,0,0.9,0.1c0.3,0.2-1.3,4.5-4.1,10.4c-3.6,7.3-3.7,12.5-0.5,13.7c2.5,1,5.1-1.8,3.5-3.8c-0.7-1-2.4-1.1-2.9,0
		c-0.3,0.5,0.1,1.2,0.7,0.4c0.8-1.1,2.4,0.2,2,1.5c-0.3,0.9-1.5,1.6-2.3,1.5c-3.5-0.7-2.8-5.6,0.8-5.9c5.6,0.5,4.6,8.2-0.8,8.3
		c-2.3,0-4.4-1.9-4.1-3.6c0.3-1.6,0.3-2.8-0.2-4.1c-0.2-0.4-0.4-0.8-0.4-1.3c0-1.4,1.2-3.6,3.8-8.9c0.9-1.9,2.1-5.2,2.6-7.3
		c0.2-0.6,0.1-0.8,0.3-0.9C91.5,35.5,91.8,35.4,92.2,35.4z M89.3,35.6c0.3,0,0.5,0,0.8,0c0.5,0-0.7,3.9-2.2,7.2
		c-1.2,2.5-2.7,5.8-3.9,8.7c-0.4,0.6-0.6,0.7-1.4,0.3c-0.9-0.5-0.6-1.2,1.4-5.2c1.5-3,3-6.5,4-9.9c0.1-0.4,0.2-0.8,0.6-1
		C88.8,35.6,89.1,35.6,89.3,35.6z M86.4,35.9c0.3,0,0.6,0,0.8,0.1c0.3,0.4-1.6,5.6-4.4,11.4c-0.6,1.2-1,2.4-1.6,3.7
		c-0.3,0.3-1.4,0.4-2,0.6c-0.6-0.1,0-1.2,1.6-4.5c1.4-2.7,1.7-3.5,2.5-5.2c0.5-1.2,1.3-3.3,2-5.3c0.1-0.2,0.1-0.5,0.3-0.6
		C85.8,36,86.1,35.9,86.4,35.9L86.4,35.9z M83.7,36.2c0.5,0,0.9,0,0.8,0.2c-0.9,3.7-2.6,7.4-4.1,10.4c-0.9,1.8-1.8,3.5-1.9,3.8
		s-0.4,1.1-0.7,1.8c-1.6,3.5,0.1,6.3,2.3,6.5c3.4,0.3,3.7-4.5,1.3-4.9c-0.9-0.2-1.9,0.3-1.9,1.4c-0.1,0.5,0.6,1.2,0.6,0.4
		c0-1.4,1.9-1.3,2.2-0.1c0.5,2.3-2.2,3.5-3.8,1.6c-0.7-0.8-0.6-1.6-0.5-2.4c0.3-2.1,2.7-3.6,5-2c3.1,2.2,2,6.9-2,7.7
		c-1.4,0.4-3.1-0.1-4.1-1.2c-0.7-0.7-1.1-1.7-1.3-3c-0.1-0.7-0.1-1.5,0-2.3c0.3-2.4,2.1-6,3.7-9.1c1.2-2.5,2.2-5.8,3.3-8.5
		C82.7,36.3,83.2,36.2,83.7,36.2L83.7,36.2z M81.1,36.6c0.1,0,0.3,0,0.4,0.1c0.2,0.1-0.7,3-2.1,6.1C78,46,76.1,49.6,75,52.7
		c-0.3,0.8-0.6,0.7-1.5-0.1c-0.5-0.5-0.2-1.2,1.6-4.8c2.7-5.5,3.7-7.9,4.1-9.2c0.2-0.6,0.3-1.4,0.8-1.6
		C80.3,36.8,80.7,36.6,81.1,36.6z M78,37.2c0.3,0,0.6,0,0.7,0.2c-0.3,0.9-1.2,3.7-2.8,7c-1,2.1-2,4.4-3,6.5
		c-0.6,1.3-0.6,1.3-1.5,1.5c-1.6,0.3-1.6,0.3-0.2-2.6c1.8-3.6,3.8-7.2,5.1-11.1c0.2-0.5,0.4-1,0.6-1.2C77,37.4,77.6,37.2,78,37.2z
		 M75.3,37.7c0.3,0,0.5,0,0.7,0.2c0.1,0.7-1.7,4.8-2.8,6.7c-0.3,0.6-0.7,1.4-1,2c-1.4,2.2-3,6.4-3.5,8.2c-0.7,2.8,2.5,4.9,4.2,2.9
		c1-1.2,0-3.4-1.6-2.8c-0.5,0.2-0.3,0.4,0.4,0.5c1.2,0.1,1.3,1.9,0,2.3c-1.4,0.4-2.4-0.8-2.4-2c0-2.5,2.8-3.5,4.5-2.1
		c1.7,1.4,2,4.9-0.6,6.2c-2.6,1.3-5.7-0.5-6.4-3.5c-0.5-2.4,0-4.5,2.3-8.1c1.3-2.1,3.3-5.7,4.4-8.8c0.2-0.5,0.4-1,0.6-1.2
		C74.2,37.9,74.8,37.8,75.3,37.7z M144.2,45.1l-3.5,4.4c1,1.4,3.4,4.3,3.4,4.3l3.3-4.2L144.2,45.1z M144.3,47.6l1.4,1.8l-1.6,1.9
		l-1.5-1.8L144.3,47.6z M144.1,48.5l-0.6,0.9l0.6,0.9l0.6-0.9L144.1,48.5z M144.4,57.1c0,0-4.2,4.6-3.2,7.9c0.9,3,5.9,3.5,6.5-0.7
		C148,62.2,146,59.3,144.4,57.1z M144.4,58c0,0,1.2,1.7,2,3.3c0.9,1.5,1.3,5.4-2.1,5.5c-1.8,0-3.6-2.3-2.2-5.2
		C142.6,60.7,144.4,58,144.4,58z M75.5,58.7c0.2,0,0.4,0.5,0.5,0.8c0.2,0.5-0.4,1.9-1,2.6c-0.1,0.1-0.9,0.2-2,0.8
		c0-0.5,0.3-1.7,0.5-2.2C74.2,60.1,74.7,59.3,75.5,58.7L75.5,58.7L75.5,58.7z M67.1,59c0.5,0.6,1,1.1,1,1.4c0,0.5-0.6,1.2-1.1,1.6
		c-0.6,0.6-1.8,0.2-1.8-0.5C65.2,61.3,66.9,59,67.1,59z M84.8,59.7c0.2,0.4,0.7,1.2,1.1,1.5c-0.7,3.9-3.4,8.8-3.4,8.6
		c0,0-1.6,0.3-2.3-0.1c1.8-2.5,3-5.7,3.9-8.3C84.4,60.3,84.6,59.8,84.8,59.7z M83.3,60.3c0.3,0,0.4,0.2,0.2,0.8
		c-1.1,4.3-3.5,8.9-5.3,9.7c-2.5,1.1-4.9,0.2-6-1.7c-1.1-2-0.9-5.2,2.9-5.9c2.2-0.2,4.5,1.5,3.3,4.4c-1.3,2.1-4.9,0.9-3.9-1.8
		c0.8-1,2.4-0.1,1.9,1c-0.3,0.6,0,0.9,0.4,0.5c1.3-1.3-0.8-3.4-2.3-2.3c-2.4,1.8,0.6,5.7,3.3,4c0.8-0.5,2.4-3.4,2.9-5.4
		c0.2-0.9,0.5-1.7,1-2.3C82.3,60.7,82.9,60.3,83.3,60.3z M77,60.5c0.2,0,0.4,0.1,0.5,0.2c0.3,0.1,0.6,0.4,0.6,0.7
		c0,0.4-0.3,1.2-0.7,1.6c-0.3-0.1-1-0.4-1.4-0.5c-0.3-0.1,0.1-0.7,0.3-1.1c0.3-0.5,0.4-0.7,0.6-0.8L77,60.5z M69.2,60.6
		c0.5,0,1,0.3,1.4,0.4c0.1,0.5-0.6,1.7-1.7,3c-0.9,1.1-0.9,1.1-1.5-0.1c-0.4-0.8-0.4-0.8,0.7-2.2C68.6,61.1,68.9,60.6,69.2,60.6z
		 M72.8,61c0,0.3-0.1,0.9-0.3,1.3c-1.3,3.8-4.2,7.5-6.6,8.4c-3.2,1-6.1-0.6-6.2-4.5c0.1-4.5,5.5-5.8,7.1-1.7c0.7,1.9-1.3,4.7-3,4.2
		c-1.8-0.5-2.5-3.2-1-3.9c0.9-0.4,1.9,0.3,1.7,1.3c-0.1,0.3-0.1,0.4,0.2,0.4c0.9-0.2,0.4-2-0.6-2.4c-2-0.9-3.5,1.8-2.2,3.9
		c1.6,2.4,4.2,1.9,5.7-1c0.3-0.5,0.7-1.2,1.1-1.6c0.9-1,1.2-1.4,2-2.8c0.4-0.7,0.7-1.2,0.9-1.5C71.8,61.1,72,61.2,72.8,61z
		 M79.9,61.2c0.4,0,0.7,0.3,0.7,0.8c0,0.4-0.6,2.3-0.9,2.7c-0.1,0.2-0.4,0.8-0.4,0.6c-0.4-1.2-1-1.6-1.1-1.9
		c-0.1-0.4,0.2-0.7,0.4-1.1C78.8,61.6,79.4,61.2,79.9,61.2z M86.5,61.6c0.5,0.2,1.1,0.5,1.6,0.7c0.2,0-2.5,7.6-2.7,7.6l-2.1-0.1
		C84.7,67.4,86.5,61.7,86.5,61.6z M115.1,72.6l2.7,1.6L100,102.4l-2.6-2L115.1,72.6z M70.7,73.2c16.6,0.1,39.5,0,39.5,0l-1,1.8
		c0,0-25-0.2-38.6-0.2V73.2z M48.3,74.4l0,9.3c-1.7-1.5-6.9-4.8-7-4.7C41.3,78.9,45.8,75.9,48.3,74.4z M119.4,75.3l1.7,1.1
		L102.4,106l-1-2L119.4,75.3z M70.7,75.7h2.6v2.9h-2.6V75.7z M76.7,75.7h3.2v2.9h-3.2V75.7z M83.6,75.7h3.2v2.9h-3.2V75.7z
		 M90.3,75.7h3.3v2.9h-3.3V75.7z M97.2,75.8h3.2v2.9h-3.2V75.8z M104,75.8h3.3v2.1l-0.5,0.9H104V75.8z M72,76.6
		c-0.3,0-0.6,0.3-0.6,0.6v0c0,0.3,0.3,0.6,0.6,0.6c0.3,0,0.6-0.3,0.6-0.6v0C72.6,76.8,72.4,76.6,72,76.6L72,76.6z M78.3,76.6
		c-0.3,0-0.6,0.3-0.6,0.6v0c0,0.3,0.3,0.6,0.6,0.6s0.6-0.3,0.6-0.6C78.8,76.8,78.6,76.6,78.3,76.6L78.3,76.6z M85.2,76.6
		c-0.3,0-0.6,0.3-0.6,0.6v0c0,0.3,0.3,0.6,0.6,0.6c0.3,0,0.6-0.3,0.6-0.6C85.8,76.8,85.5,76.6,85.2,76.6L85.2,76.6z M92.1,76.6
		c-0.3,0-0.6,0.3-0.6,0.6v0c0,0.3,0.3,0.6,0.6,0.6c0.3,0,0.6-0.3,0.6-0.6C92.6,76.8,92.4,76.6,92.1,76.6L92.1,76.6z M98.8,76.6
		c-0.3,0-0.6,0.3-0.6,0.6v0c0,0.3,0.3,0.6,0.6,0.6c0.3,0,0.6-0.3,0.6-0.6v0C99.4,76.8,99.1,76.6,98.8,76.6L98.8,76.6z M105.7,76.6
		c-0.3,0-0.6,0.3-0.6,0.6v0c0,0.3,0.3,0.6,0.6,0.6s0.6-0.3,0.6-0.6C106.3,76.8,106,76.6,105.7,76.6L105.7,76.6z M121.9,76.8
		l31.7,20.5l0,2.8l-33-21.3L121.9,76.8z M119.8,79.2l0.3,0.2l-1.3,2.1l-0.3-0.2L119.8,79.2z M70.8,79.5h35.6l-1.1,1.8l-34.5-0.1
		V79.5z M41.6,80.4c0.2,0,0.7,0.2,1.4,0.6c1.8,1,2.9,3,2.1,3.8c-0.7,0.7-2.2-0.8-3.2-2.8C41.4,80.9,41.2,80.4,41.6,80.4z
		 M104.6,82.2l-11.5,18.3c-2.6-3.5-5.5-6.6-11.9-4.5c-3.3-2.6-6.8-2.9-10.5-0.8l0-12.9L104.6,82.2z M45.4,82.2l0.9,0.8
		c-0.3,0.5-0.4,1.2-0.6,1.9C45.8,83.9,45.7,83,45.4,82.2z M118.3,82.4l35.4,23.2v2.2L117,84.2L118.3,82.4z M40.8,82.9
		c0.4,0,0.9,0.2,1.2,0.6c0.6,0.6,0.3,1.8-0.4,2.3c-1.5,1-3.3-1-2.1-2.3C39.9,83.1,40.3,82.9,40.8,82.9z M46.6,83.2l1.9,1.5
		c-3.4,19.1,6.2,38.3,26.9,44.1l0.2,2.4c0,0.1-8.8-2.6-12.6-5.5c-5.3-3.5-9.7-8.5-12.8-14.3c-2.1-3.7-3.2-7.9-4-11.2
		C45.4,94.5,45.4,88.8,46.6,83.2z M44.4,85.7c0.7,0,0.8,0.6,0.2,1.6c-0.8,1.3-1.9,2.2-3.8,3c-1,0.4-1.3,0.2-1.2-0.9
		c0.2-1.6,1.3-2.8,3.3-3.5C43.5,85.9,43.9,85.7,44.4,85.7z M50.1,86c0.3,0.3,0.4,0.3,0.8,0.6c-0.6,0.2-1.1,0.8-1.1,1.5
		c0,0.9,0.7,1.6,1.6,1.6c0.8,0,1.5-0.6,1.6-1.3c0.3,0.2,0.6,0.5,0.8,0.7c-0.4,0.9-1.3,1.6-2.4,1.6c-1.4,0-2.5-1.1-2.5-2.5
		C48.8,87.2,49.3,86.4,50.1,86z M51.4,87.2l0.3,0c0.2,0.2,0.4,0.3,0.6,0.5c0.1,0.1,0.1,0.2,0.1,0.4c0,0.5-0.4,0.9-0.9,0.9
		c-0.5,0-0.9-0.4-0.9-0.9C50.5,87.6,50.9,87.2,51.4,87.2z M45.3,87.8c-0.2,2.5-0.1,5-0.1,7.6c-0.5-2-1.5-3.6-3.3-4.6
		C43.1,90,44.4,88.9,45.3,87.8z M54.6,89.7l1.7,1.5c-1.5,20.2,16.3,27.8,16.7,27.5l0.7,2.3C61.6,116.8,53.1,104.2,54.6,89.7z
		 M125.2,90.6c0.2,0,0.3,0.3,0.3,1c0,6.5,2,33.5,28,46.5l-0.1,2.5c-13.9-5.4-29.8-25.2-29.6-44.2c-3.6,5.5-5.6,9.1-8.6,14l-2.4-1.2
		c4-6,7.8-12.3,11.9-18.2C124.8,90.8,125,90.5,125.2,90.6z M40.4,91.3c0.4,0,1.1,0.2,1.9,0.7c1.3,0.8,2.7,3.5,2.2,4.1
		C44,96.6,42.1,96,41.2,95C39.4,93.1,39.2,91.4,40.4,91.3z M51.2,91.6c1.4,0,2.5,1.1,2.5,2.5c0,1.4-1.1,2.5-2.5,2.5
		s-2.5-1.1-2.5-2.5C48.7,92.7,49.8,91.6,51.2,91.6z M56.9,91.8l1.7,1.9c0.3,16.9,13.7,22.2,13.6,22.2l0.4,1.8
		C71.8,117.9,56,110.7,56.9,91.8z M51.2,92.5c-0.9,0-1.6,0.7-1.6,1.6c0,0.9,0.7,1.6,1.6,1.6s1.6-0.7,1.6-1.6
		C52.8,93.2,52.1,92.5,51.2,92.5z M51.2,93.2c0.5,0,0.9,0.4,0.9,0.9c0,0.5-0.4,0.9-0.9,0.9s-0.9-0.4-0.9-0.9
		C50.3,93.6,50.7,93.2,51.2,93.2z M59.8,94.7c0.2,0,1.2,1.4,1.2,1.4s-1.1,0.4-1.5-0.1C59,95.6,59.2,94.7,59.8,94.7z M133.2,95.4
		l2.5,1.7c1.2,11.4,7.7,21.9,17.6,29.1l-0.1,2.8C141.2,120.8,134.5,109.8,133.2,95.4z M40.2,95.5c1.5,0,2.2,2.4,0.5,3
		c-1,0.4-2.1-0.2-2.2-1.2c-0.1-0.7,0.5-1.5,1.2-1.7C39.9,95.6,40.1,95.5,40.2,95.5z M60.9,97.1c0.4,0,0.8,0.2,1.2,0.7
		c1.1,1.2,1.1,1.6-0.1,2c-1.6,0.7-3-0.3-2.4-1.6C59.9,97.4,60.3,97.1,60.9,97.1L60.9,97.1z M44.3,97.1c0.1,0,0.3,0,0.4,0.1
		c1.2,0.5-1.4,5.2-3.1,5.7c-1.1,0.3-1.3-0.1-1-1.8C41,99.2,43,97.2,44.3,97.1z M51.9,97.2c1.4,0,2.5,1.1,2.5,2.5
		c0,1.4-1.1,2.5-2.5,2.5s-2.5-1.1-2.5-2.5C49.4,98.4,50.5,97.2,51.9,97.2z M51.9,98.2c-0.9,0-1.6,0.7-1.6,1.6c0,0.9,0.7,1.6,1.6,1.6
		c0.9,0,1.6-0.7,1.6-1.6C53.5,98.9,52.8,98.2,51.9,98.2z M45.6,98.3c0.2,2.3,0.6,4.5,1.6,7.4c-1-1.6-2.4-2.3-3.7-3.2
		C44.4,101.1,45.5,99.7,45.6,98.3z M51.9,98.9c0.5,0,0.9,0.4,0.9,0.9c0,0.5-0.4,0.9-0.9,0.9s-0.9-0.4-0.9-0.9
		C51,99.3,51.4,98.9,51.9,98.9z M66.3,99.1c2.6-0.1,4.5,2.1,4.4,4.2c0.1,2.4,0.2,4,0,7l-2.1-3.9c0-1.1,0.2-2,0.1-3.1
		c-0.2-3-3.2-2.6-3.3-2.3l-0.9-1.5C65,99.3,65.6,99.2,66.3,99.1z M75.6,99.4c2.5,0,3.9,1.4,4,3.9c0.1,4.7-0.1,15.6-0.1,15.6l-5.4,0
		l-2.9-7.2c0,0-0.1-0.7-0.1-1.2c0.2-2.3,0.1-4.9,0.1-7C71.5,101.2,73.4,99.4,75.6,99.4z M63.2,100.2c0.3,0,0.7,0.1,0.9,0.3
		c1.2,1.3,1.2,2.1,0,2.6c-1.7,0.7-2.5,0.6-3.1-0.5C60.4,101.6,61.9,100.2,63.2,100.2z M141.3,100.5l1.4,0.9c0,0-0.3,0.4-0.4,0.7
		c-0.8,1.3,0.5,2.1,2.4,1.4c0.3-0.1,0.6-0.3,0.6-0.3l1.1,0.8c0,0-0.8,0.4-1.7,0.9c-2.3,1.1-4,0.6-4.4-1.3
		C139.9,102.2,140.3,101.5,141.3,100.5z M83.8,100.7c2.1-0.1,4.1,1.5,4.6,3.7c0.2,1-0.1,14.5-0.1,14.5l-8.2,0l0.1-14.1
		c-0.1-0.9,0-1.8,0.5-2.4C81.6,101.2,82.7,100.7,83.8,100.7z M75.3,101.3c-1.7,0.1-2.6,2.8-0.9,4c0.7,0.5,0.7,0.6,0.3,2.4
		c-0.4,2,0,4.8,1,6.4c0.8,1.3,0.6,0.6,0.2-0.5c-0.5-2.2-0.3-3.8,1-6.3c1.1-2.1,2.2-5.4-1.4-6C75.5,101.3,75.4,101.3,75.3,101.3z
		 M143.6,101.9l0.7,0.5c-0.4,0.6-1,0.6-1.3,0.4C142.7,102.4,143.6,101.9,143.6,101.9z M84.3,103c-1.8-0.1-3,3.2-0.7,4
		c0.5,0.3,0.6,0.8,0.3,1.4c-0.4,0.8-0.9,2.8-0.8,3.6c0.1,1.2,0.4,2.7,0.6,3.3c0.6,1.5,0.5,0.9,0.3-0.8c-0.1-1.9,0.3-3.3,1.4-5.1
		c1.3-2.2,3.1-5.7-1-6.4L84.3,103z M53.5,103c1.4,0,2.5,1.1,2.5,2.5c0,1.4-1.1,2.5-2.5,2.5s-2.5-1.1-2.5-2.5
		C51,104.1,52.1,103,53.5,103z M65.3,103.2c0.5,0,0.8,0.3,1.2,0.9c1.1,1.6,1,2-1.1,3.1c-2.2,1.2-3.7-1.9-1.6-3.3
		C64.4,103.5,64.8,103.3,65.3,103.2z M42.1,103.3c2.4,0,6,3.4,4.2,3.9c-0.3,0.1-0.6,0.1-0.7,0.1C42.6,107.1,39.2,103.3,42.1,103.3z
		 M53.5,103.9c-0.9,0-1.6,0.7-1.6,1.6c0,0.9,0.7,1.6,1.6,1.6c0.9,0,1.6-0.7,1.6-1.6C55.1,104.6,54.4,103.9,53.5,103.9z M147,104.4
		l1.2,0.8c0,0-0.7,0.3-1.6,0.8c-2.3,1.2-3,2.1-2.2,2.9c0.3,0.3,0.6,0.4,1.2,0.2c1.6-0.6,3.1-1.7,4.6-2.6l0.9,0.6
		c0,0-3.5,2.5-5.4,3.5c-3,1.5-4.7-1.6-3-3.7C143.9,105.7,145.3,105.2,147,104.4z M53.5,104.6c0.5,0,0.9,0.4,0.9,0.9
		c0,0.5-0.4,0.9-0.9,0.9c-0.5,0-0.9-0.4-0.9-0.9C52.6,105,53,104.6,53.5,104.6z M148.8,105.4l0.6,0.4c0,0-0.1,0-2,1.2
		c-2.1,1.2-2.2,1.2-2.3,1.1c-0.1-0.1,0-0.6,0.7-1C146.9,106.3,148.9,105.4,148.8,105.4z M93.2,105.5c1.5,0,2.9,0.7,3.8,2.1
		c0.4,1.1,0.5,2.2,0.5,3.3l0,7.9h-8.3c0,0-0.4-5.4,0-9.9C89.5,106.8,91.3,105.5,93.2,105.5z M67.4,106.7c0.5,0,0.9,0.5,1.4,1.6
		c0.5,1.1,0.1,1.7-1.4,2.4c-0.2,0.1-0.4,0.1-0.5,0.1c-1.6-0.1-2.2-2-1.1-3.1C66.5,107.1,67,106.7,67.4,106.7z M151.7,107.5l0.7,0.4
		c0,0-0.4,0.3-3,2.3c-2.2,1.6-2.5,2-2,2.9c0.4,0.7,1.2,0.6,2.2-0.2c1.5-1.2,3.9-3.1,3.9-3.1v1.3c-1.6,1.3-3.4,3.3-4.9,4.1
		c-2.9,1.4-5-2.4-2.3-4.3C148.6,109.2,151.7,107.5,151.7,107.5z M93.5,107.5c-2.2,0-3,3.2-0.6,3.9c0.7,0.4,0.6,0.5,0.2,2.1
		c-0.3,1-0.4,2.2-0.2,2.9c0.2,1,0.4,0.9,0.3-0.1c0-0.6,0.6-2.1,1.2-3C96.5,110.3,95.9,107.5,93.5,107.5z M43,107.5
		c1.4,0,2.2,2,1,2.8c-0.9,0.6-2.7-0.1-2.7-1.1c0-0.8,0.6-1.6,1.4-1.7C42.8,107.5,42.9,107.5,43,107.5z M47.1,107.7
		c0.5,0,0.7,0.7,0.7,2c0,1.9-0.7,3.5-1.8,4.4c-1.7,1.4-2-2.4-0.5-4.9C46.2,108.2,46.7,107.7,47.1,107.7z M56.1,108.3
		c1.4,0,2.5,1.1,2.5,2.5s-1.1,2.5-2.5,2.5s-2.5-1.1-2.5-2.5S54.7,108.3,56.1,108.3z M152.8,108.3c0.2,0.2,0.5,0.3,0.5,0.4
		c-1.8,1.3-2.5,2.1-4.3,3.4c-0.6,0.4-1.2,0.3-0.9-0.2C149.7,110.6,151.1,109.4,152.8,108.3z M56.1,109.2c-0.9,0-1.6,0.7-1.6,1.6
		s0.7,1.6,1.6,1.6c0.9,0,1.6-0.7,1.6-1.6S57,109.2,56.1,109.2z M25.7,109.2c17.2,8.6,27.8,24.8,30.5,43.2l8.3-13.2l2.3,0.8
		l-12.1,19.7l-0.5-0.2c-0.1-19.3-9.7-37.5-28.4-47.5L25.7,109.2z M56.1,109.9c0.5,0,0.9,0.4,0.9,0.9c0,0.5-0.4,0.9-0.9,0.9
		s-0.9-0.4-0.9-0.9C55.2,110.3,55.6,109.9,56.1,109.9z M49,110c0.8,1.7,1.7,3.4,3.1,5.4c-1.4-1.3-3-1.3-4.5-1.5L49,110z M69.4,110.3
		c0.3,0,0.5,0.1,0.7,0.4c0.7,1,0.8,1.9,0.3,2.3c-0.7,0.7-1.7,0.4-2.2-0.5C67.8,111.6,68.6,110.4,69.4,110.3z M153.5,111.8v1.5
		c-1,1.1-2.3,1.9-3,3.2c-0.5,1.1,0.8,1.7,2,0.8c0.4-0.3,1-0.8,1-0.8v1.8c-1,0.8-2,1.6-3.3,1.4c-0.8-0.2-1.5-0.8-1.6-1.6
		c-0.6-2.3,1.7-3.5,3.4-5.1C152.7,112.6,153.5,111.8,153.5,111.8z M59.6,113h0.1c1.4,0,2.5,1.1,2.5,2.5s-1.1,2.5-2.5,2.5
		s-2.5-1.1-2.5-2.5C57.2,114.2,58.3,113.1,59.6,113z M105.4,113.5c0.8,0,2.2,1.3,2.4,1.5c0.8,0.8,1.4,3.3,0.9,3.8
		c-1,1.1-4.1-2.5-3.9-4.8C104.9,113.6,105.1,113.5,105.4,113.5z M110.6,113.6c1.4,0,2.1,1.9,1,2.9c-0.4,0.4-1.4,0.7-2,0.3
		C108,115.7,109.2,113.6,110.6,113.6z M70.7,113.7c0.6,0,0.7,0.5,0.6,0.8c-0.1,0.3-0.6,0.3-0.9,0.2C69.7,114.4,70,113.7,70.7,113.7z
		 M59.8,113.9c-0.9,0-1.6,0.7-1.6,1.6s0.7,1.6,1.6,1.6c0.9,0,1.6-0.7,1.6-1.6S60.7,113.9,59.8,113.9z M47.7,114.6
		c3.1,0,6.3,2.4,3.5,2.9c-2.1,0.4-3.4-0.1-5.1-1.5c-0.8-0.8-0.5-1.1,1-1.3C47.3,114.6,47.5,114.6,47.7,114.6z M59.8,114.6
		c0.5,0,0.9,0.4,0.9,0.9s-0.4,0.9-0.9,0.9s-0.9-0.4-0.9-0.9S59.3,114.6,59.8,114.6z M64,116.9h0.1c1.4,0,2.5,1.1,2.5,2.5
		s-1.1,2.5-2.5,2.5c-1.4,0-2.5-1.1-2.5-2.5C61.6,118.1,62.7,117,64,116.9z M113.8,117c0.7,0,1.4,0.1,1.7,0.5
		c0.4,0.4-0.2,1.2-1.6,1.9c-1.6,0.8-4.4,0.7-4.4-0.2C109.6,118.1,112,117.1,113.8,117z M52.8,117.7c1.4,0,1.8,4.4,0.6,6.4
		c-0.6,1.1-1.5,0.4-2.1-1.8C50.8,120.6,51.7,117.7,52.8,117.7z M64.1,117.8c-0.9,0-1.6,0.7-1.6,1.6s0.7,1.6,1.6,1.6
		c0.9,0,1.6-0.7,1.6-1.6S65,117.8,64.1,117.8z M116.6,118.1c0.2,0,0.4,0,0.6,0.1c1.5,0.8,2.7,4.3,1.9,5.8c-0.8,1.6-2.7-1.5-2.7-4.6
		C116.3,118.5,116.4,118.1,116.6,118.1z M48.9,118.3c1.4,0,2.4,1.9,1.1,2.9c-0.6,0.4-1.5,0.5-2,0.2c-1.1-0.7-1-2.3,0.1-2.9
		C48.4,118.4,48.6,118.3,48.9,118.3z M64.1,118.5c0.5,0,0.9,0.4,0.9,0.9c0,0.5-0.4,0.9-0.9,0.9c-0.5,0-0.9-0.4-0.9-0.9
		C63.2,118.9,63.6,118.5,64.1,118.5z M54.7,118.8c0.8,1.1,3.8,4.1,4.3,4.4c-1.4-0.4-2.8-0.3-4.2-0.1
		C54.9,122.1,55.1,120.4,54.7,118.8z M104.1,119.1c20.9,4.9,33.6,26.9,28.6,47.6c0,0-1.8-1-2-1.4c0.7-3.6,1.2-9.3,0.3-15
		c-1.6-9.7-9.4-23.9-26.7-28.7C104,120.9,104.1,119.1,104.1,119.1z M115.3,119.2c0.2,1.4,0.5,2.8,0.8,4.1c-1.5-1.1-3.1-2-4.8-2.7
		C112.5,120.4,113.6,120.2,115.3,119.2z M121.4,119.7c0.8,0,1.7,0.6,1.7,1.6c0,0.4-0.5,1.3-0.9,1.4c-1.4,0.7-2.8-0.6-2.2-2.1
		C120.2,120,120.8,119.7,121.4,119.7z M69,120.2c1.4,0,2.5,1.1,2.5,2.5c0,1.4-1.1,2.5-2.5,2.5c-1.4,0-2.5-1.1-2.5-2.5
		C66.4,121.4,67.6,120.2,69,120.2z M69,121.2c-0.9,0-1.6,0.7-1.6,1.6c0,0.9,0.7,1.6,1.6,1.6c0.9,0,1.6-0.7,1.6-1.6
		C70.6,121.9,69.8,121.2,69,121.2z M25.8,121.4c10.4,6.1,19.7,19.1,20.4,33.7l-2.5-1.6c-1.1-9.9-6.2-20.6-17.9-29.4
		C25.7,124.1,25.7,123.1,25.8,121.4z M83.2,121.4h13.4v2.9l4-2.1v6.4l-4-2.4v2.8H83.2V126l-4.1,2l0-6.3l4.1,2.3L83.2,121.4z
		 M69,121.9c0.5,0,0.9,0.4,0.9,0.9c0,0.5-0.4,0.9-0.9,0.9s-0.9-0.4-0.9-0.9C68.1,122.3,68.5,121.9,69,121.9z M74.2,122.4L74.2,122.4
		l0.2,0.9l-0.1,0c-0.9,0-1.6,0.7-1.6,1.6c0,0.9,0.7,1.6,1.6,1.6c0.2,0,0.4,0,0.6-0.1l0.2,0.9c-0.2,0.1-0.5,0.1-0.8,0.1
		c-1.4,0-2.5-1.1-2.5-2.5C71.8,123.5,72.9,122.4,74.2,122.4L74.2,122.4z M104.6,122.7c1.4,0,2.5,1.1,2.5,2.5c0,1.2-0.8,2.2-2,2.5
		l-0.2-0.9c0.7-0.2,1.2-0.8,1.2-1.6c0-0.9-0.7-1.6-1.6-1.6l-0.1,0l-0.2-0.9L104.6,122.7z M122.3,123.5c3.1,0,4.4,1.8,1.9,2.6
		c-1.2,0.4-2.7,0.2-4.3-0.5C118.6,125,120.3,123.5,122.3,123.5z M56.9,123.7c0.8,0,1.5,0.1,2,0.4c1.3,0.6,1.3,1-0.1,1.8
		c-2,1.1-6.5,0-5.2-1.3C54.3,124.1,55.6,123.7,56.9,123.7z M74.4,124l0.2,0l0.3,1.6c-0.1,0.1-0.3,0.1-0.5,0.1
		c-0.5,0-0.9-0.4-0.9-0.9C73.5,124.4,73.9,124,74.4,124z M104.6,124.3c0.5,0,0.9,0.4,0.9,0.9c0,0.4-0.3,0.7-0.6,0.8L104.6,124.3z
		 M110.1,125c1.4,0,2.5,1.1,2.5,2.5c0,1.4-1.1,2.5-2.5,2.5s-2.5-1.1-2.5-2.5S108.7,125,110.1,125z M60.8,125.6
		c0.1,0,0.3,0.1,0.5,0.2c1.5,1.2,2.3,3.9,1.7,5.8c-0.6,1.9-2.9-1.4-2.9-4.1C60,126.3,60.3,125.6,60.8,125.6z M126.4,125.8
		c0.2,0,0.4,0.2,0.7,0.5c0.9,1.6,0.9,4.8-0.1,5.8c-0.6,0.6-0.8,0.5-1.3-0.7C124.7,129.4,125.4,125.8,126.4,125.8z M110.1,125.9
		c-0.9,0-1.6,0.7-1.6,1.6s0.7,1.6,1.6,1.6s1.6-0.7,1.6-1.6S111,125.9,110.1,125.9z M62.8,126.3c1.9,1.2,3.9,2.3,5.9,3.2
		c-1.9-0.5-3.3,0.2-4.8,1C64.2,129,63.7,127.7,62.8,126.3z M110.1,126.6c0.5,0,0.9,0.4,0.9,0.9c0,0.5-0.4,0.9-0.9,0.9
		s-0.9-0.4-0.9-0.9C109.2,127,109.6,126.6,110.1,126.6z M120.3,126.6c1.4,0.2,2.8,0.4,4.5,0.1c-0.3,1.4-0.4,2.8-0.3,4.3
		C123.3,129.5,121.9,128,120.3,126.6z M57.8,127.2c0.3,0,0.6,0.1,1,0.2c1.2,0.6,1.2,2,0.1,2.7c-1.4,0.9-3.3-0.7-2.4-2.1
		C56.9,127.5,57.3,127.2,57.8,127.2z M115.2,128.3c1.4,0,2.5,1.1,2.5,2.5c0,1.4-1.1,2.5-2.5,2.5c-1.4,0-2.5-1.1-2.5-2.5
		C112.7,129.4,113.8,128.3,115.2,128.3z M130.1,128.7c0.2,0,0.5,0,0.8,0.2c0.9,0.5,1.1,1.7,0.4,2.4c-0.8,0.8-1.9,0.6-2.4-0.3
		C128.2,129.9,129,128.7,130.1,128.7z M105.6,129c12.5,4.2,20.8,18.1,18.8,31.4l-1.6-1.5c1.2-7.6-3-22-16.9-27.9L105.6,129z
		 M115.2,129.2c-0.9,0-1.6,0.7-1.6,1.6c0,0.9,0.7,1.6,1.6,1.6s1.6-0.7,1.6-1.6C116.8,129.9,116.1,129.2,115.2,129.2z M115.2,129.9
		c0.5,0,0.9,0.4,0.9,0.9c0,0.5-0.4,0.9-0.9,0.9s-0.9-0.4-0.9-0.9C114.3,130.3,114.7,129.9,115.2,129.9z M67.8,130
		c0.6,0.1,1.7-0.1,2,0.5c0.3,0.8-1.3,2.1-3.3,2.3c-0.8,0-2.5,0.3-2.9-0.3C63.2,131.8,65.6,130.1,67.8,130z M28.1,130.5
		c1.7-0.1,3.6,2.2,1.9,4c-1.4,1.4-4.2,3.3-4.2,3.3v-1.2c0,0,2.7-2.3,2.8-3.2c0.3-2-1.8-0.8-2.9,0.1l0.2-2.1
		C26.4,130.8,27.3,130.5,28.1,130.5z M71.2,131c1.3,0,4.2,4.5,3.4,5.4c-0.6,0.7-3.1-0.8-3.8-2.6C70.4,132.9,70.3,131.1,71.2,131z
		 M90.5,131.5c0,0,0.1,10.4-0.5,11.4c-2.3,4.2-7.4,2-7.8-1.1c-0.3-1.9-0.1-10.2-0.1-10.2L90.5,131.5z M91.3,131.5h8.1
		c0,0,0,14.6-0.4,15.4c-0.3,0.7-1.4,1.9-2.2,2.2c-2.4,1-4.9-0.4-5.5-3.2C90.8,144,91.3,131.5,91.3,131.5L91.3,131.5z M100,131.5h5.4
		c0,0,0.2,0.8,0.4,1.4c0.4,1.1,1.6,4.3,1.8,4.5c0.7,0.9,0.7,10.4,0,11.5c-2.4,3.5-6.3,2.5-7.8-1.4C99.5,146.3,100,131.5,100,131.5z
		 M106.3,131.9c9.6,4.6,17,14.2,16.1,26.6l-1.8-1.8c0.6-8.6-5.9-19.3-13.5-22.4L106.3,131.9z M119.6,132.2c1.4,0,2.5,1.1,2.5,2.5
		c0,1.4-1.1,2.5-2.5,2.5c-1.4,0-2.5-1.1-2.5-2.5C117,133.3,118.2,132.2,119.6,132.2z M129.1,132.5c0.9,0,2.1,0.3,3,1
		c1,0.8,1.2,1.5,0.4,1.8c-1.5,0.5-3.4,0-4.6-1.1C126.8,133.1,127.7,132.4,129.1,132.5z M119.6,133.1c-0.9,0-1.6,0.7-1.6,1.6
		c0,0.9,0.7,1.6,1.6,1.6s1.6-0.7,1.6-1.6C121.2,133.8,120.5,133.1,119.6,133.1z M68.8,133.3c1.4,0,2,1.9,0.9,2.9
		c-0.4,0.4-1.6,0.5-2.1,0.2C66.3,135.4,67.1,133.3,68.8,133.3L68.8,133.3z M86.7,133.8c-0.4,1.3-1.2,2.7-1.8,3.7
		c-1.6,2.7-1.4,4.4,0.3,5.3c2.5,1.3,4.3-2.2,1.8-3.6c-0.9-0.5-0.9-0.5-0.5-1.8C86.9,135.8,87,133.8,86.7,133.8z M119.6,133.8
		c0.5,0,0.9,0.4,0.9,0.9c0,0.5-0.4,0.9-0.9,0.9s-0.9-0.4-0.9-0.9C118.7,134.2,119.1,133.8,119.6,133.8z M95.4,134.3
		c-0.1,0,0,0.7,0,1.8c0,1.9-0.2,2.5-1.4,5c-1.5,3.2-1.3,5.4,0.6,6.2c1.5,0.6,2.9-0.6,2.9-2.3c0-0.8-0.4-1.5-0.9-1.6
		c-0.5,0-1.1-0.3-1-0.5C95.8,140.9,97.5,137.3,95.4,134.3z M127.3,134.6c1.3,0.8,2.5,1.5,4.4,1.6c-0.8,1.9-0.7,3.3-0.8,4.8
		C130.1,139,128.9,136.7,127.3,134.6z M32.1,134.9c1.2,0,2.2,1.7,1.9,2.9c-0.3,1-0.4,1.2-4.2,3.7c-2.1,1.4-2.4,1.5-2.4,1.5l-1.1-0.8
		c0,0,1-0.6,2.5-1.7c3-2,3.4-2.5,3.1-3.3c-0.3-1-1.4-0.8-3.2,0.6c-2.6,2-2.9,2.1-2.9,2.1v-1.2C27.8,137.3,30.2,134.9,32.1,134.9z
		 M108.3,135.4c0.4,0,0.6,0.2,0.5,0.5c0,0.1-0.2,0.2-0.4,0.2C107.9,136.1,107.9,135.5,108.3,135.4L108.3,135.4z M103.5,135.7
		c0.2,2.7,0.3,4.9-0.9,7.1c-1.6,2.8-1.2,5.3,0.5,5.8c1.8,0.5,3.3-0.7,3-2.4c-0.1-0.5-0.8-1.4-1.2-1.5c-0.5-0.1-0.6-0.5-0.3-1.5
		c0.6-2.1,0.4-4.7-0.5-6.6C104,136.4,103.7,135.7,103.5,135.7z M133.5,135.8c0.3-0.1,0.6,0.2,0.8,1c0.5,1.9-0.6,5-1.3,5.4
		c-0.8,0.8-1.2,0-1.4-1.9C131.6,139.1,132.6,136,133.5,135.8z M109.4,136.6c1.5,0,2.2,1.9,1.1,2.9c-0.6,0.6-1,0.3-1.7-1.1
		C108.2,137.2,108.4,136.6,109.4,136.6z M123.2,137c1.4,0,2.5,1.1,2.5,2.5c0,1.4-1.1,2.5-2.5,2.5c-1.4,0-2.5-1.1-2.5-2.5
		C120.6,138.2,121.8,137,123.2,137z M123.2,137.9c-0.9,0-1.6,0.7-1.6,1.6s0.7,1.6,1.6,1.6c0.9,0,1.6-0.7,1.6-1.6
		S124.1,137.9,123.2,137.9z M123.2,138.7c0.5,0,0.9,0.4,0.9,0.9s-0.4,0.9-0.9,0.9s-0.9-0.4-0.9-0.9S122.7,138.7,123.2,138.7z
		 M112.3,139.3c0.2,0,0.4,0,0.6,0.1c1.3,0.6,1.2,2.5-0.3,3.6c-0.9,0.7-1.3,0.5-2.2-1.3C109.9,140.7,111.2,139.4,112.3,139.3z
		 M34.7,139.6c0.2,0,0.4,0,0.6,0c1.4,0.2,2.2,2,1.9,3.2c-0.8,1.9-3.3,2.5-5.3,3.3l-1-0.7c0,0,1.4-0.8,2.8-1.4
		c1.3-0.6,1.5-0.8,1.4-1.6c-0.2-1.5-0.9-1.4-4.1,0.3c-1.3,0.7-2.3,1.3-2.3,1.3l-0.7-0.6c1.1-0.7,1.7-1.1,2.9-1.9
		C32.3,140.7,33.3,139.7,34.7,139.6z M136.5,139.8c0.6,0,1.1,0.3,1.3,0.8c0.5,1.4-0.5,2.7-1.9,2.1c-0.8-0.3-1.3-1.3-0.9-2.2
		C135.3,140,135.9,139.8,136.5,139.8z M108.7,140.1l2.3,4.1c0,0,0,1.1,0,1.8c0.1,2.6,0.7,3.5,2.2,3.3c0.1,0,0.7-0.2,0.7-0.2l1,1.7
		c0,0-1.1,0.5-1.3,0.5c-1.8,0.4-4.4-1-4.8-2.8C108.4,146.7,108.7,140.1,108.7,140.1L108.7,140.1z M34.2,141.8
		c0.4,0.1,0.1,0.6-0.1,0.8c-1.3,0.7-2.6,1.4-4,2.2l-0.9-0.6c1.6-0.8,3.1-1.9,4.9-2.4L34.2,141.8z M125.6,142.3
		c1.4,0,2.5,1.1,2.5,2.5c0,1.4-1.1,2.5-2.5,2.5s-2.5-1.1-2.5-2.5C123.1,143.5,124.2,142.3,125.6,142.3z M114.9,142.7
		c0.6,0,1.1,0.2,1.4,0.8c0.7,1.1,0,2.5-1.7,3.2c-0.9,0.4-1.1,0.3-2-1.1c-0.7-1-0.7-1.2,0.1-1.8C113.5,143.1,114.2,142.7,114.9,142.7
		z M25.9,142.9l36.3,23.4l-1,1.8l-35.2-23L25.9,142.9z M133.8,143.2c2.2,0,5.1,2.6,4.1,3.6c-0.1,0.1-0.3,0.2-0.5,0.2
		C134.3,146.8,130.8,143.1,133.8,143.2z M125.6,143.2c-0.9,0-1.6,0.7-1.6,1.6c0,0.9,0.7,1.6,1.6,1.6s1.6-0.7,1.6-1.6
		C127.3,144,126.5,143.2,125.6,143.2z M77.1,143.7l1,2.5L60,174.9l-1.8-1.1L77.1,143.7z M125.6,143.9c0.5,0,0.9,0.4,0.9,0.9
		c0,0.5-0.4,0.9-0.9,0.9s-0.9-0.4-0.9-0.9C124.7,144.4,125.1,143.9,125.6,143.9z M132.3,144.2c0.9,1.6,2.4,2.6,4,3.4
		c-1.6,1.3-2.4,3-2.3,4.8C133.6,149.7,133.2,147.1,132.3,144.2z M36.7,145.1c0.4,0,0.7,0.1,1,0.3c3.4,2.3,0.3,4.6,0,4.4l-1.2-0.7
		c0.4-0.7,1.3-1.5-0.2-2.4c-0.8-0.4-1.7,0.1-2.5,0.6l-1.2-0.8C32.7,146.5,35,145.1,36.7,145.1L36.7,145.1z M116.6,146.4
		c0.1,0,0.3,0,0.4,0c1.9,0.4,1.8,2.4-0.2,3.3c-1.1,0.5-1.3,0.4-2.3-1.3C114,147.7,115.4,146.5,116.6,146.4z M36.1,147.2
		c0.2,0,0.5,0.2,0.5,0.3c0.1,0.5-0.9,1.1-0.9,1.1l-1.1-0.7C35.1,147.6,35.6,147.2,36.1,147.2z M138,147.6c0.3,0,0.5,0.1,0.6,0.4
		c0.4,1.6-1.4,4.5-3,5c-0.9,0.3-1.2-0.2-0.9-1.5C135.1,149.7,137,147.7,138,147.6z M79.4,147.8l2.9,2.1l-17.8,27.8l-2.9-1.8
		L79.4,147.8z M127.4,148c1.4,0,2.5,1.1,2.5,2.5s-1.1,2.5-2.5,2.5c-1.4,0-2.5-1.1-2.5-2.5S126,148,127.4,148z M127.4,148.9
		c-0.9,0-1.6,0.7-1.6,1.6s0.7,1.6,1.6,1.6c0.9,0,1.6-0.7,1.6-1.6S128.3,148.9,127.4,148.9z M127.4,149.6c0.5,0,0.9,0.4,0.9,0.9
		s-0.4,0.9-0.9,0.9s-0.9-0.4-0.9-0.9S126.9,149.6,127.4,149.6z M86.9,149.7c1.9,2.2,4.1,7,11.6,4.7c2.6,2.1,6.1,3.3,10.4,1l0,13
		l-33.4,0L86.9,149.7z M25.9,150l32.8,21.5l-1,1.8l-31.9-20.3L25.9,150z M118.2,150.1c1.7,0.4,1.9,2.1,0.3,2.7
		c-0.8,0.3-1,0.3-1.8-0.9c-0.3-0.5-0.5-0.9-0.5-1C116.9,150.5,117.6,150.2,118.2,150.1z M139.2,151.8c0.6,0,1.2,0.3,1.4,0.9
		c0.4,0.9,0.2,1.7-0.7,2.2c-1.4,0.8-3-0.7-2.2-2.2C138.1,152.1,138.7,151.8,139.2,151.8z M118.7,153.6c0.8,0,1.4,0.7,1,1.2
		c-0.2,0.3-0.6,0.2-1-0.3C118.3,154,118.2,153.6,118.7,153.6z M128.1,153.9c1.4,0,2.5,1.1,2.5,2.5s-1.1,2.5-2.5,2.5
		c-1.4,0-2.5-1.1-2.5-2.5S126.7,153.9,128.1,153.9z M135.2,154.1c1.9,0,4.6,3.2,4.1,4.9c-0.1,0.6-1.2,0.3-2.5-0.7
		C135.1,157,134,154,135.2,154.1z M128.1,154.8c-0.9,0-1.6,0.7-1.6,1.6s0.7,1.6,1.6,1.6c0.9,0,1.6-0.7,1.6-1.6
		S129,154.8,128.1,154.8z M134.2,155.2c0.5,1.5,1.1,3.1,3.5,4.3c-3.7,1.7-4.4,4.6-3.8,8.3l-0.9-0.5
		C133.8,163.9,134.4,160.1,134.2,155.2z M128.1,155.5c0.5,0,0.9,0.4,0.9,0.9s-0.4,0.9-0.9,0.9c-0.5,0-0.9-0.4-0.9-0.9
		S127.6,155.5,128.1,155.5z M127.6,159.6c1.4,0,2.5,1.1,2.5,2.5c0,0.9-0.5,1.7-1.1,2.1l-0.8-0.6c0.6-0.2,1-0.8,1-1.5
		c0-0.9-0.7-1.6-1.6-1.6c-0.8,0-1.5,0.7-1.6,1.5l-0.8-0.6C125.5,160.3,126.5,159.6,127.6,159.6L127.6,159.6z M139.2,159.9
		c1.2,0-0.7,3.3-2.4,4.3c-1.3,0.7-2.5,0.7-2.5,0.1C134.3,162.6,137.3,159.9,139.2,159.9z M127.6,161.2c0.5,0,0.9,0.4,0.9,0.9
		c0,0.5-0.4,0.9-0.9,0.9c-0.5-0.1-0.9-0.4-0.9-0.9C126.7,161.6,127.1,161.2,127.6,161.2z M138.8,164.3c1.6,0.2,1.9,1.7,1,2.6
		c-1.5,1.4-3.4,0-2.5-1.9C137.6,164.5,138.2,164.2,138.8,164.3z M134.1,165.6c2,0.1,3.6,2.8,3.2,4.2c-1.3-0.7-2.6-1.6-2.8-1.7
		C134.2,167.6,134.2,166.8,134.1,165.6z M131.3,167.2c2.2,1.4,4.3,2.7,6.4,3.8l-6.4,4.1L131.3,167.2z M74.6,169.1l34.2,0.1l0,1.4
		l-35.1,0L74.6,169.1z M73.2,171.3h2.3v2.8h-3.2v-1.5L73.2,171.3z M106.1,171.4h2.8v2.8h-2.8V171.4z M79,171.4h3.1v2.8H79V171.4z
		 M85.5,171.4h3.4v2.8h-3.4V171.4z M92.5,171.4h3.3v2.8h-3.3V171.4z M99.5,171.5h3.1v2.8h-3.1V171.5z M74,172.2
		c-0.3,0-0.6,0.3-0.6,0.6c0,0.3,0.3,0.6,0.6,0.6h0c0.3,0,0.6-0.3,0.6-0.6v0C74.5,172.5,74.3,172.2,74,172.2z M80.5,172.2
		c-0.3,0-0.6,0.3-0.6,0.6c0,0.3,0.3,0.6,0.6,0.6h0c0.3,0,0.6-0.3,0.6-0.6v0C81.1,172.5,80.8,172.2,80.5,172.2z M87.2,172.2
		c-0.3,0-0.6,0.3-0.6,0.6s0.3,0.6,0.6,0.6h0c0.3,0,0.6-0.3,0.6-0.6v0C87.8,172.5,87.5,172.2,87.2,172.2z M94.1,172.2
		c-0.3,0-0.6,0.3-0.6,0.6s0.3,0.6,0.6,0.6h0c0.3,0,0.6-0.3,0.6-0.6v0C94.7,172.5,94.5,172.2,94.1,172.2z M101,172.2
		c-0.3,0-0.6,0.3-0.6,0.6v0c0,0.3,0.3,0.6,0.6,0.6h0c0.3,0,0.6-0.3,0.6-0.6v0C101.6,172.5,101.3,172.2,101,172.2z M107.6,172.2
		c-0.3,0-0.6,0.3-0.6,0.6c0,0.3,0.3,0.6,0.6,0.6h0c0.3,0,0.6-0.3,0.6-0.6v0C108.2,172.5,107.9,172.2,107.6,172.2L107.6,172.2z
		 M71,174.9l37.9,0.1v1.7l-39-0.1L71,174.9z M103.3,178.4c3.9,0,6.1,4.3,3.1,7.3c-2.8,2.8-7.4-0.8-5.1-3.9c1.3-1.7,4.5-0.3,3.7,1.5
		c-0.5,1.2-2.2,0.7-2.2-0.7c0-0.5-0.4-0.2-0.4,0.4c-0.1,0.7,0.7,1.5,1.5,1.5c2.2,0,2.6-3,0.4-4c-1.9-1-4,0.3-4.4,2.7
		c-0.1,0.3-0.4,0.9-0.6,1.4c-0.7,1.4-0.9,2.3-1.3,3.9c-0.2,0.2-0.7,0.5-1,0.7c-1.1,0.5-1.1,0.3-0.6-1.5
		C97.9,183.5,98.6,178.8,103.3,178.4z M114.8,178.7c2.4-0.1,4.2,1.9,4.5,3.4c1.4,4.6-4.8,7.4-6.9,3.2c-1.2-2.4,1.3-5.2,3.5-4.1
		c1.9,0.9,1.7,3.7-0.2,3.7c-1,0-1.7-0.9-1.1-1.6c0.3-0.3,0.6-0.1,0.8-0.6c0.1-0.2-0.2-0.4-0.9-0.2c-1.2,0.2-1,2.6,0.3,3
		c2,0.7,3.7-1.4,2.8-3.5c-1.2-2.5-4.3-2.5-5.7,0.1c-0.2,0.4-0.5,0.9-0.7,1.2c-2.1,2.9-2.3,3.3-2.9,4.9c-0.1,0.2-0.2,0.3-0.4,0.3
		c-0.6,0-1.2,0.1-1.6,0.3c-0.3-0.1,0.1-1.1,0.1-1.2C107.9,183.2,111.6,178.8,114.8,178.7z M95.7,179.5c0.4,0,0.8,0.2,0.6,0.4
		c-0.5,0.9-2,3.7-3.1,7.9c-0.3-0.2-1-0.5-1.6-0.7c-0.2-0.1,0-0.3,0-0.7c0.4-1.9,1.6-5.2,3-6.9C94.7,179.5,95.3,179.5,95.7,179.5z
		 M98.2,179.5c1.5,0,0.8,0.5,0.2,1.2c-1.3,1.6-2.6,6-2.9,8.3c0,0.3-0.1,0.7-0.1,0.8c-0.2,0.7-1.5-0.8-1.5-1.7c0-1.5,1.7-6.2,2.9-7.9
		C97.3,179.7,97.3,179.6,98.2,179.5z M34.9,179.8c-0.3,0-0.6,0.1-0.9,0.1c-3,1-5,3.6-4.4,6.7c0.6,2.8,2.3,4.7,4.3,7.5
		c0,0-2.5,3.9-4.3,5.7l4.1,5.9c-1.1,2.2-3.1,3.9-3.6,6.7c-0.8,3.6,1.1,7.2,5.2,7.5c3,0.1,5-2,5.4-5.1c0.5-3.2-2.1-6.4-4.2-9.4
		c1.5-1.9,2.9-3.8,4.4-5.7l-4.2-5.9c2.9-4,4.8-7.2,4-10.2C40,181.6,37.1,179.8,34.9,179.8z M35,180.3c1.3,0,2.7,0.5,3.8,1.7
		c2.6,2.7,2.3,5-1,9.9c-0.7,1.1-1.5,2.3-1.5,2.3l4.2,5.8c-1.4,2-3,3.7-4.4,5.7c1.9,2.4,3.9,4.9,4.3,8.1c0.3,2.9-1.6,6-4.8,6.1
		c-3.2,0-5.6-2.6-5.5-5.9c0.1-3.3,2.1-5.5,3.9-8.1l-4.1-5.9l4.3-5.8c0,0-3.1-3.8-4.1-6.6c-0.8-3.1,0.7-4.9,0.9-5.2
		C32,181,33.5,180.3,35,180.3z M35.2,182.3c-2.2,0-4.5,2-2.8,6.3c0.6,1.6,1.6,2.8,2.8,4c1.1-1.2,2.3-2.9,2.9-4.5
		C39.7,184.4,37.4,182.3,35.2,182.3z M35.2,182.9c1.5,0.1,2.9,1.3,2.8,3.3c-0.3,2.3-1.5,3.7-2.9,5.6c-1.5-1.8-2.6-3.3-2.7-5.7
		C32.3,183.9,33.8,182.8,35.2,182.9z M111.4,184.5c0.1,0.7,0.8,1.8,0.7,2c-0.3,0.7-0.7,1-1.3,2.2c-0.1,0.2-0.1,0.3-0.4,0.2
		c-0.3,0-0.9-0.2-1.2-0.3c-0.2,0-0.4-0.1-0.3-0.4C109.4,186.9,110.1,185.3,111.4,184.5z M100,184.6c0.4,0.1,0.9,1.5,1.2,2l-0.7,1.9
		c-0.1,0.2-0.1,0.2-0.3,0.2c-0.4-0.1-0.8-0.1-1.2-0.1C98.1,188.4,99.8,185.1,100,184.6z M101.9,186.9L101.9,186.9
		c0.4,0,1,0.2,1.4,0.4c0.2,0.1,0.2,0.1,0.1,0.4c-0.2,0.4-0.5,1.6-0.7,2c0,0.1-1.3-0.8-1.6-0.9C101,188.6,101.4,187,101.9,186.9z
		 M105.8,187.1c0.4,0.1-0.2,2.1-0.3,2.3c-0.4,0.5-0.9,1.3-1.4,1.6c-0.2,0.1-0.9-0.3-0.9-0.8c0-0.4,0.7-2.1,0.9-2.6
		C104.1,187.5,105.3,187.1,105.8,187.1z M112.6,187.2c0.4,0,0.9,0.4,1.2,0.6c0.1,0.3,0,0.5-0.5,1.3c-0.4,0.7-0.8,1.5-1,1.4
		c-0.3-0.2-0.9-0.6-1.2-1c-0.2-0.3,0.2-1,0.5-1.5C112.2,187.4,112.4,187.2,112.6,187.2z M90,187.8c2.2-0.1,3.3,0.7,4.3,2.4
		c0.5,0.8,0.5,0.8,0.4,1.6c-0.3,1.7-0.2,2.9,0.3,4c0.5,1.2,0.4,1.6-0.8,4.3c-1.3,2.7-2.9,6-4,9.1c-0.5,1.3-1,2.8-1.3,4
		c-0.2,0.8-1.5,0.6-2.1,0.5c-0.5,0.1,0.7-3.1,2.4-6.9c1.4-3.1,3.3-6.5,4-9.9c0.6-2.8,0.4-3.9,0.1-5.1c-1.3-3.4-5.8-2.6-5.8,0.6
		c0.1,2,2.5,3.1,3.3,1.1c0.1-0.9-0.3-0.4-0.7,0.1c-0.8,1-2.2-0.1-2-1.5c0.3-1.8,2.7-2.5,3.8-1c1.3,1.6,1,3.3-0.8,4.5
		c-1.9,1.4-3.6,0.6-4.5-0.8C84.5,191.5,87.7,187.9,90,187.8z M99.2,189.2c1.9,0,3.9,1.6,4.2,2.8c0.2,0.8-0.1,1.8,0.2,2.6
		c0.3,0.7,0.5,1,0.3,1.6c-1.5,4.9-5.2,10.2-7,16.1c-0.2,0.4-0.4,0.5-0.9,0.6c-0.7,0.2-1,0.2-1.1-0.2c1.3-5.5,4.5-9.6,6.9-16.2
		c1.4-2.8-0.2-5.6-3.1-5.6c-2.3,0-3.3,3.6-1.3,4.6c2,1,3.4-1.7,1.7-2.6c-0.4-0.2-0.5,0-0.2,0.4c0.8,0.9,0.1,2.2-1,1.7
		c-1.7-0.8-0.8-3.6,1.1-3.4c3,0.3,3.4,4.6,0.3,5.7c-4.2,1.5-6.4-5.2-2.5-7.5C97.8,189.3,98.5,189.2,99.2,189.2z M108.1,189.3
		c1.1,0,2.3,0.4,3.2,1.3c2.4,2.3,1.7,5.7-2.3,12.5c-1.3,2.3-2.6,5-3.3,6.9c-0.2,0.5-0.3,0.7-0.7,1c-0.7,0.4-1.5,0.4-1.6,0.2
		c-0.3-0.7,1.7-4.9,5.2-11.6c0.9-1.8,2.1-3.8,2-6c-0.2-1.7-1.6-2.9-3.5-2.3c-1.3,0.4-1.8,2.1-0.8,3c0.4,0.4,0.9,0.6,1.2,0.5
		c0.6,0,1.2-0.6,0.1-0.6c-1.2,0-1.6-1.5-0.6-2.2c1.4-1,3.1,0.2,3,2.1c-0.2,3.8-5.8,3.2-5.9-0.7C104.1,191,106,189.4,108.1,189.3z
		 M92.4,195.4c0.8-0.1-0.6,4.4-3.1,9.5c-1.4,2.8-2.4,5.8-3.5,8.7c-0.3,0.4-2,0.5-2,0.1c3.1-9.5,5.3-11.5,6.3-15.3
		c0.2-0.6,0.3-1.6,0.3-1.7C91.2,196.5,91.9,195.6,92.4,195.4z M35.3,196l-3.3,4.2l3.2,4.5l3.3-4.3L35.3,196z M104.6,196.4
		c0.4,0,1.4,0.6,1.5,1c0,0.5-1,3-1.7,4.4c-3.2,6.4-4,8.2-4.5,9.9c-0.1,0.3-0.3,0.5-0.5,0.6c-0.4,0.1-1.5,0.4-1.6,0.2
		C98.4,208.7,103.6,200.2,104.6,196.4z M108.7,197c0.2,0,0.3,0.1,0.2,0.4c-0.1,0.5-0.7,1.6-1.6,3.5c-2.7,5.3-4.1,8.4-4.6,10
		c-0.1,0.4-0.2,0.7-0.4,0.8c-0.4,0.2-1.7,0.7-1.7,0.2c0.4-2.4,2-3.9,6.1-13.9c0.2-0.3,0.4-0.5,0.5-0.5
		C107.7,197.2,108.2,197,108.7,197z M95.9,197.5c0.6,0.1,1.6,0.6,1.7,1.1c-0.1,0.6-0.7,2-2,4.3c-2,3.4-4.4,10.5-4.4,10.5
		c-0.6,0.3-1.1,0.4-1.7,0.2c-0.2-1.1,1.5-5.1,3.4-9.4C93.9,201.9,95.1,199.6,95.9,197.5z M100.5,197.6c0.6,0,0.1,1-1.3,3.7
		c-2.1,4.1-3.5,7-4.9,11c-0.2,0.5-0.3,0.8-0.5,0.9c-0.4,0.2-1.4,0.2-1.6,0c-0.3-0.3,1.2-4.3,2.7-7.4c1.3-2.6,2.2-4.7,3.3-7.1
		c0.3-0.5,0.3-0.5,0.6-0.6C99.5,198.1,100.1,197.6,100.5,197.6z M35.4,198.1l1.7,2.2l-2,2.5l-1.6-2.4L35.4,198.1z M35.3,199.5
		l-0.6,0.9l0.6,0.9l0.6-0.9L35.3,199.5z M35.1,207.8c0,0-0.7,0.8-1.4,2.1c-2.2,3.6-2.2,6.2,0.3,7.8c1.1,0.5,2.5,0.4,3.3-0.3
		c2.9-2.5,0.7-5.9-1.1-8.3C35.7,208.4,35.1,207.8,35.1,207.8z M35.2,208.7c1.1,1.3,1.9,2.2,2.6,3.8c0.8,2.1,0.3,3.8-1.3,4.6
		c-2.5,1.2-4.8-1.6-3.6-4.5C33.8,210.3,35.2,208.7,35.2,208.7z M105.9,212.9c0.2,0.4-24,6-41.9,1.2l-10.9,15.7l62.9-0.1L105.9,212.9
		z M105,214c0,0,5.8,10.1,8.7,15h-4l-5.7-12.3c-3.1,0.9-6.1,1.5-9.2,1.9l2,10.4h-3l-1.7-9.9c-4.4,0.3-8.9,0.5-13.5,0.3l-2,9.6h-3.2
		l2-9.5C72,219,68.6,218.6,65,218l-5.9,11h-4.5l9.3-13.8C77.8,218,90.6,217.3,105,214z M102.8,219.4l4.6,9.6h-8.6l-1.6-8.6
		L102.8,219.4z M65.8,220.1l7.5,1l-1.9,7.9H61.2L65.8,220.1z M90.5,221.3l1,7.7h-13l1.4-7.6L90.5,221.3z"/>
	<path d="M48.2,26.8C40.9,37.3,33,43.4,32.8,51.6c0,2.7,1.4,7.2,5.9,8c2.9,0.6,6.9-1.8,7-6.6c0-1,1-0.9,1,0.4
		c-0.1,3.8-1.3,8.2-3.4,11.8c3.2,0,6.4,0,9.7,0c-2-3.6-3.2-8-3.4-11.8c0-1.3,1-1.3,1-0.4c0.1,4.8,4.1,7.2,7,6.6
		c4.5-0.9,5.9-5.4,5.9-8C63.5,43.4,55.6,37.3,48.2,26.8z"/>
	<path d="M131.1,223.9c-7.4-10.5-15.3-16.6-15.4-24.8c0-2.7,1.4-7.2,5.9-8c2.9-0.6,6.9,1.8,7,6.6c0,1,1,0.9,1-0.4
		c-0.1-3.8-1.3-8.2-3.4-11.8c3.2,0,6.4,0,9.7,0c-2,3.6-3.2,8-3.4,11.8c0,1.3,1,1.3,1,0.4c0.1-4.8,4.1-7.2,7-6.6
		c4.5,0.9,5.9,5.4,5.9,8C146.4,207.4,138.5,213.4,131.1,223.9z"/>
</g>
</svg>
