<?xml version="1.0" encoding="utf-8"?>
<!-- Generator: Adobe Illustrator 21.0.0, SVG Export Plug-In . SVG Version: 6.00 Build 0)  -->
<svg version="1.1" id="Layer_1" xmlns="http://www.w3.org/2000/svg" xmlns:xlink="http://www.w3.org/1999/xlink" x="0px" y="0px"
	 viewBox="0 0 178.6 249.4" style="enable-background:new 0 0 178.6 249.4;" xml:space="preserve">
<style type="text/css">
	.st0{fill:#FFFFFF;}
	.st1{fill:#E2CF00;}
	.st2{fill:#D40000;}
	.st3{fill:#131F67;}
</style>
<g>
	<path class="st0" d="M9.1,0.2h161.5c4.7,0,8.5,3.8,8.5,8.5v232.4c0,4.7-3.8,8.5-8.5,8.5H9.1c-4.7,0-8.5-3.8-8.5-8.5V8.8
		C0.5,4.1,4.4,0.2,9.1,0.2z"/>
	<path d="M165.3,209.7c3.1-0.1,4.6-3.8,2.2-6.6c-0.3-0.4-0.4-0.7,0.2-0.3c1.6,1.1,4.6,0.4,4.7-3c0.2-4.1-5.3-5.3-6.4-0.9
		c-0.1,0.5-0.4,0.5-0.3-0.2c0.1-1.8,0.6-3.4,1.4-5.1c-1.2,0-2.5,0-3.7,0c0.7,1.6,1.3,3.3,1.4,5.1c0.1,0.7-0.3,0.7-0.3,0.2
		c-1-4.4-6.5-3.2-6.4,0.9c0.2,3.3,3.2,4,4.7,3c0.6-0.4,0.6-0.2,0.2,0.3C160.8,206,162.2,209.6,165.3,209.7L165.3,209.7z"/>
	<path d="M14.3,40.2c-3.1,0.1-4.6,3.8-2.2,6.6c0.3,0.4,0.4,0.7-0.2,0.3c-1.6-1.1-4.6-0.4-4.7,3c-0.2,4.1,5.3,5.3,6.4,0.9
		c0.1-0.5,0.4-0.5,0.3,0.2c-0.1,1.8-0.6,3.4-1.4,5.1c1.2,0,2.5,0,3.7,0c-0.7-1.6-1.3-3.3-1.4-5.1c-0.1-0.7,0.3-0.7,0.3-0.2
		c1,4.4,6.5,3.2,6.4-0.9c-0.2-3.3-3.2-4-4.7-3c-0.6,0.4-0.6,0.2-0.2-0.3C18.9,44,17.5,40.3,14.3,40.2L14.3,40.2z"/>
	<polygon points="14.9,34.8 17.6,34.8 13.7,25.1 10.7,29.2 10.7,34.8 12.8,34.8 12.8,37.7 5.5,37.7 5.5,34.8 7.9,34.8 7.9,13.8 
		5.5,13.9 5.5,11.3 12.9,11.3 12.9,13.9 10.9,13.9 10.8,24.2 17.4,13.9 15.1,13.9 15.1,11.3 23,11.3 23,13.9 20.9,13.9 15.5,22.3 
		20.8,34.8 23.1,34.8 23.2,37.7 15,37.7 14.9,34.8 	"/>
	<polygon points="164.7,215.1 162.1,215.1 166,224.9 168.9,220.8 168.9,215.1 166.8,215.1 166.8,212.2 174.2,212.2 174.2,215.1 
		171.8,215.1 171.8,236.1 174.2,236.1 174.2,238.6 166.7,238.6 166.7,236 168.8,236 168.8,225.8 162.3,236.1 164.6,236.1 
		164.6,238.6 156.6,238.6 156.6,236.1 158.7,236.1 164.1,227.7 158.8,215.1 156.5,215.1 156.5,212.2 164.7,212.2 	"/>
	<path class="st1" d="M129.3,21l-65.7,0.3L72,37.2c17.1-1.5,32-0.2,47.6,0.3L129.3,21z M84.5,77c-0.1,0.1-2.7,0.8-2.5,1.4
		c7,15,10.1,27.2,13,42.6c1.5-1.2,3.8-1.2,3.8-1.2c-1.2-5.7,6-6.4,6-0.4c1.4,0.3,2.8,0.3,4,1.7c0.6-16.9,6.9-34.7,14.7-46.8
		c-8.8,3.5-22.1,12.7-22.1,12.7S90.6,82.6,84.5,77z M138.1,78.8c-11.8,11.2-16,41.4-15.5,42.9c-15.1-0.5-19.7,16.3-6.6,25.4
		c-0.5,1.8-1.8,3.2-2.8,4.7c1.4,0.8,2.8,0.9,4.3,1.1c1.1,1.3,2.2,2.9,3.4,3c1.3-0.8,2.3-2.1,3.4-3.1c1.4-0.4,2.7-0.7,4-1.3
		c-1.2-1.6-2.5-3.3-2.6-4.8c11.4-8.1,9.8-19.1-0.4-24.8c1.5-19.4,7.2-30.6,12.7-38.9L138.1,78.8z M57.2,93.1
		c-1.5,0.7-2.3,2.3-3.4,3.5c-1.5,0.1-2.9,0.6-4.3,1.2c0,0,3.4,4.7,3.2,5c-11,7.3-11,17.9-0.4,25c1.8,15.2-11,39.2-11.6,38.5l0,5
		c9.1-10,14.3-28.1,14.8-42.7c18.2-1.2,18.8-18.9,6.3-25.6c-1-0.9,3.1-5,3.1-5c-1-1-2.8-1.2-4.3-1.3C59.7,95.5,58.8,94.3,57.2,93.1z
		 M147,106.3c1.2,2.1,4.3,3.7,4.7-0.1c-0.5-2.9-2.4-3.5-9.9-2.3c-4.4,2-3.9-3.2-6.1-1.2C128.6,109.3,146.9,108.6,147,106.3z
		 M142.8,113.8c-2.1,0-2.5,8.3-2.4,10.8c-6.1,9.7,12.5,8.6,4.5-2c0.4-1.1-0.9-3.2-1-4.6C143.1,117.9,142.8,114.1,142.8,113.8z
		 M33.8,126.3c-0.2,2.5,1.6,10.1,2.3,9.9c2.4-3.9,2.1-7.2,1.9-11C43.7,114.2,24.3,118.7,33.8,126.3z M69.2,128.1
		c-0.8,16.2-4.8,32.1-13.7,45.9c7.7-3.6,15.1-8.3,22.4-12.3l16.9,10.5c1-0.4,1.7-0.6,2.3-1.3c-7.8-11.5-10.2-28-13.6-42.9
		c-1.3,0.9-3.7,1.4-3.7,1.4c-0.2,5.2-5.6,6.9-6.7,0.1L69.2,128.1z M28.5,140.7c-1.8,0.1-3.2,4.6,1.9,5.3c3.6,0.5,8.2-1.3,10.5-0.4
		c2.7,4.3,5-2,1.5-3c-3.8-1.1-11.6,1.8-12.4-0.7C29.6,141,29,140.7,28.5,140.7z M59.1,210.9l-10.2,18.1l65.1-0.4l-8.5-17.3
		C105.7,211.2,77.1,214.8,59.1,210.9z"/>
	<path class="st2" d="M93.9,36.6C87.2,36.7,80.3,37.4,73,39l1.3,2.4c15.2-2.5,27.2-2.9,43,0.1l1.4-2.5
		C110.7,37.6,102.5,36.6,93.9,36.6z M88.9,71c0,0-1,2.3-1.5,3.5l13.3,8.7c0,0,6.4-4.5,9.1-6.5l-1.6-2.4
		C102.5,86.8,92.6,76.9,88.9,71L88.9,71z M128.3,71.9l-4,2.4c-9.1,13.7-15.3,30.8-14.8,53.3c3.4-3.9,7.5-6.4,13.3-6
		c0.7-16.3,6.3-30.7,15.3-43.7L128.3,71.9z M127.3,76.8c0.6,0,1.3,0.1,1.9,0.6c1.5,1,1.4,3.5-0.2,3.9c-1.3,0.4-1.4,0.7-0.2,0.7
		c2.1-0.1,2.7,2.7,1.2,4.1c-1.7,1.6-3.9,0.5-4.1-1.5c-0.1-0.6-0.2-0.6-0.4-0.2c-0.5,0.9-0.6,2.1-0.5,3.2l-3.1-1.9
		c1.1-0.5,1.8-0.9,2.6-1.7c0.1-0.1,0.2-0.2,0.2-0.2c0-0.1-0.3,0-1,0.1c-1.9,0.2-3.3-1-2.9-2.8c0.3-1.5,1.1-2.2,2.4-2.2
		c0.9,0,1.4,0.3,1.9,1.3c0.5,1.1,0.7,0.8,0.4-0.5C125,78,126,76.9,127.3,76.8z M35.6,89.6c0,0-6.7,5-9.8,7.5l0.1,44.8
		c0.9-0.3,2.3-1.5,3.1-2c-1.9-1.7-1.4-2.9-1.7-4.1c-0.8-1.3-0.1-2.2-0.2-3.1c-0.2-5.7,0.8-6.5,5.4-7c-1,0.4-3.4-7.2,3.2-7.1
		L35.6,89.6z M119.8,92.1c2.5,0,4.5,2,4.6,4.5s-2,4.6-4.5,4.6s-4.5-2-4.6-4.5C115.3,94.2,117.3,92.2,119.8,92.1z M119.8,92.9
		c-2,0-3.6,1.7-3.6,3.7c0,2,1.7,3.6,3.7,3.6c2,0,3.6-1.7,3.6-3.7S121.8,92.9,119.8,92.9z M119.9,94.1c1.4,0,2.5,1.1,2.5,2.4
		s-1.1,2.5-2.4,2.5c-1.4,0-2.5-1.1-2.5-2.4S118.6,94.1,119.9,94.1z M30.2,96c0.2,0,0.4,0,0.6,0.1c1.1,0.4,1.5,1.4,0.9,2.3
		c-0.5,0.7-0.4,0.8,0.4,0.5c0.7-0.2,1-0.2,1.5,0.4c1.6,1.6-0.8,4.2-2.3,2.6c-0.8-0.8-0.8-0.6-0.3,0.8c0.2,0.4,0.5,1.1,0.5,1.1
		l-2.2,0c0,0,0.3-0.9,0.5-1.3c0.4-1,0.4-1.2-0.4-0.5c-1.8,1.5-3.9-1-2.2-2.7c0.3-0.3,0.9-0.3,1.6,0c0.6,0.2,0.6,0.1,0.2-0.5
		C28.1,97.5,28.9,96,30.2,96z M120,96c-0.4,0-0.6,0.3-0.6,0.6c0,0.4,0.3,0.6,0.6,0.6s0.6-0.3,0.6-0.6S120.3,96,120,96z M76.4,99.4
		c-0.9,6,0,15,0,19.5c2.4,0.5,2.5,2.1,2.8,4.2c1.2-0.4,3.8,1.3,4.1,1.2C83.7,118.5,80.5,102.8,76.4,99.4L76.4,99.4z M116.8,106
		c3.4,0.3,2.8,3,1.8,4.1c-0.5,0.6-0.4,0.8,0.1,0.5c1.5-0.9,2.6-0.2,3.1,1.3c0.8,2.6-2.6,4.9-4.1,2.5c-0.5-0.8-0.8-0.6-0.7,0.2
		c0.1,0.8,0.9,2.5,0.9,2.5l-3.4-0.3c0,0,1-1.7,1.2-2.2c0.4-1,0.2-1.2-0.5-0.4c-2.1,2-5-0.5-3.7-3.1c0.7-1.3,1.9-1.7,3.3-0.7
		c0.9,0.6,1.1,0.3,0.3-0.4C113.5,108.6,114.8,105.8,116.8,106z M151.9,107.1c-3.8,3.9-2.6,1.6-0.8,4.6c0.9,5.2-0.2,5.3-0.1,7.7
		c0.3,3.3-2.8,3.9-5.5,4.4c0.4,0,4.2,7-2.8,7.6l0.1,28.7l11.1-8.2l0-44.8H151.9z M30.5,108.1c0.3,0,0.6,0.1,0.9,0.3
		c0.8,0.5,1.1,1.4,0.5,2.2c-0.3,0.5-0.2,0.8,0.1,0.5c0.5-0.4,1.5-0.1,1.9,0.5c1,1.6-1,3.8-2.3,2.4c-0.6-0.6-0.8-0.6-0.7-0.2
		c0.2,0.7,0.7,2,0.7,2l-2.3,0c0,0,0.5-1.3,0.6-2c0.1-0.5-0.1-0.5-0.7,0.2c-0.5,0.6-1,0.7-1.7,0.2c-1.7-1.1-0.3-4.1,1.4-3.1
		c0.6,0.3,0.7,0.1,0.2-0.5c-0.9-1.1,0-2.4,1.2-2.5L30.5,108.1z M68.7,122.3c-2.8,2.2-7.3,7.3-13.1,6c-0.7,17.9-6.5,31.8-14.8,43.7
		c2.9,1.7,6,3.8,9,5.1c2.5-1.3,3.9-1.8,6.3-3.8C66,157.6,69.2,140.6,68.7,122.3z M94.8,125.5c0.6,9.2,2,17.9,6.8,24.9l0.3-19.5
		c-1.7-0.4-3.1-1.5-3.6-4.6L94.8,125.5z M60.5,131l3.2,0.1c0,0-0.7,1.4-1,2.3c-0.4,1-0.2,1.2,0.5,0.5c0.9-0.9,2.4-1,3.2-0.2
		c2.1,2.1-0.1,5.6-2.6,4.1c-1.1-0.6-1.2-0.4-0.4,0.5c1.6,1.5-0.1,3.7-2,3.7c-1.4,0-2.3-1.1-2.4-2.4c-0.1-0.8,0.3-1.5,1-1.9
		c0.7-0.4,0.2-0.6-0.6-0.2c-2.5,1.3-4.1-2.1-2.3-4c1.1-1.1,2.2-1,3.3,0.1c0.8,0.8,1,0.7,0.8-0.2C61.1,132.2,60.5,131,60.5,131z
		 M146.1,133.6l2.3,0c-0.2,0.6-0.5,1.1-0.7,1.7c-0.2,0.6-0.1,0.7,0.5,0.1c1.6-1.1,3.2,0,2.9,1.7c-0.2,1.2-1.2,1.7-2.3,1.2
		c-1-0.4-0.7-0.3-0.1,0.4c0.7,0.8,0.5,1.7-0.4,2.4c-1.5,1.1-3.6-0.7-2.6-2.3c0.6-0.9,0.3-0.8-0.2-0.4c-0.8,0.6-2.1-0.3-2.1-1.4
		c-0.1-1.7,1.6-2.7,2.8-1.5c0.6,0.5,0.7,0.4,0.5-0.3C146.5,134.7,146.4,134.2,146.1,133.6z M148.6,146.1c0,0,0,0.2-0.4,0.9
		c-0.4,0.8-0.4,1.7,0.1,1.1c0.8-1,2.4-0.7,2.9,0.5c0.6,1.4-0.6,2.9-1.8,2.3c-0.8-0.4-0.9-0.3-0.3,0.5c0.5,0.8,0.3,1.7-0.6,2.2
		c-1.7,1.1-3.7-1.1-2.3-2.4c0.4-0.4,0.3-0.5-0.2-0.3c-1.8,1-3.2-1.5-1.6-3c0.7-0.6,1.2-0.6,2.3,0.2c0.3,0.2,0.4,0,0.2-0.6
		c-0.4-1-0.6-1.3-0.6-1.3L148.6,146.1z M57.8,147.7c2.7,0,4.8,2.1,4.9,4.8c0,2.7-2.1,4.9-4.7,4.9c-2.7,0-4.8-2.1-4.9-4.8
		C53,149.9,55.1,147.7,57.8,147.7z M57.8,148.5c-2.2,0-3.9,1.8-3.9,4s1.8,3.9,4,3.9c2.2,0,3.9-1.8,3.9-4S60,148.5,57.8,148.5z
		 M57.9,150.1c1.3,0,2.4,1.1,2.5,2.4c0,1.4-1,2.5-2.4,2.5s-2.4-1.1-2.5-2.4C55.5,151.2,56.6,150.1,57.9,150.1z M57.9,152
		c-0.4,0-0.6,0.3-0.6,0.6c0,0.4,0.3,0.6,0.6,0.6s0.6-0.3,0.6-0.6C58.6,152.2,58.3,152,57.9,152z M51.9,161.8l2.8,1.4
		c0,0-1.3,1.1-1.8,1.6c-0.7,0.7-0.6,1,0.3,0.7c1.7-0.7,3.4,0.3,3.5,2.1c0,2.4-2.8,3.5-4.1,1.7c-0.4-0.5-0.9-0.8-0.7-0.3
		c0.5,1.1,0.2,2.4-0.6,3c-0.6,0.4-1.8,0.6-2.4,0.3c-2-1.1-2.1-3.4-0.2-4.3c1-0.5,1-0.9,0-0.7c-2,0.5-3.2-1.9-1.7-3.6
		c1.5-1.8,4-1.4,4.3,1.2c0,0.5,0.4,0.1,0.5-0.6C51.8,163.8,51.9,161.8,51.9,161.8L51.9,161.8z M77.7,165.7l-9.8,6.1l2.2,3.1
		c5-11.5,17.1-2,19,3.9c0.4,0.3,0.5,0.2,0.9,0.4c0-0.4,0.9-4.5,0.9-4.5L77.7,165.7z M103.7,208c-16.6,4.3-42.9,0.5-42.6,0.2
		l-1.6,2.3c-0.6,0.2,25.3,4.7,45.7,0.2L103.7,208z"/>
	<path class="st3" d="M24.2,19.4v211.2h131.2V19.4H24.2z M129.4,20.7l-12.2,21c0.1-1.1-23.7-4.5-43.1-0.4L63.6,21L129.4,20.7z
		 M152.9,21.1l0.4,85.8l0.8,45l-11.4,8.4l-0.2-28.8c0,0-1.6-0.8-2.1-0.8c-0.2,0-0.4,0.3-0.1,0.5c0.4,0.3,1.4,0.6,1.4,0.6l0.2,28.5
		c-9.3,6.7-20.8,11.4-29.6,15.1c-0.7-2.4-7.8-8-15.8-4c-0.7,0.3-1.6,0.5-2.2,0.9c-3,0.6-4.1,3.8-4.5,7c0,0.1,0.2,0.1,0.3,0.1
		c0,0,0.7-3.1,1-3.7c0.6-1.3,1.3-2,1.7-2.1c0.2,0,0.3,0.3,0.1,0.7c-0.5,0.9-0.9,2.8-1,3.6c-0.1,0.8-0.1,1.4,0,1.4c0,0,0.7-2.4,1-3.2
		c0.8-2.2,1.3-3.1,2.1-3.6c0.8-0.5,1-0.4,0.8,0.1c-1.2,2.3-1.7,4.1-1.9,6.5c0,0.5,0.2,0.5,0.4-0.3c0.6-2.6,1.5-6.1,3.6-7.1
		c0.9-0.4,1.3-0.4,1.2-0.1c-2.5,3.2-3.1,6.7-3.1,7.8c0,0.4,0.2,0.3,0.5-0.5c0.8-3.1,2.1-5.8,3.6-7.1c0.6-0.5,1.3-0.6,1.9-0.7
		c1.8-0.2,1.8,0.4,0.3,1.3c-1.7,1-3.8,4.7-4,7.5c-0.1,1,0.3,1.1,0.5-0.2c1-5.6,5.8-9.2,9.5-7.5c1.7,0.8,2,1.8,0.5,1.4
		c-3-1-6.3,1.2-7.7,4.2c-1.2,2.7-1.2,4.1-0.3,7.8c0.6,3.3,1.8,7.6,1.4,10.9c-0.4,0.6-1.7-0.3-3.3-0.5c-0.9-0.2-2.1-0.2-3,0.2
		c-0.8,0.3-1.3,0.4-1.5,0c-0.1-0.1,0.7-0.9,1-1.3c0.2-0.3,0.3-0.6,0.3-0.6s-0.4,0.2-0.8,0.6c-0.3,0.3-1.1,1.1-1.3,1.2
		c-0.4,0.1-0.5-0.4-0.1-1.7c1.3-5,0.9-5.1-1.2-6.1c-2.1-0.8-1.5-1.2-2.4-2.1c-0.7,0.5,0.9,2.9,2.6,3.5c1.4,0.4,1.3,1.2,0.6,3.1
		c-0.6,2.8-1.7,6.4-1.1,8.9c1.3,5.2,6.5,5.1,10.5,3l0.5,1.3c-3.4,1.4-21.1,2.6-27.1,1.9c-0.5-1.6-0.5-2.1-0.7-4c0,0,3.7,1.7,5.5,2
		c2.3,0.4,5.9,0.4,6.8-1.8c0.3-0.6,0-1.2-0.8-0.8c-1.5,0.7-4,1.2-6,1c-1.7-0.1-4.1-0.8-5.2-1.4c-0.5-0.3-0.9-0.9-0.5-1.6
		c0.3-0.1,0.8,0.3,1.1,0.4c3.1,1.6,4.8,2,6.7,1.3c1.3-0.5,2.8-1.1,3-2.6c-1.1,0.6-2.2,1.6-3.4,1.9c-2.4,0.7-5-0.3-7.5-2
		c-0.8-0.7-0.4-1.2,0.5-0.6c3.7,1.9,5.3,3.2,8.9,0.5c0.8-0.6,1.2-0.5,1.7-0.2c1.9,1.7,1.9,0.7,0.5-1c-0.3-0.4-0.6-1-0.8-1.5
		c-0.1-0.4-0.2-0.9-0.4-1.2c-0.4-0.5-1.2-0.7-2.1-1.1c-0.8-0.4-1.4-0.2-1.4-0.2s0.3,0.3,0.6,0.4c1.6,0.8,2.4,1.7,0.4,1.2
		c-1.8-0.8-4.9-0.4-6.6,0.8c-1.4,0.7-2,1.4-2.3-0.1c-0.7-3.1,0-7.4-0.9-12.9c-0.2-1-0.4-1.7-0.2-1.9c0.3-0.2,1,0.5,1.8,1.7
		c0.4,0.6,1.2,1.6,1.2,1.4c0-1.2-1.8-3.3-3.2-4.2c-0.8-0.5-1.4-2.7-0.4-2.2c0.7,0.4,4.5,3.7,5.2,4.9c0.3,0.5,0.6,0.2,0.3-0.4
		c-0.2-0.4-1.1-1.5-1.9-2.4c-1.5-1.5-1.7-1.4-1.4-1.7c0.6-0.6,1.8,0.2,4,2.2c0.6,0.7,1.3,1.4,1.2,1c0.2-0.6-2-2.9-3.3-3.6
		c-0.2-0.2-0.3-0.3-0.3-0.6c0.1-1.1,2.6,0.5,4.7,2.5c0.8,0.7,0.1-0.6-0.8-1.6c-0.7-0.7-1.9-1.6-2.6-1.9c-0.8-0.3-0.8-1-0.2-1.3
		c2.1-0.1,4.3,2.1,5.6,3.8c0.4,0.5,0.7,0.8,0.3-0.1c-1.2-2.7-3.7-4.2-5.4-4.5c-1.4-0.2-1.4-1.5-0.1-1.4c1.4,0.2,3.8,1.5,5.8,3.5
		c0.6,0.6,1.6,1.9,1.4,1.1c0-0.2-0.6-1.1-1.3-1.9c-1.6-1.6-3.6-3.1-5.6-3.5c-0.9-0.3-3.8,0.3-3.8-0.2c0-0.4,0.3-0.6,1.2-0.9
		c3.5-1.2,8.6,1.8,11.4,6.5c0.2,0.3,0.6,0.5,0.6,0.4c-1.3-3.8-5.5-7.2-8.8-7.8c-2.3-0.4-4.5,0.2-5.6,1.8c-1.2,1.7-0.7,4,1.1,3.9
		c1-0.1,0.9-0.6,0.9-0.7c-0.1-0.1-0.6,0.2-1,0.1c-1.3-0.2-1.1-2.5,0.7-2.3c2.1,0.3,2.4,3.6,0,4.3c-2.2,0.6-3-0.4-3.6-1.5
		c-0.9-1.7,0.1-4.5,1.6-5.6c4.3-3,9.7-0.5,12.8,2.5c1.5,1.5,2.6,3.2,3.3,5.1c0.2,0.4,0.6,0.4,0.4-0.1c-4.3-11.1-17.2-12.4-19.1-3.8
		c-3.1-4.9-5.9-5.3-10-3.1c-4.3,1.8-6.4,3.2-10.3,5.1l-9-4.8c-0.5-9-0.2-18-0.2-26.9c0-0.2-1.9,0.1-5.2,0.7c-8.7,1.8-8-3-9.1-3.2
		c-0.6-0.1-0.6,0.1-0.7-16.4c0-4.8-0.1-13.3-0.2-18.8c-0.1-5.5-0.1-10.1,0-10.2c0-0.1,0.5-0.5,1.1-0.9c2.1-1.5,3.3-2.4,8-6
		c1.1-0.8,1.3-0.9,1.3-0.9c0.5,9.9,0.1,20.4,0.3,28.9l0.4,0l-0.2-28.7C35.4,89.4,54.5,78.1,65,74.5c0.2-0.1,0.7,0.2,0.7,0.2
		c6,7.4,21.8,5.2,23.1-3.9c2.6,5.5,14.1,16.2,19.4,3.3c0,0,1.9,3.7,3.5,4c3.7,0.5,4.1-0.1,12.2-4c-9.3,14.1-14.4,29.1-15,47.3
		c-1.3-1.8-3.9-1.8-4.1-1.6c0-1.7-0.3-4.1-2.9-4.3c-2.6-0.2-4,3.3-3,4.8c-1.6-0.7-4.1,1-4.1,1.2c-0.2,0-2.1,5,3.6,5.2
		c0.5,2.3,1.4,3.5,3.2,4.4l0,19.1l0.6,0.9l0.1-20c2.9-0.1,3.2-3.5,3-4.2c1.3,0.1,2.4-0.2,3.4-1l0.3,3.3c0,0,0.7-1.2,0.5-1.8
		c-1.3-18.8,5.5-39,14.3-52.2c0.5-0.6,0.6-1.2,0.9-1.2c2.2-1.2,3.5-2,3.5-2c3.6,1.7,9.9,5.9,9.9,5.9l0.1,26.7
		c-0.1-0.3,11.8-1.3,11.6-1c0,0-1-0.4-1.1-1.1l-0.3-62.5l-5.2-3.4c0,0-4.3,2.8-5.5,3.8l0.1,36.8l-9.2-5.5c0,0,0.1-1.3,0.2-1.7
		c0.4-4.3-2.6-6.7-7.3-5.2c-0.6,0.2-1.1,0.4-1.4,0.1c-2-5.8-2.8-21-2.8-21l13.1-22.4L152.9,21.1z M26.1,21.5h35.8L74,43.3
		c0,0,0.7,1.4,0.3,2.8c-0.5,1.6-0.9,2.2-1.3,3c0-0.5-3.5-0.9-3.2,2.1c0.2,2.1,2.8,3.2,4.7,1.6c0.3,0,0.3,0.3,0.2,0.8
		c-0.2,1.2-1.4,4.9-2.3,5.2c-4.3-3.6-5.9,3-3,4.3c1.7,0.8,4.3,0.1,5.5-1.9c0.9-1.6,0.8-1.3,1.1,0.6c0.1,0.7,0.3,1.5,0.3,1.9
		c0.2,1.2,0,1.4-1.9,1.9c-1.6,0.6-3.1,0.9-4.7,1.3c-2.9,0.5-4.4,2.7-4.5,5.4c0,0.6,0,0.9-0.1,1C52.9,78,39.9,84.6,26.1,95.9V21.5z
		 M143.9,37.7c0,0,2.5,1.7,3.8,2.5l0,2.7l-3.7-2.4L143.9,37.7z M142.6,38.1c0.8,2.5,0.8,7.9,0.5,10.2c-0.5,1.6-0.7,8.5-0.2,12
		c0.4,2.8,0.4,7.4-0.1,9.7c-0.2,0.9,0,4.9,0.3,8.7c0.2,2.9,0.2,5.5-0.2,7c-0.3,1.2-0.2,5.4,0.1,7c0.5,2.4,0.5,10,0.3,10.5
		c-0.5,0.6-4.8,0.7-4.5,0.5l-0.1-63C138.8,40.6,141.3,38.9,142.6,38.1z M96.5,41.4c3.6,0,6,0.1,5.9,0.1c0.3,1.4,0.5,2.7,0.6,4.1
		c0,0-3.2-1.6-4.9-2.1c-2.6-0.8-6.7,0.1-7.4,1.6c-0.4,0.9-0.2,1.4,1.5,0.5c2.9-1.6,8.7-0.4,10.8,1.3c0.5,0.4,0.5,0.5,0.5,0.9
		c0,0.7,0.1,0.7-0.9,0.2c-4.9-2.5-9.1-2.2-10.5,1.1c-0.3-0.1-1.6-0.3-1.6-0.3l1.4,2l0.3,2.1c1.4,0.7,1.8,0.9,4.1,2
		c0,0-0.8-0.7-1.6-1.3c-1.1-0.8-0.2-1,0.5-0.7c1.5,0.3,3.6,0.8,6.2-0.8c0.8-0.5,2.6-0.1,2.6,0.2c0,0,0.2,1.9,0.5,5.8
		c0.1,1.8,0.3,4.2,0.5,5.2c0.4,3,0.5,3.1-1.1,1.7c-0.5-0.5-1.4-1.3-1.4-1.2c-0.2,0.9,2.1,2.5,2.6,3.1c0.8,0.8,1.5,3,1.1,3.1
		c-0.2,0.1-2.4-1.8-4.1-3.5c-0.6-0.6-1.6-1.5-1.6-1.4c-0.4,0.2,1.1,1.9,2.4,3.1c1.6,1.4,1.8,1.6,1.2,1.8c-1,0.4-1.9-0.1-4.2-2.1
		c-0.2-0.2-1.1-0.8-1.2-0.8c-0.2,0.3,2,2.4,2.5,2.6c0.9,0.3,1.2,1.2,0.5,1.6c-0.5,0.2-2.3-0.8-3.8-2c-0.3-0.2-1-0.6-1-0.6
		c-0.3,0.2,1.3,1.6,2.9,2.5c1.5,0.9,1.8,1.1,1.4,1.9c-0.4,0.8-3.7-1-5.4-2.9c-0.4-0.4-0.6-0.6-0.6-0.4c0.7,2,3.1,3.5,4.9,4.1
		c0.3,0.1,0.8,0.2,1,0.4c0.5,0.4,0.4,0.8-0.2,1.1c-1.9,0.5-4.9-1.8-7-4.2c-0.2-0.1-0.1,0.2,0,0.3c1.8,2.9,5.2,5,7.2,4.6
		c1.2-0.2,2.2,0.1,2.2,0.5c0,0.3-0.7,0.9-1.9,1c-2.9,0.2-7.5-3-10.2-7.1c-0.1-0.1-0.2-0.2-0.2-0.1c-0.1,0.9,1.6,3,2.9,4.2
		c3.8,3.6,7.4,4.9,10.2,2.8c1.6-1.2,3.1-3.9,0.8-4.8c-1.2-0.5-2,1.2-1,0.8c1.4-0.2,1.7,0.6,1.5,1.3c-0.4,1.2-1.5,1.4-2.5,0.9
		c-1.7-0.9-1.3-4,0.8-4.6c2-0.5,3.7,1.2,3.9,2.8c0.3,2.5-2.4,5.1-4.6,5.8c-7.5,2.3-13.4-8.3-13.4-8.5c-0.4-0.7-0.8-1.1-1.1-0.3
		c-0.3,1.2-2,4.9-2.9,4.8c0.3-1.3,1.5-3.4,1.2-5.3C86,71.7,85,75,83,76.7c-0.5,0.5-2.1,1.1-1-0.2c1.3-1.8,3-4.3,2.6-6.6
		c-0.3,0.5-0.5,1.9-0.9,2.7c-1,2.2-3.1,4.8-4.5,5.2c-1,0.3-0.9,0,0.1-1.2c1.1-1.2,3.2-4.8,3-6.3c-0.1-0.7-2.1,5.8-5.9,7.6
		c-1,0.4-1.6-0.1-1.6-0.1c1.5-0.9,5.7-5,5.3-9.7c0,0-0.2,0.7-0.5,1.7c-1.4,4.5-4.4,7.4-6.8,7.7c-1.9,0.2-3.2-0.6-2.7-0.9
		c2.4,0,4.4-0.8,6-3.2c1.6-2.4,2.2-6.3,1.2-10.5c-0.9-3.7-1.1-7.1-1.4-10.7c2.7,0.9,5.4,1.5,8,0.5c-0.3,1.1-0.7,1.2-1.4,2
		c-0.2,0.2-0.2,0.4-0.2,0.4c1-0.3,2.9-1.7,2.9-1.7s-0.2,1.3-0.8,3.5c-0.8,3.3-0.6,3.5,2.5,4.8c0.6,0.2,0.8,0.5,1,0.7
		c0.1,0.1,0.6,1,0.7,1.1c0.1,0.1,0.1-0.9,0-1.2c-0.2-0.7-0.5-1.2-0.9-1.4c-0.6-0.6-1.5-0.6-2.1-0.9c-0.8-0.4-1.2-0.4-1-1.3
		c0.1-0.6,1-4.7,1.4-6.3c1.2-4.8,0.1-7.4-3.4-8.5c-2.4-0.7-4.4-0.4-6.8,0.9l-0.4-1.4C81.5,41.9,90.6,41.5,96.5,41.4L96.5,41.4z
		 M144.2,41.5l3.4,2.3l0,3l-3.4-2.3L144.2,41.5z M103.5,41.6l1.5,0.2c0,0,0.6,2.2,1.2,8.1c0.3,2.9,0.6,9,0.9,11.8
		c0.4,4.2,2.2,10.8,3.4,12.5c1.9,2.7,5.7,1,4.4-2.3c-0.7-1.7-3.2-1.4-2.8,0.3c0,0.3,0.2-0.2,0.6-0.6c1.1-0.4,2.3,0.7,1.7,2.1
		c-0.8,1.8-3.2,1-4-1.3c-0.9-2.7,2.2-4.7,4.6-3c2.6,1.8,2.6,6.4,0.5,7.9c-3.6,1.3-6-1.3-7.2-4c-0.5-0.8-2-4.8-2.4-6.4
		C104.9,58.8,104.7,49.2,103.5,41.6z M106,42.1l1.6,0.1c0.6,3.3,0.9,7,1.1,10.8c0.1,5.8,0.8,11.9,2.1,15.8l-1.2,1.2
		c-2-4.6-2.1-11.8-2.6-16.7C107,47.8,106.1,42.1,106,42.1z M108.3,42.3l1.4,0.1c0.4,3.9,1.1,6.5,1.3,10.8c0.3,5.6,1.3,10.1,1.9,14.4
		l-1,0.3c-0.7,0.3-1.8-4.8-2.3-15.2C109.3,49.7,108.8,46.2,108.3,42.3z M110.4,42.4l1.6,0.3c0.7,9.9,1.9,19.1,3.1,24.4l-1.4,0.3
		C111.9,59.9,111.8,50.9,110.4,42.4z M112.7,42.8l1.5,0.3c1.8,22.6,2.9,22.3,3.3,23.2l-1.6,0.7C114.1,60.4,113.8,51.2,112.7,42.8z
		 M114.9,43.2l1.8,0.2c-0.1,0,1.3,18.5,2.9,21.6c-0.3,0.8-0.9,0.7-1.5,0.8c-0.8-2.1-1.2-4.5-1.5-7C115.9,53.4,115.6,48.4,114.9,43.2
		z M80.8,45.1c2.4,0.1,4.4,1.2,4.5,2.8c0,0.4-0.2,0.2-0.6-0.1c-2-1.6-4.4-2.1-7.2-1.1c-0.6,0.2-1.1,0.6-1.4,0.5
		c-0.2-0.2-0.3-0.5-0.1-0.9C76.7,45.3,79.6,45,80.8,45.1L80.8,45.1z M144.3,45.5l3.4,2.4l0,2.6L144,48L144.3,45.5z M75.1,46.2
		c0,0,0.2,1.4,0.2,2c0.1,2.5-0.5,3.9-1.8,4.4c-1.6,0.7-3.6-0.8-2.6-2.4c0.7-1.3,2-0.9,2.2,0.4L75.1,46.2z M80,47c0.2,0,0.3,0,0.5,0
		c0.8,0,1.6,0.2,2.3,0.5c1.8,0.7,2.5,1.6,2.5,2c-0.1,0.3-0.3,0.1-1.6-0.6c-2-1.3-4.7-1.5-7,0.1c-0.6,0.1-0.6-0.2-0.1-0.8
		C77.6,47.4,78.8,47.1,80,47z M96.5,47.1c1.6-0.1,3.5,0.4,5.1,1.2c0.7,0.4,1.3,0.6,1.8,1c0.4,0.2,0.4,1,0.1,1.1
		c-0.2,0-0.6-0.2-1.2-0.6c-3.8-2.5-6.5-2.2-8.7-0.7c-0.1,0.1-0.5,0.2-0.6,0.2c-0.4,0-0.4-0.2-0.3-0.4C93.6,47.7,95.1,47.1,96.5,47.1
		z M144,48.8l3.7,2.6V54l-3.9-2.7L144,48.8z M77.8,49.9l0.5,0c1.2,3,2.8,1.5,3.5,0.3l0.7,0.1C81.5,54.3,77.3,52.2,77.8,49.9z
		 M98.5,50.1l0.4,0.1c-0.1,1.7-3,3.6-4.4,0l0.6,0C96.6,52.6,97.6,51.2,98.5,50.1z M76.9,50.3c0.6,0.1,0.6,0.8,0.8,1.3
		c0.4,1.1-1.2,0.2-1.5-0.1C75.8,51,76.4,50.3,76.9,50.3z M99.9,50.4c0.2,0,0.5,0.1,0.8,0.3c0.9,0.4,0.8,0.6-0.1,1
		c-1.5,0.7-2.1,0.8-1.6-0.2C99.3,51.1,99.4,50.5,99.9,50.4z M93.7,50.8l0.2,0.1c0.4,0.3,0.6,0.6,0.7,1.1c0,0.4-1.2-0.1-1.2-0.6
		C93.5,51,93.6,50.8,93.7,50.8L93.7,50.8z M83.3,50.9c0.8,0.3,0.7,0.7,0.1,1c-1,0.6-1.4,0.4-0.8-0.4C83,51.1,83.1,51,83.3,50.9z
		 M143.8,52.2l4,2.8l0,2.6l-4-2.7C143.6,53.8,143.7,53,143.8,52.2L143.8,52.2z M143.7,55.7l4,2.9l0,2.6l-3.9-2.7
		C143.6,57.4,143.6,56.5,143.7,55.7z M91.3,56.1c-0.6,0-0.5,0.4,0.4,0.8c1.2,0.5,1.3,1.8,0.3,2.4c-1.3,0.9-3.3-1.3-4.8-1.1
		c-0.7,0.2-1.2,0.9-0.8,1.7c0.3,0.6,1.4,0.9,1.9,0.6c0.4-0.4,0.5-0.4,1.3-0.1c2.4,0.9,4.4-0.8,3.8-2.7c-0.2-0.7-1.1-1.4-1.7-1.5
		C91.5,56.1,91.4,56.1,91.3,56.1z M75.1,56.2c0.2,0,0.3,0.6,0.3,1.5c0.1,1.5-1.5,3.7-3,4.4c-1.9,0.9-3.9-0.4-3.5-2.2
		c0.3-1.7,2.7-1.8,2.8-0.2c-0.2,0.4,0.1,0.8,0.2,0.7c0.6-0.2,2.1-1.5,2.6-2.9C74.8,57,74.9,56.4,75.1,56.2L75.1,56.2L75.1,56.2z
		 M97.5,58.8c-0.8,0-1.8,0.5-2,1c-0.3,0.5-0.1,1.4,0.6,0.6c1.6-1.9,3.9,0.5,2.6,1.9c-1.1,1.3-2.5,0.9-5.4-0.2
		c-2.1-0.8-2.4-0.5-3,0.1c-0.4,0.5-0.2,1.5,0.3,1.4c1.7,0.4,3.2,0.8,4.9,1.1c3.7,0.8,6-4.1,2.6-5.9C98.1,58.9,97.8,58.8,97.5,58.8z
		 M143.9,59.6l3.7,2.7l0,2.5l-3.6-2.6L143.9,59.6z M80.5,59.9c-0.5,0-1.1,0.2-1.5,0.5c-1.5,1.3-0.3,4.8,1.9,5.1
		c0.4,0.1,1.1,0,1.9-0.2c1.5-0.4,3.2-1.3,3.2-1.9c0.3-2.4-3.2-0.2-3.7,0c-1.1,0.7-2.3,0.6-2.9-0.2c-1.3-1.8,1-3.9,2.5-1.7
		c0.1,0.1,0.2,0.3,0.2,0.3s-0.1-0.9-0.4-1.4C81.6,60.1,81.1,59.9,80.5,59.9z M144.2,63.2l3.5,2.6l0.1,2.6l-3.7-2.5
		C144.2,65,144.2,64.1,144.2,63.2z M124.4,64.7c3.1,0.1,4.9,4.7,3.2,6.6c-0.5,0.6-0.9,0.7-1.1,0.5c0,0,0-0.6,0.1-1.1
		c0.1-1.9-0.3-3.1-1.6-4.6C123.9,65.1,123.5,64.7,124.4,64.7z M87.3,65.2c-0.4,0-0.7,0.2-1.1,0.3c-0.6,0.2-1.2,0.6-1.7,0.5
		c-0.5-0.1-0.7,0.1-0.9,0.5c-0.7,1.4-0.5,1.9,0.9,1.1c0.7-0.4,0.9-0.2,2.7,0.1c1.3,0.2,2.1,0.2,3.3-0.1c1.4-0.4,2.2-0.4,2.9,0
		c0.7,0.4,1.2,0.9,1.2,0.5c-0.1-0.5-0.5-1.8-0.6-2.3c0-0.2-0.4,0-0.7,0c-1.2,0.1-2.5-1-3.4-0.4c-0.7,0.4-0.8,0.6-1.8,0
		C87.8,65.2,87.5,65.2,87.3,65.2L87.3,65.2z M122.1,65.3c0.5,0,1,0.2,1.4,0.5c2.1,1.8,2.6,3.3,2.4,4.6c-0.1,0.9-0.2,2-1.1,2.5
		c-0.2,0.1-0.4,0.1-0.7,0.2c0.7-2.7-0.1-5-3.1-7.6C121.5,65.4,121.8,65.3,122.1,65.3z M76.1,65.8c0.6,0,0.6,0.9,0.4,1.4
		c-0.1,0.4-0.5,0.1-0.9-0.7C75.5,66.1,75.7,65.8,76.1,65.8z M119.9,66.3c0.5,0,1.3,0.2,1.6,0.5c2,1.3,3.1,4.8,1.9,6.8
		c-0.1,0.2-0.3,0.4-0.5,0.5c-0.4,0.3-0.6,0.5-0.7,0.3c-0.1-0.1,0.2-0.7,0.2-0.9c0.9-4-3-6.7-3.1-6.6
		C119.3,66.5,119.5,66.4,119.9,66.3z M74.2,66.5c0.8,0,1.1,0.7,1.2,1.3c0.1,0.5,0,1.9-0.4,1.4c-0.1-0.3-0.5-1.3-0.8-1.5
		C73.4,67.1,73.4,66.5,74.2,66.5z M144.1,66.7l3.6,2.6l0,2.8l-3.8-2.6C144,68.6,144.1,67.6,144.1,66.7z M72,67.2c0.1,0,0.3,0,0.4,0
		c1.2,0.2,2.1,2.1,1.8,3.2c-0.6,1.2-0.9,0.4-1.1-0.7c-0.2-0.4-0.7-1.1-1-1.5C71.6,67.6,71.5,67.3,72,67.2z M117.9,67.3
		c2.9,0,4.8,4.7,3.4,7c-0.3,0.4-1.4,1.1-1.4,0.8c0-0.3,0.2-1.2,0.2-1.7c0.2-1.7-0.6-3.5-2.1-4.9C116.8,67.4,116.7,67.3,117.9,67.3z
		 M69.7,67.8c1.8,0,3.3,2.1,2.8,4.1c-0.7,2.1-4.2,1.7-3.6-0.4c0.2-0.6,0.8-1,1.4-0.7c0.9,0.5,0.8-0.3,0.2-0.7
		c-0.9-0.5-2.1-0.2-2.3,0.8c-0.9,3.4,3.5,4.6,5.8,1.1c0.9-1.3,1.8-2.7,2.3-3.3c0.5-0.5,0.6-0.5,0.5,0.2c-0.3,3.2-2.5,7.2-6.7,7
		c-4-0.4-5.3-4.7-2.2-7.4C68.5,68.1,69,67.8,69.7,67.8L69.7,67.8z M91,68c-1.5,0.7-2.8,1-4.3,0.4c-1.1-0.5-1.1,0-0.6,0.5
		c1.3,1.2,3.8,0.6,4.8,0C91.3,68.6,91.4,68,91,68L91,68z M115.6,68c1.1,0.1,2.8,1.5,3.3,2.8c0.6,1.5,0.7,3.1-0.1,4.9
		c-0.6,0.4-1.5,1.1-1.7,1c-0.1-0.1,0-0.4,0.2-1c0.7-2.5,0.2-4.4-1.3-6.2c-0.9-1-1.2-1.2-0.8-1.4C115.4,68,115.5,68,115.6,68z
		 M143.8,70.4l3.9,2.7l0,2.6l-4.1-2.8C143.6,72.3,143.7,71.4,143.8,70.4z M143.8,74l3.9,2.6l0.1,2.5l-3.8-2.4L143.8,74z M144.1,77.5
		l3.7,2.6l0.1,2.8l-3.7-2.4L144.1,77.5z M53.8,80.4c0-0.2-2.7,7.6-2.7,7.6l2.5,1.8l2.7-1.7l-2.8-3.7C53.6,84.3,53.8,80.6,53.8,80.4
		L53.8,80.4z M144.3,81.4l3.6,2.5l0.1,2.6l-3.7-2.6L144.3,81.4z M144.1,84.5l3.7,2.7l0.1,2.7l-4.1-2.8L144.1,84.5z M62.3,86.1
		c0-0.2-2.7,7.6-2.7,7.6l2.5,1.8l2.7-1.7L62,90.1C62,90.1,62.3,86.3,62.3,86.1z M45.3,86.7c0-0.2-2.7,7.6-2.7,7.6l2.5,1.8l2.7-1.7
		l-2.8-3.7C45.1,90.7,45.4,86.9,45.3,86.7z M143.6,88l4.3,3l0,2.9l-4.2-2.8L143.6,88z M143.9,92l4,2.9l0,2.5l-3.6-2.6L143.9,92z
		 M71.2,95.2c0-0.2-2.7,7.6-2.7,7.6l2.5,1.8l2.7-1.7L71,99.2C71,99.2,71.2,95.4,71.2,95.2L71.2,95.2z M144.6,96l3.4,2.3l0,2.6
		l-3.3-2.2L144.6,96z M75.7,98.2c0.1,1.8,0.2,20.7,0.1,20.8c-2.3,0.3-3,1.8-3.2,4c-1.8-0.1-3,1-3,1.1c-0.7-0.9-0.2-2.3-0.7-3.2
		c-1.6,5.6,1.5,9,4.2,8.7c0.4,5.4,6.3,6.4,6.1-0.2c7.2-0.4,4.7-7.1-0.1-6.2c0-2.9-1.5-3.6-2.7-4.2c0,0-0.2-18.1-0.2-18.7
		c0,0.1-0.3-2-0.4-2.1L75.7,98.2L75.7,98.2z M144.6,99.5l3.3,2.3l0,1.1l-3.3-0.1L144.6,99.5z M45.6,100.5c0-0.2-2.7,7.6-2.7,7.6
		l2.5,1.8l2.7-1.7l-2.8-3.7C45.4,104.5,45.7,100.7,45.6,100.5z M147.9,107.2c-7.2,0.3-13.7,0.8-13.4,10.7c-1,4.2,0.7,7.9,5.8,6.8
		c1.1-1,0.4-2.4,0.2-3.1c-0.4-1.9,0.1-3.1,0.2-4c0.4-2.8,2.4-5.3,2.7-1c0.4-0.5,0.2-0.6,0.8-0.8c1.4-0.5,1.4,0.9,1.1,1.5
		c-0.2,0.3-0.5,0.3-0.7,0.2c-0.4,0-0.9-0.2-0.9-0.3c-0.1,0.4,0.7,1.3,0.6,1.7c-0.1,0.4-0.2,0.4,0.2,0.1c1.7-1.3,2.8,1.5,0.3,1.2
		c1.2,0.7-0.6,2.6,0.7,3.6c3.9,0.3,6.8-2.4,5.6-4.3c1.5-3.9,0.6-7.9-1.5-9.6c-0.3-0.4,0.7-0.8,1.1-1.4
		C149.2,108.7,148.6,108,147.9,107.2z M143.6,108.6c0.7,0,0.8,0.1,0.8,0.7c0.3,1.3,0.6,2,2.3,1.8c1.7-0.2,2.3-0.3,0.5,0.7
		c-0.9,0.4-1.2,0.5-2.2,0.4c-1.1-0.1-1-0.2-1.6,0.2c-0.3,0.2-0.7,0.5-1,0.5c-0.4,0.1-1.1,0.2-1.1,0.2c-0.4,2.1-1,3.1-1.9,4.1
		c-1.2,1.4-1.8,1.6-0.3,1.5c0.5,0,0.3-0.2,0.5,2c0.1,0.8,0.2,1.7,0.3,2c0.4,1,0.4,1.5-1,1.6c-3.6,0.3-4.5-3.3-4-5.1
		c0.2-1.1,0.3-2.2,0.2-3.2c0.1-3.4,0.9-4.3,3.9-6.5c0.9-0.7,2.5-0.8,3.7-0.8C143.1,108.6,143.3,108.6,143.6,108.6z M145.9,108.8
		c1.7,0,3.3,0.8,2.5,1.3c-0.5,0.3-2.4,0.2-2.9-0.2C144.8,109.5,145.1,108.8,145.9,108.8z M149.6,111.2c1.1,0.2,1.1,1.2,0.9,1.8
		c-0.6,1.4-4.7,2-4.7,2c0-0.6,0-1.1-0.4-1.8c0,0,2.7-0.7,3.3-1.2C149,111.6,149.3,111.2,149.6,111.2z M70.8,111.8
		c0-0.1-1.4,3.7-1.4,3.7l-0.2,4.6l1.4,1l2.7-1.7l-2.8-3.7C70.6,115.7,70.9,112,70.8,111.8z M144.1,113.5c0.3,0,0.8,0.3,0.9,0.7
		c0.1,1.2-1.6,1-1.6,0.2C143.3,113.8,143.8,113.5,144.1,113.5z M150.4,114.2c0.4,0,0.6,0.3,0.7,0.9c0,0.3-0.1,0.6-0.3,0.9
		c-1,1.1-3.9,1.9-5,1.6c-0.1-0.1,0.1-1.3,0.2-1.8C147.4,115.9,149.7,114.6,150.4,114.2z M101.9,116.2c0.9,0,1.7,0.6,2.1,1.5
		c0.2,0.6,0.3,1.3,0,2c-0.2,0.5-0.5,0.6-0.5,0.6l-1.8-1.5l-1.8,1.6c0,0-1.1-1.1-0.5-2.6C100,116.7,101,116.2,101.9,116.2z
		 M150.3,117.4c1.1-0.1,0.6,1.3-1.1,2.2c-1.1,0.6-1.9,0.7-2.3,0.5c-0.2-0.6,0-1.2,0.1-1.4C147.6,118.3,149.6,117.6,150.3,117.4z
		 M76.2,120c1.3,0,2.4,0.9,2.4,2.5c0,0.7-0.3,1.3-0.3,1.3l-2.1-1.6l-1.6,1.7c-0.3,0.1-1.3-1.2-0.6-2.5C74.5,120.4,75.3,120,76.2,120
		z M149.9,120c0.3,0,0.4,0.1,0.5,0.4c0.3,0.8-0.4,1.7-1.5,1.9c-1,0.2-0.9,0.4-1.4-0.6c-0.4-0.7-0.5-0.7,0.1-0.9
		C148.4,120.7,149.1,120.4,149.9,120z M106.1,120.5c0.3,0,0.6,0,0.9,0.2c1.8,0.8,2.1,3.3,0.4,4.3c-0.8,0.5-2.1,0.7-2.7-0.2l1.8-1.9
		l-2-1.7C104.3,121.1,105.2,120.6,106.1,120.5z M97.8,120.9c0.7,0,1.3,0.3,1.2,0.4c0,0-1.3,1.3-1.8,1.8l1.9,2
		c0.1,0.2-2.2,1.3-3.4-0.3c-0.8-1-0.3-3,0.8-3.6C96.9,120.9,97.4,120.9,97.8,120.9z M101.8,121c1.1,0,2.1,0.9,2.1,2
		c0,1.1-0.9,2.1-2,2.1s-2.1-0.9-2.1-2S100.6,121.1,101.8,121z M146.1,121.2c0.5,0,1,0.4,1,0.9c0,0.8-0.9,1-1.6,0.6
		c-0.5-0.3-0.6-1-0.3-1.2C145.5,121.3,145.8,121.2,146.1,121.2z M101.8,122.8c-0.2,0-0.4,0.2-0.4,0.4c0,0.2,0.2,0.4,0.4,0.4
		s0.4-0.2,0.4-0.4C102.2,123,102,122.8,101.8,122.8z M80.8,123.8c0.3,0,0.6,0,0.8,0.2c1.3,0.7,2,3,0.5,4.2c-1.1,1-2.9,0.2-2.9,0
		l1.8-2l-1.9-1.9C79,124.3,79.9,123.8,80.8,123.8z M72.4,124.1c0.5,0,0.9,0.2,1.4,0.5l-1.8,1.9l2,2.2c0,0-1.6,0.3-2.1,0.2
		c-2.7-0.5-2.4-3.7-0.3-4.5C71.9,124.1,72.2,124.1,72.4,124.1z M76.5,124.5c1.1,0,2,0.9,2,2c0,1.1-0.9,2-1.9,2c-1.1,0-2-0.9-2-2
		C74.5,125.4,75.4,124.5,76.5,124.5z M39.6,124.9c-0.5,0-1.1,0.1-1.7,0.3c0,0,0.4,4.1,0.7,5.5c-0.2,1.6-1.2,2.7-1.7,4.3
		c-0.2,0.7-1.2,1.7-1.3,0.7c-0.7-1.3,0-2.8-0.6-3.7c-0.4-0.9-0.2-1.3-0.4-2.2c-0.5-0.7-0.8-1.1-0.7-1.7c-0.1-2.9-0.8-2.3-2.1-2.1
		c-4.9,0.4-4.9,3.3-4.6,6.9c-0.7,3.4,0.6,2.6,0.6,3.2c-0.1,1,0.1,2.3,0.4,2.5c1.8,2,1.9,3.5,4.1,3.1c3.9,0.3,10.1-0.3,11.4-5
		C44.4,130.5,44.6,124.7,39.6,124.9z M39.6,125.6c0.7,0,1.6,0.1,2.3,0.8c1.5,1.5,1.2,2.8,0.9,8.5c-0.2,3.4-3.1,5.1-6.3,5.9
		c-0.8,0.2-1.5,0.2-2,0.2c-0.6,0-0.9-0.3-1-0.8c0.1-1.3-1.2-1.4-2-1.4c-1.4,0.1-1.5,0.2-0.7-0.5c1-0.8,3.2-0.8,3.7-0.3
		c0.9-0.9,1.8-1,2.9-1.1c-0.2-0.2-0.6-1.2-0.3-1.9c0.6-1,1.6-2.9,2.6-3.5c1-1.3,0.2-0.7-0.5-0.7c-0.4,0-0.3-0.1-0.4-0.4
		c-0.3-1-0.6-3-0.6-4.2C38.3,125.7,38.8,125.6,39.6,125.6z M103.7,125.7c1.5,1.8,0.2,4-1.8,4.1c-1.7,0.1-3-1.7-2.4-3.5
		c0.3-0.5,0.5-0.4,0.5-0.4l1.9,1.7L103.7,125.7z M76.5,126.1c-0.2,0-0.4,0.2-0.4,0.4s0.2,0.4,0.4,0.4c0.2,0,0.4-0.2,0.4-0.4
		C76.9,126.3,76.7,126.1,76.5,126.1z M32.4,126.8c0.2,0,0.5,0,0.7,0.2c0.4,0.4,0.4,0.9,0,1.2c-0.5,0.4-1.4,0.2-1.5-0.6
		C31.6,127.1,32,126.8,32.4,126.8z M30.6,126.9c0.2,0,0.3,0,0.4,0.1c-0.1,0.5,0,1,0.1,1.3c-0.3,0.2-1.7,0.6-2.5,1
		c-0.5,0.2-0.9-0.3-0.8-0.8c0.2-0.8,1.4-1.4,2.3-1.6C30.3,126.9,30.5,126.9,30.6,126.9z M107.3,128.3l-2.7,1.7l0,0.1l0,0l2.8,3.7
		c0,0.1-0.2,3.8-0.2,3.8l0,0l0,0.1l1.9-8.2C109.1,129.5,108,128.8,107.3,128.3z M78.3,129.1c1.2,2.8-0.2,4.1-1.7,4
		c-1.7,0-3.5-1.6-1.9-3.9l2,1.6L78.3,129.1z M31.4,129.5c0.5-0.1,0.4,1,0.2,1.6c-0.2,0.4-0.7,0.4-1.2,0.4c-0.9,0.1-2,1.1-2.5,0.9
		c-0.2-0.1-0.3-0.5-0.3-0.8C27.6,130.2,30.1,129.6,31.4,129.5z M33.1,129.5c0.9,0,1.4,0.9,1,1.5c-0.2,0.2-0.7,0.4-1.2,0.2
		c-0.7-0.2-0.9-1.3-0.2-1.6C32.8,129.6,32.9,129.5,33.1,129.5z M32,132.1c0.5,0.1,0.2,1.6,0.2,1.6c-0.4,0.1-2.1,0.4-2.8,1
		c-1.5,1.2-2.2,0.5-1.5-1c0.7-0.8,3.1-1.6,4-1.6L32,132.1z M33.8,132.2c0.7-0.1,1.2,0.7,0.7,1.4c-0.6,0.5-1.6,0.1-1.5-0.6
		C33,132.5,33.4,132.2,33.8,132.2z M32.2,134.6c0.7,0,0,1.1,0.6,1.8c0.1,0.4,0,0.3-0.8,0.5c-0.4,0.1-1,0.4-1.7,0.7
		c-0.9,0.5-1.2,0.7-1.5,0.7c-0.3-0.1-0.6-0.2-0.7-0.4c-0.3-1.1,0.6-2.2,2.6-3C31.2,134.8,32,134.7,32.2,134.6z M34,134.8
		c1,0,1.2,1.3,0.4,1.5C32.7,136.8,32.9,134.8,34,134.8z M31.4,139.5L31.4,139.5c0.7,0,1.1,0,1.4,0.2c0.3,0.3,0.3,0.7,0,0.9
		c-0.6,0.3-2.8,0-2.8-0.6C30,139.7,30.7,139.5,31.4,139.5L31.4,139.5z M132.7,139.7l-2.7,1.7l2.8,3.7c0,0-0.3,3.7-0.2,3.9
		c0,0.2,2.7-7.6,2.7-7.6L132.7,139.7z M26.1,143.9c1.1,1.3,1.7,2.1,3.5,2.8c0.4,18.9,0.3,62.1,0.3,62.1l5.3,3.7l5.6-4.1
		c-0.1-13.6-0.1-23-0.2-35.6l8.2,4.6c0,0,0.3,0.4,0.2,2.1c-0.6,4.7,3.9,7.8,6.9,5.9c1.2-0.5,1.2-0.6,1.5-0.2c0.7,1,1.4,5.3,1.6,8.1
		c0.2,4.2,1.3,12.7,1.5,12.7l-13.4,22.7H26.1V143.9z M107.3,145l-2.7,1.7l2.8,3.7c0,0-0.3,3.7-0.2,3.9c0,0.2,2.7-7.6,2.7-7.6
		L107.3,145z M39.7,146l0.5,61.9c0,0-2.6,1.9-3.4,2.4c-0.4,0.2-0.6,0.2-0.8-0.2c-0.1-0.5,0.1-1.5,0.3-3.1c0.2-1.5,0.2-1.6-0.1-3.7
		c-0.3-2.2-0.3-2.3-0.1-5.3c0.2-3.3,0.3-6.5,0-8.4c-0.2-1.9-0.2-6.2-0.1-8.5c0.2-2.9,0.2-5.5-0.2-7.6c-0.7-3.8-0.8-5.1-0.1-7.9
		c0.3-1.1,0.4-1.6,0.3-3.4c-0.1-2-0.1-2.6-0.8-7c-0.4-2.5-0.4-2.9-0.1-6.9c0.1-0.8,0.1-1.3,0.4-1.6C36,146.2,39.7,146,39.7,146z
		 M34.5,146.7c-0.3,1.3-0.4,2.2-0.4,3.2l-3.6-2.4l0-0.7L34.5,146.7z M30.5,148.4l3.6,2.3c0,1-0.1,1.9,0.1,2.9l-3.6-2.4L30.5,148.4z
		 M30.5,152.1l3.8,2.6c0.1,1,0.5,2.1,0.6,3l-4.3-2.9L30.5,152.1z M153.6,153.1l0.2,75.6h-37.9l-12-23.3c0,0,0.1-2.1,0.4-3.2
		c0.4-1.3,0.5-1.6,1-1.7c1.3,0.7,2.9-0.2,3.3-1.3c0.6-1.3-0.6-3.2-2.3-3.6c-0.8-0.2-1.6,0.2-2.5,0.8c-0.5,0.4-0.6,0.5-0.7,0.1
		c-0.2-0.8,0.5-3.1,1.8-5c0.7-1.1,0.9-1.4,1.1-1c0.9,1.6,3,1.3,3.7,0.4c0.9-1.1,0.7-3.7-1.4-4.4c-4.1-1.3-6,2.8-5.9,2.8l-0.9-5
		c4.9-1.2,7.8-1.7,9.4-3.2c1.2-1.2,1.8-3.2,1.7-5.1c0,0,13.7-5.6,20.2-9.1C143.8,161.1,153.6,153.1,153.6,153.1L153.6,153.1z
		 M133.3,153.7l-2.7,1.7l2.8,3.7c0,0-0.3,3.7-0.2,3.9c0,0.2,2.7-7.6,2.7-7.6L133.3,153.7z M116,154.5l-2.7,1.7l2.8,3.7
		c0,0-0.3,3.7-0.2,3.9c0,0.2,2.7-7.6,2.7-7.6L116,154.5z M30.7,155.9l4.4,3c0.1,1,0.2,1.9,0.1,3l-4.6-3.1L30.7,155.9z M30.6,159.7
		l4.5,3c0,0.9,0.1,1.8-0.3,2.5l-4.3-2.8L30.6,159.7z M124.5,160l-2.7,1.7l2.8,3.7c0,0-0.3,3.7-0.2,3.9c0,0.2,2.7-7.6,2.7-7.6
		L124.5,160z M30.6,163.3l3.9,2.9c0.1,0-0.2,1.3-0.2,2l-3.7-2.3L30.6,163.3z M30.7,166.8l3.6,2.5c0,1,0.1,1.9,0.2,2.7l-4-2.6
		L30.7,166.8z M30.7,170.5l4.2,3l0.2,2.4l-4.5-2.8L30.7,170.5z M64.1,171.3c0.4,0,0.8,0,1.3,0.2c4,1.5,7.8,9.3,7.7,19.3
		c-0.1,7,2,16.9,2,16.8c0,0-1.2,0.2-1.5-0.1c-1.5-5.1-2-10.5-2.3-15c-0.2-3.7-0.4-7.4-0.6-8.2c-0.7-3-1.4-6.5-3.3-8.8
		c-1.5-1.7-3.2-2-4.2-0.1c-0.8,1.6,0.9,4.2,2.4,3.3c0.3-0.2,0.6-0.5,0.1-0.5c-1.5,0.2-2.5-1.9-1.6-2.9c1.7-1.8,4.6,2.2,3.2,4.3
		c-0.6,0.9-2.2,1.1-3.4,0.8c-2.8-1.4-3.5-4.7-2.6-6.9C61.9,172.3,62.9,171.5,64.1,171.3z M60.5,172.5c0.3-0.1,0.1,0.6-0.2,1.6
		c-0.7,2.3,0.6,5.8,2.5,6.5c0.6,0.4,0.5,0.5,0.2,0.7c-1.2,0.7-3.4-1.4-4-3.7c-0.4-1.7-0.3-3.6,0.5-4.5
		C59.7,172.8,60.1,172.6,60.5,172.5L60.5,172.5z M57.8,173.8c0.3,0,0.2,0.6,0.1,1.6c-0.2,2.4,0.5,4.1,2.2,5.6
		c0.7,0.6,0.9,0.8,0.6,1.1c-0.4,0.5-1.7-0.2-2.6-1.2c-1.8-1.9-2.4-5.4-1-6.7C57.4,174,57.6,173.8,57.8,173.8z M30.6,173.9l4.5,3
		c0.2,0.9,0.1,1.9,0,2.9l-4.5-3.2L30.6,173.9z M107.9,174.2c1.9-0.1,3.5,0.7,3.7,3c0.3,3.5-2.9,5.4-5.2,3.4c-2-2,0-5.1,2.4-3.7
		c1.2,0.7-0.2,2.4-1.2,1.6c-0.4-0.4-0.6-0.1-0.3,0.3c0.9,1.4,2.7,0.2,2.6-1c-0.3-2.4-3.2-2.4-4.3-1.4c-1.5,1.3-2.8,3.2-3.8,4.5
		c-0.8,1.2-1,1.2-0.9-0.3C101.3,176.8,104.9,174.3,107.9,174.2z M55.5,175c0.3,0,0.2,0.4,0.2,1.6c0.1,2.9,1.4,4.8,2.9,5.8
		c0.5,0.6-0.1,1-1.1,0.7c-2.2-0.7-4.5-5.5-2.6-7.6C55.1,175.1,55.3,175,55.5,175z M53.3,176c0.3,0,0.1,0.6,0.2,1.9
		c0.1,2.6,0.9,3.8,2.8,5.4c0.6,0.5,0.7,0.5,0.5,0.7c-0.7,0.8-2.9-0.3-3.8-1.9c-1.1-1.8-1.3-4.6-0.2-5.7
		C52.9,176.1,53.2,176,53.3,176z M51.2,177.2c0.3,0,0.1,0.5,0.2,1.6c0.1,2.7,0.7,4,2.4,5.3c1.1,0.8,1.3,0.5,1,0.9
		c-0.6,0.5-2.1,0.1-3.3-0.9c-1.8-1.5-2.2-5.2-0.8-6.4C50.8,177.3,51,177.2,51.2,177.2z M30.7,177.6l4.3,3l-0.1,2.6l-4.3-2.9
		L30.7,177.6z M104.5,178.8c0.1,0,0.2,0.1,0.3,0.4c0.3,1,0.9,2.4,1.8,2.7c0.4,0.1,0.1,0.6-0.3,0.6c-1.8-0.4-2.4-1.6-2.2-3.1
		C104.2,179,104.4,178.7,104.5,178.8z M68.5,179.3c2,5,2,10.6,2.3,15.8c0.4,6.9,1.7,11.6,2,12.4c0,0-1.9,0-2-0.3
		c0,0-1.8-9.2-1.6-13.7c0-5.1-1-9.5-1.6-11.6C67,180.2,67,181.3,68.5,179.3L68.5,179.3z M89.4,180.2c-0.9,0-2.7,0.5-2.7,0.8
		c0,0.2,0.6,0.3,1.5,0.1c1-0.3,2.1-0.2,2.9,0c0.9,0.2,0.9,0,0.2-0.4C90.9,180.6,90.3,180.2,89.4,180.2z M103.1,180.6
		c0.1,0,0.3,0.1,0.5,0.4c0.1,0.2,0.4,0.6,0.7,0.9c0.5,0.6,0.7,0.6,0.4,0.9c-0.6,0.6-1.7-0.3-1.9-1.4
		C102.8,181,102.9,180.6,103.1,180.6z M66.3,181.2c1.9,2.8,2.2,9.3,2.3,14c0,4.2,1.4,11.9,1.6,11.8c-0.4,0.2-0.9,0.2-1.4,0
		c-0.5-0.7-0.8-2.5-1.4-7.5c-0.1-1.3-0.4-5.4-0.5-8.7c-0.1-2.9-1.7-9.2-1.7-9.2S65.7,181.2,66.3,181.2z M84,181.3
		c-0.2,0-0.1,0.7,0,1.5c0,1.9,0.3,1.1,0.9,0.8c0.5,0,0.9,0.2,1.8,0.6c1.2,0.4,1.1,0.6,1.9,0.2c0.5-0.2,0.9-0.3,1.1-0.1
		c1,0.8,2.2,0.3,2.9-0.3c0.5-0.3,1.1-0.1,1.6-0.1c0.7,0.1,0.5-0.4,0.6-1.2c0.1-0.7-0.2-0.8-1-0.6c-0.8,0.3-1.6,0.3-2.2,0.1
		c-1.7-0.5-3-0.2-3.9-0.1c-2,0.3-2.1,0.1-2.6-0.2C84.8,181.7,84.2,181.3,84,181.3z M30.7,181.3l4.2,2.7c-0.1,0.9-0.1,1.9-0.1,2.8
		l-4.1-2.9L30.7,181.3z M64.1,181.9c1.8,4,2.1,7.9,2.1,12.8c0.1,4.5,1.1,9.9,1.5,12.2c-0.6,0.1-1.2,0.1-1.5-0.2
		c-1-3.3-1.3-8.9-1.6-12.8c-0.3-5.6-0.4-7-1.2-9.8c-0.4-1.6-0.6-1.6-0.3-1.9C63.4,182,63.9,181.9,64.1,181.9z M102.2,181.9
		c0.1,0,0.2,0.3,0.4,0.5c0.5,0.6,0.6,0.9,0.2,0.9c-1,0.1-1.2,0-1.2-0.6c0-0.5,0.1-0.7,0.5-0.9L102.2,181.9z M62,182.8
		c1.5,1.5,1.8,9.8,2,11.6c0.5,9.7,1.4,11.1,1,11.9c-0.6,0-0.7,0.2-1.1-0.3c-1.3-3.6-1.2-7.2-1.4-11c-0.3-4.9-0.8-7.6-1.5-10
		c-0.5-1.6-0.5-1.7,0.4-2.1C61.5,182.9,61.9,182.8,62,182.8z M59.4,183.9c0.2,0,0.4,0,0.6,0.1c0.5,1.2,1.6,6.6,1.7,11.2
		c0.1,3.7,1,10.9,1.1,10.9c-0.5,0-1.2-0.1-1.4-0.5c-1.6-7.1-1.1-14-2.9-21.1C58.6,184.3,58.9,183.9,59.4,183.9z M97.1,184.1
		c-0.7,0-1.4,0.1-2.2,0.5c-2.4,1-3.1,1.7-2.7,2.4c0.3,0.6,1.3,0.4,3.9-0.7c1.9-0.8,2.6-0.5,2.9,0.8c0,1.8-1.8,2-2.8,1.8
		c-0.2,0-0.3-0.1-0.3-0.1s0.1,0.4,0.4,0.7c2,1.7,4.5-1.5,3.2-3.5C99.1,184.8,98.2,184.2,97.1,184.1z M81.5,184.7
		c-0.6,0-1.3,0.1-1.9,0.6c-2,1.6-1.3,4.5,0.4,4.9c0.5,0.2,1.2,0.1,1.4-0.1c0.3-0.2,0.2-0.4-0.3-0.5c-1.6-0.3-2.4-1.4-1.7-2.6
		c0.7-1.1,2.1-0.9,4.7,0.2c2.2,1,3.2,0.7,3.5-0.5c0.1-0.5,0-1-1.1-1C84.5,185.6,82.9,184.7,81.5,184.7z M30.7,184.9L35,188l0.1,2.7
		l-4.4-3.2L30.7,184.9z M107.2,187.3c1.4,0.1,2.2,0.9,2.3,1.9c0.1,2.2-2.5,2.2-2.9,0.5c-0.1-0.8-1.5,0-2.3,1.5
		c-0.9,1.4-1,1.6-1.1,0.1c-0.3-2.2,2-4,3.5-4C106.8,187.3,107,187.3,107.2,187.3z M30.6,188.4l4.6,3.2c0,0,0.2,1.7,0.1,2.6l-4.6-3
		L30.6,188.4z M90.7,189.1c-0.1,0-0.3,0-0.4,0.1c-0.3,0.2-0.6,0.3-1.3,0.1c-1.1-0.2-2.4-0.5-3.4,0c-2,1.4-0.8,3.8,0.6,4.1
		c1.5,0.3,1.6-0.7,0.1-1c-0.8-0.3-1-1.1-0.7-1.6c0.7-1.1,2-0.4,2.7,0c1.7,0.8,2.5,1.1,3,0.5C92.2,190.5,91.6,189.1,90.7,189.1z
		 M30.7,192.1l4.5,3.1L35,198l-4.2-3.1L30.7,192.1z M30.8,195.9l4.2,3c-0.1,1.2,0,1.6,0,2.4l-4.3-2.8L30.8,195.9z M105.6,196.5
		c3.4,0.3,2.3,4.3-0.1,3.2c-0.6-0.5-0.8-0.4-1.5,1.3c-0.9,2.2-1.1,2-1-0.5C103.1,198,104.2,196.5,105.6,196.5z M97.9,196.9
		c0.9,0,1.9,0.9,2.6,2.7l-1,0.1c-0.9-2.2-2.2-2.6-3.3-0.4l-0.8-0.2C96,197.6,96.9,196.9,97.9,196.9z M95.4,197c0.5,0,0.5,0.2-0.1,1
		c-0.5,0.7-0.6,0.8-1.1,0.4C93.4,197.8,94.7,197.1,95.4,197z M81.3,197c0.9,0,1.7,0.6,2.1,2.1l-0.6,0.1c-0.9-2.1-2.8-1.6-3.4,0.3
		l-0.8-0.1C79,198.1,80.2,197.1,81.3,197z M78.9,197.1l0.2,0c0.2,0.3-0.5,1.3-1,1.9c-0.4,0.3-1.5-0.5-1.2-0.9
		C77.1,197.8,78.3,197.1,78.9,197.1z M100.2,197.1c0.1,0,0.2,0,0.4,0c1.1,0.3,1.5,0.8,1,1.4c-0.3,0.4-0.6,0.6-0.9,0.3
		C100,197.7,99.6,197.1,100.2,197.1z M83.6,197.5c0.3,0,0.6,0.1,0.7,0.3c0.1,0.4-0.2,0.8-0.6,0.4c-0.2-0.1-0.3-0.4-0.3-0.6
		L83.6,197.5z M30.7,199.3l4.4,3.2c0.1,1.1,0.2,2,0.2,2.7l-4.5-3L30.7,199.3z M92.8,199.6c0.3,0,0.9,0.3,1.3,0.6
		c2.5,1.7,5.4,1.7,7.3,0.2c0.4-0.3,0.8-0.4,0.8,0c-0.3,1.2-3.5,2.8-6,1.9c-1.4-0.5-2.5-1-3.4-2.3C92.7,199.7,92.7,199.6,92.8,199.6
		L92.8,199.6z M93,201.1l0.1,0c3.7,3.2,6.6,2.3,8.8,0.7c0.3-0.1,0.3,0.2,0.4,0.8c0.1,0.7-0.5,1.1-2.1,1.5c-3.1,0.9-6.7-0.1-7.3-2.2
		C92.8,201.6,92.7,201.1,93,201.1z M30.7,203l4.4,3.1l-0.1,2.3l-4.3-2.9L30.7,203z M30.8,206.6l4.2,2.8l0,1.9l-4.1-2.9L30.8,206.6z
		 M103.7,207.4l10.9,21.6l-66,0.1c4.3-7,7.9-14.7,12.3-21.7C78.8,211.6,91.4,209.6,103.7,207.4z"/>
	<path d="M62.7,20.3c1.9,3.3,3.4,6.7,5.1,10.1l0.3,0.2l0.4,0.8l0,0.4l1,1.6l0,0.4l4.3,8.1c3.6-1.3,32.7-3.7,43.5,0.2l1.6-2.7l0.4,0
		l2.8-4.9l0-0.4l0.9-1.1l0.1-0.5l3.1-4.8l0-0.8l3.8-6.4L62.7,20.3z M128.7,21.2c0,0-2,3.9-3,5.4c-0.8-0.7-3.2-0.2-3.1,2.4
		c-3.9-1.5-4.9,3.2-1.8,4.3c-1.6,1.4-3.1-0.2-4.2-1.2c-1.2,0.3-3.6,1.1-4.9-1.4c0,0,0.6,0.3,1.1,0.6c3.2,1,3.5-3.4,1.1-4.1
		c-0.3-0.1-0.9-0.1-0.9-0.1c0.8-3.4-4.4-4.5-4.5-0.5c0,0-0.6-0.1-1.1,0c-2.7,0.5-2.1,4.6,0.7,4.4c0.4,0,0.7,0,0.7,0
		c0,0.7-3.4,1.9-5.9-0.3c-1.2,0.9-3,2-5.4-0.2c1.6-0.1,3.1-0.5,3.1-2.3c0-1.2-1.1-2.2-2.6-2.3c-0.1-1.3-1-2.6-2.3-2.6
		c-1.5,0.1-2.3,1.3-2.3,2.6c-1.3,0.1-2.5,1.3-2.2,2.6c0.4,1.8,1.8,2,3.3,1.7c-1.9,3.1-5,1.5-6,0.5c-1.1,1.1-3.1,2.5-5.6,0.5
		c1.3-0.2,2.8-1,2.5-2.8c-0.2-1.5-1.8-1.9-2.5-1.8c0-1-0.7-2.5-2.4-2.4c-1.9,0.2-1.7,2.5-1.7,2.6c-1.5-0.1-2.6,1.7-2.2,2.8
		c0.5,1.4,1.6,1.8,3.7,1.5c-2.4,2.3-3.9,1.4-5.2,0.9c-1.2,1.2-2.7,1.6-4.3,0.5c3.5,0.2,3-6.1-1.2-3.8c-3-3.5-2.9-2-5.6-7.2
		L128.7,21.2z M95.8,27.4c0.2,0,0.4,0,0.5,0.1c0.6,0.3,0.7,0.8,0.3,1.5c-0.1,0.3-0.3,0.6-0.3,0.8c3.9,7.2,12.5,4,13.3,0.6
		c0.1-0.2,0-0.4-0.2-0.7c-0.3-0.6-0.3-1,0.1-1.4c0.9-0.8,2.2,0.1,1.7,1.2c-0.1,0.3-0.3,0.6-0.2,1c2.2,5,6.6,5.4,10.3,3.4
		c-1.7,3.1-8.3,4.9-11-2.4c-4.4,6-11.4,5.9-14.6-0.9c-2.9,6.9-11.5,7.1-14.6,1.3c-2.8,6.6-9.5,5.1-11.3,1c6.1,4.5,10.2-0.2,10.9-2.2
		c0,0-0.1-0.2-0.3-0.4c-0.8-0.8-0.8-1.7,0.1-2.1c1-0.5,2,0.5,1.5,1.5c-0.1,0.3-0.3,0.3-0.2,0.6c1.9,4.5,11.3,5.8,13.2-0.5
		c0.1-0.4,0-0.7-0.1-1C94.5,28.3,95.1,27.4,95.8,27.4z M68.4,30c1.5,0.1,1.1,1.4,0.8,1.5L68.4,30z M123.5,30.8l-0.9,1.7
		C122.1,31.6,122.2,30.6,123.5,30.8z M118.4,39c0,0-0.9,2.1-1.3,2.3c-17.6-4.5-42.1-0.6-42.7-0.2l-1.1-2
		C88.8,36,104.2,36.7,118.4,39z M88.8,70.4c-1.7,6.6-5.8,7.3-10.8,8.1c-6.1,1-10.2-1.3-12-4.7c0,0-8.8,3.3-12,5.3
		c6.7,3.1,15.5,9.9,20.5,17.6c1.8,2.4,1.7,1.8,1.7,7c0,11.2,0,15.4,0,15.4c2.8,0.4,2.9,2.3,2.8,4.5c2.2-1,4.3,0.2,4.3,2.3
		c0,3.9-3.8,2.8-4.6,2.4c1.2,3.4-0.2,4.8-1.7,5c-1.8,0.2-3.9-0.7-3.3-4.6c-4.5,1.1-4.7-3.2-4.9-6.9c4.9-9.2-1.2-16.8-7-19.2
		c0,0,1.6-3.4,3.7-4.3c0.2-0.1-1.3-2.3-3.8-1.8c-1.2,0-0.9,0-2-1.4c-2.1-2.8-3.2-3-5.2,0c-0.9,1.3-1.1,1.4-2.2,1.4
		c-1.2,0-3,0.9-3.4,1.7c-0.1,0.2,0.4,0.4,1,1.1c0.9,1.1,2.3,2.5,2.1,4c-4.7,1.9-12.6,10.5-4.3,21.4l-6,0.1l-0.3-38.8l-4.2,2.3
		l0.2,30.4l-1.2-0.4c0.1-9.7-0.1-19.4-0.4-29.1l-10.9,8l0.5,45.6l1.2,0.2c0.9,6.2,13.1,1.9,13.8,2.4l0.1,25.3l-0.5,1.3l9.7,5.4
		l8.9-4.7c0,0,1.2-0.2,1.7-0.5c3.7-2,6.4-1.5,8.5,1.4c1.2,1.8,1.4,2,1.4,2c0.8-5.1,5.3-7,9.6-5.7c3.2,1,7.6,4.2,9,8.2
		c0,0,0.2,0.6,0.5,0.9l0.2,0.1c0-0.1-0.2-0.6-0.3-0.8c-4.5-10.4-17.2-12-19.2-3.5l-1.8-2.5l9.5-5.8l12.9,8.6c0,0-0.6,3-0.7,4.3
		l0.2,0.1c0.1-1.6,0.6-3.4,1.3-4.7c0.3-0.6,0.7-1,1.1-1.3c0.8-0.5,1.5-0.4,2.3-1.1l-1.9-1.4l0-4.6l3.8,5.4c1.2-0.3,5.8-1.7,8.6-0.1
		c0.3,0.1,4.4-1.1,6.9,4.6c4.4-1.9,9.4-3.9,12.9-5.6c-12.1-4.5-24.3-20.4-23.1-20.7c0,0,0-1.6,0.1-5.6c0.1-4.5,0-9,0.1-13.5
		c-4.1-1.3-3.1-4.7-3.1-4.7c-2.5,0.5-2.9,0.1-3.5-0.4l-0.4-4.2c1.5-1.3,2.4-1.4,4.2-1c0,0-0.9-1.8-0.1-3.3c0.7-1.2,2.5-2,3.9-1.1
		c1.8,1.2,1.5,3.6,1,4.3l0,0.1c1.9-0.9,4.3,0.1,4.9,2c0.3-5.7,0.8-12.1,1.9-17.1c2.1-9,5.5-18.5,9.9-25.9c1.1-1.9,2.3-3.4,3.3-5.4
		c0,0-0.9,0.5-1.9,0.8c-1.4,0.4-2.5,0.7-2.6,0.9c-1,0.9-2.4,1.5-3.5,2c-3.9,1.5-6.5-0.7-8.1-4.2c-0.9,4.4-4.9,8.1-10.8,5.8
		c-3.3-1.8-4.4-2.9-7.5-7.6C89.4,71,88.8,70.4,88.8,70.4L88.8,70.4z M88.9,71.2c2.2,4.4,5.5,7.5,8.7,8.8c5.7,1.9,9.5-1.8,10.6-5.2
		l1.1,1.9l-8.7,6.2l-13.1-8.4C87.7,74.2,88.9,71.3,88.9,71.2z M128.3,71.5l-3.9,2.3c0,0-2.6,4.2-3.5,5.8c-4.5,8.1-7.9,16.9-9.7,25.6
		c-1.6,7.2-2.2,16.2-2,22.2l0.3,0.3c0,0-0.5,0.8-0.8,1.6c-0.9,1.9-1.2,3-1.1,5.3c0.1,5.2,3.2,10.1,7.6,12.1c0.2,0.1,0.6,0.3,0.6,0.3
		s-0.8,2.1-2.1,3.5c-0.9,1-1.1,1-0.8,1.5c0.4,0.7,1.9,1.2,3.7,1.2c0.6,0,0.6,0,1.8,1.3c2.3,2.5,3,2.5,5.1-0.4c0.6-0.8,1-1.1,1.9-1.1
		c1.3,0,3.8-1.1,3.8-1.6c-1.6-0.7-3.5-4.5-3.2-4.5c9-4.8,10.9-14.7,4.3-22l6.3-0.1l0.2,39.6c1.2-0.8,4-2.6,4-2.6l-0.1-30.8
		c0.4,0.1,0.9,0.4,1.7,0.5l0.2,29.3c0,0,8-5.7,11.9-8.7l-0.2-44.9h-0.9l0.1,44.9l-10.6,7.8l-0.1-27.9c0,0,0.8-0.1,1.2-0.2
		c3.1-0.4,4.6-4.4,2.5-7c-0.7-0.9-0.2-0.9,1.3-1.2c2.8-0.2,4.3-2.4,3.5-3.9c-0.3-0.6,0.1-0.6,0.4-1.2c0.2-0.5,0.2-1.1,0.1-1.5
		c-0.1-0.6,0.1-0.9,0.3-1.3c0.2-0.6,0-1.3-0.4-1.9c-0.4-0.6-0.3-1.3-0.3-1.7c0-0.9-0.3-1-1.3-1.9c-0.7-0.7-0.1-0.8,0.9-1.4
		c1.7-0.9,1.8-3.9-0.4-5.3c-2.8-1.1-7.2,0.1-11.9,0.6c0,0,0-17.5-0.1-26.6L128.3,71.5z M128.3,72.1c0,0,9.5,5.6,9.5,5.8
		c-3.2,4.4-15.2,22.1-15.2,43.4c-8.8-1.1-12.4,5.8-12.8,5.8c-1.2-26.1,9.4-44.8,14.7-52.7L128.3,72.1z M122,75l0,1.4l-1.9,3.1
		l-0.1-3.2L122,75z M119.4,76.5l0.1,4.6l-3.9,3l-0.1-4.8L119.4,76.5z M83.5,77.6l2,1.4l-0.1,4.6l-3-5.5L83.5,77.6z M138,79.1l0,3.3
		c-7.6,10.9-11.6,23.3-12.9,39l-1.9-0.1C123.7,105.7,129,91.4,138,79.1z M86.2,79.4l4.7,3.1l-0.2,5.2L86.5,85l-0.4-1.1L86.2,79.4z
		 M114.8,79.7l0,4.8l-3.6,2.7l-0.2-4.8L114.8,79.7z M70.6,80.9c0.5,0,1,0.4,1.1,1.2c0.4,3.2,2.8,2.3,3.4,3.2c0.2,0.3-0.3,0.6-2,0.5
		c-3-0.2-5.3-2.7-3.7-4.3C69.8,81.1,70.3,80.9,70.6,80.9z M91.6,83l4,2.6l0,5.3l-3.9-2.4L91.6,83z M110,83l0.3,4.7l-4.4,3l-0.2-4.7
		L110,83z M118.4,83l-2.5,5.4l-14.8,10.7l-12.2-8l-2.3-5.2l14.3,9.4L118.4,83z M78.6,85.2c3.9,0,6.9,4.1,8,7.8
		c0.7,2.4,0.9,3.3,0.9,7.2c0.1,3.9,0.2,4.6,0.9,5.2c0.5,0.3,0.6,0.2,0.6-0.4c0.1-1.5,2-0.6,2,1c0,1.8-1.9,2.4-3.4,1
		c-0.8-0.7-0.8-0.7-1,0.7c-0.2,1-1.3,7.1,1.6,8.6c0.5,0.1,0.7-0.4,0.3-0.9c-0.8-1,0.8-2.2,2.1-1.5c1.6,0.8,1.4,3.4-0.3,4.3
		c-1.9,1-4.4-0.1-5.6-2.7c-0.9-1.9-0.9-4.4,0-8.2c0.4-1.8,0.6-2.9,0.7-4.2c0-0.4,0.1-0.9,0.1-1.1c0.1-0.4-0.1-0.4-0.8-0.1
		c-1.9,1-4,0.3-4.5-1.5c-0.6-2.1,1.7-4.3,3.2-3c0.5,0.5,0.5,1-0.2,1.3c-1.1,0.6-0.7,2,0.5,1.7c4-1.2,0.3-12.4-4.1-13.2
		c-3-0.5-5.3,2.9-3.1,4.7c0.8,0.7,1.7,0.3,1.5-0.7c-0.3-1.4,1.6-1.2,2.3,0.2c1.1,2.3-1.8,4.2-4.4,2.9C71,91.5,74.2,85.3,78.6,85.2z
		 M96.4,86.1l4,2.7l0,5.2l-3.9-2.3L96.4,86.1z M105.1,86.5l0,4.8l-3.8,2.8V89L105.1,86.5z M115.4,89.7l-2,5.5l-12.3,8.5l-10.2-6.4
		l-1.7-5.1l12,7.8L115.4,89.7z M35.4,90.1l0,27.8c-4,0.2-6.3,4.2-3.3,7.9c0,0-0.5,0.1-1.1,0.2c-2.7,0.4-4.5,1.8-4.2,3.6
		c0.1,0.5,0,1.1-0.2,1.3c-0.2,0.7-0.2,1.3,0.1,1.9c0.3,0.5,0.2,0.7,0.1,1c-0.3,0.8-0.2,1.4,0.1,2c0.4,0.4,0.3,0.8,0.3,1.5
		c-0.1,1,0.1,1.4,0.7,1.8c0.8,0.5,1.1,1.3,0.2,1.2c-0.5,0-2,1.5-2,1.5L26,97.2L35.4,90.1z M57.1,93.6c0.7,0,1.5,0.9,2.5,2.4
		c0.6,1.1,0.6,0.9,2.1,0.9c1.5,0.1,2.4,0.5,2.8,1c0.1,0.2-0.2,0.2-1.2,1.2c-1,1-1.1,1.4-1.8,2.5c-0.2,0.4-0.7,0.4-1,0.1
		c-0.2-0.3,0.3-1.3,1.2-2.4c1.3-1.3,1-1.4-0.9-1.2c-1.3,0.1-1.5,0.1-2-0.7c-1.5-3-2.3-2.9-3.8,0.1c-0.4,0.8-0.2,0.8-2,0.7
		c-1.4-0.1-1.7,0.2-0.9,1c1.2,1,1.7,3.3,1.6,3.3l-0.9,0.1c0,0-0.3-0.5-0.4-0.9c-0.2-0.7-0.9-1.7-1.6-2.5c-1-1.1-0.5-1.7,1.8-2
		c1.3-0.1,1.3-0.2,1.9-1C55.6,94.5,56.3,93.6,57.1,93.6z M112.9,96.4l-1.3,4.7l-10.5,7.4l-8.5-5.8l-1.1-4.5l9.8,6.3L112.9,96.4z
		 M76.7,100.1c0,0,3,6,4.1,9.8c1,3.4,2.3,13.1,1.9,13.7c-0.7-1-3.2-0.8-3.2-0.8c0.2-1.1-0.7-3.4-2.8-3.9L76.7,100.1z M111.3,102.3
		l-1,4.7l-8.9,6.5l-7.4-5.1l-1-4.5l8.2,5.5L111.3,102.3z M59.3,102.6l1.2,0.4l0.2,8.4l9,1.5l0.2,1.4l-10.4-1.7
		C59.3,109.1,59.3,102.6,59.3,102.6z M54.7,102.8l0.2,9.8c-0.1,0-7.5,1-10.3,1.8l0.2-1.3c0,0,5.1-1.1,8.8-1.6c0-2.7,0-5.6,0-8.4
		L54.7,102.8z M138,104.6c0,0,1.2,0.1,3.8-0.3c6.7-1.2,8.5-0.7,9.4,1.4c0.9,3.2-2.6,3.3-3.2,1.3c-0.4-1.3-1.8-1-6.7,0.1
		c-4.1,1-6.7,0.2-6.7-2.2C134.7,102.5,137.5,102.2,138,104.6z M82.8,102.9c0.8,0,1.5,0.7,1.5,1.5c0,0.8-0.7,1.5-1.5,1.5
		s-1.5-0.7-1.5-1.5C81.3,103.6,82,102.9,82.8,102.9z M61,103.1l1.1,0.3l0.2,6.4c2.3,0.5,7.1,1.4,7.1,1.4l0.3,1.3
		c-2-0.5-8.4-1.5-8.4-1.5C60.9,108.2,61,103.1,61,103.1z M53.2,103.2c0,0,0,5.1-0.1,7.8c0,0-5.4,0.9-8.2,1.5l0.2-1
		c2.2-0.5,4.6-1,7-1.5c0-2,0-6.4,0-6.4L53.2,103.2z M57.1,104.3c0.7,0,1.2,0.5,1.2,1.2c0,0.7-0.5,1.2-1.2,1.2
		c-0.7,0-1.2-0.5-1.2-1.2C55.9,104.9,56.4,104.3,57.1,104.3z M148,107.5c0.7,1.1,1.4,1.1,2.1,1c-0.2,0.1-1,0.6-1,0.7
		c0,0.1-0.4,1.5,0.2,1.5c2.2,0.2,1.1,2.6,1.4,2.9c0.6,0.7,1,1.1,0.6,2c-0.4,0.8-0.9,0.7-0.5,1.4c0.9,1.3-0.3,1.6-0.2,2.5
		c0.1,0.6,0.3,1.3,0.1,1.7c-0.6,1.3-2.8,2-5.2,2.1c-0.3,0-0.1-0.5-0.2-0.9c-0.6-0.4-0.3-1-0.1-1.4c0.2-0.6,0.2-0.6-0.2-0.8
		c-1-0.6-1-0.9-0.9-1.4c0.2-1.4,0-1.5-0.4-1.7c-0.5-0.3-0.5-0.8-0.2-1.6c0.2-0.5,0-0.6-0.2-1.1c-0.1-0.3-0.2-0.4-0.2-0.6
		c0.1-0.7-0.6-0.7-1.4,0c-0.7,1.3-1,3-1.5,4.1c-0.4,0.8-0.4,1.7,0,3.6c0.8,2.9,0.2,3.4-3,2.8c-2.4-0.6-3.2-3.2-2.5-6.4
		c0.1-0.5,0.1-1,0-1.4c-0.3-2.2,0.3-4.3,1.8-5.8c2.6-2.4,3.8-2.8,9.1-2.5c2.1,0.1,2.2,0.3,2.2,0.3L148,107.5z M110,108.2l-0.6,4.5
		l-5,3.5c-2.2-2.1-4.6-1.4-5.7,0.8c-1.3-0.7-3.9-2.5-3.9-2.5l-0.7-5.1l7.2,5L110,108.2z M57.2,109.3c0.7,0,1.2,0.5,1.2,1.2
		c0,0.7-0.5,1.2-1.2,1.2s-1.2-0.5-1.2-1.2C56,109.8,56.5,109.3,57.2,109.3z M109.1,113.9l-0.3,4.3l-1.8,1.3l-2.3-0.1
		c0.2-1.1-0.1-2.6-0.1-2.6L109.1,113.9z M57.2,113.9c0.7,0,1.2,0.5,1.2,1.2c0,0.7-0.5,1.2-1.2,1.2s-1.2-0.5-1.2-1.2
		C56,114.5,56.5,113.9,57.2,113.9z M62.1,114c0.7,0,1.2,0.5,1.2,1.2c0,0.7-0.5,1.2-1.2,1.2c-0.7,0-1.2-0.5-1.2-1.2
		C60.8,114.6,61.4,114,62.1,114z M52.4,114.3c0.7,0,1.2,0.5,1.2,1.2c0,0.7-0.5,1.2-1.2,1.2s-1.2-0.5-1.2-1.2
		C51.2,114.8,51.7,114.3,52.4,114.3z M142.2,114.5c0.3,0,0.8,0.5,0.6,1.2c-0.3,0.9-0.1,1.2,0.5,1.9c0.5,0.6,0.4,0.7,0.3,1.1
		c-0.1,2.5,1.5,1.4,0.8,3.2c-0.2,0.4,0,1,0.1,1.4c-0.2-0.4-3.1-0.4-3.4,0c-0.4-0.1-1-2.9-0.5-3.2c0.1,0,0.4,0.5,0.5,0.7
		c0.4,0.7,0.5,0.7,0.4-0.1C141,117.7,141.3,114.5,142.2,114.5z M66.9,114.7c0.7,0,1.2,0.5,1.2,1.2s-0.5,1.2-1.2,1.2
		c-0.7,0-1.2-0.5-1.2-1.2C65.7,115.2,66.3,114.7,66.9,114.7z M47.4,114.9c0.7,0,1.2,0.5,1.2,1.2c0,0.7-0.5,1.2-1.2,1.2
		c-0.7,0-1.2-0.5-1.2-1.2C46.1,115.5,46.7,114.9,47.4,114.9z M94.7,115.3l3.6,2.4c0,0.7-0.1,0.9,0.2,2.2c-2.4-0.2-3.6,1.1-3.6,1.1
		L94.7,115.3z M69,119l-0.3,1.3c-7.1-1.9-15.1-1.9-22.7,0.1l-0.6-1.4C53,116.7,61.2,116.6,69,119z M35.2,119c1,0,2.1,0.4,2.8,1.2
		c1.4,1.6,0.7,4.5-1.3,5.5c-3,1.4-6.1-1.6-4.8-4.7C32.5,119.7,33.8,119,35.2,119z M108.7,119.3l0,1.3l-0.9-0.8L108.7,119.3z
		 M89.8,119.4c1.3,0,2.4,1,2.4,2.4c0,1.3-1,2.4-2.3,2.4c-1.3,0-2.4-1-2.4-2.4C87.4,120.5,88.5,119.4,89.8,119.4z M35.2,119.5
		c-0.3,0-0.9,0.1-1.1,0.4c-0.6,0.6,0,0.6,0.8,0.8c1.5,0.3,1.9,1.6,1.8,3c-0.1,1.3,0.3,1.2,0.6,0.8C38.8,122.4,37.6,119.6,35.2,119.5
		z M57.2,120.9c1.8,0,2,2.9,0.4,6.2c-0.5,1-0.7,0.9-1.2-0.6C55.1,122.8,55.4,120.9,57.2,120.9z M61.3,121c0.3,0,0.7,0.1,0.9,0.4
		c1,1.1,0.2,2.9-2.3,5.6c-0.6,0.7-0.9,0.9-1.2,0.9c-0.6,0-0.6-0.1,0.1-2.5C59.3,124,59.6,121,61.3,121z M55.6,126.1
		c0.2,0.6,0.3,1.1,0.3,1.2c-0.2,0.4-1.3-0.2-2.1-1.1c-1.6-1.9-2.3-3.6-1.9-4.5c0.5-0.7,1.9-1.1,2.3-0.4
		C55,122.7,55,124.5,55.6,126.1z M66.1,121.7c1.7,1-0.3,3.4-4.1,5.3c-1.6,0.8-1.5,0.5-0.3-1.2c0.5-0.6,1.1-1.6,1.4-2.3
		C63.8,122.2,64.5,120.8,66.1,121.7z M49,121.7c0.5,0,1.1,0.6,2.1,2.1c0.7,1.1,2.1,2.3,2.5,3.2c-0.2,1.1-5.5-2.3-5.9-3.7
		C47.5,122.4,48.2,121.7,49,121.7z M125.6,124.8c1,2,1,3.2,0.2,3.7c-1.1,0.6-2.6-0.3-2.6-1.8c0-0.5-0.5-2.1-0.9-3.2
		c-0.4-0.9-0.4-1.4-0.1-1.5C123.4,122.2,125.1,123.8,125.6,124.8z M119.2,123.2c-0.5,1.4-0.6,3.3-1,4.4c-0.8,2.1-3.3,0.4-2.4-1.8
		c0.8-1.9,2.7-3.9,3.5-4C119.8,121.8,119.3,123.1,119.2,123.2z M120.8,122.1c0.4,0,0.7,0.8,1.2,2.2c0.7,1.9,0.6,3.5-0.1,4.1
		c-1.6,1.4-3.2-0.6-2.6-3.1C119.9,123.3,120.4,122.2,120.8,122.1z M68.4,122.5c1.9,28.8-12.7,51-13.8,51.6l-5,2.7l-8.7-4.8
		c9.1-12.5,14.5-26.9,14.9-43.6C64.2,129.3,68.5,122.5,68.4,122.5z M116.5,122.6c0.6-0.2,0.2,0.4-0.4,1.3c-0.6,0.9-1.5,3.5-2.2,3.9
		c-1.5,0.7-3.2-0.7-2.3-1.9C112.5,124.8,114.9,123,116.5,122.6z M125.4,122.8c0.2,0,0.7,0.2,1.3,0.5c3.1,1.5,4.7,3.6,3.3,4.5
		c-0.9,0.7-1.9,0.2-2.9-1.6c-0.3-0.6-0.9-1.5-1.3-2C125.2,123.2,125,122.8,125.4,122.8z M142.9,123.8c2,0,3.6,1.6,3.7,3.6
		c0,2-1.6,3.7-3.6,3.7c-2,0-3.6-1.6-3.7-3.6C139.3,125.5,140.9,123.8,142.9,123.8z M141.8,124.8c-2.4,1.1-1.6,4.8,0.4,5.3
		c0.9,0.2,1.9-0.1,1.5-0.5c-2.7-0.8-2.7-2.8-1.6-4.3C142.2,125,142,124.7,141.8,124.8z M43.7,129.9c-0.1,2.1,0.4,4.5-0.6,6.8
		c-1.5,3.5-6.4,5.1-9,4.8c-0.5-0.2-1.2-0.4-1.7-0.2c-0.3,0.1-0.7,0.1-1.1,0c-0.3-0.2-0.7,0-1-0.1c-0.4-0.3-1-0.8-0.9-1.3
		c0.1-0.6,0.1-1.1-0.6-1.3c-1-0.3-1.2-0.8-0.9-2.4c0.1-0.3,0.1-0.5-0.1-0.6c-0.7-0.5-1-1.4-0.5-2.3c0.3-0.5,0.5-0.8,0.1-1.3
		c-0.4-0.4-0.2-0.8,0.2-1.4c0.5-0.6,0.6-0.7,0.3-1.2c-0.7-1.2,0.1-2,1.1-2.5c1.3-0.5,2.5-0.8,3.8-1c0.5,0,0.5,0.5,0.8,0.9
		c0.5,0.7-0.2,1.7,0.2,2.1c0.5,0.2,0.8,0.7,0.7,1.2c0,1,0,1.3,0.3,1.7c0.3,0.5,0.4,1.3,0.1,1.9c-0.2,0.5-0.2,0.5,0.1,0.8
		c0.3,0.3,0.5,1.8,0.4,1.8l1.3-0.1c-0.1,0.2,0.5-2.8,2-5.1c-0.1-1.8-0.8-3.4-0.7-5.8C41.4,124.1,43.8,127,43.7,129.9z M95.4,125.9
		c0.5,0.4,2.9,1,3,1c-0.1,1.2,0.6,3.4,3.1,4.1c0,3.2,0,18,0,18C98,143.2,95.8,135.6,95.4,125.9z M37.5,126.4c0,0,0.1,0.4,0.3,1.3
		c0.2,1.7,0,1.9-0.5,0.8c-0.5-1.3-0.5-0.3,0,2.8c0.1,0.7,0.1,0.9,0,1.4c-0.1,0.3-0.3,1.1-0.5,1.6c-0.5,1.7-0.7,2.2-1.2,0.8
		c-0.2-0.7-0.5-0.8-0.3-1.3c0.2-0.7,0.2-1.2-0.3-1.8c-0.1-0.1-0.2-0.4-0.3-1c0.1-1.6-0.6-1.6-0.7-2c0-0.6-0.3-2.1,0.2-2.1
		c0.3,0,1.6,0.1,2.2-0.2C36.6,126.6,37.5,126.4,37.5,126.4z M89.1,126.6c1.3,0,2.3,1,2.4,2.3c0,1.3-1,2.4-2.3,2.4
		c-1.3,0-2.3-1-2.4-2.3C86.8,127.7,87.8,126.6,89.1,126.6z M53.1,128l1.8,0.3c0.4,0.1,0.1,24.7-14,42.4l-0.1-4.1
		C47.5,156.8,52.3,144.8,53.1,128z M83,128.5l0.3,5.9c-1-0.9-3.5-2.4-3.5-2.5l0-2.2C79.9,129.8,82,129.9,83,128.5z M69.4,128.6
		c0.4,0.2,0.8,0.6,1.2,0.9l-1.2,0.8L69.4,128.6z M109.9,128.9c7.6,2.3,15.1,2.2,22.5,0.5l0.5,1.4c-8,2.2-16,2.1-24-0.5L109.9,128.9z
		 M73,130l0.4,2.5l-4.3,2.8l0.2-3.8l2.2-1.5L73,130z M111,132.1c0.7,0,1.3,0.6,1.3,1.3c0,0.7-0.5,1.3-1.2,1.3
		c-0.7,0-1.3-0.6-1.3-1.3C109.8,132.7,110.3,132.1,111,132.1z M130.6,132.2c0.7,0,1.3,0.6,1.3,1.3c0,0.7-0.5,1.3-1.2,1.3
		c-0.7,0-1.3-0.6-1.3-1.3C129.4,132.8,129.9,132.2,130.6,132.2z M93.9,136.2c0.6,2,0.4,6.5-0.3,9.6c-0.2,0.9-0.3,4.2-0.3,4.2
		c-0.1,0.2,4.3-3.7,5.7,1.4c0.5,1.8-1.5,3.4-2.8,2.9c-0.3-0.1-0.2-1,0.1-1.5c0.7-1.5-1.4-2.3-2.6-1c-2.8,3.1,0.1,11,4.4,11.8
		c3.6,0.6,6.5-3,4.1-5.2c-1.1-0.9-2.8,0.4-2,1.6c0.8,1.3-0.7,1.8-1.8,0.6c-2-2.1,0.2-5.2,3.3-4.5c4.9,1.1,3.9,8.8-1.2,9.2
		c-3.9,0.3-6.5-1.4-8.2-4.4c-1.5-2.9-1.7-5.2-1-10.3c0.4-3,0.1-5.6-0.8-5.6c-0.5,0-0.8,0.2-0.9,0.8c-0.1,1.1-0.3,1.3-1,0.9
		c-0.9-0.5-1.4-2.2,0.1-3.3c1.5-1.1,3.4,0.6,3.3,0.9c0-0.1,0.2-0.3,0.4-1.6c0.6-4.2-0.8-8.7-2.5-8c-0.4,0.2-0.3,0.3,0.2,0.6
		c1.2,0.7,0.1,2.4-1.3,2.2c-2.1-0.2-2.6-3.2-0.7-4.5C91,131.5,93.3,133.9,93.9,136.2z M79.7,132.6c0,0,3.7,2.3,3.9,2.9
		c0.1,0.4,0.3,3.6,0.3,3.6l-6.4-4.1l-9.2,5.7c0.2-1.3,0.8-4.5,0.8-4.5l4.9-3.1C74,133.4,77.3,135.6,79.7,132.6z M125.7,132.9
		c0.7,0,1.3,0.6,1.3,1.3c0,0.7-0.5,1.3-1.2,1.3c-0.7,0-1.3-0.5-1.3-1.2S125,132.9,125.7,132.9z M115.9,132.9c0.7,0,1.3,0.5,1.3,1.2
		c0,0.7-0.6,1.3-1.2,1.3c-0.7,0-1.3-0.6-1.3-1.3C114.6,133.5,115.2,132.9,115.9,132.9z M120.8,133.2c0.7,0,1.3,0.6,1.3,1.3
		s-0.5,1.3-1.2,1.3c-0.7,0-1.3-0.6-1.3-1.3C119.6,133.7,120.1,133.2,120.8,133.2z M108.5,135c3.3,0.7,6.7,1.4,9.9,1.8l0.1,9.9
		l-0.9-0.1l-0.1-8.8c-3.1-0.2-6-0.9-8.7-1.6L108.5,135z M133.3,135.3l-0.2,1.2c0,0-5.8,1-8.8,1.4c0,2,0,8.6,0,8.6l-1.2,0.2l0-10.1
		C126.5,136.3,130,135.9,133.3,135.3z M77.4,135.8l6.8,4.5l0.8,4.8l-7.9-5.3c0,0-7.2,4.9-9.9,6.7l0.8-4.5L77.4,135.8z M108.8,136.7
		c2.7,0.6,5.5,1.2,8.2,1.4l0.1,8l-1.3-0.3l-0.1-6.5c-2.1-0.2-4.3-0.6-6.5-1.1L108.8,136.7z M133,137l-0.2,1.1c0,0-4.4,0.7-6.6,1.1
		c-0.2,0-0.1,7-0.1,7l-1.1,0.2l-0.1-8.1L133,137z M120.7,137.9c0.7,0,1.3,0.6,1.3,1.3c0,0.7-0.5,1.3-1.2,1.3c-0.7,0-1.3-0.5-1.3-1.2
		C119.5,138.4,120,137.9,120.7,137.9z M77.3,140.7l8,5.5c0,0,0.9,2.8,1.1,4.4l-9.2-6l-11.6,7.7l1.3-4.8L77.3,140.7z M28.7,140.9
		c0.5,0,1,0.3,1.2,1.1c0.3,1,1,1.3,2.7,1.3c3.4-0.2,6.9-1.8,10.1-0.6c1.5,0.6,2.1,2.9,0.8,3.5c-1.4,0.6-2,0.2-2.5-0.9
		c-0.4-0.5-1-0.4-4,0.1c-1.3,0.2-2.9,0.4-4.2,0.5c-3.4,0.3-5.2-0.8-5.6-2.8C26.8,141.8,27.9,140.9,28.7,140.9z M120.7,142.7
		c0.7,0,1.3,0.5,1.3,1.2c0,0.7-0.5,1.3-1.2,1.3c-0.7,0-1.3-0.6-1.3-1.3C119.4,143.3,120,142.8,120.7,142.7z M96.1,144.3
		c0.9,0,1.6,0.7,1.7,1.6c0,0.9-0.7,1.7-1.6,1.7c-0.9,0-1.6-0.7-1.7-1.6C94.4,145.1,95.2,144.3,96.1,144.3z M77.3,145.4
		c0,0,6.6,4.5,9.7,6.5l1.7,4.9l-11.3-7.4l-13.8,9l1.7-5L77.3,145.4z M125.1,147c0.6,1.6,1.7,2.9,2.8,4.1c0,0-0.6,1.2-2.9,1.2
		c-1.2,0-1.3,0.2-1.7,1c-0.7,1.1-1.3,1.8-1.7,2.1c-0.8,0.6-2.3-0.3-3.5-2.2c-0.5-0.7-0.6-0.9-2-0.8c-2.1,0-2.8-0.5-1.8-1.5
		c0.9-1.2,1.6-2.4,2.5-3.7l0.9,0.1c0,0.1-0.7,2.5-1.8,3.4c-0.5,0.6,0.2,0.9,1.6,0.6c0.9-0.3,1.1-0.2,1.7,1.2c1.3,2.5,2,2.4,3.6-0.2
		c0.5-1.1,0.5-1.2,2-0.9c1.6,0.2,2.1,0,1.4-0.6c-1.3-1.1-2.1-3.8-2.1-3.8L125.1,147z M77.4,150.3c0,0,12,7.9,11.9,7.7l2.4,5.7
		l-14-9.4l-17.1,11.2l2.6-5.6L77.4,150.3z M77.9,155.5l4.2,2.8l0,5l-4.3-2.9L77.9,155.5z M76.8,155.7l0.1,4.9l-3.7,2.2l-0.2-4.6
		L76.8,155.7z M72.1,158.8l0.2,4.7l-4.3,3l0-5L72.1,158.8z M83.1,158.9l3.9,2.6l0.2,5.3l-4.3-2.8L83.1,158.9z M87.9,162.1l3.9,2.8
		l0.1,5.3l-4-2.7L87.9,162.1z M67.1,162.1l0,4.9l-3.9,2.7l-0.2-4.9L67.1,162.1z M108.5,168.4c-0.8,0.8-1.1,0.7-1.7-0.6
		c-0.7-1.4-1.7-2-3.2-2c-1.9,0-0.7-1.2,1.3-1.4C108.3,164.2,110.1,166.5,108.5,168.4z M62,165.3l0.2,4.8l-3.9,2.2l-0.1-2.3l2-3.5
		L62,165.3z M57.5,171l0.1,1.7l-1,0.7L57.5,171z M103.9,207.1c-16.4,3.5-32.1,2.3-43.3,0.2l-5.1,8.9l-0.4,0l-1.3,2.3l0.1,0.3
		c0,0-4.3,8.3-6.1,10.9c21-0.2,67.2-0.3,67.2-0.3l-2.8-5.7l0.2-0.2l-2.8-6l-0.9-1c0,0-0.6-1.1-1-2.2c-0.4-1.1-2-4-2-4l-0.2,0
		L103.9,207.1z M61.2,208.4c0.2,0.2,21,4.1,42.5,0.1l1.2,2c-18.8,4.4-46.1,0.2-45-0.2L61.2,208.4z M61.5,212.3
		c1.9-0.1,3.8,1,5.1,2.7c0.4,0.5,1.1,2.2,1.1,2.2s0.9-1.5,1.8-2.3c1.3-1.1,3.1-2.1,5.6-2c2.3,0.1,4.9,1.4,7.2,5
		c0.6-2.1,8.2-9.3,14.5-0.3c0.7-2.4,4.1-7.2,9.6-3.8c0.4,0.8,0.8,1.7,0.8,1.7c-3.2-2.3-8.5-0.7-9.8,2.8c-0.1,0.4,0,0.7,0.2,1.1
		c1.7,2.4-2.7,2.3-1.4,0.4c0.2-0.4,0.3-0.8-0.1-1.4c-1-1.5-4.1-3.4-6.3-3.4c-2.6,0.1-5.4,1.8-6.4,3.4c-0.4,0.6-0.4,1.2-0.1,1.7
		c0.2,0.5,0.1,0.9-0.2,1.3c-0.9,0.7-2-0.1-1.6-1.2c0.3-0.5,0.2-1.1-0.3-1.9c-1.2-1.6-3.9-3.4-6.2-3.3c-3.4,0.1-6.8,2.5-6.6,4.5
		c0.1,0.9-0.1,1.2-0.9,1.1c-0.9-0.1-1-1-0.4-1.6c0.1-0.2,0.2-0.7,0-1.1c-3.6-4.8-8.9-3.4-10.1-2.3C58.2,213.3,59.9,212.3,61.5,212.3
		z M58.4,215.7c1.3,0,2.8,1,3.2,1.8c0.3-0.3,3.3-1.8,4.8,0.3c-3.8-0.3-3.9,3.8-1,4.2c-1.3,4,4.5,4.2,4.1,0.5
		c4.3,0.6,3.8-4.9-0.3-4.3c2.1-1.6,3.6-1.1,6.2,0.7c0.9-1.1,4.4-2.2,5.3-0.2c-4-0.3-3.3,4.5-0.3,4.5c-0.9,3.3,5,4.5,4.1-0.4
		c3.8,0.3,3.2-4.9-0.4-4.4c0.3-0.9,3.9-1.3,5.5,0.4c1.5-1.4,3.1-2.3,6.1-0.3c-4-0.7-4.1,4.6-0.3,4.3c-0.4,3.5,5,3.6,4.1-0.5
		c4-1.1,1.8-5.5-1.1-4.3c1.3-1.6,3.6-0.8,4.5-0.5c2.8-3.2,5.1-0.5,5.1-0.5c-4.8-0.5-3.7,6.4,0.9,3.9c0,1.4,0.6,2.6,2.5,2.8l2.3,4.7
		l-64.2,0.4l3.5-6.3c0.4,0.1,2.4,0.3,2.8-2.1c4.2,1.3,4.5-3.6,1.3-4.4C57.5,215.8,57.9,215.6,58.4,215.7z M55.9,217.4
		c0.4,0.7,0.1,1.1-0.7,1.1C55.2,218.6,55.7,217.9,55.9,217.4z M108.6,218.3l0.4,0.9C108.6,219,108.6,218.8,108.6,218.3z"/>
	<path d="M131.2,223.5c7.9-0.2,11.4-9,5.6-15.9c-0.8-1-0.9-1.6,0.6-0.6c3.9,2.6,11.4,0.9,11.8-7.1c0.5-9.9-13.3-12.7-15.9-2.2
		c-0.1,1.1-1,1.1-0.8-0.5c0.2-4.3,1.6-8.2,3.4-12.1c-3.1,0-6.5,0-9.3,0c1.8,3.9,3.2,7.9,3.4,12.1c0.2,1.6-0.7,1.6-0.8,0.5
		c-2.6-10.5-16.4-7.6-15.9,2.2c0.4,8,7.9,9.7,11.8,7.1c1.5-1,1.5-0.4,0.6,0.6C119.9,214.5,123.4,223.4,131.2,223.5L131.2,223.5
		L131.2,223.5z"/>
	<path d="M48.4,26.4c7.9,0.2,11.4,9,5.6,15.9c-0.8,1-0.9,1.6,0.6,0.6C58.5,40.3,66,42,66.4,50c0.5,9.9-13.3,12.7-15.9,2.2
		c-0.1-1.1-1-1.1-0.8,0.5c0.2,4.3,1.6,8.2,3.4,12.1c-3.1,0-6.5,0-9.3,0c1.8-3.9,3.2-7.9,3.4-12.1c0.2-1.6-0.7-1.6-0.8-0.5
		C43.7,62.7,30,59.8,30.4,50c0.4-8,7.9-9.7,11.8-7.1c1.5,1,1.5,0.4,0.6-0.6C37,35.4,40.6,26.6,48.4,26.4L48.4,26.4L48.4,26.4z"/>
</g>
</svg>
