<?xml version="1.0" encoding="utf-8"?>
<!-- Generator: Adobe Illustrator 21.0.0, SVG Export Plug-In . SVG Version: 6.00 Build 0)  -->
<svg version="1.1" id="Layer_1" xmlns="http://www.w3.org/2000/svg" xmlns:xlink="http://www.w3.org/1999/xlink" x="0px" y="0px"
	 viewBox="0 0 178.6 249.4" style="enable-background:new 0 0 178.6 249.4;" xml:space="preserve">
<style type="text/css">
	.st0{fill:#FFFFFF;}
	.st1{fill:#131F67;}
	.st2{fill:#E2CF00;}
	.st3{fill:#D40000;}
	.st4{fill:#100F08;}
</style>
<g>
	<path class="st0" d="M170.6,250.3H9.1c-4.7,0-8.5-3.8-8.5-8.5V9.4c0-4.7,3.8-8.5,8.5-8.5h161.5c4.7,0,8.5,3.8,8.5,8.5v232.4
		C179.1,246.5,175.3,250.3,170.6,250.3z"/>
	<path class="st1" d="M24.5,20.3v210.5h130.6c-0.1-63.5,0-141.4,0-210.5H24.5z M61.4,22.1c23,0,44.9,0,68.6,0.1
		c-2.1,5.1-7.9,14.2-11.5,21.5c0.9,2.3-0.2,2.6,0.2,3.2c0.7,1.3,0.2,3-1.3,3.4c-6.7,0.7-13.9-1.1-19.8-3.4
		c-9.1-3.5-16.7-4.4-25.9-3.6c0,0-0.8-0.1-1.1-1.9C67.6,32.1,64.2,28.2,61.4,22.1z M26.2,22.3h34c0,0,1.6,2.8,5,9.4
		c1.4,2.8,2.6,4,2.7,6.2c-0.1,1.3,0.5,2.8,1.5,3.3c0.4,0.2,0.9,0,0.7,0.5c-0.2,0.6,0.4,1.5,0.6,1.7c0.2,0.4,0.1,0.4,0.1,1.7
		c0,1.3,0.1,1.8,0.4,2.7c0.7,2.4,0.8,3.6,0.4,4.9c-1,3.2-2.1,5.6-3.4,8.6c-0.8,1.7-0.7,2.4,1.8,3.7c1.8,0.9,2.1,0.9,1.8,2.3
		c-0.1,0.6-0.2,1.1-0.1,1.4c0.1,0.2,0.4,0.5,0.6,0.6c0.2,0.2,0.2,0.6-0.1,0.9c-0.2,0.3-0.2,0.7,0,1.5c0.8,1.9-1.4,4.5-3.8,5.5
		c-0.7-2.5-4.2-3.4-6.3-1.8c-1.8,1.4-2.1,3-1.6,5.2c-4.4,2.6-9.1,5.8-13.8,8.1c-0.6-1.2-0.8-2.2-1.1-3.4c-0.3-1.1-0.3-1.2-0.2-3.2
		c0.1-1.9,0.2-2.3-0.3-2.5c-2.5-0.3-3.1,0.6-3.6,2.3c-0.2,0.7-0.6,0.6-0.9,0.3c-1-1.8-2.2-3.6-3-4.8c-1-1.6-2.7-2.4-3.5-1.6
		c-0.2,0.6-0.3,0.6-1.4,0.4c-1.3-0.3-2.1,0.5-2.2,1.4c-0.1,0.4,0.2,0.4-0.5,0.8c-1.8,1.3-1.1,3.2-0.8,4.2c0-0.1-0.8,0.5-0.8,1.5
		c-0.1,5.3,4.5,13,4.4,12.8l-6.7,4L26.2,22.3z M131.3,22.3h21.8v4l-10.7,11v8.1c-5.8-1.4-8.1-7.9-8.6-12.4
		c-10.7,9.8-10.4,24.5-0.3,33.7c1.2-4.7,5.7-11.6,8.9-11.6v29.1l-6.4-6.4l-13,0.1c2.2-2.6,1-8.3-0.2-11.5
		c-2.3-5.9-5.5-15.6-5.3-15.7c0,0,1.9-0.5,2-1.7c0.3-1.8-0.5-1.6,0.6-3.2c0.2-0.4,0.1-1-0.2-1.6c-0.2-0.4-0.3-1,0-1.5L131.3,22.3z
		 M153.9,26.7l0,67.2c-0.8,5.5-0.4,11-0.5,16.5l-5.4,2.8l-20.1-26.5c0,0,0.8-1.2,1.2-1.4c-0.4-1-1.9,1.4-2,1.8
		c7.3,9.1,20.9,26.9,20.9,26.9l5.6-3c0,5.5-0.1,11-0.2,16.4c-9.9,5.7-15.7,14.9-20,24.4c-3.9,1.3-8,3.1-11.9,4.7l5.7,8.5l-2.2,1.2
		c-25.2-38.3-14.4-65.2,5.7-87.6l3.7-0.1l8.6,8.1l-0.2-49C146.4,33.9,150.4,30.6,153.9,26.7z M133.2,34.9c0.2,0.6,0.5,2,0.5,1.9
		c-5.9,6.2-8.7,16.3-0.1,26.7c0,0-0.2,0.8-0.4,1.6C123.9,56.1,125.3,41.9,133.2,34.9z M134.1,37.4c1.5,4.6,5.3,7.4,5.3,7.4
		c-1.4,3.2-2.3,6.5,0.4,10.7c-2.5,2.2-4.5,4.7-5.7,7.7C125.8,53.5,128.5,43.4,134.1,37.4z M78.6,43.4c3.9,0,8.4,0.5,11.4,1.6
		c1.2,9.2,7.6,22.7,6.8,26.2c-1.6-2.5-8.5-1.8-6.5,5.1c0,0-0.6,0.9-1.7,2c-2.9,3-3.6,3.4-2.2,0.8c1.1-2,2.4-4.6,2.4-5.1
		c0-0.4-0.3-0.5-0.5-0.2c-0.2,0.2-0.4,0.8-0.6,1.3c-1.7,4.1-4.7,7.7-6.7,8.6c-0.5,0.2-0.5,0-0.1-0.5c2.4-3,4.2-5.8,5.5-9.4
		c0.1-0.4-0.5-0.5-0.6-0.2c-2.2,4.7-2.9,5.8-5.7,9.1c-1.1,1.3-2.1,2-2.9,1.9c-0.7-0.1-0.5-0.2,0.2-0.9c0.5-0.5,1.2-1.3,2.4-2.7
		c2.1-2.6,4.2-6.9,3.4-6.7c-0.1-0.4-0.8,0.8-1.3,1.9c-1.5,2.6-3.1,5.9-6.7,8.2c-0.8,0.3-1.6,0.5-2.3,0.5c-1,0-0.4-0.3,1.8-1.8
		c2.1-1.5,5.6-6.1,6-7.9c0.2-0.8-0.3-0.8-0.9,0.2c-2.6,5-7.4,9.5-11.9,9.3c-2.2-0.1-3.4-0.7-1.6-0.9c4.9-0.6,8.6-3.4,11.9-9.1
		c0-0.1-0.3-0.1-0.6,0.1c-3,3.6-6.6,8.6-12.4,8.2c-4.2-0.3-5.1-5.7-1.5-7.4c3.1-1.4,5.8,2.5,3.2,4.5c-0.5,0.4-1.3,0.2-1.3,0.2
		s0.3,0,0.8-0.4c1.9-1.5-0.3-4.5-2.5-3.4c-1.3,0.5-1.8,2.3-0.7,3.7c2.5,3,7.8,0.7,11.5-4.2c0.4-0.5,0.7-1.6,0.4-1.5
		c-0.6,0.2-0.9,0.7-1.3,1.2c-1.3,1.8-2.3,2.8-4.1,3.8c-0.7,0.4-1.4,0.5-1.4,0.5c0.4-0.3,0.6-1,0.7-1.7c0,0,0.4-0.4,0.7-0.6
		c2.3-1.5,3.7-3.6,3.7-4.9c0-1-0.7-2.2,0.1-2.5c1.3-0.6,4.8-0.1,5.8,1.1c0.7,0.9,0.9,0.4,0.4-1.1c-0.3-0.9-0.3-1.5-0.8-1.4
		c-0.6,0.3-1.1,0.3-2.3-0.4c-0.6-0.3-1.7-0.6-2.3-0.8c-1.2-0.3-1.4-0.2-1.4-0.7c0-0.2,0-0.6,0-0.9c0.2-1.6-1.1-2.1-2.9-3.1
		c-1-0.6-0.6-1.2,0.6-4.2c0.6-1.3,1.2-3.2,1.9-4.5c0.7-1.5,0.8-3.2,0.3-5.1c-0.9-3.6-1.5-5.4,0.1-5.7C74.1,43.5,76.2,43.4,78.6,43.4
		L78.6,43.4z M139.6,45.1c1.4,0.8,2,0.8,2.8,1.1v8c-1.1,0.2-2,0.6-2.6,0.9C137.1,51.7,138.2,46.8,139.6,45.1L139.6,45.1z M91,45.2
		l1.4,0.4c1.4,8.8,5.6,17.1,6.9,25.2c1.4,6.2-5.9,9.7-8.4,4.3c-0.7-1.4,0.1-3.2,1.8-4.1c2.7-1.4,5.6,2.3,3.5,4.3
		c-1.6,1.5-4,0.4-3.5-1.6c0.3-1.3,2.2-1.3,2.6-0.1c0.1,0.4,0.3,0.8,0.5,0.6c1-2.3-2.3-3.4-3.7-1.3c-0.8,1.7,0.7,4,3,3.6
		c3.1-0.6,3.4-5.1,2.2-9.8C95,58.7,91.4,51.5,91,45.2z M93.4,46l1.4,0.5c1.6,7,4.2,14.3,5.9,20.5c1.2,4.2,2.4,9-2.1,11.1l-1.3,0
		c0,0,0.4-0.2,1.3-1.2c5.2-4.7-3.2-18.1-5.1-30.3C93.5,46.4,93.4,46,93.4,46z M78.3,46.4c-2.3-0.1-4.5,0.6-4.4,1.7
		c0.1,0.7,0.6,0.9,2.4,0.6c3.9-0.8,7.7,0.9,10.6,2.7c0.8,0.5,1.2,0.8,1.3,0.8c0.1,0,0.2-0.2,0-0.4C86.2,49,82,46.5,78.3,46.4
		L78.3,46.4z M96,46.8l1.5,0.6c1.3,7.4,4.6,15.1,6.2,21.8c0.9,3.9,0.7,6.4-1.5,8.5c-0.5,0.4-0.7,0.5-0.7,0.5h-1.3
		c3.3-2.8,2.6-6.9,1.3-11.1C99.3,59.3,95.6,46.8,96,46.8z M98.5,47.8l1.3,0.6c1.4,6.4,1.7,6.5,5,16.8c1,3.1,1.9,5.8,1.7,8.4
		c0,1.5-1.3,4.4-2.7,4.6l-0.8,0c3.1-3.6,1.7-8.5,0.4-12.6C101,57.9,99.8,53.9,98.5,47.8z M100.9,48.6l1.6,0.6
		c1.6,6.5,3.7,12.9,5.4,18.1c0.7,2.1,1.3,4.3,1.2,6.1c-0.3,2.5-0.7,3.1-2.2,4.6l-1.3,0c0,0,1.6-2.7,1.7-4.3c0.3-3-0.7-5.5-1.7-8.9
		C103.1,56.7,101.7,54,100.9,48.6L100.9,48.6z M103.5,49.6l1.4,0.4c1.8,5.7,3.4,11.6,5.2,16.5c0.9,2.7,1.4,4.8,1.3,6.6
		c-0.2,2.5-0.9,3.5-2,4.8l-1.2,0c1-1.3,1.6-3.3,1.6-4.6c0-2-0.6-4-1.2-6.2C106.7,60.2,104.7,55.7,103.5,49.6z M76.8,50.2
		c-0.3,0.1-0.6,0.3-0.6,0.6c0,0.2,0.4,0.4,0.8,0.3c3.8-1.1,7,1.4,9.9,2.9c0.1,0.1,0.3,0.2,0.4,0.2c0.2,0,0.2-0.1,0-0.3
		C83.7,51.7,81.3,49.3,76.8,50.2z M106,50.2l1.5,0.3c1.8,5.6,3.7,11.6,5.6,16.7c1.2,3.1,1.6,8.5-1,10.8l-1.4,0c1-1.3,1.6-3.2,1.6-5
		c0.1-2.1-0.4-4.1-1.2-6.2C108.9,60.6,107.3,55.3,106,50.2L106,50.2z M108.6,50.7l1.4,0.2c1,5.9,3.8,11.4,5.3,16.3
		c0.8,2.3,1.4,5.2,1.1,7.3c-0.2,1.5-1.7,3.5-2,3.6l0,0l-0.9,0c0,0,1.4-2.9,1.5-4.7c0.1-2-0.4-4.2-1-6.3
		C111.8,61.2,109.8,55.8,108.6,50.7L108.6,50.7z M74.7,50.8c-0.2,0.1-0.1,0.7,0.3,1.6c0.4,0.7,0.7,0.9,0.5,1.4
		c-0.4,1.2,0.2,1.5,0.9,0.4c0.6-0.9,0.6-0.8,1.1,0.3c0.7,1.4,0.4,2-0.7,1.1c-0.8-0.7-1-0.2-1.3,0.4c-0.4,0.7-0.3,1.4,0.4,1.3
		c0.4,0,0.8,0.2,1.1,0.5c0.6,0.7,1.9,1.6,3.1,1.8c0.4,0,0.3-0.4-0.7-1c-2.2-1.5-2.4-1.8-0.3-1.7c0.5,0,1.4-0.4,1.9-0.5
		c2.8-0.9,2.9-0.9,4.2-0.5c0.4,0.1,0.9,0.3,1.1,0.1c0.3-0.3,0.6-0.5,0.3-0.9c-0.3-0.3-0.8-0.5-1.4-0.9c-3.2-1.9-3.5-2.3-7.3-2.4
		c-0.4,0-0.7,0.2-0.9,0.2c-0.6,0-0.9-0.1-1.6-0.7C75.1,50.9,74.8,50.8,74.7,50.8z M116.7,50.9c1.5,5.1,3.4,10.3,5.1,15.1
		c1.3,3.9,3.2,9.7-0.4,12.2l-1,0c1.8-2.4,2-4.4,1.4-7.3c-2.1-8.9-6-14-6.4-19.8L116.7,50.9z M110.6,50.9l1.6,0.1
		c1.1,6.1,4.3,10.5,6,17.8c0.9,3.2,1.4,6.9-1.6,9.2h-0.9c0,0,1.5-2.6,1.5-4.1c0.2-2.7-0.9-5.6-1.8-8.8
		C114,60.4,111.5,55.7,110.6,50.9z M113,51l1.4,0c1.6,7.2,4.9,12.3,6.6,20.1c0.6,3.3,0.1,5.3-2,6.9l-1,0c0,0,0.1-0.3,0.5-0.9
		c1.8-3.3,0.8-6.4-0.1-9.8C116.8,60.9,113.7,55.8,113,51z M80.7,54c-0.2,0.6-0.5,1.5-1.3,1.8c-0.2,0.1-0.3-0.1-0.3-0.1
		c0-0.5,0.3-1.4,0.6-1.9c0.1-0.2,0.2-0.2,0.4-0.3C80.7,53.5,80.8,53.5,80.7,54z M82,54.1c0.4,0.2,0.8,0.8,0.5,1
		c-0.4,0.2-1,0.5-1.6,0.5c-0.3,0-0.3-0.1-0.2-0.3c0.2-0.4,0.5-0.7,0.7-1.1C81.7,53.9,82,54,82,54.1z M76.1,60.6
		c-0.3,0-0.4,0.3,0.4,0.8c1,0.6,0.5,2.3-0.7,2.2c-0.5,0-0.9-0.2-2.3-1.3c-1.1-0.8-2.2-0.9-2.4,0.2c-0.1,0.7,0.1,1,0.8,0.8
		c0.3-0.1,0.5,0.1,0.9,0.4c0.9,0.5,1.8,1.3,2.8,1.1c2.4-0.7,2.9-3,1.3-4C76.6,60.7,76.3,60.6,76.1,60.6z M81.8,64.1
		c-0.1,0.2,0,0.5,0.5,0.6c1.5,0.5,2,2.3,0.7,3c-0.7,0.4-1.9,0.1-3.3-0.9c-2.5-1.9-5.7-2-5.3-0.1c0.1,0.5,0.3,0.5,2.2,0.8
		c1.5,0.2,2.2,0.7,2.9,1c1,0.6,2,0.8,2.7,0.8c3.6-0.2,3.2-4.6,1-5.3C82.6,63.7,82.2,63.9,81.8,64.1z M35.6,76.7
		c0.8,0,1.1,0.6,1.5,1.1c1.4,1.9,2.4,3.8,3.8,6l-0.2,2c0,0-0.4-0.1-0.6,0c-0.4,0.2-0.6,0.8-0.9,1.7c-0.4,0.7-2.5,2.4-3.4,3.3
		c-0.2,0.1-0.3,0.3-0.3,0.4c0,0.3,0.9,0.1,1.6-0.6c0.9-0.8,1.3-0.5,1.3,0.5c0.1,1.3,0.9,0.6,0.9-0.6c0.1-1,0.4-1.6,1.1-2.1
		c1.3-1,1.1-0.8,1-2.2c-0.1-2.5,0.9-4.6,1.5-3.2c0.2,0.5,0.5,1,1.1,1.1c0.4,0,0.6,0.4,0.8,1.4c0.3,1.6,0.8,2.6,1.2,4.1l-12,6.9
		c-2.1-2.4-3.6-6.5-4.4-9.2c-0.4-1.3-0.4-2.8-0.1-3c0.3-0.2,0.5,0,0.4,0.8c-0.1,0.7-0.1,1.2,0.2,1.2c0.8-0.2,0.8,1,0.8,1.3
		c-0.1,0.2-0.2,0.3-0.2,0.4c-0.2,0.5,0.3,0.4,0.9,0.4c0.5,0,0.6,0.3,0.6,0.7c0,0.5,0.7,0.4,1.1,0c0.3-0.4,0.3-0.8-0.2-1.1
		c-0.7-0.4-1.3-1.4-2.9-5c-0.9-2.1-0.6-3.5,0.4-3.5c0.8,0,1.6,2.1,2.3,3.6c0.2,0.4-0.3,0.8-0.4,1.1c-0.4,0.6-0.4,0.7,0.3,0.7
		c0.6,0,0.8,0,1.2,0.7c0.1,0.3,0.2,0.7,0.2,0.9c-0.3,0.8,0.3,1,0.9,0.7c0.8-0.3,0.7-1-0.4-2.1c-0.7-1.2-0.5-1.1,0.2-2
		c0.1-0.3,0.1-0.5-0.2-0.5c-0.9,0.3-1.9-1.3-1.6-1.9c0.3-0.2,1-1.1,0.3-0.9c-1.5,0.4-2.4-1.8-1.5-2.5c1.3-0.6,1.6-0.4,3.6,3.5
		c0.6,1.2,1.4,2.6,1.4,2.7c0.1,0.1,0.1,0.5,0.1,0.8c-0.1,0.7,0.2,0.9,0.8,0.6c0.5-0.1,0.9-0.5,0.3-0.9c-0.7-1.2-0.9-1.4-0.6-1.7
		c0.9-0.7,0.5-0.7-0.5-0.9c-0.5-0.1-0.7-0.4-0.8-0.7c-0.5-1.1-1.4-2.7-1.5-3C34.3,77,34.9,76.6,35.6,76.7z M90.8,77.2
		c1.6,0.7,2.9,1.3,4.2,1.9c-3.8,7.6-8.3,10.3-16.3,13.7l0.7,3.4c8.4-3.2,13.8-6.9,18-14.3c5.1,0.1,25.9,0.2,25.9,0.2
		c-8.5,9.7-15.2,24.3-15.9,35.7c-0.2,2.2,0.1,1.2-0.8,1.8l-1.5,1.8l-1.2-1.8c0,0-0.9-1.1-1.4-0.2c-1.5,15.9,0.1,34,7.7,46.7
		c-1.4,0.1-2.7,0.1-4-0.6c-3-6.8-4.7-15.2-5.5-21.5c-1-8-0.8-16.9,0.2-24.6l-0.5-0.1c-1.5,9.9-1,20.4,0.4,29.6
		c0.7,4.8,3,12.3,4.5,15.8c0.4,1,0.8,1.2,0.4,1.3c-9.3,0.8-13.6,3.9-16.9,8.9c-1.4-0.9-3.1-2-5-2.5c4.2-7.6,10.9-11.6,16.5-13.2
		c-0.2-1-0.3-1.9-1.3-2.5c0,0.1,0.4,1.9,0.4,2.2c-7.8,2-14.6,9.6-16.3,13.6L49,172.9c25.2-24.4,26.3-58.6,5.7-87.4l2.4-1.4
		c15.9,23.9,15.7,46.9,11,62.4c-3.4,10.9-9.4,19.3-14,24.1c0,0,18.5,0.3,27.7-0.1c1.3-2.1,2.6-3.7,4.4-5.7c0,0-4.7,4.5-4.5,5.3
		c-8.5,0-17.3,0.5-25.8-0.1c10-12,14.9-24.3,15.7-36c0-1.5,0.1-0.7,0.6-1.2l1.6-2.5l1.3,2.5c0.9,0.3,2.5-0.2,3.3,0.1
		c3.5-15.7,0-34.7-4.6-47.1c2.5-0.8,5.3,0,8.3-1.6c0.2-0.2,0.5-0.5,0.9-0.7C86.4,82.3,90.8,77.1,90.8,77.2z M64.7,77.4
		c0.7,0,1.3,0.6,1.3,1.3s-0.6,1.3-1.3,1.3c-0.7,0-1.3-0.6-1.3-1.3S63.9,77.4,64.7,77.4z M96,78.9h33.6c-12.9,14-18.8,25.8-19.8,41.7
		c-0.9,15.2,3,29.1,14.6,45.8l-2.4,1.6c-20-30.3-19.1-62.6,3.2-87l-28.2,0c-3.6,7.1-9.6,11.5-17.2,14.1L79.2,93
		C88,90.1,92.5,85.4,96,78.9z M44.7,80.8c0.4,0.2,0.2,2.2-0.4,2.2c-0.6,0-1.3-1.7-0.9-2.1C43.9,80.6,44.3,80.6,44.7,80.8z M61,81.7
		c0.3,0.6,0.8,1,1.2,1.4c-0.7,0-1.5-0.4-2.1-0.7C60.5,82.1,60.7,82,61,81.7z M62.8,84.7l4.2,1.6l-0.7,4.5L62,89.1L62.8,84.7z
		 M73,86.4c5.6,14.5,6.8,32.3,4.6,46.3l-1.5-0.1c2.4-23.7-2.3-35.8-6.5-46.2c0,0,0-0.4,0.2-0.5C71,85.5,72.2,85.6,73,86.4z
		 M54.1,85.9c27.7,38.8,10,72-6.1,87.5l-3.3,0.2c2.7-2.5,4.9-5,7.2-7.8c-6.8-9.4-14.3-19.6-20.7-27.7c0,0-2.2,1.3-2.2,1.5
		c0,0.1,0.2,0.5,0.2,0.4c0.1-0.2,1.8-1.2,1.8-1.2l20.1,26.5c0,0-1.1,1.3-1.4,1.7c-1.6,0.5-5.9,5.9-6.1,5.8
		c-3.4-2.6-13.7-13.7-17.6-17.1l0-30.8c0.4-1.2,11.3-6,19.1-23.7c3.9-2.2,8.2-3.4,12.2-5.3c0,0-1-1.6-1.5-2.1
		c0.6,1.3,0.7,1.6-0.7,2.1l-28.9,11.9l0.1-2.4C29,103.1,48.2,89.2,54.1,85.9L54.1,85.9z M37.5,86.8c-1,0.7-3.2,3-3.3,3.2
		c-0.3,0.5,0,0.6,0.1,0.5c1.2-0.9,2.3-1.9,3.6-2.7c0.5-0.3,1-1,1.1-1.2C38.7,86.2,37.9,86.5,37.5,86.8z M66.6,91.7l3.7,1.7l-1,4.5
		l-3.6-1.8L66.6,91.7z M69.5,98.8l3.3,2.3l-1.6,3.6l-3.1-2.1L69.5,98.8z M59.9,101c-3.4,8.5-6.2,14.2-12.8,23.2
		c4.1,5.4,15.8,20.8,16.2,20.7l0,0C68.3,129.1,66.8,114.1,59.9,101L59.9,101z M44.2,101.7c0,0-2.5,5.5-6.9,11.2
		c-3.9,5-10.8,10.7-10.8,10.6l-0.2-2.9l0.7,1.1l1.3-1l-0.9-1.2l-1.1,0.9l-0.1-1.2c7.2-5.2,10.3-11.3,13.3-15.8l1.3-0.6l1.5,0.5
		l0.7-1.3L44.2,101.7z M40.2,103.5l-0.6,1.3l1.5,0.8l0.8-1.3L40.2,103.5z M38.5,103.7c-3.4,5.7-7.3,11.1-12.9,15.3l-0.1-10.3
		L38.5,103.7z M39.2,105.4l-0.8,1.3l1.4,0.8l0.8-1.3L39.2,105.4z M71.4,105.8l3,2.3l-1.5,3.3l-3-2L71.4,105.8z M115.7,106.1
		c-5.2,15.8-3.3,30.5,2.9,44.2c3.6-7.8,7.2-15.8,13-21.9L115.7,106.1z M38.1,107.3l-0.8,1.3l1.4,0.9l0.8-1.3L38.1,107.3z
		 M60.3,108.1c3.2,10,4.6,19.9,1.6,30.6l-11.4-14.8C54.3,119.3,57.5,113.9,60.3,108.1z M36.8,109.3l-0.9,1.3l1.4,0.9l0.9-1.2
		L36.8,109.3z M35.5,111.1l-1,1.2l1.3,1l1-1.2L35.5,111.1z M73.1,112.4l2.5,2.4l-1.9,3.2l-2.4-2.6L73.1,112.4z M33.9,113l-1,1.1
		l1.2,1.1l1-1.1L33.9,113z M117.1,113.5l11.3,14.4c-4.2,5.2-6.9,10.1-9.6,14.9C114.3,131.9,114.7,122,117.1,113.5z M32.4,114.8
		l-1.1,1.1l1.2,1.1l1.1-1.1L32.4,114.8z M30.7,116.5l-1.1,1l1.1,1.1l1.1-1L30.7,116.5z M59.4,117.1l-5.3,7.2l6,7.4
		C60.5,131.6,60.8,121.8,59.4,117.1z M29,118.1l-1.2,1l1,1.2l1.2-1L29,118.1z M73.6,118.8l2.2,2.6l-1.9,2.6l-2-2.5L73.6,118.8z
		 M118.8,120.4c-0.6,4.2-0.8,9,0.8,15.3l5.2-7.6L118.8,120.4z M105.1,122l1.8,2.9l-2,2.7l-1.9-2.8L105.1,122z M73.8,125.1l1.9,2.4
		l-2,2.5l-1.8-2.4L73.8,125.1z M105,128.1l2,2.3l-2.1,2.8l-2.1-2.5L105,128.1z M153.2,128.1c0,0.8,0,0.9,0,1.3l-0.5,0.4l0.5,0.9
		c0,0.5,0,0.8,0,2c-4.2,3.4-8.6,6.4-13.5,16.1l-1.5,0.7l0.1-0.3l-1.4-0.7l-0.7,1.4l0.5,0.2c-0.8,0.4-0.8,0.4-2.3,1.1
		c0,0,1.1-2.6,1.9-4.2C140.2,140.2,145.3,133.4,153.2,128.1z M152,130.3l-1.2,0.9l0.9,1.2l1.2-0.9L152,130.3z M149.9,131.8l-1.2,1
		l1,1.2l1.2-1L149.9,131.8z M148.1,133.3l-1.1,1l1,1.1l1.1-1L148.1,133.3z M153.6,133.4l0.2,9.5l-13.1,5.5
		C143.6,142,147.9,137,153.6,133.4z M104.9,134l2.6,2.4l-1.7,3.2l-2.6-2.5L104.9,134z M146.3,135l-1.1,1.1l1.1,1.1l1.1-1.1
		L146.3,135z M144.6,136.9l-1,1.2l1.2,1l1-1.2L144.6,136.9z M143,138.8L142,140l1.2,0.9l0.9-1.2L143,138.8z M106,140.5l2.9,2.4
		l-1.8,3.3l-2.9-2.7L106,140.5z M141.6,140.6l-0.9,1.3l1.3,0.9l0.9-1.3L141.6,140.6z M140.3,142.5l-0.8,1.3l1.3,0.8l0.8-1.3
		L140.3,142.5z M153.4,143.8v2.3c0,0-21.6,8.1-29.4,12.5c0,0-0.2-0.3-1.2-1.8C133.1,152.7,143.8,147.3,153.4,143.8L153.4,143.8z
		 M139.1,144.4l-0.8,1.3l1.3,0.8l0.8-1.3L139.1,144.4z M138,146.5l-0.8,1.3l1.3,0.8l0.8-1.3L138,146.5z M107.5,147l3.2,2.2l-1.5,3.8
		l-3.2-2.3L107.5,147z M153.1,150.6v78.3h-34.7l-8-14.6c0.2-1.1-0.1-1.9-0.5-2.6c-0.2-0.3-0.4-0.8-0.4-1.3c-0.1-0.7-0.1-0.7-1.1-1.7
		c-0.2-0.2-0.3-0.3-0.2-0.5c0.3-0.9,0.1-2.7-0.5-4.8c-0.9-2.7-1.1-2.7,0.5-6.3c0.3-0.8,0.7-1.8,1.2-2.7c2-4.1,2.3-5.2-1.1-7.4
		c-1-0.6-1.2-1.2-1-2.4c0.2-1,0.2-1.6-0.2-2.1c-0.3-0.4-0.6-0.4-0.5-0.7c0.1-0.2,0.3-1,0.2-1.7c-0.2-1.8,1.9-4.5,3.8-5.5
		c0.1-0.1,0.4-0.2,0.4-0.2s0.1,0.3,0.3,0.6c2,3.5,6.9,2.1,7.2-2.1c0.1-1.1-0.1-1.5-0.1-1.5c6-3.6,9.8-6.1,14.1-8.5
		c1.9,3.3,1.2,6.2,0.8,9c0,0.5,0.5,0.6,1.1,0.6c1.1,0,2.6-1.1,2.9-2.1c0.3-0.9,0.5-1.4,0.7-1.4c0.3,0,0.4,0.4,1,1.6
		c1.3,2.6,1.5,2.9,2.8,4.4c1,1.2,1.8,1.4,2.8,0.5c0.7-0.6,0.7-0.1,1.2,0.2c1,0.7,2.5,0.1,2.5-0.9c0-0.8,0-1.4,0.9-1.5
		c0.9-0.1,1.3-1.2,1-2.9c-0.1-0.9-0.2-1,0.1-1.3c0.9-1.1,1-1.8,0.5-3.3c-1.4-4.2-3.4-7-5.2-10.8
		C145.7,154.9,150.3,152.2,153.1,150.6z M109.6,153.9l3.9,2.2l-1.1,4.2l-3.8-2L109.6,153.9z M150.2,165.8c0.8,1.8,0,3-1.1,1.5
		c-0.4-0.6-0.2-0.9,0-2c0-0.2-0.1-0.1-0.5-0.2c-0.5,0.1-0.8-0.4-0.8-1.3c0.3-1.2-0.1-0.5-0.4-0.5c-0.4,0-0.5-0.3-0.8-0.8
		c-0.2-0.7-0.5-0.5-0.9,0c-0.4,0.4-0.4,0.4,0.4,1.3c1.3,1.4,3,4.5,3.5,6.4c0.1,0.5,0.1,0.9,0,1.2c-0.6,1.3-1.4,1.3-2.2-0.5
		c-0.1-0.3-0.4-0.8-0.6-1.1c-0.3-0.5-0.5-0.9-0.5-1.7c0.3-0.6,0.3-0.7,0.1-0.8c-0.6-0.2-1.5-1.2-1.6-2.1c0-0.9-0.2-1.4-0.9-0.9
		c-0.8,0.6-0.5,0.9,0.3,1.7c0.8,1,0.9,1.9,0.4,2.6c-0.1,0.2,0,0.3,0.3,0.3c1-0.1,1.9,1.1,1.2,2.1c-0.3,0.6-0.3,0.7,0.2,0.7
		c0.2,0,0.6,0,0.8,0.1c0.3,0.5,0.9,1.3,0.9,1.9c-0.3,0.9-0.7,1.2-1.2,1.2h0c-0.5,0-1.1-0.5-1.5-1.2c-0.9-1.6-2.1-4.2-2.8-5.7
		c-0.2-0.4-0.2-0.7-0.2-0.9c-0.1-0.9-0.3-1.2-0.8-0.8c-0.5,0.4-1.2,1-0.4,1.1c0.8,0.6,1.3,1.5,0.8,2.1c-0.4,0.4-0.2,0.7,0.1,0.7
		c1.1,0,2.8,3.4,2,4.2c-1.1,1-2.3-0.2-4.8-5.3c-1.1-2.2-1.2-4.7-0.2-3.5c0.3,0.3,0.3,0.1,0.6-0.8c0.3-0.7,0.5-1.1,1.6-2.1
		c1.3-1.3,2.1-2.3,2.2-2.5c0.1-0.4-0.7,0-1.3,0.7c-1.3,1.2-1.3,1.6-1.3-0.1c0-1.5,0.1-1.8-0.2-1.8c-0.4,0-0.6,1.2-0.8,2.6
		c-0.2,1.3-0.9,1.9-2,2.6c-0.3,0.2-0.3,0.3-0.2,0.9c0.2,1.8-0.8,5.2-1.3,4.4c-0.1-0.2-0.3-0.6-0.4-0.9c-0.1-0.5-0.4-1-0.8-1.1
		c-0.6-0.4-0.6-0.7-0.8-2.2c-0.2-1.1-0.6-2.1-0.8-3.1c0,0,7.5-4.7,11.5-7C147.1,158.7,148.8,162.6,150.2,165.8z M25.9,156.8
		l10.2,10.1c0,0,0.2,13,0.2,18.3c0,5.3-0.1,10.6-0.1,11.6c0,1-0.1,5.2-0.1,9.5c-0.1,9.1,0.8,7.9-0.9,9.7l-9.2,8.7L25.9,156.8z
		 M112.4,160.6l4.9,2.3l-0.9,4.8l-4.7-2.2L112.4,160.6z M144,161.7c-1.2,1.6-2.9,2.3-3.9,3.8c-0.2,0.3,0,0.4,0.2,0.4
		c0.2,0,0.8-0.2,1.5-0.9c1.3-1.2,3.1-3.3,3.1-3.6C144.6,161.1,144.2,161.4,144,161.7z M106.1,166.4c1.4,0,0.9,0.4-0.4,1.2
		c-2.8,1.8-6.6,6.9-7.2,8.7c-0.1,0.4,0,0.7,0.3,0.6c2.3-3.6,5.3-7.7,8.7-9.3c1.9-0.9,4.2-1.1,5.4-0.5c0.9,0.4,0.6,0.6-0.9,0.7
		c-3.6,0.4-7.9,3.8-10,7.4c-1.2,2-0.4,1.6,1-0.4c2.4-3.3,7.2-6.5,10.2-6.2c3,0.2,4.7,2.5,4.3,4.5c-0.2,1.2-1.1,2.5-2.8,2.8
		c-2.9,0.6-4.8-4-2.1-4.8c0.7-0.2,1.4,0.1,1.4,0.1c-2.8,0.6-1.4,3.6,0,3.7c1,0,2.2-0.5,2.3-2.2c0-1.2-1-2.4-3-2.4
		c-2.3,0-5.9,1.7-8.1,4.8c-1.5,2.4-0.1,1.6,1,0c1-1.4,4.2-3.4,4.4-3.3c-0.1,0.5-0.2,0.9-0.1,1.6c0-0.3-5,3.2-4.7,5.7
		c0.2,1.9-0.1,2.4-2,2.4c-1.4,0-3.3-0.5-3.8-1.2c-0.5-0.7-1.2-0.9-0.9,0.2c0.4,1.8-0.1,2.1,1,1.8c0.7-0.2,1.4,0.3,2.1,0.9
		c0.8,0.6,1.8,0.8,3,0.8c0.9,0,1.3,0,1.2,0.9c-0.1,0.6-0.2,1.1,0,1.5c0.3,0.6,1.4,1.3,2.7,2.2c1.5,1.1,1.2,1.2-2,8.5
		c-1.3,3.1-1.3,3.7-0.5,6c1.3,3.6,1.5,5-0.9,5.6c-1.3,0.2-2.7,0.2-4.1,0.2c-4.2,0-8.6-0.7-12.6-1.9c-2.5-12.9-7-21.5-7-26.6
		c1.8,1.6,4.7,2.1,6.6-0.5c1.2-1.6,0-3.8,0.6-4.8c1.2-1.7,4.2-5,4.7-4.9c0.4,0.1,0.3,0.2-1,2.3c-1.4,2.1-2.4,4-2,4.5
		c0.2,0.2,0.3-0.2,1.3-2c2.4-4.2,4.5-6.7,5.3-6.4c0.4,0.2,0.2,0.5-1.6,2.8c-2,2.6-2.5,4.3-2.3,5c0.2,0.6,0.5-0.3,1.3-2
		c0.9-1.7,2.5-3.6,3.8-5.5c0.4-0.7,0.9-1.1,1.6-1.4c0.5-0.2,1.3-0.6,1.7-0.5c0.2,0,0.1,0.2-0.2,0.5c-2.5,2.6-4.7,5.6-6,8.4
		c-0.2,0.4,0.1,0.9,0.4,0.5c1.9-3.4,4.5-7.6,7.4-9.4C104.6,166.7,105.3,166.4,106.1,166.4z M36.8,167.9l6.2,6l13.3-0.2
		c-2.2,3.6-2.2,6.4-0.8,9.8c2.4,5.5,6.1,18,5.8,18c0,0-0.1,0.3-0.4,0.3c-1.1,0.2-1.8,1.3-1.5,2.6c0.1,0.4,0.1,0.3-0.2,0.9
		c-1.1,1.9,0.2,3.9,0.2,3.9l-11.7,19.7H26.2v-3.4l10.6-10.8v-8.1c4.1,1.6,7.4,7.2,8.5,11.6c10.2-7.6,10.7-24.4-0.5-32.9
		c-0.1,3.7-3.1,11-8,11.5V167.9z M116.8,168.5c0.9,0.1,3.2,0.8,2.1,1.3l-1,0.5C117.3,169.8,117,169.2,116.8,168.5z M135.6,169.8
		c0,0.3,0,0.5,0.1,0.6c0.4,0.3-0.3,1.1-0.9,1c-0.7,0-0.6-1.8-0.2-2.4C135.1,168.2,135.5,169.3,135.6,169.8z M114.5,171.6
		c0.7,0,1.3,0.6,1.3,1.3c0,0.7-0.6,1.3-1.3,1.3c-0.7,0-1.3-0.6-1.3-1.3C113.2,172.2,113.8,171.6,114.5,171.6z M88.2,176.1
		c0.7,1.7,0.2,3.8-1.8,4.6c-3.5,1.2-6-3.2-2.6-4.6c1.8-0.7,3.4,0.6,2.6,2.1c-0.6,1-2.1,0.9-2.5-0.1c-0.3-1.1-0.8-0.6-0.6,0.2
		c0.6,2.5,3.8,1.9,4.1-0.4c0-2.8-3.1-3.5-4.9-1.9c-1.4,1.3-1.6,3.6-1.2,5.5c0.5,4.1,2.8,9.5,4.5,15.6c0.8,3,2,6.7,2.4,9.8l-1.2-0.4
		c0,0-3.8-13.2-6-19.6c-1.7-5.2-3.1-11.7,3-13.1C85.7,173.3,87.7,174.8,88.2,176.1z M80.1,173.6L80.1,173.6l1.7,0c0,0,0,0.1-0.7,0.7
		c-4.1,3.1-1.6,9.8-0.1,15c2.7,8.3,5.1,16.8,5.1,16.8l-1.7-0.7c-0.9-5.4-5.3-15.7-6.8-23.4C77.1,177.4,77,176.1,80.1,173.6z
		 M72.1,173.6l1.2,0c-4.4,8.3,2.3,16.9,4.9,29.6l-1.6-0.5C74.5,193.4,66.2,177.9,72.1,173.6z M70.3,173.7h0.5c-2,3.1-1.7,7-0.6,11.2
		c1.5,5.7,4.3,11.9,5.2,17.5c-0.5-0.3-1.2-0.4-1.7-0.6c-1.7-7.1-4.7-14.1-6.1-20.8C67.2,177.4,68,174.7,70.3,173.7z M74.4,173.7h1.3
		c-1.2,1.9-1.7,3.5-1.5,6c0.5,8.5,4.8,16.7,6.4,24.5l-1.5-0.5C77.5,194.3,69.1,180.4,74.4,173.7z M77.3,173.7h1.5
		c-1.6,1.6-2.6,2-2.2,7.4c0.7,6.9,5.2,15.6,6.8,24.2l-1.6-0.6c0,0-0.4-1.2-0.6-2c-1.5-6.9-5.7-14.6-6.2-22.7
		C74.9,177.3,75.4,174.9,77.3,173.7z M62.6,173.9h1c-2,2.3-1.9,5.5-1,9c1.4,5.7,4.7,12.5,5.6,18.2l-1.4-0.1
		c-1.4-6.1-4.1-12-5.8-18.1c-0.3-1.4-0.6-3.1-0.5-4.3C60.6,175.9,61.7,173.9,62.6,173.9L62.6,173.9z M66,173.9
		c-1.9,2.5-2.1,5.1-1.3,8.5c1.8,7,4.4,13.1,5.7,18.8l-1.3-0.3c-1.6-5.6-4.2-12.6-5.9-18.3c-1-3.6-0.6-7.9,1.6-8.8L66,173.9z
		 M58.7,173.9c-1.3,1.3-1.8,3.4-1.6,5.6c0.6,6.2,5,14.8,6.6,21.5l-1.5,0.3c-1.4-5.8-4.6-14.7-5.8-17.7c-1.6-3.1-1.1-7.8,1.3-9.6
		L58.7,173.9z M60.9,173.9c0.2,0-1.6,2.7-1.4,5c0,1.2,0.1,2.6,0.4,3.9c2.2,6.3,4.3,11.9,6,17.9l-1.4,0.1c-1.9-7.4-5.6-14.1-6.5-21.1
		c-0.2-2,0.1-4,1.8-5.7L60.9,173.9z M67.2,173.9h1.4c-1.5,1.6-2.2,4-1.7,7c0.5,3,2,7.7,3.3,11.9c1.5,4.8,2.7,8.9,2.5,8.9l-1.6-0.2
		C68.2,187.6,61.6,179,67.2,173.9z M97.6,182.9c-1.3,0-2.6,0.7-2.9,1.8c-0.4,1.3-0.1,3.7,2.5,3.7c0.9,0,1.4-0.7,0.3-0.9
		c-4-0.7-1.3-4.8,1.5-2.7c2.5,2.3,5.9,2.3,5.9,0.6c0-0.4,0-0.4-0.6-0.5c-1.4-0.3-3.5-0.9-4.3-1.3c-0.5-0.2-1-0.5-1.1-0.5
		C98.5,182.9,98,182.8,97.6,182.9z M45.5,186.6c10.1,9.2,8.2,22.3,0.5,30l-0.6-1.6c4.3-2.5,9.5-16.2-0.1-26.3L45.5,186.6z
		 M104,187.2c-1.8,0-3.3,1.7-2.2,3.6c0.3,0.5,1,0.9,1.3,0.8l0.1,0c0.1-0.1-0.1-0.5-0.5-0.9c-1.5-2.1,0.6-2.7,2.1-1.6
		c1.4,1.1,3.6,1,3.3-0.2c-0.1-0.4,0-0.6-0.8-0.6c-0.7,0-0.9,0-1.5-0.5C105.3,187.4,104.6,187.2,104,187.2z M45.1,189.4
		c7.6,7.7,5.9,18.9,0.2,25.3c-1.5-3-3.1-5.7-5.4-7.4c1.2-2.9,1.8-6.2-0.3-10.6C41,195.9,43,193.7,45.1,189.4z M97.9,192.4
		c-0.8,0-0.5,0.5,0.5,0.9c1,0.4,2.1,1.4,2.1,1.7c0,0.2-0.3,0.1-2,0.6c-0.7,0.2-1.8,0.7-2.2,0.9c-0.7,0.3-0.8,0.3-1.9,0.3
		c-2-0.1-2.3,0-0.9,1c2.8,2.1,6.5,3.4,8.4,2.6c0.6-0.3,0.6-0.1,1,0.1c0.6,0.3,1,0.5,1.3,0.5c0.6,0,0.6-0.5-0.3-1.3
		c-0.6-0.5-0.5-0.3-0.5-0.6c0.1-1.3-0.1-2.6-0.6-1.2c-0.1,0.4-0.4,0.8-0.6,0.7c-0.4-0.1-0.2-0.9-0.4-1.3c-0.3-0.7,0-0.8,0.8-0.6
		c0.6,0.1,0.6-0.2,1-0.6c0.6-0.7,0.5-1.1-0.4-0.9c-0.2,0-0.3,0-0.4,0c-0.3-0.1-0.6-0.3-1.3-0.8c-0.9-0.7-2.2-1.7-3.1-1.8
		C98.1,192.4,98,192.4,97.9,192.4L97.9,192.4z M99.7,196.5c0.1,0,0.3,0,0.4,0.1c0.2,0.3-0.4,1.5-0.8,1.7c-0.2,0.1-0.4-0.1-0.5-0.1
		c-0.1-0.1,0-0.3,0-0.4c0.2-0.4,0.6-1.2,0.6-1.2S99.5,196.5,99.7,196.5L99.7,196.5z M98.7,196.7l-0.6,1.1c-0.1,0.2-0.2,0.3-0.3,0.3
		c-0.1,0-0.1,0-0.2-0.1c-0.5-0.2-1.4-0.6-1-0.9C97.3,196.7,98.5,196.6,98.7,196.7z M39,197.4c2.7,4.8,0.5,9.5,0.3,9.2l-2.4-0.9v-7.6
		L39,197.4z M92.1,197.9c-0.2,0-0.3,0.1-0.2,0.4c0.1,0.2,1.2,1,2.1,1.6c2.1,1.3,4,2.3,6.2,2.3c0.7,0,1.5-0.1,2.3-0.4
		c0.8-0.3,0.7-1,0-0.8c-0.3,0-0.7,0.1-1,0.2c-1.9,0.3-4.2-0.4-7-2.1c-0.7-0.4-1.4-0.8-1.6-1C92.6,198,92.3,197.9,92.1,197.9z
		 M90.6,200.4c-0.4,0,0.1,0.9,1.4,1.7c3.5,2.1,7,3.7,10.5,3.5c2.6-0.1,3-0.3,3-0.9c0-1.1-0.4-1.5-2.8-1.3c-2.1,0.2-5-0.1-7.1-1
		c-2.3-1-2.9-1.2-3.7-1.7C91.2,200.5,90.8,200.3,90.6,200.4z M93.9,208.8c4.3,0.7,9.5,0.7,14,0.4c0.8-0.1,0.9,2,0.9,2
		c0.6,6.3,5,11.5,8.1,18.3c-22.5-0.6-45.2,0-67.9-0.1c0,0,8.2-14.5,10.8-19c0.5-1,0.6-1.7,0.3-2.1c-0.5-0.6-0.4-1.7,0.1-2.4
		c0.6-0.3,0.3-0.7,0.1-1.2c-0.4-1.4,0.6-2.3,1.7-2.8C73.2,200.1,83.5,206.9,93.9,208.8z"/>
	<path class="st2" d="M129.7,22c0,0-9,17.5-12.1,22.1c-17,1.8-13.4-6.8-48.4-6.8l-7.6-15.1L129.7,22z M145.4,39.5l0.2,48.4l-2.3-2.1
		l-0.5-48L153,28l0.1,2.9L145.4,39.5z M139.2,44.9c-2.4,4.9,0.3,10.9,0.3,10.9c-1.4-0.4-5.3,7.2-5.7,6.9c-6-7.4-7.1-18.5,0.3-25.3
		C135.9,42.2,139.2,44.9,139.2,44.9z M134.7,78.7c-4.6,4.7-8.2,8.4-11.8,13.6c-0.3,0.4,19.3,25.5,19,25.9c-3,3.4-7.1,5.8-10.2,9.9
		c0,0-16.1-21.2-16.4-21c-1.6,6.6-2.8,12.6-2.5,19.5c1,17.7,8.5,28.5,8.6,28.3c6.4-25.5,33.6-41.9,32.5-39.2l0,11.4
		c-0.3-0.6-12.9,7.3-19.9,24.1c-0.4,1-12.4,4.9-12.3,5c0.5,1.3,5.8,8.8,5.8,8.8s-2.1,1-2.4,1c-6.8-8.6-12-19.8-13.8-30.5
		c-2.1-11.6-3.5-33.3,19.5-57L134.7,78.7z M65.6,108.6c3.6,11.3,3.5,22.9,1.8,31C64.9,154.4,55.7,165,48.3,173l-3.3-0.1
		c5.5-4.9,9.1-9.7,11.2-13.9l-19.2-25.3l-11,2.4c0,0,0.3-11.3,0-11.3c8.5-7.1,14.6-13.5,19-23.8c2.7-1,11.6-4.9,11.6-4.9
		c2.7,3.5-12.3,29.2-9.4,28.1c1.3,1.1,16,21,16.2,20.9c6.7-20.8,0.2-42.6-11.7-57.8c1.3-0.9,2.6-1.6,2.5-1.4
		C59.3,93,63.7,101.5,65.6,108.6z M100.8,119c-0.8-1.2-4.2,25.4,4.8,46.6c-0.9,0.7-8.3,2.1-8.3,2.1l-2-6.4l5.1-2.2l-0.9-3
		c-3.9,1.9-12.4,4.7-17.7,13.5c0,0-25.4,0.2-26,0.2c-0.5,0,5.2-5.5,10.6-16.7c2.5-5.1,4.4-11.7,4.9-19.4c0.1-1.5,5.8,7.2,5.8,7.2
		c-1.4,7.4-5.3,14.6-9.1,21.8c0,0,5.8,0.3,9.9,0.2c6.4-7,10.3-10.7,19.9-14c-2.2-11,4-12.1-20.1-15.6c2.7-14.2,1.5-31.3-4.3-47.5
		c5.6-0.4,5.8-0.7,8.7-1.5l2,5.9l-5.4,2.5l0.9,3.3c0,0,12-3.7,17.9-14.2l26.3,0c-10.1,11.1-14.3,22-16.5,36.5
		C105.2,118,100.8,119,100.8,119L100.8,119z M36.1,214.5c-3.3,2.8-9.9,10-9.9,10l-0.1-3.7l7.5-7.9l-0.1-48.6l2.5,2.5L36.1,214.5z
		 M39.6,196.7c1.4-0.6,4.1-3.8,5.3-7.4c8.7,7.8,5.1,22.2,0.4,25.2c-1.4-3.1-5.4-7.3-5.3-7.2C40.9,204,41.6,200.7,39.6,196.7z
		 M116.8,229.3l-67.2-0.1c3.8-7.6,7.4-13.7,11.4-21.2c2.1-2.6,48,8.3,48.3,7.2L116.8,229.3z"/>
	<path class="st3" d="M153.1,31.7l0.4,63.8l-7.6-7.5l-0.5-49L153.1,31.7z M118.1,44.1c1.6,0.8,0.1,2.8,1,4.4
		c-1,3.3-9.3,1.7-14.5,0.6c-12.7-3.3-15.6-7.6-33.2-6c-0.1-0.2-1.9-4.9-1.8-5.4C84.7,34.6,104,45.8,118.1,44.1z M90.8,77.1
		c1.6,1.2,3.1,1.4,4.6,1.6c-2.6,4.6-5.7,8.8-11,11.4L82,84.1C85.1,82.5,88.1,80.6,90.8,77.1z M122.7,92.9c0,0,2.3-3.7,4.4-5.5
		c6.3,8.6,20.5,26.8,20.5,26.8l6-3.1c0,0,0,3.5-0.1,3.8c-16.3,8.4-27.4,24.4-32.3,39.3c0,0-2.6-2.7-2.3-3.8
		c4.4-11.8,11.9-23.6,23-32.4L122.7,92.9z M102.4,110.2l-20.5,0l-0.9-7.2c7.9-2.6,14.4-8.1,20.4-14.3l9.7,0.2
		C107.9,95.9,103.5,103.1,102.4,110.2z M26.3,140.5c-0.7-2,0-4.2-0.2-4.1c24.6-12.2,31.6-39.1,31.6-39.1s2.3,3.7,2.2,4.3
		C47.2,130,38.7,130.9,37.1,134l19.4,25.2l-4.4,6L31.3,138C29.2,139,28,139.8,26.3,140.5z M38.5,103.7c-4.2,7.5-8.5,11.9-12.8,14.9
		l0.2-10L38.5,103.7z M153.5,133.3l-0.1,9.7l-12.7,5.5C144.2,140.8,149,136.6,153.5,133.3z M97,142l0.8,6.8
		c-7.7,3.4-14.5,7.9-20,14.1c-5.9,0.3-9.9-0.1-9.9,0c0,0,5.3-7.9,9-20.9L97,142z M33.3,213.3l-7,7.1l-0.2-63.6l7,6.9L33.3,213.3z
		 M94.8,161.6l2.2,6.3c-3.5,1.3-6.1,4.2-8.6,7c-1.8-2.1-4.8-2.5-4.8-2.3C88,165.8,91.7,163.5,94.8,161.6z M108,209.3
		c0,0,0.9,0.5,0.8,1.2c-0.3,0.9,0.9,3,0.9,3c-14.9,4.5-36.6-8.3-49.5-5.6c0.1-0.9,0-2,0.3-2.8c-0.4-1.8-0.7-1.9,1.1-3
		c9.1-2.6,18.6,2.9,27.4,5.5C96.2,210,102.1,209.4,108,209.3z"/>
	<path class="st4" d="M130.7,21.6l-70.1,0.1l8.4,15.9c0,0-0.7,2.6,0.7,2.9c0.4,0.1,0.7,0.5,0.8,0.9c-0.1,1.1,0.4,1.6,0.8,2.1
		c6.7-0.9,12.4-0.5,17.2,0.6c10.7,3.2,19.3,8,28.9,6.1c1.5-0.4,2.2-1.8,1.7-3c-0.2-0.6-0.6-0.6-0.2-0.9c0.5-0.5,0.7-1.8,0.2-2.2
		c-0.6-0.3-0.8,0.3-0.1-0.9L130.7,21.6z M129.3,22.4L123.6,33c-3.4-0.2-3.3,3.1-3.1,3.2c-2.3-1.6-4.7,2.4-1.4,3.6
		c-2.7,2.8-6.7,0.2-6.5,0c3.8,0.7,4.1-3.6,1.5-4.3c3.4-4.8-5.6-6.6-3.9-0.7c-4.6-0.8-3.7,4.4-0.3,4.4c-0.8,2-7.1,0.5-6.8-1
		c4.2-0.5,2.5-4.3,0.7-4.3c4.4-4.2-4.4-8.1-4.2-1.8c-3.6-0.8-4,4-0.6,4.3c-1.3,1.8-5.7,0.7-7-1.4c3.5-0.5,3.3-3.6,0.5-4.1
		c3.5-4.5-5.1-6.2-4.2-0.9c-3.1-1.1-4.8,3.1-0.8,4.3c-4.1,2.5-8.6-1.2-8.1-1.3c4.7,0.3,3.8-4.4,0.4-4.2c2.2-4.9-6.4-5.2-4.2-0.1
		c-3.8-0.1-3.5,4.4,0.2,4.7c-2.3,1.7-4.9,1.9-6.6,0.3c3.5-0.9,2-5-1.5-3.9c-0.3-3.4-3.1-2.7-3.2-2.6l-2.5-4.7L129.3,22.4z
		 M154.1,26.2l-11.5,11.5l0.1,47.7c-2.4-2.3-4.5-4.8-7.3-7l-4.8,0c-12.5,12.7-19.3,23.6-20.8,43.2c-1,13.1,3.3,29.5,14.8,45.4
		l2.8-1.7L122,157l11.7-5.2c4.7-9.9,10.2-19,20.3-24.2l0.1-12.8l0.2-0.3l-0.1-4l-5,2.7c-1.5-2.2-6.3-8.6-11-14.8
		c-5-6.5-9.7-12.7-9.7-12.7l-0.3,0.2l0.7-0.8l20.8,27.4c0,0,3.3-1.6,4.2-2.2l-0.1-13.9l0.6,0L154.1,26.2z M152.8,28.2l0.1,2.6
		l-7.8,8.1c0,16.1,0,32.2,0.1,48.2l-1.9-1.9l-0.3-47.5L152.8,28.2z M78.1,28.8c0.7,0.1,1.2,0.8,0.7,1.6c-1,1.7-0.3,3.2,2.3,4.5
		c3.6,1.9,9.5-0.2,8.2-3c-0.8-0.9-0.1-1.5,1-1.5c1.2,0,1.5,0.8,0.8,1.6c-0.9,1.1-0.7,2.1,0.4,3.4c3.2,4.6,9.7,2.8,8.9-1.3
		c-0.4-1,0.7-1.4,1.8-1c0.7,0.3,0.6,1.4-0.2,1.8c-0.9,0.1-1,1.4-0.9,2.2c0.2,1.2,1.9,2.4,3.7,3.1c1.3,0.5,2.5,0.6,3.4,0.5
		c2-0.2,3.1-1.5,2.8-3.6c-0.2-1.2,0.1-2.4,1.5-1.8c0.8,0.4,0.6,1.2-0.2,2c-2.7,2.7,2.8,6,6.1,3.7c0.6-0.5,1-0.5,1-0.5
		c-2.1,5.2-8.6,0.3-8.6,0.1c-6.9,3.9-9.8-1.5-10.8-2.3c-6,1.3-7.2,0.7-10.6-3c-6,3-9,0.4-11.5-1.2c-3,2.8-6.7,2.9-8.7,1.5
		c-0.4-0.6-0.9-1.4-0.9-1.6c0-0.2,0.2,0,0.9,0.5c3.5,2.6,9.4-0.6,7.9-4c-0.4-0.9-0.4-1.3,0.3-1.7C77.7,28.9,77.9,28.8,78.1,28.8z
		 M66.8,30.6c1,0,1.3,1.7,0.8,2c-0.2-0.4-1.1-2-1-2L66.8,30.6z M152.8,32.4l0.4,62.7l-7-7l-0.4-48.7L152.8,32.4z M78,35
		c0.5,0.5,1.4,1,2.2,1.5l-3.8-0.2C76.9,36,77.4,35.7,78,35z M89.3,36.2c0.6,0.7,1.2,1.2,1.8,1.8l-3.5-0.9L89.3,36.2z M121.3,36.7
		c0.2,0,0.1,0.2-0.2,0.9c-0.2,0.3-0.3,0.6-0.4,0.6c-0.3-0.2-0.1-0.9,0.1-1.1C121,36.9,121.2,36.8,121.3,36.7z M134.2,37.2
		c-9.5,9.7-5,21-0.1,26.5c1.1-3.8,6.1-7.8,6-7.9c-2.2-3.4-2-8.4-0.2-10.9c0,0.1-3.9-3.2-4.4-4.9C135,38.9,134.9,38.2,134.2,37.2z
		 M133.9,37.8l0.6,1c-6.8,8-3.9,17.8,0,22.5l-0.7,1.4C124.7,51.2,130.7,40.7,133.9,37.8z M73.2,38c7.4-0.1,15.7,0.5,22,2.9
		c7,2.1,13.5,6.1,23.1,3.4c0.3,0,0.4,0.4,0.4,0.8c0,0.4-0.2,0.7-0.5,0.9c-12.6,3.2-19.3-3.6-29.4-5.5c-5-0.9-11.5-1.4-15.8-1
		c-2.4,0.2-3,0.2-2.9-0.9C70.1,38,70,38,73.2,38z M99.9,39.2l1.8,2.3l-4.2-1.6C98.5,39.7,99.2,39.4,99.9,39.2z M134.7,39.9
		c0.1,0,0.1,0,0.2,0.1c0.6,0.7-1,0.7-0.4,0L134.7,39.9z M75.2,40.9c9.9-0.1,18.3,1.9,24.5,4.8c6.2,2.3,11.9,3.1,16.3,2.4
		c2.5-0.4,2.8-0.4,2.8,0.2c-0.5,2.1-3.1,1.9-5.1,1.9c-5.4,0-11.5-1.6-15.8-3.5c-8.5-3.8-16.8-4.9-25.3-3.8c-0.4,0.1-0.8,0-1.1-0.3
		c-0.8-0.9-0.2-1.4,1.7-1.6C73.8,40.9,74.5,40.9,75.2,40.9z M135.1,41.3c0.4,0,0.9,0.2,1.1,0.4c0.5,0.6-0.1,2.4-0.8,2.4
		c-0.5,0-1.2-2.2-0.8-2.7C134.7,41.3,134.9,41.3,135.1,41.3z M110.8,41.6c0.7,0.6,1.6,1.3,2.6,1.9c-2,0-3.9-0.2-5.7-0.5
		C108.7,42.6,109.7,42.3,110.8,41.6z M133.5,41.9c0.2,0,0.3,0.3,0.5,0.9c0.4,1.2,0.3,1.4-0.4,1.6c-0.4,0.1-0.8,0.3-1.2,0.4
		c-0.4,0-0.3-0.6,0.4-2C133.1,42.2,133.3,41.9,133.5,41.9z M137.1,43.3l1.9,1.6c-1.3,3.1-1.9,6.3,0.2,10.5l-2,1.9
		C134.4,51.7,134.6,47.3,137.1,43.3z M134.5,44.9c0.4,0,0.6,0.1,0.7,0.5c-0.2,0.9-0.6,2.5-1.1,2.4c-0.8-0.2-2.1-2.2-0.9-2.5
		C133.7,45,134.1,44.9,134.5,44.9z M141,45.5l-1.3,4.6l1.4,4.8l0.7-0.2l-1.4-4.6l1.2-4.4L141,45.5z M131.6,46.3
		c0.5,0,1.8,1.4,1.8,1.9c0,0.2-1.4,1.1-1.9,1.5c-0.3,0.2-0.2,0.1-0.2-0.1c0-0.7,0-2.4,0.3-3.1L131.6,46.3z M134.3,48.9
		c0.3,0,0.2,0.4,0.2,1.5c0,0.9,0,1.4-0.2,1.4c-0.2,0-0.7-0.3-1.2-0.7c-1.3-1-1-1.6,0.5-2.1c0.2-0.1,0.4-0.1,0.6-0.2L134.3,48.9z
		 M131.5,51c0.2,0,0.4,0.2,0.7,0.5c1,0.9,1.1,1.1,0.2,1.8c-0.3,0.2-0.6,0.5-0.8,0.5c-0.4,0-0.5-0.7-0.6-1.9
		C131.2,51.2,131.2,50.9,131.5,51z M134.4,52.8c0.4,0,0.6,0.4,0.9,1.8c0.2,0.9,0.3,1.3,0.1,1.3c-0.5,0-1-0.1-1.4-0.2
		c-1.9-0.6-1.9-1.8-0.1-2.7C134.1,52.8,134.2,52.8,134.4,52.8z M132.5,55.9c0.3,0,1.6,0.3,1.9,0.8c-0.1,0.4-0.5,1.5-0.8,1.8
		C133.1,58.5,132.5,57,132.5,55.9L132.5,55.9z M135.6,56.6l0.2,0.1c0.2,0.3,0.4,0.7,0.5,1c0.2,0.4,0.1,0.6-0.4,1.1
		c-0.6,0.6-1.1,0.6-1.5,0.3C134.3,58.7,135,56.7,135.6,56.6z M134.7,59.8l0.5,0.1l-0.3,0.6C134.8,60.3,134.4,59.8,134.7,59.8z
		 M90.9,76.7c-3.4,4.3-8.9,7.1-8.9,7l-0.2,0.5c0,0-1,0.3-1.9,0.5c-0.3,0.1-0.9,0.2-1.3,0.3c-0.6,0.2-0.9,0.4-1.8,0.4
		c-1.9-0.2-3.9,0.4-3.8,0.4c5.7,15.9,7.1,30.3,4.9,47c-2.1,0-6.8-0.1-6.8-0.1c-0.5,4.7-1.1,9.4-2.5,13.8c-1.8,5.7-4.1,11-7.6,15.8
		c-2,3-3.8,5.2-5.9,8l26.5-0.1c3.5-5.9,10.3-10.9,15.7-12.9c1.8-0.7,2.1-0.6,2.4,0.3c0.5,1.6,0.5,1.5-0.9,1.9
		c-7.1,2.5-11.5,7-15.1,12.7c-0.4,0.6-0.5,0.9-0.3,1c2.4-0.4,3.8,1.2,5.3,2.3c1.5-2.2,4.1-5.1,6-5.9c0.5,0,1.4-0.5,1.8-1
		c0.5-0.6,0.9-0.5,1.4-0.5c0.6,0,1.6-0.1,2.8-0.7c0.7-0.3,1-0.4,2.1-0.5c0.9,0,1.8-0.3,2.6-0.6c0.9-0.3,0.6-0.5,0.1-1.7
		c-2.7-6.9-4.6-15-5.3-21.6c-0.8-7.5-0.5-16.7,0.5-23.7c2.6,0,4.2,0.1,6.9,0.1c1.8-15.1,6.9-27.1,16.9-37.9l-27.1-0.1
		C94.2,89.9,80,96.3,79.6,95.8l-0.7-3c0,0,10.2-1.5,17-14.5C95.1,78.8,92.6,78.5,90.9,76.7z M91,77.3c1.8,1.3,2.8,1.5,3.9,1.8
		c-3,5.7-6.6,8.7-10.4,10.8l-2.2-5.9C85.4,82.7,88.6,80,91,77.3z M134.3,78.7c-14.7,14.2-21.2,26.3-21.8,42.4
		c-0.6,18.4,5,30.7,14.4,43.8l-2,1.2c-9-12.1-15.5-28.4-14.4-44.6c1-18.8,8.1-29.6,20.6-42.6L134.3,78.7z M116.4,82l6.6,0l-4.9,6.3
		l-5.9-0.2L116.4,82z M97.5,82.1l17.9,0l-4,6.2l-10.6,0.1c-5.1,6.2-11.4,11.2-19.7,14.1c0,0-1-5.8-1.3-6.3
		C89.3,92.6,94.9,87.3,97.5,82.1z M110.1,82.3l-2.4,2.8l1.9,2.4l2.7-2.4L110.1,82.3z M104.4,82.5l-2.2,2.8l2.3,2.3l2.2-2.4
		L104.4,82.5z M98,82.7l-0.5,3.7l3.2,1.8l0.4-3.6L98,82.7z M116.9,83l-2.3,3.6l2.8,0.1l2.7-3.7L116.9,83z M81.6,84.6l2.1,5.7
		c-0.6,0.3-1.2,0.6-1.8,0.7l-1.7-6L81.6,84.6z M79.5,85.3l1.7,5.9c-0.7,0.4-1.4,0.5-2.1,0.8l-1.9-6.3L79.5,85.3z M54.1,85.6L51.6,87
		l-0.4-0.3l-25.9,15l0,4.5l30-12.7c0.6,0.6,0.9,1.3,1.4,2.1l-12,5.1c-3.6,10-11.8,18.3-19.4,24.1c0,9.9,0.1,30.7,0.1,30.7l18.1,18.1
		c2.3-2.1,4.4-4.3,6.4-6.7l-20.8-27.5l1.8-1.2l20.6,27.4c-0.2,0.2-0.4,0.4-0.5,0.6c-0.4-0.5-4.5-5.8-9.3-12.1
		c-5-6.5-10.3-13.5-11.4-15.2l-0.4,0.3c1.1,1.8,6.4,8.7,11.4,15.2c4.8,6.3,9.1,11.8,9.4,12.2c-2.2,2.5-4.5,4.8-6.8,7.1l4.1-0.1
		c2.9-3,23.9-22.4,20.4-51.8C66.9,109.3,63.4,98.4,54.1,85.6L54.1,85.6z M76.2,85.7c3.9,11.1,6.9,26.9,3.8,47.1c0,0-1.1,0-1.6,0
		c3.2-16,0.3-33-4.7-46.9L76.2,85.7z M54,86c18.4,24.8,21.8,61.6-6.4,86.9l-2.4-0.1c2.1-1.9,4-3.9,5.7-5.9l0.2,0.2l0.4-0.3l-0.2-0.3
		c21.6-24.9,18.8-54.7,0.7-79.3L54,86z M128,86.1c0,0,4.7,6.1,9.6,12.6c4.7,6.1,9.5,12.5,10.9,14.7l-0.7,0.4L127.3,87L128,86.1z
		 M127,87.6l20.2,26.3l-5.1,3.7l-19-25.1L127,87.6z M93.9,87.6l-0.1,3.6l3.2,0.5l0-3.8L93.9,87.6z M111.8,89l1.9,0.1l-2.5,1.7
		l1.6,2.1l2.6-1.7l-1.4-2.1l3.8,0.1l-2.6,4.1l-5.6-0.2L111.8,89z M110.8,89.1c-0.2,0-7.8,14.5-8.7,20.8L82.1,110l-0.8-6.8
		c6.6-2.4,13.7-6.5,19.9-14C102.3,89.3,110.8,89.1,110.8,89.1z M90.2,91.3l-0.6,3.3l2.9,0.6l0.6-3.3L90.2,91.3z M122.6,93.3
		l18.7,24.9l-1.9,1.4l-18.2-24.2L122.6,93.3z M109.1,93.9l5.6,0.2l-2.4,4.7l-5.5-0.1L109.1,93.9z M85.7,94.2l-0.4,3.4l3,0.8l0.4-3.6
		L85.7,94.2z M110.9,94.2l-2.6,1.8l1.7,2.4l2.7-1.8L110.9,94.2z M81.6,96.3l-1,3l2.8,1.5l0.9-2.8L81.6,96.3z M55.3,96.8
		c0.8,1-0.5,5.7-2.1,2.7c-0.3-0.6-0.8-1.5-0.8-1.5l0.8-0.3c0.6,2.2,1.2,1.4,1.3-0.6C55.1,97,55.1,96.9,55.3,96.8z M58,98.2l1.7,3.1
		c-10.5,26.1-24.8,33.8-33.3,39.1l0-3.7C49.3,125.3,57.9,98.2,58,98.2z M51.5,98.4c0.4,0.9,1.2,1.8,1.4,2.8c0.1,0.4-0.1,0.6-0.6,0.8
		c-1.3,0.6-2.7,1-3.7,0.5c-0.3-0.5,0.9-3.3,0.9-3.3L51.5,98.4z M119.9,99c0.8,0.1,1.9,0.5,2.8,1.3c1.7,1.4,2.4,3.2,2.6,6.9
		c0.1,2.3,0.3,2.8,1,1.9c1.2-2.2,4.1-1.1,4.5,1.2c0.2,1.2-0.9,2.1-1.2,1c-0.9-2.3-3.1-1.7-2.8,0.5c0.2,1.5,1.7,2.3,4.6,3.1
		c3.5,1,4.6,2.2,5.3,5.1c0.3,1.3,0.3,2-0.4,2.6c-0.3,0.3-0.8,0.7-0.8,0.7s-0.5-2-0.7-2.9c-0.3-1.7-2.7-1.6-2.4,0.2
		c0.2,1,0.2,1-0.3,1c-2.4-0.1-2-3.9,0.8-3.6c0.6-0.1,0.7-0.3,0.2-0.5c-0.5-0.2-2.3-0.7-2.6-0.7c-3,0-7.4-4.6-7.2-8.8
		c0.1-2.7-0.8-4.6-1.8-4.9c-0.7-0.2-1.8,0.5-1.7,1.3c0.1,1.1-0.8,0.8-1.3,0c-0.8-1.1,0.2-2.8,2.2-2.6c0.8-0.2-0.6-0.7-1.7-1
		c-1-0.1-0.1-1.2,0-1.5c0.1-0.2,0.3-0.2,0.6-0.3C119.7,99,119.8,99,119.9,99L119.9,99z M106.4,99.5l5.6,0l-1.8,4.8l-5.7-0.1
		L106.4,99.5z M48.5,99.7c-4.4,12.1-13.7,22.4-22.2,27.7l0-2.7c1.8-1.3,13.2-9.7,19.2-23.7L48.5,99.7z M108.3,99.8l-2.6,1.8l2,2
		l2.7-1.7L108.3,99.8z M55.1,101.4c0.3,0,0.6,0.3,0.6,0.6c0,0.3-0.3,0.6-0.6,0.6c-0.3,0-0.6-0.3-0.6-0.6
		C54.5,101.6,54.7,101.4,55.1,101.4z M60,101.9c5.6,13.2,7.7,26.1,3.3,42.7L47.5,124C52.2,118,56.9,111,60,101.9z M53.1,102.6
		c0.3,0,0.3,0.4,0.2,1.2c-0.2,2-1.5,4.1-2.3,4.2c-0.3,0-0.6-0.5-0.7-1c-0.1-0.5-1.1-1.9-1.7-2.6c-0.7-0.8-0.7-0.9,0.4-1
		c1.3-0.1,2.5-0.4,3.2-0.6C52.6,102.7,52.9,102.6,53.1,102.6z M39.1,103.2l-13.9,5.4l0,10.9C34.7,112.6,38.3,104.3,39.1,103.2z
		 M51.7,103.9c-0.5,0.1-1.5,0.5-1.6,0.9c0,0.2,0.7,1.4,1.1,1.4c0.7-0.1,1-1.7,0.9-2.2C52,103.9,51.8,103.9,51.7,103.9z M38,104.1
		c-4,6.8-7.9,10.9-11.7,14l-0.1-9L38,104.1z M116.8,104.1l16.4,21.7l-1.5,1.5l-15.9-20.6L116.8,104.1z M47.5,104.7
		c1,0,2.6,3.7,2.1,4.4c-0.3,0.4-2.2,0.2-3.2,0.1c-1-0.2-1.2-0.2-0.8-1.1c0.5-1.1,1.5-3.2,1.8-3.3L47.5,104.7z M104.2,104.9l5.9,0.1
		l-1.4,5.1l-6,0L104.2,104.9z M106.6,105.1l-2.9,2l2.3,2.3l2.8-1.9L106.6,105.1z M115.3,107.7l15.9,20.7
		c-6.1,6.9-10.2,14.8-12.7,21.6C112.6,137.1,111.2,122.4,115.3,107.7z M51.3,109c0.3,0,0.6,0.3,0.6,0.6c0,0.3-0.3,0.6-0.6,0.6
		c-0.3,0-0.6-0.3-0.6-0.6C50.8,109.2,51,109,51.3,109z M44.9,109.7c0.2,0,0.4,0,0.7,0.1c1.2,0.5,4.2,0,4.2,0.2
		c0.4,0.6-0.2,2.3-1.4,3.5c-0.6,0.6-1.1,0.9-1.5,0.9c-0.3,0-0.4-0.4-0.6-1.2c-0.4-1.3-1.1-2.4-1.6-3.4
		C44.7,109.8,44.7,109.8,44.9,109.7z M44,111c0.5-0.1,1.1,0.9,1.5,2.5c0.4,1.4,0.2,1.8-0.6,1.8c-0.4,0.1-0.7,0-1.1,0
		c-2.2,0-2.9-0.1-2.3-1.2c0.8-1,1.3-2,2.3-3L44,111L44,111z M47.9,111c-0.4,0-0.8,0.2-1,0.4c-0.2,0.4-0.1,1.1,0.5,1.4
		c0.3,0.2,1.3-1.2,1-1.6C48.3,111.1,48.1,111,47.9,111z M102.7,111.1l5.8,0.1l-1.1,6.1L102.7,111.1z M153.2,111.6l0,3
		c-18.5,10.6-26.1,23.1-32.4,39l-1.8-3c6.4-16.4,16.4-28.7,30-36.7l0,0l0.4-0.3l0,0C150.6,112.9,151.9,112.3,153.2,111.6
		L153.2,111.6z M47.3,115.6c0.3,0,0.6,0.3,0.6,0.6c0,0.3-0.3,0.6-0.6,0.6c-0.3,0-0.6-0.3-0.6-0.6C46.7,115.9,47,115.6,47.3,115.6z
		 M40.9,115.7c0.2,0,0.8,0.2,1.6,0.3c1.1,0.1,2.8-0.1,3.3,0.2c0.2,0.2,0,0.9-0.3,1.6c-0.5,1-1.4,1.9-2.1,2.3
		c-1.7,0.8-1.3-0.2-1.6-1.2c-0.2-0.6-0.4-1.3-0.6-1.9C40.7,116,40.6,115.7,40.9,115.7z M39.8,116.7c0.4,0,0.8,0.6,1,1.7
		c0.6,1.9,0.7,2.6-0.7,2.4c-0.4,0-1,0-1.6-0.2c-1.7-0.3-1.9-0.5-0.9-1.7c0.4-0.4,0.9-1.1,1.2-1.5C39.2,117,39.5,116.7,39.8,116.7z
		 M153.2,116.8l0,1.6c-1.4,0.5-2.2,1.6,0.1,2l0,1.3c-1-0.4-1.9-0.9-3-1.3c-0.7-0.2-0.5-0.8,0.2-1.6
		C151.3,117.8,152.1,117.4,153.2,116.8L153.2,116.8z M43.7,117c-0.3,0-0.5,0-0.7,0.1c-0.6,0.2-0.2,1.6,0.4,1.6
		c0.5-0.1,1.3-1.1,0.9-1.5C44.2,117.1,43.9,117.1,43.7,117z M148.1,119c0.3,0,0.6,0.3,0.6,0.6c0,0.3-0.3,0.6-0.6,0.6
		c-0.3,0-0.6-0.3-0.6-0.6C147.5,119.2,147.7,119,148.1,119z M99.3,119.4c0.5,0,1,0.1,1,0.1c-0.2-0.1-0.9,8.8-0.8,14.3
		c0.1,10.6,1.9,21.1,6,31.5c-0.8,0.5-2.7,0.7-2.7,0.7c-2.6-8-4.9-16.5-5.2-24.6c-0.3-8.8-0.4-14.2,1.1-21.9c0-0.1,0.1-0.2,0.3-0.2
		C99,119.4,99.1,119.4,99.3,119.4z M86.4,119.6h6.3v4.2h4.5l-0.4,4.8h-4.2v4.2h-6.3v-4.2h-5l0.4-4.8h4.6V119.6z M36.3,120.8
		c0.2,0,0.4,0,0.7,0.2c0.6,0.3,2.3,0.6,3.2,0.5c1-0.1,1,0.2,0.7,1.1c-0.5,1.5-2.6,3.2-3.6,3.2c-0.3,0-0.5-0.2-0.5-0.6
		c0-0.5-0.4-2.7-0.6-3.4C36,121.2,36,120.8,36.3,120.8L36.3,120.8z M149.4,120.9c0.6,0,1.5,0.4,2.8,1.1c1.1,0.6,1.3,1,0.8,1.4
		c-0.9,0.6-3.6,2.8-4.1,2.6c-0.7-0.6-0.5-4.2,0.2-4.9C149,121,149.2,121,149.4,120.9z M42.8,121.1c0.3,0,0.6,0.3,0.6,0.6
		c0,0.3-0.3,0.6-0.6,0.6c-0.3,0-0.6-0.3-0.6-0.6C42.2,121.4,42.5,121.1,42.8,121.1z M147.5,121.2c0.4,0,0.5,0.2,0.4,0.6
		c-0.4,1.6,0,4.1-0.1,4.7c-1.5-0.5-2.6-1.2-4.1-1.4c-0.5-0.1-0.6-0.1-0.4-0.5c0.7-1.3,2-2.7,3.3-3.1
		C147,121.2,147.3,121.2,147.5,121.2z M35.1,121.7c0.5,0,0.8,0.8,1,2.2c0.1,1.4-0.1,2.2-1.2,2.1c-0.3,0-0.8-0.1-1.3-0.2
		c-2-0.4-2.4-0.9-0.7-2.3c0.6-0.5,1.3-1.1,1.5-1.4C34.6,121.8,34.8,121.7,35.1,121.7z M38.4,122.4c-0.3,0-0.6,0-0.7,0.1
		c-0.3,0.3-0.1,1.4,0.1,1.6c0.6,0.2,1.7-1,1.4-1.5C39.1,122.5,38.7,122.4,38.4,122.4z M146.4,123c-0.2,0-0.4,0.1-0.7,0.3
		c-0.7,0.5-0.7,0.8,0.1,1.3c0.4,0.4,0.9,0.4,1,0.2c0.1-0.2,0.1-0.7-0.1-1.6C146.6,123.1,146.5,123,146.4,123z M142,123.7
		c0.3,0,0.6,0.3,0.6,0.6c0,0.3-0.3,0.6-0.6,0.6c-0.3,0-0.6-0.3-0.6-0.6C141.4,124,141.7,123.7,142,123.7z M87.1,124.1v4.2h5.1v-4.2
		H87.1z M153.2,124.2l0,2.9c-13.9,8.4-19.9,24.2-19.9,24.2l-3.2,1.2C134.6,141.6,140.8,132.2,153.2,124.2L153.2,124.2z M47.4,124.8
		L63,145.3l-1,2.6l-16.3-21.4L47.4,124.8z M31.3,125.7c0.1,0,0.3,0.1,0.6,0.3c0.5,0.3,1.6,0.8,2.7,0.9c0.9,0.1,1,0.5,0.7,1.1
		c-0.8,1.4-2.4,2-3.6,2.4c-0.7,0.2-0.3-1.8-0.6-3.8C31.1,125.9,31.1,125.7,31.3,125.7z M144.1,125.8c1.3,0.1,3.1,0.9,3.1,1.5
		c0,0.3-3,2.8-3.3,2.8c-0.7,0-1.6-3.9-0.9-4.2C143.3,125.8,143.7,125.8,144.1,125.8z M141.4,126.1c0.4,0,0.5,0.3,0.5,0.9
		c0,0.7,0.3,2,0.7,2.9c0.3,0.7,0.7,1.2,0.3,1.2c-0.2,0-0.9-0.3-1.4-0.4c-0.9-0.2-1.5-0.3-2.3-0.4c-1.6,0-1.8,0-1.1-1.3
		c0.5-0.9,1.6-2.2,2.4-2.6C140.9,126.3,141.2,126.1,141.4,126.1z M30,126.2c0.5-0.1,0.6,0.4,0.6,1.7c0.1,1.9-0.1,2.9-1.1,2.9
		c-0.4,0-1.2-0.3-1.9-0.6c-1.9-0.9-1.8-1.1,0.7-2.9C29.1,126.6,29.6,126.2,30,126.2z M37.1,126.8c0.3,0,0.6,0.3,0.6,0.6
		s-0.3,0.6-0.6,0.6s-0.6-0.3-0.6-0.6S36.7,126.8,37.1,126.8z M32.5,127.3c-0.2,0-0.3,0.2-0.3,0.5c0.1,1.2,0.1,1.3,1.2,0.7
		c0.6-0.4,0.9-0.7,0-1C32.9,127.4,32.6,127.3,32.5,127.3z M140.7,127.9c-0.2,0-0.5,0.1-0.7,0.4c-0.7,0.8-0.6,1.2,0.5,1.4
		c0.4,0.1,0.8,0.1,1,0c0.5-0.1,0-0.7-0.2-1.2C141.1,128.1,140.9,127.9,140.7,127.9z M42.8,129.4c0.3,0,0.4,0.5,0.4,1.1
		c0.2,3.2,4.6,3.7,3.1,0.9c-0.5-0.9-0.2-1.3,0.7-0.8c1.5,0.7,1.9,2.5,0.5,3.3c-1.7,0.7-1.1,0.8,1,1.5c4.6,1.6,6.5,4.4,6.7,9.9
		c-0.1,2.5,0.3,3.4,1.4,3.7c1.1,0.3,2.3-1.1,1.5-1.8c-0.4-0.4-0.8-0.7-0.5-1c0.7-0.7,2.5,0.4,2.5,1.6c0,0.8-0.3,0.9-1.5,1.9
		c-0.3,0.3,0,0.7,0.4,0.7c1.8-0.6,1.7,1.8,0.7,1.9c-3.3-0.1-6.8-3.7-6.4-6.7c0.2-2.1-0.2-3.7-0.7-2.8c-1.3,1.9-5,0.6-4.9-1.6
		c0-1.2,0.8-1.4,1.3-0.3c0.7,1.6,2.6,1.7,2.9,0c0.3-1.6-1.1-2.8-4.7-4.1c-4.2-1-6.9-4.9-5.2-6.9C42.3,129.6,42.6,129.4,42.8,129.4
		L42.8,129.4z M136.3,129.5c0.3,0,0.6,0.3,0.6,0.6c0,0.3-0.3,0.6-0.6,0.6c-0.3,0-0.6-0.3-0.6-0.6C135.7,129.7,136,129.5,136.3,129.5
		z M26.3,130.4c0.9,0.3,1.4,0.6,2.5,1c0.6,0.2,1,0.4,0.4,1c-0.9,1-1.8,1.7-2.8,2.3l0-1.3c1.7-0.8,1.5-1.4,0-1.8L26.3,130.4z
		 M139.8,131c1.2,0,2.1,0.4,2.5,0.9c0.1-0.1-2.8,3.4-3.3,3.7c-1.2-1-1.4-2.9-1.3-4.3c0.5-0.1,1.1-0.2,1.5-0.2
		C139.4,131,139.6,131,139.8,131z M136.6,131.3c0.3,0,0.3,0.3,0.4,1c0.1,1.5,0.9,3,1.2,4.1c-1.1-0.1-2.3-0.4-3.5-0.4
		c-1.4,0-1.8,0.1-1.8-0.4c0-1.4,1.3-3.3,2.8-4.1C136.2,131.5,136.5,131.3,136.6,131.3L136.6,131.3z M31.3,131.3
		c0.3,0,0.6,0.3,0.6,0.6s-0.3,0.6-0.6,0.6c-0.3,0-0.6-0.3-0.6-0.6S31,131.3,31.3,131.3z M154.2,132.4c-6.4,4.3-11.5,10.5-14.2,16.6
		l14.2-6L154.2,132.4z M39.2,132.5l18.5,24.1l-1.3,2l-18.9-24.6L39.2,132.5z M135.5,133.3c-0.1,0-0.3,0.1-0.5,0.3
		c-0.6,0.6-0.7,1.1-0.3,1.4c0.5,0.2,0.9,0.2,1.5,0.2c0.5,0,0.3-0.4-0.1-1.3C136,133.5,135.8,133.3,135.5,133.3z M153.3,133.7l0,9.1
		l-12.1,5.1C143.6,142.6,148,137.4,153.3,133.7z M71.4,134.1l5.1,7.2l-6,0L71.4,134.1z M36.8,134.5l19,24.7l-4,5.3l-20-26.3
		L36.8,134.5z M131.7,135.2c0.3,0,0.6,0.3,0.6,0.6s-0.3,0.6-0.6,0.6s-0.6-0.3-0.6-0.6S131.4,135.2,131.7,135.2z M134.1,136.7
		c1.2,0,3.1,0.3,3.4,0.6c0.4,0.3-0.8,1.7-1.5,2.7c-0.3,0.4-0.7,1.5-1.3,1c-0.9-0.9-2.1-4-1.5-4.2
		C133.4,136.7,133.7,136.7,134.1,136.7z M131.8,137.2c0.5,0,0.7,0.6,0.9,1.6c0.1,0.6,0.7,1.6,1.3,2.4c0.6,0.9,0.4,1-1.2,0.7
		c-1.1-0.2-2.4,0-3.5,0.1c-1-0.1-0.1-3.2,1.4-4.4C131.2,137.3,131.5,137.2,131.8,137.2z M131.3,139c-0.1,0-0.3,0.1-0.6,0.3
		c-0.8,0.7-0.5,1.5,0.7,1.5c0.9,0,1-0.2,0.5-1.1C131.7,139.2,131.6,139,131.3,139z M127.5,141.7c0.3,0,0.6,0.3,0.6,0.6
		s-0.3,0.6-0.6,0.6s-0.6-0.3-0.6-0.6S127.2,141.7,127.5,141.7z M96.9,142.1c0,2.2,0.3,4.3,0.6,6.5c-8.5,3.1-15,7.8-19.9,14l-9.1,0.1
		c2.7-5.1,6.5-11,8.7-20.5L96.9,142.1z M70.4,142.2l6,0.1l-1.6,4.7l-5.7-0.1L70.4,142.2z M131.9,142.5c0.9,0,2,0.2,1.9,0.6
		c-0.3,0.8-2.3,4.1-2.5,4.1c-0.5,0-1.7-1.8-2-3.1c-0.2-1,0-1.2,1.8-1.5C131.4,142.5,131.6,142.5,131.9,142.5z M72.8,142.7l-2.8,1.7
		l2.3,2.2l2.7-1.8L72.8,142.7z M128.1,143.8c0.3,0,0.5,0.2,0.7,0.9c0.1,0.5,0.7,1.7,1.4,2.6c0.8,1.1,0.8,1.1-0.4,1.2
		c-1.3,0-2.4,0.6-3.4,0.7c-1.4,0-0.7-3.7,1.1-5C127.7,144,127.9,143.8,128.1,143.8z M153.9,145.1l-30.8,13.3l4.4,6.6l26.4-15.5
		L153.9,145.1z M127.9,146.1c-0.3,0-0.5,0.2-0.7,0.7c-0.2,0.5,0,0.8,0.5,0.8c1,0,1.3-0.5,0.7-1.1
		C128.3,146.2,128.1,146.1,127.9,146.1z M68.6,147.9l5.9,0l-1.8,4.3l-5.6-0.1L68.6,147.9z M71.4,148.2l-3.1,1.5l1.7,2.2l2.8-1.6
		L71.4,148.2z M129.9,149.1c0.6,0,0.7,0.4,0.2,1.3c-0.9,1.8-1.2,2.8-1.8,2.8c-0.4,0-1-0.5-1.6-1.6c-0.9-1.5-0.8-1.6,0.6-2.1
		c1-0.3,1.7-0.4,2.2-0.5C129.8,149.1,129.9,149.1,129.9,149.1L129.9,149.1z M124.2,149.1c0.3,0,0.6,0.3,0.6,0.6s-0.3,0.6-0.6,0.6
		s-0.6-0.3-0.6-0.6S123.9,149.1,124.2,149.1z M97.6,149.5l0.5,2.5l-3.1-0.8l-0.7,3.1l3.1,1l0.7-3.2l0.8,4c0,0-10.7,2.6-17.6,13.7
		L64,169.6l3.8-6.1l10.3-0.1C84.3,155.7,90.9,152,97.6,149.5z M125.4,150.8c0.2,0,0.3,0.2,0.5,0.4c0.3,0.3,1.6,2.4,1.6,2.4l-1.1,0.6
		c-1.3-2.2-1.3-1.1-1.9,0.7l-1.3,0.6c-0.2,0,0.5-3.8,1.5-4.5C125,150.8,125.2,150.8,125.4,150.8z M66.7,153l5.7,0.1l-2.4,4.8l-5.7,0
		L66.7,153z M68.4,153.1l-2.4,1.9l1.7,2.5l2.6-2.2L68.4,153.1z M90.4,153.2l-0.6,3.5l3.1,0.6l0.8-3.3L90.4,153.2z M86,155.8l-0.6,4
		l2.9,0.6l0.8-3.4L86,155.8z M25.5,155.9c0,0,0.1,47.2,0.2,70l10.8-11.1l0-47.9L25.5,155.9z M26.4,157.2l6.4,6.5v49.8l-6.4,6.5
		V157.2z M63.8,158.8l5.8,0l-2.1,3.9l-6-0.1L63.8,158.8z M65.9,159l-2.8,1.1l1.8,2.2l2.6-1.5L65.9,159z M99.8,159.6l2.1,6.6
		l-1.7,0.4l-2.3-6.4L99.8,159.6z M84.9,160.3l-3.5,0.1l0.3,3.5l3.4-0.2L84.9,160.3z M97.3,160.5l2,6.4l-1.7,0.7l-2.2-6.1L97.3,160.5
		z M94.7,161.8l2.1,6c-5.2,2.4-6.6,4.9-8.4,6.9c-1.2-1.3-2.6-2-4.5-2.3C86.9,167.7,90.6,164.1,94.7,161.8z M60.7,163.5l6.3,0
		l-4.1,6.1l-6.9,0L60.7,163.5z M78.3,163.7l-0.5,3.4l3.2,1.6l0.4-4L78.3,163.7z M74.3,163.9l-2.3,2.6l2.4,2.6l2.4-2.7L74.3,163.9z
		 M69.6,164.1l-2.5,2.5l2,2.6l2.4-2.5L69.6,164.1z M34,164.9l1.9,1.9v47.3l-9.5,10v-2.8l7.6-7.9L34,164.9z M60.9,164.9l-2.4,3.5
		l3.5,0.1l2.3-3.6L60.9,164.9z M44.9,188.9c-1.3,2.9-3,6.7-5.9,7.9c2.1,4.2,1.8,8.4,0.3,10.7c2.1,2,4.3,4.4,5.7,7.8
		C51.8,209.3,52.9,197,44.9,188.9L44.9,188.9z M45.1,189.4c5.3,5.6,7.6,17.5,0,24.7l-0.5-1.1c6-7.4,4.1-17.1-0.2-22.2L45.1,189.4z
		 M43.7,192.8l0.2,0c0.4,0.1,0.6,0.6,0.2,1.4c-0.2,0.7-0.8,1.3-1.3,1.2c-0.6-0.1-0.5-1.4,0.2-2.2C43.3,193,43.5,192.8,43.7,192.8
		L43.7,192.8z M45.3,193.6c0.2,0,0.5,0.4,1,1.4c0.5,1,0.7,1.7,0.4,1.7c-0.8-0.2-1.6-0.5-2.2-1.2c-0.3-0.4,0.1-1.2,0.6-1.8
		C45.1,193.6,45.2,193.6,45.3,193.6z M41.7,195.3c1.1,0.5,3.6,9.7,0.2,13.5l-1.8-1.5c1-2.6,1.6-5.8-0.3-10.5
		C40,196.8,41.3,195.6,41.7,195.3z M44,196.3c0.7,0,1.8,0.4,2.1,0.9c0.3,0.5-0.6,2.1-1.3,2.6c-0.3,0.2-0.5,0.1-0.5,0
		c-0.4-0.3-1-3.1-0.7-3.4C43.6,196.4,43.8,196.3,44,196.3z M37.9,197.2l-0.7,0.2l1.4,4.6l-1.2,4.4l0.7,0.2l1.3-4.6L37.9,197.2z
		 M47.1,198.2c0.3,0,0.5,0.4,0.6,1.6c0,0.7,0.1,1.2-0.1,1.2c-0.2,0-0.6-0.3-1.1-0.6c-0.8-0.5-0.8-0.7-0.1-1.6
		C46.6,198.4,46.9,198.2,47.1,198.2z M44.5,200.3c0.6,0,1.9,0.4,2.1,1.2c0.4,0.7-1.1,1.7-1.9,1.7c-0.2,0-0.3,0-0.4-0.1l-0.1-2.8
		C44.2,200.4,44.3,200.3,44.5,200.3L44.5,200.3z M66.4,201.4c-4.7,0-7.2,1.2-6.3,3.4c0.6,0.6,0.2,0.8-0.1,1.2c-1,1-0.4,1.8,0.2,2.9
		c0,0-7.8,14.1-11.8,21.1l69.2,0.2l-2.7-5.2l0.5-0.3c-0.7-1.2-1.4-2.6-2.1-3.9l-0.5,0.1c-0.9-1.7-1.3-2.4-2.4-4.4h0.5
		c-0.3-0.9-1-1.5-1-2.2c0-0.8,0.2-1.6-0.3-2.2c-0.6-0.7-0.7-0.8-0.5-1.2c0.3-1-0.6-2.1-1.5-2c-6.5,0.9-13.1,0.1-19.8-1.9
		c-6.7-2-12.5-5-19.1-5.5C67.8,201.5,67.1,201.4,66.4,201.4L66.4,201.4z M65.5,201.8c8.7-0.2,14.7,3.5,22,5.7c7,2.1,12.1,2.7,20,1.9
		c1,0.1,1,0.7,1,1.2c-8.4,1.1-16.2,0.3-24.7-3c-8.3-3.1-17.4-6.3-23.4-3.5c0,0,0-1.2,0.6-1.5c0,0,0.6-0.5,2.7-0.8
		C64.4,201.8,64.9,201.8,65.5,201.8z M47.5,202.4c0.3,0,0.4,0.6,0.2,1.8c-0.1,1-0.3,1.6-0.6,1.6c-0.2,0-0.6-0.6-1-1.3
		c-0.4-0.6-0.3-0.8,0.5-1.5C47,202.6,47.3,202.4,47.5,202.4z M44.4,204c0.2,0,1.9,1.4,1.8,2.2c-0.3,0.9-1.5,0.7-2.2,0.7L44.4,204
		L44.4,204L44.4,204z M65.5,204.6c0.3,0,0.6,0,0.9,0c5.1,0.1,11.4,2.3,16.1,4.1c11.1,4.1,19.7,3.9,25.8,3.4c0.5,0.1,1,1.5,0.1,1.5
		c-11.5,0.1-9.6,1.6-27.5-3.7c-6.9-2-12.5-5.2-20.5-2.4l0-1.6C61.8,205.1,63.6,204.7,65.5,204.6L65.5,204.6z M46.7,207.2
		c0.3,0,0.2,0.3,0,1c-0.3,0.8-0.5,1.1-0.8,1.1c-0.2,0-0.4-0.2-0.7-0.7c-0.5-0.8-0.4-1,0.5-1.3C46.2,207.2,46.5,207.2,46.7,207.2
		L46.7,207.2z M43.5,207.9c0,0,0.9,0.8,1.3,1.6c0.3,0.8-0.6,1-1.5,1.1l-0.8-1.1L43.5,207.9z M67,208.3c1.6,0,3.2,0.1,4.9,0.8
		l-3.8,1.3l-2.6-2C66,208.3,66.5,208.3,67,208.3z M63.1,209.1c3-0.1,5,2.1,4.9,2.2c4.2-2.4,7.9-1.9,11,2.2c0.8-0.5,6.6-1.5,10.8,3.1
		c4.2-2.1,8.2-1.2,11.7,1.1c2.6-2.5,5.3-2.8,8.1-1.7l0.8,1.7c-0.2,0.1-1.1-1.7-5.6-0.9c-1.5,0.3-4,2.8-2.6,4
		c0.7,0.9,0.7,1.4,0.1,1.9c-0.6,0.6-1.5,0.3-1.9-0.3c-0.2-0.4-0.1-1,0.2-1.4c1.6-1.9-3.3-5.3-6.9-4.7c-2.7,0.4-5,2.1-4,3.3
		c0.8,1,0.3,2-0.7,2c-1,0-1.8-0.8-0.9-1.9c1.9-2.4-1-5.3-5.5-5.3c-3.2,0-4.2,0.7-4,3c0.1,1.1-0.1,1.4-0.9,1.5
		c-1.2,0.3-1.8-1.1-0.8-2.1c2.1-2.2-0.3-5.5-4.2-5.7c-1.4-0.1-1.7,0-3.4,0.9c-1.3,0.7-1.7,1.8-1.1,2.6c0.8,1.1-0.3,2.4-1.5,1.8
		c-0.9-0.4-1.3-1.1-0.3-2.2c1.3-1.5,0.6-2.7-1.8-3.6c-1.6-0.6-2.6-0.5-3.5-0.2c-0.6,0.2-1.1,0.6-1.5,1c0.6-1.1,1.1-2,1.1-2
		C61.6,209.3,62.4,209.1,63.1,209.1z M77.1,210.3c1.7,0.5,3.4,1.1,4.9,1.9l-2.6,0.5L77.1,210.3z M62.7,211.2c0.2,0,0.3,0,0.5,0
		c0.9,0.1,1.7,0.3,2.4,1c-2.7-0.4-3.7,3.3-0.4,4.1c-4.4,3.3,3.9,8.3,4,1.4c3.9,0.7,3.4-4.5,0.9-4.9c1.3-1.4,5-1.4,6.9,1.5
		c-3.3-1.7-5.1,2.7-1.7,4c-4.2,3.7,4.1,7.2,3.9,1.1c3.1,1.9,5.3-2.9,1.1-3.6c0.2-0.9,5.7-0.9,7.1,1.4c-3.9-0.9-4.1,3.9-0.6,4.3
		c-3.4,4.4,5.3,6.6,3.8,0.6c3.4,1.3,4.7-2.9,1.4-4.2c-0.2-0.7,5.3-1.2,7.3,1.2c-4.2,0.6-2.8,4.8,0,4.4c0,0,0,0.1-0.2,0.5
		c-1.3,4.1,5.7,4.5,4.7,0.1c-0.2-0.4-0.3-0.9-0.3-0.9c1.9,0.4,3.1-0.4,3-2.2c-0.5-2.4-1.7-2.2-3.4-1.7c-0.7-0.7,3.9-3.1,6.8-1
		c-3.5,1-1.7,5.2,1.2,4.6c0.1,1.3,1.6,3.2,3.4,2.3l2,3.9l-66.8,0l5.7-9.9c3.1,0.6,3.8-2,3.8-2.4c4,1,3.4-4.2,1.4-4.5
		C60.5,211.7,61.5,211.3,62.7,211.2L62.7,211.2z M44.7,211.2c0.3,0,0.6,0,0.5,0.2l-0.6,0.7l-0.4-0.6C44,211.4,44.4,211.3,44.7,211.2
		z M58.7,213.4c0.4,0.5,0.6,1.6-0.8,1.6L58.7,213.4z M88.3,214.2l3.6,0.8l-1.9,0.9L88.3,214.2z M99.5,215.6l3.7,0l-1.6,1.3
		L99.5,215.6z M111.2,219.4c0,0,0.1,0,0.1,0.1c0.1,0.3,0.9,1.4,0.9,1.4c-0.3,0-0.7-0.3-0.9-0.6C111.2,220,111.1,219.5,111.2,219.4
		L111.2,219.4z"/>
	<path class="st3" d="M131.1,185.7c4.1,6.9,8.5,13.5,14,19.2c-5.5,5.7-9.8,12.3-14,19.2c-4.1-6.9-8.5-13.5-14-19.2
		C122.5,199.2,126.9,192.6,131.1,185.7z"/>
	<path class="st3" d="M165,194.3c1.7,2.9,3.5,5.6,5.8,8c-2.3,2.4-4.1,5.1-5.8,8c-1.7-2.9-3.5-5.6-5.8-8
		C161.5,199.9,163.3,197.2,165,194.3z"/>
	<path class="st3" d="M48.6,65.4c4.1-6.9,8.5-13.5,14-19.2c-5.5-5.7-9.8-12.3-14-19.2c-4.1,6.9-8.5,13.5-14,19.2
		C40.1,51.9,44.5,58.5,48.6,65.4z"/>
	<path class="st3" d="M14.6,56.8c1.7-2.9,3.5-5.6,5.8-8c-2.3-2.4-4.1-5.1-5.8-8c-1.7,2.9-3.5,5.6-5.8,8C11.1,51.2,12.9,54,14.6,56.8
		z"/>
	<polygon class="st3" points="164.4,215.7 161.7,215.7 165.6,225.5 168.6,221.4 168.6,215.7 166.5,215.7 166.5,212.8 173.9,212.8 
		173.9,215.7 171.4,215.7 171.4,236.7 173.9,236.7 173.9,239.2 166.4,239.2 166.4,236.6 168.4,236.6 168.5,226.4 162,236.7 
		164.3,236.7 164.3,239.2 156.3,239.2 156.3,236.7 158.4,236.7 163.8,228.3 158.5,215.7 156.2,215.7 156.2,212.8 164.3,212.8 	"/>
	<polygon class="st3" points="15.3,35.4 17.9,35.4 14,25.7 11.1,29.8 11.1,35.4 13.2,35.4 13.2,38.3 5.8,38.3 5.8,35.4 8.2,35.4 
		8.2,14.4 5.8,14.4 5.8,11.9 13.3,11.9 13.3,14.5 11.2,14.5 11.2,24.8 17.7,14.4 15.4,14.4 15.4,11.9 23.4,11.9 23.4,14.4 
		21.3,14.4 15.9,22.9 21.1,35.4 23.5,35.4 23.5,38.3 15.3,38.3 	"/>
</g>
</svg>
