<?xml version="1.0" encoding="utf-8"?>
<!-- Generator: Adobe Illustrator 21.0.0, SVG Export Plug-In . SVG Version: 6.00 Build 0)  -->
<svg version="1.1" id="Layer_1" xmlns="http://www.w3.org/2000/svg" xmlns:xlink="http://www.w3.org/1999/xlink" x="0px" y="0px"
	 viewBox="0 0 178.6 249.4" style="enable-background:new 0 0 178.6 249.4;" xml:space="preserve">
<style type="text/css">
	.st0{fill:#FFFFFF;}
	.st1{fill:#D40000;}
	.st2{fill:#E2CF00;}
	.st3{fill:#131F67;}
</style>
<g>
	<path class="st0" d="M9,0.2h161.5c4.7,0,8.5,3.8,8.5,8.5v232.4c0,4.7-3.8,8.5-8.5,8.5H9c-4.7,0-8.5-3.8-8.5-8.5V8.8
		C0.5,4.1,4.3,0.2,9,0.2z"/>
	<path d="M165.3,209.7c3.1-0.1,4.6-3.8,2.2-6.6c-0.3-0.4-0.4-0.7,0.2-0.3c1.6,1.1,4.6,0.4,4.7-3c0.2-4.1-5.3-5.3-6.4-0.9
		c-0.1,0.5-0.4,0.5-0.3-0.2c0.1-1.8,0.6-3.4,1.4-5.1c-1.2,0-2.5,0-3.7,0c0.7,1.6,1.3,3.3,1.4,5.1c0.1,0.7-0.3,0.7-0.3,0.2
		c-1-4.4-6.5-3.2-6.4,0.9c0.2,3.3,3.2,4,4.7,3c0.6-0.4,0.6-0.2,0.2,0.3C160.7,206,162.1,209.6,165.3,209.7L165.3,209.7z"/>
	<path d="M14.2,40.2c-3.1,0.1-4.6,3.8-2.2,6.6c0.3,0.4,0.4,0.7-0.2,0.3C10.2,46,7.2,46.7,7,50c-0.2,4.1,5.3,5.3,6.4,0.9
		c0.1-0.5,0.4-0.5,0.3,0.2c-0.1,1.8-0.6,3.4-1.4,5.1c1.2,0,2.5,0,3.7,0c-0.7-1.6-1.3-3.3-1.4-5.1c-0.1-0.7,0.3-0.7,0.3-0.2
		c1,4.4,6.5,3.2,6.4-0.9c-0.2-3.3-3.2-4-4.7-3c-0.6,0.4-0.6,0.2-0.2-0.3C18.8,44,17.4,40.3,14.2,40.2L14.2,40.2z"/>
	<path d="M8.4,29H6.2v-3h2.2c0,0,0-1.6,0.1-4.5c0.1-6.1,0.3-7,2.1-8.7c3.5-3.3,9.3-0.6,9.2,4.4c-0.1,7,0,13.7-0.2,14.7
		c-0.4,1.7-0.4,1.8-0.3,2.1c0.3,0.6,2.9,0.9,2.9,0.7v3c-2,0.2-2.8,0-4.5-1.2c-1,1-4.1,1.9-6.5,0.8C9.4,36.3,8,34.1,8.4,29z
		 M15.9,34.2c-1.1-1.6-2.9-3.7-4.7-4.5c-0.1,1.8,0,3.3,0.7,4.2C12.9,35.2,14.6,35.5,15.9,34.2z M16.8,16.9c-0.8-2.3-2.9-3.1-4.4-1.6
		c-1,0.9-1.1,1.8-1.1,7c0,3.2,0,4.5,0,4.5c3,1,5.7,4.4,5.7,4.4l0.1-9.5C17.1,19.9,17,18.4,16.8,16.9L16.8,16.9z"/>
	<path d="M171.1,221h2.2v3h-2.2c0,0,0,1.6-0.1,4.5c-0.1,6.1-0.3,7-2.1,8.7c-3.5,3.3-9.3,0.6-9.2-4.4c0.1-7,0-13.7,0.2-14.7
		c0.4-1.7,0.4-1.8,0.3-2.1c-0.3-0.6-2.9-0.9-2.9-0.7v-3c2-0.2,2.8,0,4.5,1.2c1-1,4.1-1.9,6.5-0.8C170.1,213.6,171.5,215.9,171.1,221
		z M163.6,215.7c1.1,1.6,2.9,3.7,4.7,4.5c0.1-1.8,0-3.3-0.7-4.2C166.6,214.7,164.9,214.4,163.6,215.7z M162.7,233.1
		c0.8,2.3,2.9,3.1,4.4,1.6c1-0.9,1.1-1.8,1.1-7c0-3.2,0-4.5,0-4.5c-3-1-5.7-4.4-5.7-4.4l-0.1,9.5C162.4,230,162.5,231.6,162.7,233.1
		z"/>
	<path class="st1" d="M96,229c0.4-6.5,0.1-13.5,0.4-18.9c-0.2-0.4,0.5-1.4,0.6-1.4c-0.4-0.8-0.6-2.8,0-4.6c4.3-16.3,12-29,19.9-40.8
		c6.5,19.5-13.8,33.2-18.1,50.3c-1.4,5.9-1.2,10-1.8,15.4L96,229z M62.3,229.3l-24.2-37.4l5.2-2.6l24.8,39.8L62.3,229.3z
		 M93.5,159.9c0.2,1.1,1.1,1.7,2,1.2c0.9-0.5,1-0.5,0.4,0.3c-1.2,1.9,1.2,3.7,2.8,2.1c0.6-0.6,0.6-1.5,0.1-2
		c-0.6-0.5-0.7-0.8,0.1-0.4c2.1,0.9,3.3-2.2,1.2-3.2c-0.5-0.3-1.6,0-1.9,0.4c-0.5,0.5-0.5,0.3-0.4-0.1c0.1-0.2,0.1-0.6,0.3-1
		c0.1-0.3,0.2-0.8,0.2-0.8l-2.2,0c0,0,0.2,0.5,0.4,0.9c0.2,0.4,0.2,0.7,0.3,0.8c0.3,0.6-0.1,0.4-0.6-0.1c-0.8-0.6-1.9-0.4-2.4,0.4
		C93.6,159,93.4,159.4,93.5,159.9z M96.6,129.5l4.6-0.1c1.3,4.9,2.9,9.7,5.1,14.1c-4.1,6.8-5.2,14.5-0.4,22.3l-14.7,0
		C95.2,154,96.5,141.4,96.6,129.5z M101.5,147.9c0.6-0.6,0.7-1.6,0.1-2.2c-0.7-0.8-0.5-0.9,0.4-0.3c1.4,0.8,2.7-0.9,1.9-2.5
		c-0.5-1-2.2-1.2-2.8-0.3c-0.5,0.7-0.5,0.1-0.1-0.9c0.2-0.4,0.4-1,0.4-1l-2.2,0c0,0,0.3,0.6,0.4,1c0.4,1.1,0.4,1.4-0.2,0.7
		c-1.4-1.2-3-0.3-3,1.3c0,1.3,1.2,2.1,2.2,1.5c0.6-0.4,0.9-0.5,0.2,0.4c-0.5,0.8-0.3,1.8,0.3,2.3
		C99.9,148.5,100.9,148.4,101.5,147.9z M70.4,152.3c0.2-0.1,0.2,0,0.1,0.1c-0.1,0.2-0.3,0.4-0.5,0.6c-1,1.2,0.3,2.7,2,2.4
		c1.2-0.2,1.8-2,1-2.7c-0.3-0.2-0.5-0.2-0.7-0.5c0-0.1,0-0.2,0.1-0.1c0.2,0.1,0.5,0.3,0.6,0.4c1.1,0.3,1.9-0.2,2.2-0.9
		c0.2-0.9,0-1.8-0.7-2.3c-0.7-0.4-1.6-0.3-2.2,0.4c-0.6,0.8-0.7,0-0.2-1c0.2-0.4,0.3-1,0.3-1l-2.1,0.1c0,0,0.1,0.4,0.3,1
		c0.5,1.2,0.8,1.5,0.2,0.9c-2.5-1.5-3.4,0.5-3.4,1.3C67.3,152.6,69.5,153.4,70.4,152.3z M80.5,129.4l3.7,0
		c-2.8,15-8.6,27.6-18.3,36.2l-18.3-0.1l-8.8-6.2l3.4-4.4C65.5,157.4,75.3,145.8,80.5,129.4z M63.7,164.2c1.1-0.5,1.5-1.7,0.8-2.6
		c-0.7-0.8-0.7-1,0.3-0.4c1.3,0.8,2.6-0.8,2-2.3c-0.4-1-1.7-1.2-2.6-0.6c-0.8,0.6-0.8,0.3-0.4-0.6c0.2-0.5,0.4-1.2,0.4-1.2l-2.3,0
		c0,0,0.2,0.5,0.3,0.9c0.4,0.9,0.5,1.3,0.3,1.3c-0.1,0-0.4-0.3-0.5-0.4c-0.5-0.4-1.7-0.5-2.2-0.1c-1.4,1.3-0.6,3.6,1.1,3.2
		c1.1-0.3,1.4-0.7,0.5,0.4C60.3,163,62.1,164.9,63.7,164.2z M49.3,163.7c0.9-0.4,1.3-1.5,0.7-2.2c-0.5-0.7-0.8-1.2,0.2-0.5
		c1.3,0.6,2.4-0.2,2.3-1.6c0-1.5-1.7-2.2-2.9-1.3c-0.2,0.2-0.5,0.3-0.5,0.3c-0.2,0,0.1-0.8,0.4-1.3c0.1-0.2,0.4-0.7,0.4-0.7
		l-2.3-0.1c0,0,0.1,0.6,0.3,1.1c0.4,1,0.5,1.3-0.2,0.7c-1.7-1.6-3.6,0.4-2.8,2.2c0.4,1,1.6,1,2.3,0.5c0.6-0.5,0.3,0.2-0.1,0.7
		C45.8,162.8,47.5,164.5,49.3,163.7z M153.8,126.1l0.1,2.8l-29.6,24.7l-1.2-1.9L153.8,126.1z M43.8,131.3c4.3-3,9-8.5,13.7-11.3
		C60.9,127.8,52.9,135.5,43.8,131.3z M121.5,129.8c-3-16.6,14.8-13.2,13.9-11.7L121.5,129.8z M25.8,119.7l29.3-23.9l1.3,2
		l-30.9,25.4L25.8,119.7z M106,95.5c0.1,0.2,1,1.2,1,1.3c-0.3-0.2-1.8-1-2.5-0.2c-0.3,0.3-0.6,1-0.5,1.8c0.3,1.3,1.8,1.8,2.9,0.9
		c0.3-0.3,0.6-0.6,0.6-0.5c0.1,0.1-0.1,0.6-0.3,0.9c-0.2,0.4-0.7,1.2-0.3,1.2l2.1,0c0,0-0.1-0.5-0.3-1c-0.5-1-0.4-1.6,0.1-0.8
		c1.1,1.4,3.2,0.2,3-1.5c-0.2-1.2-1.4-1.9-2.3-1.3c-0.1,0.1-0.4,0.4-0.4,0.4c-0.1,0,0.2-0.5,0.4-0.9c0.7-1.3-0.3-2.5-1.9-2.4
		c-0.5,0-1,0.4-1,0.4C105.9,94.2,105.8,95,106,95.5z M131.3,83.5c2.9,2.7,5.9,4.7,8.8,6.4l-2.8,4.4c-18.7-1.7-32.3,5.7-38,25.8
		l-2.9-0.1c1.2-12.6,5.2-24.3,17.6-36.5L131.3,83.5z M113.3,86.5c0,0.6,1.1,1.3,0.9,1.5c-0.1,0.1-0.8-0.5-1.1-0.5
		c-2.2-0.2-2.6,3.1-0.5,3.5c0.4,0.1,1.3-0.2,1.5-0.4c0.3-0.3,0.6-0.5,0.7-0.5c0.1,0-0.2,0.6-0.4,1.1c-0.2,0.4-0.5,1.3-0.5,1.3l2.5,0
		c0,0-0.2-0.8-0.4-1.3c-0.3-0.7-0.3-1.1-0.2-1.1c0.1,0,0.2,0.2,0.3,0.4c1.1,0.9,2.6,0.5,3-0.9c0.4-1.3-1.2-2.7-2.3-2
		c-0.4,0.3-0.4,0.1,0-0.5c0.4-0.5,0.3-1.4-0.1-1.8C115.6,84,113.2,84.9,113.3,86.5z M131,90.5c-0.1-0.3,0-0.2,0.3,0.1
		c1,1,2.7,0.9,3.1-0.5c0.4-1.4-0.9-2.9-2-2.4c-0.6,0.3-0.6,0.2-0.3-0.3c0.9-1.1-0.1-2.7-1.6-2.6c-1.4,0-2.2,1.3-1.5,2.5
		c0.3,0.5,0.2,0.6-0.3,0.3c-1.4-0.7-2.7,1.6-1.7,2.9c0.6,0.8,2,0.9,2.8,0.1c0.4-0.4,0.4-0.2,0.1,0.6c-0.3,0.7-0.6,1.3-0.6,1.3l2.4,0
		C131.8,92.6,131.1,91.4,131,90.5z M78.6,120.6c0.7-0.2-2.5-10.4-4.9-15c2.6-6.1,6.1-11.2,0.2-22l15,0c-4.4,12.2-5.8,37-5.8,37
		L78.6,120.6z M79.9,108.8c0,0-0.7-1-0.8-1.9c-0.1-0.5,0-0.6,0.3,0c1.3,1.5,3.2,0.1,3.2-1.3c0.2-1.2-1.2-2.2-2.1-1.6
		c-0.6,0.4-0.8,0.3-0.2-0.5c0.8-1.1-0.1-2.5-1.5-2.5c-1.8,0-2.6,1.7-1.2,3c1,0.9,0.1,0.4-0.7,0c-1.5-0.6-2.5,0.9-1.8,2.5
		c0.5,1.1,1.8,1.4,2.6,0.5c0.4-0.5,0.8-0.8,0.6,0c-0.1,0.6-0.8,1.8-0.8,1.8L79.9,108.8z M82.3,92.6c0,0-0.9-1.1-1-2
		c-0.1-0.3,0.2-0.2,0.7,0.2c1.6,1.4,3.8-1.1,2.3-2.6c-0.5-0.5-1-0.7-1.6-0.4c-0.8,0.4-0.7,0.2-0.3-0.2c0.6-0.6,0.5-1.7-0.1-2.2
		c-1.6-1.5-4.2,0.7-2.7,2.3c0.7,0.7,0.4,0.6-0.4,0.2c-1.4-0.8-2.9,1.4-1.9,2.8c1.2,1,2.2,0.5,3-0.1c0.2-0.1,0.3-0.1,0.3-0.1
		c0,0.2-0.9,2.2-0.9,2.2L82.3,92.6z M62.5,86.4C58.1,72.2,69.4,58.6,76.3,48c7.3-10.5,6.4-27.9,6.7-27.2l1,0.1
		c0,0-0.8,10.2-0.3,14.8c0.5,4,0.4,4.3,0.1,4.7c-0.1,0.4,0,1.5,0,1.9C81.7,51.1,74.1,72.3,62.5,86.4z M137.4,60.1l-24.6-39.1
		l5.9-0.3c2.2,3.5,23.6,36.7,23.6,36.7L137.4,60.1z"/>
	<path class="st2" d="M36.2,229.9c2.8-10.3-4.8-34.2-9.5-37.3c5.6-0.2,12.2-0.3,12-0.7c0,0,23.6,37.2,23.4,37.4
		C61.9,229.6,36.2,229.9,36.2,229.9z M131.9,171.6c-5.7-0.8-3.5-5.6,0.2-6.1c-0.5,0.1,0.4-2.4,3.4-3.4c0.7-1.2,1.2-3.3,1.8-4.3
		c-1.8,0.6-3.9,2.1-12,0.9c0.7-3.8,8.4-4.5,11.2-3.9c1.6,0.4,3.2,2.8,3.7,2.8c5-0.8,11.3,3.7,9.4,8.2c-0.3,0.7-1.1-0.8-2.7-1.4
		c-5.4-2-5.8-4.9-7-6.2c-0.5-0.1-2.8,4.7-2.8,4.7l0.7,3.2c1.3-0.1,7,3.4-0.1,5.9C135.6,179,131.9,174.1,131.9,171.6z M145.5,141
		c-0.3-0.3,0.2-2.4,1-3.7c0.4-0.7,1.3-1.1,1.8-1c0.9,0.2,0.8,1.5-0.5,5.6C147.7,142.5,146.5,142.6,145.5,141z M31.5,112.7
		c-1.6,0-0.2-4.3,0.8-5.6c0.3-0.4,1.6,0.5,1.6,1.1C34,109.3,32.3,113.2,31.5,112.7z M30.4,83.6c1.9,0.5,4.9,2.4,6.4,3.5
		c1.8,1.3,1.3,4,2.7,4.2c1-0.5,2.8-4.8,2.8-4.8s0.4-2.2-0.8-2.9c-3.2-1.7-3.1-3.5-2.9-3.7c0.9-2.4,2.8-2,3.8-2.1
		c0-1.3,0-4.1,2.7-3.8c2.4,0.2,2.6,3.7,1.6,3.7c0-0.1,4.5-0.7,4.5,2.4c0,1.6-2.7,3.7-3.6,3c0,0,0.5,3.3-3.6,4.4
		c-1,1-1.7,5.1-1.7,4.8c2.5-2.2,6.3-2.8,12.4-2c-3.8,7-14.2,3.7-15,2.4C34.4,90.9,29.5,88.8,30.4,83.6z M75.3,66.8l16.6-0.2
		c-0.1,0.6,5.2,3,9.8,0.4c0.9-0.5,18.6-0.2,18.6-0.2c4,5.9,11.3,16.7,11.3,16.7l-16.7,0.4c-14.2,11.5-16,24.4-19.4,37.1l6.2,0.1
		c9.9-28.5,34.4-28.4,49.8-16.2l-15.8,12.9c-12.3-6.2-17.5,12.1-13.8,12.1l31.9-26.1l0.5,2.2c-2.3,3-40.3,33.9-40.3,33.9l-1.7-1.8
		l-2.2,1.8c0,0,0.9,1.6,1.6,2.4c-7.5,6.1-7.8,17.2-2.2,23.2l-2.7,0.2c-1,1.3-7.9-13-0.2-22.1c-3.1-6.2-5.1-14.5-5.4-14.9
		c0.1,1-4.9,0.7-4.9,0.7c-0.4,12.5-1.7,24.8-4.7,36.6l23.1,0.5l-9.8,17.1c0,0-11-0.3-15.8-0.6c-5-2.9-7.8-0.7-12.5,0.4
		c-6.6,0.2-16.4-0.1-16.4,0c-3.3-6.6-6.9-11.4-11.7-17.1c-0.6-1,19.6-0.4,19.6-0.4s10.1-15.3,11.9-19.6c1.4-3.4,4.7-15.7,4.7-15.7
		c0.1,0.6-1.8-3.2-6.5-3.1c-3.8,25.5-34,34-52.2,17.7l-0.2-3l40-32.5l1.8,2.1c-0.4-0.3-24.6,19.9-24.2,19.7
		c7.2,3.8,15.5,0.7,14.5-11.6c5.7-4.1,10.7-8.9,15.6-13.8c0.1-0.2,5.5,12.2,5.4,14.5c3.1-1,5,1.1,4.9,0.8
		c-1.1-7.1,5.1-34.3,5.2-37.4c-3.5-0.3-8.1-0.2-15.3-0.4c5.8,11.2,3.8,18.9-4.3,25.8l-1.7-2.1c0.7,0.4,11.8-9.3,2.9-23.7
		c-0.4,0-4.7-0.4-4.7-0.4L75.3,66.8z M118.3,20.3c0,0,25.3-0.6,25.3,0.1c-0.8,13.6,2.4,26,10,37.5c0,0-11.2-0.4-11-0.3L118.3,20.3z"
		/>
	<path class="st3" d="M24.1,19.4v211.2h131.2V19.4H24.1z M143,20.3c0,0-1.7,22.4,9.9,37c-7.1-1.1-11.2,0-15.3,2.9l0.6,0.6
		c5.7-3.5,10.5-2.6,15.5-2v28.8c0,1.4-5.9,0.8-9.6-2c-2.4-1.6-4.1-3.6-5.7-5.9c-0.3-0.4-2.4-4.3-6.2-11.6c-1.9-3.7-4.5-8.8-6.6-12.8
		c-1.3-2.6-3.8-7.4-4-7.8c-0.4-0.8-3.1-6.1-4.1-8.1c-2.8-5.1-7.3-14-8.9-17.2c-0.4-0.8-0.9-1.3,0.1-1.3c0.2,0,0.4,0,0.6,0
		c0.2,0.1,0.4-0.2,0.4-0.2L143,20.3z M82.9,20.8l1.2,0.1c0,2.4-0.4,4.2-0.5,7.3c-0.1,3.4-0.1,6,0.3,9.3c0.2,1.6,0.3,2.7,0,2.9
		c-0.1,0.1-0.2,0.7-0.1,0.9c0,0.5-0.1,1.4-0.1,1.4C81.9,51.7,72,74.8,63,86c-0.2,0.1-0.3,0.1-0.5,0.2c-1-4.4-0.4-10.2,0.7-14.6
		c1.7-6.1,4.8-11,8.3-15.9C79.5,44.4,83.1,35.9,82.9,20.8L82.9,20.8z M26,21h56.2c0.3,7.7-0.6,14.3-3.4,21.2
		c-3.3,7.4-8.4,12.9-12.3,19.8c-4.7,8.2-6.2,16.8-4.6,25.4c-4.8,6.3-8.9,9.3-12.7,12.3c0,0-2.9-3-4.5-4.7c0,0,0.7-0.1,1.5-0.1
		c3.7-0.4,7.6-0.9,9.1-4.7c0.2-0.4,0.1-0.6-0.1-0.7c-2.9,0.4-5.3,0-7,0.1c-4,0.3-5.6,1.7-5.6,1.7c0.6-1.3,1.2-2.7,1.6-3.9
		c1.8,0,2.7-0.7,3.3-1.5c0.9,0,1.6,0,2.9-0.1c0-1.2,0-3,0-3c1.3-1.3,2.1-2.8,0.2-5.1c0,0-0.1-1.1-0.1-2.9c-0.9-0.1-2.9-0.1-2.9-0.1
		c-1.6-2.3-4.5-1.7-5.4,0c0,0-1.3,0.1-2.2,0.1c0,0.5-0.2,2.6-0.2,2.6S35.9,80,39.9,83l-0.1,2.6c0.7,0.1,1.3,0,2.2,0.2
		c0,0-1.5,3.5-2.5,5.2c-0.3,0.1-0.3-0.1-0.7-1.3c-0.5-1.4-1.6-2.9-2.6-3.6c-1.3-1-3-1.3-4.3-2.2c-1.2-0.8-2-1.9-2.4-1.7
		c-0.1,0.4-0.3,2.8,0.2,4.4c0.6,2.5,4.3,4.2,7.3,5.4c0.2,0.2,0.4,0.4,0.4,0.5c0,0.4-0.4,0.3-1.4,0.2c-1.5-0.2-2.1,0.3-2.7,1.6
		c-0.2,0.3-0.5,0.9-0.8,1.2c-0.3,0.4-0.6,0.7-0.7,0.9c0,0.2-0.4,0.9-0.7,1.6c-0.2,0.4-0.5,0.8-0.5,1.4c-0.1,1.8-0.1,4.3,0.2,5.8
		c0.2,1.1,1.6,1.8,2.1,1.9c0.8,0.1,0.9,0.9,0.8,1.5c-0.6,3.1-2.4,5-2.9,4c-0.1-0.3-0.3-1.5-0.4-1.5c0,0-0.3,1.1-0.2,1.5
		c0.1,0.5,0.7,0.8,1.3,0.6c0.9-0.3,1.6-1.2,2.1-3.1c0.2-0.8,0.4-1.2,0.8-1.3c0.7,0,1.8,1.5,1.8,1.5c-3.6,3-10.4,8.4-10.4,8.4L26,21z
		 M144.3,21h9.4v35.6C146.8,46.8,143.2,35.6,144.3,21z M100.1,21c0.2,0,0.4,0,0.7,0c1.5,2.8,5.1,5.5,5.1,5.5c0,0,0.1,1.2,0,1.4
		c-0.1,0.4-5.7-4.3-6.3-6.9C99.6,21,99.8,21,100.1,21z M85,21c0.4,0,1,0,1.2,0c0.2,0.4-0.7,2.8-1.3,3.2c-0.6,0.4-0.6-0.1-0.2-2.2
		C84.8,21.7,84.8,21.1,85,21z M87.6,21c0.5,0,0.6,0,1.1,0c0.2,0.6-1.1,3.4-2.8,5.6c-0.9,1.1-1.3,1.4-1.6,1.2c-0.2-0.5-0.2-1.1,0.6-2
		c0.7-0.8,1.8-2.6,2.2-3.6C87.3,21.8,87.4,21.2,87.6,21z M89.9,21c0.4,0,0.7,0,1,0c0.4,1.5-3.1,7.8-5.6,9.5c-0.9,0.6-1,0.4-0.9-0.6
		c0-0.7,0.1-0.6,1-1.5c1.3-1.3,2.8-3.2,3.6-5C89.8,21.7,89.8,21.1,89.9,21z M101.8,21c0.5,0,0.9,0,1.3,0c0.7,0.7,1.8,1.7,2.1,2.5
		c0.2,0.5,0.3,1.1,0.2,1.3C104.7,25.2,101.7,21.4,101.8,21z M106.7,21h0.2c1.3,1.5,2.1,3.9,3.1,5.8c0.1,0.2,1.1,1.8,0.3,1.2
		c-0.3-0.3-0.9-0.9-1.9-2c-2.2-2.5-2.3-2.4-2.3-3c0-0.7-0.4-1.7,0.2-1.9C106.5,21,106.6,21,106.7,21z M91.9,21c0.4,0,0.9,0,1.3,0
		c0.1,0.2,0,0.9-0.1,1.3c-1.1,3.3-4,8-7.4,10.6c-1.3,1-1.5,1-1.6,0c-0.1-0.6,0.2-0.8,0.8-1.2c2.8-2,5.4-5.4,6.5-8.9
		C91.6,22.1,91.5,21.2,91.9,21z M94.9,21c0.3,0,0.8,0,1,0c1.3,2.4,4.1,8.2,10.5,10.4c0.5,0.1,1,1.4,0.6,1.8
		C103.4,32.2,97.1,28.5,94.9,21z M97.2,21h1.1c1.6,3.3,4.7,6.5,7.8,8.1c0.5,0.3,0.2,0.9,0.4,1.4C103,30,98.4,24.7,97.2,21z
		 M94.2,21.5c-0.2,0,3,9.6,12.3,12.4c0.8,0.3,1.3,0.6,1.2,1.1c-0.1,0.6,0,0.7-0.9,0.2c-2.5-1.3-6.1-1.9-9.1-0.4
		c-0.5,0.2-0.9,0.9-0.6,1.3c0.2,0.2,0.7,0.1,1.4-0.2c3.5-1.4,8.9-0.6,9.8,1.6c0.7,1.5,0.8,2.6,0.4,2.8c-0.3,0.1-0.8-0.4-1.6-1.1
		c-2.7-2.3-5.9-3-8.4-0.7c-0.5,0.5-1.1,0.4-1.3,0.6c-0.2,0.2,0,0.6,0.2,1.1c0.2,0.4,0.2,0.6,0,0.9c-0.2,0.5-0.2,1.2-0.2,1.7
		c0.1,1.2,0.9,2.2,3.1,3.8c1.3,0.9,2.2,1.1,2.2,1.1s-0.5-0.4-1.2-0.9c-3.7-3-4.4-4.3-2-3.2c2.4,1,5.8,0,8.1-1.8
		c0.8,0,1.3-0.2,1.7,0.2c1.8,4.2,3.2,9.7,5.6,15.1c-2.8,3.2-12.6,11-19.5,10.7c-6-0.2-8.1-10.1-9.5-15.6c-0.4-2.3-1-4.7-0.9-7.9
		c0,0,0.1-0.1,0.3-0.1c1,0.2,2.7,0.3,3.6,0.1c1.6-0.4,1.9-0.7,2-0.4c0.1,0.3-0.6,0.9-1.7,1.7c-0.5,0.3-2,1.2-2,1.2
		c1.4-0.5,2.6-0.9,3.7-1.7c0,0-0.5,2.4-0.6,2.6c-1,2.4-0.9,2.6,1,4c0.6,0.5,1.2,1,1.4,1.2c0.2,0.4,0.4,0.7,0.6,1
		c0,0-0.1-0.7-0.2-1.6c-0.2-0.8-1-1.6-1.5-2c-1-0.7-0.9-1.4,0-3.8c2.5-7.1,1.8-10.3-0.9-11.8c-1.2-0.7-4.7-0.5-5.7,0.4
		c-0.5,0.4-0.5-0.4-0.4-0.5C91,30.1,92.5,25.7,94.2,21.5L94.2,21.5z M106.8,25.2c1.9,1.8,4.2,4.3,5.5,6.1c0.8,0.9,1.2,1.9,1.8,2.9
		c0.1,0.2,0.2,0.4,0.1,0.5c0,0-0.3-0.1-0.4-0.2c-1.4-1-7-7.4-7-7.4C106.6,26,106.4,25.6,106.8,25.2z M107.5,29.3
		c0.1,0,0.3,0.2,0.4,0.2c0,0,4.9,5.3,7.6,7.9c0.5,1.2,1.6,2.8,1.6,3.1c0,0.1-0.6-0.3-0.6-0.3c-3.1-2.8-5.9-6-8.9-9.1
		c0,0-0.2-1.3-0.2-1.8L107.5,29.3z M108.4,33.3c0.5,0.2,0.9,0.8,1.2,1.2c1.7,1.8,5,5,8.7,8.7c0.7,1.1,1.1,2,1.4,2.6
		c0.5,1,0.3,1-0.1,0.7c-3.5-2.9-6.4-6.3-9.7-9.5c-0.4-0.4-1.3-1.4-1.3-1.4C108.8,35.6,107.7,33.2,108.4,33.3z M88.1,35.6
		c1.4,0,2.8,0.3,3.6,1.2c0.6,0.8,0.9,2.1,0.6,2.4c-0.2,0.2-1-0.4-1-0.4c-3.4-1.9-4.5-1-6.4-0.4c-0.3,0.1-0.5-0.6-0.2-1.3
		C85.3,35.9,87,35.6,88.1,35.6z M109.3,37.4c3.6,3.6,7.3,7.7,11.2,10.8c0.5,0.5,0.9,0.8,1.2,1c0.5,1,1.7,3.5,1.7,3.5
		c-4.2-2.9-13.6-13.1-13.5-13C110,39.7,109.1,37.8,109.3,37.4z M102.3,38c0.7,0,1.4,0.2,2,0.4c1.8,0.7,3,1.5,1.1,1.2
		c-2.6-0.4-3.5-0.4-4.5-0.2c-1.8,0.3-1.9,0.5-2.1,0.2C98.3,38.9,100.3,38,102.3,38z M87.4,38.2c0.7,0,1.4,0.1,2.1,0.4
		c2.2,1,2.6,1.6,0.7,1.3c-1-0.2-2.8-0.1-4.1,0.2c-0.4,0.1-0.9,0.3-1,0.4c-0.5,0.1-0.6-0.2-0.4-0.8C85.1,38.7,86.1,38.2,87.4,38.2z
		 M103.5,41l0.5,0c-0.6,3.3-3.8,2.9-4.7,0.1l0.5,0C101.4,43.9,102.7,42.3,103.5,41z M105.3,41.2c1.5,0,1.4,0.9-0.2,1.5
		c-1.2,0.5-1.3,0.4-0.9-0.5C104.7,41.3,104.6,41.2,105.3,41.2z M89.4,41.3h0.4c0.1,2.9-3.9,3.5-4.2,0.3l0.4,0
		C87.4,44.1,88.9,42.5,89.4,41.3z M91.4,41.6c0.1,0,0.2,0.1,0.3,0.1c0.5,0.3,0.2,0.8-0.8,1.4c-0.9,0.6-1.1-0.1-0.4-1.1
		C90.8,41.7,91.1,41.5,91.4,41.6z M98.7,41.7c0.2-0.1,0.6,0.7,0.2,0.9c-0.2,0.1-0.5-0.2-0.6-0.5C98.4,42,98.5,41.8,98.7,41.7z
		 M110.9,41.9c2.7,3,5.5,6,13.5,12.6c0,0,1.1,2,1.4,2.8c-0.2,0.2-0.3,0.2-0.9-0.1c-5.2-4-10.1-9-13.9-13.5
		C110.9,43,110.5,42.4,110.9,41.9z M85,42.2l0.1,0.1c0.3,0.1,0.5,0.7,0.3,1.1c-0.2,0.2-0.5-0.1-0.6-0.3c-0.1-0.2-0.1-0.5,0-0.7
		C84.9,42.2,85,42.2,85,42.2L85,42.2z M84.3,42.7c1.2,10,3,24.9,11.5,25.5c2.8,0.2,6-1.7,6.6-1.4l17.8-0.1
		c3.6,7.4,7.6,12.2,12.2,17.2c6.4,3.9,15.5,6.4,21.1,4.9c-3.5,2.8-7.6,2-12,0.8c-0.2-0.1-0.5-0.1-0.8-0.2l-3.4,5.1
		c-7.5-1.8-31.6-0.5-37.9,25.7c0,0,0.7,0.3,0.5,0.2c5-22.8,26.3-27.3,36.5-25.1l-0.9,1.3c-16.8-2.1-30.6,8.5-33.8,23.5l0.3,0.3
		c6.3-22.6,32.9-31,49.4-15.3l3-2.1l-0.1,2.9l-40.5,34l-1.6-1.7c-0.7,0.5-1.3,1.1-2,1.7c0,0,1.6,1.9,1.7,2
		c-6.7,5.5-8.9,16.1-2.5,23.5c0.7,0.8,0.6,1,0.5,0.1c-5.7-6.2-5-17.3,2.1-22.5l1.4,1.9c-3.1,6.9-4.7,17.7,3.4,18.6
		c3,8-0.4,17.4-4.2,23.7c-4,7.3-8.9,13.3-12,21.3c-1.5,3.3-3.8,13.1-3.7,20.6l-0.9,0l0.4-19.4l0.5-0.8c-0.5-1-0.5-2-0.2-3
		c-1.8-6.2-1.9-17.5-7.7-22.6c-2.8-2.4-6.6-2.5-11.4-0.5c-10.7,0-9.1,0.6-17.7,0.1c-3.6-6.6-7.9-12.9-12.6-17.7
		c-2.2-2.4-5.2-3.8-8.1-5.5c1.1-2.2,2.5-3.8,3.9-4.8c0.3-0.4,0.5-0.9,0.9-1.2c29.1,2.8,35.4-25.4,34.1-24.7l-0.3,0.2
		c-8,29.1-36.4,28-50.6,15.4c-1.6,1.6-2-0.2-2.1-1.7L66,109.3l1.8,1.8l1.8-1.6l-1.5-2.6c10.7-11.1,5.9-16,2.4-23.6
		C70.7,82.8,66,83,66,83c2.9-4.3,5.3-8.8,7.8-13.2C77.5,63,82.7,51.2,84.3,42.7L84.3,42.7z M112.1,46.3c0-0.1,12.7,12.8,14.3,12.5
		c0.8,0.4,2.6,4.1,2.6,4.1c0.1,0.1,0,0.3-0.3,0.2c-2.1-1.1-11.1-8.5-15.7-14.1C112.7,48.3,112.3,47.3,112.1,46.3z M97.3,47.5
		c-0.9,0.1-0.7,0.5-0.3,0.7c2.2,1.1,1.3,3.3-1.1,1.9c-1.8-1.1-3.3-1.2-3.3-0.3c0,0.4,0.5,0.9,1,0.9c0.9,0.1,1.7,0.4,2.6,0.6
		c1.4,0.3,2.4-0.1,2.8-0.9C99.6,49,98.2,47.4,97.3,47.5z M114.2,51.7c0.1,0,0.2,0.1,0.3,0.1c-0.2-0.1,6.3,7,15.1,12.8
		c0.3,0.4,1.2,2.4,1.3,2.7c0,0.2-0.2,0-0.2,0c-4.4-2.6-10.3-7.7-15.9-13.5C114.8,53.8,114.3,52.5,114.2,51.7L114.2,51.7L114.2,51.7z
		 M99.8,54.3c-0.2,0-0.5,0.3-0.8,0.5c-0.7,0.4-0.9,0.5-2.6,0c-0.9-0.3-1-0.3-1.6,0.1c-0.5,0.3-0.7,0.4-1.3,0.2
		c-0.9-0.4-1.4-0.1-2.3,0.2c-0.8,0.3-1.1-0.1-1.9-0.2c-0.1,0-0.1,3,0,3.1c0,0,0.8-0.5,1.2-0.7c0.7-0.4,0.6-0.3,1.7-0.3
		c1.6,0.3,3.1,0.2,4.2-0.2c1.3-0.4,2.3-0.3,3.2,0.4c0.5,0.5,1.3,0.4,0.9-0.5c-0.1-0.3-0.5-1.3-0.4-1.7
		C100.2,54.7,100.1,54.3,99.8,54.3L99.8,54.3z M116.1,56.5c0.1,0,0.3,0.1,0.4,0.2c3,2.9,6.6,7.2,15.3,12.3c0.4,0.8,1.1,1.8,1.4,2.7
		c0,0.2,0,0.4-0.2,0.3c-5.3-3.4-8.3-5-15.7-12.3c-0.5-0.7-0.9-2-1.3-3L116.1,56.5z M115.3,57.8l3.3,6.2l-11.1,0
		C110.4,62.3,113,60,115.3,57.8z M97.2,57.8c-0.1,0-0.1,0-0.2,0.1c-1.8,0.7-2.1,0.9-3.9,0.4c-1.1-0.3-0.8,0.4-0.2,0.6
		c1.4,0.6,3.3,0.2,4.1-0.3C97.3,58.4,97.6,57.8,97.2,57.8z M95.1,59.8c-1.9,0-3.7,0.7-3.8,1.5c0,0.1,0.1,0.3,0.4,0.1
		c1.3-0.8,4.5-1,6.9-0.2c0.4,0.1,0.5-0.1,0.1-0.4C97.7,60.1,96.4,59.8,95.1,59.8z M119,62.3l0.3,0.2c3.6,3.3,7.1,6.4,14.8,10.8
		c0.6,1.2,1.4,2.7,1.5,2.8c-7.3-3.5-15.2-10.5-15.2-10.5s-1.2-2.2-1.5-3.2L119,62.3L119,62.3z M121.8,67.7c0,0,6.6,5.6,14.2,9.4
		c0.3,0.3,1.1,2.1,1.3,2.3c0.2,0.2-0.3,0.2-0.8-0.1c-3.9-1.8-12.4-7.7-12.4-7.7C123.2,70.3,122,68.9,121.8,67.7z M125.1,73.5
		c1.2,0.9,11,7.1,12.8,7.2c0,0,0.9,1,1.6,1.9c0.7,0.8,0.9,1,1,1.1c0.1,0.2-0.3,0.2-0.3,0.2c-4.4-1.9-8.9-4-12.7-7.2
		c-0.5-0.4-0.6-0.6-0.9-1C126.2,75.2,125.2,73.6,125.1,73.5z M44.8,73.6c1.4,0.1,2.8,1.5,2.8,3.6c6.2,0.5,3.2,6.2-0.3,5.4
		c1.4,3.2-2.8,4.5-3.4,3.9c-0.2,1-1.9,4.4-2.2,5.4c4.6-3.2,11.9-1.8,13-2c-2.7,5.6-11.3,4.2-11.6,4c0,0-4.6-2.2-4.9-2.2
		c-5.9-1.9-7.7-3-8.1-8.6c0-0.2,0.1-0.2,0.3,0c0.5,0.4,2.5,1.7,3.3,2c3.4,1.6,4.4,3.3,5.4,6c0.2,0.3,0.4,0.2,0.7,0
		c1.3-1.7,1.9-3.1,2.5-4.9c0.1-0.2,0.2-0.4,0.1-0.7c-0.2-0.8-0.8-1.8-0.2-2.6c-1.9,0.1-3.7-1.3-3.5-2.7c0.5-2.6,1.6-2.1,3.7-2.5
		C42.1,74.6,43.5,73.5,44.8,73.6L44.8,73.6z M128.4,78.4c4.5,2.5,8.3,5,12.4,6.3c0.6,0.2,0.9,0.2,1.2,0.4s1.5,1,1.8,1.2
		c1.9,1.1,2.1,1,1.6,1.2c-0.5,0.2-3.8-0.8-6.6-1.8c-4.9-1.8-6.7-2.9-8.4-4.5C130,80.9,128.1,78.7,128.4,78.4z M66.9,83.6l3.1,0.1
		c4.8,5.8,6.1,16.2-2.3,22.7c-1.1-1.3-2.2-2.7-3.2-4.1c6.8-5.6,4.7-11.3-0.2-16.9L66.9,83.6z M38.8,92.6c0.4,0,1,0.2,1.6,0.7
		c0.7,0.5,2.3,1.6,3,1.9c0.4,0.2,0.5,0.2,0.5,0.2l4.4,5l-11.4,9.3c0,0-0.9-0.9-1.2-1.3c-0.3-0.3-0.2-0.5,0.1-0.9
		c0.3-0.3,0.3-0.9,0.3-1.2c-0.1-0.4-0.1-0.9,0.5-1.3c0.4-0.3,0.5-0.9,0.5-1c0-0.1,0.2-0.5,0.6-0.8c0.8-0.6,1-1.3,0.8-2.1
		c-0.1-0.4-0.2-0.4,0.3-0.7c1-0.7,1.1-1.3,1-2.2c-0.2-0.8,0.6-0.6,1.2,0.4c0.3,0.6,0.4,1.5,0.6,2.6c0.2,1.3,0.3,1.6,0.4,1.4
		c0.4-1-0.1-4.9-1.2-5.4c-1.7-0.8-3.1-2.3-2.7-2.9c0.1-0.2,0.2-0.1,1.2,0.3c0.6,0.3,1.2,0.5,1.3,0.5c1.2,0,0.5-0.5,0.1-0.5
		c-0.5-0.1-1.9-0.9-2-1.2C38.3,92.8,38.4,92.6,38.8,92.6z M35.9,93.2c1.1,0,1.3,0.3,1.3,1.2c0,0.6,0.2,1,1.1,2.1
		c0.4,0.5,0.6,0.8,0.6,1c0,0.3-0.1,0-1.4-0.2c-0.4-0.1-0.7-0.1-0.8,0.2c-0.4,0.6-1.3,0-1.9-1C33.6,94.4,34,93.2,35.9,93.2z
		 M57.1,94.6l12.1,14.8l-1.4,1.1L55.7,95.8L57.1,94.6z M55.1,95.5l1.3,2.2c0,0-3.7,3.2-4.7,4.1c-8,6.5-25.9,21.1-25.9,21.1l-0.2-3
		L55.1,95.5z M33.2,95.9c0.2,0,0.5,0.3,0.9,0.9c0.3,0.5,1,1.5,1.8,2.2c1.5,1.4,1.6,1.2,0.4,1.4c-0.5,0.1-0.6,0-0.9,0.7
		c-0.9,1.1-3.5-2.8-2.9-4.3C32.8,96.1,33,95.9,33.2,95.9z M37.5,98c0.3,0,0.5,0.2,0.7,0.3c0.6,0.3,0.7,0.4,0.6,1
		c-0.1,0.6-0.5,0.7-1.4,0c-0.6-0.6-0.6-1.1-0.2-1.2C37.4,98,37.4,98,37.5,98z M56.8,98.3l1.4,1.8L26,126.3v-3
		C26.7,123.4,47.4,105.4,56.8,98.3z M31.7,98.6c0.1,0,0.2,0.3,0.6,0.8c0.7,1.1,1.4,1.8,2.2,2.4c0.7,0.5,0.8,0.9,0.3,0.9
		c-0.2,0-0.5,0.2-0.7,0.5c-0.3,0.5-0.3,0.4-0.8,0.1c-0.7-0.4-1.4-1-1.6-1.8C31.4,100.5,31.4,99.4,31.7,98.6z M36.8,100.7
		c0.8,0,1.4,0.9,0.9,1.7c-0.3,0.3-0.6,0.4-1.2,0.1c-0.8-0.5-0.9-1.2-0.3-1.6C36.4,100.8,36.6,100.7,36.8,100.7z M31.5,102.8
		c0.2,0,0.5,0.2,1,0.8c0.4,0.4,1.1,0.8,1.4,0.9c0.6,0.3,0.7,0.5,0.3,0.8c-0.1,0.1-0.6,0.1-0.8,0.5c-0.4,1.1-1.9-0.2-2.1-1.7
		C31.3,103.3,31.3,102.8,31.5,102.8z M35.5,102.9c1,0,1.5,1.2,0.7,1.8c-0.4,0.3-1.6-0.2-1.7-0.8C34.4,103.6,35.1,102.9,35.5,102.9z
		 M59.5,103.8c0.6,0,1.1,0.5,1.1,1.1c0,0.6-0.5,1.1-1.1,1.1c-0.6,0-1.1-0.5-1.1-1.1S58.9,103.8,59.5,103.8z M56.3,104.3
		c0.6,0,1.1,0.5,1.1,1.1c0,0.6-0.5,1.1-1.1,1.1s-1.1-0.5-1.1-1.1C55.2,104.8,55.7,104.3,56.3,104.3z M34.9,105.7c1,0,1,1,0.5,1.5
		c-0.4,0.3-0.7,0.4-1.1,0c-0.6-0.5-0.6-1.1-0.1-1.4C34.4,105.7,34.6,105.7,34.9,105.7z M56.7,107.2l-1.7,4.4l-4.7,0.6l1.7-4.4
		L56.7,107.2z M58.7,107.3c0.6,0,1.1,0.5,1.1,1.1c0,0.6-0.5,1.1-1.1,1.1s-1.1-0.5-1.1-1.1C57.6,107.8,58.1,107.3,58.7,107.3z
		 M153.6,107.4v2.7l-38.1,31.8l-1.3-1.7L153.6,107.4z M64.2,107.5l1.2,1.6L26,141.3V139L64.2,107.5z M131.2,110.1
		c-9.6-0.1-19.7,7.4-14.7,24l5-4c-2.2-10.9,6.5-15.3,14.7-12.1l5.1-4.4C138.7,111.3,135,110.1,131.2,110.1z M48.6,112.7
		c0.6,0,1.1,0.5,1.1,1.1c0,0.6-0.5,1.1-1.1,1.1s-1.1-0.5-1.1-1.1C47.6,113.1,48,112.7,48.6,112.7z M45.4,112.9c0.6,0,1,0.4,1,1
		c0,0.6-0.4,1.1-1,1.1s-1.1-0.5-1.1-1.1C44.3,113.4,44.8,112.9,45.4,112.9z M62.8,115.1l-5,4c1.3,10.5-3.8,15.8-14.7,12.2l-5.3,4.2
		C52.1,145.4,70.8,132.7,62.8,115.1z M47.5,116.1c0.6,0,1.1,0.5,1.1,1.1s-0.5,1.1-1.1,1.1c-0.6,0-1.1-0.5-1.1-1.1
		S46.9,116.1,47.5,116.1z M45.6,116.3l-1.7,4.4l-4.7,0.6L41,117L45.6,116.3z M152.2,116.3c0.6,0,1.1,0.5,1.1,1.1
		c0,0.6-0.5,1.1-1.1,1.1s-1.1-0.5-1.1-1.1C151.1,116.8,151.6,116.3,152.2,116.3z M151.3,118.7l-1.7,4.4l-4.7,0.6l1.7-4.4
		L151.3,118.7z M37.7,121.8c0.6,0,1.1,0.5,1.1,1.1c0,0.6-0.5,1.1-1.1,1.1s-1.1-0.5-1.1-1.1C36.6,122.3,37.1,121.8,37.7,121.8z
		 M34.6,122c0.6,0,1.1,0.5,1.1,1.1c0,0.6-0.5,1.1-1.1,1.1c-0.6,0-1.1-0.5-1.1-1.1C33.5,122.4,34,122,34.6,122z M142.6,122.6
		c0.6,0,1.1,0.5,1.1,1.1c0,0.6-0.5,1.1-1.1,1.1s-1.1-0.5-1.1-1.1C141.6,123.1,142,122.6,142.6,122.6z M153.7,122.8v2.4l-31,25.8
		l-1.3-1.7L153.7,122.8z M36.7,125.1c0.6,0,1.1,0.5,1.1,1.1c0,0.6-0.5,1.1-1.1,1.1s-1.1-0.5-1.1-1.1
		C35.6,125.6,36.1,125.1,36.7,125.1z M144.9,125.4c0.6,0,1.1,0.5,1.1,1.1c0,0.6-0.5,1.1-1.1,1.1c-0.6,0-1.1-0.5-1.1-1.1
		C143.8,125.9,144.3,125.4,144.9,125.4z M34.8,125.5l-1.7,4.4l-4.7,0.6l1.7-4.4L34.8,125.5z M141.8,125.6c0.6,0,1.1,0.5,1.1,1.1
		c0,0.6-0.5,1.1-1.1,1.1c-0.6,0-1.1-0.5-1.1-1.1C140.7,126.1,141.2,125.6,141.8,125.6z M153.9,126l-0.1,3.1
		c-9.6,8.2-29.4,24.6-29.3,24.6l-1.5-2.1C123,151.6,144.6,132.9,153.9,126z M140.6,127.9l-1.7,4.4l-4.7,0.6l1.7-4.4L140.6,127.9z
		 M153.7,129.9V229l-55.9,0c-0.7-6.1,1.1-14.3,4.2-22.4c1.9-5,4.6-8.8,7.6-13.3c5.8-8.6,10.3-17.3,8.6-28.3
		c-0.2-1.6-0.4-2.4-0.4-2.9c0.7-1.3,3.5-5.4,5.6-7.1c3-2.5,7.2-6.2,7.6-6c1,1.9,2.2,3.5,3.8,4.7c0.3,0.3,0.3,0.6-0.4,0.7
		c-4.2,0-8.5,0.9-9.9,4.6c-0.2,0.7-0.2,0.7,0.7,0.6c0.4,0,2.1,0,3.3,0c2.2,0.2,5.7,0.2,7.4-1.1c0.3-0.3,0.5-0.3,0.6-0.1
		c0.1,0.9-1.5,3.7-1.5,3.7l-2.8,1.5c0,0-1.1,0.1-2.6,0l0,2.5c-1.1,0.7-3,3.5,0,5.6l-0.1,2.7l2.7,0c1.8,1.7,3.2,1.7,4.9,0.1l3.1,0
		l0-3c1.5-1.2,1.7-3.3,0.2-5l0-3l-2.4,0c0,0-0.5-0.4-0.5-0.7c0-0.2,1.7-3.6,2.1-4.1c0.4-0.6,0.3-0.3,1,1.2c1,2.1,2,2.9,4.5,4.1
		c2.2,1.1,3.1,1.6,3.7,2.2c0.5,0.5,0.8,0.3,1-0.4c0.4-1.6,0.3-3.3-0.6-4.8c-1.9-3.2-5.2-3.3-5.8-4.1c-0.1-0.2,0.6-0.4,1.3-0.7
		c1.3-0.8,3.1-3.1,3.3-4c0-0.4,0.3-1.9,0.5-2.2c0.3-0.6,0.3-0.8,0.3-2.3c-0.2-0.9,0-2,0.1-2.3c0.1-0.8-0.3-1.7-0.9-2.8
		c-0.2-1-0.2-0.8,0.5-3.1c0.1-0.4,0.9-3.6-0.1-3.9c0.5,2.5-0.2,4.6-1.1,6.1c-0.7-0.2-1.2-0.7-1.8-1.1c0,0,0-1.2,0.2-2.5
		c-0.2,0.4-0.3,1.5-0.7,1.7c-0.3,0.1-0.6-0.2-1.3-0.7c-0.3-0.2-0.8-0.6-0.8-0.6S150.7,132.1,153.7,129.9z M27.2,130.9
		c0.6,0,1.1,0.5,1.1,1.1s-0.5,1.1-1.1,1.1s-1.1-0.5-1.1-1.1S26.6,130.9,27.2,130.9z M132,131.2c0.6,0,1.1,0.5,1.1,1.1
		s-0.5,1.1-1.1,1.1c-0.6,0-1.1-0.5-1.1-1.1S131.4,131.2,132,131.2z M134.3,134.1c0.6,0,1.1,0.5,1.1,1.1s-0.5,1.1-1.1,1.1
		s-1.1-0.5-1.1-1.1S133.7,134.1,134.3,134.1z M130.8,134.6c0.6,0,1.1,0.5,1.1,1.1s-0.5,1.1-1.1,1.1s-1.1-0.5-1.1-1.1
		S130.2,134.6,130.8,134.6z M129.5,137l-1.7,4.4l-4.7,0.6l1.7-4.4L129.5,137z M112.1,138.8l11.7,14.8l-1.5,1.3l-11.6-15L112.1,138.8
		z M142.2,139.5c0,0,1.7,0.9,2,1.3c0.1,0.4-0.2,0.6-0.6,1c-0.2,0.3-0.3,0.5-0.3,1.1c0,0.6,0.2,0.9-0.1,1.2c-0.4,0-0.7,0.5-0.7,1
		c0,0.3-0.4,0.7-0.7,1c-0.5,0.4-0.6,0.5-0.9,2.1c0,0.2,0,0.5-0.2,0.7c-0.6,0.1-1.1,1.6-1.4,1.7c-0.5,0-1.2-0.6-1.4-1.4
		c-0.1-0.5-0.1-1.6,0-2.3c0.2-0.8,0.2-1.5,0.2-1.7c-0.1-0.5-0.4-0.2-0.4,0.5c0,0.3-0.1,1-0.3,1.8c-0.2,0.7-0.6,1.7-0.4,2.3
		c0.3,0.9,1.4,1.2,1.9,1.7c1.3,1.2,1.6,1.8,1.7,2c1,1.9,1,2.2,0.8,3.7c-0.1,0.8-1,0.7-1.4,0.3c0,0-3.1-2.3-4.4-3.4
		c-2-1.7-3.5-3.4-4.3-5.3L142.2,139.5z M120.8,140.3c0.6,0,1.1,0.5,1.1,1.1c0,0.6-0.5,1.1-1.1,1.1s-1.1-0.5-1.1-1.1
		C119.8,140.8,120.3,140.3,120.8,140.3z M144.7,141.8c0.2,0,0.3,0.1,0.5,0.2c1,0.7,0,1.8-0.9,1.4c-0.8-0.3-0.7-1.1-0.1-1.4
		C144.4,141.8,144.6,141.8,144.7,141.8z M146.4,142.7c1,0,2,2.3,1.8,3c-0.3,0.8-0.6,0.8-1.9-0.3c-1.3-1.1-1.4-1.2-0.8-1.8
		C145.8,143.2,146,142.7,146.4,142.7z M123.5,143.1c0.6,0,1.1,0.5,1.1,1.1c0,0.6-0.5,1.1-1.1,1.1s-1.1-0.5-1.1-1.1
		C122.4,143.6,122.9,143.1,123.5,143.1z M120.2,143.5c0.6,0,1.1,0.5,1.1,1.1s-0.5,1.1-1.1,1.1s-1.1-0.5-1.1-1.1
		C119.1,144,119.6,143.5,120.2,143.5z M143.9,144.3c1.1,0.2,1.3,1,0.9,1.6c-0.7,0.8-2.2,0.1-1.8-0.9
		C143.1,144.6,143.5,144.3,143.9,144.3z M145.8,145.5c0.4,0,1,0.5,1.7,1.5c0.8,1.1,0.8,1.4,0.6,2.1c-0.3,1-0.5,1.1-1.2,0.2
		c-0.3-0.4-0.9-1.2-1.3-1.6c-0.9-1-1.1-0.7-0.5-1.5C145.4,145.9,145.6,145.6,145.8,145.5z M142.4,146.4l0.2,0c0.2,0,0.4,0.1,0.7,0.2
		c1,0.5,1,1.1,0.5,1.6c-0.7,0.4-1.8-0.1-2.1-0.7C141.5,146.9,141.9,146.5,142.4,146.4z M144.9,148.1c0.5,0,1,0.5,1.7,1.6
		c1.1,1.8,1.2,2.4,0.2,3.6c-0.7,0.9-0.8,0.9-1.4-0.5c-0.6-1.1-1.6-2.4-2.6-3.2c-0.4-0.3-0.5-0.8-0.3-0.8c0.1,0,0.4,0,0.8,0
		c0.5,0,0.7-0.1,1-0.4C144.5,148.2,144.7,148.1,144.9,148.1z M141,149.5c0.5,0,1.2,0.2,1.6,0.8c0.5,0.6,0.5,1.1-0.6,1.2
		c-0.5,0.2-1.8-0.7-1.8-1.3C140.3,149.8,140.6,149.5,141,149.5z M143.7,151.6c0.5,0,0.7,0.5,1.2,1.5c0.8,1.6,0.6,2.4-0.8,3.1
		c-0.9,0.5-1.6,0.6-1.7,0.1c-0.1-1.1-0.4-2.3-0.9-3c-0.8-1.2-1-1.7-0.1-1.3c0.5,0.2,1,0.2,1.6-0.1
		C143.2,151.7,143.4,151.7,143.7,151.6z M139,154.2c-0.3,0-0.5,0.2-0.4,0.7c0.3,0.1,0.7,0,1.1,0.1c0.5,0.2,0.7,0.9,1.2,0.8
		C140.9,155.2,139.7,154.2,139,154.2z M135.4,154.7c1.2,0.5,4.2,2.7,4.2,2.7l-2.8,5.8c0.5,0.9,0.7,3.2,0.7,3.2
		c3.5-0.3,5.4,5.7-0.1,5.1c0.6,3.7-5.3,6.6-5.1,0c-6.2,0.5-4.1-6.5-0.3-5.2c-0.1-3,1.9-3.4,3.3-4.1c1.1-1.3,1.8-4.2,1.8-4.2
		l-0.3-0.9c-1.2,2-6.2,2.6-11.6,1.6C126.7,155.1,131.2,155.2,135.4,154.7z M141.8,157.7c0.1,0,0.3,0,0.4,0c2,0.2,5.4,2.2,6.2,3.3
		c1.4,2.1,1.3,4.5,0.7,4.8c-0.6-0.4-1.2-1-1.8-1.2c-3.3-1.4-5.9-2.6-6.3-4.6C140.4,158.3,140.8,157.7,141.8,157.7z M31.1,158.9
		c5.3-0.1,10.8,2.1,14.8,5.8c1.2,1.2,0.5,0.8-0.4,0.4c-2.5-1.2-8.8-4-11.8-4c-5.6-1.6-5.8-0.9-7.7-1.4
		C27.6,159.2,29.4,158.9,31.1,158.9z M27,160.6c5.2-0.1,9.8,2.6,11.9,5.7c5.1,6.8,8.6,15.4,13.2,23.3c5.9,10.3,11.5,22,20.7,39.2
		l-0.9,0.3l-35.4,0.1c1.7-18.4-7.8-35.9-9.1-36.5c7.9,0.1,13.2-1.2,15.6-3.5l-0.8-1.2c-4.7,4-11.7,4.2-16.3,3
		c0.1-9.9-0.3-20.4,0-30.3C26.3,160.6,26.7,160.6,27,160.6z M35.9,162.1c1.4-0.1,9.2,3.1,12.6,5.5c1,1,2.4,2.7,2.4,2.9
		c0,0.5-0.7-0.1-4-2c-2.5-1.4-5.2-2.6-7.7-3.7c-0.1-0.1-0.4-0.2-0.4-0.2s-0.2-0.2-0.5-0.5C37.3,163.5,35.6,162.3,35.9,162.1z
		 M39.6,165.8c-0.1,0,7.7,2.8,13.9,7.7c0.8,0.7,1.8,3.1,1.8,3.1c-0.6-1-10.3-6.9-13.7-8.2L39.6,165.8z M42.4,169.5
		c0.4-0.3,11.8,6.5,13.4,8.2c0.8,0.6,2.5,3.4,2.5,4c0,0.5-0.5,0.1-1.6-0.9c-5.2-4.9-12.8-8.6-12.8-8.5L42.4,169.5z M44.5,173.4
		c5.3,2.3,12,7.7,15.4,10.9c0.8,0.8,1.4,2.1,1.6,2.6c0.1,0.3-0.1,0.3-0.2,0.5c-4.4-5-14-10.8-15.3-11.2
		C46,176.6,44.9,174.3,44.5,173.4z M46.5,177.4c3.1,1,12.1,8.2,15.6,11.7c0.6,0.6,1.6,2.8,1.4,3.1c-0.1,0.1-0.1,0.1-0.4-0.1
		c-1.4-1.4-8.6-7.8-14.6-11.4C48,180.4,46.1,177.4,46.5,177.4z M49.2,182c0.1,0,0.3,0.1,0.6,0.3c5.5,3.1,13.5,10.7,15,12.6
		c0.3,0.6,0.9,1.6,0.8,2.3c-0.1,0.5-0.3,0.1-2.5-2.1c-3.6-3.5-7.7-6.9-12.1-9.8c-0.8-0.6-0.7-0.7-1.3-1.7
		C49.2,182.4,48.9,181.9,49.2,182z M83.4,182c0.4,0,0.8,0,1.1,0c3.9,0.1,5.5,3.1,7.9,8.6c2,5.4,2.8,10.4,2.9,14.4c0,0.3-0.5,0-0.7,0
		c-1.1-0.3-2.4-0.5-3.9-0.2c-0.7,0.2-1.8,0.2-1.8,0.2c0.8-1.1,1.7-1.5,2.6-2.2c0.4-0.2,0.8-0.5,0.8-0.5c-1.3,0.1-2.2,0.8-3.3,1.5
		c0,0,0.2-0.8,0.4-1.3c1.1-2.8,1.5-4.5-0.2-5c-1.1-0.3-1.6-0.9-1.9-2c-0.5,1.1,0.3,2.2,1.2,2.8c1.2,0.9,1.4,1.1,0.8,3.1
		c-0.9,2.8-1.1,3.5-1.3,4.2c-0.1,0.4-0.3,1-0.4,1.4c-0.4,1.6-0.3,3-0.2,4.3c0.4,3,3.6,4.5,7.9,2.8c0.4-0.2,0.6,0,0.6,0
		c-3.4,3.5-7.3,5.7-9.5,12.8c-2.9-5.8-7-10.4-13.8-12.2l-0.1-1.2c2.4,1.1,7,2.7,9.9,0.9c1.6-1.1,1.1-1.8-0.8-1
		c-2.3,0.9-6.3,0.8-8.4-0.4c-0.4-0.2-0.8,0-1,0c-0.1-0.7-1.1-3.3-0.9-4.2c-0.1-0.1,0.6-0.1,0.8,0c0.6,0.8,3.4,3,6.4,2.8
		c1.5-0.1,2.7-0.5,4-1.9c0.1-0.1,0.6-0.2,0.7-0.2c0.1-0.1,0-0.3,0-0.4c0-0.1-0.2-0.4-0.3-0.7c-0.2-0.3-0.2-0.6-0.2-0.8
		c0-0.2,0.1-0.3,0.2-0.4c0.1-0.2,0.1-0.6,0-0.7c-0.3-0.2-0.2-0.5-0.1-0.7c0.3-0.4-2.2-2.9-3.6-3.7c-0.3-0.2-1.1-0.3-1.1-0.3
		s0.3,0.5,0.9,0.9c2,1.3,3.4,3,3.1,3.2c-0.2,0.2-1.1-0.2-2-0.4c-1.8-0.4-3.9-0.7-6.3,1c-0.9,0.7-3.2,0.8-3.2,0.8
		c0-1.2-5-14.5-5.3-14.8c1.9-2.3,8-7.6,14.1-9.9C80.7,182.4,82.1,182.1,83.4,182L83.4,182z M61.4,185.2l11.1,0.2
		c-2.8,1.4-7.8,6.4-7.8,6.4C63.2,188.9,62.7,187.5,61.4,185.2z M51.8,186.7c0.8,0,9.6,7.2,10.9,8.9c0.2,0.2,1,1.1,2,2.1
		c2.3,2.3,3.2,3.6,3.2,4.5c0,0.4-0.4,0.2-1-0.5c-4.5-5.1-7.5-7.8-13.1-11.7C53.1,189.6,51.1,187,51.8,186.7L51.8,186.7z M81.9,188
		c-0.2,0-0.2,0.2-0.1,0.4c1.4,1.2,5.1,1.2,6.3,0.2c1.2-0.9-0.4-0.4-0.8-0.2c-1.1,0.5-2.3,0.4-3.8,0C82.6,188.2,82.1,188,81.9,188z
		 M85.2,190c-1.3,0-2.6,0.4-2.3,0.9c0.1,0.2,0.5,0.5,1.3,0c1.2-0.6,3.7,0.2,3.8,0.2c0.3,0.1-0.8-0.7-1.2-0.9
		C86.4,190.1,85.8,190,85.2,190z M54.3,191.4c4.7,2.9,10.5,8.7,13.9,12.8c0.6,0.7,1,1.6,1,2.1c0,0.7-0.1,0.3-3.3-2.9
		c-2.5-2.5-6.2-6-8.6-7.8c-1.5-1.1-1.7-1.2-2.4-2.5C54.2,191.9,53.9,191.4,54.3,191.4z M90.2,191.5L90.2,191.5
		c-0.8,0.4-1.4,0.8-2.1,0.8c-1.3,0-2.4-0.8-4.5,0.1c-0.9,0.4-2.1,0.3-3.2-0.1c-1-0.4-0.8-0.1-0.4,1.1c0.2,0.5,0.3,1.2,0.3,1.4
		c0,0.3,0,0.3,0.7-0.1c0.6-0.4,0.8-0.5,2.1-0.2c1.4,0.3,1.4,0.2,2.1-0.1c0.6-0.3,0.7-0.5,1.1-0.3c0.8,0.3,1.6,0.4,2.6-0.1
		c0.7-0.4,1-0.1,1.3,0c0.5,0.2,0.6,0.1,0.5-0.4c-0.1-0.2-0.2-1-0.2-1.2C90.5,191.9,90.4,191.5,90.2,191.5z M26,193.3
		c11.8,14.7,9.9,35.9,9.5,35.7l-9.5,0V193.3z M56.8,196.3c4.7,3.3,10.3,9.1,13.4,13c0.5,0.7,0.1,0.9,0.4,1.7
		c0.1,0.3-0.4-0.1-1.9-1.8c-1.9-2-4.9-5-6.9-6.8c-2.2-1.9-2.8-2.4-3.3-3C58,199,56.5,196.4,56.8,196.3L56.8,196.3z M83.2,197.6
		l-0.1,0c-1.7,0.1-2.5,2-1.1,3.3c0.5,0.5,1.6,0.6,1.6,0.6s-0.5-0.4-0.7-0.5c-1.2-0.9-1.1-2.4,0.3-2.4c0.5,0,0.5,0.2,1.6,0.9
		c1.3,0.9,2.8,0.9,2.8,0c0-0.7-0.3-1.4-1.4-1.3c-0.3,0-0.7,0.1-1.1,0c-0.3-0.1-0.6-0.3-0.8-0.4C83.9,197.7,83.5,197.6,83.2,197.6z
		 M59.8,202c3.6,2.4,8.5,7.9,11.1,11.1c0.6,0.8,0.6,1.6,0.4,2l-0.5-0.2c-2.9-3.4-6.2-6.6-9.5-9.8C61.3,205.2,59.3,202.1,59.8,202z
		 M92.2,205.4c0.7,0,1.5,0.5,2.4,1.8l-0.8,0.4c-1.2-1.8-2.3-1.8-3.2,0.3l-0.6-0.1C89.8,207.4,90.7,205.4,92.2,205.4z M94.5,205.7
		c0.3,0,0.9,0.2,1,0.5c0.1,0.3,0,0.7-0.5,0.6c-0.1,0-0.5-0.5-0.7-0.9C94.1,205.8,94.2,205.7,94.5,205.7z M78.7,205.8
		c1.1,0.1,2.1,0.7,2.6,2l-0.9,0c-1.7-2.2-2.9-0.7-3.6,0.2l-0.9-0.1C75.9,206.6,77.3,205.8,78.7,205.8z M89.7,206
		c0.1,0,0.3,0,0.4,0.1c-0.3,0.5-0.4,1-0.5,1.4c-0.3,0.1-0.8,0.4-1.2,0.1C87.8,206.9,88.8,206,89.7,206z M76.1,206.2
		c0.4,0,0.3,0,0.1,0.2c-0.2,0.2-0.5,0.6-0.6,1c-0.1,0.3-0.1,0.4-0.3,0.4c-0.5,0-1.3-0.2-1.3-0.1C73.6,207.3,75,206.3,76.1,206.2z
		 M81.4,206.5c0.3,0,0.2,0.4,0.1,0.5c-0.2,0.2-0.2,0.3-0.3,0c0-0.1-0.1-0.2-0.2-0.3c-0.1-0.2-0.1-0.2,0-0.2
		C81.1,206.6,81.3,206.5,81.4,206.5z M62.9,207.9c3.4,2.9,5.9,6.1,8.6,9.1c0.5,0.7,0.8,1.3,0.7,1.7c-0.1,0.5-1.2-0.8-1.2-0.8
		l-6.6-7.1C64.4,211,62.7,207.9,62.9,207.9z M95.6,208.3c1,0,0.3,1.7-1.1,2.1c-1.6,0.8-3.3,0.6-5.2-0.4c-1-0.6-1.3-1.2-0.4-1
		c3.4,0.9,4.2,0.8,6.3-0.6C95.3,208.3,95.5,208.3,95.6,208.3z M73,208.9c0.2,0,0.7,0.1,1.5,0.3c3.3,1,4.2,1,6.1,0.1
		c1.2-0.5,1.7-0.5,1.2,0.4c-0.9,1.5-4.3,1.7-6.7,0.8c-0.7-0.2-1.2-0.6-1.9-1.1C72.8,209.1,72.7,208.9,73,208.9z M88,209.9
		c0.2,0,0.6,0.2,1,0.5c2.7,1.5,4.7,1.3,6.4,0.2c0.3-0.3,0.5-0.1,0.5,0.1c0.1,0.9,0.2,1.6-0.2,2.1c-0.3,0.3-0.7,0.4-1.3,0.6
		c-2.6,0.9-5.9,0.3-6.5-1.7C87.7,210.6,87.6,209.9,88,209.9z M66.4,214.2L66.4,214.2c0.2,0,0.7,0.4,1.4,1.2c3.6,4.1,5.6,6.5,5.3,7.7
		c0,0-0.1,0.3-0.2,0.1c-2-1.7-3.6-3.6-4.8-5.6C66.6,215.4,66.1,214.2,66.4,214.2z M95.6,215.7c0.6,0.2,0,1.4,0,1.3
		c-3.1,2.3-6.8,7.9-7.1,10.7c-0.1,0.5,0,1.1-0.2,1.3c-0.2,0-0.5,0-1,0c-0.3-0.1-0.4-0.2-0.3-0.5C87.4,225.6,89,220.6,95.6,215.7
		L95.6,215.7z M73,215.8c0.2,0,0.6,0.1,1,0.3c2.7,1.2,3.8,1.6,5.6,3.1c3.3,2.7,7,9.3,5.9,9.9c-0.3,0-0.6,0-0.7,0
		c-0.4-0.7-0.7-1.7-1.1-2.4c-2.2-4.1-5.1-6.9-9.2-8.9c-1.5-0.7-1.7-0.7-1.8-1.3C72.6,216,72.7,215.8,73,215.8z M95.6,218.2
		c0.3,0,0.3,0.5,0.2,1.5c0,0.4-0.1,0.6-0.2,0.8c-1.7,1.8-4.2,5.2-5,8.6c-0.4,0-1.2,0-1.2,0c-0.2-0.1-0.3-0.8-0.2-1.1
		c0.6-2.6,2.3-5.8,4.9-8.6C94.9,218.6,95.4,218.2,95.6,218.2z M73.5,218.2c3.5,1.5,8.1,4.8,10.2,10.8c-0.5,0-1.1,0-1.3,0
		c-0.4-0.1-0.5-0.8-1.2-2c-1.7-3.2-4.2-5.6-6.8-6.8c-0.5-0.2-0.8-0.4-0.9-0.6C73.3,219.3,73.1,218.3,73.5,218.2L73.5,218.2z
		 M74.3,221.1c0.5,0.1,1.7,0.9,2.7,1.7c1.8,1.4,4.7,5.7,4.2,6.3c-0.6,0-0.6,0-1.2,0c-2-3.5-4.6-5.3-5.6-6.3
		C74.1,222.2,73.3,221,74.3,221.1L74.3,221.1z M70.2,221.7c0.1,0,0.4,0.3,1.1,1c1.9,2,3,4.1,2.8,5.2c-0.2,0.9-0.5,0.4-2.6-3.6
		C70.5,222.6,70.1,221.8,70.2,221.7z M95.6,221.8c0,1.1,0,1.4-0.2,2c-0.1,0.4-0.3,0.6-0.6,0.9c-1,1.4-1.7,2.9-2.1,4.4h-1.2
		C91.7,227.2,93.4,224.2,95.6,221.8z M74.6,223.9c0.6,0.1,4.9,4.7,4.3,5.2c-0.8,0-0.4,0-1.3,0c-0.5-1.2-2.9-3.7-2.9-3.7L74.6,223.9
		L74.6,223.9z M95.3,225.5L95.3,225.5c0.3,0,0.2,3.3,0,3.6c-0.4,0-1,0-1.4,0c-0.2-0.1-0.3-0.5-0.2-0.8
		C93.9,227.7,95,225.6,95.3,225.5L95.3,225.5z M75.1,227c0.5,0,1.7,1.8,1.5,2.1c-0.5,0-1.4,0-1.5,0C75.1,229,74.9,227.3,75.1,227
		L75.1,227z"/>
	<path d="M111.9,19.7l0.6,0.8l-3.6,0c0.6,0.5,14.1,27.7,31.3,59c2.8,5.5,8.3,7.5,14.6,7.7l-16.7-27c1.8-1,5.3-3.6,7.5-3.1
		c0.1,0.7,0.8,0.4,0.8-0.2l0.8,0l0.3,0.4h3.2l0.3-0.4l2.8,0.4c-7.5-9.2-11.4-23.5-10.1-37.4l-24.8,0.1l-0.3-0.4L111.9,19.7z
		 M82.7,20.6c0.3,5.7-0.5,12.8-2.3,18.1c-2.8,9.1-9.8,16.7-13.9,24.2c-4.4,8.3-5.5,15.4-4.2,23.3l0.8,0.1
		c9.5-12.9,16.8-28.4,20.9-43.6c0.1-0.3-0.1-0.9,0-1.3c-0.2-0.4,0-0.8,0.1-1c0.2-0.3,0.2-1.2,0-2.9c-0.4-4.8-0.4-8.7,0-13
		c0.3-3.4,0.3-3.9,0.3-3.9L82.7,20.6z M143,21c-0.8,9.1,1,21.6,5.3,29c0,0-0.1,0.5-0.2,0.6c-0.4,0.6-0.6,0.1-0.9-0.4
		c-0.9-1.7-2.6-1.9-3.4-1c-1.7,2.3,0.1,3.2,1.5,4.5c-5.7-0.4-7.6-6.7-6.3-9.8c0,0.6,0.3,1.5,0.7,2.1c1.6,2.4,4,0.4,3.3-1.6
		c-0.3-0.8-1.3-2.1-1.3-2.1s1.4-0.2,2-0.6c0.5-0.3,0.9-0.9,0.7-1.7c-0.1-0.6-0.1-0.9-0.5-1.5c-0.4-0.5-1.2-0.9-1.8-0.9
		c-1.2,0.1-1.3,0.9-2.1,1.5c-0.2-1.5-1.1-2.6-2.7-2.3c-1.2,0.2-2,1.5-1.3,3c0.4,0.8,0.9,1,1.4,1.7c-8.2-0.9-7.3-10.7-6.4-10.5
		c0,0,0.2,0,0.2,0.3c-0.5,2.4,2.5,3.8,3.8,2.1c0.8-1.4-1-3.6-1-3.6s1.2-0.3,1.7-0.6c2.1-1.2-0.1-4.8-2.1-3.9c-0.7,0.3-0.9,1-1.6,1.3
		c-0.5-0.5-0.5-1.1-1.3-1.5c-2.3-1.3-3.7,1.7-2.4,3c0.5,0.5,1.4,1,1.2,1.1c-7-0.9-6.9-8.3-6.8-8.2L143,21z M113.5,21h4.8l23.4,36.5
		l-4.3,2.1L113.5,21z M119.3,21h2.7c0.4,8.2,7.3,9.3,8.3,9.1c-1.8,5.5,1.1,11.6,8.1,12.4c-1.6,5.1,1.2,11.9,6.8,11.7l0.6,0.4
		c-0.4,0.7-0.4,2.3-0.4,2.3c-1.2,0.1-1.9,0.3-2.7,0.4C135.5,46.4,119.3,21,119.3,21z M83,21h1c-0.3,4.3-0.9,10.1-0.5,14.3
		c0.5,4,0.5,4.6,0.2,5c-0.4,0.4-0.2,0.7-0.1,1c0.1,0.7,0.1,0.7,0,1.1c-0.8,3.4-1.9,6.9-3.3,10.5c-4.5,12.4-11.8,26-17.6,33.1h-0.3
		c-1.6-9.9,1.8-18.2,3.5-21.6c3.6-6.9,9.1-12.7,12.5-19.9C81.3,38.4,83.3,31,83,21L83,21z M132.1,28.1c0.6,0,1.1,0.5,1.1,1.1
		c0,0.6-0.5,1.1-1.1,1.1c-0.6,0-1.1-0.5-1.1-1.1C131,28.6,131.5,28.1,132.1,28.1z M139.9,40.3c0.6,0,1.1,0.5,1.1,1.1
		c0,0.6-0.5,1.1-1.1,1.1s-1.1-0.5-1.1-1.1C138.7,40.8,139.2,40.3,139.9,40.3z M84.1,42.5L84.1,42.5c0.4,1.6-7.4,25.5-18.6,40.7
		l4.9,0.1l0.2,0.5c6.8,10.1,2.6,19-2.9,23.1l1.9,2.5l-1.7,1.4l-1.7-2c-13.9,10.5-41.1,33.7-41.1,33.7l0.2,3.7l2.1-1.7
		c13.8,13.4,43,12.7,50.7-15l2.1,0c-4.6,20.3-23.5,28.2-37.8,24.8l-3.3,4.8l0.9,0.5c-0.2-0.3-0.3-0.3-0.1-0.6l2.8-3.7
		c21.3,2.7,34.2-9.4,38.4-25.7l2.7,0c-2.3,13.8-8.8,25.9-17.9,35.4c-6.6,0-18.3-0.2-18.3-0.2c4.2,4.1,12.3,16.7,12.7,18
		c0,0,8.3,0.3,17.3,0c3.3-1.5,7.7-2.1,9.7-1c3.6,1.8,7,8.6,8.5,19.4c0.4,2.8,0.7,4,0.9,4.5c0,0.1,0.3,0.2,0.3,0.2
		c0.1-0.1-0.2,0.5-0.2,0.9c0,0.4,0,1.1,0.2,1.3c0.3,0.3,0.2,0.5,0.2,0.6l-0.5,0.5c-0.1,6.3,0,12-0.4,19.8l1.2,0
		c0-12.5,3.7-24,9.5-32c3.5-5.2,7.2-10.8,9.3-16.2c2.3-6,2.6-12.4,1.4-17.7l-0.8,0c-5.1-3.5-7.2-11-0.9-16.3l-2.2-2.9
		c-6.3,4.9-7.7,13.8-1.2,21.2l-2.5,0c-6.3-7.9-4.9-17,2.4-23.5l-1.6-2.1l1.8-1.6l1.6,1.8l40.8-34.2l0-3.7l-3.1,2.5
		c-18.3-17-45.5-5.1-49.4,15.4l-2.5,0c5.2-22,24.4-28.2,38.4-25.3l3.4-5.2c-2.5-0.7-5-2.4-7.3-4.4c-1-0.8-1.6-1.3-2.3-2.2
		c-6.6-7-11.1-16.7-11.3-16.7l-17.9,0c-2.6,1.3-7.1,2.8-9.6,0.8c-5.3-4.3-7.1-13-7.8-18.5c-0.2-1.7-0.4-4.8-0.6-5.8
		C84.4,42.5,84.2,42.5,84.1,42.5z M147.6,52.1c0.6,0,1.1,0.5,1.1,1.1c0,0.6-0.5,1.1-1.1,1.1c-0.6,0-1.1-0.5-1.1-1.1
		C146.5,52.6,147,52.1,147.6,52.1z M149.9,53.4c0.9,1.1,1.7,2.3,2.1,3.6c-0.4,0-0.8,0.1-1.3-0.2c-0.1-1.3-0.6-2-1.3-2.9L149.9,53.4z
		 M146.6,55c0.4,0.2,0.6,1.5,0.4,1.8c-0.4,0.1-0.7,0.1-0.9-0.1C145.9,56.3,146.3,55.1,146.6,55z M75.4,66.9l16.6,0
		c2.9,2.2,5.7,1.9,9.8,0.1h18.5l1,1.9H74.5C74.7,68.3,75.4,66.9,75.4,66.9z M74,69.9h47.9l1.2,2H72.8L74,69.9z M78.6,72.7H84l-2,3.4
		h-5.5L78.6,72.7z M90.5,72.7h5.1l-2.3,3.4h-5.1L90.5,72.7z M107.1,72.7l-2.2,3.4h-5.2l2.2-3.4L107.1,72.7z M113.5,72.7h5.1
		l-1.9,3.4h-5.3L113.5,72.7z M44.6,73.3c-3.3,0-2.7,4.4-2.4,4.2c-2.1-0.5-3.6,0.5-3.9,2.3c-0.2,1.4,1.2,3.4,3.6,3.2
		c-0.3,0.4,0,2.5,0.3,2.7c0,0,0,0.3-1.2,3c-1.5,3.2-1.8,3.3-2.5,1.2c-0.7-2.2-1.9-3.4-4.8-4.8c-0.8-0.4-1.9-1.1-2.5-1.5
		c-1.3-1-1.3-1-1.3,1c0.1,2.6,0.9,3.8,3.7,5.4c1.4,0.8,4,1.8,4.5,1.8c0.3,0,1.6,0.6,3.4,1.5c0.4,0.2,1.6,0.9,3.1,1
		c1.7,0.1,5.4-0.3,7.6-1.5c1.2-0.7,1.7-1.3,2.6-3.1c0,0-3.1,0.2-4.5-0.2c-2.9-0.2-4.4,0-6.6,1.1c-1.9,1-2,1.1-1.2-0.5
		c0.4-0.7,0.7-1.6,1-2.4c0.3-0.9,0.4-0.9,1.2-1c1.8-0.2,2.8-1.2,2.9-3c0-0.5,0-1,0-1c1.2,0.2,3.7-0.4,3.6-2.9
		c-0.1-2.3-1.7-2.8-3.6-2.9C47.8,75.7,47,73.3,44.6,73.3L44.6,73.3z M44.6,74c2.9,0,2.8,2.7,1.6,4.2l-1.6-1.3l-1.3,1.2
		C42.1,77.2,42.1,73.9,44.6,74z M124.4,74l1.4,2.1h-3L124.4,74z M70,77h5.5l-2.2,3.1h-5.2C68.1,80.1,69.2,78.2,70,77L70,77z
		 M87.3,77l-2.1,3.2h-4.8l1.9-3.2L87.3,77z M93.7,77h5l-2,3.4h-4.9L93.7,77z M105.4,77h5l-2,3.4h-5L105.4,77z M116.8,77h5.2
		l-2.1,3.4h-5L116.8,77z M48.7,77.7c1.3,0.1,2.4,1.1,2.2,2.4c-0.4,2.9-3.2,2.7-4,1.3l1.1-1.3l-1.4-1.4C47.2,77.9,48,77.6,48.7,77.7z
		 M44.7,77.7l2.5,2.5l-2.4,2.4l-2.5-2.4L44.7,77.7z M41.1,77.9c0.6,0,1.1,0.3,1.6,0.8l-1.3,1.5l1.5,1.4c-0.9,1.3-4.6,1.2-3.8-2
		C39.3,78.4,40.2,77.8,41.1,77.9z M127.3,78.4l1.5,2.1l-2.9,0L127.3,78.4z M44.8,78.9l-1.2,1.2l1.2,1.2l1.2-1.2L44.8,78.9z
		 M67.7,80.9l61.4,0.2l1.6,2c-21.4,0.4-42.4-0.3-64.3-0.4L67.7,80.9z M46.1,82.2c2.4,1.5,0.6,4.6-2,4.1c-1.9-0.9-2.3-2.9-0.6-4.1
		l1.4,1.1L46.1,82.2z M67.2,83.5l-1.7,0l-1.6,1.9c6.2,6.5,5.9,12.2,0.2,17.1l2.3,2.6C72.8,99.5,74.2,90.8,67.2,83.5z M73.5,83.7
		c3.5,5.4,6.4,15.7-3.9,25.1l-1.2-1.5c9-8.8,6.9-16.2,2.8-23.5L73.5,83.7z M74.5,83.8l13.9,0.1c-3,11.4-5.1,18.1-5.4,36l-4,0
		c0.4-0.4-2.1-10.8-5-14.4C80.1,95,76.8,89.1,74.5,83.8z M30.6,83.8c0.2,0,0.7,0.4,1.7,0.9c3,1.5,5.3,3,5.9,5.1
		c0.4,1.2,0.2,1.2-1,0.1c-0.9-0.8-1.8-1.5-4.1-3.1c-0.8-0.6-1.1-0.5-0.6,0.2c0.3,0.5,1.1,1.1,2.6,2c1.1,0.7,2.6,2,2.5,2.2
		c-0.1,0.2-0.3,0.2-0.8-0.1c-0.2-0.1-1-0.4-1.7-0.7c-3-1.2-4.3-2.8-4.5-5.3C30.4,84.3,30.3,83.9,30.6,83.8z M94.2,83.9
		c0,0,0.4,0.6,0.5,0.8c0.1,0.5-0.4,1-1.9,1.6c-0.5,0.2-1,0.4-1,0.7c0.1,0.7,1.5,1.8,1.3,2.8c-0.3,0.8-2.2,1.5-2.7,2.4
		c0,0.6,1.3,1.6,1.1,2.4c-0.1,0.2-0.5,0.5-1.1,1c-1.2,1.1-1.3,1.2-0.9,2.1c1,1.9,1.1,1.8-0.3,3.2c-1.4,1.4-1.4,1.4-0.7,2.6
		c0.7,1.3,0.7,1.2-0.3,2.1c-1,0.8-0.9,1-0.4,2c0.5,1,0.6,1-0.2,1.7c-1,0.9-1.2,1-0.5,2.1c0.7,1.1,0.8,1.1,0,2
		c-0.8,0.9-0.9,0.9-0.4,1.5c0.5,0.8,0.6,1,0.1,1.8c-0.6,0.9-0.6,0.8,0,1.7c0.5,0.7,0.4,1.5,0.4,1.5l-1.7,0c0,0,0-1-0.2-1.4
		c-0.5-0.9-0.5-1.2,0.1-1.9c0.6-0.8,0.5-0.9-0.1-1.7c-0.6-0.8-0.5-0.8,0.2-1.7c0.7-0.9,0.7-1.3,0.3-1.7c-0.9-1.2-0.9-1.6,0-2.4
		c0.7-0.6,0.8-0.8,0.2-1.8c-0.6-1-0.7-1.1,0.4-2c1.1-1,1.1-1,0.3-2.1c-0.7-1.1-0.7-1.2,0.5-2.2c1.2-1.1,1.2-1.1,0.4-2.4
		c-0.7-1.3-0.7-1.3,0.7-2.5c1.4-1.2,1.9-1.3,0.5-3c-0.8-1.3-0.2-1.4,1-2.1c2.2-1.4,1.2-1.3,0.3-3.3c-0.8-1.3-0.3-1.4,1-2
		c0.3-0.1,0.7-0.3,1.1-0.5c0.9-0.5,0.4-1,0.4-1L94.2,83.9z M97.1,83.9l6.7,0.1c-7.7,9.9-11.4,22.5-12.8,35.8l-2.5,0
		C88.4,109.4,91.6,96.4,97.1,83.9z M104.7,84L104.7,84l3.3,0.1c0,0,0.6,0.7,0.9,1c1.4,1.6,1.5,1.3-1.6,3.1c-2,1.1-2.8,1.6-3,2.1
		c-0.1,0.5,0.9,1.4,1,2c0,0.1-2.7,1.9-3.2,2.1c-0.7,0.3-0.7,0.6,0,1.8c0.8,1.3,0.7,1.3-1,2.5c-1.6,1.1-1.9,1-1.3,2.2
		c1,1.6,0.5,1.9-1.8,3.1c-0.6,0.3-0.6,0.6-0.2,1.7c0.6,1.5,0.7,1.3-0.5,2.1c-1.4,1-1.6,1-1.3,1.6c0.9,1.7,1.2,2.1,0.1,2.7
		c-0.9,0.4-0.9,0.7-0.4,1.8c0.5,1.1,0.6,1.1-0.3,1.7c-0.8,0.6-1.3,0.5-0.5,1.4c0.6,0.8,0.6,1.4,0.1,1.8c-0.4,0.2-0.7,1-0.5,1.1
		l-1.2,0c-0.9-1.2,0.2-1.9,0.3-2c0.1-0.3,0-0.5-0.4-1.1c-0.5-0.9-0.5-1,0.2-1.5c0.7-0.5,0.8-0.4,0.3-1.6c-0.6-1.4-0.5-1.5,0.3-2.2
		c0.9-0.6,0.9-0.8,0.3-2c-0.6-1.3-0.6-1.3,0.9-2.3c1.1-0.7,1.1-0.7,0.5-2c-0.4-0.9-0.1-1.3,1.4-2.3c0.8-0.6,0.9-0.7,0.5-1.4
		c-1.1-1.9-1.1-2,0.8-3.2c1.6-1,1.5-1.1,0.9-2.4c-0.6-1.5-0.7-1.3,1.4-2.6c1.8-1.1,1.8-1,1.1-2.3c-0.9-1.6-0.8-1.3,2.7-3.3
		c1.3-0.9,2.4-0.6,1.1-2C105.4,84.8,104.7,84,104.7,84L104.7,84z M115.4,84.1l15.9,0.1c3.8,3.2,6.6,5.1,8.6,5.8c0,0-2.7,4.5-2.9,4.3
		c-15.4-3-33.8,6-38,25.5l-2.4,0c0.9-7.6,2.9-14,6.6-20.7C106.9,92.6,110.3,88.9,115.4,84.1z M42.8,86.6c0.2,0,0.4,0.3,0.4,0.8
		c0,0.8-0.4,1.6-0.8,2.3c-0.7,1.6-1.5,2.8-1.9,2.8c-0.9,0-0.9-0.2,0.3-2.6C41.6,88.9,42.2,86.7,42.8,86.6z M49.4,90
		c1.6,0,3.3,0.2,4.7,0.2c0,3.4-10.5,5-11,3.3c1.8-1.4,7.2-0.8,8.4-2.1c-1.4-0.1-3.2,0.1-4.5,0.2c-1.6,0-4.2,0.7-4.2,1
		c-0.2-0.9,2.7-2.5,5-2.6C48.3,89.9,48.8,89.9,49.4,90z M55,95.3c0,0-20.4,17-30.5,25.2l0.1,3.7l32.3-26.5L55,95.3z M54.9,96.1
		l1.3,1.6l-30.4,24.8l-0.1-2.6L54.9,96.1z M130.7,97.2c6.4,0,13.4,2.3,20.1,7.7l-1.1,1.2c-29.6-22.1-56.9,11.5-41.9,35.5
		c-0.1,0.3-1.2,1.1-1.2,1.1C93.9,121.2,109.7,97.1,130.7,97.2z M134.6,100c1.7,0,4.8,1.2,6.1,2.7c1.5,1.8,1.1,2.7-0.9,0.9
		c-2.1-1.5-3.8-1.9-0.9-0.1c0.6,0.4,1.2,1.2,1.2,1.3c0.1,0.3-0.4,0-2.8-0.9c-1.4-0.5-3.3-1.9-3.7-2.9
		C133.2,100.3,133.7,100,134.6,100z M128.3,100c0.5,0,1,0,1.3,0.1c2.1,0.6,2.8,0.9,3.6,1.5c0.5,0.4,0.4,0.7-0.3,0.5
		c-0.7-0.3-3-1-3.5-1c-0.6,0.1,0,0.5,0.9,0.7c1.9,0.5,2.9,1,1.5,1c-0.7,0.1-3.8,0.1-4.7,0c-1.4-0.2-3.5-1.5-3.1-1.9
		C124.7,100.5,126.8,100.1,128.3,100z M122.2,102c2.5,0,3.9,1,1.1,1.2c-4.7,0.8-5.6,1.8-0.4,0.6c1.2-0.3,1.2,0.2,0.4,0.6
		c-0.7,0.3-1.5,0.5-2.3,0.8c-1.3,0.5-4.2,0.7-5.4,0.2C114,104.7,119.3,102,122.2,102z M142.5,102.5c1.3,0,4,1.9,5.2,3.6
		c0.8,1.1,0.4,1.9-0.8,1c-0.2-0.2-2-1.6-2-1.7c-0.2-0.1,1.4,1.4,1.7,1.9c0.2,0.4,0.7,1.2-0.2,1.2c-1.3-0.2-4.5-3.7-4.5-5.4
		C141.8,102.6,142.1,102.5,142.5,102.5L142.5,102.5z M126.7,103.5c0.5,0,0.3,0.3-0.7,1c-1.8,1.3-0.9,1,1.3-0.1
		c0.6-0.3,1.4-0.6,1.7-0.6c0.3-0.1,0.6-0.1,0.7-0.2c0.6-0.2,0.1,0.5-0.8,1.3c-2,1.6-4.2,2.8-5.7,3.2c-1.9,0.5-2.3,0.5-1.6-0.7
		c1.1-1.9,2.8-3.5,4.4-3.8C126.3,103.5,126.5,103.5,126.7,103.5z M133.2,103.5c0.8,0,1.8,0.2,3.4,0.5c1.1,0.3,0.8,0.4-0.5,0.6
		c-2.5,0.3-1.5,0.6,1,0.5c3.3,0-1.7,1.2-3.3,1.4c-1.3,0.1-1.6,0-4.4-0.5c-1-0.2-0.4-1,1.6-1.9C131.8,103.7,132.4,103.5,133.2,103.5z
		 M153.7,103.9l0.1,2.1l-40,33.5l-1.4-1.5L153.7,103.9z M140,105.8c1.6,0,3.9,1.1,3.7,1.8c-0.1,0.2-0.3,0.2-1.5-0.1
		c-0.8-0.2-2.2-0.4-2-0.3c0.1,0.1,1.2,0.5,1.6,0.6c1.4,0.3,3.1,1.1,2.7,1.4c-0.7,0.4-1.2,0.1-2,0c-1.9-0.3-5.1-1.2-5.6-1.7
		C136.2,106.9,138.3,105.8,140,105.8L140,105.8z M121.4,105.9c0.3,0,0.4,0.3,0.1,0.7c-0.4,0.6-0.6,1-1,1.7c-1.3,2.1-2.2,2.9-3.5,3.7
		s-1.5,0.7-1.4-1c0.1-1.7,1.4-3.6,3.1-4.4c0.8-0.1,1.3-0.3,0.4,0.7c-1.5,1.8-0.5,1.6,0.9-0.4C120.6,106.1,121.1,105.9,121.4,105.9z
		 M116.2,106.1L116.2,106.1c0.9,0,1.2,0.3,0,0.8c-1.1,0.5-3.2,2-3.2,2.1c-0.1,0.3,0.7-0.2,2-0.9c1.7-1,1.9-0.9,1.1,0.2
		c-1,1.2-3.3,2.8-5.1,3.4c-2.5,0.7-2.5,0.2-1.1-1.7c1.3-2,2.5-3,4.2-3.6C114.9,106.3,115.7,106.1,116.2,106.1L116.2,106.1z
		 M73.3,106.4c9.2,15.9,4.1,32-6.6,40.2c-11.1,8.6-28.4,8.1-38.6-2.2l1.4-1.3c0,0,16.1,16.4,36.4,1.9c10.3-7.4,14.5-24.9,6.1-37.1
		L73.3,106.4z M32.3,106.5L32.3,106.5c-0.4,0.2-1.5,3.6-1.8,5.1c-0.1,0.4,0,0.8,0.4,1.2c0.2,0.2,0.6,0.1,0.7,0
		c0.8-0.4,1.2-0.9,1.9-2.6c0.5-0.9,0.5-2.1,0.4-2.4c0-0.2-0.3-0.5-0.6-0.7C33,106.7,32.5,106.5,32.3,106.5L32.3,106.5z M32.5,107.2
		c0.4,0,1.1,0.6,1.2,1c0,0.7-0.4,2-0.7,1.8c-0.5-0.7-1.1-0.2-1.2-0.5C31.6,108.8,32.1,107.8,32.5,107.2L32.5,107.2z M131.5,107.8
		L131.5,107.8c4.1,0,8.1,1.2,11.1,3.8l-1.6,1.5c-7-5-15.1-3.5-19.9-0.2c-4.8,3.3-9,10.7-4.9,21.1l-1.5,1.4c-4.6-8.4-2.1-19.4,6-24.6
		c2.9-1.8,6.6-2.9,10.3-3C131.2,107.8,131.3,107.8,131.5,107.8z M71.2,109c0.1,0,0.3,0.4,0.3,0.9c0,0.6-0.3,1.4-0.7,1.5
		c-0.5,0.2-0.7-1.2-0.7-1.2C70.3,109.8,70.7,109.4,71.2,109z M144.2,109.5c0.2,0,0.3,0,0.5,0c0.5,0.1,0.5,0.5,0,0.9
		c-0.5,0.4-0.7,0.4-1.2,0.1c-0.4-0.3-0.4-0.5-0.1-0.8C143.6,109.5,143.9,109.5,144.2,109.5z M65.9,109.6l1.4,1.7l-4.7,3.8l-0.6,0
		l-35.9,29.8l0-2.6L65.9,109.6z M130.8,110.4c3.7-0.1,7.4,0.9,10,3.2l-4.9,4c-9.8-5.1-17.6,4-14.8,12.2l-4.2,3.7
		C111.5,118.6,121.3,110.7,130.8,110.4z M115.2,110.4L115.2,110.4l0.1,0.1c0.2,0.2-0.2,2.9-0.4,3.4c-0.1,0.2-0.2,0.4-0.2,0.5
		c0,0.2-0.9,2.1-1.6,3.4c-0.3,0.5-0.5,1.1-0.6,1.4c-0.6,2.7-1.8-1.7-1.4-4.2c0.2-1.2,1.9-3.7,2.4-3.5c0.2,0.1,0.2,0.3-0.2,1.2
		c-1.2,2.7-1.5,4-0.2,1.5C114.6,111.2,115,110.5,115.2,110.4L115.2,110.4z M32.3,110.5c0.2,0,0.3,0.1,0.4,0.3c0.1,0.2,0.1,0.6,0,0.7
		c-0.3,0.6-0.8,0.9-1.3,0.9c-0.2,0-0.5-0.2-0.5-0.5c0-0.2,0-0.6,0.3-0.9C31.6,110.7,32,110.5,32.3,110.5L32.3,110.5z M69.5,110.6
		c0.6,0,1.2,1.6,0.8,2.3c-0.3,0.6-0.4,0.5-0.9-0.7c-0.3-0.6-0.5-1.2-0.5-1.2l0.5-0.4L69.5,110.6L69.5,110.6L69.5,110.6z M68.5,111.3
		c0,0,0.6,1.1,0.8,2c0.1,0.5,0.1,0.4-0.5,0.2c-0.5-0.3-0.6-0.5-0.9-0.8c-0.2-0.3-0.4-0.6-0.4-0.6L68.5,111.3z M72.1,111.5
		c0.3,0,0.6,0.3,0.9,1.1c1.1,2.9,1,6.1-0.2,7.6c-0.2,0.3-0.3,0.3-0.5,0.1c-0.2-0.1-0.2-1.5,0-1.9c0.1-0.1,0.3-0.9,0.3-1.4
		c0-1.1-0.3-1.2-0.4-0.2c-0.2,1.2-0.3,2-0.7,1.3c-0.2-0.4-0.2-0.7-0.4-1.1C70.5,114.5,71.2,111.6,72.1,111.5L72.1,111.5z
		 M67.2,112.3c0,0,1.1,1.4,1.5,1.9c0.2,0.3,0.2,0.3-0.1,0.4c-0.4,0.2-1.9-0.8-2.5-1.1c-0.3-0.2-0.2-0.4-0.2-0.4
		C66.4,112.8,66.8,112.5,67.2,112.3z M110.3,112.3L110.3,112.3c0.6,0,0.6,0.2,0,1.1c-3.5,5-2.8,4.3-0.6,1.5c1.2-1.5,1.4-1.7,1.6-1.3
		c0.1,0.3-1.4,3.2-2.1,4.3c-0.4,0.6-1.7,1.5-2.4,1.8c-1.7,0.8-1.5,0.5-0.9-1.6C106.7,114.9,108.6,112.3,110.3,112.3L110.3,112.3z
		 M65.2,114.1c9.5,23.8-16.6,34.2-28.3,23.2l1.4-1.1c16.4,11.1,32.5-6.7,25.1-20.7C63.3,115.5,64,114.9,65.2,114.1z M67.4,114.6
		c1.6,0.2,3.9,3,4,4.6c0.2,1.1-0.1,1.3-0.6,0.5c-0.9-1.7-0.8-0.6,0,1.1c0.4,0.9,0.5,1.9,0.1,2c-0.6-0.1-1.9-2.2-2.3-3.1
		c-1-1.9-1-1.6-1.5-4.4C66.8,114.9,67,114.6,67.4,114.6L67.4,114.6z M62.6,115.4c7.3,14-8.4,30.7-24.2,19.9l4.8-3.8
		c8.3,4,17.5-1,14.9-12.4L62.6,115.4z M130.7,117c1.5,0,3,0.3,4.3,1L121.9,129C119.8,121.9,125.4,117.2,130.7,117z M110.7,118
		L110.7,118c0.4-0.1,0.8,2.7,0.9,6.5c0.1,3.8,0.2,4.1-1,2.8c-0.5-0.6-1.1-1.1-1.4-1.6c-0.8-1.5-0.5-3-0.3-5.2c0.2-2,0.9-1.7,0.8,0.4
		c-0.1,1.4-0.1,3,0.2,3c0.1,0,0.1-0.1,0-0.3c-0.1-0.4,0.4-4.7,0.6-5.3C110.5,118.1,110.6,118,110.7,118L110.7,118z M74.6,119.7
		c0.9,0.4,1.2,3.5,0.2,6.6c-0.4,1.3-1.1,2.2-2.1,2.7c-0.7,0.4-0.9,0.3-0.6-0.4c0.6-1.1,0.9-2.2,1.2-3.6c0.1-1.4-0.6-0.3-0.6,0.3
		c-0.6,2.5-1.3,2.9-1.2,0.2c0.1-2,0.3-2.8,1.2-4.1C73.2,120.7,73.7,119.8,74.6,119.7z M107.5,120c0.4,0,0.5,0.5,0.1,1.5
		c-0.2,0.7-1.1,3-1,3c0.1,0,0.9-2.1,1.1-2.4c0.3-0.6,0.4-0.7,0.7-0.6c0.3,1,0,2.3-0.1,3.3c-0.5,2.7-2.4,5.6-3.1,4.7
		c-1.2-1.4-0.6-6.9,0.9-8.6C106.7,120.3,107.1,120,107.5,120z M57.6,120.4c1.4,9.7-6.6,13.8-13.5,10.9
		C44.3,131.3,57.6,120.4,57.6,120.4z M90.2,120.6l1.4,1.8l2.5,0.1l-1.3,1.9l1.3,2.5l-2.8,0.1l-1.6,1.9l-1.4-1.7l-2.5-0.1l1.4-2.3
		l-1.2-2.2l2.7-0.1L90.2,120.6z M68.8,121.4c0.3,0,1.9,2.1,2,2.8c0.5,1.9,0.3,5.4-0.4,5.2c-0.7-2.5-0.4-3.8-0.7-3.5
		c-0.4,0.5,0.3,4.3,0,5.3c-0.1,0.2-0.5-0.1-0.9-0.7C67.8,128.9,67.9,122.4,68.8,121.4L68.8,121.4L68.8,121.4z M154,125.3l-31.5,26.1
		l1.8,2.3l29.7-24.6L154,125.3z M108.5,125.8c0.1,0,0.5,0.2,1,0.8c1,1.4,2.1,3.3,2.5,4.8c0.2,0.6,0.4,1.3,0.5,1.7
		c0.2,0.5,0.2,0.7,0.1,0.8c-0.5,0.7-2.8-1-3.6-2.6c-1-2.3-1.1-4.3,0-2.3c0.4,0.7,0.8,1.8,0.8,1.4c0-0.1-0.5-1.6-0.8-2.3
		C109,127.6,108.2,125.9,108.5,125.8z M153.6,126.4l0.1,2.2l-29.3,24.6l-1.1-1.4C123.2,151.8,150.8,128.7,153.6,126.4z M107.9,127.8
		c0.1,0,0.2,0.2,0.2,0.6c-0.1,1.4-0.5,4.5-0.4,4.8c0,0.2,0.5-2.1,0.6-2.5c0.5-2.1,1.3,2.9,0.8,5.1c-0.1,0.3-0.2,0.9-0.3,1.3
		s-0.3,0.9-0.4,1.1c-0.8,1.3-2.8-3.9-2.5-6.6C106,130,107.4,127.7,107.9,127.8z M74,128.9c0.4,0,0.5,0.4,0.4,1.1
		c-0.2,2.7-2,5.6-4,6.3c-2,0.8-2.1,0.6-1-0.8c0.9-1.1,1.4-2.2,1.3-2.3c-0.1-0.1-0.3,0.4-1,1.3c-0.9,1.2-1,0.2-0.2-1.5
		c0.7-1.5,1.4-2.2,2.7-3.1C73.1,129.2,73.7,128.9,74,128.9z M91.8,129.7c-0.4,11.7-3.3,24.4-8.9,35.5l-5.2,0
		c6.4-9.5,10.5-21.2,11.7-35.4L91.8,129.7z M94.1,129.7c0,0,0.8,0.8,1.1,1.4c0.4,0.6,0.5,1.1-0.2,1.6c-0.7,0.6-1.1,0.4,0.2,2
		c0.6,0.8,0.4,1-0.4,1.7c-0.8,0.7-0.9,0.8-0.1,1.7c0.8,1,1,1.2-0.1,2c-1,0.7-1,0.9-0.2,2.1c0.7,1.1,0.9,1.1-0.4,2.2
		c-1.1,1-1.2,0.7-0.1,2.5c0.4,0.6,0.4,0.7-0.4,1.3c-1.8,1.6-1.7,1.5-1.5,1.9c2,2.8,1.1,2.8-0.8,4.1c-0.4,0.3-0.3,0.7,0.6,2.1
		c0.7,1.2,0.6,1.5-1.1,2.7c-1.8,1.2-1.9,1.4-1,2.7c0.9,1.3,0.9,1.2-0.5,2.5c-0.7,0.6-1.2,1.1-1.2,1.1h-3.2c0,0,0.7-0.6,1.1-1
		c2.6-2,2.6-1.7,1.5-3.2c-1-1.2-0.9-1.3,0.1-2c0.7-0.5,1.7-1,2.4-1.6c0.4-0.3,0.1-0.5-0.6-1.7c-0.7-1.4-0.8-1.2,0.6-2.3
		c1.5-1.2,1.5-1.2,0.7-2.7c-0.8-1.6-0.8-1.4,0.2-2.3c1.5-1.2,1.6-1.2,0.8-2.6c-0.6-1.1-0.6-1.1,0.4-2.2c1.1-1.1,0.9-1,0.3-2
		c-0.7-1-0.6-1.1,0.2-1.9c0.9-0.8,0.8-0.8,0-1.8c-0.8-1-0.7-1,0.2-1.8c0.5-0.4,1-0.9,0.9-1.1c-0.1-0.5-0.6-1.2-1-1.9
		c-0.2-0.3,0.2-0.3,0.8-0.9c0.6-0.6,0.6-0.5,0.1-1.3c-0.2-0.4-0.7-1.2-0.7-1.2L94.1,129.7z M85.5,129.8L85.5,129.8l0.9,0
		c0,0,0.2,0.2,0.4,0.4c0.6,0.6,0.6,1,0,1.3c-0.6,0.3-0.3,0.7,0.1,1.4c0.5,0.7,0.5,0.7-0.2,1.4c-0.7,0.6-1.1,0.8-0.3,1.9
		c0.5,0.5,0.4,1.1-0.3,1.6c-0.6,0.4-1.5,0.7-0.5,2.1c0.5,1,0.5,0.9-0.5,1.6c-1.3,0.9-1.6,0.8-1,2.1c0.7,1.5,0.7,1.5-0.6,2.6
		c-1.6,1.2-1.7,1.3-1,2.7c0.7,1.4,0.7,1.1-1,2.4c-1.2,1-1.5,1-1.2,1.8c0.7,1.5,1,1.9-1,2.9c-2.3,1.2-2.4,1.3-1.3,3.1
		c0.9,1.4,0.7,1.2-0.8,2.1c-2.2,1.2-3.1,1.8-3.2,2.2c0,0.4,1.7,1.7,1.7,1.7l-3,0.1c0,0-1.3-1-1.8-1.5c-1.4-1.3-1.4-0.9,3.2-3.1
		c2.5-1.2,2.3-0.9,1.9-1.7c-1.2-2.1-1.3-2.3,1-3.5c2-1,1.6-1.1,1.2-2.6c-0.4-1.3-0.4-1.2,0.7-2c2.5-1.9,2.4-1.7,2.1-2.6
		c-0.4-0.9-0.7-1.3-0.4-1.8c0.9-1.3,2.8-1.6,2-3.1c-0.4-1-0.5-1.2,0.6-2.1c1-0.8,1-0.7,0.4-1.8c-0.8-1-0.7-1.2,0.5-2
		c0.8-0.7,0.8-0.7,0.3-1.5c-0.6-1-0.6-1,0.3-1.8c0.7-0.6,0.9-0.7,0.4-1.4c-0.6-0.9-0.5-1.1,0.3-1.6c0.5-0.3,0.5-0.4,0.5-0.9
		C85.8,130.3,85.5,129.8,85.5,129.8L85.5,129.8z M96.9,129.8l4.2,0c1.3,7.8,3.7,11,5,13.5c-5.3,8.6-4.1,15.7-0.9,22l-13.3,0
		C95.4,153.5,97.1,141.8,96.9,129.8L96.9,129.8z M68,129.9c0.2,0,0.3,0.2,0.5,0.7c0.8,1.4,0.2,3.5-1,5.6c-0.9,1.6-1.1,0.4-0.7-1.9
		c0.3-1.5-0.5,0.7-0.8,2.5c-0.2,1-0.6,1.7-1.1,1.7c-0.5-0.1-0.3-1.4-0.3-1.7c0.1-2.1,0.9-3.6,2.4-5.7
		C67.6,130.2,67.8,129.9,68,129.9L68,129.9z M110.9,134c0.2,0,0.5,0.1,0.8,0.3c0.3,0.2,0.8,0.4,1.1,0.6c1.2,0.6,1.3,0.8,0.7,1.5
		c-0.7,0.8-1.1,0.5-2.3-0.8C110.4,134.6,110.4,134,110.9,134z M110.6,135.7c0.2,0,0.6,0.2,1,0.6c0.8,0.9,0.7,1.6-0.2,1.4
		c-0.3-0.5-0.5-1.3-0.9-1.9C110.4,135.8,110.4,135.7,110.6,135.7z M148.1,135.8c-0.7,0-2,1-2.2,2c-0.7,3.1-0.7,2.9-0.1,3.4
		c0.2,0.1,0.3,0.2,0.4,0.3c0.4,0.3,0.9,0.8,1,0.7c0.6,0,1.6-3.9,1.5-4.7c0-0.9,0.1-1-0.1-1.3C148.5,135.9,148.3,135.8,148.1,135.8
		L148.1,135.8z M110,135.9l0.2,0.1c0.5,0.5,0.7,1.4,0.9,2c0,0.1-0.1,0.4-0.1,0.5c-0.4,0.8-1.1,0-1.1-1.4
		C109.8,136.3,109.8,135.9,110,135.9z M148,136.5L148,136.5c0.6,0,0.5,0.5-0.2,1.3c-0.4,0.4-1.1,0.6-1.4,0.3
		c-0.4-0.4,0.4-1.3,1.2-1.6C147.8,136.5,147.9,136.5,148,136.5z M63.5,136.9L63.5,136.9c0.3,0,0.6,0.1,0.7,0.3
		c0.3,0.4,0.2,1.1,0,1.6c-0.4,1.4-3,4.1-3.9,4.1c-0.6-0.1,1.8-3.1,1.8-3.6c-0.2-0.2-1.6,1.5-2.3,2.7c-0.3,0.5-0.7,1.2-0.8,1.3
		c-0.5,0.1-1.1,0.4-1.1,0c0.1-1.5,3-4.7,4-5.6C62.6,137.2,63.1,136.9,63.5,136.9L63.5,136.9z M70.5,137.1c2.2,0-2.2,4.9-5,5.6
		c-0.9,0.2-2.5,0.3-2.6,0.1c-0.1-0.2,0-0.3,0.4-0.4c0.6-0.2,3.5-2,3.5-2.2c0-0.3-1.2,0.2-2.2,0.8c-0.7,0.4-1,0.3-0.6-0.2
		C65.5,138.4,67.8,137.1,70.5,137.1z M109.3,137.1c0.1,0,0.3,0.3,0.3,0.8c0.4,1.1,0.4,1.3,0,1.7c-0.7,0.5-0.8,0.4-0.8-0.8
		C108.9,137.7,109.1,137.1,109.3,137.1z M35.5,138.5c0,0,0.8,0.3,0.5,0.7c-0.2,0.3-1.2,0-1.2,0L35.5,138.5z M148.1,138.5
		c0.3,0,0.3,0.2,0.1,0.9c-0.1,0.3-0.4,2-1,2.5c-0.1,0-0.9-0.4-1.1-0.7c-0.1-0.1-0.4-0.3-0.5-0.5c-0.1-0.5,0-1.2,0.4-1.5
		c0.2-0.1,0.5-0.2,0.6-0.2c0.1,0,0.5-0.1,0.9-0.3C147.8,138.6,148,138.5,148.1,138.5z M35.7,139.7c0.5,0,1.2,0.1,1.8,0.2
		c1.7,0.5,4.7,1.8,5.2,2.3c0.7,0.7-1.1,1.3-3.2,1.4c-1.1,0-1.3-0.2-2.9-1.2c-0.2-0.1-1.1-0.7-0.8-1c0.3-0.3,1.2,0.1,2.2,0.6
		c0.4,0.2,1.2,0.1,1.2,0c0-0.2-2.2-1-3.8-1.5c-1.1-0.3-1-0.7-0.4-0.8C35.1,139.7,35.4,139.7,35.7,139.7L35.7,139.7z M33.6,140.5
		c0,0,0.4,0.4,1,0.8c0.6,0.5,1.4,1.1,1.9,1.8c0.7,0.9,1.9,3.2,1.8,3.6c-0.3,0.9-3.4-0.7-6-3.3c-0.8-0.8-1.3-1.5-1.3-1.5l1-0.9
		c0,0,0.9,0.7,1.8,1.6c1.9,1.6,1.8,1.1,0-0.7c-0.5-0.5-1-0.9-1-0.9C32.8,140.8,33.1,140.5,33.6,140.5z M109.9,140.5c0,0,1,1,1.4,1.5
		c-6.1,6-8.4,14.3-2.5,23.2l-2.8,0C100.7,154.8,103.2,146.9,109.9,140.5z M58.5,140.8c0.4,0,0,0.4-0.6,1.6c-1.3,2.1-1.5,2.7-3.5,3.2
		c-0.5,0.1-1.3,0-1.6,0.1c-0.9,0.1-0.5,0,0.9-0.9c1.9-1.2,0.3-0.6-1.4,0.3c-1,0.5-2,0.5-2.1,0.2c-0.1-0.1,0.4-0.5,0.7-0.8
		c2.6-2.3,3.4-2.2,5.9-3.1C57.7,141,58.3,140.8,58.5,140.8z M47.6,142.9L47.6,142.9c0.9,0,1.8,0.1,2.6,0.3c0.5,0.1,1.4,0.2,0.7,0.9
		c-0.8,0.8-3,1.8-4.6,1.9c-0.2,0-3.6-0.2-2.8-0.9c0.1-0.1,0.6-0.1,1-0.1c1.8-0.3,1.3-0.6-0.9-0.5c-2.8,0.2-3-0.1-0.8-0.7
		c1.6-0.4,3.1-0.7,4.5-0.7C47.3,142.9,47.4,142.9,47.6,142.9z M62.8,143.1c1.3,0,2.2,0.2,2.3,0.7c0,0.8-2.4,2.5-4,2.8
		c-0.4,0.1-0.9,0.2-1.2,0.3c-0.5,0.1-3.6,0-3.9-0.1c-1.4-0.5-0.4-0.7,2.2-1c1.1-0.1,1.7-0.4,1.7-0.6c0-0.1-0.8-0.1-2.1,0
		c-1.4,0.2-1.1-0.2,0.6-1.1C59.5,143.5,61.3,143.1,62.8,143.1L62.8,143.1z M39.4,144.2c0.2,0,0.6,0.2,1.3,0.4c1.5,0.4,3.6,0.9,5,2.5
		c1.2,1.1,1.4,1.5,1.2,1.9c-0.3,0.5-3.9,0.1-5.4-0.5c-1-0.4-2.2-1.3-2.7-2.1c-1.3-1.9-0.8-2.4,0.9-1.1c2,1.6,2.3,1.8,2.7,1.7
		c0.1,0-0.2-0.4-0.9-0.9C39.8,144.9,39,144.2,39.4,144.2z M51.7,146.3c1.7,0,2,0.1,3.7,0.9c2,0.7,1.5,1.4-2.1,2.3
		c-1.8,0.4-3.6,0.1-5-0.7c-2.9-1.8-2.7-2.2,0.5-1.4c1.1,0.3,2.1,0.3,2.2,0.1c0.1-0.2-1.2-0.5-2.3-0.8c-1.1-0.4-0.2-0.3,2.1-0.4
		C51.2,146.3,51.5,146.3,51.7,146.3z M135.7,154c0,0-0.4,0.2-0.5,0.3c-0.1,0.1-1.1,0.2-2.2,0.3c-3.7,0.2-6.6,1.1-8.3,4.3
		c1.5-0.1,9.9,1.4,12.3-1.6c0.5-0.6-1.3,4.8-2.2,5.1c-2.2-0.3-3.2,3.2-2.9,3.1c-2.2,0.9-4,1.4-3.4,4c0.2,1.1,1.4,2.5,3.8,2.1
		c-0.7,4.5,4.9,5.7,5.5,0.2c0,0,1.1-0.2,1.5-0.3c2.5-0.6,3.1-4.3-0.6-5.5c-1-0.3-1.1-0.5-1.1-0.5c0.2-0.8,0.1-1.7-0.5-2.7
		c0.8-1.9,2.8-5.7,2.8-5.7L135.7,154z M135.4,155c0.4,0,0.6,0,0.7,0.1c0.5,0.7-2.1,1.8-5,2c-0.6,0.1-2,0.2-2.1,0.2
		c-0.3,0.5,5.5,0.1,7.2-0.9c0.6-0.3,0.7,0,0.4,0.5c-2.1,2.7-7.1,2-11,1.6c-0.2-0.2,0-0.5,0.8-1.2c1.6-1.3,2.8-1.8,5.3-2
		C132.4,155.4,134.3,155.1,135.4,155z M138.2,157.2c0.6,0,1,0.4,1,0.8c-0.4,1.2-2.3,4.7-2.3,4.7c-0.2,0.2-1.1,0.4-1-0.5
		C135.9,161.2,137.7,157.2,138.2,157.2z M141.7,157.3c-0.6,0-1.3,0.4-1.3,0.9c0.6,4,3.6,5,6.6,6.3c0.8,0.4,1.4,1,2.2,1.4
		c1.5-2-0.2-5.8-2.7-7.1C144.5,157.9,142.8,157.2,141.7,157.3z M141.9,158c3.1-0.1,7.1,2.5,7.4,5.7c0,0.1,0.2,2.1-0.3,2
		c-0.7-0.2-1-0.9-2.1-1.3c-2.2-1.1-5.3-2-6-4.9c-0.1-0.8,0.2-0.9,0.8-0.2c1.5,1.2,3.1,1.6,4.6,2.8c0.4,0.3,1.9,1.2,0.9,0.1
		c-0.7-0.7-2.8-1.9-3.9-2.5C141.9,158.9,141.1,158,141.9,158z M26.8,162c-0.5,0-1,0-1.5,0l17.4,27.2c-4.3,2.3-6.4,3.2-13.5,2.7
		l0,0.4l-3-0.2c5.2,8.1,11.6,18.8,9.8,37.3l21.3,0c0.4,0.6,0.5,0.4,1,0l9.6-0.1l0.3,0.3l4.4,0c0,0-20.3-38.2-30.5-57.1
		C38.1,165.4,34,162,26.8,162L26.8,162z M134.8,162.9c1.1,0,2.3,0.8,2.3,2.3c0,0.8-0.7,1.9-0.7,1.9l-1.5-1.5l-1.5,1.5
		c-0.7-0.6-1.2-1.8-0.9-2.4C132.9,163.6,133.9,162.9,134.8,162.9z M116.8,163.5c1.5,5.7,3.1,13.7-9.7,31.9
		c-7.5,10.8-10,21-10.3,33.5l-0.8,0c0.4-6.8,0.4-19.2,0.4-19.2l0.7-0.6c0,0-0.3-0.5-0.5-1.1c-0.2-1,0-0.7,0.6-3.5
		C99.9,190.9,116.8,163.5,116.8,163.5z M48.8,166.1l64.6,0.3l-0.9,1.7L50,167.6L48.8,166.1z M134.9,166.6l2.4,2.3l-2.3,2.6l-2.5-2.6
		L134.9,166.6z M130.8,166.7c0.7,0,1.5,0.3,2.1,0.9l-1.3,1.4l1.1,1.2c-1.2,2.5-4.3,0.5-4.2-1.3C128.6,167.5,129.6,166.7,130.8,166.7
		z M138.6,166.9c1.2,0,2.1,1.1,2.2,2.2c0.2,1.7-2.5,3.6-3.8,1.3l1-1.3l-1.2-1.3C137.5,167.1,138.1,166.9,138.6,166.9z M134.9,167.9
		l-1.2,1.2l1.2,1.2l1.2-1.2L134.9,167.9z M60.6,168.7l5.3,0l-2,3.7l-5.4,0L60.6,168.7z M72.4,168.8h4.9l-2.1,3.7h-4.9L72.4,168.8z
		 M83.8,168.8H89l-2.1,3.7h-5.3L83.8,168.8z M95.4,168.8h5.3l-1.9,3.7h-5.5L95.4,168.8z M107.1,168.8h5.1l-2.1,3.7h-5.2L107.1,168.8
		z M51,168.8h3.4l-1.4,2.5L51,168.8z M133.5,171l1.5,1.3l1.2-1.3c2,1.6,0.6,4.2-1.4,4.2C133.3,175.4,131.3,173,133.5,171z
		 M64.3,173.1h5l-1.9,3.4h-4.9L64.3,173.1z M75.3,173.1h5.4l-1.9,3.4h-5.2L75.3,173.1z M87,173.1h5.4l-1.8,3.4h-5.5L87,173.1z
		 M98.6,173.1h5.4l-1.7,3.4h-5.7L98.6,173.1z M54.3,173.3h3.4l-1.5,2.7L54.3,173.3z M56.9,177.2l50.3,0.4l-0.9,1.6l-48.2,0
		L56.9,177.2z M58.6,180.1l47.2,0.1l-1.1,2.3l-16.3-0.1c-3.2-2.4-6.8-1.3-11,0.1c0,0-12.5,0.1-17.4,0L58.6,180.1z M43,189.7
		l24.9,39.4l-5.5-0.1l-23.6-37L43,189.7z M38,192.3L61.5,229c-1.1,0-2.1,0-3.2,0c0.4-6.9-5.1-10.1-8.3-10.3c1.9-8-3.9-11.4-7.8-12.1
		c1.6-10.4-7-11.9-7.2-11.8c0-0.9-0.1-1.5-0.2-2.2C35.8,192.7,36.9,192.6,38,192.3z M34.2,192.8c-0.1,0.2,0.4,2.3-0.5,1.9l-0.1-1.9
		L34.2,192.8z M28.1,192.9l1.1,0c0.3,1.4,1,1.7,2,2.6c0,0-1.2,0.2-1.5,0C29.2,195.1,28.1,192.9,28.1,192.9z M32.9,195.2
		c0.6,0,1.1,0.5,1.1,1.1c0,0.6-0.5,1.1-1.1,1.1c-0.6,0-1.1-0.5-1.1-1.1C31.8,195.7,32.3,195.2,32.9,195.2z M35,196.1
		c3.1-0.2,7.6,3.1,6.4,9.3c-0.2-0.4-0.4-1.4-0.9-2.1c-2.1-2.9-4.6,1.1-2.9,2.7c0.8,0.8,1.2,1.1,1.1,1.2c-1.9-0.4-3.3,1.3-2.6,3.2
		c1.3,2.4,3.2,1.1,4.2-0.3c0,0,0.7,2.2,1.3,2.4c1,0.4,2.4-0.1,2.8-1.3c0.7-1.8-1-2.3-1.4-3.3c3.6,0.1,8.1,5.4,6.1,9.9
		c0.3-1-0.8-3.4-3-2.8c-1.1,0.4-1.4,1.9-0.6,3.6c0.3,0.5,0.4,0.7,0.4,0.7s-0.9,0.1-1.2,0.3c-2.8,1.7,0.8,6.4,2.9,3.5
		c0.2-0.3,0.6-0.7,0.6-0.7c0.3,0.7,0.4,1.6,1.1,1.9c2.6,1.3,3.7-1.4,2.6-2.8c-0.6-0.8-1.3-1.6-1.3-1.6c-0.1-0.5,7.7,1.6,6.8,9.2
		l-20.7,0c1.9-11.7-2.7-25.1-5.1-29.2l1-1.4c0.3,0.5,0.7,1.8,1.4,2c2.4,0.8,3.1-0.9,2.8-2.6C36.7,196.9,35.4,196.2,35,196.1
		L35,196.1z M40.5,207.1c0.6,0,1,0.5,1,1s-0.5,1-1,1s-1-0.5-1-1S40,207.1,40.5,207.1z M48.3,219.3c0.6,0,1,0.5,1,1s-0.5,1-1,1
		c-0.6,0-1-0.5-1-1S47.7,219.3,48.3,219.3z"/>
	<path d="M131.2,223.5c7.9-0.2,11.4-9,5.6-15.9c-0.8-1-0.9-1.6,0.6-0.6c3.9,2.6,11.4,0.9,11.8-7.1c0.5-9.9-13.3-12.7-15.9-2.2
		c-0.1,1.1-1,1.1-0.8-0.5c0.2-4.3,1.6-8.2,3.4-12.1c-3.1,0-6.5,0-9.3,0c1.8,3.9,3.2,7.9,3.4,12.1c0.2,1.6-0.7,1.6-0.8,0.5
		c-2.6-10.5-16.4-7.6-15.9,2.2c0.4,8,7.9,9.7,11.8,7.1c1.5-1,1.5-0.4,0.6,0.6C119.8,214.5,123.3,223.4,131.2,223.5L131.2,223.5
		L131.2,223.5z"/>
	<path d="M48.3,26.4c7.9,0.2,11.4,9,5.6,15.9c-0.8,1-0.9,1.6,0.6,0.6c3.9-2.6,11.4-0.9,11.8,7.1c0.5,9.9-13.3,12.7-15.9,2.2
		c-0.1-1.1-1-1.1-0.8,0.5c0.2,4.3,1.6,8.2,3.4,12.1c-3.1,0-6.5,0-9.3,0c1.8-3.9,3.2-7.9,3.4-12.1c0.2-1.6-0.7-1.6-0.8-0.5
		c-2.6,10.5-16.4,7.6-15.9-2.2c0.4-8,7.9-9.7,11.8-7.1c1.5,1,1.5,0.4,0.6-0.6C37,35.4,40.5,26.6,48.3,26.4L48.3,26.4L48.3,26.4z"/>
</g>
</svg>
