<?xml version="1.0" encoding="utf-8"?>
<!-- Generator: Adobe Illustrator 21.0.0, SVG Export Plug-In . SVG Version: 6.00 Build 0)  -->
<svg version="1.1" id="Layer_1" xmlns="http://www.w3.org/2000/svg" xmlns:xlink="http://www.w3.org/1999/xlink" x="0px" y="0px"
	 viewBox="0 0 178.6 249.4" style="enable-background:new 0 0 178.6 249.4;" xml:space="preserve">
<style type="text/css">
	.st0{fill:#FFFFFF;}
	.st1{fill:#E2CF00;}
	.st2{fill:#131F67;}
	.st3{fill:#D40000;}
</style>
<g>
	<path class="st0" d="M9,0.6h161.5c4.7,0,8.5,3.8,8.5,8.5v232.4c0,4.7-3.8,8.5-8.5,8.5H9c-4.7,0-8.5-3.8-8.5-8.5V9.2
		C0.5,4.5,4.3,0.6,9,0.6z"/>
	<path d="M14.2,40.6C10.8,45,7.1,47.5,7,50.9c0,1.1,0.7,3,2.8,3.4c1.4,0.2,3.2-0.8,3.3-2.8c0-0.4,0.5-0.4,0.5,0.2
		c-0.1,1.6-0.6,3.4-1.6,4.9c1.5,0,3,0,4.5,0c-0.9-1.5-1.5-3.3-1.6-4.9c0-0.5,0.5-0.6,0.5-0.2c0,2,1.9,3,3.3,2.8
		c2.1-0.4,2.8-2.2,2.8-3.4C21.4,47.5,17.7,45,14.2,40.6z"/>
	<path d="M165.3,210.1c-3.4-4.4-7.1-6.9-7.2-10.3c0-1.1,0.7-3,2.8-3.4c1.4-0.2,3.2,0.8,3.3,2.8c0,0.4,0.5,0.4,0.5-0.2
		c-0.1-1.6-0.6-3.4-1.6-4.9c1.5,0,3,0,4.5,0c-0.9,1.5-1.5,3.3-1.6,4.9c0,0.5,0.5,0.6,0.5,0.2c0-2,1.9-3,3.3-2.8
		c2.1,0.4,2.8,2.2,2.8,3.4C172.4,203.2,168.7,205.7,165.3,210.1z"/>
	<path d="M8.4,29.4H6.2v-3h2.2c0,0,0-1.6,0.1-4.5c0.1-6.1,0.3-7,2.1-8.7c3.5-3.3,9.3-0.6,9.2,4.4c-0.1,7,0,13.7-0.2,14.7
		c-0.4,1.7-0.4,1.8-0.3,2.1c0.3,0.6,2.9,0.9,2.9,0.7v3c-2,0.2-2.8,0-4.5-1.2c-1,1-4.1,1.9-6.5,0.8C9.4,36.7,8,34.5,8.4,29.4z
		 M15.9,34.6c-1.1-1.6-2.9-3.7-4.7-4.5c-0.1,1.8,0,3.3,0.7,4.2C12.9,35.6,14.6,35.9,15.9,34.6z M16.8,17.2c-0.8-2.3-2.9-3.1-4.4-1.6
		c-1,0.9-1.1,1.8-1.1,7c0,3.2,0,4.5,0,4.5c3,1,5.7,4.4,5.7,4.4l0.1-9.5C17.1,20.3,17,18.8,16.8,17.2L16.8,17.2z"/>
	<path d="M171.1,221.4h2.2v3h-2.2c0,0,0,1.6-0.1,4.5c-0.1,6.1-0.3,7-2.1,8.7c-3.5,3.3-9.3,0.6-9.2-4.4c0.1-7,0-13.7,0.2-14.7
		c0.4-1.7,0.4-1.8,0.3-2.1c-0.3-0.6-2.9-0.9-2.9-0.7v-3c2-0.2,2.8,0,4.5,1.2c1-1,4.1-1.9,6.5-0.8C170.1,214,171.5,216.3,171.1,221.4
		z M163.6,216.1c1.1,1.6,2.9,3.7,4.7,4.5c0.1-1.8,0-3.3-0.7-4.2C166.6,215.1,164.9,214.8,163.6,216.1z M162.7,233.5
		c0.8,2.3,2.9,3.1,4.4,1.6c1-0.9,1.1-1.8,1.1-7c0-3.2,0-4.5,0-4.5c-3-1-5.7-4.4-5.7-4.4l-0.1,9.5C162.4,230.4,162.5,232,162.7,233.5
		L162.7,233.5z"/>
	<path class="st1" d="M82.1,229.6l18.8-34.3c0,0,4.5,1.8,9.8,3.1c-5.1,13.3,0,30.8,0,30.8L82.1,229.6z M30.7,171.1
		c-1.1-14.6,0.6-26.9,1.3-40.3c0-0.2-6.1-4-6.1-4l14.4-8.1c1.4,0.7,2.3,0.6,2.6-0.8c-1.5-5-1.7-9.8,1.6-13.9c2.5-3,8.2-1.5,9.9-1.5
		c1.3,0,4.4-10.2-0.8-13.3c-1.1-0.6-1.6,6-2.4,8.8c-3.3-2-9.5-3.6-10.4-7.1c-0.4-1.9,5.7-5.6,4.5-7.8c-1.7-3.1-6.2-7.8-8.1-6.6
		c-1.8,1.6-6.1,5-6.1,7.3c1.4,4.1,4.8,4.4,6.6,8.3c0.5,0.8,3.8,4.4,3.8,4.4c-1.2,1.9,0.8,5.3,0.9,4.7l-15.8-6.9
		c0,0,3.6,27.2-0.2,31.2c-0.4,0.4,3.4-1.1,3.4-0.8c1.1,1.5,13.9,9.6,17.5,12.5c6.5-9,8.8-13,17.2-21c1.8-1.5,5.9-4.3,8.2-7.6
		c1.9-2.7,2.7-5.7,2.3-8c-0.4-3-0.7-5.1-2.6-7.5c-4.3-5.6-11.1-10.9-11-11l2.3-1.9c0,0,8.4,7,12,12.1c2.4,3.5,2.4,8.2,2.4,8.2
		s4.9-0.2,6,0c0.1,0,20.7,18.8,20.7,18.8L66,119.7c-7.3,6.9-11.1,12.7-18.1,22.5c-0.4-0.2-12.6-9.8-12.1-8.7c0,0,2.9,26.4,1.6,36.1
		c-0.9,8.2-2.1,17-2.7,24.6c1.7-0.4,4.3-0.9,4.8,1.8c0.4,3.6-4.2,2.8-4.3,2.5l2.6,5.6c0,0-4,6.9-3.9,6.6c0.1-0.2-3.6-6.2-3.6-6.2
		s2.8-5,3.2-6c0.3-0.7-4.2,1.8-4.4-1.8c-0.2-3.8,4.7-2.9,4.5-2.4C32.9,186.2,31.5,177.8,30.7,171.1z M91,189.2
		c0.1-0.1-10.7-4.3-20.6-3.9c-3.5-1.4-9.2-2.8-13-0.2c-4.3-2.9-8-6.1-11.7-9.2c1,0,5.6-25.9,7.5-34.1c-1.1-10.9,9.4-10.9,10.3-2.2
		c11.3,11.7,25.2,23.9,39.5,35.8C100.9,180,92.7,183.6,91,189.2z M115.8,111.7c-12.9-13.2-40-36.8-40-36.8l12.7-12.4
		c6.7,2,13.5,3.6,21.2,3.7c0,0,8.5,3.8,13,0l11.7,9.3c0,0-4.9,25.5-7.7,34.5c0.1,3.5-1.3,7.8-4.8,8.5
		C118.9,119,116.7,114.8,115.8,111.7z M142,81.2c1.3-8.3,1.6-14.3,2.6-24c-5.8,1.7-5.8-6.2,0-4.1l-2.7-5.9l3.9-6.6l3.6,6.3l-3.1,5.6
		c6.7-0.1,5,6.6-0.7,4.9c1,9.3,3.4,18.7,3.2,27.8c2,14.7-2.5,35.2-1.7,35.7l6.3,4.3l-1.1,32l-10-4.4l-3,2c1,1.9,2.2,3.7,2.6,5.7
		c0,0,6.9,5.6,5.9,7.4c0.4,0.3-4.9,7.3-6.4,7.1c-3-0.3-6.4-4.2-7.4-6.9c-0.8-2.8,6.2-5.5,5.3-7.5c-1.1-2.4-3.7-3.6-6.1-4.3
		c-3.3-1-4.7-3.6-4.9-3.6c0,0-1.3,10.2-2.5,9.4c-4.9-3.3-1.5-13.7-0.6-13.4c0,0,2.1,0.5,4.7,0.7c8.9,0.9,8.3-10,6.6-15.3
		c-0.6-2.1,2-1.4,3.1-1.7c4.3-1.3,11-5.7,11-5.7c-7-3.9-13.1-8.3-18.6-12.5c0,0-5.1,8.7-11.2,14.8c-4.4,4.4-5.1,5.9-12.5,11.6
		c-0.1,0.1-5.6,6.6-3,14.3c2.2,6.5,12.9,13.6,12.8,14.1l-2.1,2c0.1,0.1-15.1-9.5-14.8-19.7c0-0.4-6.9-0.5-6.9-0.5l-20-18.6l17-0.1
		l8.7,7.1l5.4,0.3c0.4,0.3,0.6-1.4,5.4-5c9.2-6.8,20.5-24.4,20.5-24.4l12,8.5C142.8,105.8,140.7,92.1,142,81.2z M98.2,21.1
		c0,0-12.5,23.5-19.3,34.5l-9.7-2.8c4.1-10.8,0.2-31.4-0.8-31.9L98.2,21.1z"/>
	<path class="st2" d="M24.1,19.8V231h131.2V19.8H24.1z M68.3,21c14.9,0.6,29.8,0.5,44.7,0.5c0.1,1.2-1.7,4.2-3.2,4.3l-0.7,1.2
		c2.7-0.9,4-2.7,4.8-5.5h1.1c0,0-0.2,0.5-0.6,1.6c-1.1,2.8-3.4,5.4-6.1,5.3l-0.5,1c3.7-0.1,6.6-3.6,7.4-6.2c0.3-0.9,0.5-1.6,0.5-1.6
		h1.2c0,0-0.3,1.1-0.5,1.7c-1.8,5.8-6.7,7.5-9.4,7.4l-0.4,0.7c5.5,0.3,9.8-4.5,10.4-8.5c0.1-0.5,0.4-1.3,0.4-1.3h1.1
		c0,0-0.3,1.2-0.4,1.7c-1.5,6.3-7.9,9.9-12.2,9.2c-0.2,0.3-0.4,0.7-0.5,1c8.5-0.3,11.1-4.7,13.1-8.6c2.3,3.5,4.3,7.3,9.9,9.4v1.3
		c0,0-0.6,0.1-1.1,0c-6.8-1.1-9,5.2-6.1,14.7c0.8,2.6,0.4,2.2-1.2,3.8c-0.8,0.8-1,2.3-1,2.3s0.4-0.7,1.1-1.3
		c0.3-0.3,0.9-0.5,1.4-0.8c1.2-0.7,1.2-1.2,0.8-2.9c-0.4-2.1-1.1-4.1-1.2-6.3c0.9,0.5,1.6,1.2,2.6,1.3c0,0-0.5-0.6-1-0.9
		c-0.7-0.5-1.2-1.1-1.7-1.8c0,0,0.6,0.2,0.9,0.3c2.3,0.7,4.3,0.7,6.6-0.7c0.3,6.2-0.6,15.7-5.8,22.5c-4,4.5-11.7,1.1-14.5-0.3
		c-1.1-0.6-9.6-5.7-12.2-14.9L95.7,51c1,2.3,2.2,5.5,2.2,5.5c-0.1-0.3,0.4,2.5,1.3,7.3c-0.5,0-1-0.1-1.5-0.3
		c-1.1-4.3-1.4-7.6-2.4-11.7l-0.5,0.9c0,0.1,1.2,7.7,2.1,10.7c-0.5,0-1.4-0.2-1.4-0.2c-0.7-3.2-1.2-5.3-1.8-8.4l-0.5,1
		c0.8,2.5,1.1,4.8,1.5,7.2c-0.6-0.1-1.2-0.1-1.8-0.5c0,0-0.8-4.2-1-4.6l-0.5,0.8c0.1,0.3,0.7,2.5,0.7,3.5c-0.6-0.1-1.6-0.4-2.3-0.6
		c-0.2,0.4-0.7,1.2-0.7,1.2v0c0,0,14.8,4.7,19.5,3.3c0,0.1,9,4,14.1,0.7c0,0,8.8,6.5,12.2,9.1c0,0.3,1.2,1.8,2.4,2.6
		c3.1,2,4.9,4.6,4.8,3.5c0.2-1.6,1.6-14.9,1.9-17.3c1-8,1-7.9-0.2-7.5c-5.2,1.3-4.4-5.7,0.5-4.5l-2.5-5.4c0,0,2.7-4.9,4.1-6.7
		l3.5,6.4l-2.9,5.7c5.7-0.4,5.1,6.7-0.4,4.3c0,0,0,2.1,0,2c0.1-0.6,0-1.1,0.2-1.2c5.4,1.9,6.8-5.7,0.8-5.5c1-1.7,1.8-3.3,2.8-5.1
		l-4.2-7.6l-4.7,7.9l2.4,4.9c-0.5-0.1-1-0.1-1.5,0c-3.5,0.7-2.7,6.4,1.3,5.6c0.5-0.1,1.1-0.4,1.1-0.4l-2.6,23.1c0,0-0.3,0.2-1.3-0.5
		c-1.2-0.9-3.7-2.7-3.9-2.9c0.9-14.7-2.8-30.3-7-40c-0.3-0.7-0.1-15.4-0.1-15.4h24.1v68c-1.2-0.8-2.7-1.8-4-2.7
		c-0.4-0.3-0.6-0.7-0.5-1.3c-0.4,0.9-0.2,1.3-0.2,1.3l5.3,4.2l-0.2,66.9c-9.4-4.2-8.6-5-16.2-7.2c0,0,1.7,3.7,1.2,4.4
		c1.1,1.1,3,3.3,3.1,5.6c1,0.9,1.3,1,2,2.2l3.2-1.1l-0.7,3.3c3.4,2.4,0.1,5.5-0.5,5.2c0,0,1.5,3.2,1.8,4.6c-0.5,0-3.2-1.5-3.9-1.8
		c-1.9,3.8-5.2,0.6-5.2,0l-3.6,1.6l1.3-4.1c-2.3-1.4-3.9-3.6-0.1-5.9l-0.9-3.2l3.1,1.2c0,0,0.6-0.9,1-1.6c-1.2-5-8.8-4.1-11.2-8.6
		c0,0-0.6,5.7-1.2,7.7c-0.2,5.4-4-0.1-4-5.8c0-1.3,1.6-5.6,2.2-5.9c0.6-0.1,6,2.5,9.6-0.1c1.7-1.7,4.5-6.6,1.8-14.2
		c-0.9-1.8,1.7-2,2.6-1.4c0,0,7.9-4.2,11.5-6.2c-6-3.3-18.5-12.1-18.5-12.5c-1.7,2.6-3.6,4.9-6.3,8.6c-4.3,5.1-7.7,10-13.3,14.1
		c-7.8,5.7-9.6,11.4-7.4,18c1.6,5.1,7.2,8.5,12.9,13.9c-9.9,9-16.6,16.4-21.4,24.5c4,2.1,13.7,5.2,13.7,5.2c-3.6,11.9-2,21.4,0.4,31
		c0,0-28,0-42.6-0.4c-0.1,0.1-1.7,0-1.7-0.1c-0.1-1.1,2.6-4,3.4-3.6c0.4-0.4,1.3-0.6,1.1-1.1c-2-0.2-5.1,3.2-5.2,4.7h-1.2
		c-0.2-0.2,2.2-5.9,7-6.3c-0.1,0.2,0.6-0.4,0.1-0.7c-5.6,0.7-8.3,6.9-8.1,7h-0.9c1.9-6.2,6.9-8.1,9.8-8.4c0,0,0.9-0.3,0.7-0.9
		c-6.4,1.1-9.6,3.9-11.1,9.3h-1.2c0.8-5.5,6.4-10.2,12.8-10.1c0.2-0.1,0.4-0.3,0.3-0.9c-7,0.8-10.5,3.1-13.4,9.2
		c-2.6-6.7-9.8-9.9-9.8-9.9c0,0-0.2-1.9,0.2-1.8c6.1,2.2,8.5-3.1,8.2-6.2c-0.1-1.7,0-2.7-0.6-5.1c-0.5-2.2-0.9-3.7-0.9-4.7
		c0-1,0.3-1.1,1-1.5c1.3-0.6,2.1-2.8,1.8-3c-0.7,1.6-2.5,1.8-3.3,2.9c-0.7,0.9-0.4,2.3,0.8,7.1c0.7,2.9-0.1,1.6-1.8,0.7l-1.1-0.6
		c0.7,0.8,1.5,1.5,2.3,2.2c0.7,0.6,0.3,1-0.7,0.6c-1.4-0.7-4.1-0.4-5.1,0.5c-0.4,0.3-0.5,0.3-0.6,0c-0.5-7.5,0.3-12,2.8-17.6
		c1.6-3.8,4-6.7,7.1-6.9c3.2-0.3,7.8,0.9,11.9,3.7c4.9,3.3,9.7,8.4,10.2,14.6c0,0.1,0.4-0.5,0.5-0.8c0.2-0.7-0.6-3-1.9-5.5
		c-0.2-1.9-0.9-5.3-1.4-7.6c0.4-0.2,1.2-0.1,1.5,0.2c0.9,3.8,1.5,6.7,2.3,11.8c0,0.5,0.6-0.7,0.6-1.1c-0.1-0.8-2.2-10.7-2.2-10.5
		c0-0.3,2,0.1,1.7,0.4c0,0,1.5,8.3,1.6,8.1l0.5-0.7c0,0-1.4-6.1-1.3-7.3c0.1-0.2,1.2,0.2,1.6,0.4c0.4,0.6,0.7,2.8,0.9,4.3
		c0.5,0.4,0.6-0.7,0.6-1c-0.4-0.6-0.8-2.8-0.5-2.9c0.2-0.1,1.5,0.4,1.8,0.6c0.3,0.3,1.4-1.3,1.1-1.6c-6.1-2.3-13.7-3.7-19.4-3.8
		c-1.3,0-1.9-0.2-3.9-0.9c-5.2-1.9-9.5,0-10.2,0.6c-6.4-4.4-13.5-10.6-19.1-14.6c-0.3-0.2-0.9-0.3-1-0.3c-0.9,6.9-1.5,14.8-2.3,21.2
		c-0.3,2.5-0.3,2.9-0.2,3c1.9-1,4.3-0.4,4.7,1.2c0.7,2.4-1.6,4-3.8,2.8c-0.8-0.4-0.9-0.3-0.6,0.5c0.6,1.4,2.5,5.3,2.5,5.3
		c0,0-2.5,5.3-3.8,6.7c-1.2-2-2.9-4.2-3.6-6.4c1-1.9,2.8-4.4,3.4-6.3c-2.2,1-4.7,0.7-4.7-2.2c0.1-2.1,1.9-2.6,4.6-1.6
		c-2.8-18.1-3.5-28.9-2.9-29c-0.2-0.1-3.4-2.5-5.1-4.1l0.2-139.6h41.3c4.2,11.4,3.1,25.1,0.5,32.3c4.5,0.8,9.1,1.9,14.2,4.9
		C73.2,71.4,59.6,85.2,44.8,94c-0.8,0.4-3.6-1.3-3.9-3c-0.1-0.4,0.1-1.2,0.6-1.2c1.1,0.4,2.1,0.8,3.2,1.3c0,0-1.5-3.7-0.8-4.3
		c0.5-0.3,0.8-0.6,1.1-0.9c1.1-1.4,1-2.9-0.1-4.1c-0.5-0.5-1-0.8-1.2-0.9c0,0,1-2.9,1.6-4.3L41.2,78c-1.9-2.8-4.5-2.7-5.8,0
		c0,0-0.9-0.3-2.6-1.1c-1.4-0.6-2.3-1-2.3-1c0.5,1.6,1.2,3.1,1.9,5c-2.8,1.8-2.2,4.8,0.2,5.8l-1.3,4.1c0,0,2.7-1,4.1-1.4
		c0,0,1.3,1.3,1.6,2.5c0.6,2.1,2.1,3.6,3,4.5c-1.5,1.1-2.3,1.5-4,2.4l6,2.4c-0.4-1.3-1.2-2.2-1.2-3.8c-0.1-1.4-0.1-1.4-1-2.3
		c-1.6-1.4-1.8-3.1-2.4-4.2c-0.7-0.4-1.2-1.1-1.6-1.9c-0.4-0.8-3,1.1-3.4,0.7c-0.5-0.5,0.8-3.1,0.7-3.4c-1.1-0.1-4-2.4-0.5-5
		l-1.1-4.2c0,0,2.7,1.2,4,1.8c0.9-4.2,5-2.2,5.6-0.4c0,0,3.2-1.1,3-0.2C44,79.1,43.5,81,43.5,81c2.9,2.6,2.3,3.8-0.1,5.5
		c0,1.4,0.5,3.5,0.5,3.5s-1.6-0.7-2.7-1c-0.4,0.4-0.9,1.2-0.8,1.6c0.7,3.2,4.7,4.2,10.7,7.5c0.2-2.1,1.6-5,1.8-7.5
		c0.1-1.8,0.2-1.9,1.5-1.3c3.4,2.5,2.4,9.2,1.1,12c-0.7,1.6-0.9,1.5-2.3,1.1c-2-0.6-5.5-0.4-7.4,0.3c-2.7,1.1-3.9,7-3.9,8.8
		c0,1.7,0.1,3.4,1,5.5c0.4,1.4-0.3,2.4-1.5,2c-0.3-0.1-0.9-0.3-0.9-0.3l-11.5,5.9l0.3,0.5c0,0,7.4-3.9,11.1-5.8
		c1.8,0.7,1.6,0.9,2.8-0.4c0.7-0.7,1.1-0.7,2-0.7c5.8,0.6,8.4-0.3,9.4-2.7c0.2-0.4,0.1-0.4,0.7-0.7c1.1-0.4,1.6-1.2,1.7-2.2
		c0-0.6,0.3-0.7,0.8-1.2c0.9-0.8,1.1-1.9,0.5-2.9c-0.3-0.5-0.5-0.7-0.4-1.2c0.2-0.9-0.1-1.8-1-2.7c-1-1.1-1-0.9,0.9-2.6
		c3.6-3.4,6.7-6,10.2-9.1c2.4-2.1,2.1-2,3-1c3.4,3.5,4.7,9.1,3.2,13.9c-0.1,0.2-0.1,0.2,0.1,0c1-1.1,1-6.6,0.2-9c-1-3-2-4.6-5.3-7.5
		c-2.1-1.9-7.7-7.3-7.7-7.3c8.2-7.1,17-15.9,21.9-24.1c-2.5-2.7-14.3-5.2-14.3-5.2C70.4,49.8,73.3,36.1,68.3,21L68.3,21z
		 M119.1,21.5l1.1,0c0.5,3.8,3.9,8.3,7.4,9.7c0.5,0.2,1,0.7,1,0.7v0.8c0,0-0.6,0.2-1,0.1c-2.6-1.3-6.3-4.2-8.4-9.3
		C119.1,22.7,119.1,21.5,119.1,21.5z M121.1,21.5h1.1c0.6,3.6,3.2,6.1,6.3,8.2v0.7l-0.5,0.2C125.4,29.5,121.3,25.4,121.1,21.5z
		 M123,21.5h1.4c0.5,2.4,1.8,4.4,4.2,5.8v1.6C125.4,26.6,123.5,24.5,123,21.5z M125.1,21.5h1.1c0.4,1.6,1.3,2.6,2.4,3.7v1.5
		C126.7,25.4,125.4,23.2,125.1,21.5z M128.6,21.5l0,2.7c-0.9-0.8-1.3-1.3-1.7-2.7L128.6,21.5z M106.5,35.7c-2.2,1-2.8,1.7-2.5,1.9
		c0.2,0.2,1.7-0.4,2.4-0.5c3.9-1,6.6-1.2,9.2-0.1c0.9,0.4,1.5,0.5,1.5,0.5s0-0.8-0.9-1.5C113.2,33.9,109.6,34.3,106.5,35.7z
		 M125.9,36.5c0.2,0,0.4,0,0.5,0c0.8,0.1,1.6,0.4,2.1,0.9l0,1.6c-1.8-1.6-3.8-1.6-5.9-1.2C123.3,37,124.6,36.6,125.9,36.5
		L125.9,36.5z M110.2,37.5c-3.7,0.3-5,2.2-7.4,4.1c-1,0.7-0.8,1.3,0.4,1.1c1.5-0.2,2.1-0.2,4.1,0.5c2.2,0.8,3.8,1.1,5,0.6
		c1-0.4,1.5-0.5,1.6-0.3c0.1,0.3-0.7,1.1-2.8,2.8c-0.7,0.5-1,1-1,1s0.7-0.1,1.7-0.9c1.3-1,2.2-1.7,2.5-2.3c0.1-0.3,0.1-1.3,0.4-1.3
		c0.8,0,0.4-1-0.4-1.5c-0.5-0.4-0.4-0.7,0.3-1.4c1-1.1,0.7-1.5-0.4-0.9c-0.2,0.1-0.3-0.2-1-0.6C112.2,37.8,111.3,37.5,110.2,37.5z
		 M110.6,38.1c0.8,0,1.6,0.2,2.3,0.7c0.4,0.3,0.4,0.7,0.4,0.7s-0.8,0.3-1.9,0.2c-1.7,0-3.1,0.2-5,0.8c-1.4,0.5-2,0.6-2,0.6
		s0.5-0.5,1-0.9C106.6,39.2,108.7,38.1,110.6,38.1z M124.5,38.2L124.5,38.2c1.7,0,2.8,0.6,4,1.6l0,0.3c0,0-0.7,0-1.4-0.2
		c-1.3-0.5-3.1-0.4-4.3-0.1c-1.3,0.3-1.5,0.5-1.3-0.2C121.6,38.8,123,38.2,124.5,38.2L124.5,38.2z M109.1,41.3c0.1,0,0.6,0,0.7,0
		c0.4,2.2,2.1,1.5,2.3,0.1l0.6,0C112.4,43.2,110,44.7,109.1,41.3z M123.6,41.3c0.3,1.7,1.9,2.3,2.6,0.1l0.6,0
		c-0.4,3.6-4.2,1.8-3.6-0.1L123.6,41.3z M108.5,41.3c0.2,0.6,0.5,1.1,0.7,1.6c-1-0.2-1.6-0.4-2.2-0.8
		C107.5,41.6,107.8,41.4,108.5,41.3z M122.5,41.4c0.1,0.6,0.3,1.1,0.6,1.8c0,0-0.6-0.1-1-0.2c-0.4-0.1-0.8-0.3-0.8-0.6
		C121.4,41.7,121.8,41.5,122.5,41.4z M127.4,41.5c0.3,0.1,0,0,1.1,0.3c0,0,0,0.5,0,0.7c-0.6,0.3-1.7,0.8-1.8,0.7
		C126.8,43.3,127.4,41.6,127.4,41.5z M113.2,41.5c0,0,0.2,0.1,0.3,0.1c0.2,0,0.3,0.1,0.3,0.2c0.1,0.2,0,0.6-0.2,0.8
		c-0.3,0.2-1,0.4-1,0.4C113.1,42.5,113.1,42,113.2,41.5z M114.7,50.8c0,0-1,0.1-1.3,0.3c-1.5,0.9-1.2,4,0.5,4.4
		c0.7,0.2,1.3,0.3,2.4-0.3c0.7-0.3,1.6-0.6,1.9-0.5c0.6,0.2,0.7-0.3,0.9-0.8c0.3-1.2-1.8-1.3-3.4,0c-2,1.6-3.6-0.8-1.7-2.6
		C114.2,51.1,114.7,50.8,114.7,50.8z M98.6,57.4l1.7,2l1.1,4.7c-0.7,0.1-1.4-0.3-1.4-0.3C99.4,61.8,98.9,59.6,98.6,57.4z
		 M121.9,58.6L121.9,58.6c-0.1,0-0.5,0.2-0.9,0.2c-0.3,0-0.6-0.2-0.9-0.1c-0.8,0-1.5,0.3-1.6,0.3c-0.2,0.1-0.5,0.1-0.7,0
		c-0.6-0.3-2.2-0.2-2.7,0.1c-0.6,0.3-1.2,0.3-1.7,0c-0.2-0.1-0.4-0.4-0.5-0.3c-0.1,0.1-0.4,1.4-0.5,1.9c0,0.2-0.1,0.5,0,0.5
		c0.1,0,0.4-0.2,0.8-0.4c0.8-0.4,1.7-0.4,3.2,0c1.9,0.5,2.6,0.3,3.7-0.2c0.9-0.5,1.4-0.6,2-0.4c0.1,0,0.5,0.2,0.6,0.2
		c0.1-0.1-0.2-0.7-0.4-1.2C122.1,58.8,122.1,58.6,121.9,58.6L121.9,58.6z M101.6,60.8L101.6,60.8c1.7,1.6,1.5,1.4,2.6,2.2l0,1.5
		c0,0-1.3,0-1.9-0.2C102,63.7,101.1,60.8,101.6,60.8L101.6,60.8z M115.2,61.3c-0.3,0-0.2,0.3,0,0.4c0.1,0.1,0.3,0.2,0.5,0.2
		c0.6,0.2,1.2,0.4,1.8,0.6c0,0-0.6,0.2-0.8,0.3c-0.5,0.2-1.3,0.3-1.4,0.8c0,0.1,0.1,0.1,0.2,0c0.9-0.4,3.1-0.6,4.1-0.4
		c1.3,0.4,1.4,0.1,0.1-0.5c-0.3-0.1-0.9-0.2-0.9-0.2s0.7-0.3,0.9-0.4c0.2-0.1,0.4-0.2,0.6-0.3c0.8-0.5,0.2-0.7-0.7-0.2
		c-1,0.5-2.8,0.5-3.6,0C115.7,61.5,115.4,61.3,115.2,61.3z M104.8,63.5l1.5,1.2l-1.6-0.2L104.8,63.5z M69.8,93.9
		c-0.3,0-0.6,0.3-0.6,0.6c0,0.3,0.3,0.6,0.6,0.6c0.3,0,0.6-0.3,0.6-0.6C70.4,94.2,70.1,93.9,69.8,93.9z M71.9,94.5l-7.1,3.4l1.9,0.6
		l0,1.9l1.7-0.6l0.7,1.8L71.9,94.5z M72.2,96.1c-0.3,0-0.6,0.3-0.6,0.6c0,0.3,0.3,0.6,0.6,0.6c0.3,0,0.6-0.3,0.6-0.6
		C72.7,96.3,72.5,96.1,72.2,96.1z M63.2,99.5c-0.3,0-0.6,0.2-0.6,0.6c0,0.3,0.3,0.6,0.6,0.6c0.3,0,0.6-0.3,0.6-0.6
		C63.8,99.8,63.5,99.5,63.2,99.5z M65.4,100.6l-8,3.7l2.4,0.7l-0.6,2.4l1.9-0.8l1.1,1.6L65.4,100.6z M65.6,102.3
		c-0.3,0-0.6,0.3-0.6,0.6c0,0.3,0.3,0.6,0.6,0.6c0.3,0,0.6-0.3,0.6-0.6C66.2,102.6,65.9,102.3,65.6,102.3z M49.8,102.7
		c3,0,6.4,1.1,7.5,3.7c0.3,1.3-1,2-3.6,1.3c-4.4-1.2-5.3-1.4-4.5-0.6c0.1,0.1,0.3,0.3,1,0.6c1.7,0.6,4.9,1.2,5.8,1.1
		c1.2-0.2,2,0.4,1.7,1.4c-0.3,1.1-1.9,1.6-4.2,1.3c-2.4-0.3-3.7-0.6-4.5-0.9c-1-0.3-1.1-0.3-0.6,0.4c0.3,0.4,0.3,0.7,0.7,0.8
		c1.6-0.1,3.3,0.2,4.8,0.4c2.6,0.2,3,1,1.1,2.1c-0.9,0.5-3.7,0.4-5.2-0.2c-1.1-0.4-3.7-1-2.7-0.2c0.2,0.2,0.2,0.6,0.6,0.8
		c1.3,0.2,5.2,0.5,5.8,1c0.4,0.3-0.5,1.2-2.3,1.7c-2.7,0.5-6.7,0.3-7.7-0.4c-2-4-0.9-10.5,2.2-13.1C46.4,103.1,48,102.7,49.8,102.7z
		 M67.4,104.8c-0.3,0-0.6,0.3-0.6,0.6c0,0.3,0.2,0.6,0.6,0.6c0.3,0,0.6-0.2,0.6-0.6C67.9,105,67.7,104.8,67.4,104.8z M69.7,105.4
		l-8.2,4.1l2.1,0.6l-0.5,2.4l1.9-0.8l1.2,1.6L69.7,105.4z M69.8,107.4c-0.3,0-0.6,0.3-0.6,0.6c0,0.3,0.3,0.6,0.6,0.6
		c0.3,0,0.6-0.3,0.6-0.6C70.4,107.6,70.1,107.4,69.8,107.4z M74.6,112.2c-3.6,3.6-7.8,6.4-11.5,9.8l0.8,0l2-1.8l57.6-0.2l-1.3,2
		l0.6,0.2c0,0,1.7-2.6,1.6-2.7c-12.6,0-22.4,0-36.3,0.1c-2.5-2.5-5.2-4.9-7.8-7.2L74.6,112.2z M57.1,114.5c-0.3,0-0.6,0.3-0.6,0.6
		c0,0.3,0.3,0.6,0.6,0.6s0.6-0.3,0.6-0.6C57.6,114.7,57.4,114.5,57.1,114.5z M132.2,114.9c5.7,4.7,11.5,8.4,17.5,11.9
		c-3.1,1.7-6.8,3.7-9.9,5.2c-1.2,0.4-1.7-0.1-2.5,0c-0.6,0.2-0.8,0.3-1.1,0.7c-0.6,0.8-0.4,0.8-3.6,0.6c-3.2-0.1-4.5-0.1-5.2,0.3
		c-0.7,0.3-1.8,1.5-1.8,2c0,0.5-0.4,1-1,1.2c-0.8,0.2-1.6,0.8-1.6,1.7c-0.2,0.7-0.6,1-1,1.4c-0.9,0.9-0.8,1.6-0.6,2.5
		c0.1,0.4,0.6,0.4,0.2,1.4c-1,2.8,2.3,4.3,2.4,4.3l-14.5,12.5c-1.6-1-3.3-3.8-3.8-5.6c-2-6.7,0.5-11.9,4.4-15.2
		c1.3-1.1,3.1-2.5,3.6-2.8C120.9,130.8,127.3,122,132.2,114.9z M59.2,115.4l-8,3.8l2.6,0.4l-0.5,2.2l1.9-0.7l1,1.9L59.2,115.4z
		 M59.7,117.2c-0.3,0-0.6,0.3-0.6,0.6c0,0.3,0.3,0.6,0.6,0.6c0.3,0,0.6-0.3,0.6-0.6C60.2,117.4,60,117.2,59.7,117.2z M132.4,117.5
		c0,0-2.5,6.3-3.1,8.4c2.2-1.1,8.4-4.3,8.4-4.3l-2.7-0.5l0.3-2.5l-2.1,1.1L132.4,117.5z M41.5,120.1c-0.3,0-0.6,0.3-0.6,0.6
		c0,0.3,0.3,0.6,0.6,0.6c0.3,0,0.6-0.3,0.6-0.6C42.1,120.3,41.8,120.1,41.5,120.1z M44,120.6c0,0-6,2.8-8.7,4l2.5,0.5l-0.4,2.5
		l2.3-0.9l0.9,2.4L44,120.6z M44.3,122.4c-0.3,0-0.6,0.3-0.6,0.6c0,0.3,0.3,0.6,0.6,0.6c0.3,0,0.6-0.3,0.6-0.6
		C44.9,122.7,44.6,122.4,44.3,122.4z M128.9,122.8c-0.3,0-0.6,0.2-0.6,0.6c0,0.3,0.3,0.6,0.6,0.6s0.6-0.3,0.6-0.6
		C129.5,123.1,129.2,122.8,128.9,122.8z M138.7,123.3l-2.8,7.9l7.7-3.9l-2.1-0.6l0-2l-1.7,0.5L138.7,123.3z M47.7,125.3
		c-0.3,0-0.6,0.3-0.6,0.6c0,0.3,0.3,0.6,0.6,0.6c0.3,0,0.6-0.3,0.6-0.6C48.3,125.5,48,125.3,47.7,125.3z M131.9,125.4
		c-0.3,0-0.6,0.3-0.6,0.6c0,0.3,0.3,0.6,0.6,0.6c0.3,0,0.6-0.2,0.6-0.6C132.5,125.6,132.2,125.4,131.9,125.4z M50.1,126l-8.2,4
		l2.5,0.6l-0.3,2.5l2.1-1.2l1.1,2.3L50.1,126z M50.6,127.7c-0.3,0-0.5,0.3-0.5,0.6c0,0.3,0.3,0.6,0.6,0.6c0.3,0,0.6-0.3,0.6-0.6
		C51.2,127.9,50.9,127.7,50.6,127.7z M135.4,128.2c-0.3,0-0.6,0.3-0.6,0.6s0.3,0.6,0.6,0.6c0.3,0,0.6-0.3,0.6-0.6
		S135.7,128.2,135.4,128.2z M123.4,128.6l-3,7.8l8.1-3.7l-2.6-0.6l0-2l-1.8,0.7L123.4,128.6z M115.7,129.2c0,0.2-2.1,2.2-2.1,2.2
		l-23.9,0.2c2.6,0.1,6.9,4.7,10.1,7.5l5.9-0.2c3.3-3.2,8.2-5.7,10.4-9.7C116,129,115.7,129.2,115.7,129.2z M138.4,130.7
		c-0.3,0-0.6,0.3-0.6,0.6c0,0.3,0.3,0.6,0.6,0.6c0.3,0,0.6-0.2,0.6-0.6C138.9,131,138.7,130.7,138.4,130.7z M119.9,133.4
		c-0.3,0-0.6,0.2-0.6,0.6s0.2,0.6,0.6,0.6c0.3,0,0.6-0.3,0.6-0.6S120.2,133.4,119.9,133.4z M129.6,134.2c0.7,0,1.6,0,2.4,0
		c1.7,0,3.4,0.1,3.8,0.4c2.7,2.2,1.4,12.7-1.9,14c-3.7,0.8-6.2,1-9.4-1.1c-0.9-0.4-2.6-1.8-2.2-2.9c0.5-1.4,1.7-1.3,5.4-0.1
		c1.4,0.4,2.1,0.3,2.5,0.1c0.3-0.2-0.1-0.5-0.8-0.5c-0.3,0-1.5-0.3-2.5-0.6c-1.4-0.4-1.8-0.6-2.8-0.6c-1.6-0.1-2-0.2-2-1.1
		c0-1.8,2.5-2,7-1c0.5,0.1,1.5,0.3,1.8,0.3c0.2,0.1-0.3-0.6-0.4-1c-0.2-0.1-0.5-0.2-1.2-0.2c-2.9-0.3-5.4-0.5-5.4-0.9
		c-0.3-1.9,3.5-2.4,7.5-0.9c1,0.4,1,0.2,1-0.1c0-0.5-1.7-1.5-4.2-1.5c-2.4,0-2.1-1.2-0.1-2.1C128.3,134.2,128.9,134.2,129.6,134.2z
		 M122.7,136.3c-0.3,0-0.6,0.3-0.6,0.6c0,0.3,0.2,0.6,0.6,0.6c0.3,0,0.6-0.3,0.6-0.6C123.2,136.5,123,136.3,122.7,136.3z
		 M113.4,138.1l-3.3,8.2l8.3-4.2l-2.7-0.5l0.2-1.7l-2,0.4L113.4,138.1z M109.7,143.5c-0.3,0-0.6,0.3-0.6,0.6s0.3,0.6,0.6,0.6
		c0.3,0,0.6-0.3,0.6-0.6S110,143.5,109.7,143.5z M117.3,143.8l-2.8,7.2l7.1-3.2l-2.1-0.6l0.3-2.2l-1.8,0.8L117.3,143.8z
		 M112.3,145.8c-0.3,0-0.6,0.3-0.6,0.6c0,0.3,0.3,0.6,0.6,0.6c0.3,0,0.6-0.3,0.6-0.6C112.9,146.1,112.6,145.8,112.3,145.8z
		 M114.1,148.6c-0.3,0-0.6,0.3-0.6,0.6c0,0.3,0.3,0.6,0.6,0.6c0.3,0,0.6-0.3,0.6-0.6C114.7,148.8,114.5,148.6,114.1,148.6z
		 M110.6,150.2l-2.4,6.8l6.7-3.2l-2-0.6c0,0,0.1-1.5-0.1-1.5c-0.1,0-1.4,0.4-1.4,0.4L110.6,150.2z M116.5,151.1
		c-0.3,0-0.6,0.3-0.6,0.6s0.3,0.6,0.6,0.6c0.3,0,0.6-0.3,0.6-0.6S116.8,151.1,116.5,151.1z M142.8,153.1L142.8,153.1
		c0,0,7.6,3.8,10.7,5.3v70.8h-41.8c-4.7-14.1-1.3-26.4-0.1-31.5c-2.2-0.2-13.6-3.9-13.9-5.1c4.5-7.2,10.6-13.7,17.1-19.6
		c6.2-5.8,12.4-10.6,18.1-14c2.2-1.3,2.9-1.5,3.8-0.7c1.4,1.3,2.3,2.4,1.9,3.3c-0.1,0.2-0.4,0.5-0.4,0.5l-3.4-1.3l1.1,3.9
		c-3.1,1.3-3,4.6-0.1,6.4l-2.1,4.7l4.8-2.1c0.2,1,3.6,3.5,5.7,0l4.3,2.1l-1.5-5.3c1.4-1.3,2.2-3.5,0-5.5l1-4.1l-3.9,1.3
		c-1-1.3-1.5-1.2-1.8-1.6c-0.1-0.5-0.1-1.7-0.7-2.7c-0.5-0.9-1.1-1.8-1.7-2.5c-0.3-0.5-0.1-0.6,1.5-1.4
		C142.2,153.5,142.8,153.1,142.8,153.1L142.8,153.1z M107.7,154.3c-0.3,0-0.6,0.3-0.6,0.6c0,0.3,0.3,0.6,0.6,0.6
		c0.3,0,0.6-0.3,0.6-0.6C108.2,154.6,108,154.3,107.7,154.3z M110.2,156.9c-0.3,0-0.6,0.3-0.6,0.6c0,0.3,0.3,0.6,0.6,0.6
		c0.3,0,0.6-0.3,0.6-0.6C110.8,157.2,110.5,156.9,110.2,156.9z M25.9,162.4l4.5,3c0.1,0.4-0.7,0.1-0.3,4.8c0.4,4.2,1.7,11.5,3,23.3
		c-5.3-2.3-6.4,7.3-0.1,5.2c0.3,0.1-3.3,5.5-3.3,5.5s2.9,5.2,4.2,7.4l4.3-7.7l-2.8-5.3c4.4,2.3,6.7-4.5,2.1-5.3
		c-1.1-0.2-2.4,0.4-2.4,0.4l2.4-23c2,1.3,5.6,4,5.6,4c0.8,12.6,0.2,23.2,7.3,41.6l0.1,12.7H25.9L25.9,162.4z M30.8,165.2l0.1,0.1
		L30.8,165.2z M74.1,187.1c0.3,0,0.6,0.1,0.8,0.2c0.2,0.2,0.4,0.7,0.1,0.8c-0.3,0-1.1-0.7-1.3-1C73.9,187.1,74,187.1,74.1,187.1z
		 M76.3,187.3c0.4,0,0.9,0.1,1.2,0.3c-0.1,0.8,0.4,2.3,0.3,2.7c-0.3,0.1-1.6-1.3-1.9-1.6c-0.1-0.5,0-1.1,0-1.3
		C76,187.4,76.1,187.3,76.3,187.3z M64.5,187.7c-0.1,0-0.4,0.1-0.7,0.2c-0.8,0.4-1.7,0.7-2.9,0.7c-0.9,0-2.5-0.5-2.4-0.4
		c0.4,0.8,1.5,0.4,1.6,0.9c-0.3,0.5-1,0.4-1.4,0.9c-0.1,0.1,0.1,0.2,0.6,0.2c1.6-0.7,3.6-0.7,5.5-0.1c0.4,0.1,0.1-0.3,0-0.4
		c-0.2-0.2-0.6-0.4-1-0.4c-1.6-0.3-0.9-0.5,0.2-1C64.7,188.1,64.9,187.6,64.5,187.7z M78.7,187.7c0.4,0,0.9,0.1,1.2,0.4
		c0.3,1.8,1.1,4.8,1,5.8c-0.1-0.1-1.1-1.1-1.9-2.2c-0.3-0.6-0.7-2.9-0.6-3.9C78.4,187.7,78.5,187.7,78.7,187.7z M67.4,190.2
		c-0.2,0-0.8,0.3-1.4,0.5c-1,0.4-2,0.3-3.3-0.1c-1.2-0.3-1.6-0.2-2.8,0.4c-0.8,0.5-1.6,0.6-2.3,0.3c-0.8-0.5-0.8-0.3-0.4,0.8
		c0.1,0.3-0.1,1.1,0.3,1.3c0.3,0.2,0.6-0.3,0.8-0.4c0.2-0.1,1.5,0.5,2.2-0.1c1.3-0.5,1.7,0.3,2.6,0.2c1.4-0.5,2.4-1,3.6-0.1
		C66.7,192.8,67,190.7,67.4,190.2L67.4,190.2z M64.8,196c-1,0-1.6,0.7-2.9,0.5c-1.1-0.1-1.4,0.9-1,1.6c0.3,0.5,0.7,0.6,2.2-0.1
		c0.6-0.3,1.4-0.9,1.9-0.8c1.4,0.1,1.8,1.5,0.6,2.7c-0.6,0.3-0.6,0.7-0.4,0.7c0.5,0,1.4-0.5,1.6-1.2C67.4,197.6,66.3,196,64.8,196z
		 M69.4,204.3c-1.4,0.3-3.3,1.8-4,2.9c-0.6,1-1.2,2.1-0.8,2.6c0.4,0.5,0.9,0.9,0.9,1.1c0,0.2-0.3,0.4-0.5,0.7
		c-1.2,1.3-0.9,1.4,0.8,0.5c1.8,2.5,5.4,1.7,7.6,0.1c3.4-2.2,5.3-4.4,2.6-3.5c-1.2,0.4-1.7,0.3-3.2-0.3c-2.2-1-3.9-1.3-5.8-0.7
		c-2.3,0.8-0.5-1.1,2.1-2.8C69.7,204.7,69.8,204.3,69.4,204.3z M54.7,208.1c0.8-0.1,1.6,0.5,2.1,2l-0.8,0c-0.6-1.9-1.9-1.9-2.5,0
		l-0.7,0C53.2,208.9,53.9,208.2,54.7,208.1z M68.7,208.3c1-0.1,2.1,0.9,2,2l-0.6,0c-0.4-1.1-1.6-2.1-2.5-0.3l-0.4-0.1
		C67.5,208.8,68.1,208.3,68.7,208.3z M66.8,208.6c0.4,0,0.5,0.4,0,1.1c-0.3,0.5-0.6,0.4-1,0.1c-0.3-0.3-0.3-0.4,0-0.7
		C66.2,208.7,66.6,208.6,66.8,208.6z M71.1,208.6c0.2,0,0.5,0.1,0.8,0.2c0.9,0.3,1.1,0.6,0.7,0.9c-0.4,0.4-1,0.5-1.4,0.3
		c0-0.4-0.5-0.8-0.5-1.2C70.8,208.6,70.9,208.6,71.1,208.6z M57.1,208.6c0.6,0,1.4,0.3,1.4,0.7c-0.1,0.4-0.7,0.6-1.2,0.7
		c-0.3,0-0.3-0.1-0.4-0.3c-0.1-0.2-0.2-0.5-0.2-0.7C56.6,208.5,56.8,208.6,57.1,208.6z M52.9,208.7c0,0-0.3,1-0.5,1.4
		c-1.3-0.1-1.2-0.6-0.6-1.1C52.2,208.8,52.5,208.8,52.9,208.7z M73.7,211l0.1,0c-1.5,2-5.5,3.4-7.8,1.1c0.7-0.3,1-0.5,1.5-0.3
		c1.6,0.4,3.6,0.1,5-0.4C73,211.2,73.5,211,73.7,211z M51.9,211.2c0.2,0,0.5,0.2,0.9,0.3c1.1,0.4,3,0.3,4.5,0c0.7-0.2,1-0.4,1.2-0.3
		c0.3,0.2,0,0.9-1,1.4c-1.3,0.5-3.4,0.8-4.9,0C51.3,211.9,51.2,211.2,51.9,211.2z M51.6,212.6c1.2,0.8,2.4,1.1,3.9,0.9
		c2.2-0.1,2.6-0.4,0.8,0.6c-1.7,0.9-4.4,0.8-5-0.2C51,213.4,51.2,212.7,51.6,212.6z M62.4,214L62.4,214c0.2,1.2,2.2,2.3,3.2,2.6
		c2.1,0.9,5.4,0,7.8-1.1c1.8-0.8,2.5-2,0.3-1.3c-3.5,1.1-7.8,1.2-10,0.3C63,214.2,62.6,214,62.4,214L62.4,214z M51,218.5
		c4.3,1,9.6,7.7,9.6,10.6h-1.4c-2.1-7.5-7.7-9.1-8.2-9.5C50.7,218.7,51,218.5,51,218.5z M51,220.4c5.2,2.3,7,6.3,7.8,8.7h-1.5
		c-1.1-3.3-3.1-5.7-6.3-7.2C50.7,221.5,51,220.4,51,220.4L51,220.4z M51,222.7c2.6,0.8,5,4.3,5.6,6.4l-1.3,0c-0.9-2.4-2.3-4-4.4-4.9
		C50.8,223.8,50.8,223.3,51,222.7L51,222.7z M50.9,225.1L50.9,225.1c1.2,0.2,3.3,2.2,3.6,4.1h-1.2c-0.4-1.3-1.7-2.4-2.4-2.9
		C50.9,226,50.9,225.1,50.9,225.1L50.9,225.1z M51,227.1L51,227.1c0.1-0.1,2,1.6,1.7,2.1H51C51,228.6,51,227.1,51,227.1L51,227.1z"
		/>
	<path class="st3" d="M98.3,21.5C95.1,27.6,79,55,78.8,56l4.1,1.8L103,21.6C103,21.6,98.9,21.5,98.3,21.5z M145.7,44.4l-1.7,2.5
		l1.4,2.8l1.7-2.7L145.7,44.4z M71.9,72c0,0-5.8,5.8-8,8.4c4.9,4.9,14.1,11,14.2,20.3l6.4,0l20.7,18.6c0,0,18.8,0.1,19.1,0.1
		c0.4-0.1,7-9.7,7-9.7l11.9,8.7c0,0-0.6-9.4-1-15.1c-0.1-3.8-0.3-6.2,2.5-7.9c-3.8-1.8-3.6-5.2-0.8-7.7c-1.5-0.6-2.8-4.4-2.5-6.1
		c0,0-1.2-1-2-1.5c-1.8,1.6-4.6,4.1-5.2,6.6c-0.5,2.8,2.3,4.7,4,2.7c0.5-0.6,0.9-0.4,0.9,0.3c0,1.5-1.9,2.4-3.5,1.6
		c-0.4-0.2-0.7-0.3-0.7-0.3c3.1,7.3,4.2,10.1,2.5,14.5c-0.7,2.7-0.4,4.4,0.9,4.4c0.7,0,0.7,0.7,0,1c-1.6,0.6-2.6-0.6-2.7-3.2
		c0-1.5-0.1-1.6-0.8-1.2c-2.7,1.3-5.7-1-4.4-3.4c0.3-0.5,0.6-0.3,0.8,0.4c0.3,1.4,1,2,2.3,2c3,0,4.2-4.2,2.5-8.4
		c-0.3-0.8-0.5-0.8-1,0.3c-0.7,1.7-1.9,2.2-2.9,1.2c-0.3-0.3-0.5-0.9-0.3-0.9c0.1,0,0.4,0,0.7,0c1.7-0.1,2.3-1.7,1.5-4.3
		c-0.7-2.2-0.8-2.6-1-3.8c-0.3-1.9-0.1-3.3,0.8-5.1c1.5-2,2.8-3.4,4.8-5c-1.2-1-2.3-1.8-3.7-2.8c0,0-8.8,24.3-8.2,33.7
		c-1.1,12.5-10.3,9-10.9,0.4L71.9,72z M72.5,75.7c2.5,0.7,4.2,4.7,5.2,12.1c0.4,2.7,2,6.6,3.3,7.5c3.1,2.3,7.8,0.5,7.8-2.9
		c0-4.3-6-4.9-6.1-0.6c0,1-0.5,1.1-1,0.1c-0.4-0.9,0-2.4,0.8-3.2c0.5-0.5,0.5-0.6-0.5-1.2c-3.6-2-5.2-5-3.2-6.3
		c0.8-0.6,2,0.1,1.5,0.9c-0.8,1.2-0.8,1.4-0.1,2.3c2.1,2.3,4.6,2.3,7,3.4c2.5,1.2,3.7,3.7,2.8,6.2c-0.2,0.6-0.4,1.2-0.5,1.3
		c-0.1,0.3,0.1,0.3,1.8,0c2.8-0.4,6,0.6,7.5,2.4c0.8,1,1.5,3.1,1.5,4.9c0,0.3,0.1,1.1,0.2,1.7c0.1,0.6,0.3,1.6,0.4,2.3
		c0.7,6.2,5.9,9.3,8.1,5c1.4-2.7-1.8-5.5-3.5-2.9c-0.6,0.9-1.2,0.5-0.8-0.6c0.6-2,3.2-2.4,4.9-0.7c0.9,0.9,1.4,3,0.9,4.4
		c-0.2,0.7-0.2,0.7,0.3,0.6c1.2-0.4,3.2,0,3.9,0.8c1.7,1.8,1.4,4-0.7,4.7c-1,0.3-2,0-2.4-1.1c-0.2-0.8,0.4-1,0.8-0.3
		c0.8,1.3,2.5,0.2,2.1-1.3c-0.5-1.7-1.9-2.1-4.7-1.2c-4.3,1.5-5.7,1.4-7.8-0.7c-1.5-1.5-2-2.7-2.4-5.6c-0.4-3.1-0.5-3.2-1.2-2.5
		c-3.7,3.1-8.5-1.6-5.4-4.7c1-1,1.7-0.1,0.8,1c-1.3,1.6,0.4,3.8,2.4,3.2c3.8-0.9,3-6.4-1.1-7.7c-1.2-0.4-4.6-0.2-7.3,0.3
		c-7.3,1.6-10.5-1.5-12-11.6c-0.2-1.2-0.4-2.1-1.1-4.6c-0.8-3-3.6-4.7-5.1-3c-1.2,1.3-0.6,3.1,1.1,3.1c1.7,0,1.2,1.2-0.6,1.3
		c-3.1,0.3-3.6-4.8-0.7-6.3C70.6,75.6,71.4,75.5,72.5,75.7z M31.6,77.4l1,3.7l3.8,1.1l-1.2-3.5L31.6,77.4z M41.4,78.6l-1,3.3l2.8-1
		l1-3.1L41.4,78.6z M72.4,83.9c0.6,0,1.1,0.5,1.1,1.1c0,0.6-0.5,1.1-1.1,1.1c-0.6,0-1.1-0.5-1.1-1.1C71.3,84.4,71.8,83.9,72.4,83.9z
		 M36.3,85.8L33,86.9l-0.6,2.6l3-0.7L36.3,85.8z M43.2,87l-2.4-0.7l0.6,2.7l2.6,1.1L43.2,87z M148.7,86.5l-1.6,1.2
		c4.6,4-0.4,7.8-0.5,7.5c3.3,2.2,2.7,5.6,2.3,8.8c-0.8,5.6-1.1,11-1.9,16.7c0,0,4,2.7,6.6,3.8l0-33.9L148.7,86.5z M92.5,91.6
		c0.6,0,1.1,0.5,1.1,1.1c0,0.6-0.5,1.1-1.1,1.1c-0.6,0-1.1-0.5-1.1-1.1C91.4,92.1,91.9,91.6,92.5,91.6z M25.8,94.4l0.1,31.6
		l6.5-11.7l-4.5-5.2l3.9-4.2C29.5,101.6,27.7,98,25.8,94.4z M89.4,99.2c0.6,0,1.1,0.5,1.1,1.1s-0.5,1.1-1.1,1.1
		c-0.6,0-1.1-0.5-1.1-1.1C88.3,99.7,88.8,99.2,89.4,99.2z M104.2,102.4c0.6,0,1.1,0.5,1.1,1.1c0,0.6-0.5,1.1-1.1,1.1
		c-0.6,0-1.1-0.5-1.1-1.1C103.1,102.9,103.6,102.4,104.2,102.4z M146.7,137.7l4.8,4.9l-3.8,4.7l6,10l-0.1-31L146.7,137.7z
		 M25.7,127.3l0.2,34l5.1,3.7l1.3-1.2c-3.3-3.5-1.3-6.2,1.2-7.7c-4.4-1-3.1-6.9-2.8-9.6c-0.1-5,1.7-10.8,1.2-15.6L25.7,127.3z
		 M55.3,132l-7.4,10.3c0,0-8.1-6.1-12.2-8.9c0.4,4.4,0.8,10.1,1.4,14.8c1.3,7-2.1,7.1-2.1,7.7c5.5,4.2,0.9,8,0.1,7.8
		c2.9,1.6,2.7,6.4,2.7,6.4l1.4,0.8c2.1-1.4,4.3-3.6,5.1-5.9c0.9-3.2-1.8-5.8-3.5-3.4c-0.8,1.2-1.5,0.4-0.8-1
		c0.6-1.2,2.3-1.9,3.4-1.3c0.6,0.3,0.5-0.5-0.5-3c-0.3-0.8-0.6-1.8-1.1-3.6c-0.5-1.8-0.3-4,0.5-6.2c1.1-3.2,0.7-5.2-1.1-5.3
		c-1-0.1-1.1-0.4-0.3-0.8c1.8-1,3.5,0.4,3.4,2.8c0,1.3,0,1.3,0.7,1c3.5-1.4,6.2,2.2,3.8,5c-0.7,0.8-1.2,0.3-0.7-0.8
		c0.8-1.8,0-3-1.7-3c-2.6,0-4,3.5-3,7.4c0.3,1.2,0.4,1.2,1.2,0.4c0.8-0.7,1.3-1,1.9-0.8c1.2,0.4,1.5,1.7,0.4,1.5
		c-2-0.3-2.5,1.8-1.4,5.5c1.7,5.7-0.3,8.8-5,12.3c1.7,1.5,2.8,2.4,5.1,3.8l8.1-32.7c0,0-0.1-1.9-0.3-2.7c0-8.8,8.2-9.6,10.7-1.6
		c0.2,0.8,1.5,2.7,1.5,2.7l42.5,37.8c0,0,7.9-7.7,7.8-7.9c-6-6.1-14.2-10.4-14.5-20.1c-1.4,0-6.3,0-6.3,0l-20.7-19
		C67.7,132.3,62,131.8,55.3,132z M66.8,132.7c1.1,0,2.3,0.6,2.3,1.5c0,0.8-0.5,1-1,0.3c-0.6-0.9-1.4-1-2.1-0.2
		c-2.1,2.2,1.1,4.2,4.9,3c2.3-0.7,3.4-0.9,4.2-0.7c3.5,0.7,5.2,3.1,5.5,7.7c0.2,2.3,0.1,2.3,1.2,1.4c2.5-2.3,6-1,6.6,2.3
		c0.2,1.4-1.3,3.2-2.8,3.2c-0.6,0-0.5-0.6,0.1-0.9c1.5-0.7,1.5-3.1,0.1-4c-1.9-1.2-4.4,0.7-4.4,3.3c0,3.2,2.4,4.6,7.1,4.4
		c0.7,0,2.4-0.1,3.8-0.2c2.2-0.1,4.6-0.5,6.9,1.2c2.4,1.9,4,5.7,4.6,11.1c1.1,6.7,1.9,8.5,4.1,8.6c1.3,0.1,2.5-1,2.5-2.4
		c0-0.9-1.2-1.8-2.2-1.4c-1.1,0.4-1.4-0.8-0.2-1.3c1.5-0.6,3.4,0.6,3.8,2.5c0.2,1.1-1,3.3-2.4,3.8c-3.5,1.4-5.9-1.5-6.8-7.9
		c-0.5-3-0.8-4.9-1.7-7.5c-1.7-4.6-4.5-6.6-7.5-5.2c-3.4,1.6-2.7,6.7,0.9,6.7c2,0.2,2.4-1.3,2.4-2.9c0-1.2,1.4-0.1,1.5,0.7
		c0.1,1-0.8,2.2-1.5,2.7c-1.2,0.8-0.8,0.8,0.5,1.1c3.4,0.6,5.9,5.1,3.9,6.6c-1.1,0.6-2.2-0.3-1.4-1.2c1.2-1.5-0.8-3.8-4.4-4.6
		c-4.7-1-6.5-4.5-4.9-8.1c0.6-1.2,0.6-1.2-1.7-1c-5,0.3-6.8-0.4-8.5-3.3c-0.5-0.9-0.7-2.1-0.8-4.4c-0.2-4.2-0.6-6.8-1.1-7.5
		c-2.6-3.6-8-2.5-7.4,1.5c0.4,2.1,2.5,2.8,4,1.2c1.1-1.2,1.6-0.1,0.5,1.1c-2.6,2.9-7.2-0.5-5.8-4.3c0.3-0.9,0.4-0.9-1.3-0.9
		c-3.7-0.1-5.5-3.3-3.1-5.6C65.7,132.9,66.2,132.7,66.8,132.7L66.8,132.7z M75.9,146.5c0.6,0,1.1,0.5,1.1,1.1c0,0.6-0.5,1.1-1.1,1.1
		c-0.6,0-1.1-0.5-1.1-1.1C74.8,147,75.3,146.5,75.9,146.5z M90.9,150.3c0.6,0,1.1,0.5,1.1,1.1c0,0.6-0.5,1.1-1.1,1.1
		s-1.1-0.5-1.1-1.1C89.8,150.8,90.3,150.3,90.9,150.3z M87.7,157.4c0.6,0,1.1,0.5,1.1,1.1s-0.5,1.1-1.1,1.1s-1.1-0.5-1.1-1.1
		C86.6,157.9,87.1,157.4,87.7,157.4z M135.5,161.7l0.7,3.2l2.5,0.7l-0.4-2.8L135.5,161.7z M144.2,162.8l-0.1,1.9l2.2,0.3l0.8-3.3
		L144.2,162.8z M107,165.7c0.6,0,1.1,0.5,1.1,1.1c0,0.6-0.5,1.1-1.1,1.1c-0.6,0-1.1-0.5-1.1-1.1C105.9,166.2,106.4,165.7,107,165.7z
		 M138.8,170.1l-2.6,0.7l-1.3,3.6l3.3-1.2L138.8,170.1z M143.9,170.4l0.3,2.7l3.2,1.5l-1.1-3.8L143.9,170.4z M96.6,193.3l-19.9,36.1
		l5.4-0.1l18.8-34L96.6,193.3z M33.9,202.1l-1.8,2.4l1.7,2.8l1.9-2.8L33.9,202.1z"/>
	<path d="M112.8,20.5l-9.1,0l-0.3,0.4h-4.7l0-0.4H67.8c3.7,11.1,4,22.1,0.8,32.7c1.8,0.1,9.7,2.1,14.1,4.8
		c-0.8,2.1-13.2,17.3-21.6,24.2c2.4,2.4,5,4.7,7.8,7.3c4.2,4,5.6,6.7,5.9,11.8c-0.2,6.1-3.6,9.6-8.3,12.9c-4,2.7-10.4,10.1-16,17.8
		c-0.9,1.2-3.4,4.9-3.4,4.9c-8.5-7-17.7-12.4-17.9-12.3c0,0,9.2-4.9,11.2-5.9c1.5,1,3.5,0.1,2.5-2c-1.9-4.8-0.6-9.7,1.7-13.2
		c0.9-1.3,5.7-1.9,8.7-1.1c1.7,1,2.1-0.3,3.2-4.4c1.1-4.1-0.7-9.3-3.1-9.3c-0.6,0-0.9,0.2-0.8,1.7c0.1,1.1-0.2,1.7-0.5,2.4
		c-0.6,1.5-0.9,3-1.1,4.9c-0.2-0.4-2.8-2.7-6.5-3.7c-2.7-0.3-4.1-3.7-4-3.7c0,0,0.4-0.9,0.8-1.3c0.9,0.4,1.9,1,3,1.3
		c0,0-0.3-1.4-0.4-1.7c-0.5-1.9-0.5-2.2,0.3-2.6c1.8-1,2-2.7,0.6-4.3c-0.4-0.4-0.7-0.7-1.1-0.9l0.9-3.6c0,0-0.8,0.2-1.5,0.4
		c-1.9,0.6-1.8,0.6-2.6-0.3c-1.8-2-4.3-1.6-4.9,0.7c0,0.3-0.2,0.7-0.2,0.7l-4.1-2c0.1,1,1.2,4.2,1.2,4.2c-3.5,2.8-0.5,5.2,0.4,5.5
		c0,0-0.8,2.6-1.1,3.7l4-1.1c0.3,0.8,0.8,1.3,1.6,1.9c0.2,2.3,2,4.1,3.1,5.2c0,0,0.2,0.8,0.1,1.4c-0.3,1.3,1.1,3.4,1.3,3.5
		c-5.5-2.2-11.2-4.9-16.7-7.6l0.3,68c0,0,1.3,1.2,3.8,3c1.2,0.9,1.2,0.9,1,1.9c-0.3,1.3-0.3,2.4,0.9,11.2c0.6,4.7,1.3,9.5,1.8,13.8
		c0.2,1.6,0.3,2.6,0.3,2.6c-1.2-0.6-3-0.6-3.9,0.4c-1.6,1.8-0.3,4.7,2,4.7c0.9,0,1.4-0.2,2-0.5l-3.5,6.2l4,6.8l4-7.3l-2.9-5.7
		c2,1.1,4.2,1,4.6-1.8c0.1-2.7-2.9-3.4-4.8-2.3l2.5-23.9l1.3,1l0.4-0.2l-1.2-1c0.3-3.8-1-5.1-2.4-6.1c4.5-2.6,2.6-6.6-0.4-7.9
		c0,0,2-1.1,2.3-2.3c0.3-1.1,0.2-2.8-0.2-5.8c-0.3-4.6-1.3-14.3-1.3-14.3c3.9,3,8,6.2,11.8,9.2l7.6-10.6l18.4,0.1
		c0,0,14,12.7,21,19.2l6.1,0.1c0.7,9.8,7.4,13,14.2,19.8l-7.2,7.2l-43.8-39.2c0,0-0.2-0.6-0.3-0.9c-1-4.2-3.8-5.9-6.3-5.6
		c-2.6,0.3-4.9,2.9-4.7,7.3c0,0.7,0.3,1.9,0.3,1.9l-8,33.4c0,0-3.2-2.4-4.9-3.6l-0.4,0.2l4.7,3.5l0.3-0.2l1.3,1l0.1,0.7
		c4.1,2.8,11.1,8,11.1,8c3.3-2.4,6.7-1.6,10.2-0.7c0,0,2.5,0.8,3.8,0.8c6.8,0.2,12.8,1.5,19.1,3.8l-23,40.9l43.8,0.1
		c-2.2-8.6-4.5-17.2-0.4-31.8c-4.3-0.9-13.9-4.7-13.9-4.7s0-0.2,0.4-0.7c1.8-2.5,6.3-9.4,10.5-13.4c0.5-0.4,7.9-7.5,7.9-7.7
		c0-0.1,0.2-0.6,0.5-0.8c0.7-0.5,2.5-2.2,2.5-2.2l-9.2-7.8c0,0-0.4-0.2-0.5-0.3c-1.3-0.7-3.6-4.7-4.2-7.4c-1.3-6.2,1.1-11,7.9-16.1
		c6.7-4.6,19.3-22.3,19.4-22.7c6.8,5.7,12.1,8.6,18.1,12.3c-3.6,2.1-6.6,3.5-9.1,4.9c-1.6,0.9-1.9,1.1-3.3,0.7c-1.6,0-2.1,0.6-1.7,2
		c2.4,3.8,1.4,12.6-1.9,14.3c-2.8,1.5-5.5,1.1-7.8,0.2c-1.7-0.6-1.7-0.6-2.5,1c-1.7,3.6-1.8,6.7-0.2,10.2c1.3,2.8,3.2,4.1,3.4,0.3
		c0.1-2.2,1.1-4.8,1.1-7.2c2,2.2,3.3,3.1,6.5,4c2.2,0.3,4.4,3,4.4,4.1c-0.6,0.6-0.8,1.4-0.9,1.3c-1-0.3-3.3-1.3-3.3-1.3l1,3.4
		c0,0-0.2,0.2-0.6,0.4c-2.1,1.1-2,4,0.2,5.2c0.5,0.2,0.5,0.4,0.3,1c-0.3,1.4-0.9,2.3-1.2,3.7c0,0,0.3,0,2.9-1.2l1-0.5l0.6,0.6
		c1.3,1.4,2.9,1.4,4.3,0l0.6-0.7l1.8,0.9c1.7,0.9,2.1,1,2.1,1s-1-3.8-1.1-4.2c-0.1-0.2-0.3-0.5-0.4-0.5c-0.2-0.1-0.2-0.1,0.4-0.6
		c1.6-1.3,1.8-3,0.4-4.4c-0.5-0.5-0.6-0.6-0.6-0.6l0.8-3.5l-3.5,1.1c-0.5-1.2-1.4-1.7-2-1.9c-0.1-1.6-0.3-3.2-2.9-5.6
		c0.9-0.8-0.2-2.8-1.1-4c1.5,0.5,5.3,2.1,5.3,2.1l0.6,0l1.8,0.9l0.2,0.3c0,0,5.7,2.7,8.3,3.9c0-0.1,0-3,0-33.9c0-18.5,0-33.7,0-33.8
		c-1.4-1.3-3.2-2.4-4.3-3.2c-1.2-0.8-1.1-0.8-0.9-1.7c0.3-1.1,0.3-2.6-0.1-5.3c-0.3-2.1-1.3-9.3-2-15.1c-0.5-4.1-0.6-5-0.7-5.7
		c-0.2-1.7,0-2.4,0-2.4c5.7,2.5,6.2-5.7,0.4-4.6c1.1-2.2,2-3.2,3-5.6c-1.2-2.6-3.8-6.9-3.8-6.9l-4.2,7.3l2.5,5.1
		c-2.8-0.5-4.3,1.6-3.8,3.4c0.6,1.6,2.1,2.1,3.5,1.4c1.1-0.4,1.1-0.5,0.1,7.5c-0.3,2.4-1.5,13.4-1.7,15.1c-0.1,1.1-0.2,1.4-0.6,1.2
		c-0.6-0.3-1-0.6-1.6-1l-0.4,0.3c0.5,0.4,1.2,1,1.9,1.6c-0.2,2.9-0.1,4.6,2.3,6.1c-4.4,2.8-1.8,7,0.8,7.7c-1.5,0.4-3.1,2.4-2.7,6.4
		l1.3,16.3l-12-8.9l-7,10.1l-18.5,0l-20.9-18.9c0,0-4.6-0.1-6.5-0.1c0.2-0.1-0.4-5.8-3.4-9.6c-3.3-3.9-10.8-10.4-10.8-10.4l7.9-8
		l44.1,39.8c0,0,0.2,1.1,0.3,1.6c1.5,6.3,8.6,6.7,10.1,0.3c0.2-1,0.5-3.4,0.4-3.7c2.2-9.6,5.1-20.4,7.2-28.6
		c0.4-1.6,0.7-3.2,1.2-4.7l3.4,2.5l0.4-0.4c-1.3-1-3.5-2.6-3.5-2.6l0-0.7c-7.2-5.1-8.6-6.5-12.9-9.9c-3.3,2.9-8,1.7-10.9,0.7
		c-0.8-0.3-2.6-0.8-2.6-0.8c-7.3,0-13.8-1.4-19.9-3.4L112.8,20.5z M94.5,21.5l3.2,0.1l-19,33.9l-2-0.8c0,0,0.2-0.1,0.2-1.5
		c0-1.5-0.3-2.2-1-3.1c-0.6-0.8-0.8-0.8,0.9-0.6c3.5,0.5,5.9-3.3,4.5-6.2c-0.5-1.1-0.5-1.2,0.9-1.3c3.9-0.4,5.4-5.3,2.6-7.7
		c-0.6-0.5-0.3-0.8,0.7-0.6c3.3,0.7,5.9-3,4.6-5.9c-0.4-0.8,0-0.9,0.6-1C93.6,26,94.6,23.7,94.5,21.5z M68.9,21.5l14.9,0
		c-2,3.1,1.5,4.9,2,4.7c-3.2,1.8-2.3,4.2-0.7,5.1c1.6,0.8,4,0.1,3.4-3.5l0.8-0.3c0.8,0.9,1.5,6.3-4.4,5.6c-1-0.1-1.6,0.8-0.7,1.4
		c4.7,5.4-2.6,7.7-3,6.8l0-0.9c2,0.4,4.5-2.2,2.3-4.4c-1.3-1.3-4.9-0.7-4.3,3.2c-2.2-3.2-4.5-2.3-5.1-0.5c-0.5,1.3,0.1,3.1,2.3,3.4
		c-2.4,2-1.2,4.3,0.4,4.8c1.8,0.5,3.7-0.2,3.2-3.5c0-0.3,0.7-0.2,0.7-0.2c1.9,4.7-2.6,6.4-5,5.5c-0.9-0.4-1.4,1-0.4,1.7
		c1.5,1.1,1,4.2,0.8,4.2c-2.7-1-6.6-1.8-6.4-1.7C72.2,42.5,72,32.1,68.9,21.5L68.9,21.5z M92.6,21.5H94c0,1.9-0.8,4.3-4.1,4.7
		c0-0.5,0-1-0.2-1.6C91,24.3,92.6,24.7,92.6,21.5z M98.5,21.6l4.3,0L82.6,57.5l-3.2-1.7L98.5,21.6z M87.9,24.3
		c0.8,0,1.4,0.6,1.4,1.4s-0.6,1.4-1.4,1.4s-1.4-0.6-1.4-1.4S87.2,24.3,87.9,24.3z M79.3,40c0.7,0,1.3,0.6,1.3,1.3
		c0,0.7-0.6,1.3-1.3,1.3s-1.3-0.6-1.3-1.3C78.1,40.5,78.6,40,79.3,40z M145.7,41l3.4,6l-3.9,6.9l-3.2-6.6L145.7,41z M145.7,43
		l-2.4,4l2.2,4.1l2.5-3.9L145.7,43z M145.7,44.7l1.2,2.4l-1.5,2.4l-1.3-2.6L145.7,44.7z M148,52.8c1.2,0,2.3,1,2.3,2.3
		c0,1.2-1,2.3-2.3,2.3c-1.2,0-2.3-1-2.3-2.3S146.8,52.8,148,52.8z M142.5,52.8c1.2,0,2.2,1,2.2,2.2c0,1.2-1,2.2-2.2,2.2
		s-2.2-1-2.2-2.2C140.3,53.8,141.3,52.8,142.5,52.8z M145.2,56c0,0,0.4,1.9,0.6,3.6c0.1,0.6,0.3,2.2,0.4,3.4
		c0.5,3.7,0.8,6.8,1.2,10.3c1.2,8.5,1.4,11.2,1.2,11.9c-0.7,2.5-4.2,2.7-5.6,1.3c-1.1-1.1-1.2-2.3-0.8-5.5c0.8-6.3,0.8-8,1.6-14.6
		c0.3-2.7,0.6-5.3,1-8C145,57.3,145.2,56,145.2,56z M88.9,63.1c0,0,11,3.6,19.4,3.5c1.2,0,1.4,0,3,0.5c0.9,0.3,2.3,0.7,3.2,0.9
		c2.6,0.5,4.9,0.4,6.9-0.5c0.3-0.1,0.8-0.5,1.2-0.4c0.3,0.1,0.7,0.7,0.7,0.7c-7.3,2-24.5,1.6-35.2-2.9L88.9,63.1z M145.5,64.3
		l-0.1,0.2c-0.2,0.3,0,2.1,0.6,8.1c1.3,11.3,1.3,11.6-0.3,12.8c-0.8,0.6-0.9,0.8-0.5,1c0.3,0.2,0.2,0.2,0.8,0
		c1.3-0.4,1.8-1.4,1.8-3.5c0-1.6,0-1.8-0.5-5.8c-0.2-1.4-0.4-3.3-0.5-4.3C145.9,65.7,145.7,64.3,145.5,64.3L145.5,64.3z M87.7,65.5
		c11,3.9,22.4,5.1,36.3,2.9c0.5,0.4,0.9,0.8,1.3,1.1c-0.2,0.4-0.4,0.7-0.7,1.1c-0.4,0.2-0.8,0.4-1.2,0.6c0.4,0.3,0.8,0.5,1.1,0.7
		c0.2,0.4,0.4,0.8,0.6,1.2c0.3-0.4,0.5-0.8,0.7-1.2c0.4-0.2,0.8-0.4,1.2-0.6c-0.4-0.2-0.8-0.4-1.2-0.7c-0.2-0.4-0.4-0.7-0.5-1.1
		c1.6,1.2,3.1,2.2,4.9,3.4c-12.3,3.8-32.2,3.1-44.5-2.3c-0.5-0.3-0.7-0.5-0.7-0.5c0.4-0.9,0.9-1.7,1.4-2.6c0.1,0.3,0.3,0.6,0.4,0.9
		c-0.1,0.4-0.1,0.9-0.2,1.3c0.4-0.2,0.8-0.4,1.3-0.6c0.5,0.1,0.9,0.1,1.4,0.2c-0.2-0.4-0.4-0.8-0.6-1.2c0.1-0.4,0.1-0.9,0.2-1.3
		c-0.4,0.2-0.8,0.4-1.2,0.6c-0.3,0-0.7-0.1-1-0.2C87,66.7,87.4,66.1,87.7,65.5z M92.7,68.2c-0.4,0.2-0.8,0.4-1.2,0.7
		c-0.4,0-0.9-0.1-1.3-0.1c0.2,0.4,0.4,0.8,0.6,1.2c0,0.5-0.1,0.9-0.1,1.4c0.4-0.2,0.8-0.4,1.2-0.7c0.5,0,0.9,0,1.4,0.1
		c-0.2-0.4-0.5-0.8-0.7-1.2C92.7,69.1,92.7,68.6,92.7,68.2z M96.7,69.2c-0.4,0.3-0.7,0.5-1.1,0.7c-0.4,0-0.9,0-1.3,0
		c0.2,0.4,0.5,0.8,0.7,1.2v1.4c0.4-0.2,0.8-0.5,1.2-0.7c0.5,0,0.9,0,1.4,0c-0.3-0.4-0.5-0.7-0.8-1.1C96.7,70.1,96.7,69.6,96.7,69.2
		L96.7,69.2z M100.8,69.9c-0.4,0.3-0.7,0.5-1.1,0.8c-0.4,0-0.9,0.1-1.3,0.1c0.3,0.4,0.5,0.7,0.8,1.1c0,0.5,0.1,0.9,0.1,1.4
		c0.4-0.3,0.7-0.5,1.1-0.8c0.5,0,0.9-0.1,1.4-0.1c-0.3-0.4-0.6-0.7-0.8-1.1C100.8,70.9,100.8,70.4,100.8,69.9z M121.4,70.3
		c-0.3,0.4-0.5,0.7-0.8,1.1c-0.4,0.2-0.8,0.3-1.3,0.5c0.4,0.3,0.7,0.6,1.1,0.8c0.2,0.4,0.3,0.8,0.5,1.3c0.3-0.4,0.6-0.7,0.8-1.1
		c0.4-0.2,0.9-0.3,1.3-0.5c-0.4-0.3-0.8-0.5-1.1-0.8C121.7,71.1,121.5,70.7,121.4,70.3z M104.9,70.5c-0.3,0.3-0.7,0.6-1,0.9
		c-0.4,0.1-0.9,0.1-1.3,0.2c0.3,0.4,0.6,0.7,0.9,1.1c0.1,0.5,0.1,0.9,0.2,1.4c0.4-0.3,0.7-0.6,1.1-0.9c0.5-0.1,0.9-0.1,1.4-0.2
		c-0.3-0.3-0.6-0.7-0.9-1C105,71.4,104.9,70.9,104.9,70.5z M117.3,70.7c-0.3,0.3-0.6,0.7-0.9,1c-0.4,0.1-0.9,0.2-1.3,0.4
		c0.3,0.3,0.7,0.6,1,0.9c0.1,0.4,0.3,0.9,0.4,1.3c0.3-0.3,0.6-0.7,0.9-1c0.4-0.1,0.9-0.3,1.3-0.4c-0.4-0.3-0.7-0.6-1.1-0.9
		C117.6,71.6,117.4,71.1,117.3,70.7L117.3,70.7z M109,70.8l-0.1,0.1c-0.3,0.3-0.6,0.5-0.9,0.8c-0.4,0.1-0.9,0.2-1.3,0.2
		c0.3,0.3,0.6,0.7,0.9,1c0.1,0.4,0.2,0.9,0.2,1.3c0.3-0.3,0.6-0.6,0.9-0.9l0.1-0.1c0.4-0.1,0.9-0.2,1.3-0.3c-0.3-0.3-0.6-0.7-0.9-1
		C109.2,71.6,109.1,71.2,109,70.8z M113.2,70.8c-0.3,0.3-0.6,0.7-0.9,1c-0.4,0.1-0.9,0.2-1.3,0.3c0.3,0.3,0.6,0.6,1,1
		c0.1,0.4,0.2,0.9,0.3,1.3c0.3-0.3,0.6-0.6,1-1c0.4-0.1,0.9-0.2,1.3-0.3c-0.3-0.3-0.7-0.6-1-0.9C113.4,71.7,113.3,71.3,113.2,70.8
		L113.2,70.8z M82.9,71.5c0.3,0,0.9,0.6,1.2,1.3c0.5,1.4,0.3,3-0.5,3.5c-1.1,0.7-2.5-0.4-1.7-1.4c0.1-0.2,0.4-0.4,0.5-0.4
		c0.6-0.2,0.7-1.1,0.4-2.7C82.8,71.7,82.8,71.6,82.9,71.5z M87.2,72.1c11.9,3.9,25.4,5.2,39.2,2.4c0,0-6.6,26.9-6.7,26.9L87.2,72.1z
		 M81.4,72.2c0.6,0,0.7,1.1,0.2,1.6c-0.7,0.7-2.1,0.1-1.8-0.8C79.8,72.8,81,72.2,81.4,72.2z M84.8,72.8c0.1,0,0.4,0.2,0.8,0.8
		c1.3,1.8,1.4,3.8,0.2,4.7c-1.4,1.1-2.4-0.6-1.3-2c0.3-0.4,0.3-1.1,0.2-2.6C84.6,73.1,84.7,72.8,84.8,72.8z M130.8,73.4
		c0.2,0,0.4,0.1,1,0.4c0.9,0.4,1.1,1,0.7,1.5c-0.6,0.7-2.2-0.7-1.9-1.7C130.7,73.5,130.7,73.4,130.8,73.4z M129.6,74.4
		c0.2,0,0.6,0.4,1,1.2c0.3,0.5,0.4,0.7,0.8,0.8c1,0.4,1.2,1.4,0.3,1.7c-1,0.3-1.7-0.4-2.1-2.1C129.2,74.9,129.3,74.4,129.6,74.4z
		 M87.1,75.1c0.1,0,0.4,0.3,0.9,1c1.3,2,0.9,5.7-0.8,6.6c-0.7,0.4-1.3,0.3-1.8-0.3c-0.9-0.9-0.7-1.6,0.6-2c1.1-0.4,1.4-1.6,1.1-3.9
		C86.9,75.6,86.9,75.1,87.1,75.1L87.1,75.1z M93.4,75.8c8.1,6.7,15.4,13.9,24.9,22.3c2.2-6.9,5.5-21.3,5.5-21.3
		C123.4,77,107.9,79.2,93.4,75.8z M128.8,75.8c0.1,0,0.5,1,0.7,1.9c0.2,0.8,1,2.2,1.3,2.3c1.6,0.3,2.3,1.2,1.5,2
		c-0.6,0.6-1.8,0.3-2.4-0.6C128.8,79.6,128,75.8,128.8,75.8z M38.3,76.7c1,0,1.9,0.6,2.1,1.9c0.3,1.5-0.6,2.5-1.3,2.4
		c-0.8-0.3-1-1.5-1-1.5s-0.2,1-0.5,1.5c-0.7,1-2.1-0.5-1.9-2C36.1,77.5,37.2,76.7,38.3,76.7z M96,77.1c8.8,1.3,16.4,1.7,27,0.5
		l-5,19.3L96,77.1z M89.4,77.1c0.1,0,0.4,0.2,0.8,0.7c1.4,1.5,1.8,3.5,0.9,4.5c-0.5,0.6-0.9,0.7-1.5,0.3c-0.7-0.5-0.8-1.3-0.1-1.6
		c0.6-0.3,0.7-1,0.2-2.4C89.3,77.6,89.2,77.1,89.4,77.1z M31.7,77.6L35,79l1.2,2.7l-3.2-0.8L31.7,77.6z M43.9,78l-1,2.7l-2.5,0.9
		l1-2.9L43.9,78z M128.1,78.5c0.1,0,0.3,0.3,0.5,1.1c0.5,1.8,0.8,2.2,1.2,2.4c0.8,0.4,0.8,1.3,0.1,1.7c-0.5,0.2-0.6,0.2-1-0.3
		c-0.5-0.7-1-2-1-3.2C127.9,79.1,128,78.5,128.1,78.5z M92.2,79.8c0.1,0,0.2,0.1,0.4,0.4c1.3,1.5,1.4,3.8,0.3,4.5
		c-1.1,0.7-2.6-0.7-1.7-1.5c0.9-0.2,0.7-1.3,0.7-2C92,80.2,92.1,79.8,92.2,79.8z M101.7,79.9L117.2,94l3.5-13.9
		C114.6,80.6,108.3,80.5,101.7,79.9z M63.8,80.6C68.7,85.8,75,90,76.6,95.1c2.7,7.1,0.7,15.3-5.6,20c-9.6,6.2-14.7,15.3-20.8,23.3
		c-0.5,0.7-2.4,3.5-2.4,3.5c-5.2-4.7-14.6-11.3-21.5-15l2.8-1.5c5.4,3.1,12.2,7.5,18.3,12.7c3.7-5.6,8.2-11.7,12.3-16.1
		c5.3-6.6,10.8-8.8,13.1-12.1c3.3-4.9,3.5-10.7,0.7-15.6c-2.7-4.7-8-7.9-11.5-11.8L63.8,80.6z M110.1,81h6c0,0-0.9,0.7-1.6,1.2
		c-0.4,0.3-0.9,0.2-1.9-0.1C111.8,81.7,110.1,81,110.1,81z M117,81l1.4,0c-1.1,1.3-2.1,2.2-3.5,3.4c-0.2,0.1-0.3,0.1-0.7,0
		c-2.9-1-5.5-2.2-8.3-3.3l2.5,0c0,0,1.2,0.4,3,1.1c2.1,0.9,2.6,1.1,3.4,0.6C115.5,82.3,116.2,81.5,117,81L117,81z M119.9,81
		l-0.5,1.9c-0.8,1.1-2.5,2.3-4,3.5c-0.3,0.2-0.3,0.2-1.8-0.4c-5.4-2.1-8-3.4-8-3.4l-1.1-1c0,0,1.4,0.4,2.3,0.8
		c1.9,0.7,3.8,1.5,5.6,2.2c2.3,0.9,2.2,0.9,4.4-1C119.3,81.4,119.9,81,119.9,81z M38.5,81.2l2.3,2.7l-3.1,2.6l-2.4-2.8L38.5,81.2z
		 M127.4,81.2c0.5,1,0.9,2.2,1.8,3.1c0.7,0.6,0.8,1.1,0.4,1.5c-1,0.6-1.2-0.4-1.5-1.1C127.6,83.5,126.9,81.9,127.4,81.2z M42.7,81.5
		c2.6-0.1,3.2,3.5,0.9,4.6c-0.8,0.3-1.8,0.2-2.3-0.3c-0.5-0.5-0.6-0.9-0.2-1.2c0.5-0.4,1.8-0.4,1.8-0.4s-1.2-0.4-1.7-0.7
		C40.2,82.8,41.1,81.5,42.7,81.5z M94.1,81.5L94.1,81.5c0.1,0,0.4,0.3,0.7,0.9c1.3,2.1,1.2,6.1-0.1,7.1c-0.7,0.5-1.5,0.4-2.1-0.2
		c-0.8-0.8-0.5-1.7,0.6-2.2c1.1-0.5,1.3-1.6,0.9-4.2C94,81.9,94,81.5,94.1,81.5L94.1,81.5z M33.7,81.5c0.6,0,1.3,0.3,1.6,0.9
		c0.3,0.4,0.1,0.8-0.4,1c-0.6,0.2-1.8,0.5-1.8,0.5s1.1,0.2,1.8,0.5c0.8,0.4,0.8,1.1-0.5,1.6c-2.4,1.1-4.6-1.9-2.7-3.7
		C32.4,81.7,33.1,81.4,33.7,81.5z M96.2,83L96.2,83c0.3,0,0.7,0.3,1.1,0.9c1.4,1.9,1.7,4.7,0.5,5.3c-1.3,0.6-2.2-0.6-1.3-1.7
		c0.7-0.7,0.6-1.8-0.3-4C96,83.2,96.1,83.1,96.2,83L96.2,83z M38.1,83.1c-0.5,0-0.8,0.4-0.8,0.8c0,0.5,0.4,0.8,0.8,0.8
		c0.5,0,0.8-0.4,0.8-0.8C39,83.4,38.6,83.1,38.1,83.1z M126.9,83.1c0.1,0,0.3,0.4,0.6,1.4c0.7,2,1.3,2.9,2.1,2.9
		c0.9,0,1.4,1.3,0.7,1.8c-1.5,1-3.4-1.5-3.5-4.6C126.7,83.6,126.8,83.1,126.9,83.1z M119.2,84.1L119.2,84.1l-0.4,1.6
		c0,0-1,1-1.7,1.6c-1.1,1-1.4,1.2-2.3,0.9c-1.4-0.5-2.7-0.9-4.2-1.3l-3.3-2.7l7.5,2.9c0,0,0.7,0.2,0.9,0
		C116.7,86.1,117.8,85.3,119.2,84.1z M126.3,85.7c0.1,0,0.2,0.1,0.3,0.4c0.3,1.5,0.8,2.7,1.3,2.8c0.5,0.2,0.7,0.7,0.5,1.1
		c-0.6,1.3-2.3-1-2.3-3.3C126,86.1,126.1,85.7,126.3,85.7z M99.1,85.8c0.1,0,0.2,0.1,0.5,0.4c1,1,1.4,3.9,0.5,4.8
		c-1.2,1.2-2.5-0.6-1.3-1.8c0.3-0.3,0.3-0.4,0.2-1.8C99,86.2,98.9,85.8,99.1,85.8z M36,86.1l-0.8,2.7l-2.6,0.7l0.6-2.2L36,86.1z
		 M39.1,86.3c0.2,0,0.4,0.1,0.7,0.2c1.1,0.8,1.1,2.1,0.7,3.1c-0.5,0.9-1.4,1.2-2.4,1.1c-1.2-0.1-2.1-1-2.1-2.3
		c0-0.7,0.3-1.4,0.7-1.7c0.3-0.2,0.6-0.1,0.8,0.3c0.3,0.4,0.7,1.4,0.7,1.4s0-1,0.2-1.5C38.5,86.6,38.8,86.4,39.1,86.3z M41.1,86.6
		l1.9,0.6l0.7,2.6L41.6,89L41.1,86.6z M148.6,87c2,1.4,2.7,1.9,4.8,3.8l-0.1,33.5l-6.1-3.8c0.6-5.5,1.1-11,1.8-16.4
		c0.4-5.2,1.4-6.7-2-8.8c3.8-1.8,2.7-5.9,0.3-7.5L148.6,87z M118.3,87.2l-0.3,1.5c-1.2,2.1-2.3,2-4.2,1l-2.2-1.9
		c1.5,0.3,2.2,0.8,3.7,1.2c0.7,0.2,1,0.1,1.5-0.4C117.2,88.1,117.6,87.7,118.3,87.2z M100.9,87.6c0.1,0,0.4,0.1,0.6,0.4
		c0.8,0.8,1,1.7,0.9,3.7c-0.1,1.4-0.1,2.5-1.3,3.3c-0.6,0.4-1.6,0.4-2,0c-1.1-0.7-0.5-2.2,0.9-2.2c0.9,0,1.2-2.9,0.7-4.7
		C100.8,87.8,100.8,87.6,100.9,87.6L100.9,87.6z M125.5,87.9c0.2,0,0.5,0.4,0.7,1.2c0.3,1,0.6,1.6,1.2,1.9c0.7,0.4,1,1.1,0.5,1.5
		c-0.9,0.9-1.9-0.2-2.2-2.3C125.6,89.9,125.2,87.9,125.5,87.9z M145.6,88.2c2.1,0,3.3,1.5,3.3,3.3c0,1.3-0.7,2.6-2,3.1
		c-3.1,0.9-4.7-1.2-4.7-3.2C142.2,89.9,143.5,88.2,145.6,88.2z M102.8,89c0.2,0,0.5,0.3,0.6,0.4c1.8,1.8,1.8,5.5,0.1,5.5
		c-2.1-0.7-0.5-1.9-0.4-2.2c0.2-1.3-0.1-2.1-0.4-3.3C102.6,89.1,102.7,89,102.8,89z M145.7,89.2c-0.4,0-0.3,0.4,0.3,0.9
		c1.2,1.1,0.6,3-0.9,3c-0.7,0-0.9,0.5-0.3,0.7c2.4,1,4.1-2.7,1.9-4.2C146.3,89.4,146,89.2,145.7,89.2z M53.5,89.7
		c1.9,0.7,2.6,4.4,2.7,5.7c0.1,2.3-1,6-1.9,6.7c-2.4,1.9-3.6-4.9-1.5-9.3c0.2-0.4,0.4-0.8,0.3-1.7C53,90.2,53.2,89.7,53.5,89.7
		L53.5,89.7z M117.6,90.1c0,0-0.2,1.1-0.5,1.7c-0.3,0.7-0.5,0.7-1.2,0.1c-0.4-0.3-1-1-1-1c0.6,0.1,1.2,0.4,1.7,0.2
		C117.1,90.8,117.5,90.3,117.6,90.1z M125,90.1c0.1,0,0.3,0.4,0.5,1.2c0.6,2.1,1.2,2.9,2,2.9c1.4,0,1.7,1.7,0.4,2.1
		c-0.5,0.2-0.6,0.2-1.3,0c-0.9-0.2-2.2-3.4-2-5C124.8,90.5,124.9,90.1,125,90.1z M39.6,91.4c0.5,0,0.7,0.2,1,0.9
		c0.3,0.7,1.2,1.6,2,2c1.8,0.9,3.7,1.6,5.5,2.5c2.3,1.2,4.4,4.8,3,5.1c-0.5,0.1-1.1,0.1-1.6,0.1c-0.2-0.1-0.5-0.5-0.8-0.9
		c-1.1-1.7-3.1-3.5-6.1-4.3c-2.2-0.6-4.1-3.2-4.5-4.5C38,92,38,91.7,38.2,91.6C38.9,91.5,39.3,91.4,39.6,91.4z M105.4,91.6
		c0.1,0,0.2,0.1,0.5,0.3c1.3,1.4,1.4,3.9,0.3,4.6c-1.3,0.8-2.4-0.5-1.4-1.6c0.4-0.5,0.4-0.5,0.4-1.9C105.2,92,105.3,91.6,105.4,91.6
		z M124.2,93.2c0.2,0,0.4,0.4,0.7,1.3c0.4,1.2,0.5,1.3,0.9,1.5c0.8,0.4,0.9,1,0.3,1.6c-1.1,1.1-2.1-0.6-2.1-3.4
		C124,93.5,124.1,93.2,124.2,93.2z M107.4,93.4c0.1,0,0.4,0.2,0.6,0.5c1.6,1.9,1.3,6.3-0.5,6.9c-0.6,0.2-0.8,0.2-1.1,0.1
		c-1.3-0.6-1.2-2,0.5-2.8C108,97.3,107.1,93.4,107.4,93.4L107.4,93.4z M26.6,94.8l6.5,3.2c0,0,1.8,3.8,2.6,5.2
		c0.6,1,1.7,1.9,0.5,2.6c-2,1.3-3.1,2.1-3.1,2.9c0,0.7,0.8,1.4,2,2.7c1.6,1.9,1.6,1.5,0.1,4.3c-1.1,2-2.1,6.6-2.1,6.6l-6.6,3.4
		c2-4.7,4.3-8.7,6.9-11.5c-1.9-1.4-3.5-2.9-5.2-4.9c1.2-1.7,2.9-3,4.4-4.5C29.6,101.3,27.7,98,26.6,94.8z M109.1,94.8L109.1,94.8
		c0.3,0,0.9,0.7,1.5,1.8c0.7,1.4,0.8,3.2,0.1,3.8c-1.1,1.1-2.5-0.3-1.5-1.5c0.7-0.5,0.5-1.8,0-3.2C108.9,95.1,108.9,94.8,109.1,94.8
		z M25.9,95.4c1.7,3.6,3.6,6.5,5.5,9.3l-4.2,4.5c1.3,1.5,2.9,3.2,5.1,5c-2.7,3-4.5,7.3-6.3,11.3L25.9,95.4z M123.5,95.5
		c0.1,0,0.4,0.4,0.6,1.3c0.3,1.1,0.5,1.4,1.1,1.7c1,0.4,1,1.4,0,1.8c-0.4,0.1-1.1-0.2-1.3-0.7c-0.4-0.7-0.6-1.6-0.6-2.5
		C123.2,96,123.3,95.5,123.5,95.5z M145.7,96.1c0.4,0,0.9,0,1.3,0.1c1.6,0.5,2.2,2.1,1.9,5c-0.4,4-0.9,8.4-1.3,12.1
		c-0.5,4.2-0.8,6.9-0.8,6.9l-0.4-0.3c0,0,0.1-2.3,0.3-3.7c0.4-3.2,0.6-5.9,0.9-9.1c0.7-7,0.5-9.2-0.8-9.9c-1-0.5-1.4-0.2-0.7,0.5
		c1.4,1.1,1.3,1.5-0.1,18.8c-0.2,1.8-0.2,3.1-0.2,3.1l-1.9-1.2c0,0-0.1-1.5-0.3-3.7c-0.4-4.2-0.7-8.7-0.9-12.7
		C142.2,97.7,143,96.2,145.7,96.1z M111.2,96.7c0.5,0.2,1.4,1.8,1.4,2c0.2,0.6,1.1,4.8-1.2,3.6c-0.6-0.4-0.7-0.9-0.2-1.5
		c0.5-0.6,0.6-1.5,0.4-2.7C111.4,97.3,111.2,96.7,111.2,96.7z M41.6,97.4l0.2,0c2,0.4,4.2,1.6,5.7,3c0.9,0.9,0.8,1.7-0.5,1.8
		c-1.3,0.2-1.4,0.4-2-0.1c-0.3-0.2-0.8-0.8-1.5-0.9C41.5,100.9,40.5,97.6,41.6,97.4L41.6,97.4z M123.1,98.5c0.2,0.3,0.2,1,0.4,1.5
		c0.3,1.3,1.2,2.3,2.1,2.2c0.6-0.1,1.3,0.1,1.4,0.8c0.2,0.6-0.1,1.1-0.7,1.3c-0.7,0.3-1.5,0.1-2.1-0.4
		C122.9,102.7,122.2,98.9,123.1,98.5z M113.3,98.5l0.1,0c0.7,0.3,1.6,2.6,1.7,4.4c0,1.3-0.2,3-1.3,3.6c-0.7,0.4-1.5,0.2-1.8-0.4
		c-0.4-0.8-0.1-1.6,0.7-1.9c1-0.5,1.3-2.5,0.7-4.5C113.4,99.4,113,98.6,113.3,98.5L113.3,98.5z M36.5,99.5l5.3,2.7
		c-0.8,1.1-1.4,2-1.8,3.2C38.3,103.4,37.4,101.5,36.5,99.5z M115.4,100.4c0.1,0,0.4,0.3,0.7,0.5c1.3,1.3,1.9,3.6,1.1,4.5
		c-0.6,0.7-1.6,0.6-1.8-0.1c-0.1-0.4,0.3-1,0.5-1.3c0.2-0.5,0.2-1.8-0.2-2.8C115.4,100.8,115.3,100.4,115.4,100.4z M78.5,100.9
		l6,0.2l20.1,18.2l-1.9,0l-18.5-16.9l-5.8,0L78.5,100.9z M43.8,102c0.8,0.1,0.5,1.8,0.1,2.3c-2.3,3.6-2.9,8.3-1.5,12.3
		c1.1,2.9-1.3,3.1-2.2,1.2c-0.7-1.4-1.4-3.9-0.9-6.6c0.6-3.2,1.5-8.6,4.4-9.2L43.8,102z M121.6,103.5c4.2,0.2,5.4,6.2,4.7,9.5
		c-0.6,2.9-1.7,4.3-3.3,4.9c-6.6,2.4-9.4-10.8-3.3-14C120.4,103.6,121,103.5,121.6,103.5z M78.1,104.3l5.7,0.1
		c5.2,4.7,10.7,9.1,16.2,14.8h-2.8l-14.5-13.2l-4.9-0.1L78.1,104.3z M121.3,105.2c-3.1,0.1-3.3,4.3-3.2,5.9c0.2,2.3,1.1,5.6,4,5.4
		c2.1-0.2,3.1-2.7,2.9-5.7C124.8,107.9,123.7,105.2,121.3,105.2z M77.6,106.6l5,0.1l13.6,12.6H94c-4.1-3.7-8.1-7.7-11.9-10.9
		l-5.2-0.2L77.6,106.6z M120.9,106.7l0.2,0c1.2,0.3,1.1,2.6,0.6,3.4c-0.5,0.6-1.7-0.5-1.8-2C119.8,107.4,120.3,106.7,120.9,106.7z
		 M39.3,107c-0.4,1.4-0.7,2.9-0.8,4.6l-2.1-2.6L39.3,107z M123,109.6c0.5,0,0.9,0.4,0.9,0.9c0,0.5-0.4,0.9-0.9,0.9
		c-0.5,0-0.9-0.4-0.9-0.9C122.1,110,122.5,109.6,123,109.6z M81.2,110l9.9,9.3l-2.8,0l-8.1-7.4l-5.2-0.2l1-1.8L81.2,110z
		 M119.7,110.2c0.5,0,0.9,0.4,0.9,0.9c0,0.5-0.4,0.9-0.9,0.9c-0.5,0-0.9-0.4-0.9-0.9C118.8,110.6,119.2,110.2,119.7,110.2z
		 M131.5,110.2c5.6,4.3,13.5,10.1,21.6,14.8c0,0-1.3,1.1-2.6,1.4c-6.4-3.5-14-8.5-18.6-12.5c-4.4,6.5-12.9,18.4-20.5,23.9
		c-4.8,3.4-7.2,7.6-7.2,12.6c0,5.1,1.8,8.4,6.8,12.6c3.2,2.7,6.8,6.1,6.8,6.1l-2.1,1.7c-6.9-6-15.7-12.2-14-22.3
		c0.7-4.6,2.2-7.9,6.5-11.5c1.7-1.3,3.4-2.3,4.8-3.8C126.7,118.8,131.5,110.2,131.5,110.2z M121.7,111.6c0.3,0.1,0.6,0.6,0.8,0.9
		c0.5,1.1,0.8,2.4-0.8,2.5c-1,0.1-1.5-1.5-0.7-2.9C121.2,111.7,121.4,111.6,121.7,111.6z M74.8,112.3l5.3,0.2c0,0,5.3,4.6,7.9,7.2
		h17.9c9.8,0,17.9,0,18,0.1c0.1,0.1-1.3,2-1.3,2l-59.1,0c0,0,3.6-3.3,4.9-4.2C70.9,115.9,73,114.4,74.8,112.3L74.8,112.3z
		 M38.6,114.5c0.4,1.4,0.7,2.9,1.4,4.2l-4.1,2.2C36.6,118.7,37.5,116.6,38.6,114.5z M152.4,126.4c-0.8,2.2-2.9,6.8-5.5,10.2
		c-0.5,0.7-0.9,1.2-0.9,1.2l5,4.8l-4.4,4.6c2.4,2.6,4.5,6.5,5.6,9.6c-2-0.8-3.1-1.3-5.5-2.6c-0.7-1.7-1.4-3.6-2.2-5.2
		c-1.8-3.6-1.8-3.3-0.3-4.3c2.1-1.6,2.8-1.9,2.2-2.7c-0.4-0.6-2.9-3.5-3-3.6c-0.2-0.1-0.1-0.6,0.3-1.3c1.5-2.6,2.6-5.5,3.4-8.1
		L152.4,126.4z M153.4,126.6l0.1,30.4c-1.8-3.6-3.7-7.3-5.8-9.6c-0.1-0.2,4.6-4.7,4.6-4.7c-1.7-1.6-2.7-2.5-5.1-4.7
		C149.6,134.6,151.4,130.2,153.4,126.6z M26,127.6l5.8,3.3c-0.3,4.3-0.7,9.9-1.3,15.6c-0.5,4.5-0.7,6.5,0.1,7.7
		c0.7,0.9,2.5,1.9,2.5,1.9c-3,1.2-4.2,4.9-0.8,7.6c0,0-0.8,0.6-1.2,1l-4.7-3.5L26,127.6z M116.1,129.2c-1.4,1.6-3.7,4-5.4,5.1
		c-2.3,1.5-5.5,4.5-5.4,4.5c0,0-3.4,0-5.7-0.1l-7.9-7.1c-9.1-0.1-21.5,0.1-35.7-0.1l1.6-2.2L116.1,129.2z M144.4,130.6
		c-0.8,2.5-2,4.8-3.5,7c-0.4-1.5-0.5-3.2-1.3-4.5L144.4,130.6z M32.5,131.4l0.7,0.5c0,0-0.4,5.2-0.5,6.8c-0.2,2.8-0.4,5.4-0.6,8.3
		c-0.5,5.7-0.4,6.6,0.7,7.5c0.9,0.6,1.5,0.4,0.7-0.5c-0.5-0.7-0.5-0.6-0.7-1.6c-0.1-0.7-0.1-1.7,0.1-4.3c0.9-15.1,1-15.7,1.1-15.7
		l1.7,1.1c-0.1,0.2,1.6,15.3,1.4,19c-0.2,4.4-6.1,3.4-6.3,0.2c-0.1-0.7,1-13,1-13L32.5,131.4z M80.4,132.2l2.3,0.1l14.2,13.1
		l4.8,0.1l-0.4,1.7l-4.7,0L80.4,132.2z M89.2,132.2h2.2l8.1,7.4l5,0.1l-1,1.4l-5-0.1L89.2,132.2z M86.4,132.2l12,10.9l4.1,0.2
		l-0.6,1.5l-4.9-0.1l-13.5-12.4L86.4,132.2z M74.8,132.3h2.5l18.8,17l4.9,0.1l-0.1,1.5l-5.9,0L74.8,132.3z M137.7,132.8
		c0.1,0,0.3,0,0.4,0c1,0.2,1.5,1.2,2.2,4.8c0.8,4.2-1,10.9-3.2,12.2c-1.1,0.9-2.4-0.1-1.6-1.2c2.6-3.8,3-10.1,1.4-13.6
		C136.5,133.9,136.8,132.9,137.7,132.8L137.7,132.8z M58.3,133.4c6,0.1,7.6,12.4,1.6,14.2c-3.8,0.6-5.8-2.9-6.4-6.1
		C52.9,137.6,54.6,133.4,58.3,133.4z M58.4,135c-3.1-0.2-3.7,3.9-3.4,5.8c0.4,2.5,1.9,5.3,4.1,5.1c2.9-0.3,3.3-4.2,3-6.2
		C61.8,137.3,60.5,135.1,58.4,135z M58.2,136c0.8,0,1.5,1.1,1.2,2.5c-0.1,0.9-0.5,2-1.5,1.3c-0.5-0.4-0.9-1.7-0.8-2.6
		C57.2,136.5,57.5,136,58.2,136z M141,138.9l2.8,3.3l-3.2,2.2C141.1,142.7,141.3,140.8,141,138.9z M60.3,139.2
		c0.5,0,0.9,0.4,0.9,0.9s-0.4,0.9-0.9,0.9c-0.5,0-0.9-0.4-0.9-0.9S59.8,139.2,60.3,139.2z M57,139.7c0.5,0,0.9,0.4,0.9,0.9
		s-0.4,0.9-0.9,0.9c-0.5,0-0.9-0.4-0.9-0.9S56.5,139.7,57,139.7z M58.9,140.9c0.4,0.1,0.7,0.6,0.9,0.9c0.6,0.9,0.7,2.1,0.3,2.5
		c-0.9,1.1-2.3-0.1-2.1-1.7c0-0.8,0.2-1.6,0.8-1.8L58.9,140.9z M66.7,144.5c1.3,0,1.7,1.6,0.6,2.3c-0.7,0.5-0.9,2.1-0.4,4.3
		c0.4,1.6,0.2,1.9-0.8,0.4C64.4,148.9,64.8,144.5,66.7,144.5z M63.6,145.4c1.2,0,1.5,0.8,0.9,1.5c-0.4,0.4-0.4,1.6,0.1,2.6
		c0.6,1.4,0.5,1.8-0.7,0.5C62.3,148.2,62.3,145.4,63.6,145.4z M140.1,146c1.3,1.7,2.5,4,3.5,6.6l-5.7-2.6L140.1,146z M54.7,146.6
		c2.5,0,3.3,6.1,2.2,6.4c-0.4-0.5-0.6-2-0.9-2.6c-0.3-0.8-0.5-1.2-0.9-1.2c-2.4,0.2-2.3-2.1-0.9-2.5
		C54.4,146.6,54.5,146.6,54.7,146.6z M68.7,148.8c0.7,0,0.5,1.2,0.1,1.9c-0.6,1.1-0.1,1.9,0,3.2c0.1,0.6,0.1,0.7-0.4,0.3
		c-1.1-1-1.7-4.4-0.7-5C68.2,148.9,68.5,148.8,68.7,148.8z M125.8,149.1c0.7-0.1,1.4,0.7,1.6,1.2c0.5,1.2,0.4,4,0.2,5.5
		c-0.3,2.3-0.9,4.4-1.1,6c-0.8,1-2.8-2.4-3-5.1c-0.3-2.1,0.3-6.7,2-7.5C125.6,149.2,125.7,149.1,125.8,149.1z M133.6,149.5
		c0.5,0,0.4,0.1,0.8,0.5c0.6,0.6,0.8,0.7,1.6,1c1.6,0.5,3.4,2.8,2.7,3.5c-0.5,0.4-2-0.4-2.5-0.6c-0.5-0.2-1.2-0.4-1.5-0.5
		c-1.4-0.5-3.3-3-2.7-3.5C132.2,149.6,133.2,149.5,133.6,149.5z M129.6,149.9c1,0,1.3,0.3,1.9,1.4c0.9,1.6,2.4,2.8,4.8,3.4
		c3,0.9,5.5,2.6,5.4,5.8c-0.7,0-1.4,0.1-2.1,0.3c-0.8-2.3-2.9-3.6-4.6-4c-4-0.9-7.8-5-6.7-6.6C128.6,149.9,129.1,149.9,129.6,149.9
		L129.6,149.9z M59.9,150.1l34.9,30.4c-14.7-5.5-28.2-5.4-41.3-3.3L59.9,150.1z M54.8,150.6c1.3,0.1,1.7,2,1.8,3.2
		c0,1.7-0.5,1.6-0.7,0c-0.1-0.7-0.3-1-0.9-1.2C53.6,152.3,53.5,150.6,54.8,150.6z M73.5,150.7c0.7,0.1,1.4,0.7,1.3,1.5
		c-0.1,0.9-1.4,1.1-1.6,1.4c-0.7,0.6-0.6,2.2-0.3,4.1c0.2,1.1-0.1,1.1-0.7,0.2c-1.1-1.6-1-4.4-0.3-6
		C72.3,150.9,72.9,150.6,73.5,150.7z M70.6,150.8c0.9,0,0.6,1.2,0.4,1.7c-0.3,0.4-0.3,2.1,0,3.3c0.2,0.7-0.1,0.7-0.6,0.2
		c-1.4-1.7-1.3-4.8-0.2-5.1C70.3,150.8,70.4,150.8,70.6,150.8z M54.5,153.3c0.8,0,1.3,1.7,1.3,2.6c0.1,1.7-0.4,1.8-0.9,0.2
		c-0.1-0.4-0.3-0.8-0.5-0.9c-0.9-0.7-1.1-1.2-0.6-1.7C54.2,153.3,54.4,153.3,54.5,153.3L54.5,153.3z M61,154.4l-4.7,20.2
		c11.6-1,16.9-1.2,29.4,1.3L61,154.4z M74.8,154.7c0.1,0,0.2,0,0.3,0c0.7,0.2,1,1.1,0.1,2c-0.3,0.3-0.5,0.9-0.2,2.3
		c0.5,2-0.3,1.3-1.2-0.5C73.2,157.4,73.4,154.7,74.8,154.7z M52.8,154.8c1.3,0,2.4,2.1,2.5,4.3c0,1.8-0.2,1.7-0.9-0.1
		c-0.5-1.1-0.9-1.6-1.7-1.9C51,156.6,51.2,154.8,52.8,154.8z M61.4,155.4l21.9,19.2c-9-1.4-17.8-1.5-26.3-0.5L61.4,155.4z
		 M79.6,156.1c1.7,0,2.4,2.1,0.3,2.9c-1.3,0.4-0.7,3-0.5,4.5c0.1,0.6-0.1,0.6-0.5,0.1C77.6,161.6,76.9,156.7,79.6,156.1z
		 M76.8,156.9c0.7,0,1.2,0.7,0.5,1.6c-0.3,0.5-0.3,1-0.1,2c0.6,2.1,0.7,2.4-0.5,1.4c-1.2-1.3-1.8-3.9-0.7-4.6
		C76.2,157,76.5,156.9,76.8,156.9z M34,156.9c2,0,3.5,1.3,3.4,3.1c-0.1,2-1.4,3.3-3.2,3.4c-2.1,0.1-3.4-1.6-3.4-3.3
		C30.8,158.7,31.7,156.9,34,156.9z M34,157.7c-2.3,0-3.2,3.1-1.3,4.5c0.8,0.6,1.5,0.4,0.8-0.2c-1.3-1.2-0.8-3.2,0.9-3.6
		C35.2,158.2,34.9,157.7,34,157.7z M62.3,158.2l-2.8,13.6c5.7-0.9,12.7-0.6,18-0.1L62.3,158.2z M52.9,158.8c1.4-0.1,1.8,2,1.8,2.9
		c0,1.1-0.1,1.6-0.3,1.1c-0.5-1.4-0.9-2.1-1.4-2.1c-0.3-0.1-0.5-0.2-0.7-0.4C51.7,159.5,52.2,158.8,52.9,158.8z M62.5,159.3l1.8,1.6
		c-1.2-0.5-2.2,0.8-2.2,0.8L62.5,159.3z M81.2,160.2c0.6,0.1,1.1,0.7,0.4,1.7c-0.5,0.7-0.5,2.1-0.1,3.8c0.1,0.5-0.3,0.1-0.8-0.4
		c-0.8-1-1.2-2.3-1.1-3.3C79.7,160.7,80.5,160.2,81.2,160.2z M52.3,160.7c1.2,0.1,1.6,2.6,1.6,3.4c0,0.8-0.2,1.3-0.4,0.8
		c-0.3-1-0.9-2.5-1.5-2.9C51.1,161.4,51.4,160.7,52.3,160.7z M141.2,161c1.5,0.1,2.6,1,2.6,2.5c0,0.9-0.3,1.8-0.9,2.1
		c-0.6,0.3-0.9-0.1-1.2-1.1c-0.2-0.7-0.3-1-0.3-1s-0.2,0.9-0.3,1.1c-0.4,1.3-1.8,1.3-2.4-0.1C138.1,162.7,139.8,161,141.2,161z
		 M64,161.6c0.4,0,2,0.7,2,0.7l1.6,1.4c0,0-1.5-0.6-2-0.8c-1.3-0.4-1.2-0.4-2.2,0.4c-1,0.9-1.9,1.5-1.9,1.5l0.3-1.8
		C61.9,162.9,63.4,161.6,64,161.6z M135.7,161.8l2.2,1l0.5,2.3l-2-0.5L135.7,161.8z M50.9,161.9c1.5,0.1,2.3,2.7,2.5,4.2
		c0.2,2-0.3,2.1-0.8,0.3c-0.5-1.6-0.9-2.2-1.7-2.2c-1.4,0.2-1.8-1.7-0.7-2.2C50.4,161.9,50.7,161.9,50.9,161.9z M86.8,162
		c1.5,0.1,1.5,2.2,0,2.5c-1,0.2-1,1.8-0.7,4c0.1,0.5,0.2,1.1,0.2,1.2c-0.2,0.4-0.7-0.2-1.3-1.7c-1-2.6-0.7-5.6,1.1-6.1
		C86.3,162,86.6,161.9,86.8,162L86.8,162z M147,162l-0.6,2.7l-1.9-0.1l-0.1-1.6L147,162z M83.1,162.1c0.8,0,1.2,1,0.7,1.6
		c-1,1.5-0.1,2.9,0.1,4c0,0.7-0.8,0-1.3-1c-1-2.1-1.1-3.7-0.2-4.5C82.7,162.2,83,162.1,83.1,162.1z M64.6,163.4
		c1.6,0.4,2.8,1,4.5,1.6l2.4,2.1c0,0-2.1-0.8-3.6-1.4c-3.3-1.4-2.8-1.4-5.4,0.5c-0.8,0.6-1.5,1.2-1.5,1.2l0.3-1.7c0,0,1-1,2.2-1.9
		C64,163.6,64.3,163.4,64.6,163.4z M34,164.2L34,164.2c1.7,0,2.8,1.3,3.2,2.8c0.2,0.9,0,1.7,0,2.5c-1.1,8.8-1.7,16.9-2.7,25
		c0,0.2-0.2,1.1-0.2,1.1s-0.1-0.3-0.3-1.1c-1.2-7.5-2-15.7-3.1-23.2c-0.2-2.8-1-6.4,2.6-7.1C33.6,164.2,33.8,164.2,34,164.2
		L34,164.2z M51.2,165.2c1.1,0,1.5,3.5,1.5,3.8c0,0.7-0.4,0.4-0.4,0c-0.3-0.9-0.8-1.8-1.3-2.2c-0.6-0.5-0.7-1.1-0.3-1.4
		C50.9,165.2,51,165.2,51.2,165.2z M33.9,165.2c-0.7,0-1.6,0.5-1.9,1.2c-0.6,1.3-0.5,4.1,0.7,12.3c0.1,0.7,0.2,1.8,0.3,2.5
		c0.2,2.2,0.5,3.9,0.7,4.2c0.4,0.6,0.4,0,0.2-2.2c-0.1-1.1-0.3-2.8-0.4-3.7c-0.5-3.9-0.7-6.7-1-10.2c-0.2-1.7,0.5-3,1.9-3.4
		c0.7-0.2,0.8-0.5,0.1-0.7C34.2,165.2,34.1,165.2,33.9,165.2z M141.5,165.3l2.2,2.5l-2.6,2.7l-2.5-2.7L141.5,165.3z M136.3,165.3
		c0.6,0,1.5,0.2,2,0.7c0.7,0.7,0.7,1-0.5,1.4c-0.6,0.2-1,0.4-1,0.4s0.5,0.2,0.9,0.3c1.1,0.4,1.1,1,0,1.8c-1.4,1.1-3.7-0.3-3.6-2.2
		C134.2,166.2,135.1,165.3,136.3,165.3L136.3,165.3z M145.4,165.3c2.5,0,3.4,3.5,1,4.7c-0.9,0.5-2.4,0.2-2.8-0.5
		c-0.2-0.6,0-0.9,0.5-1.1c0.5-0.3,1.3-0.5,1.3-0.5s-1.3-0.3-1.7-0.9C142.9,165.6,144.4,165.3,145.4,165.3z M65.2,165.5
		c0.6,0,1.8,0.5,4.5,1.6c1.5,0.6,3.2,1.3,3.2,1.3l2.5,2.2c0,0-3.4-1.1-4.5-1.7c-0.3-0.1-0.8-0.4-1.2-0.5c-0.4-0.2-1.5-0.6-2.4-0.9
		c-1.9-0.8-1.9-0.8-2.5-0.2c-0.3,0.2-0.9,0.7-1.5,1.2c-0.5,0.4-1.3,1-1.7,1.3c-0.5,0.4-1.1,0.9-1.1,0.9l0.4-2.1c0,0,0.4-0.3,1-0.8
		c0.5-0.4,1.4-1.1,1.9-1.5C64.3,165.8,64.6,165.5,65.2,165.5z M87.8,166.3l0.2,0c1.4,0.4,1.5,1.5,0.7,2c-0.6,0.6-0.7,1.7-0.3,3.1
		c0.1,0.4,0.3,0.8,0.2,0.9c-0.7,0.7-2.4-3.6-2-4.8C86.9,166.8,87.4,166.3,87.8,166.3z M141.3,167.1c-0.5,0-0.8,0.4-0.8,0.8
		c0,0.5,0.4,0.8,0.8,0.8c0.5,0,0.8-0.4,0.8-0.8C142.1,167.5,141.7,167.1,141.3,167.1z M50.6,167.5c0.5,0,1,0.3,1.3,1.1
		c0.7,2,0.3,4.5-0.5,2.2c-0.3-0.9-1.1-1.7-1.5-2.2C49.5,168.1,50.2,167.5,50.6,167.5z M65.6,167.6c0.3,0,0.7,0.2,1.4,0.4
		c0.6,0.3,2.4,0.9,3.5,1.3c1.6,0.6,3.3,1.4,3.3,1.4l-3.6-0.2c0,0-1.2-0.4-2-0.7c-2.6-1.1-2.5-1.1-3.8-0.1c-0.5,0.4-1.1,0.9-1.1,0.9
		l-1.8,0.1c0,0,0.9-0.9,2.1-1.8c0.4-0.3,1-0.7,1.2-1C65.1,167.7,65.3,167.6,65.6,167.6z M94.1,168.3c0.7,0.1,1.1,0.8,1.2,1.4
		c0.1,0.7-0.7,1.3-1.6,1.5c-0.2,0.7-0.8,2.4-0.4,4.9c0.3,1.2-0.2,1.2-0.7,0.1c-0.8-1.8-2-7.2,1.3-7.8
		C93.9,168.3,94,168.3,94.1,168.3z M90.3,168.6c0.9,0,0.9,1,0.6,1.7c-0.4,0.9-0.6,1.6-0.3,2.8c0.3,1.3,0.3,1.6-0.4,0.8
		c-1.4-1.9-1.6-4.9-0.3-5.2C90,168.6,90.2,168.6,90.3,168.6z M48.7,168.9L48.7,168.9c0.1,0,0.2,0,0.3,0c2.2,0.3,2.8,4.1,2.5,5.7
		c-0.6,1.9-0.6,0.6-0.8-0.2c-0.5-1.9-1.2-3-1.8-3.1C47.2,171,47.3,168.9,48.7,168.9z M65.8,169.7c0.6,0,1.9,0.5,2.6,0.8l-4,0
		C64.4,170.5,65.2,169.6,65.8,169.7z M142.3,170.2c0.3,0,0.7,0.3,1.1,0.8c1,1,0.6,2.7-0.8,3.5c-2.1,1.3-4.6-1.1-3.4-3.3
		c0.6-1.2,1.4-1,2.1,0.7c0.1,0.2,0-0.2,0.2-0.7C141.7,170.6,142,170.3,142.3,170.2z M138.7,170.4L138,173l-2.6,1.3l1-3.2
		L138.7,170.4z M144.1,170.8l2.1,0.2l1.2,3.4l-3-1.3L144.1,170.8z M94.9,172.7c1.5,0.1,1.7,1.5,0.8,2.1c-0.5,0.5-0.7,1.1-0.6,2.2
		c0,0.5,0.1,1.1,0.1,1.1c0,0.2-0.2,0.2-0.5-0.1C93.2,176.4,93.4,172.6,94.9,172.7z M49,173.3c1,0,2,2.8,1.5,3.8
		c-0.3,0.6-0.7,0.5-0.8-0.3c-0.1-0.5-0.4-1.2-1.2-1.4C47.5,175.1,47.9,173.3,49,173.3z M97.2,174.9c0.1,0,0.3,0,0.5,0
		c0.7,0.4,0.8,1.2,0.1,1.7c-0.5,0.4-0.6,0.7-0.7,1.7c0.2,2.3-1.3,0.8-1.2-1.2C95.9,175.7,96.2,174.9,97.2,174.9z M48.2,175.6
		c0.7,0,1.5,1.2,1.3,2c-0.1,0.6-0.4,0.5-0.8,0c-0.2-0.1-0.5-0.3-0.7-0.3C47,177,47.2,175.6,48.2,175.6L48.2,175.6z M67.8,176.6
		c9.3,0,19,1.4,27.1,4.7c-0.6,1.1-1.1,2.1-1.6,3.1c-0.2-0.4-0.3-0.7-0.5-1.1c0.1-0.4,0.1-0.9,0.2-1.3c-0.4,0.2-0.8,0.4-1.2,0.6
		c-0.5-0.1-0.9-0.1-1.4-0.1c0.2,0.4,0.4,0.8,0.6,1.2c0,0.4-0.1,0.9-0.2,1.3c0.4-0.2,0.8-0.4,1.2-0.6c0.4,0.1,0.8,0.1,1.2,0.2
		c-0.3,0.6-0.6,1.1-0.9,1.6c-9.5-3.1-19.8-5.5-36.8-2.9c-0.7-0.5-0.8-0.6-1.2-0.9c0.2-0.3,0.4-0.7,0.6-1c0.4-0.2,0.8-0.4,1.2-0.5
		c-0.4-0.3-0.7-0.5-1.1-0.8c-0.2-0.4-0.4-0.8-0.6-1.2c-0.3,0.4-0.5,0.8-0.8,1.1c-0.4,0.2-0.8,0.4-1.2,0.6c0.4,0.2,0.8,0.5,1.2,0.7
		c0.1,0.3,0.3,0.6,0.4,0.9c-1.2-0.9-1.8-1.3-4.1-3.2C55.3,177.4,61.5,176.6,67.8,176.6z M99.1,177c0.9,0,1.4,1,0.8,1.4
		c-0.5,0.3-1.5,0.4-1.7,0.1C97.8,178.1,98.4,177,99.1,177z M67.4,177.6c-0.3,0.3-0.6,0.6-1,1c-0.4,0.1-0.9,0.2-1.3,0.3
		c0.3,0.3,0.7,0.6,1,0.9c0.1,0.4,0.2,0.9,0.3,1.3c0.3-0.3,0.6-0.7,0.9-1c0.4-0.1,0.9-0.2,1.3-0.3c-0.3-0.3-0.6-0.6-1-1
		C67.6,178.4,67.5,178,67.4,177.6z M63.1,177.7c-0.3,0.3-0.6,0.7-0.9,1c-0.4,0.1-0.9,0.3-1.3,0.4c0.4,0.3,0.7,0.6,1,0.9
		c0.1,0.4,0.3,0.9,0.4,1.3c0.3-0.3,0.6-0.7,0.9-1c0.4-0.1,0.9-0.2,1.3-0.4c-0.3-0.3-0.7-0.6-1-0.9C63.3,178.5,63.2,178.1,63.1,177.7
		z M71.7,177.7c-0.2,0.2-0.4,0.4-0.6,0.6c-0.1,0.1-0.3,0.2-0.4,0.4c-0.4,0.1-0.9,0.2-1.3,0.3c0.3,0.3,0.6,0.7,0.9,1
		c0.1,0.4,0.2,0.9,0.3,1.3c0.1-0.1,0.3-0.3,0.4-0.4c0.2-0.2,0.4-0.4,0.6-0.5c0.4-0.1,0.9-0.2,1.3-0.2c-0.3-0.3-0.6-0.7-0.9-1
		C71.9,178.6,71.8,178.1,71.7,177.7z M58.8,178c-0.3,0.4-0.6,0.7-0.8,1.1c-0.4,0.2-0.9,0.3-1.3,0.5c0.4,0.3,0.7,0.5,1.1,0.8
		c0.2,0.4,0.3,0.8,0.5,1.3c0.3-0.4,0.5-0.7,0.8-1.1c0.4-0.2,0.8-0.3,1.3-0.4c-0.4-0.3-0.7-0.6-1.1-0.8
		C59.1,178.9,58.9,178.4,58.8,178z M76.1,178c-0.4,0.3-0.7,0.6-1.1,0.9c-0.5,0.1-0.9,0.1-1.4,0.2c0.3,0.3,0.6,0.7,0.9,1
		c0.1,0.4,0.1,0.9,0.2,1.3c0.3-0.3,0.7-0.6,1-0.9c0.4-0.1,0.9-0.1,1.3-0.2c-0.3-0.4-0.6-0.7-0.9-1C76.2,178.9,76.1,178.5,76.1,178z
		 M80.4,178.6c-0.4,0.3-0.7,0.5-1.1,0.8c-0.5,0-0.9,0.1-1.4,0.1c0.3,0.4,0.6,0.7,0.8,1.1c0,0.5,0.1,0.9,0.1,1.4
		c0.4-0.3,0.7-0.6,1.1-0.8c0.4,0,0.9-0.1,1.3-0.1c-0.3-0.4-0.5-0.7-0.8-1.1C80.4,179.5,80.4,179,80.4,178.6z M84.6,179.4
		c-0.4,0.2-0.8,0.5-1.1,0.7c-0.5,0-0.9,0-1.4,0c0.3,0.4,0.5,0.7,0.8,1.1c0,0.5,0,0.9,0,1.4c0.4-0.3,0.7-0.5,1.1-0.8
		c0.4,0,0.9,0,1.3,0c-0.2-0.4-0.5-0.8-0.7-1.1C84.7,180.3,84.6,179.8,84.6,179.4L84.6,179.4z M88.9,180.5c-0.4,0.2-0.8,0.4-1.2,0.7
		c-0.5,0-0.9,0-1.4,0c0.2,0.4,0.5,0.8,0.7,1.2c0,0.5,0,0.9-0.1,1.4c0.4-0.2,0.8-0.5,1.2-0.7c0.4,0,0.9,0.1,1.3,0.1
		c-0.2-0.4-0.4-0.8-0.7-1.2C88.8,181.4,88.8,180.9,88.9,180.5L88.9,180.5z M68.5,182.7c8.7,0,16.7,1.5,23.4,4.1c0,0-0.9,1.9-1.2,2.1
		c-4.8-1.9-13-3.7-18.5-3.8c-2-0.1-2.5-0.1-3.2-0.4c-4.2-1.4-7.9-2-11.4,0.1l-1.4-1C60.4,183,64.5,182.7,68.5,182.7z M31.5,193.9
		c1.2,0,2.3,1,2.3,2.3c0,1.2-1,2.3-2.3,2.3c-1.2,0-2.3-1-2.3-2.3C29.2,195,30.2,193.9,31.5,193.9z M96.9,194
		c0.7,0.4,3.4,1.6,3.4,1.6l-18.5,33.6l-4.5,0L96.9,194z M37.1,194.1c1.2,0,2.3,1,2.3,2.3c0,1.2-1,2.3-2.3,2.3c-1.2,0-2.3-1-2.3-2.3
		C34.9,195.1,35.9,194.1,37.1,194.1z M100.8,195.8c0.5,0.3,2.3,0.6,2.5,0.9c0.1,0.2-0.1,0.5-0.1,1c-0.1,1.1,0.2,2.2,0.8,3.2
		c1.1,1.5-0.1,0.8-1.1,0.8c-2.4-0.6-5.4,2.6-4.3,6c0.3,0.7,0.2,0.8-1.1,1.2c-2.9,0.9-4.2,4-2.8,6.7c0.7,1.4,0.7,1.4-0.5,1.5
		c-3.5,0.3-5.6,3.4-4.1,6.7c0.2,0.5,0.1,0.6-0.7,0.8c-2.4,0.4-3.5,2.5-3.8,4.7l-3.2,0L100.8,195.8z M103.9,197l6.2,1.7
		c-2.6,8.7-2.9,18.8,0.2,30.5l-14.2,0c2-1.8,1.2-4.2-1.1-4.7c2.2-1.3,2.2-4.7-0.4-5.1c-2.3-0.4-3.6,1.9-2.5,4.1l-1,0.3
		c0,0-0.5-0.6-0.6-0.9c-0.9-2.6,1-5.2,4.1-5.1c2,0,2.4-0.5,1.3-1.7c-1.9-2.1-1.3-5.2,1.2-6.4c1.2-0.5,1.8-0.2,1.8-0.2l0.1,1.4
		c0,0-0.5,0-0.8,0.1c-2.8,0.4-2.3,4.9,0.6,4.8c1.6,0,2.7-1.2,2.7-2.9c0-0.5,0-1.2,0-1.2c1.4,2.4,3.9,2.6,4.9,0.6
		c1.2-2.3-1-3.8-3.2-3.6c0,0,0.5-0.3,0.8-0.5c2.4-1.2,1.6-4.7-1.1-4.7c-1.8,0-2.9,1.7-2.3,3.5c0.1,0.3,0.3,0.7,0.3,0.7l-1.1,0.3
		c0,0-0.2-0.2-0.4-0.4c-1.8-2.9,1.1-6.1,4.8-5.3c1.4,0.4,1.3-0.5,0.6-1.4C103.9,199.8,103.3,198.4,103.9,197L103.9,197z M34.3,198.3
		l3.2,5.7l-3.6,6.6l-3.6-6.2L34.3,198.3z M34,201.2l-2.2,3.1l2.2,3.6l2.1-3.6L34,201.2z M33.9,202.4l1.5,2l-1.5,2.4l-1.4-2.3
		L33.9,202.4z M100.7,208.6c0.7,0,1.2,0.5,1.2,1.2c0,0.7-0.6,1.2-1.2,1.2s-1.2-0.6-1.2-1.2C99.5,209.1,100,208.6,100.7,208.6z
		 M92,224c0.7,0,1.3,0.6,1.3,1.3s-0.6,1.3-1.3,1.3c-0.7,0-1.3-0.6-1.3-1.3S91.3,224,92,224z M90.1,224.9L90.1,224.9
		c-0.1,0.1,0,1.2,0.3,1.6c-1.8,0.1-2.3,1.5-2.5,2.7l-1.6,0C86.5,225.2,90,225.1,90.1,224.9z"/>
	<path d="M48.3,26.8C41,37.3,33.1,43.4,32.9,51.6c0,2.7,1.4,7.2,5.9,8c2.9,0.6,6.9-1.8,7-6.6c0-1,1-0.9,1,0.4
		c-0.1,3.8-1.3,8.2-3.4,11.8c3.2,0,6.4,0,9.7,0c-2-3.6-3.2-8-3.4-11.8c0-1.3,1-1.3,1-0.4c0.1,4.8,4.1,7.2,7,6.6
		c4.5-0.9,5.9-5.4,5.9-8C63.6,43.4,55.7,37.3,48.3,26.8L48.3,26.8z"/>
	<path d="M131.2,223.9c-7.4-10.5-15.3-16.6-15.4-24.8c0-2.7,1.4-7.2,5.9-8c2.9-0.6,6.9,1.8,7,6.6c0,1,1,0.9,1-0.4
		c-0.1-3.8-1.3-8.2-3.4-11.8c3.2,0,6.4,0,9.7,0c-2,3.6-3.2,8-3.4,11.8c0,1.3,1,1.3,1,0.4c0.1-4.8,4.1-7.2,7-6.6
		c4.5,0.9,5.9,5.4,5.9,8C146.4,207.4,138.5,213.4,131.2,223.9z"/>
</g>
</svg>
